<?xml version="1.0" encoding="UTF-8" standalone="no"?>
<!DOCTYPE svg PUBLIC "-//W3C//DTD SVG 1.1//EN"
 "http://www.w3.org/Graphics/SVG/1.1/DTD/svg11.dtd">
<!-- Generated by graphviz version 2.40.1 (20161225.0304)
 -->
<!-- Title: /home/bdn_jz/bdn_jz/CameraTrackerLinux/src/BaslerGigECamera.cpp Pages: 1 -->
<svg width="625pt" height="285pt"
 viewBox="0.00 0.00 625.00 285.00" xmlns="http://www.w3.org/2000/svg" xmlns:xlink="http://www.w3.org/1999/xlink">
<g id="graph0" class="graph" transform="scale(1 1) rotate(0) translate(4 281)">
<title>/home/bdn_jz/bdn_jz/CameraTrackerLinux/src/BaslerGigECamera.cpp</title>
<polygon fill="#ffffff" stroke="transparent" points="-4,4 -4,-281 621,-281 621,4 -4,4"/>
<!-- Node0 -->
<g id="node1" class="node">
<title>Node0</title>
<polygon fill="#bfbfbf" stroke="#000000" points="100,-235.5 100,-276.5 239,-276.5 239,-235.5 100,-235.5"/>
<text text-anchor="start" x="108" y="-264.5" font-family="Helvetica,sans-Serif" font-size="10.00" fill="#000000">/home/bdn_jz/bdn_jz</text>
<text text-anchor="start" x="108" y="-253.5" font-family="Helvetica,sans-Serif" font-size="10.00" fill="#000000">/CameraTrackerLinux</text>
<text text-anchor="middle" x="169.5" y="-242.5" font-family="Helvetica,sans-Serif" font-size="10.00" fill="#000000">/src/BaslerGigECamera.cpp</text>
</g>
<!-- Node1 -->
<g id="node2" class="node">
<title>Node1</title>
<polygon fill="#ffffff" stroke="#bfbfbf" points="30.5,-179.5 30.5,-198.5 76.5,-198.5 76.5,-179.5 30.5,-179.5"/>
<text text-anchor="middle" x="53.5" y="-186.5" font-family="Helvetica,sans-Serif" font-size="10.00" fill="#000000">chrono</text>
</g>
<!-- Node0&#45;&gt;Node1 -->
<g id="edge1" class="edge">
<title>Node0&#45;&gt;Node1</title>
<path fill="none" stroke="#191970" d="M133.7497,-235.3511C116.0536,-225.1301 95.1006,-213.0279 79.0428,-203.7532"/>
<polygon fill="#191970" stroke="#191970" points="80.6254,-200.6254 70.2155,-198.6546 77.1243,-206.687 80.6254,-200.6254"/>
</g>
<!-- Node2 -->
<g id="node3" class="node">
<title>Node2</title>
<g id="a_node3"><a xlink:href="constants_8h.html" target="_top" xlink:title="header for constant definitions. ">
<polygon fill="#ffffff" stroke="#000000" points="39.5,-56.5 39.5,-75.5 107.5,-75.5 107.5,-56.5 39.5,-56.5"/>
<text text-anchor="middle" x="73.5" y="-63.5" font-family="Helvetica,sans-Serif" font-size="10.00" fill="#000000">constants.h</text>
</a>
</g>
</g>
<!-- Node0&#45;&gt;Node2 -->
<g id="edge2" class="edge">
<title>Node0&#45;&gt;Node2</title>
<path fill="none" stroke="#191970" d="M159.0436,-235.305C140.2901,-198.1888 101.2093,-120.8413 83.0973,-84.9948"/>
<polygon fill="#191970" stroke="#191970" points="86.02,-83.018 78.3864,-75.671 79.7722,-86.1748 86.02,-83.018"/>
</g>
<!-- Node4 -->
<g id="node5" class="node">
<title>Node4</title>
<g id="a_node5"><a xlink:href="_basler_gig_e_camera_8h.html" target="_top" xlink:title="Header file for the Basler GigE Camera class. ">
<polygon fill="#ffffff" stroke="#000000" points="181,-179.5 181,-198.5 290,-198.5 290,-179.5 181,-179.5"/>
<text text-anchor="middle" x="235.5" y="-186.5" font-family="Helvetica,sans-Serif" font-size="10.00" fill="#000000">BaslerGigECamera.h</text>
</a>
</g>
</g>
<!-- Node0&#45;&gt;Node4 -->
<g id="edge4" class="edge">
<title>Node0&#45;&gt;Node4</title>
<path fill="none" stroke="#191970" d="M190.021,-235.168C199.2695,-225.7794 210.0516,-214.834 218.7957,-205.9574"/>
<polygon fill="#191970" stroke="#191970" points="221.3412,-208.3607 225.8655,-198.7805 216.3544,-203.4483 221.3412,-208.3607"/>
</g>
<!-- Node12 -->
<g id="node13" class="node">
<title>Node12</title>
<polygon fill="#ffffff" stroke="#bfbfbf" points="308.5,-179.5 308.5,-198.5 446.5,-198.5 446.5,-179.5 308.5,-179.5"/>
<text text-anchor="middle" x="377.5" y="-186.5" font-family="Helvetica,sans-Serif" font-size="10.00" fill="#000000">pylon/PylonUtilityIncludes.h</text>
</g>
<!-- Node0&#45;&gt;Node12 -->
<g id="edge14" class="edge">
<title>Node0&#45;&gt;Node12</title>
<path fill="none" stroke="#191970" d="M233.3204,-235.4425C267.6534,-224.3833 308.8899,-211.1004 338.4514,-201.5781"/>
<polygon fill="#191970" stroke="#191970" points="339.557,-204.8992 348.0022,-198.5017 337.4107,-198.2363 339.557,-204.8992"/>
</g>
<!-- Node3 -->
<g id="node4" class="node">
<title>Node3</title>
<polygon fill="#ffffff" stroke="#bfbfbf" points="0,-.5 0,-19.5 147,-19.5 147,-.5 0,-.5"/>
<text text-anchor="middle" x="73.5" y="-7.5" font-family="Helvetica,sans-Serif" font-size="10.00" fill="#000000">opencv2/imgproc/imgproc.hpp</text>
</g>
<!-- Node2&#45;&gt;Node3 -->
<g id="edge3" class="edge">
<title>Node2&#45;&gt;Node3</title>
<path fill="none" stroke="#191970" d="M73.5,-56.2455C73.5,-48.9382 73.5,-38.6944 73.5,-29.7046"/>
<polygon fill="#191970" stroke="#191970" points="77.0001,-29.6426 73.5,-19.6427 70.0001,-29.6427 77.0001,-29.6426"/>
</g>
<!-- Node5 -->
<g id="node6" class="node">
<title>Node5</title>
<g id="a_node6"><a xlink:href="_generic_camera_8h.html" target="_top" xlink:title="Header of the camera base class. ">
<polygon fill="#ffffff" stroke="#000000" points="133,-118 133,-137 226,-137 226,-118 133,-118"/>
<text text-anchor="middle" x="179.5" y="-125" font-family="Helvetica,sans-Serif" font-size="10.00" fill="#000000">GenericCamera.h</text>
</a>
</g>
</g>
<!-- Node4&#45;&gt;Node5 -->
<g id="edge5" class="edge">
<title>Node4&#45;&gt;Node5</title>
<path fill="none" stroke="#191970" d="M226.75,-179.3906C218.3338,-170.1478 205.4203,-155.966 195.219,-144.7628"/>
<polygon fill="#191970" stroke="#191970" points="197.694,-142.2824 188.3734,-137.2449 192.5182,-146.9953 197.694,-142.2824"/>
</g>
<!-- Node9 -->
<g id="node10" class="node">
<title>Node9</title>
<g id="a_node10"><a xlink:href="_timed_frame_8h.html" target="_top" xlink:title="TimedFrame.h">
<polygon fill="#ffffff" stroke="#000000" points="244.5,-118 244.5,-137 324.5,-137 324.5,-118 244.5,-118"/>
<text text-anchor="middle" x="284.5" y="-125" font-family="Helvetica,sans-Serif" font-size="10.00" fill="#000000">TimedFrame.h</text>
</a>
</g>
</g>
<!-- Node4&#45;&gt;Node9 -->
<g id="edge10" class="edge">
<title>Node4&#45;&gt;Node9</title>
<path fill="none" stroke="#191970" d="M243.1563,-179.3906C250.4489,-170.2376 261.6007,-156.2409 270.4852,-145.09"/>
<polygon fill="#191970" stroke="#191970" points="273.2417,-147.247 276.7358,-137.2449 267.767,-142.8849 273.2417,-147.247"/>
</g>
<!-- Node10 -->
<g id="node11" class="node">
<title>Node10</title>
<polygon fill="#ffffff" stroke="#bfbfbf" points="343,-118 343,-137 456,-137 456,-118 343,-118"/>
<text text-anchor="middle" x="399.5" y="-125" font-family="Helvetica,sans-Serif" font-size="10.00" fill="#000000">pylon/PylonIncludes.h</text>
</g>
<!-- Node4&#45;&gt;Node10 -->
<g id="edge12" class="edge">
<title>Node4&#45;&gt;Node10</title>
<path fill="none" stroke="#191970" d="M261.125,-179.3906C288.9263,-168.9652 333.4844,-152.2559 364.4994,-140.6252"/>
<polygon fill="#191970" stroke="#191970" points="365.9206,-143.8303 374.0549,-137.0419 363.4627,-137.276 365.9206,-143.8303"/>
</g>
<!-- Node11 -->
<g id="node12" class="node">
<title>Node11</title>
<polygon fill="#ffffff" stroke="#bfbfbf" points="474,-112.5 474,-142.5 617,-142.5 617,-112.5 474,-112.5"/>
<text text-anchor="start" x="482" y="-130.5" font-family="Helvetica,sans-Serif" font-size="10.00" fill="#000000">pylon/gige/BaslerGigEInstant</text>
<text text-anchor="middle" x="545.5" y="-119.5" font-family="Helvetica,sans-Serif" font-size="10.00" fill="#000000">Camera.h</text>
</g>
<!-- Node4&#45;&gt;Node11 -->
<g id="edge13" class="edge">
<title>Node4&#45;&gt;Node11</title>
<path fill="none" stroke="#191970" d="M283.5974,-179.4581C331.6469,-169.9257 406.4194,-155.0918 463.7901,-143.7102"/>
<polygon fill="#191970" stroke="#191970" points="464.7985,-147.0784 473.9262,-141.6993 463.4362,-140.2123 464.7985,-147.0784"/>
</g>
<!-- Node5&#45;&gt;Node2 -->
<g id="edge9" class="edge">
<title>Node5&#45;&gt;Node2</title>
<path fill="none" stroke="#191970" d="M162.9375,-117.8906C145.7463,-107.9165 118.6418,-92.1908 98.7734,-80.6633"/>
<polygon fill="#191970" stroke="#191970" points="100.3523,-77.533 89.9462,-75.5419 96.8394,-83.5877 100.3523,-77.533"/>
</g>
<!-- Node6 -->
<g id="node7" class="node">
<title>Node6</title>
<polygon fill="#ffffff" stroke="#bfbfbf" points="126,-56.5 126,-75.5 185,-75.5 185,-56.5 126,-56.5"/>
<text text-anchor="middle" x="155.5" y="-63.5" font-family="Helvetica,sans-Serif" font-size="10.00" fill="#000000">exception</text>
</g>
<!-- Node5&#45;&gt;Node6 -->
<g id="edge6" class="edge">
<title>Node5&#45;&gt;Node6</title>
<path fill="none" stroke="#191970" d="M175.75,-117.8906C172.3532,-109.1862 167.2469,-96.1015 163.012,-85.2494"/>
<polygon fill="#191970" stroke="#191970" points="166.1989,-83.7882 159.3029,-75.7449 159.6778,-86.3331 166.1989,-83.7882"/>
</g>
<!-- Node7 -->
<g id="node8" class="node">
<title>Node7</title>
<polygon fill="#ffffff" stroke="#bfbfbf" points="203,-56.5 203,-75.5 244,-75.5 244,-56.5 203,-56.5"/>
<text text-anchor="middle" x="223.5" y="-63.5" font-family="Helvetica,sans-Serif" font-size="10.00" fill="#000000">string</text>
</g>
<!-- Node5&#45;&gt;Node7 -->
<g id="edge7" class="edge">
<title>Node5&#45;&gt;Node7</title>
<path fill="none" stroke="#191970" d="M186.375,-117.8906C192.8593,-108.8273 202.7414,-95.0149 210.6801,-83.9188"/>
<polygon fill="#191970" stroke="#191970" points="213.5559,-85.9143 216.5281,-75.7449 207.8629,-81.8412 213.5559,-85.9143"/>
</g>
<!-- Node8 -->
<g id="node9" class="node">
<title>Node8</title>
<polygon fill="#ffffff" stroke="#bfbfbf" points="262.5,-56.5 262.5,-75.5 356.5,-75.5 356.5,-56.5 262.5,-56.5"/>
<text text-anchor="middle" x="309.5" y="-63.5" font-family="Helvetica,sans-Serif" font-size="10.00" fill="#000000">opencv2/core.hpp</text>
</g>
<!-- Node5&#45;&gt;Node8 -->
<g id="edge8" class="edge">
<title>Node5&#45;&gt;Node8</title>
<path fill="none" stroke="#191970" d="M199.8125,-117.8906C221.3731,-107.6908 255.6478,-91.4763 280.1444,-79.8875"/>
<polygon fill="#191970" stroke="#191970" points="281.7874,-82.9822 289.3301,-75.5419 278.7939,-76.6545 281.7874,-82.9822"/>
</g>
<!-- Node9&#45;&gt;Node8 -->
<g id="edge11" class="edge">
<title>Node9&#45;&gt;Node8</title>
<path fill="none" stroke="#191970" d="M288.4063,-117.8906C291.9446,-109.1862 297.2636,-96.1015 301.675,-85.2494"/>
<polygon fill="#191970" stroke="#191970" points="305.0152,-86.3268 305.5387,-75.7449 298.5305,-83.6907 305.0152,-86.3268"/>
</g>
</g>
</svg>
