<?xml version="1.0" encoding="UTF-8" standalone="no"?>
<!DOCTYPE svg PUBLIC "-//W3C//DTD SVG 1.1//EN"
 "http://www.w3.org/Graphics/SVG/1.1/DTD/svg11.dtd">
<!-- Generated by graphviz version 2.40.1 (20161225.0304)
 -->
<!-- Title: /home/bdn_jz/bdn_jz/CameraTrackerLinux/include/BaslerGigECamera.h Pages: 1 -->
<svg width="276pt" height="128pt"
 viewBox="0.00 0.00 275.50 128.00" xmlns="http://www.w3.org/2000/svg" xmlns:xlink="http://www.w3.org/1999/xlink">
<g id="graph0" class="graph" transform="scale(1 1) rotate(0) translate(4 124)">
<title>/home/bdn_jz/bdn_jz/CameraTrackerLinux/include/BaslerGigECamera.h</title>
<polygon fill="#ffffff" stroke="transparent" points="-4,4 -4,-124 271.5,-124 271.5,4 -4,4"/>
<!-- Node10 -->
<g id="node1" class="node">
<title>Node10</title>
<polygon fill="#bfbfbf" stroke="#000000" points="53,-78.5 53,-119.5 199,-119.5 199,-78.5 53,-78.5"/>
<text text-anchor="start" x="61" y="-107.5" font-family="Helvetica,sans-Serif" font-size="10.00" fill="#000000">/home/bdn_jz/bdn_jz</text>
<text text-anchor="start" x="61" y="-96.5" font-family="Helvetica,sans-Serif" font-size="10.00" fill="#000000">/CameraTrackerLinux</text>
<text text-anchor="middle" x="126" y="-85.5" font-family="Helvetica,sans-Serif" font-size="10.00" fill="#000000">/include/BaslerGigECamera.h</text>
</g>
<!-- Node11 -->
<g id="node2" class="node">
<title>Node11</title>
<g id="a_node2"><a xlink:href="main_8cpp.html" target="_top" xlink:title="/home/bdn_jz/bdn_jz\l/CameraTrackerLinux\l/main.cpp">
<polygon fill="#ffffff" stroke="#000000" points="0,-.5 0,-41.5 110,-41.5 110,-.5 0,-.5"/>
<text text-anchor="start" x="8" y="-29.5" font-family="Helvetica,sans-Serif" font-size="10.00" fill="#000000">/home/bdn_jz/bdn_jz</text>
<text text-anchor="start" x="8" y="-18.5" font-family="Helvetica,sans-Serif" font-size="10.00" fill="#000000">/CameraTrackerLinux</text>
<text text-anchor="middle" x="55" y="-7.5" font-family="Helvetica,sans-Serif" font-size="10.00" fill="#000000">/main.cpp</text>
</a>
</g>
</g>
<!-- Node10&#45;&gt;Node11 -->
<g id="edge1" class="edge">
<title>Node10&#45;&gt;Node11</title>
<path fill="none" stroke="#191970" d="M100.2041,-70.6609C91.4815,-61.0783 81.9123,-50.5657 73.833,-41.6898"/>
<polygon fill="#191970" stroke="#191970" points="97.6535,-73.0583 106.9733,-78.0974 102.8301,-68.3463 97.6535,-73.0583"/>
</g>
<!-- Node12 -->
<g id="node3" class="node">
<title>Node12</title>
<g id="a_node3"><a xlink:href="_basler_gig_e_camera_8cpp.html" target="_top" xlink:title="Body file for the Basler GigE Camera class. ">
<polygon fill="#ffffff" stroke="#000000" points="128.5,-.5 128.5,-41.5 267.5,-41.5 267.5,-.5 128.5,-.5"/>
<text text-anchor="start" x="136.5" y="-29.5" font-family="Helvetica,sans-Serif" font-size="10.00" fill="#000000">/home/bdn_jz/bdn_jz</text>
<text text-anchor="start" x="136.5" y="-18.5" font-family="Helvetica,sans-Serif" font-size="10.00" fill="#000000">/CameraTrackerLinux</text>
<text text-anchor="middle" x="198" y="-7.5" font-family="Helvetica,sans-Serif" font-size="10.00" fill="#000000">/src/BaslerGigECamera.cpp</text>
</a>
</g>
</g>
<!-- Node10&#45;&gt;Node12 -->
<g id="edge2" class="edge">
<title>Node10&#45;&gt;Node12</title>
<path fill="none" stroke="#191970" d="M152.1592,-70.6609C161.0046,-61.0783 170.7086,-50.5657 178.9017,-41.6898"/>
<polygon fill="#191970" stroke="#191970" points="149.5057,-68.3754 145.2947,-78.0974 154.6493,-73.1234 149.5057,-68.3754"/>
</g>
</g>
</svg>
