<?xml version="1.0" encoding="UTF-8" standalone="no"?>
<!DOCTYPE svg PUBLIC "-//W3C//DTD SVG 1.1//EN"
 "http://www.w3.org/Graphics/SVG/1.1/DTD/svg11.dtd">
<!-- Generated by graphviz version 2.40.1 (20161225.0304)
 -->
<!-- Title: /home/bdn_jz/bdn_jz/CameraTrackerLinux/include/BaslerGigECamera.h Pages: 1 -->
<svg width="610pt" height="229pt"
 viewBox="0.00 0.00 610.00 229.00" xmlns="http://www.w3.org/2000/svg" xmlns:xlink="http://www.w3.org/1999/xlink">
<g id="graph0" class="graph" transform="scale(1 1) rotate(0) translate(4 225)">
<title>/home/bdn_jz/bdn_jz/CameraTrackerLinux/include/BaslerGigECamera.h</title>
<polygon fill="#ffffff" stroke="transparent" points="-4,4 -4,-225 606,-225 606,4 -4,4"/>
<!-- Node0 -->
<g id="node1" class="node">
<title>Node0</title>
<polygon fill="#bfbfbf" stroke="#000000" points="253.5,-179.5 253.5,-220.5 399.5,-220.5 399.5,-179.5 253.5,-179.5"/>
<text text-anchor="start" x="261.5" y="-208.5" font-family="Helvetica,sans-Serif" font-size="10.00" fill="#000000">/home/bdn_jz/bdn_jz</text>
<text text-anchor="start" x="261.5" y="-197.5" font-family="Helvetica,sans-Serif" font-size="10.00" fill="#000000">/CameraTrackerLinux</text>
<text text-anchor="middle" x="326.5" y="-186.5" font-family="Helvetica,sans-Serif" font-size="10.00" fill="#000000">/include/BaslerGigECamera.h</text>
</g>
<!-- Node1 -->
<g id="node2" class="node">
<title>Node1</title>
<g id="a_node2"><a xlink:href="_generic_camera_8h.html" target="_top" xlink:title="Header of the camera base class. ">
<polygon fill="#ffffff" stroke="#000000" points="118,-118 118,-137 211,-137 211,-118 118,-118"/>
<text text-anchor="middle" x="164.5" y="-125" font-family="Helvetica,sans-Serif" font-size="10.00" fill="#000000">GenericCamera.h</text>
</a>
</g>
</g>
<!-- Node0&#45;&gt;Node1 -->
<g id="edge1" class="edge">
<title>Node0&#45;&gt;Node1</title>
<path fill="none" stroke="#191970" d="M280.5106,-179.4183C253.2149,-167.2027 219.351,-152.0475 195.2713,-141.2711"/>
<polygon fill="#191970" stroke="#191970" points="196.4757,-137.9756 185.9183,-137.0853 193.6162,-144.365 196.4757,-137.9756"/>
</g>
<!-- Node7 -->
<g id="node8" class="node">
<title>Node7</title>
<g id="a_node8"><a xlink:href="_timed_frame_8h.html" target="_top" xlink:title="TimedFrame.h">
<polygon fill="#ffffff" stroke="#000000" points="229.5,-118 229.5,-137 309.5,-137 309.5,-118 229.5,-118"/>
<text text-anchor="middle" x="269.5" y="-125" font-family="Helvetica,sans-Serif" font-size="10.00" fill="#000000">TimedFrame.h</text>
</a>
</g>
</g>
<!-- Node0&#45;&gt;Node7 -->
<g id="edge7" class="edge">
<title>Node0&#45;&gt;Node7</title>
<path fill="none" stroke="#191970" d="M310.3186,-179.4183C301.7816,-168.56 291.4187,-155.379 283.2707,-145.0154"/>
<polygon fill="#191970" stroke="#191970" points="285.9682,-142.7834 277.0361,-137.0853 280.4653,-147.1099 285.9682,-142.7834"/>
</g>
<!-- Node8 -->
<g id="node9" class="node">
<title>Node8</title>
<polygon fill="#ffffff" stroke="#bfbfbf" points="328,-118 328,-137 441,-137 441,-118 328,-118"/>
<text text-anchor="middle" x="384.5" y="-125" font-family="Helvetica,sans-Serif" font-size="10.00" fill="#000000">pylon/PylonIncludes.h</text>
</g>
<!-- Node0&#45;&gt;Node8 -->
<g id="edge9" class="edge">
<title>Node0&#45;&gt;Node8</title>
<path fill="none" stroke="#191970" d="M342.9653,-179.4183C351.652,-168.56 362.1968,-155.379 370.4877,-145.0154"/>
<polygon fill="#191970" stroke="#191970" points="373.3178,-147.0805 376.8317,-137.0853 367.8517,-142.7076 373.3178,-147.0805"/>
</g>
<!-- Node9 -->
<g id="node10" class="node">
<title>Node9</title>
<polygon fill="#ffffff" stroke="#bfbfbf" points="459,-112.5 459,-142.5 602,-142.5 602,-112.5 459,-112.5"/>
<text text-anchor="start" x="467" y="-130.5" font-family="Helvetica,sans-Serif" font-size="10.00" fill="#000000">pylon/gige/BaslerGigEInstant</text>
<text text-anchor="middle" x="530.5" y="-119.5" font-family="Helvetica,sans-Serif" font-size="10.00" fill="#000000">Camera.h</text>
</g>
<!-- Node0&#45;&gt;Node9 -->
<g id="edge10" class="edge">
<title>Node0&#45;&gt;Node9</title>
<path fill="none" stroke="#191970" d="M384.4125,-179.4183C414.0455,-168.887 449.8258,-156.171 478.5591,-145.9594"/>
<polygon fill="#191970" stroke="#191970" points="479.7637,-149.2458 488.0142,-142.5991 477.4195,-142.65 479.7637,-149.2458"/>
</g>
<!-- Node2 -->
<g id="node3" class="node">
<title>Node2</title>
<polygon fill="#ffffff" stroke="#bfbfbf" points="0,-56.5 0,-75.5 59,-75.5 59,-56.5 0,-56.5"/>
<text text-anchor="middle" x="29.5" y="-63.5" font-family="Helvetica,sans-Serif" font-size="10.00" fill="#000000">exception</text>
</g>
<!-- Node1&#45;&gt;Node2 -->
<g id="edge2" class="edge">
<title>Node1&#45;&gt;Node2</title>
<path fill="none" stroke="#191970" d="M143.4063,-117.8906C120.9173,-107.6457 85.1082,-91.3326 59.6476,-79.7339"/>
<polygon fill="#191970" stroke="#191970" points="60.9968,-76.5025 50.4456,-75.5419 58.0948,-82.8727 60.9968,-76.5025"/>
</g>
<!-- Node3 -->
<g id="node4" class="node">
<title>Node3</title>
<polygon fill="#ffffff" stroke="#bfbfbf" points="77,-56.5 77,-75.5 118,-75.5 118,-56.5 77,-56.5"/>
<text text-anchor="middle" x="97.5" y="-63.5" font-family="Helvetica,sans-Serif" font-size="10.00" fill="#000000">string</text>
</g>
<!-- Node1&#45;&gt;Node3 -->
<g id="edge3" class="edge">
<title>Node1&#45;&gt;Node3</title>
<path fill="none" stroke="#191970" d="M154.0313,-117.8906C143.7663,-108.4683 127.9097,-93.9134 115.5994,-82.6137"/>
<polygon fill="#191970" stroke="#191970" points="117.8501,-79.9287 108.1163,-75.7449 113.1166,-85.0856 117.8501,-79.9287"/>
</g>
<!-- Node4 -->
<g id="node5" class="node">
<title>Node4</title>
<polygon fill="#ffffff" stroke="#bfbfbf" points="222.5,-56.5 222.5,-75.5 316.5,-75.5 316.5,-56.5 222.5,-56.5"/>
<text text-anchor="middle" x="269.5" y="-63.5" font-family="Helvetica,sans-Serif" font-size="10.00" fill="#000000">opencv2/core.hpp</text>
</g>
<!-- Node1&#45;&gt;Node4 -->
<g id="edge4" class="edge">
<title>Node1&#45;&gt;Node4</title>
<path fill="none" stroke="#191970" d="M180.9063,-117.8906C197.9353,-107.9165 224.7841,-92.1908 244.4651,-80.6633"/>
<polygon fill="#191970" stroke="#191970" points="246.349,-83.6161 253.209,-75.5419 242.8112,-77.5759 246.349,-83.6161"/>
</g>
<!-- Node5 -->
<g id="node6" class="node">
<title>Node5</title>
<g id="a_node6"><a xlink:href="constants_8h.html" target="_top" xlink:title="header for constant definitions. ">
<polygon fill="#ffffff" stroke="#000000" points="136.5,-56.5 136.5,-75.5 204.5,-75.5 204.5,-56.5 136.5,-56.5"/>
<text text-anchor="middle" x="170.5" y="-63.5" font-family="Helvetica,sans-Serif" font-size="10.00" fill="#000000">constants.h</text>
</a>
</g>
</g>
<!-- Node1&#45;&gt;Node5 -->
<g id="edge5" class="edge">
<title>Node1&#45;&gt;Node5</title>
<path fill="none" stroke="#191970" d="M165.4375,-117.8906C166.2692,-109.3657 167.5108,-96.6392 168.5562,-85.9235"/>
<polygon fill="#191970" stroke="#191970" points="172.0617,-86.0375 169.5493,-75.7449 165.0947,-85.3577 172.0617,-86.0375"/>
</g>
<!-- Node6 -->
<g id="node7" class="node">
<title>Node6</title>
<polygon fill="#ffffff" stroke="#bfbfbf" points="97,-.5 97,-19.5 244,-19.5 244,-.5 97,-.5"/>
<text text-anchor="middle" x="170.5" y="-7.5" font-family="Helvetica,sans-Serif" font-size="10.00" fill="#000000">opencv2/imgproc/imgproc.hpp</text>
</g>
<!-- Node5&#45;&gt;Node6 -->
<g id="edge6" class="edge">
<title>Node5&#45;&gt;Node6</title>
<path fill="none" stroke="#191970" d="M170.5,-56.2455C170.5,-48.9382 170.5,-38.6944 170.5,-29.7046"/>
<polygon fill="#191970" stroke="#191970" points="174.0001,-29.6426 170.5,-19.6427 167.0001,-29.6427 174.0001,-29.6426"/>
</g>
<!-- Node7&#45;&gt;Node4 -->
<g id="edge8" class="edge">
<title>Node7&#45;&gt;Node4</title>
<path fill="none" stroke="#191970" d="M269.5,-117.8906C269.5,-109.3657 269.5,-96.6392 269.5,-85.9235"/>
<polygon fill="#191970" stroke="#191970" points="273.0001,-85.7448 269.5,-75.7449 266.0001,-85.7449 273.0001,-85.7448"/>
</g>
</g>
</svg>
