<?xml version="1.0" encoding="UTF-8" standalone="no"?>
<!DOCTYPE svg PUBLIC "-//W3C//DTD SVG 1.1//EN"
 "http://www.w3.org/Graphics/SVG/1.1/DTD/svg11.dtd">
<!-- Generated by graphviz version 2.40.1 (20161225.0304)
 -->
<!-- Title: /home/bdn_jz/bdn_jz/camera&#45;tracker&#45;cpp/CameraTrackerLinux/src/BaslerGigECamera.cpp Pages: 1 -->
<!--zoomable 296 -->
<svg id="main" version="1.1" xmlns="http://www.w3.org/2000/svg" xmlns:xlink="http://www.w3.org/1999/xlink" xml:space="preserve" onload="init(evt)">
<style type="text/css"><![CDATA[
.edge:hover path { stroke: red; }
.edge:hover polygon { stroke: red; fill: red; }
]]></style>
<script type="text/javascript"><![CDATA[
var edges = document.getElementsByTagName('g');
if (edges && edges.length) {
  for (var i=0;i<edges.length;i++) {
    if (edges[i].id.substr(0,4)=='edge') {
      edges[i].setAttribute('class','edge');
    }
  }
}
]]></script>
        <defs>
                <circle id="rim" cx="0" cy="0" r="7"/>
                <circle id="rim2" cx="0" cy="0" r="3.5"/>
                <g id="zoomPlus">
                        <use xlink:href="#rim" fill="#404040">
                                <set attributeName="fill" to="#808080" begin="zoomplus.mouseover" end="zoomplus.mouseout"/>
                        </use>
                        <path d="M-4,0h8M0,-4v8" fill="none" stroke="white" stroke-width="1.5" pointer-events="none"/>
                </g>
                <g id="zoomMin">
                        <use xlink:href="#rim" fill="#404040">
                                <set attributeName="fill" to="#808080" begin="zoomminus.mouseover" end="zoomminus.mouseout"/>
                        </use>
                        <path d="M-4,0h8" fill="none" stroke="white" stroke-width="1.5" pointer-events="none"/>
                </g>
                <g id="dirArrow">
                        <path fill="none" stroke="white" stroke-width="1.5" d="M0,-3.0v7 M-2.5,-0.5L0,-3.0L2.5,-0.5"/>
                </g>
               <g id="resetDef">
                       <use xlink:href="#rim2" fill="#404040">
                               <set attributeName="fill" to="#808080" begin="reset.mouseover" end="reset.mouseout"/>
                       </use>
               </g>
        </defs>

<script type="text/javascript">
var viewWidth = 625;
var viewHeight = 296;
var sectionId = 'dynsection-0';
</script>
<script xlink:href="svgpan.js"/>
<svg id="graph" class="graph">
<g id="viewport">
<title>/home/bdn_jz/bdn_jz/camera&#45;tracker&#45;cpp/CameraTrackerLinux/src/BaslerGigECamera.cpp</title>
<polygon fill="#ffffff" stroke="transparent" points="-4,4 -4,-292 621,-292 621,4 -4,4"/>
<!-- Node0 -->
<g id="node1" class="node">
<title>Node0</title>
<polygon fill="#bfbfbf" stroke="#000000" points="106,-235.5 106,-287.5 233,-287.5 233,-235.5 106,-235.5"/>
<text text-anchor="start" x="114" y="-275.5" font-family="Helvetica,sans-Serif" font-size="10.00" fill="#000000">/home/bdn_jz/bdn_jz</text>
<text text-anchor="start" x="114" y="-264.5" font-family="Helvetica,sans-Serif" font-size="10.00" fill="#000000">/camera&#45;tracker&#45;cpp</text>
<text text-anchor="start" x="114" y="-253.5" font-family="Helvetica,sans-Serif" font-size="10.00" fill="#000000">/CameraTrackerLinux/src</text>
<text text-anchor="middle" x="169.5" y="-242.5" font-family="Helvetica,sans-Serif" font-size="10.00" fill="#000000">/BaslerGigECamera.cpp</text>
</g>
<!-- Node1 -->
<g id="node2" class="node">
<title>Node1</title>
<polygon fill="#ffffff" stroke="#bfbfbf" points="30.5,-179.5 30.5,-198.5 76.5,-198.5 76.5,-179.5 30.5,-179.5"/>
<text text-anchor="middle" x="53.5" y="-186.5" font-family="Helvetica,sans-Serif" font-size="10.00" fill="#000000">chrono</text>
</g>
<!-- Node0&#45;&gt;Node1 -->
<g id="edge1" class="edge">
<title>Node0&#45;&gt;Node1</title>
<path fill="none" stroke="#191970" d="M127.6213,-235.3258C110.7991,-224.8119 92.0113,-213.0696 77.5603,-204.0377"/>
<polygon fill="#191970" stroke="#191970" points="79.0894,-200.866 68.7544,-198.534 75.3794,-206.802 79.0894,-200.866"/>
</g>
<!-- Node2 -->
<g id="node3" class="node">
<title>Node2</title>
<g id="a_node3"><a xlink:href="constants_8h.html" target="_top" xlink:title="header for constant definitions. ">
<polygon fill="#ffffff" stroke="#000000" points="39.5,-56.5 39.5,-75.5 107.5,-75.5 107.5,-56.5 39.5,-56.5"/>
<text text-anchor="middle" x="73.5" y="-63.5" font-family="Helvetica,sans-Serif" font-size="10.00" fill="#000000">constants.h</text>
</a>
</g>
</g>
<!-- Node0&#45;&gt;Node2 -->
<g id="edge2" class="edge">
<title>Node0&#45;&gt;Node2</title>
<path fill="none" stroke="#191970" d="M156.553,-235.134C136.8957,-195.1027 99.9927,-119.9513 82.7806,-84.8995"/>
<polygon fill="#191970" stroke="#191970" points="85.844,-83.1973 78.2945,-75.7639 79.5607,-86.2828 85.844,-83.1973"/>
</g>
<!-- Node4 -->
<g id="node5" class="node">
<title>Node4</title>
<g id="a_node5"><a xlink:href="_basler_gig_e_camera_8h.html" target="_top" xlink:title="Header file for the Basler GigE Camera class. ">
<polygon fill="#ffffff" stroke="#000000" points="181,-179.5 181,-198.5 290,-198.5 290,-179.5 181,-179.5"/>
<text text-anchor="middle" x="235.5" y="-186.5" font-family="Helvetica,sans-Serif" font-size="10.00" fill="#000000">BaslerGigECamera.h</text>
</a>
</g>
</g>
<!-- Node0&#45;&gt;Node4 -->
<g id="edge4" class="edge">
<title>Node0&#45;&gt;Node4</title>
<path fill="none" stroke="#191970" d="M193.3275,-235.3258C202.1696,-225.613 211.966,-214.8518 219.8898,-206.1476"/>
<polygon fill="#191970" stroke="#191970" points="222.6771,-208.285 226.8208,-198.534 217.5008,-203.5727 222.6771,-208.285"/>
</g>
<!-- Node12 -->
<g id="node13" class="node">
<title>Node12</title>
<polygon fill="#ffffff" stroke="#bfbfbf" points="308.5,-179.5 308.5,-198.5 446.5,-198.5 446.5,-179.5 308.5,-179.5"/>
<text text-anchor="middle" x="377.5" y="-186.5" font-family="Helvetica,sans-Serif" font-size="10.00" fill="#000000">pylon/PylonUtilityIncludes.h</text>
</g>
<!-- Node0&#45;&gt;Node12 -->
<g id="edge14" class="edge">
<title>Node0&#45;&gt;Node12</title>
<path fill="none" stroke="#191970" d="M233.0371,-239.3537C268.2436,-227.0822 310.7795,-212.256 340.5448,-201.881"/>
<polygon fill="#191970" stroke="#191970" points="341.8297,-205.1398 350.1205,-198.5433 339.5257,-198.5298 341.8297,-205.1398"/>
</g>
<!-- Node3 -->
<g id="node4" class="node">
<title>Node3</title>
<polygon fill="#ffffff" stroke="#bfbfbf" points="0,-.5 0,-19.5 147,-19.5 147,-.5 0,-.5"/>
<text text-anchor="middle" x="73.5" y="-7.5" font-family="Helvetica,sans-Serif" font-size="10.00" fill="#000000">opencv2/imgproc/imgproc.hpp</text>
</g>
<!-- Node2&#45;&gt;Node3 -->
<g id="edge3" class="edge">
<title>Node2&#45;&gt;Node3</title>
<path fill="none" stroke="#191970" d="M73.5,-56.2455C73.5,-48.9382 73.5,-38.6944 73.5,-29.7046"/>
<polygon fill="#191970" stroke="#191970" points="77.0001,-29.6426 73.5,-19.6427 70.0001,-29.6427 77.0001,-29.6426"/>
</g>
<!-- Node5 -->
<g id="node6" class="node">
<title>Node5</title>
<g id="a_node6"><a xlink:href="_generic_camera_8h.html" target="_top" xlink:title="Header of the camera base class. ">
<polygon fill="#ffffff" stroke="#000000" points="133,-118 133,-137 226,-137 226,-118 133,-118"/>
<text text-anchor="middle" x="179.5" y="-125" font-family="Helvetica,sans-Serif" font-size="10.00" fill="#000000">GenericCamera.h</text>
</a>
</g>
</g>
<!-- Node4&#45;&gt;Node5 -->
<g id="edge5" class="edge">
<title>Node4&#45;&gt;Node5</title>
<path fill="none" stroke="#191970" d="M226.75,-179.3906C218.3338,-170.1478 205.4203,-155.966 195.219,-144.7628"/>
<polygon fill="#191970" stroke="#191970" points="197.694,-142.2824 188.3734,-137.2449 192.5182,-146.9953 197.694,-142.2824"/>
</g>
<!-- Node9 -->
<g id="node10" class="node">
<title>Node9</title>
<g id="a_node10"><a xlink:href="_timed_frame_8h.html" target="_top" xlink:title="TimedFrame.h">
<polygon fill="#ffffff" stroke="#000000" points="244.5,-118 244.5,-137 324.5,-137 324.5,-118 244.5,-118"/>
<text text-anchor="middle" x="284.5" y="-125" font-family="Helvetica,sans-Serif" font-size="10.00" fill="#000000">TimedFrame.h</text>
</a>
</g>
</g>
<!-- Node4&#45;&gt;Node9 -->
<g id="edge10" class="edge">
<title>Node4&#45;&gt;Node9</title>
<path fill="none" stroke="#191970" d="M243.1563,-179.3906C250.4489,-170.2376 261.6007,-156.2409 270.4852,-145.09"/>
<polygon fill="#191970" stroke="#191970" points="273.2417,-147.247 276.7358,-137.2449 267.767,-142.8849 273.2417,-147.247"/>
</g>
<!-- Node10 -->
<g id="node11" class="node">
<title>Node10</title>
<polygon fill="#ffffff" stroke="#bfbfbf" points="343,-118 343,-137 456,-137 456,-118 343,-118"/>
<text text-anchor="middle" x="399.5" y="-125" font-family="Helvetica,sans-Serif" font-size="10.00" fill="#000000">pylon/PylonIncludes.h</text>
</g>
<!-- Node4&#45;&gt;Node10 -->
<g id="edge12" class="edge">
<title>Node4&#45;&gt;Node10</title>
<path fill="none" stroke="#191970" d="M261.125,-179.3906C288.9263,-168.9652 333.4844,-152.2559 364.4994,-140.6252"/>
<polygon fill="#191970" stroke="#191970" points="365.9206,-143.8303 374.0549,-137.0419 363.4627,-137.276 365.9206,-143.8303"/>
</g>
<!-- Node11 -->
<g id="node12" class="node">
<title>Node11</title>
<polygon fill="#ffffff" stroke="#bfbfbf" points="474,-112.5 474,-142.5 617,-142.5 617,-112.5 474,-112.5"/>
<text text-anchor="start" x="482" y="-130.5" font-family="Helvetica,sans-Serif" font-size="10.00" fill="#000000">pylon/gige/BaslerGigEInstant</text>
<text text-anchor="middle" x="545.5" y="-119.5" font-family="Helvetica,sans-Serif" font-size="10.00" fill="#000000">Camera.h</text>
</g>
<!-- Node4&#45;&gt;Node11 -->
<g id="edge13" class="edge">
<title>Node4&#45;&gt;Node11</title>
<path fill="none" stroke="#191970" d="M283.5974,-179.4581C331.6469,-169.9257 406.4194,-155.0918 463.7901,-143.7102"/>
<polygon fill="#191970" stroke="#191970" points="464.7985,-147.0784 473.9262,-141.6993 463.4362,-140.2123 464.7985,-147.0784"/>
</g>
<!-- Node5&#45;&gt;Node2 -->
<g id="edge9" class="edge">
<title>Node5&#45;&gt;Node2</title>
<path fill="none" stroke="#191970" d="M162.9375,-117.8906C145.7463,-107.9165 118.6418,-92.1908 98.7734,-80.6633"/>
<polygon fill="#191970" stroke="#191970" points="100.3523,-77.533 89.9462,-75.5419 96.8394,-83.5877 100.3523,-77.533"/>
</g>
<!-- Node6 -->
<g id="node7" class="node">
<title>Node6</title>
<polygon fill="#ffffff" stroke="#bfbfbf" points="126,-56.5 126,-75.5 185,-75.5 185,-56.5 126,-56.5"/>
<text text-anchor="middle" x="155.5" y="-63.5" font-family="Helvetica,sans-Serif" font-size="10.00" fill="#000000">exception</text>
</g>
<!-- Node5&#45;&gt;Node6 -->
<g id="edge6" class="edge">
<title>Node5&#45;&gt;Node6</title>
<path fill="none" stroke="#191970" d="M175.75,-117.8906C172.3532,-109.1862 167.2469,-96.1015 163.012,-85.2494"/>
<polygon fill="#191970" stroke="#191970" points="166.1989,-83.7882 159.3029,-75.7449 159.6778,-86.3331 166.1989,-83.7882"/>
</g>
<!-- Node7 -->
<g id="node8" class="node">
<title>Node7</title>
<polygon fill="#ffffff" stroke="#bfbfbf" points="203,-56.5 203,-75.5 244,-75.5 244,-56.5 203,-56.5"/>
<text text-anchor="middle" x="223.5" y="-63.5" font-family="Helvetica,sans-Serif" font-size="10.00" fill="#000000">string</text>
</g>
<!-- Node5&#45;&gt;Node7 -->
<g id="edge7" class="edge">
<title>Node5&#45;&gt;Node7</title>
<path fill="none" stroke="#191970" d="M186.375,-117.8906C192.8593,-108.8273 202.7414,-95.0149 210.6801,-83.9188"/>
<polygon fill="#191970" stroke="#191970" points="213.5559,-85.9143 216.5281,-75.7449 207.8629,-81.8412 213.5559,-85.9143"/>
</g>
<!-- Node8 -->
<g id="node9" class="node">
<title>Node8</title>
<polygon fill="#ffffff" stroke="#bfbfbf" points="262.5,-56.5 262.5,-75.5 356.5,-75.5 356.5,-56.5 262.5,-56.5"/>
<text text-anchor="middle" x="309.5" y="-63.5" font-family="Helvetica,sans-Serif" font-size="10.00" fill="#000000">opencv2/core.hpp</text>
</g>
<!-- Node5&#45;&gt;Node8 -->
<g id="edge8" class="edge">
<title>Node5&#45;&gt;Node8</title>
<path fill="none" stroke="#191970" d="M199.8125,-117.8906C221.3731,-107.6908 255.6478,-91.4763 280.1444,-79.8875"/>
<polygon fill="#191970" stroke="#191970" points="281.7874,-82.9822 289.3301,-75.5419 278.7939,-76.6545 281.7874,-82.9822"/>
</g>
<!-- Node9&#45;&gt;Node8 -->
<g id="edge11" class="edge">
<title>Node9&#45;&gt;Node8</title>
<path fill="none" stroke="#191970" d="M288.4063,-117.8906C291.9446,-109.1862 297.2636,-96.1015 301.675,-85.2494"/>
<polygon fill="#191970" stroke="#191970" points="305.0152,-86.3268 305.5387,-75.7449 298.5305,-83.6907 305.0152,-86.3268"/>
</g>
</g>
</svg>
        <g id="navigator" transform="translate(0 0)" fill="#404254">
                <rect fill="#f2f5e9" fill-opacity="0.5" stroke="#606060" stroke-width=".5" x="0" y="0" width="60" height="60"/>
                <use id="zoomplus" xlink:href="#zoomPlus" x="17" y="9" onmousedown="handleZoom(evt,'in')"/>
                <use id="zoomminus" xlink:href="#zoomMin" x="42" y="9" onmousedown="handleZoom(evt,'out')"/>
                <use id="reset" xlink:href="#resetDef" x="30" y="36" onmousedown="handleReset()"/>
                <g id="arrowUp" xlink:href="#dirArrow" transform="translate(30 24)" onmousedown="handlePan(0,-1)">
                  <use xlink:href="#rim" fill="#404040">
                        <set attributeName="fill" to="#808080" begin="arrowUp.mouseover" end="arrowUp.mouseout"/>
                  </use>
                  <path fill="none" stroke="white" stroke-width="1.5" d="M0,-3.0v7 M-2.5,-0.5L0,-3.0L2.5,-0.5"/>
                </g>
                <g id="arrowRight" xlink:href="#dirArrow" transform="rotate(90) translate(36 -43)" onmousedown="handlePan(1,0)">
                  <use xlink:href="#rim" fill="#404040">
                        <set attributeName="fill" to="#808080" begin="arrowRight.mouseover" end="arrowRight.mouseout"/>
                  </use>
                  <path fill="none" stroke="white" stroke-width="1.5" d="M0,-3.0v7 M-2.5,-0.5L0,-3.0L2.5,-0.5"/>
                </g>
                <g id="arrowDown" xlink:href="#dirArrow" transform="rotate(180) translate(-30 -48)" onmousedown="handlePan(0,1)">
                  <use xlink:href="#rim" fill="#404040">
                        <set attributeName="fill" to="#808080" begin="arrowDown.mouseover" end="arrowDown.mouseout"/>
                  </use>
                  <path fill="none" stroke="white" stroke-width="1.5" d="M0,-3.0v7 M-2.5,-0.5L0,-3.0L2.5,-0.5"/>
                </g>
                <g id="arrowLeft" xlink:href="#dirArrow" transform="rotate(270) translate(-36 17)" onmousedown="handlePan(-1,0)">
                  <use xlink:href="#rim" fill="#404040">
                        <set attributeName="fill" to="#808080" begin="arrowLeft.mouseover" end="arrowLeft.mouseout"/>
                  </use>
                  <path fill="none" stroke="white" stroke-width="1.5" d="M0,-3.0v7 M-2.5,-0.5L0,-3.0L2.5,-0.5"/>
                </g>
        </g>
        <svg viewBox="0 0 15 15" width="100%" height="30px" preserveAspectRatio="xMaxYMin meet">
         <g id="arrow_out" transform="scale(0.3 0.3)">
          <a xlink:href="_basler_gig_e_camera_8cpp__incl_org.svg" target="_base">
           <rect id="button" ry="5" rx="5" y="6" x="6" height="38" width="38"
                fill="#f2f5e9" fill-opacity="0.5" stroke="#606060" stroke-width="1.0"/>
           <path id="arrow"
             d="M 11.500037,31.436501 C 11.940474,20.09759 22.043105,11.32322 32.158766,21.979434 L 37.068811,17.246167 C 37.068811,17.246167 37.088388,32 37.088388,32 L 22.160133,31.978069 C 22.160133,31.978069 26.997745,27.140456 26.997745,27.140456 C 18.528582,18.264221 13.291696,25.230495 11.500037,31.436501 z"
             style="fill:#404040;"/>
          </a>
         </g>
        </svg>
</svg>
