<?xml version="1.0" encoding="UTF-8" standalone="no"?>
<!DOCTYPE svg PUBLIC "-//W3C//DTD SVG 1.1//EN"
 "http://www.w3.org/Graphics/SVG/1.1/DTD/svg11.dtd">
<!-- Generated by graphviz version 2.40.1 (20161225.0304)
 -->
<!-- Title: /home/bdn_jz/bdn_jz/camera&#45;tracker&#45;cpp/CameraTrackerLinux/src/ChessboardDetector.cpp Pages: 1 -->
<svg width="228pt" height="229pt"
 viewBox="0.00 0.00 227.50 229.00" xmlns="http://www.w3.org/2000/svg" xmlns:xlink="http://www.w3.org/1999/xlink">
<g id="graph0" class="graph" transform="scale(1 1) rotate(0) translate(4 225)">
<title>/home/bdn_jz/bdn_jz/camera&#45;tracker&#45;cpp/CameraTrackerLinux/src/ChessboardDetector.cpp</title>
<polygon fill="#ffffff" stroke="transparent" points="-4,4 -4,-225 223.5,-225 223.5,4 -4,4"/>
<!-- Node0 -->
<g id="node1" class="node">
<title>Node0</title>
<polygon fill="#bfbfbf" stroke="#000000" points="42,-168.5 42,-220.5 170,-220.5 170,-168.5 42,-168.5"/>
<text text-anchor="start" x="50" y="-208.5" font-family="Helvetica,sans-Serif" font-size="10.00" fill="#000000">/home/bdn_jz/bdn_jz</text>
<text text-anchor="start" x="50" y="-197.5" font-family="Helvetica,sans-Serif" font-size="10.00" fill="#000000">/camera&#45;tracker&#45;cpp</text>
<text text-anchor="start" x="50" y="-186.5" font-family="Helvetica,sans-Serif" font-size="10.00" fill="#000000">/CameraTrackerLinux/src</text>
<text text-anchor="middle" x="106" y="-175.5" font-family="Helvetica,sans-Serif" font-size="10.00" fill="#000000">/ChessboardDetector.cpp</text>
</g>
<!-- Node1 -->
<g id="node2" class="node">
<title>Node1</title>
<g id="a_node2"><a xlink:href="_chessboard_detector_8h.html" target="_top" xlink:title="This file contains the declaration of the ChessboardDetector class. ">
<polygon fill="#ffffff" stroke="#000000" points="48.5,-112.5 48.5,-131.5 163.5,-131.5 163.5,-112.5 48.5,-112.5"/>
<text text-anchor="middle" x="106" y="-119.5" font-family="Helvetica,sans-Serif" font-size="10.00" fill="#000000">ChessboardDetector.h</text>
</a>
</g>
</g>
<!-- Node0&#45;&gt;Node1 -->
<g id="edge1" class="edge">
<title>Node0&#45;&gt;Node1</title>
<path fill="none" stroke="#191970" d="M106,-168.3258C106,-159.5142 106,-149.8397 106,-141.621"/>
<polygon fill="#191970" stroke="#191970" points="109.5001,-141.534 106,-131.534 102.5001,-141.534 109.5001,-141.534"/>
</g>
<!-- Node2 -->
<g id="node3" class="node">
<title>Node2</title>
<g id="a_node3"><a xlink:href="_chessboard_8h.html" target="_top" xlink:title="This file contains the declaration of the Chessboard class. ">
<polygon fill="#ffffff" stroke="#000000" points="67.5,-56.5 67.5,-75.5 144.5,-75.5 144.5,-56.5 67.5,-56.5"/>
<text text-anchor="middle" x="106" y="-63.5" font-family="Helvetica,sans-Serif" font-size="10.00" fill="#000000">Chessboard.h</text>
</a>
</g>
</g>
<!-- Node1&#45;&gt;Node2 -->
<g id="edge2" class="edge">
<title>Node1&#45;&gt;Node2</title>
<path fill="none" stroke="#191970" d="M106,-112.2455C106,-104.9382 106,-94.6944 106,-85.7046"/>
<polygon fill="#191970" stroke="#191970" points="109.5001,-85.6426 106,-75.6427 102.5001,-85.6427 109.5001,-85.6426"/>
</g>
<!-- Node3 -->
<g id="node4" class="node">
<title>Node3</title>
<polygon fill="#ffffff" stroke="#bfbfbf" points="0,-.5 0,-19.5 94,-19.5 94,-.5 0,-.5"/>
<text text-anchor="middle" x="47" y="-7.5" font-family="Helvetica,sans-Serif" font-size="10.00" fill="#000000">opencv2/core.hpp</text>
</g>
<!-- Node2&#45;&gt;Node3 -->
<g id="edge3" class="edge">
<title>Node2&#45;&gt;Node3</title>
<path fill="none" stroke="#191970" d="M95.723,-56.2455C87.1782,-48.1352 74.8222,-36.4075 64.6915,-26.7919"/>
<polygon fill="#191970" stroke="#191970" points="66.8218,-23.9884 57.1592,-19.6427 62.0028,-29.0655 66.8218,-23.9884"/>
</g>
<!-- Node4 -->
<g id="node5" class="node">
<title>Node4</title>
<polygon fill="#ffffff" stroke="#bfbfbf" points="112.5,-.5 112.5,-19.5 219.5,-19.5 219.5,-.5 112.5,-.5"/>
<text text-anchor="middle" x="166" y="-7.5" font-family="Helvetica,sans-Serif" font-size="10.00" fill="#000000">opencv2/opencv.hpp</text>
</g>
<!-- Node2&#45;&gt;Node4 -->
<g id="edge4" class="edge">
<title>Node2&#45;&gt;Node4</title>
<path fill="none" stroke="#191970" d="M116.4512,-56.2455C125.2269,-48.0549 137.9554,-36.1749 148.314,-26.5069"/>
<polygon fill="#191970" stroke="#191970" points="150.7461,-29.0246 155.6686,-19.6427 145.9699,-23.9072 150.7461,-29.0246"/>
</g>
</g>
</svg>
