<?xml version="1.0" encoding="UTF-8" standalone="no"?>
<!DOCTYPE svg PUBLIC "-//W3C//DTD SVG 1.1//EN"
 "http://www.w3.org/Graphics/SVG/1.1/DTD/svg11.dtd">
<!-- Generated by graphviz version 2.40.1 (20161225.0304)
 -->
<!-- Title: /home/bdn_jz/bdn_jz/camera&#45;tracker&#45;cpp/CameraTrackerLinux/src/ChessboardDetector.cpp Pages: 1 -->
<svg width="311pt" height="229pt"
 viewBox="0.00 0.00 311.00 229.00" xmlns="http://www.w3.org/2000/svg" xmlns:xlink="http://www.w3.org/1999/xlink">
<g id="graph0" class="graph" transform="scale(1 1) rotate(0) translate(4 225)">
<title>/home/bdn_jz/bdn_jz/camera&#45;tracker&#45;cpp/CameraTrackerLinux/src/ChessboardDetector.cpp</title>
<polygon fill="#ffffff" stroke="transparent" points="-4,4 -4,-225 307,-225 307,4 -4,4"/>
<!-- Node0 -->
<g id="node1" class="node">
<title>Node0</title>
<polygon fill="#bfbfbf" stroke="#000000" points="105,-168.5 105,-220.5 233,-220.5 233,-168.5 105,-168.5"/>
<text text-anchor="start" x="113" y="-208.5" font-family="Helvetica,sans-Serif" font-size="10.00" fill="#000000">/home/bdn_jz/bdn_jz</text>
<text text-anchor="start" x="113" y="-197.5" font-family="Helvetica,sans-Serif" font-size="10.00" fill="#000000">/camera&#45;tracker&#45;cpp</text>
<text text-anchor="start" x="113" y="-186.5" font-family="Helvetica,sans-Serif" font-size="10.00" fill="#000000">/CameraTrackerLinux/src</text>
<text text-anchor="middle" x="169" y="-175.5" font-family="Helvetica,sans-Serif" font-size="10.00" fill="#000000">/ChessboardDetector.cpp</text>
</g>
<!-- Node1 -->
<g id="node2" class="node">
<title>Node1</title>
<g id="a_node2"><a xlink:href="_chessboard_detector_8h.html" target="_top" xlink:title="This file contains the declaration of the ChessboardDetector class. ">
<polygon fill="#ffffff" stroke="#000000" points="111.5,-112.5 111.5,-131.5 226.5,-131.5 226.5,-112.5 111.5,-112.5"/>
<text text-anchor="middle" x="169" y="-119.5" font-family="Helvetica,sans-Serif" font-size="10.00" fill="#000000">ChessboardDetector.h</text>
</a>
</g>
</g>
<!-- Node0&#45;&gt;Node1 -->
<g id="edge1" class="edge">
<title>Node0&#45;&gt;Node1</title>
<path fill="none" stroke="#191970" d="M169,-168.3258C169,-159.5142 169,-149.8397 169,-141.621"/>
<polygon fill="#191970" stroke="#191970" points="172.5001,-141.534 169,-131.534 165.5001,-141.534 172.5001,-141.534"/>
</g>
<!-- Node2 -->
<g id="node3" class="node">
<title>Node2</title>
<g id="a_node3"><a xlink:href="_chessboard_8h.html" target="_top" xlink:title="This file contains the declaration of the Chessboard class. ">
<polygon fill="#ffffff" stroke="#000000" points="67.5,-56.5 67.5,-75.5 144.5,-75.5 144.5,-56.5 67.5,-56.5"/>
<text text-anchor="middle" x="106" y="-63.5" font-family="Helvetica,sans-Serif" font-size="10.00" fill="#000000">Chessboard.h</text>
</a>
</g>
</g>
<!-- Node1&#45;&gt;Node2 -->
<g id="edge2" class="edge">
<title>Node1&#45;&gt;Node2</title>
<path fill="none" stroke="#191970" d="M158.0262,-112.2455C148.8118,-104.0549 135.4468,-92.1749 124.5703,-82.5069"/>
<polygon fill="#191970" stroke="#191970" points="126.6474,-79.6704 116.848,-75.6427 121.9968,-84.9023 126.6474,-79.6704"/>
</g>
<!-- Node5 -->
<g id="node6" class="node">
<title>Node5</title>
<polygon fill="#ffffff" stroke="#bfbfbf" points="163,-56.5 163,-75.5 303,-75.5 303,-56.5 163,-56.5"/>
<text text-anchor="middle" x="233" y="-63.5" font-family="Helvetica,sans-Serif" font-size="10.00" fill="#000000">opencv2/calib3d/calib3d.hpp</text>
</g>
<!-- Node1&#45;&gt;Node5 -->
<g id="edge5" class="edge">
<title>Node1&#45;&gt;Node5</title>
<path fill="none" stroke="#191970" d="M180.1479,-112.2455C189.5087,-104.0549 203.0858,-92.1749 214.1349,-82.5069"/>
<polygon fill="#191970" stroke="#191970" points="216.7588,-84.8618 221.9798,-75.6427 212.1492,-79.5937 216.7588,-84.8618"/>
</g>
<!-- Node3 -->
<g id="node4" class="node">
<title>Node3</title>
<polygon fill="#ffffff" stroke="#bfbfbf" points="0,-.5 0,-19.5 94,-19.5 94,-.5 0,-.5"/>
<text text-anchor="middle" x="47" y="-7.5" font-family="Helvetica,sans-Serif" font-size="10.00" fill="#000000">opencv2/core.hpp</text>
</g>
<!-- Node2&#45;&gt;Node3 -->
<g id="edge3" class="edge">
<title>Node2&#45;&gt;Node3</title>
<path fill="none" stroke="#191970" d="M95.723,-56.2455C87.1782,-48.1352 74.8222,-36.4075 64.6915,-26.7919"/>
<polygon fill="#191970" stroke="#191970" points="66.8218,-23.9884 57.1592,-19.6427 62.0028,-29.0655 66.8218,-23.9884"/>
</g>
<!-- Node4 -->
<g id="node5" class="node">
<title>Node4</title>
<polygon fill="#ffffff" stroke="#bfbfbf" points="112.5,-.5 112.5,-19.5 219.5,-19.5 219.5,-.5 112.5,-.5"/>
<text text-anchor="middle" x="166" y="-7.5" font-family="Helvetica,sans-Serif" font-size="10.00" fill="#000000">opencv2/opencv.hpp</text>
</g>
<!-- Node2&#45;&gt;Node4 -->
<g id="edge4" class="edge">
<title>Node2&#45;&gt;Node4</title>
<path fill="none" stroke="#191970" d="M116.4512,-56.2455C125.2269,-48.0549 137.9554,-36.1749 148.314,-26.5069"/>
<polygon fill="#191970" stroke="#191970" points="150.7461,-29.0246 155.6686,-19.6427 145.9699,-23.9072 150.7461,-29.0246"/>
</g>
</g>
</svg>
