<?xml version="1.0" encoding="UTF-8" standalone="no"?>
<!DOCTYPE svg PUBLIC "-//W3C//DTD SVG 1.1//EN"
 "http://www.w3.org/Graphics/SVG/1.1/DTD/svg11.dtd">
<!-- Generated by graphviz version 2.40.1 (20161225.0304)
 -->
<!-- Title: /home/bdn_jz/bdn_jz/camera&#45;tracker&#45;cpp/CameraTrackerLinux/include/Chessboard.h Pages: 1 -->
<svg width="548pt" height="328pt"
 viewBox="0.00 0.00 547.50 328.00" xmlns="http://www.w3.org/2000/svg" xmlns:xlink="http://www.w3.org/1999/xlink">
<g id="graph0" class="graph" transform="scale(1 1) rotate(0) translate(4 324)">
<title>/home/bdn_jz/bdn_jz/camera&#45;tracker&#45;cpp/CameraTrackerLinux/include/Chessboard.h</title>
<polygon fill="#ffffff" stroke="transparent" points="-4,4 -4,-324 543.5,-324 543.5,4 -4,4"/>
<!-- Node3 -->
<g id="node1" class="node">
<title>Node3</title>
<polygon fill="#bfbfbf" stroke="#000000" points="276.5,-267.5 276.5,-319.5 420.5,-319.5 420.5,-267.5 276.5,-267.5"/>
<text text-anchor="start" x="284.5" y="-307.5" font-family="Helvetica,sans-Serif" font-size="10.00" fill="#000000">/home/bdn_jz/bdn_jz</text>
<text text-anchor="start" x="284.5" y="-296.5" font-family="Helvetica,sans-Serif" font-size="10.00" fill="#000000">/camera&#45;tracker&#45;cpp</text>
<text text-anchor="start" x="284.5" y="-285.5" font-family="Helvetica,sans-Serif" font-size="10.00" fill="#000000">/CameraTrackerLinux/include</text>
<text text-anchor="middle" x="348.5" y="-274.5" font-family="Helvetica,sans-Serif" font-size="10.00" fill="#000000">/Chessboard.h</text>
</g>
<!-- Node4 -->
<g id="node2" class="node">
<title>Node4</title>
<g id="a_node2"><a xlink:href="_chessboard_detector_8h.html" target="_top" xlink:title="This file contains the declaration of the ChessboardDetector class. ">
<polygon fill="#ffffff" stroke="#000000" points="199.5,-178.5 199.5,-230.5 343.5,-230.5 343.5,-178.5 199.5,-178.5"/>
<text text-anchor="start" x="207.5" y="-218.5" font-family="Helvetica,sans-Serif" font-size="10.00" fill="#000000">/home/bdn_jz/bdn_jz</text>
<text text-anchor="start" x="207.5" y="-207.5" font-family="Helvetica,sans-Serif" font-size="10.00" fill="#000000">/camera&#45;tracker&#45;cpp</text>
<text text-anchor="start" x="207.5" y="-196.5" font-family="Helvetica,sans-Serif" font-size="10.00" fill="#000000">/CameraTrackerLinux/include</text>
<text text-anchor="middle" x="271.5" y="-185.5" font-family="Helvetica,sans-Serif" font-size="10.00" fill="#000000">/ChessboardDetector.h</text>
</a>
</g>
</g>
<!-- Node3&#45;&gt;Node4 -->
<g id="edge1" class="edge">
<title>Node3&#45;&gt;Node4</title>
<path fill="none" stroke="#191970" d="M319.2711,-259.7159C310.906,-250.0472 301.92,-239.6608 294.0239,-230.5341"/>
<polygon fill="#191970" stroke="#191970" points="316.6242,-262.0059 325.8139,-267.2784 321.9179,-257.4259 316.6242,-262.0059"/>
</g>
<!-- Node11 -->
<g id="node9" class="node">
<title>Node11</title>
<g id="a_node9"><a xlink:href="_chessboard_8cpp.html" target="_top" xlink:title="/home/bdn_jz/bdn_jz\l/camera&#45;tracker&#45;cpp\l/CameraTrackerLinux/src\l/Chessboard.cpp">
<polygon fill="#ffffff" stroke="#000000" points="362,-178.5 362,-230.5 489,-230.5 489,-178.5 362,-178.5"/>
<text text-anchor="start" x="370" y="-218.5" font-family="Helvetica,sans-Serif" font-size="10.00" fill="#000000">/home/bdn_jz/bdn_jz</text>
<text text-anchor="start" x="370" y="-207.5" font-family="Helvetica,sans-Serif" font-size="10.00" fill="#000000">/camera&#45;tracker&#45;cpp</text>
<text text-anchor="start" x="370" y="-196.5" font-family="Helvetica,sans-Serif" font-size="10.00" fill="#000000">/CameraTrackerLinux/src</text>
<text text-anchor="middle" x="425.5" y="-185.5" font-family="Helvetica,sans-Serif" font-size="10.00" fill="#000000">/Chessboard.cpp</text>
</a>
</g>
</g>
<!-- Node3&#45;&gt;Node11 -->
<g id="edge10" class="edge">
<title>Node3&#45;&gt;Node11</title>
<path fill="none" stroke="#191970" d="M377.7289,-259.7159C386.094,-250.0472 395.08,-239.6608 402.9761,-230.5341"/>
<polygon fill="#191970" stroke="#191970" points="375.0821,-257.4259 371.1861,-267.2784 380.3758,-262.0059 375.0821,-257.4259"/>
</g>
<!-- Node5 -->
<g id="node3" class="node">
<title>Node5</title>
<g id="a_node3"><a xlink:href="_pose_estimation_8h.html" target="_top" xlink:title="This file contains the declaration of the PoseEstimation class. ">
<polygon fill="#ffffff" stroke="#000000" points="49.5,-89.5 49.5,-141.5 193.5,-141.5 193.5,-89.5 49.5,-89.5"/>
<text text-anchor="start" x="57.5" y="-129.5" font-family="Helvetica,sans-Serif" font-size="10.00" fill="#000000">/home/bdn_jz/bdn_jz</text>
<text text-anchor="start" x="57.5" y="-118.5" font-family="Helvetica,sans-Serif" font-size="10.00" fill="#000000">/camera&#45;tracker&#45;cpp</text>
<text text-anchor="start" x="57.5" y="-107.5" font-family="Helvetica,sans-Serif" font-size="10.00" fill="#000000">/CameraTrackerLinux/include</text>
<text text-anchor="middle" x="121.5" y="-96.5" font-family="Helvetica,sans-Serif" font-size="10.00" fill="#000000">/PoseEstimation.h</text>
</a>
</g>
</g>
<!-- Node4&#45;&gt;Node5 -->
<g id="edge2" class="edge">
<title>Node4&#45;&gt;Node5</title>
<path fill="none" stroke="#191970" d="M218.4083,-172.9989C201.0513,-162.7004 181.9781,-151.3837 165.3778,-141.5341"/>
<polygon fill="#191970" stroke="#191970" points="216.9202,-176.1857 227.3064,-178.2784 220.4922,-170.1656 216.9202,-176.1857"/>
</g>
<!-- Node6 -->
<g id="node4" class="node">
<title>Node6</title>
<g id="a_node4"><a xlink:href="main_8cpp.html" target="_top" xlink:title="/home/bdn_jz/bdn_jz\l/camera&#45;tracker&#45;cpp\l/CameraTrackerLinux/main.cpp">
<polygon fill="#ffffff" stroke="#000000" points="145,-6 145,-47 298,-47 298,-6 145,-6"/>
<text text-anchor="start" x="153" y="-35" font-family="Helvetica,sans-Serif" font-size="10.00" fill="#000000">/home/bdn_jz/bdn_jz</text>
<text text-anchor="start" x="153" y="-24" font-family="Helvetica,sans-Serif" font-size="10.00" fill="#000000">/camera&#45;tracker&#45;cpp</text>
<text text-anchor="middle" x="221.5" y="-13" font-family="Helvetica,sans-Serif" font-size="10.00" fill="#000000">/CameraTrackerLinux/main.cpp</text>
</a>
</g>
</g>
<!-- Node4&#45;&gt;Node6 -->
<g id="edge8" class="edge">
<title>Node4&#45;&gt;Node6</title>
<path fill="none" stroke="#191970" d="M251.7936,-169.3465C247.5427,-160.6203 243.4465,-151.1434 240.5,-142 230.1532,-109.8921 225.236,-70.8597 223.0574,-47.3835"/>
<polygon fill="#191970" stroke="#191970" points="248.7754,-171.1335 256.4197,-178.4694 255.0186,-167.9676 248.7754,-171.1335"/>
</g>
<!-- Node8 -->
<g id="node6" class="node">
<title>Node8</title>
<g id="a_node6"><a xlink:href="_scanner_8h.html" target="_top" xlink:title="This file contains the declaration of the Scanner class. ">
<polygon fill="#ffffff" stroke="#000000" points="249.5,-89.5 249.5,-141.5 393.5,-141.5 393.5,-89.5 249.5,-89.5"/>
<text text-anchor="start" x="257.5" y="-129.5" font-family="Helvetica,sans-Serif" font-size="10.00" fill="#000000">/home/bdn_jz/bdn_jz</text>
<text text-anchor="start" x="257.5" y="-118.5" font-family="Helvetica,sans-Serif" font-size="10.00" fill="#000000">/camera&#45;tracker&#45;cpp</text>
<text text-anchor="start" x="257.5" y="-107.5" font-family="Helvetica,sans-Serif" font-size="10.00" fill="#000000">/CameraTrackerLinux/include</text>
<text text-anchor="middle" x="321.5" y="-96.5" font-family="Helvetica,sans-Serif" font-size="10.00" fill="#000000">/Scanner.h</text>
</a>
</g>
</g>
<!-- Node4&#45;&gt;Node8 -->
<g id="edge5" class="edge">
<title>Node4&#45;&gt;Node8</title>
<path fill="none" stroke="#191970" d="M291.2894,-169.2749C296.4877,-160.0219 302.0006,-150.209 306.8741,-141.5341"/>
<polygon fill="#191970" stroke="#191970" points="288.0778,-167.8457 286.2312,-178.2784 294.1807,-171.2744 288.0778,-167.8457"/>
</g>
<!-- Node10 -->
<g id="node8" class="node">
<title>Node10</title>
<g id="a_node8"><a xlink:href="_chessboard_detector_8cpp.html" target="_top" xlink:title="/home/bdn_jz/bdn_jz\l/camera&#45;tracker&#45;cpp\l/CameraTrackerLinux/src\l/ChessboardDetector.cpp">
<polygon fill="#ffffff" stroke="#000000" points="411.5,-89.5 411.5,-141.5 539.5,-141.5 539.5,-89.5 411.5,-89.5"/>
<text text-anchor="start" x="419.5" y="-129.5" font-family="Helvetica,sans-Serif" font-size="10.00" fill="#000000">/home/bdn_jz/bdn_jz</text>
<text text-anchor="start" x="419.5" y="-118.5" font-family="Helvetica,sans-Serif" font-size="10.00" fill="#000000">/camera&#45;tracker&#45;cpp</text>
<text text-anchor="start" x="419.5" y="-107.5" font-family="Helvetica,sans-Serif" font-size="10.00" fill="#000000">/CameraTrackerLinux/src</text>
<text text-anchor="middle" x="475.5" y="-96.5" font-family="Helvetica,sans-Serif" font-size="10.00" fill="#000000">/ChessboardDetector.cpp</text>
</a>
</g>
</g>
<!-- Node4&#45;&gt;Node10 -->
<g id="edge9" class="edge">
<title>Node4&#45;&gt;Node10</title>
<path fill="none" stroke="#191970" d="M340.523,-174.387C364.9088,-163.7481 392.1125,-151.8798 415.6727,-141.6011"/>
<polygon fill="#191970" stroke="#191970" points="339.0945,-171.1916 331.3283,-178.3984 341.8936,-177.6076 339.0945,-171.1916"/>
</g>
<!-- Node5&#45;&gt;Node6 -->
<g id="edge3" class="edge">
<title>Node5&#45;&gt;Node6</title>
<path fill="none" stroke="#191970" d="M158.6047,-82.4768C171.8932,-70.6501 186.486,-57.6625 198.2673,-47.1771"/>
<polygon fill="#191970" stroke="#191970" points="156.1055,-80.0156 150.9624,-89.2784 160.7593,-85.2446 156.1055,-80.0156"/>
</g>
<!-- Node7 -->
<g id="node5" class="node">
<title>Node7</title>
<g id="a_node5"><a xlink:href="_pose_estimation_8cpp.html" target="_top" xlink:title="/home/bdn_jz/bdn_jz\l/camera&#45;tracker&#45;cpp\l/CameraTrackerLinux/src\l/PoseEstimation.cpp">
<polygon fill="#ffffff" stroke="#000000" points="0,-.5 0,-52.5 127,-52.5 127,-.5 0,-.5"/>
<text text-anchor="start" x="8" y="-40.5" font-family="Helvetica,sans-Serif" font-size="10.00" fill="#000000">/home/bdn_jz/bdn_jz</text>
<text text-anchor="start" x="8" y="-29.5" font-family="Helvetica,sans-Serif" font-size="10.00" fill="#000000">/camera&#45;tracker&#45;cpp</text>
<text text-anchor="start" x="8" y="-18.5" font-family="Helvetica,sans-Serif" font-size="10.00" fill="#000000">/CameraTrackerLinux/src</text>
<text text-anchor="middle" x="63.5" y="-7.5" font-family="Helvetica,sans-Serif" font-size="10.00" fill="#000000">/PoseEstimation.cpp</text>
</a>
</g>
</g>
<!-- Node5&#45;&gt;Node7 -->
<g id="edge4" class="edge">
<title>Node5&#45;&gt;Node7</title>
<path fill="none" stroke="#191970" d="M98.9207,-80.8525C92.781,-71.4313 86.2371,-61.3897 80.4661,-52.5341"/>
<polygon fill="#191970" stroke="#191970" points="96.0196,-82.8114 104.4118,-89.2784 101.8842,-78.9895 96.0196,-82.8114"/>
</g>
<!-- Node8&#45;&gt;Node6 -->
<g id="edge6" class="edge">
<title>Node8&#45;&gt;Node6</title>
<path fill="none" stroke="#191970" d="M284.3953,-82.4768C271.1068,-70.6501 256.514,-57.6625 244.7327,-47.1771"/>
<polygon fill="#191970" stroke="#191970" points="282.2407,-85.2446 292.0376,-89.2784 286.8945,-80.0156 282.2407,-85.2446"/>
</g>
<!-- Node9 -->
<g id="node7" class="node">
<title>Node9</title>
<g id="a_node7"><a xlink:href="_scanner_8cpp.html" target="_top" xlink:title="/home/bdn_jz/bdn_jz\l/camera&#45;tracker&#45;cpp\l/CameraTrackerLinux/src\l/Scanner.cpp">
<polygon fill="#ffffff" stroke="#000000" points="316,-.5 316,-52.5 443,-52.5 443,-.5 316,-.5"/>
<text text-anchor="start" x="324" y="-40.5" font-family="Helvetica,sans-Serif" font-size="10.00" fill="#000000">/home/bdn_jz/bdn_jz</text>
<text text-anchor="start" x="324" y="-29.5" font-family="Helvetica,sans-Serif" font-size="10.00" fill="#000000">/camera&#45;tracker&#45;cpp</text>
<text text-anchor="start" x="324" y="-18.5" font-family="Helvetica,sans-Serif" font-size="10.00" fill="#000000">/CameraTrackerLinux/src</text>
<text text-anchor="middle" x="379.5" y="-7.5" font-family="Helvetica,sans-Serif" font-size="10.00" fill="#000000">/Scanner.cpp</text>
</a>
</g>
</g>
<!-- Node8&#45;&gt;Node9 -->
<g id="edge7" class="edge">
<title>Node8&#45;&gt;Node9</title>
<path fill="none" stroke="#191970" d="M344.0793,-80.8525C350.219,-71.4313 356.7629,-61.3897 362.5339,-52.5341"/>
<polygon fill="#191970" stroke="#191970" points="341.1158,-78.9895 338.5882,-89.2784 346.9804,-82.8114 341.1158,-78.9895"/>
</g>
</g>
</svg>
