<?xml version="1.0" encoding="UTF-8" standalone="no"?>
<!DOCTYPE svg PUBLIC "-//W3C//DTD SVG 1.1//EN"
 "http://www.w3.org/Graphics/SVG/1.1/DTD/svg11.dtd">
<!-- Generated by graphviz version 2.40.1 (20161225.0304)
 -->
<!-- Title: /home/bdn_jz/bdn_jz/CameraTrackerLinux/include/ChessboardDetector.h Pages: 1 -->
<svg width="365pt" height="206pt"
 viewBox="0.00 0.00 364.50 206.00" xmlns="http://www.w3.org/2000/svg" xmlns:xlink="http://www.w3.org/1999/xlink">
<g id="graph0" class="graph" transform="scale(1 1) rotate(0) translate(4 202)">
<title>/home/bdn_jz/bdn_jz/CameraTrackerLinux/include/ChessboardDetector.h</title>
<polygon fill="#ffffff" stroke="transparent" points="-4,4 -4,-202 360.5,-202 360.5,4 -4,4"/>
<!-- Node4 -->
<g id="node1" class="node">
<title>Node4</title>
<polygon fill="#bfbfbf" stroke="#000000" points="62,-156.5 62,-197.5 214,-197.5 214,-156.5 62,-156.5"/>
<text text-anchor="start" x="70" y="-185.5" font-family="Helvetica,sans-Serif" font-size="10.00" fill="#000000">/home/bdn_jz/bdn_jz</text>
<text text-anchor="start" x="70" y="-174.5" font-family="Helvetica,sans-Serif" font-size="10.00" fill="#000000">/CameraTrackerLinux</text>
<text text-anchor="middle" x="138" y="-163.5" font-family="Helvetica,sans-Serif" font-size="10.00" fill="#000000">/include/ChessboardDetector.h</text>
</g>
<!-- Node5 -->
<g id="node2" class="node">
<title>Node5</title>
<g id="a_node2"><a xlink:href="_scanner_8h.html" target="_top" xlink:title="This file contains the declaration of the Scanner class. ">
<polygon fill="#ffffff" stroke="#000000" points="83,-78.5 83,-119.5 193,-119.5 193,-78.5 83,-78.5"/>
<text text-anchor="start" x="91" y="-107.5" font-family="Helvetica,sans-Serif" font-size="10.00" fill="#000000">/home/bdn_jz/bdn_jz</text>
<text text-anchor="start" x="91" y="-96.5" font-family="Helvetica,sans-Serif" font-size="10.00" fill="#000000">/CameraTrackerLinux</text>
<text text-anchor="middle" x="138" y="-85.5" font-family="Helvetica,sans-Serif" font-size="10.00" fill="#000000">/include/Scanner.h</text>
</a>
</g>
</g>
<!-- Node4&#45;&gt;Node5 -->
<g id="edge1" class="edge">
<title>Node4&#45;&gt;Node5</title>
<path fill="none" stroke="#191970" d="M138,-146.0789C138,-137.2178 138,-127.7747 138,-119.6898"/>
<polygon fill="#191970" stroke="#191970" points="134.5001,-146.0974 138,-156.0974 141.5001,-146.0975 134.5001,-146.0974"/>
</g>
<!-- Node6 -->
<g id="node3" class="node">
<title>Node6</title>
<g id="a_node3"><a xlink:href="main_8cpp.html" target="_top" xlink:title="/home/bdn_jz/bdn_jz\l/CameraTrackerLinux\l/main.cpp">
<polygon fill="#ffffff" stroke="#000000" points="0,-.5 0,-41.5 110,-41.5 110,-.5 0,-.5"/>
<text text-anchor="start" x="8" y="-29.5" font-family="Helvetica,sans-Serif" font-size="10.00" fill="#000000">/home/bdn_jz/bdn_jz</text>
<text text-anchor="start" x="8" y="-18.5" font-family="Helvetica,sans-Serif" font-size="10.00" fill="#000000">/CameraTrackerLinux</text>
<text text-anchor="middle" x="55" y="-7.5" font-family="Helvetica,sans-Serif" font-size="10.00" fill="#000000">/main.cpp</text>
</a>
</g>
</g>
<!-- Node4&#45;&gt;Node6 -->
<g id="edge4" class="edge">
<title>Node4&#45;&gt;Node6</title>
<path fill="none" stroke="#191970" d="M99.4394,-149.9324C89.7863,-141.398 80.3766,-131.2305 74,-120 60.0876,-95.4973 56.1595,-62.6576 55.1599,-41.6587"/>
<polygon fill="#191970" stroke="#191970" points="97.2663,-152.6778 107.1799,-156.4157 101.7611,-147.3114 97.2663,-152.6778"/>
</g>
<!-- Node8 -->
<g id="node5" class="node">
<title>Node8</title>
<g id="a_node5"><a xlink:href="_chessboard_detector_8cpp.html" target="_top" xlink:title="/home/bdn_jz/bdn_jz\l/CameraTrackerLinux\l/src/ChessboardDetector.cpp">
<polygon fill="#ffffff" stroke="#000000" points="211.5,-78.5 211.5,-119.5 356.5,-119.5 356.5,-78.5 211.5,-78.5"/>
<text text-anchor="start" x="219.5" y="-107.5" font-family="Helvetica,sans-Serif" font-size="10.00" fill="#000000">/home/bdn_jz/bdn_jz</text>
<text text-anchor="start" x="219.5" y="-96.5" font-family="Helvetica,sans-Serif" font-size="10.00" fill="#000000">/CameraTrackerLinux</text>
<text text-anchor="middle" x="284" y="-85.5" font-family="Helvetica,sans-Serif" font-size="10.00" fill="#000000">/src/ChessboardDetector.cpp</text>
</a>
</g>
</g>
<!-- Node4&#45;&gt;Node8 -->
<g id="edge5" class="edge">
<title>Node4&#45;&gt;Node8</title>
<path fill="none" stroke="#191970" d="M185.7298,-151.5005C205.1315,-141.1352 227.2499,-129.3185 245.5836,-119.5239"/>
<polygon fill="#191970" stroke="#191970" points="183.9129,-148.5029 176.742,-156.3022 187.2115,-154.6771 183.9129,-148.5029"/>
</g>
<!-- Node5&#45;&gt;Node6 -->
<g id="edge2" class="edge">
<title>Node5&#45;&gt;Node6</title>
<path fill="none" stroke="#191970" d="M108.4488,-71.229C98.0912,-61.4953 86.6479,-50.7414 77.0161,-41.6898"/>
<polygon fill="#191970" stroke="#191970" points="106.0735,-73.7997 115.7575,-78.0974 110.8672,-68.6987 106.0735,-73.7997"/>
</g>
<!-- Node7 -->
<g id="node4" class="node">
<title>Node7</title>
<g id="a_node4"><a xlink:href="_scanner_8cpp.html" target="_top" xlink:title="/home/bdn_jz/bdn_jz\l/CameraTrackerLinux\l/src/Scanner.cpp">
<polygon fill="#ffffff" stroke="#000000" points="128,-.5 128,-41.5 238,-41.5 238,-.5 128,-.5"/>
<text text-anchor="start" x="136" y="-29.5" font-family="Helvetica,sans-Serif" font-size="10.00" fill="#000000">/home/bdn_jz/bdn_jz</text>
<text text-anchor="start" x="136" y="-18.5" font-family="Helvetica,sans-Serif" font-size="10.00" fill="#000000">/CameraTrackerLinux</text>
<text text-anchor="middle" x="183" y="-7.5" font-family="Helvetica,sans-Serif" font-size="10.00" fill="#000000">/src/Scanner.cpp</text>
</a>
</g>
</g>
<!-- Node5&#45;&gt;Node7 -->
<g id="edge3" class="edge">
<title>Node5&#45;&gt;Node7</title>
<path fill="none" stroke="#191970" d="M155.1743,-69.2312C160.4761,-60.0415 166.1964,-50.1263 171.0636,-41.6898"/>
<polygon fill="#191970" stroke="#191970" points="152.0248,-67.6865 150.0592,-78.0974 158.0881,-71.1846 152.0248,-67.6865"/>
</g>
</g>
</svg>
