<?xml version="1.0" encoding="UTF-8" standalone="no"?>
<!DOCTYPE svg PUBLIC "-//W3C//DTD SVG 1.1//EN"
 "http://www.w3.org/Graphics/SVG/1.1/DTD/svg11.dtd">
<!-- Generated by graphviz version 2.40.1 (20161225.0304)
 -->
<!-- Title: /home/bdn_jz/bdn_jz/CameraTrackerLinux/include/Conex.h Pages: 1 -->
<svg width="319pt" height="206pt"
 viewBox="0.00 0.00 319.00 206.00" xmlns="http://www.w3.org/2000/svg" xmlns:xlink="http://www.w3.org/1999/xlink">
<g id="graph0" class="graph" transform="scale(1 1) rotate(0) translate(4 202)">
<title>/home/bdn_jz/bdn_jz/CameraTrackerLinux/include/Conex.h</title>
<polygon fill="#ffffff" stroke="transparent" points="-4,4 -4,-202 315,-202 315,4 -4,4"/>
<!-- Node3 -->
<g id="node1" class="node">
<title>Node3</title>
<polygon fill="#bfbfbf" stroke="#000000" points="133,-156.5 133,-197.5 243,-197.5 243,-156.5 133,-156.5"/>
<text text-anchor="start" x="141" y="-185.5" font-family="Helvetica,sans-Serif" font-size="10.00" fill="#000000">/home/bdn_jz/bdn_jz</text>
<text text-anchor="start" x="141" y="-174.5" font-family="Helvetica,sans-Serif" font-size="10.00" fill="#000000">/CameraTrackerLinux</text>
<text text-anchor="middle" x="188" y="-163.5" font-family="Helvetica,sans-Serif" font-size="10.00" fill="#000000">/include/Conex.h</text>
</g>
<!-- Node4 -->
<g id="node2" class="node">
<title>Node4</title>
<g id="a_node2"><a xlink:href="_rotation_stage_8h.html" target="_top" xlink:title="This file contains the declaration of the RotationStage class. ">
<polygon fill="#ffffff" stroke="#000000" points="59,-78.5 59,-119.5 183,-119.5 183,-78.5 59,-78.5"/>
<text text-anchor="start" x="67" y="-107.5" font-family="Helvetica,sans-Serif" font-size="10.00" fill="#000000">/home/bdn_jz/bdn_jz</text>
<text text-anchor="start" x="67" y="-96.5" font-family="Helvetica,sans-Serif" font-size="10.00" fill="#000000">/CameraTrackerLinux</text>
<text text-anchor="middle" x="121" y="-85.5" font-family="Helvetica,sans-Serif" font-size="10.00" fill="#000000">/include/RotationStage.h</text>
</a>
</g>
</g>
<!-- Node3&#45;&gt;Node4 -->
<g id="edge1" class="edge">
<title>Node3&#45;&gt;Node4</title>
<path fill="none" stroke="#191970" d="M163.4127,-148.376C155.2476,-138.8703 146.3207,-128.4778 138.772,-119.6898"/>
<polygon fill="#191970" stroke="#191970" points="160.8743,-150.7923 170.0452,-156.0974 166.1843,-146.2311 160.8743,-150.7923"/>
</g>
<!-- Node7 -->
<g id="node5" class="node">
<title>Node7</title>
<g id="a_node5"><a xlink:href="_conex_8cpp.html" target="_top" xlink:title="/home/bdn_jz/bdn_jz\l/CameraTrackerLinux\l/src/Conex.cpp">
<polygon fill="#ffffff" stroke="#000000" points="201,-78.5 201,-119.5 311,-119.5 311,-78.5 201,-78.5"/>
<text text-anchor="start" x="209" y="-107.5" font-family="Helvetica,sans-Serif" font-size="10.00" fill="#000000">/home/bdn_jz/bdn_jz</text>
<text text-anchor="start" x="209" y="-96.5" font-family="Helvetica,sans-Serif" font-size="10.00" fill="#000000">/CameraTrackerLinux</text>
<text text-anchor="middle" x="256" y="-85.5" font-family="Helvetica,sans-Serif" font-size="10.00" fill="#000000">/src/Conex.cpp</text>
</a>
</g>
</g>
<!-- Node3&#45;&gt;Node7 -->
<g id="edge4" class="edge">
<title>Node3&#45;&gt;Node7</title>
<path fill="none" stroke="#191970" d="M212.9543,-148.376C221.2413,-138.8703 230.3014,-128.4778 237.9627,-119.6898"/>
<polygon fill="#191970" stroke="#191970" points="210.1559,-146.2597 206.2228,-156.0974 215.4324,-150.8597 210.1559,-146.2597"/>
</g>
<!-- Node5 -->
<g id="node3" class="node">
<title>Node5</title>
<g id="a_node3"><a xlink:href="main_8cpp.html" target="_top" xlink:title="/home/bdn_jz/bdn_jz\l/CameraTrackerLinux\l/main.cpp">
<polygon fill="#ffffff" stroke="#000000" points="0,-.5 0,-41.5 110,-41.5 110,-.5 0,-.5"/>
<text text-anchor="start" x="8" y="-29.5" font-family="Helvetica,sans-Serif" font-size="10.00" fill="#000000">/home/bdn_jz/bdn_jz</text>
<text text-anchor="start" x="8" y="-18.5" font-family="Helvetica,sans-Serif" font-size="10.00" fill="#000000">/CameraTrackerLinux</text>
<text text-anchor="middle" x="55" y="-7.5" font-family="Helvetica,sans-Serif" font-size="10.00" fill="#000000">/main.cpp</text>
</a>
</g>
</g>
<!-- Node4&#45;&gt;Node5 -->
<g id="edge2" class="edge">
<title>Node4&#45;&gt;Node5</title>
<path fill="none" stroke="#191970" d="M96.7797,-70.376C88.7364,-60.8703 79.9427,-50.4778 72.5068,-41.6898"/>
<polygon fill="#191970" stroke="#191970" points="94.1819,-72.7244 103.3132,-78.0974 99.5256,-68.2027 94.1819,-72.7244"/>
</g>
<!-- Node6 -->
<g id="node4" class="node">
<title>Node6</title>
<g id="a_node4"><a xlink:href="_rotation_stage_8cpp.html" target="_top" xlink:title="/home/bdn_jz/bdn_jz\l/CameraTrackerLinux\l/src/RotationStage.cpp">
<polygon fill="#ffffff" stroke="#000000" points="128.5,-.5 128.5,-41.5 245.5,-41.5 245.5,-.5 128.5,-.5"/>
<text text-anchor="start" x="136.5" y="-29.5" font-family="Helvetica,sans-Serif" font-size="10.00" fill="#000000">/home/bdn_jz/bdn_jz</text>
<text text-anchor="start" x="136.5" y="-18.5" font-family="Helvetica,sans-Serif" font-size="10.00" fill="#000000">/CameraTrackerLinux</text>
<text text-anchor="middle" x="187" y="-7.5" font-family="Helvetica,sans-Serif" font-size="10.00" fill="#000000">/src/RotationStage.cpp</text>
</a>
</g>
</g>
<!-- Node4&#45;&gt;Node6 -->
<g id="edge3" class="edge">
<title>Node4&#45;&gt;Node6</title>
<path fill="none" stroke="#191970" d="M145.2203,-70.376C153.2636,-60.8703 162.0573,-50.4778 169.4932,-41.6898"/>
<polygon fill="#191970" stroke="#191970" points="142.4744,-68.2027 138.6868,-78.0974 147.8181,-72.7244 142.4744,-68.2027"/>
</g>
</g>
</svg>
