<?xml version="1.0" encoding="UTF-8" standalone="no"?>
<!DOCTYPE svg PUBLIC "-//W3C//DTD SVG 1.1//EN"
 "http://www.w3.org/Graphics/SVG/1.1/DTD/svg11.dtd">
<!-- Generated by graphviz version 2.40.1 (20161225.0304)
 -->
<!-- Title: /home/bdn_jz/bdn_jz/CameraTrackerLinux/src/Conex.cpp Pages: 1 -->
<svg width="118pt" height="162pt"
 viewBox="0.00 0.00 118.00 162.00" xmlns="http://www.w3.org/2000/svg" xmlns:xlink="http://www.w3.org/1999/xlink">
<g id="graph0" class="graph" transform="scale(1 1) rotate(0) translate(4 158)">
<title>/home/bdn_jz/bdn_jz/CameraTrackerLinux/src/Conex.cpp</title>
<polygon fill="#ffffff" stroke="transparent" points="-4,4 -4,-158 114,-158 114,4 -4,4"/>
<!-- Node0 -->
<g id="node1" class="node">
<title>Node0</title>
<polygon fill="#bfbfbf" stroke="#000000" points="0,-112.5 0,-153.5 110,-153.5 110,-112.5 0,-112.5"/>
<text text-anchor="start" x="8" y="-141.5" font-family="Helvetica,sans-Serif" font-size="10.00" fill="#000000">/home/bdn_jz/bdn_jz</text>
<text text-anchor="start" x="8" y="-130.5" font-family="Helvetica,sans-Serif" font-size="10.00" fill="#000000">/CameraTrackerLinux</text>
<text text-anchor="middle" x="55" y="-119.5" font-family="Helvetica,sans-Serif" font-size="10.00" fill="#000000">/src/Conex.cpp</text>
</g>
<!-- Node1 -->
<g id="node2" class="node">
<title>Node1</title>
<g id="a_node2"><a xlink:href="_conex_8h.html" target="_top" xlink:title="Conex.h">
<polygon fill="#ffffff" stroke="#000000" points="28.5,-56.5 28.5,-75.5 81.5,-75.5 81.5,-56.5 28.5,-56.5"/>
<text text-anchor="middle" x="55" y="-63.5" font-family="Helvetica,sans-Serif" font-size="10.00" fill="#000000">Conex.h</text>
</a>
</g>
</g>
<!-- Node0&#45;&gt;Node1 -->
<g id="edge1" class="edge">
<title>Node0&#45;&gt;Node1</title>
<path fill="none" stroke="#191970" d="M55,-112.168C55,-103.8226 55,-94.2471 55,-85.9879"/>
<polygon fill="#191970" stroke="#191970" points="58.5001,-85.7804 55,-75.7805 51.5001,-85.7805 58.5001,-85.7804"/>
</g>
<!-- Node2 -->
<g id="node3" class="node">
<title>Node2</title>
<polygon fill="#ffffff" stroke="#bfbfbf" points="3.5,-.5 3.5,-19.5 44.5,-19.5 44.5,-.5 3.5,-.5"/>
<text text-anchor="middle" x="24" y="-7.5" font-family="Helvetica,sans-Serif" font-size="10.00" fill="#000000">string</text>
</g>
<!-- Node1&#45;&gt;Node2 -->
<g id="edge2" class="edge">
<title>Node1&#45;&gt;Node2</title>
<path fill="none" stroke="#191970" d="M49.6002,-56.2455C45.3773,-48.617 39.3827,-37.7881 34.2559,-28.5267"/>
<polygon fill="#191970" stroke="#191970" points="37.2432,-26.6965 29.3379,-19.6427 31.119,-30.0867 37.2432,-26.6965"/>
</g>
<!-- Node3 -->
<g id="node4" class="node">
<title>Node3</title>
<polygon fill="#ffffff" stroke="#bfbfbf" points="63,-.5 63,-19.5 109,-19.5 109,-.5 63,-.5"/>
<text text-anchor="middle" x="86" y="-7.5" font-family="Helvetica,sans-Serif" font-size="10.00" fill="#000000">cstring</text>
</g>
<!-- Node1&#45;&gt;Node3 -->
<g id="edge3" class="edge">
<title>Node1&#45;&gt;Node3</title>
<path fill="none" stroke="#191970" d="M60.3998,-56.2455C64.6227,-48.617 70.6173,-37.7881 75.7441,-28.5267"/>
<polygon fill="#191970" stroke="#191970" points="78.881,-30.0867 80.6621,-19.6427 72.7568,-26.6965 78.881,-30.0867"/>
</g>
</g>
</svg>
