<?xml version="1.0" encoding="UTF-8" standalone="no"?>
<!DOCTYPE svg PUBLIC "-//W3C//DTD SVG 1.1//EN"
 "http://www.w3.org/Graphics/SVG/1.1/DTD/svg11.dtd">
<!-- Generated by graphviz version 2.40.1 (20161225.0304)
 -->
<!-- Title: /home/bdn_jz/bdn_jz/CameraTrackerLinux/include/GenericCamera.h Pages: 1 -->
<svg width="364pt" height="162pt"
 viewBox="0.00 0.00 364.00 162.00" xmlns="http://www.w3.org/2000/svg" xmlns:xlink="http://www.w3.org/1999/xlink">
<g id="graph0" class="graph" transform="scale(1 1) rotate(0) translate(4 158)">
<title>/home/bdn_jz/bdn_jz/CameraTrackerLinux/include/GenericCamera.h</title>
<polygon fill="#ffffff" stroke="transparent" points="-4,4 -4,-158 360,-158 360,4 -4,4"/>
<!-- Node0 -->
<g id="node1" class="node">
<title>Node0</title>
<polygon fill="#bfbfbf" stroke="#000000" points="75.5,-112.5 75.5,-153.5 205.5,-153.5 205.5,-112.5 75.5,-112.5"/>
<text text-anchor="start" x="83.5" y="-141.5" font-family="Helvetica,sans-Serif" font-size="10.00" fill="#000000">/home/bdn_jz/bdn_jz</text>
<text text-anchor="start" x="83.5" y="-130.5" font-family="Helvetica,sans-Serif" font-size="10.00" fill="#000000">/CameraTrackerLinux</text>
<text text-anchor="middle" x="140.5" y="-119.5" font-family="Helvetica,sans-Serif" font-size="10.00" fill="#000000">/include/GenericCamera.h</text>
</g>
<!-- Node1 -->
<g id="node2" class="node">
<title>Node1</title>
<polygon fill="#ffffff" stroke="#bfbfbf" points="0,-56.5 0,-75.5 59,-75.5 59,-56.5 0,-56.5"/>
<text text-anchor="middle" x="29.5" y="-63.5" font-family="Helvetica,sans-Serif" font-size="10.00" fill="#000000">exception</text>
</g>
<!-- Node0&#45;&gt;Node1 -->
<g id="edge1" class="edge">
<title>Node0&#45;&gt;Node1</title>
<path fill="none" stroke="#191970" d="M106.2906,-112.3511C89.5156,-102.2256 69.6819,-90.254 54.3738,-81.0139"/>
<polygon fill="#191970" stroke="#191970" points="55.865,-77.8259 45.495,-75.6546 52.2476,-83.8188 55.865,-77.8259"/>
</g>
<!-- Node2 -->
<g id="node3" class="node">
<title>Node2</title>
<polygon fill="#ffffff" stroke="#bfbfbf" points="77,-56.5 77,-75.5 118,-75.5 118,-56.5 77,-56.5"/>
<text text-anchor="middle" x="97.5" y="-63.5" font-family="Helvetica,sans-Serif" font-size="10.00" fill="#000000">string</text>
</g>
<!-- Node0&#45;&gt;Node2 -->
<g id="edge2" class="edge">
<title>Node0&#45;&gt;Node2</title>
<path fill="none" stroke="#191970" d="M127.1302,-112.168C121.409,-103.2536 114.787,-92.9356 109.2561,-84.3177"/>
<polygon fill="#191970" stroke="#191970" points="112.1238,-82.3059 103.777,-75.7805 106.2327,-86.0868 112.1238,-82.3059"/>
</g>
<!-- Node3 -->
<g id="node4" class="node">
<title>Node3</title>
<polygon fill="#ffffff" stroke="#bfbfbf" points="136.5,-56.5 136.5,-75.5 230.5,-75.5 230.5,-56.5 136.5,-56.5"/>
<text text-anchor="middle" x="183.5" y="-63.5" font-family="Helvetica,sans-Serif" font-size="10.00" fill="#000000">opencv2/core.hpp</text>
</g>
<!-- Node0&#45;&gt;Node3 -->
<g id="edge3" class="edge">
<title>Node0&#45;&gt;Node3</title>
<path fill="none" stroke="#191970" d="M153.8698,-112.168C159.591,-103.2536 166.213,-92.9356 171.7439,-84.3177"/>
<polygon fill="#191970" stroke="#191970" points="174.7673,-86.0868 177.223,-75.7805 168.8762,-82.3059 174.7673,-86.0868"/>
</g>
<!-- Node4 -->
<g id="node5" class="node">
<title>Node4</title>
<g id="a_node5"><a xlink:href="constants_8h.html" target="_top" xlink:title="header for constant definitions. ">
<polygon fill="#ffffff" stroke="#000000" points="248.5,-56.5 248.5,-75.5 316.5,-75.5 316.5,-56.5 248.5,-56.5"/>
<text text-anchor="middle" x="282.5" y="-63.5" font-family="Helvetica,sans-Serif" font-size="10.00" fill="#000000">constants.h</text>
</a>
</g>
</g>
<!-- Node0&#45;&gt;Node4 -->
<g id="edge4" class="edge">
<title>Node0&#45;&gt;Node4</title>
<path fill="none" stroke="#191970" d="M184.2634,-112.3511C206.5331,-101.8435 233.0166,-89.3478 252.8712,-79.9798"/>
<polygon fill="#191970" stroke="#191970" points="254.4876,-83.0872 262.0379,-75.6546 251.5005,-76.7565 254.4876,-83.0872"/>
</g>
<!-- Node5 -->
<g id="node6" class="node">
<title>Node5</title>
<polygon fill="#ffffff" stroke="#bfbfbf" points="209,-.5 209,-19.5 356,-19.5 356,-.5 209,-.5"/>
<text text-anchor="middle" x="282.5" y="-7.5" font-family="Helvetica,sans-Serif" font-size="10.00" fill="#000000">opencv2/imgproc/imgproc.hpp</text>
</g>
<!-- Node4&#45;&gt;Node5 -->
<g id="edge5" class="edge">
<title>Node4&#45;&gt;Node5</title>
<path fill="none" stroke="#191970" d="M282.5,-56.2455C282.5,-48.9382 282.5,-38.6944 282.5,-29.7046"/>
<polygon fill="#191970" stroke="#191970" points="286.0001,-29.6426 282.5,-19.6427 279.0001,-29.6427 286.0001,-29.6426"/>
</g>
</g>
</svg>
