<?xml version="1.0" encoding="UTF-8" standalone="no"?>
<!DOCTYPE svg PUBLIC "-//W3C//DTD SVG 1.1//EN"
 "http://www.w3.org/Graphics/SVG/1.1/DTD/svg11.dtd">
<!-- Generated by graphviz version 2.40.1 (20161225.0304)
 -->
<!-- Title: /home/bdn_jz/bdn_jz/camera&#45;tracker&#45;cpp/CameraTrackerLinux/include/GenericCamera.h Pages: 1 -->
<svg width="364pt" height="173pt"
 viewBox="0.00 0.00 364.00 173.00" xmlns="http://www.w3.org/2000/svg" xmlns:xlink="http://www.w3.org/1999/xlink">
<g id="graph0" class="graph" transform="scale(1 1) rotate(0) translate(4 169)">
<title>/home/bdn_jz/bdn_jz/camera&#45;tracker&#45;cpp/CameraTrackerLinux/include/GenericCamera.h</title>
<polygon fill="#ffffff" stroke="transparent" points="-4,4 -4,-169 360,-169 360,4 -4,4"/>
<!-- Node0 -->
<g id="node1" class="node">
<title>Node0</title>
<polygon fill="#bfbfbf" stroke="#000000" points="68.5,-112.5 68.5,-164.5 212.5,-164.5 212.5,-112.5 68.5,-112.5"/>
<text text-anchor="start" x="76.5" y="-152.5" font-family="Helvetica,sans-Serif" font-size="10.00" fill="#000000">/home/bdn_jz/bdn_jz</text>
<text text-anchor="start" x="76.5" y="-141.5" font-family="Helvetica,sans-Serif" font-size="10.00" fill="#000000">/camera&#45;tracker&#45;cpp</text>
<text text-anchor="start" x="76.5" y="-130.5" font-family="Helvetica,sans-Serif" font-size="10.00" fill="#000000">/CameraTrackerLinux/include</text>
<text text-anchor="middle" x="140.5" y="-119.5" font-family="Helvetica,sans-Serif" font-size="10.00" fill="#000000">/GenericCamera.h</text>
</g>
<!-- Node1 -->
<g id="node2" class="node">
<title>Node1</title>
<polygon fill="#ffffff" stroke="#bfbfbf" points="0,-56.5 0,-75.5 59,-75.5 59,-56.5 0,-56.5"/>
<text text-anchor="middle" x="29.5" y="-63.5" font-family="Helvetica,sans-Serif" font-size="10.00" fill="#000000">exception</text>
</g>
<!-- Node0&#45;&gt;Node1 -->
<g id="edge1" class="edge">
<title>Node0&#45;&gt;Node1</title>
<path fill="none" stroke="#191970" d="M100.4265,-112.3258C84.3293,-101.8119 66.3514,-90.0696 52.5232,-81.0377"/>
<polygon fill="#191970" stroke="#191970" points="54.3832,-78.0721 44.0969,-75.534 50.5553,-83.9328 54.3832,-78.0721"/>
</g>
<!-- Node2 -->
<g id="node3" class="node">
<title>Node2</title>
<polygon fill="#ffffff" stroke="#bfbfbf" points="77,-56.5 77,-75.5 118,-75.5 118,-56.5 77,-56.5"/>
<text text-anchor="middle" x="97.5" y="-63.5" font-family="Helvetica,sans-Serif" font-size="10.00" fill="#000000">string</text>
</g>
<!-- Node0&#45;&gt;Node2 -->
<g id="edge2" class="edge">
<title>Node0&#45;&gt;Node2</title>
<path fill="none" stroke="#191970" d="M124.976,-112.3258C119.4528,-103.0135 113.3581,-92.7375 108.315,-84.2347"/>
<polygon fill="#191970" stroke="#191970" points="111.2663,-82.3495 103.1546,-75.534 105.2456,-85.9205 111.2663,-82.3495"/>
</g>
<!-- Node3 -->
<g id="node4" class="node">
<title>Node3</title>
<polygon fill="#ffffff" stroke="#bfbfbf" points="136.5,-56.5 136.5,-75.5 230.5,-75.5 230.5,-56.5 136.5,-56.5"/>
<text text-anchor="middle" x="183.5" y="-63.5" font-family="Helvetica,sans-Serif" font-size="10.00" fill="#000000">opencv2/core.hpp</text>
</g>
<!-- Node0&#45;&gt;Node3 -->
<g id="edge3" class="edge">
<title>Node0&#45;&gt;Node3</title>
<path fill="none" stroke="#191970" d="M156.024,-112.3258C161.5472,-103.0135 167.6419,-92.7375 172.685,-84.2347"/>
<polygon fill="#191970" stroke="#191970" points="175.7544,-85.9205 177.8454,-75.534 169.7337,-82.3495 175.7544,-85.9205"/>
</g>
<!-- Node4 -->
<g id="node5" class="node">
<title>Node4</title>
<g id="a_node5"><a xlink:href="constants_8h.html" target="_top" xlink:title="header for constant definitions. ">
<polygon fill="#ffffff" stroke="#000000" points="248.5,-56.5 248.5,-75.5 316.5,-75.5 316.5,-56.5 248.5,-56.5"/>
<text text-anchor="middle" x="282.5" y="-63.5" font-family="Helvetica,sans-Serif" font-size="10.00" fill="#000000">constants.h</text>
</a>
</g>
</g>
<!-- Node0&#45;&gt;Node4 -->
<g id="edge4" class="edge">
<title>Node0&#45;&gt;Node4</title>
<path fill="none" stroke="#191970" d="M191.7653,-112.3258C212.9464,-101.5115 236.673,-89.3976 254.55,-80.2703"/>
<polygon fill="#191970" stroke="#191970" points="256.5117,-83.1985 263.8265,-75.534 253.3286,-76.9641 256.5117,-83.1985"/>
</g>
<!-- Node5 -->
<g id="node6" class="node">
<title>Node5</title>
<polygon fill="#ffffff" stroke="#bfbfbf" points="209,-.5 209,-19.5 356,-19.5 356,-.5 209,-.5"/>
<text text-anchor="middle" x="282.5" y="-7.5" font-family="Helvetica,sans-Serif" font-size="10.00" fill="#000000">opencv2/imgproc/imgproc.hpp</text>
</g>
<!-- Node4&#45;&gt;Node5 -->
<g id="edge5" class="edge">
<title>Node4&#45;&gt;Node5</title>
<path fill="none" stroke="#191970" d="M282.5,-56.2455C282.5,-48.9382 282.5,-38.6944 282.5,-29.7046"/>
<polygon fill="#191970" stroke="#191970" points="286.0001,-29.6426 282.5,-19.6427 279.0001,-29.6427 286.0001,-29.6426"/>
</g>
</g>
</svg>
