<?xml version="1.0" encoding="UTF-8" standalone="no"?>
<!DOCTYPE svg PUBLIC "-//W3C//DTD SVG 1.1//EN"
 "http://www.w3.org/Graphics/SVG/1.1/DTD/svg11.dtd">
<!-- Generated by graphviz version 2.40.1 (20161225.0304)
 -->
<!-- Title: /home/bdn_jz/bdn_jz/CameraTrackerLinux/include/GenericCamera.h Pages: 1 -->
<svg width="349pt" height="206pt"
 viewBox="0.00 0.00 348.50 206.00" xmlns="http://www.w3.org/2000/svg" xmlns:xlink="http://www.w3.org/1999/xlink">
<g id="graph0" class="graph" transform="scale(1 1) rotate(0) translate(4 202)">
<title>/home/bdn_jz/bdn_jz/CameraTrackerLinux/include/GenericCamera.h</title>
<polygon fill="#ffffff" stroke="transparent" points="-4,4 -4,-202 344.5,-202 344.5,4 -4,4"/>
<!-- Node6 -->
<g id="node1" class="node">
<title>Node6</title>
<polygon fill="#bfbfbf" stroke="#000000" points="137,-156.5 137,-197.5 267,-197.5 267,-156.5 137,-156.5"/>
<text text-anchor="start" x="145" y="-185.5" font-family="Helvetica,sans-Serif" font-size="10.00" fill="#000000">/home/bdn_jz/bdn_jz</text>
<text text-anchor="start" x="145" y="-174.5" font-family="Helvetica,sans-Serif" font-size="10.00" fill="#000000">/CameraTrackerLinux</text>
<text text-anchor="middle" x="202" y="-163.5" font-family="Helvetica,sans-Serif" font-size="10.00" fill="#000000">/include/GenericCamera.h</text>
</g>
<!-- Node7 -->
<g id="node2" class="node">
<title>Node7</title>
<g id="a_node2"><a xlink:href="_basler_gig_e_camera_8h.html" target="_top" xlink:title="Header file for the Basler GigE Camera class. ">
<polygon fill="#ffffff" stroke="#000000" points="53,-78.5 53,-119.5 199,-119.5 199,-78.5 53,-78.5"/>
<text text-anchor="start" x="61" y="-107.5" font-family="Helvetica,sans-Serif" font-size="10.00" fill="#000000">/home/bdn_jz/bdn_jz</text>
<text text-anchor="start" x="61" y="-96.5" font-family="Helvetica,sans-Serif" font-size="10.00" fill="#000000">/CameraTrackerLinux</text>
<text text-anchor="middle" x="126" y="-85.5" font-family="Helvetica,sans-Serif" font-size="10.00" fill="#000000">/include/BaslerGigECamera.h</text>
</a>
</g>
</g>
<!-- Node6&#45;&gt;Node7 -->
<g id="edge1" class="edge">
<title>Node6&#45;&gt;Node7</title>
<path fill="none" stroke="#191970" d="M174.3875,-148.6609C165.0507,-139.0783 154.8076,-128.5657 146.1593,-119.6898"/>
<polygon fill="#191970" stroke="#191970" points="172.1479,-151.3776 181.6334,-156.0974 177.1615,-146.4926 172.1479,-151.3776"/>
</g>
<!-- Node10 -->
<g id="node5" class="node">
<title>Node10</title>
<g id="a_node5"><a xlink:href="_generic_camera_8cpp.html" target="_top" xlink:title="Boday of the camera base class. ">
<polygon fill="#ffffff" stroke="#000000" points="217.5,-78.5 217.5,-119.5 340.5,-119.5 340.5,-78.5 217.5,-78.5"/>
<text text-anchor="start" x="225.5" y="-107.5" font-family="Helvetica,sans-Serif" font-size="10.00" fill="#000000">/home/bdn_jz/bdn_jz</text>
<text text-anchor="start" x="225.5" y="-96.5" font-family="Helvetica,sans-Serif" font-size="10.00" fill="#000000">/CameraTrackerLinux</text>
<text text-anchor="middle" x="279" y="-85.5" font-family="Helvetica,sans-Serif" font-size="10.00" fill="#000000">/src/GenericCamera.cpp</text>
</a>
</g>
</g>
<!-- Node6&#45;&gt;Node10 -->
<g id="edge4" class="edge">
<title>Node6&#45;&gt;Node10</title>
<path fill="none" stroke="#191970" d="M229.6951,-148.9452C239.2298,-139.2866 249.7266,-128.6535 258.5755,-119.6898"/>
<polygon fill="#191970" stroke="#191970" points="227.1691,-146.522 222.6346,-156.0974 232.1507,-151.4397 227.1691,-146.522"/>
</g>
<!-- Node8 -->
<g id="node3" class="node">
<title>Node8</title>
<g id="a_node3"><a xlink:href="main_8cpp.html" target="_top" xlink:title="/home/bdn_jz/bdn_jz\l/CameraTrackerLinux\l/main.cpp">
<polygon fill="#ffffff" stroke="#000000" points="0,-.5 0,-41.5 110,-41.5 110,-.5 0,-.5"/>
<text text-anchor="start" x="8" y="-29.5" font-family="Helvetica,sans-Serif" font-size="10.00" fill="#000000">/home/bdn_jz/bdn_jz</text>
<text text-anchor="start" x="8" y="-18.5" font-family="Helvetica,sans-Serif" font-size="10.00" fill="#000000">/CameraTrackerLinux</text>
<text text-anchor="middle" x="55" y="-7.5" font-family="Helvetica,sans-Serif" font-size="10.00" fill="#000000">/main.cpp</text>
</a>
</g>
</g>
<!-- Node7&#45;&gt;Node8 -->
<g id="edge2" class="edge">
<title>Node7&#45;&gt;Node8</title>
<path fill="none" stroke="#191970" d="M100.2041,-70.6609C91.4815,-61.0783 81.9123,-50.5657 73.833,-41.6898"/>
<polygon fill="#191970" stroke="#191970" points="97.6535,-73.0583 106.9733,-78.0974 102.8301,-68.3463 97.6535,-73.0583"/>
</g>
<!-- Node9 -->
<g id="node4" class="node">
<title>Node9</title>
<g id="a_node4"><a xlink:href="_basler_gig_e_camera_8cpp.html" target="_top" xlink:title="Body file for the Basler GigE Camera class. ">
<polygon fill="#ffffff" stroke="#000000" points="128.5,-.5 128.5,-41.5 267.5,-41.5 267.5,-.5 128.5,-.5"/>
<text text-anchor="start" x="136.5" y="-29.5" font-family="Helvetica,sans-Serif" font-size="10.00" fill="#000000">/home/bdn_jz/bdn_jz</text>
<text text-anchor="start" x="136.5" y="-18.5" font-family="Helvetica,sans-Serif" font-size="10.00" fill="#000000">/CameraTrackerLinux</text>
<text text-anchor="middle" x="198" y="-7.5" font-family="Helvetica,sans-Serif" font-size="10.00" fill="#000000">/src/BaslerGigECamera.cpp</text>
</a>
</g>
</g>
<!-- Node7&#45;&gt;Node9 -->
<g id="edge3" class="edge">
<title>Node7&#45;&gt;Node9</title>
<path fill="none" stroke="#191970" d="M152.1592,-70.6609C161.0046,-61.0783 170.7086,-50.5657 178.9017,-41.6898"/>
<polygon fill="#191970" stroke="#191970" points="149.5057,-68.3754 145.2947,-78.0974 154.6493,-73.1234 149.5057,-68.3754"/>
</g>
</g>
</svg>
