<?xml version="1.0" encoding="UTF-8" standalone="no"?>
<!DOCTYPE svg PUBLIC "-//W3C//DTD SVG 1.1//EN"
 "http://www.w3.org/Graphics/SVG/1.1/DTD/svg11.dtd">
<!-- Generated by graphviz version 2.40.1 (20161225.0304)
 -->
<!-- Title: /home/bdn_jz/bdn_jz/camera&#45;tracker&#45;cpp/CameraTrackerLinux/src/GenericCamera.cpp Pages: 1 -->
<svg width="365pt" height="229pt"
 viewBox="0.00 0.00 364.50 229.00" xmlns="http://www.w3.org/2000/svg" xmlns:xlink="http://www.w3.org/1999/xlink">
<g id="graph0" class="graph" transform="scale(1 1) rotate(0) translate(4 225)">
<title>/home/bdn_jz/bdn_jz/camera&#45;tracker&#45;cpp/CameraTrackerLinux/src/GenericCamera.cpp</title>
<polygon fill="#ffffff" stroke="transparent" points="-4,4 -4,-225 360.5,-225 360.5,4 -4,4"/>
<!-- Node0 -->
<g id="node1" class="node">
<title>Node0</title>
<polygon fill="#bfbfbf" stroke="#000000" points="51,-168.5 51,-220.5 178,-220.5 178,-168.5 51,-168.5"/>
<text text-anchor="start" x="59" y="-208.5" font-family="Helvetica,sans-Serif" font-size="10.00" fill="#000000">/home/bdn_jz/bdn_jz</text>
<text text-anchor="start" x="59" y="-197.5" font-family="Helvetica,sans-Serif" font-size="10.00" fill="#000000">/camera&#45;tracker&#45;cpp</text>
<text text-anchor="start" x="59" y="-186.5" font-family="Helvetica,sans-Serif" font-size="10.00" fill="#000000">/CameraTrackerLinux/src</text>
<text text-anchor="middle" x="114.5" y="-175.5" font-family="Helvetica,sans-Serif" font-size="10.00" fill="#000000">/GenericCamera.cpp</text>
</g>
<!-- Node1 -->
<g id="node2" class="node">
<title>Node1</title>
<g id="a_node2"><a xlink:href="constants_8h.html" target="_top" target="_top" xlink:title="header for constant definitions. ">
<polygon fill="#ffffff" stroke="#000000" points="39.5,-56.5 39.5,-75.5 107.5,-75.5 107.5,-56.5 39.5,-56.5"/>
<text text-anchor="middle" x="73.5" y="-63.5" font-family="Helvetica,sans-Serif" font-size="10.00" fill="#000000">constants.h</text>
</a>
</g>
</g>
<!-- Node0&#45;&gt;Node1 -->
<g id="edge1" class="edge">
<title>Node0&#45;&gt;Node1</title>
<path fill="none" stroke="#191970" d="M106.203,-168.4961C98.3205,-143.791 86.6532,-107.2242 79.5941,-85.0998"/>
<polygon fill="#191970" stroke="#191970" points="82.9098,-83.9771 76.5356,-75.5142 76.241,-86.1049 82.9098,-83.9771"/>
</g>
<!-- Node3 -->
<g id="node4" class="node">
<title>Node3</title>
<g id="a_node4"><a xlink:href="_generic_camera_8h.html" target="_top" target="_top" xlink:title="Header of the camera base class. ">
<polygon fill="#ffffff" stroke="#000000" points="109,-112.5 109,-131.5 202,-131.5 202,-112.5 109,-112.5"/>
<text text-anchor="middle" x="155.5" y="-119.5" font-family="Helvetica,sans-Serif" font-size="10.00" fill="#000000">GenericCamera.h</text>
</a>
</g>
</g>
<!-- Node0&#45;&gt;Node3 -->
<g id="edge3" class="edge">
<title>Node0&#45;&gt;Node3</title>
<path fill="none" stroke="#191970" d="M129.3019,-168.3258C134.5116,-159.1136 140.2546,-148.9584 145.0325,-140.5096"/>
<polygon fill="#191970" stroke="#191970" points="148.2323,-141.9614 150.1084,-131.534 142.1392,-138.5156 148.2323,-141.9614"/>
</g>
<!-- Node2 -->
<g id="node3" class="node">
<title>Node2</title>
<polygon fill="#ffffff" stroke="#bfbfbf" points="0,-.5 0,-19.5 147,-19.5 147,-.5 0,-.5"/>
<text text-anchor="middle" x="73.5" y="-7.5" font-family="Helvetica,sans-Serif" font-size="10.00" fill="#000000">opencv2/imgproc/imgproc.hpp</text>
</g>
<!-- Node1&#45;&gt;Node2 -->
<g id="edge2" class="edge">
<title>Node1&#45;&gt;Node2</title>
<path fill="none" stroke="#191970" d="M73.5,-56.2455C73.5,-48.9382 73.5,-38.6944 73.5,-29.7046"/>
<polygon fill="#191970" stroke="#191970" points="77.0001,-29.6426 73.5,-19.6427 70.0001,-29.6427 77.0001,-29.6426"/>
</g>
<!-- Node3&#45;&gt;Node1 -->
<g id="edge7" class="edge">
<title>Node3&#45;&gt;Node1</title>
<path fill="none" stroke="#191970" d="M141.2167,-112.2455C128.753,-103.7337 110.4549,-91.2375 96.0208,-81.3801"/>
<polygon fill="#191970" stroke="#191970" points="97.8515,-78.392 87.6196,-75.6427 93.9038,-84.1726 97.8515,-78.392"/>
</g>
<!-- Node4 -->
<g id="node5" class="node">
<title>Node4</title>
<polygon fill="#ffffff" stroke="#bfbfbf" points="126,-56.5 126,-75.5 185,-75.5 185,-56.5 126,-56.5"/>
<text text-anchor="middle" x="155.5" y="-63.5" font-family="Helvetica,sans-Serif" font-size="10.00" fill="#000000">exception</text>
</g>
<!-- Node3&#45;&gt;Node4 -->
<g id="edge4" class="edge">
<title>Node3&#45;&gt;Node4</title>
<path fill="none" stroke="#191970" d="M155.5,-112.2455C155.5,-104.9382 155.5,-94.6944 155.5,-85.7046"/>
<polygon fill="#191970" stroke="#191970" points="159.0001,-85.6426 155.5,-75.6427 152.0001,-85.6427 159.0001,-85.6426"/>
</g>
<!-- Node5 -->
<g id="node6" class="node">
<title>Node5</title>
<polygon fill="#ffffff" stroke="#bfbfbf" points="203,-56.5 203,-75.5 244,-75.5 244,-56.5 203,-56.5"/>
<text text-anchor="middle" x="223.5" y="-63.5" font-family="Helvetica,sans-Serif" font-size="10.00" fill="#000000">string</text>
</g>
<!-- Node3&#45;&gt;Node5 -->
<g id="edge5" class="edge">
<title>Node3&#45;&gt;Node5</title>
<path fill="none" stroke="#191970" d="M167.3447,-112.2455C177.388,-103.9746 191.9995,-91.9416 203.8004,-82.2232"/>
<polygon fill="#191970" stroke="#191970" points="206.2967,-84.7015 211.791,-75.6427 201.8467,-79.298 206.2967,-84.7015"/>
</g>
<!-- Node6 -->
<g id="node7" class="node">
<title>Node6</title>
<polygon fill="#ffffff" stroke="#bfbfbf" points="262.5,-56.5 262.5,-75.5 356.5,-75.5 356.5,-56.5 262.5,-56.5"/>
<text text-anchor="middle" x="309.5" y="-63.5" font-family="Helvetica,sans-Serif" font-size="10.00" fill="#000000">opencv2/core.hpp</text>
</g>
<!-- Node3&#45;&gt;Node6 -->
<g id="edge6" class="edge">
<title>Node3&#45;&gt;Node6</title>
<path fill="none" stroke="#191970" d="M181.9735,-112.3733C207.3597,-103.1419 245.8645,-89.1402 273.922,-78.9375"/>
<polygon fill="#191970" stroke="#191970" points="275.1701,-82.2079 283.3719,-75.5011 272.7778,-75.6293 275.1701,-82.2079"/>
</g>
</g>
</svg>
