<?xml version="1.0" encoding="UTF-8" standalone="no"?>
<!DOCTYPE svg PUBLIC "-//W3C//DTD SVG 1.1//EN"
 "http://www.w3.org/Graphics/SVG/1.1/DTD/svg11.dtd">
<!-- Generated by graphviz version 2.40.1 (20161225.0304)
 -->
<!-- Title: /home/bdn_jz/bdn_jz/CameraTrackerLinux/src/GenericCamera.cpp Pages: 1 -->
<svg width="365pt" height="218pt"
 viewBox="0.00 0.00 364.50 218.00" xmlns="http://www.w3.org/2000/svg" xmlns:xlink="http://www.w3.org/1999/xlink">
<g id="graph0" class="graph" transform="scale(1 1) rotate(0) translate(4 214)">
<title>/home/bdn_jz/bdn_jz/CameraTrackerLinux/src/GenericCamera.cpp</title>
<polygon fill="#ffffff" stroke="transparent" points="-4,4 -4,-214 360.5,-214 360.5,4 -4,4"/>
<!-- Node0 -->
<g id="node1" class="node">
<title>Node0</title>
<polygon fill="#bfbfbf" stroke="#000000" points="53,-168.5 53,-209.5 176,-209.5 176,-168.5 53,-168.5"/>
<text text-anchor="start" x="61" y="-197.5" font-family="Helvetica,sans-Serif" font-size="10.00" fill="#000000">/home/bdn_jz/bdn_jz</text>
<text text-anchor="start" x="61" y="-186.5" font-family="Helvetica,sans-Serif" font-size="10.00" fill="#000000">/CameraTrackerLinux</text>
<text text-anchor="middle" x="114.5" y="-175.5" font-family="Helvetica,sans-Serif" font-size="10.00" fill="#000000">/src/GenericCamera.cpp</text>
</g>
<!-- Node1 -->
<g id="node2" class="node">
<title>Node1</title>
<g id="a_node2"><a xlink:href="constants_8h.html" target="_top" xlink:title="header for constant definitions. ">
<polygon fill="#ffffff" stroke="#000000" points="39.5,-56.5 39.5,-75.5 107.5,-75.5 107.5,-56.5 39.5,-56.5"/>
<text text-anchor="middle" x="73.5" y="-63.5" font-family="Helvetica,sans-Serif" font-size="10.00" fill="#000000">constants.h</text>
</a>
</g>
</g>
<!-- Node0&#45;&gt;Node1 -->
<g id="edge1" class="edge">
<title>Node0&#45;&gt;Node1</title>
<path fill="none" stroke="#191970" d="M107.6375,-168.4126C99.8838,-145.1513 87.3663,-107.5989 79.8363,-85.0089"/>
<polygon fill="#191970" stroke="#191970" points="83.1555,-83.8982 76.6727,-75.5182 76.5147,-86.1118 83.1555,-83.8982"/>
</g>
<!-- Node3 -->
<g id="node4" class="node">
<title>Node3</title>
<g id="a_node4"><a xlink:href="_generic_camera_8h.html" target="_top" xlink:title="Header of the camera base class. ">
<polygon fill="#ffffff" stroke="#000000" points="109,-112.5 109,-131.5 202,-131.5 202,-112.5 109,-112.5"/>
<text text-anchor="middle" x="155.5" y="-119.5" font-family="Helvetica,sans-Serif" font-size="10.00" fill="#000000">GenericCamera.h</text>
</a>
</g>
</g>
<!-- Node0&#45;&gt;Node3 -->
<g id="edge3" class="edge">
<title>Node0&#45;&gt;Node3</title>
<path fill="none" stroke="#191970" d="M127.2479,-168.168C132.703,-159.2536 139.017,-148.9356 144.2907,-140.3177"/>
<polygon fill="#191970" stroke="#191970" points="147.2806,-142.137 149.5149,-131.7805 141.3099,-138.4833 147.2806,-142.137"/>
</g>
<!-- Node2 -->
<g id="node3" class="node">
<title>Node2</title>
<polygon fill="#ffffff" stroke="#bfbfbf" points="0,-.5 0,-19.5 147,-19.5 147,-.5 0,-.5"/>
<text text-anchor="middle" x="73.5" y="-7.5" font-family="Helvetica,sans-Serif" font-size="10.00" fill="#000000">opencv2/imgproc/imgproc.hpp</text>
</g>
<!-- Node1&#45;&gt;Node2 -->
<g id="edge2" class="edge">
<title>Node1&#45;&gt;Node2</title>
<path fill="none" stroke="#191970" d="M73.5,-56.2455C73.5,-48.9382 73.5,-38.6944 73.5,-29.7046"/>
<polygon fill="#191970" stroke="#191970" points="77.0001,-29.6426 73.5,-19.6427 70.0001,-29.6427 77.0001,-29.6426"/>
</g>
<!-- Node3&#45;&gt;Node1 -->
<g id="edge7" class="edge">
<title>Node3&#45;&gt;Node1</title>
<path fill="none" stroke="#191970" d="M141.2167,-112.2455C128.753,-103.7337 110.4549,-91.2375 96.0208,-81.3801"/>
<polygon fill="#191970" stroke="#191970" points="97.8515,-78.392 87.6196,-75.6427 93.9038,-84.1726 97.8515,-78.392"/>
</g>
<!-- Node4 -->
<g id="node5" class="node">
<title>Node4</title>
<polygon fill="#ffffff" stroke="#bfbfbf" points="126,-56.5 126,-75.5 185,-75.5 185,-56.5 126,-56.5"/>
<text text-anchor="middle" x="155.5" y="-63.5" font-family="Helvetica,sans-Serif" font-size="10.00" fill="#000000">exception</text>
</g>
<!-- Node3&#45;&gt;Node4 -->
<g id="edge4" class="edge">
<title>Node3&#45;&gt;Node4</title>
<path fill="none" stroke="#191970" d="M155.5,-112.2455C155.5,-104.9382 155.5,-94.6944 155.5,-85.7046"/>
<polygon fill="#191970" stroke="#191970" points="159.0001,-85.6426 155.5,-75.6427 152.0001,-85.6427 159.0001,-85.6426"/>
</g>
<!-- Node5 -->
<g id="node6" class="node">
<title>Node5</title>
<polygon fill="#ffffff" stroke="#bfbfbf" points="203,-56.5 203,-75.5 244,-75.5 244,-56.5 203,-56.5"/>
<text text-anchor="middle" x="223.5" y="-63.5" font-family="Helvetica,sans-Serif" font-size="10.00" fill="#000000">string</text>
</g>
<!-- Node3&#45;&gt;Node5 -->
<g id="edge5" class="edge">
<title>Node3&#45;&gt;Node5</title>
<path fill="none" stroke="#191970" d="M167.3447,-112.2455C177.388,-103.9746 191.9995,-91.9416 203.8004,-82.2232"/>
<polygon fill="#191970" stroke="#191970" points="206.2967,-84.7015 211.791,-75.6427 201.8467,-79.298 206.2967,-84.7015"/>
</g>
<!-- Node6 -->
<g id="node7" class="node">
<title>Node6</title>
<polygon fill="#ffffff" stroke="#bfbfbf" points="262.5,-56.5 262.5,-75.5 356.5,-75.5 356.5,-56.5 262.5,-56.5"/>
<text text-anchor="middle" x="309.5" y="-63.5" font-family="Helvetica,sans-Serif" font-size="10.00" fill="#000000">opencv2/core.hpp</text>
</g>
<!-- Node3&#45;&gt;Node6 -->
<g id="edge6" class="edge">
<title>Node3&#45;&gt;Node6</title>
<path fill="none" stroke="#191970" d="M181.9735,-112.3733C207.3597,-103.1419 245.8645,-89.1402 273.922,-78.9375"/>
<polygon fill="#191970" stroke="#191970" points="275.1701,-82.2079 283.3719,-75.5011 272.7778,-75.6293 275.1701,-82.2079"/>
</g>
</g>
</svg>
