<?xml version="1.0" encoding="UTF-8" standalone="no"?>
<!DOCTYPE svg PUBLIC "-//W3C//DTD SVG 1.1//EN"
 "http://www.w3.org/Graphics/SVG/1.1/DTD/svg11.dtd">
<!-- Generated by graphviz version 2.40.1 (20161225.0304)
 -->
<!-- Title: /home/bdn_jz/bdn_jz/camera&#45;tracker&#45;cpp/CameraTrackerLinux/include/PoseEstimation.h Pages: 1 -->
<!--zoomable 564 -->
<svg id="main" version="1.1" xmlns="http://www.w3.org/2000/svg" xmlns:xlink="http://www.w3.org/1999/xlink" xml:space="preserve" onload="init(evt)">
<style type="text/css"><![CDATA[
.edge:hover path { stroke: red; }
.edge:hover polygon { stroke: red; fill: red; }
]]></style>
<script type="text/javascript"><![CDATA[
var edges = document.getElementsByTagName('g');
if (edges && edges.length) {
  for (var i=0;i<edges.length;i++) {
    if (edges[i].id.substr(0,4)=='edge') {
      edges[i].setAttribute('class','edge');
    }
  }
}
]]></script>
        <defs>
                <circle id="rim" cx="0" cy="0" r="7"/>
                <circle id="rim2" cx="0" cy="0" r="3.5"/>
                <g id="zoomPlus">
                        <use xlink:href="#rim" fill="#404040">
                                <set attributeName="fill" to="#808080" begin="zoomplus.mouseover" end="zoomplus.mouseout"/>
                        </use>
                        <path d="M-4,0h8M0,-4v8" fill="none" stroke="white" stroke-width="1.5" pointer-events="none"/>
                </g>
                <g id="zoomMin">
                        <use xlink:href="#rim" fill="#404040">
                                <set attributeName="fill" to="#808080" begin="zoomminus.mouseover" end="zoomminus.mouseout"/>
                        </use>
                        <path d="M-4,0h8" fill="none" stroke="white" stroke-width="1.5" pointer-events="none"/>
                </g>
                <g id="dirArrow">
                        <path fill="none" stroke="white" stroke-width="1.5" d="M0,-3.0v7 M-2.5,-0.5L0,-3.0L2.5,-0.5"/>
                </g>
               <g id="resetDef">
                       <use xlink:href="#rim2" fill="#404040">
                               <set attributeName="fill" to="#808080" begin="reset.mouseover" end="reset.mouseout"/>
                       </use>
               </g>
        </defs>

<script type="text/javascript">
var viewWidth = 3763;
var viewHeight = 564;
var sectionId = 'dynsection-0';
</script>
<script xlink:href="svgpan.js"/>
<svg id="graph" class="graph">
<g id="viewport">
<title>/home/bdn_jz/bdn_jz/camera&#45;tracker&#45;cpp/CameraTrackerLinux/include/PoseEstimation.h</title>
<polygon fill="#ffffff" stroke="transparent" points="-4,4 -4,-560 3759.2238,-560 3759.2238,4 -4,4"/>
<!-- Node0 -->
<g id="node1" class="node">
<title>Node0</title>
<polygon fill="#bfbfbf" stroke="#000000" points="1098.781,-503.5 1098.781,-555.5 1242.781,-555.5 1242.781,-503.5 1098.781,-503.5"/>
<text text-anchor="start" x="1106.781" y="-543.5" font-family="Helvetica,sans-Serif" font-size="10.00" fill="#000000">/home/bdn_jz/bdn_jz</text>
<text text-anchor="start" x="1106.781" y="-532.5" font-family="Helvetica,sans-Serif" font-size="10.00" fill="#000000">/camera&#45;tracker&#45;cpp</text>
<text text-anchor="start" x="1106.781" y="-521.5" font-family="Helvetica,sans-Serif" font-size="10.00" fill="#000000">/CameraTrackerLinux/include</text>
<text text-anchor="middle" x="1170.781" y="-510.5" font-family="Helvetica,sans-Serif" font-size="10.00" fill="#000000">/PoseEstimation.h</text>
</g>
<!-- Node1 -->
<g id="node2" class="node">
<title>Node1</title>
<g id="a_node2"><a xlink:href="_chessboard_detector_8h.html" target="_top" xlink:title="This file contains the declaration of the ChessboardDetector class. ">
<polygon fill="#ffffff" stroke="#000000" points="1045.281,-447.5 1045.281,-466.5 1160.281,-466.5 1160.281,-447.5 1045.281,-447.5"/>
<text text-anchor="middle" x="1102.781" y="-454.5" font-family="Helvetica,sans-Serif" font-size="10.00" fill="#000000">ChessboardDetector.h</text>
</a>
</g>
</g>
<!-- Node0&#45;&gt;Node1 -->
<g id="edge1" class="edge">
<title>Node0&#45;&gt;Node1</title>
<path fill="none" stroke="#191970" d="M1146.2314,-503.3258C1137.0275,-493.5128 1126.8199,-482.6298 1118.6124,-473.879"/>
<polygon fill="#191970" stroke="#191970" points="1121.1172,-471.4334 1111.7232,-466.534 1116.0115,-476.2222 1121.1172,-471.4334"/>
</g>
<!-- Node6 -->
<g id="node7" class="node">
<title>Node6</title>
<g id="a_node7"><a xlink:href="_json_utilization_8h.html" target="_top" xlink:title="This file contains the declaration of the namespace jsonUtilization. ">
<polygon fill="#ffffff" stroke="#000000" points="1823.281,-447.5 1823.281,-466.5 1912.281,-466.5 1912.281,-447.5 1823.281,-447.5"/>
<text text-anchor="middle" x="1867.781" y="-454.5" font-family="Helvetica,sans-Serif" font-size="10.00" fill="#000000">JsonUtilization.h</text>
</a>
</g>
</g>
<!-- Node0&#45;&gt;Node6 -->
<g id="edge6" class="edge">
<title>Node0&#45;&gt;Node6</title>
<path fill="none" stroke="#191970" d="M1243.0731,-521.9804C1382.9653,-507.4292 1687.8959,-475.7111 1812.7782,-462.7212"/>
<polygon fill="#191970" stroke="#191970" points="1813.2916,-466.1868 1822.8758,-461.6709 1812.5674,-459.2244 1813.2916,-466.1868"/>
</g>
<!-- Node2 -->
<g id="node3" class="node">
<title>Node2</title>
<g id="a_node3"><a xlink:href="_chessboard_8h.html" target="_top" xlink:title="This file contains the declaration of the Chessboard class. ">
<polygon fill="#ffffff" stroke="#000000" points="214.281,-391.5 214.281,-410.5 291.281,-410.5 291.281,-391.5 214.281,-391.5"/>
<text text-anchor="middle" x="252.781" y="-398.5" font-family="Helvetica,sans-Serif" font-size="10.00" fill="#000000">Chessboard.h</text>
</a>
</g>
</g>
<!-- Node1&#45;&gt;Node2 -->
<g id="edge2" class="edge">
<title>Node1&#45;&gt;Node2</title>
<path fill="none" stroke="#191970" d="M1045.0253,-453.1949C886.8414,-442.7734 448.6182,-413.9022 301.5922,-404.2158"/>
<polygon fill="#191970" stroke="#191970" points="301.7259,-400.7171 291.5174,-403.552 301.2656,-407.702 301.7259,-400.7171"/>
</g>
<!-- Node5 -->
<g id="node6" class="node">
<title>Node5</title>
<polygon fill="#ffffff" stroke="#bfbfbf" points="1032.781,-391.5 1032.781,-410.5 1172.781,-410.5 1172.781,-391.5 1032.781,-391.5"/>
<text text-anchor="middle" x="1102.781" y="-398.5" font-family="Helvetica,sans-Serif" font-size="10.00" fill="#000000">opencv2/calib3d/calib3d.hpp</text>
</g>
<!-- Node1&#45;&gt;Node5 -->
<g id="edge5" class="edge">
<title>Node1&#45;&gt;Node5</title>
<path fill="none" stroke="#191970" d="M1102.781,-447.2455C1102.781,-439.9382 1102.781,-429.6944 1102.781,-420.7046"/>
<polygon fill="#191970" stroke="#191970" points="1106.2811,-420.6426 1102.781,-410.6427 1099.2811,-420.6427 1106.2811,-420.6426"/>
</g>
<!-- Node3 -->
<g id="node4" class="node">
<title>Node3</title>
<polygon fill="#ffffff" stroke="#bfbfbf" points="86.781,-330 86.781,-349 180.781,-349 180.781,-330 86.781,-330"/>
<text text-anchor="middle" x="133.781" y="-337" font-family="Helvetica,sans-Serif" font-size="10.00" fill="#000000">opencv2/core.hpp</text>
</g>
<!-- Node2&#45;&gt;Node3 -->
<g id="edge3" class="edge">
<title>Node2&#45;&gt;Node3</title>
<path fill="none" stroke="#191970" d="M234.1872,-391.3906C214.6257,-381.2811 183.6309,-365.2628 161.2501,-353.6962"/>
<polygon fill="#191970" stroke="#191970" points="162.7349,-350.5238 152.2442,-349.0419 159.521,-356.7425 162.7349,-350.5238"/>
</g>
<!-- Node4 -->
<g id="node5" class="node">
<title>Node4</title>
<polygon fill="#ffffff" stroke="#bfbfbf" points="199.281,-330 199.281,-349 306.281,-349 306.281,-330 199.281,-330"/>
<text text-anchor="middle" x="252.781" y="-337" font-family="Helvetica,sans-Serif" font-size="10.00" fill="#000000">opencv2/opencv.hpp</text>
</g>
<!-- Node2&#45;&gt;Node4 -->
<g id="edge4" class="edge">
<title>Node2&#45;&gt;Node4</title>
<path fill="none" stroke="#191970" d="M252.781,-391.3906C252.781,-382.8657 252.781,-370.1392 252.781,-359.4235"/>
<polygon fill="#191970" stroke="#191970" points="256.2811,-359.2448 252.781,-349.2449 249.2811,-359.2449 256.2811,-359.2448"/>
</g>
<!-- Node7 -->
<g id="node8" class="node">
<title>Node7</title>
<g id="a_node8"><a xlink:href="json_8hpp.html" target="_top" xlink:title="nlohmann/json.hpp">
<polygon fill="#ffffff" stroke="#000000" points="1818.781,-391.5 1818.781,-410.5 1916.781,-410.5 1916.781,-391.5 1818.781,-391.5"/>
<text text-anchor="middle" x="1867.781" y="-398.5" font-family="Helvetica,sans-Serif" font-size="10.00" fill="#000000">nlohmann/json.hpp</text>
</a>
</g>
</g>
<!-- Node6&#45;&gt;Node7 -->
<g id="edge7" class="edge">
<title>Node6&#45;&gt;Node7</title>
<path fill="none" stroke="#191970" d="M1867.781,-447.2455C1867.781,-439.9382 1867.781,-429.6944 1867.781,-420.7046"/>
<polygon fill="#191970" stroke="#191970" points="1871.2811,-420.6426 1867.781,-410.6427 1864.2811,-420.6427 1871.2811,-420.6426"/>
</g>
<!-- Node73 -->
<g id="node50" class="node">
<title>Node73</title>
<polygon fill="#ffffff" stroke="#bfbfbf" points="1934.781,-391.5 1934.781,-410.5 1984.781,-410.5 1984.781,-391.5 1934.781,-391.5"/>
<text text-anchor="middle" x="1959.781" y="-398.5" font-family="Helvetica,sans-Serif" font-size="10.00" fill="#000000">fstream</text>
</g>
<!-- Node6&#45;&gt;Node73 -->
<g id="edge170" class="edge">
<title>Node6&#45;&gt;Node73</title>
<path fill="none" stroke="#191970" d="M1883.8062,-447.2455C1897.9218,-438.6534 1918.7073,-426.0014 1934.9709,-416.1018"/>
<polygon fill="#191970" stroke="#191970" points="1937.2173,-418.8319 1943.9395,-410.6427 1933.5776,-412.8525 1937.2173,-418.8319"/>
</g>
<!-- Node8 -->
<g id="node9" class="node">
<title>Node8</title>
<g id="a_node9"><a xlink:href="adl__serializer_8hpp.html" target="_top" xlink:title="nlohmann/adl_serializer.hpp">
<polygon fill="#ffffff" stroke="#000000" points="2043.281,-330 2043.281,-349 2180.281,-349 2180.281,-330 2043.281,-330"/>
<text text-anchor="middle" x="2111.781" y="-337" font-family="Helvetica,sans-Serif" font-size="10.00" fill="#000000">nlohmann/adl_serializer.hpp</text>
</a>
</g>
</g>
<!-- Node7&#45;&gt;Node8 -->
<g id="edge8" class="edge">
<title>Node7&#45;&gt;Node8</title>
<path fill="none" stroke="#191970" d="M1905.6383,-391.4581C1948.2881,-380.7082 2017.6874,-363.2162 2064.0266,-351.5365"/>
<polygon fill="#191970" stroke="#191970" points="2064.9936,-354.9023 2073.8349,-349.0643 2063.2827,-348.1146 2064.9936,-354.9023"/>
</g>
<!-- Node10 -->
<g id="node11" class="node">
<title>Node10</title>
<g id="a_node11"><a xlink:href="from__json_8hpp.html" target="_top" xlink:title="nlohmann/detail/conversions\l/from_json.hpp">
<polygon fill="#ffffff" stroke="#000000" points="2303.781,-190.5 2303.781,-220.5 2443.781,-220.5 2443.781,-190.5 2303.781,-190.5"/>
<text text-anchor="start" x="2311.781" y="-208.5" font-family="Helvetica,sans-Serif" font-size="10.00" fill="#000000">nlohmann/detail/conversions</text>
<text text-anchor="middle" x="2373.781" y="-197.5" font-family="Helvetica,sans-Serif" font-size="10.00" fill="#000000">/from_json.hpp</text>
</a>
</g>
</g>
<!-- Node7&#45;&gt;Node10 -->
<g id="edge67" class="edge">
<title>Node7&#45;&gt;Node10</title>
<path fill="none" stroke="#191970" d="M1916.8088,-392.4221C1919.8431,-391.9299 1922.8524,-391.452 1925.781,-391 2042.8145,-372.9371 2081.1254,-402.0859 2189.781,-355 2192.0784,-354.0044 2297.2729,-268.0802 2347.5497,-226.9629"/>
<polygon fill="#191970" stroke="#191970" points="2349.884,-229.5753 2355.4086,-220.5349 2345.4521,-224.1569 2349.884,-229.5753"/>
</g>
<!-- Node22 -->
<g id="node23" class="node">
<title>Node22</title>
<g id="a_node23"><a xlink:href="exceptions_8hpp.html" target="_top" xlink:title="nlohmann/detail/exceptions.hpp">
<polygon fill="#ffffff" stroke="#000000" points="723.781,-129 723.781,-148 877.781,-148 877.781,-129 723.781,-129"/>
<text text-anchor="middle" x="800.781" y="-136" font-family="Helvetica,sans-Serif" font-size="10.00" fill="#000000">nlohmann/detail/exceptions.hpp</text>
</a>
</g>
</g>
<!-- Node7&#45;&gt;Node22 -->
<g id="edge69" class="edge">
<title>Node7&#45;&gt;Node22</title>
<path fill="none" stroke="#191970" d="M1818.7674,-400.6458C1641.6883,-399.0742 1041.3881,-391.109 963.781,-355 877.2948,-314.7598 825.5607,-202.4635 807.7795,-157.4844"/>
<polygon fill="#191970" stroke="#191970" points="811.0051,-156.1207 804.1572,-148.0364 804.469,-158.6266 811.0051,-156.1207"/>
</g>
<!-- Node27 -->
<g id="node27" class="node">
<title>Node27</title>
<g id="a_node27"><a xlink:href="macro__scope_8hpp.html" target="_top" xlink:title="nlohmann/detail/macro\l_scope.hpp">
<polygon fill="#ffffff" stroke="#ff0000" points="1428.281,-56.5 1428.281,-86.5 1543.281,-86.5 1543.281,-56.5 1428.281,-56.5"/>
<text text-anchor="start" x="1436.281" y="-74.5" font-family="Helvetica,sans-Serif" font-size="10.00" fill="#000000">nlohmann/detail/macro</text>
<text text-anchor="middle" x="1485.781" y="-63.5" font-family="Helvetica,sans-Serif" font-size="10.00" fill="#000000">_scope.hpp</text>
</a>
</g>
</g>
<!-- Node7&#45;&gt;Node27 -->
<g id="edge137" class="edge">
<title>Node7&#45;&gt;Node27</title>
<path fill="none" stroke="#191970" d="M1860.8919,-391.3047C1832.9696,-352.6079 1723.9592,-207.2404 1603.781,-123 1584.6547,-109.5932 1561.4818,-98.5506 1540.7526,-90.1759"/>
<polygon fill="#191970" stroke="#191970" points="1542.0112,-86.91 1531.4237,-86.5169 1539.4552,-93.4267 1542.0112,-86.91"/>
</g>
<!-- Node30 -->
<g id="node28" class="node">
<title>Node30</title>
<g id="a_node28"><a xlink:href="cpp__future_8hpp.html" target="_top" xlink:title="nlohmann/detail/meta\l/cpp_future.hpp">
<polygon fill="#ffffff" stroke="#ff0000" points="3298.781,-56.5 3298.781,-86.5 3408.781,-86.5 3408.781,-56.5 3298.781,-56.5"/>
<text text-anchor="start" x="3306.781" y="-74.5" font-family="Helvetica,sans-Serif" font-size="10.00" fill="#000000">nlohmann/detail/meta</text>
<text text-anchor="middle" x="3353.781" y="-63.5" font-family="Helvetica,sans-Serif" font-size="10.00" fill="#000000">/cpp_future.hpp</text>
</a>
</g>
</g>
<!-- Node7&#45;&gt;Node30 -->
<g id="edge138" class="edge">
<title>Node7&#45;&gt;Node30</title>
<path fill="none" stroke="#191970" d="M1917.0763,-392.0054C1920.0158,-391.6232 1922.9339,-391.2827 1925.781,-391 2511.1202,-332.8793 2664.9901,-427.0291 3248.781,-355 3397.1127,-336.6986 3574.781,-421.9565 3574.781,-272.5 3574.781,-272.5 3574.781,-272.5 3574.781,-205.5 3574.781,-131.8786 3483.9972,-97.5836 3418.801,-82.447"/>
<polygon fill="#191970" stroke="#191970" points="3419.4996,-79.017 3408.9785,-80.2646 3417.9813,-85.8503 3419.4996,-79.017"/>
</g>
<!-- Node31 -->
<g id="node29" class="node">
<title>Node31</title>
<g id="a_node29"><a xlink:href="type__traits_8hpp.html" target="_top" xlink:title="nlohmann/detail/meta\l/type_traits.hpp">
<polygon fill="#ffffff" stroke="#ff0000" points="3018.781,-123.5 3018.781,-153.5 3128.781,-153.5 3128.781,-123.5 3018.781,-123.5"/>
<text text-anchor="start" x="3026.781" y="-141.5" font-family="Helvetica,sans-Serif" font-size="10.00" fill="#000000">nlohmann/detail/meta</text>
<text text-anchor="middle" x="3073.781" y="-130.5" font-family="Helvetica,sans-Serif" font-size="10.00" fill="#000000">/type_traits.hpp</text>
</a>
</g>
</g>
<!-- Node7&#45;&gt;Node31 -->
<g id="edge139" class="edge">
<title>Node7&#45;&gt;Node31</title>
<path fill="none" stroke="#191970" d="M1917.0834,-392.0736C1920.0212,-391.6742 1922.9369,-391.3113 1925.781,-391 2261.9294,-354.2024 2352.6207,-412.9143 2685.781,-355 2880.4924,-321.1527 2993.7542,-380.9874 3109.781,-221 3123.0267,-202.7357 3109.8821,-178.8326 3095.9008,-161.46"/>
<polygon fill="#191970" stroke="#191970" points="3098.2489,-158.8216 3089.082,-153.5095 3092.9355,-163.3787 3098.2489,-158.8216"/>
</g>
<!-- Node36 -->
<g id="node30" class="node">
<title>Node36</title>
<g id="a_node30"><a xlink:href="json__fwd_8hpp.html" target="_top" xlink:title="nlohmann/json_fwd.hpp">
<polygon fill="#ffffff" stroke="#ff0000" points="983.281,-62 983.281,-81 1102.281,-81 1102.281,-62 983.281,-62"/>
<text text-anchor="middle" x="1042.781" y="-69" font-family="Helvetica,sans-Serif" font-size="10.00" fill="#000000">nlohmann/json_fwd.hpp</text>
</a>
</g>
</g>
<!-- Node7&#45;&gt;Node36 -->
<g id="edge168" class="edge">
<title>Node7&#45;&gt;Node36</title>
<path fill="none" stroke="#191970" d="M1818.3376,-398.5348C1696.7665,-392.2434 1385.7613,-374.6916 1283.781,-355 1163.0815,-331.6938 1019.781,-395.4291 1019.781,-272.5 1019.781,-272.5 1019.781,-272.5 1019.781,-205.5 1019.781,-164.1928 1030.5289,-116.7421 1037.3303,-90.85"/>
<polygon fill="#191970" stroke="#191970" points="1040.7203,-91.7216 1039.9607,-81.1541 1033.9645,-89.8888 1040.7203,-91.7216"/>
</g>
<!-- Node40 -->
<g id="node32" class="node">
<title>Node40</title>
<g id="a_node32"><a xlink:href="value__t_8hpp.html" target="_top" xlink:title="nlohmann/detail/value\l_t.hpp">
<polygon fill="#ffffff" stroke="#ff0000" points="1782.281,-123.5 1782.281,-153.5 1893.281,-153.5 1893.281,-123.5 1782.281,-123.5"/>
<text text-anchor="start" x="1790.281" y="-141.5" font-family="Helvetica,sans-Serif" font-size="10.00" fill="#000000">nlohmann/detail/value</text>
<text text-anchor="middle" x="1837.781" y="-130.5" font-family="Helvetica,sans-Serif" font-size="10.00" fill="#000000">_t.hpp</text>
</a>
</g>
</g>
<!-- Node7&#45;&gt;Node40 -->
<g id="edge167" class="edge">
<title>Node7&#45;&gt;Node40</title>
<path fill="none" stroke="#191970" d="M1866.69,-391.3246C1863.3128,-361.3933 1852.7201,-267.6476 1843.781,-190 1842.8075,-181.5439 1841.7345,-172.3079 1840.7684,-164.0221"/>
<polygon fill="#191970" stroke="#191970" points="1844.2136,-163.3489 1839.5772,-153.8224 1837.2609,-164.1609 1844.2136,-163.3489"/>
</g>
<!-- Node41 -->
<g id="node33" class="node">
<title>Node41</title>
<g id="a_node33"><a xlink:href="to__json_8hpp.html" target="_top" xlink:title="nlohmann/detail/conversions\l/to_json.hpp">
<polygon fill="#ffffff" stroke="#000000" points="2703.781,-257.5 2703.781,-287.5 2843.781,-287.5 2843.781,-257.5 2703.781,-257.5"/>
<text text-anchor="start" x="2711.781" y="-275.5" font-family="Helvetica,sans-Serif" font-size="10.00" fill="#000000">nlohmann/detail/conversions</text>
<text text-anchor="middle" x="2773.781" y="-264.5" font-family="Helvetica,sans-Serif" font-size="10.00" fill="#000000">/to_json.hpp</text>
</a>
</g>
</g>
<!-- Node7&#45;&gt;Node41 -->
<g id="edge68" class="edge">
<title>Node7&#45;&gt;Node41</title>
<path fill="none" stroke="#191970" d="M1917.0879,-392.1135C1920.0245,-391.7041 1922.9388,-391.3281 1925.781,-391 2194.6904,-359.9552 2268.222,-407.4833 2533.781,-355 2604.5471,-341.0143 2682.9594,-311.1744 2730.2943,-291.4792"/>
<polygon fill="#191970" stroke="#191970" points="2731.7578,-294.6608 2739.6224,-287.5615 2729.0472,-288.2069 2731.7578,-294.6608"/>
</g>
<!-- Node42 -->
<g id="node34" class="node">
<title>Node42</title>
<g id="a_node34"><a xlink:href="iteration__proxy_8hpp.html" target="_top" xlink:title="nlohmann/detail/iterators\l/iteration_proxy.hpp">
<polygon fill="#ffffff" stroke="#ff0000" points="2622.281,-190.5 2622.281,-220.5 2745.281,-220.5 2745.281,-190.5 2622.281,-190.5"/>
<text text-anchor="start" x="2630.281" y="-208.5" font-family="Helvetica,sans-Serif" font-size="10.00" fill="#000000">nlohmann/detail/iterators</text>
<text text-anchor="middle" x="2683.781" y="-197.5" font-family="Helvetica,sans-Serif" font-size="10.00" fill="#000000">/iteration_proxy.hpp</text>
</a>
</g>
</g>
<!-- Node7&#45;&gt;Node42 -->
<g id="edge120" class="edge">
<title>Node7&#45;&gt;Node42</title>
<path fill="none" stroke="#191970" d="M1916.783,-392.2382C1919.8236,-391.7916 1922.8415,-391.374 1925.781,-391 2118.6631,-366.4579 2173.8054,-404.709 2361.781,-355 2472.9752,-325.5954 2593.16,-259.6201 2650.1429,-226.0153"/>
<polygon fill="#191970" stroke="#191970" points="2652.2514,-228.8337 2659.0595,-220.7158 2648.675,-222.8163 2652.2514,-228.8337"/>
</g>
<!-- Node43 -->
<g id="node35" class="node">
<title>Node43</title>
<g id="a_node35"><a xlink:href="binary__reader_8hpp.html" target="_top" xlink:title="nlohmann/detail/input\l/binary_reader.hpp">
<polygon fill="#ffffff" stroke="#ff0000" points="1200.281,-190.5 1200.281,-220.5 1309.281,-220.5 1309.281,-190.5 1200.281,-190.5"/>
<text text-anchor="start" x="1208.281" y="-208.5" font-family="Helvetica,sans-Serif" font-size="10.00" fill="#000000">nlohmann/detail/input</text>
<text text-anchor="middle" x="1254.781" y="-197.5" font-family="Helvetica,sans-Serif" font-size="10.00" fill="#000000">/binary_reader.hpp</text>
</a>
</g>
</g>
<!-- Node7&#45;&gt;Node43 -->
<g id="edge70" class="edge">
<title>Node7&#45;&gt;Node43</title>
<path fill="none" stroke="#191970" d="M1818.5053,-397.5771C1722.9387,-390.6163 1515.7514,-373.863 1446.781,-355 1377.1347,-335.9521 1351.4656,-337.3738 1298.781,-288 1281.8704,-272.1521 1270.1365,-248.3205 1263.0649,-230.3397"/>
<polygon fill="#191970" stroke="#191970" points="1266.2817,-228.9475 1259.5244,-220.7872 1259.718,-231.3803 1266.2817,-228.9475"/>
</g>
<!-- Node48 -->
<g id="node37" class="node">
<title>Node48</title>
<g id="a_node37"><a xlink:href="input__adapters_8hpp.html" target="_top" xlink:title="nlohmann/detail/input\l/input_adapters.hpp">
<polygon fill="#ffffff" stroke="#ff0000" points="1086.281,-123.5 1086.281,-153.5 1195.281,-153.5 1195.281,-123.5 1086.281,-123.5"/>
<text text-anchor="start" x="1094.281" y="-141.5" font-family="Helvetica,sans-Serif" font-size="10.00" fill="#000000">nlohmann/detail/input</text>
<text text-anchor="middle" x="1140.781" y="-130.5" font-family="Helvetica,sans-Serif" font-size="10.00" fill="#000000">/input_adapters.hpp</text>
</a>
</g>
</g>
<!-- Node7&#45;&gt;Node48 -->
<g id="edge88" class="edge">
<title>Node7&#45;&gt;Node48</title>
<path fill="none" stroke="#191970" d="M1818.6756,-400.5238C1705.4701,-398.8132 1429.4014,-390.9663 1344.781,-355 1261.2825,-319.5106 1249.2153,-290.4042 1190.781,-221 1175.7224,-203.1145 1162.2187,-180.2024 1153.052,-163.0645"/>
<polygon fill="#191970" stroke="#191970" points="1155.9064,-160.969 1148.177,-153.7229 1149.7006,-164.2076 1155.9064,-160.969"/>
</g>
<!-- Node53 -->
<g id="node38" class="node">
<title>Node53</title>
<g id="a_node38"><a xlink:href="lexer_8hpp.html" target="_top" xlink:title="nlohmann/detail/input\l/lexer.hpp">
<polygon fill="#ffffff" stroke="#ff0000" points="375.281,-190.5 375.281,-220.5 484.281,-220.5 484.281,-190.5 375.281,-190.5"/>
<text text-anchor="start" x="383.281" y="-208.5" font-family="Helvetica,sans-Serif" font-size="10.00" fill="#000000">nlohmann/detail/input</text>
<text text-anchor="middle" x="429.781" y="-197.5" font-family="Helvetica,sans-Serif" font-size="10.00" fill="#000000">/lexer.hpp</text>
</a>
</g>
</g>
<!-- Node7&#45;&gt;Node53 -->
<g id="edge89" class="edge">
<title>Node7&#45;&gt;Node53</title>
<path fill="none" stroke="#191970" d="M1818.5119,-400.0998C1616.4661,-396.2544 857.1159,-380.2407 752.781,-355 640.1348,-327.7486 519.1702,-260.1806 462.5421,-225.9998"/>
<polygon fill="#191970" stroke="#191970" points="464.0571,-222.8246 453.6953,-220.6144 460.4172,-228.8039 464.0571,-222.8246"/>
</g>
<!-- Node56 -->
<g id="node39" class="node">
<title>Node56</title>
<g id="a_node39"><a xlink:href="parser_8hpp.html" target="_top" xlink:title="nlohmann/detail/input\l/parser.hpp">
<polygon fill="#ffffff" stroke="#ff0000" points="661.281,-257.5 661.281,-287.5 770.281,-287.5 770.281,-257.5 661.281,-257.5"/>
<text text-anchor="start" x="669.281" y="-275.5" font-family="Helvetica,sans-Serif" font-size="10.00" fill="#000000">nlohmann/detail/input</text>
<text text-anchor="middle" x="715.781" y="-264.5" font-family="Helvetica,sans-Serif" font-size="10.00" fill="#000000">/parser.hpp</text>
</a>
</g>
</g>
<!-- Node7&#45;&gt;Node56 -->
<g id="edge97" class="edge">
<title>Node7&#45;&gt;Node56</title>
<path fill="none" stroke="#191970" d="M1818.6212,-399.8926C1614.7211,-395.1707 843.964,-375.9998 796.781,-355 768.8262,-342.5581 745.4423,-315.6802 731.0982,-295.9706"/>
<polygon fill="#191970" stroke="#191970" points="733.9472,-293.9374 725.3385,-287.7616 728.217,-297.9579 733.9472,-293.9374"/>
</g>
<!-- Node58 -->
<g id="node40" class="node">
<title>Node58</title>
<g id="a_node40"><a xlink:href="internal__iterator_8hpp.html" target="_top" xlink:title="nlohmann/detail/iterators\l/internal_iterator.hpp">
<polygon fill="#ffffff" stroke="#000000" points="3603.281,-123.5 3603.281,-153.5 3726.281,-153.5 3726.281,-123.5 3603.281,-123.5"/>
<text text-anchor="start" x="3611.281" y="-141.5" font-family="Helvetica,sans-Serif" font-size="10.00" fill="#000000">nlohmann/detail/iterators</text>
<text text-anchor="middle" x="3664.781" y="-130.5" font-family="Helvetica,sans-Serif" font-size="10.00" fill="#000000">/internal_iterator.hpp</text>
</a>
</g>
</g>
<!-- Node7&#45;&gt;Node58 -->
<g id="edge107" class="edge">
<title>Node7&#45;&gt;Node58</title>
<path fill="none" stroke="#191970" d="M1917.0744,-391.9866C1920.0145,-391.6091 1922.9332,-391.2748 1925.781,-391 2017.7643,-382.1248 3513.9705,-409.2504 3588.781,-355 3650.7304,-310.0761 3662.5018,-210.6654 3664.5186,-163.8364"/>
<polygon fill="#191970" stroke="#191970" points="3668.023,-163.7469 3664.8364,-153.6427 3661.0264,-163.5288 3668.023,-163.7469"/>
</g>
<!-- Node59 -->
<g id="node41" class="node">
<title>Node59</title>
<g id="a_node41"><a xlink:href="primitive__iterator_8hpp.html" target="_top" xlink:title="nlohmann/detail/iterators\l/primitive_iterator.hpp">
<polygon fill="#ffffff" stroke="#ff0000" points="3603.281,-56.5 3603.281,-86.5 3726.281,-86.5 3726.281,-56.5 3603.281,-56.5"/>
<text text-anchor="start" x="3611.281" y="-74.5" font-family="Helvetica,sans-Serif" font-size="10.00" fill="#000000">nlohmann/detail/iterators</text>
<text text-anchor="middle" x="3664.781" y="-63.5" font-family="Helvetica,sans-Serif" font-size="10.00" fill="#000000">/primitive_iterator.hpp</text>
</a>
</g>
</g>
<!-- Node7&#45;&gt;Node59 -->
<g id="edge124" class="edge">
<title>Node7&#45;&gt;Node59</title>
<path fill="none" stroke="#191970" d="M1917.0743,-391.9854C1920.0144,-391.6082 1922.9331,-391.2743 1925.781,-391 2112.8469,-372.9843 3436.1712,-406.9454 3616.781,-355 3685.4549,-335.2486 3754.781,-343.9578 3754.781,-272.5 3754.781,-272.5 3754.781,-272.5 3754.781,-205.5 3754.781,-167.8735 3756.5523,-154.3737 3735.781,-123 3727.5961,-110.6372 3715.3665,-100.2286 3703.3529,-92.0761"/>
<polygon fill="#191970" stroke="#191970" points="3705.0141,-88.9839 3694.7043,-86.5428 3701.2416,-94.8804 3705.0141,-88.9839"/>
</g>
<!-- Node60 -->
<g id="node42" class="node">
<title>Node60</title>
<g id="a_node42"><a xlink:href="iter__impl_8hpp.html" target="_top" xlink:title="nlohmann/detail/iterators\l/iter_impl.hpp">
<polygon fill="#ffffff" stroke="#000000" points="3233.281,-190.5 3233.281,-220.5 3356.281,-220.5 3356.281,-190.5 3233.281,-190.5"/>
<text text-anchor="start" x="3241.281" y="-208.5" font-family="Helvetica,sans-Serif" font-size="10.00" fill="#000000">nlohmann/detail/iterators</text>
<text text-anchor="middle" x="3294.781" y="-197.5" font-family="Helvetica,sans-Serif" font-size="10.00" fill="#000000">/iter_impl.hpp</text>
</a>
</g>
</g>
<!-- Node7&#45;&gt;Node60 -->
<g id="edge109" class="edge">
<title>Node7&#45;&gt;Node60</title>
<path fill="none" stroke="#191970" d="M1917.0765,-392.0076C1920.016,-391.6248 1922.934,-391.2836 1925.781,-391 1997.2883,-383.877 3158.0555,-393.4245 3218.781,-355 3262.7073,-327.2053 3282.3288,-265.4687 3290.1818,-230.6495"/>
<polygon fill="#191970" stroke="#191970" points="3293.6254,-231.2809 3292.2549,-220.775 3286.7748,-229.8425 3293.6254,-231.2809"/>
</g>
<!-- Node61 -->
<g id="node43" class="node">
<title>Node61</title>
<g id="a_node43"><a xlink:href="json__reverse__iterator_8hpp.html" target="_top" xlink:title="nlohmann/detail/iterators\l/json_reverse_iterator.hpp">
<polygon fill="#ffffff" stroke="#ff0000" points="2178.281,-123.5 2178.281,-153.5 2307.281,-153.5 2307.281,-123.5 2178.281,-123.5"/>
<text text-anchor="start" x="2186.281" y="-141.5" font-family="Helvetica,sans-Serif" font-size="10.00" fill="#000000">nlohmann/detail/iterators</text>
<text text-anchor="middle" x="2242.781" y="-130.5" font-family="Helvetica,sans-Serif" font-size="10.00" fill="#000000">/json_reverse_iterator.hpp</text>
</a>
</g>
</g>
<!-- Node7&#45;&gt;Node61 -->
<g id="edge121" class="edge">
<title>Node7&#45;&gt;Node61</title>
<path fill="none" stroke="#191970" d="M1881.5722,-391.3462C1935.9015,-353.3156 2135.9055,-213.3128 2212.585,-159.6372"/>
<polygon fill="#191970" stroke="#191970" points="2214.7005,-162.4287 2220.8857,-153.8267 2210.6862,-156.694 2214.7005,-162.4287"/>
</g>
<!-- Node62 -->
<g id="node44" class="node">
<title>Node62</title>
<g id="a_node44"><a xlink:href="json__pointer_8hpp.html" target="_top" xlink:title="nlohmann/detail/json\l_pointer.hpp">
<polygon fill="#ffffff" stroke="#ff0000" points="847.781,-190.5 847.781,-220.5 953.781,-220.5 953.781,-190.5 847.781,-190.5"/>
<text text-anchor="start" x="855.781" y="-208.5" font-family="Helvetica,sans-Serif" font-size="10.00" fill="#000000">nlohmann/detail/json</text>
<text text-anchor="middle" x="900.781" y="-197.5" font-family="Helvetica,sans-Serif" font-size="10.00" fill="#000000">_pointer.hpp</text>
</a>
</g>
</g>
<!-- Node7&#45;&gt;Node62 -->
<g id="edge125" class="edge">
<title>Node7&#45;&gt;Node62</title>
<path fill="none" stroke="#191970" d="M1818.4963,-399.5592C1640.7851,-394.2103 1041.4833,-374.779 1005.781,-355 956.0361,-327.4414 924.4653,-265.1491 910.013,-230.2966"/>
<polygon fill="#191970" stroke="#191970" points="913.1939,-228.8243 906.2326,-220.8374 906.6938,-231.4222 913.1939,-228.8243"/>
</g>
<!-- Node64 -->
<g id="node45" class="node">
<title>Node64</title>
<g id="a_node45"><a xlink:href="json__ref_8hpp.html" target="_top" xlink:title="nlohmann/detail/json\l_ref.hpp">
<polygon fill="#ffffff" stroke="#ff0000" points="2994.781,-190.5 2994.781,-220.5 3100.781,-220.5 3100.781,-190.5 2994.781,-190.5"/>
<text text-anchor="start" x="3002.781" y="-208.5" font-family="Helvetica,sans-Serif" font-size="10.00" fill="#000000">nlohmann/detail/json</text>
<text text-anchor="middle" x="3047.781" y="-197.5" font-family="Helvetica,sans-Serif" font-size="10.00" fill="#000000">_ref.hpp</text>
</a>
</g>
</g>
<!-- Node7&#45;&gt;Node64 -->
<g id="edge134" class="edge">
<title>Node7&#45;&gt;Node64</title>
<path fill="none" stroke="#191970" d="M1917.0856,-392.0937C1920.0228,-391.6893 1922.9379,-391.3198 1925.781,-391 2224.3247,-357.4199 2304.0296,-401.8464 2600.781,-355 2715.2543,-336.9288 2743.1451,-325.5592 2852.781,-288 2906.9598,-269.4393 2967.4166,-242.9144 3006.4438,-224.9933"/>
<polygon fill="#191970" stroke="#191970" points="3008.2759,-228.0025 3015.8874,-220.6326 3005.3412,-221.6473 3008.2759,-228.0025"/>
</g>
<!-- Node65 -->
<g id="node46" class="node">
<title>Node65</title>
<g id="a_node46"><a xlink:href="binary__writer_8hpp.html" target="_top" xlink:title="nlohmann/detail/output\l/binary_writer.hpp">
<polygon fill="#ffffff" stroke="#ff0000" points="1308.281,-257.5 1308.281,-287.5 1423.281,-287.5 1423.281,-257.5 1308.281,-257.5"/>
<text text-anchor="start" x="1316.281" y="-275.5" font-family="Helvetica,sans-Serif" font-size="10.00" fill="#000000">nlohmann/detail/output</text>
<text text-anchor="middle" x="1365.781" y="-264.5" font-family="Helvetica,sans-Serif" font-size="10.00" fill="#000000">/binary_writer.hpp</text>
</a>
</g>
</g>
<!-- Node7&#45;&gt;Node65 -->
<g id="edge140" class="edge">
<title>Node7&#45;&gt;Node65</title>
<path fill="none" stroke="#191970" d="M1818.5239,-396.6509C1736.387,-389.0348 1575.1017,-372.4278 1520.781,-355 1474.9442,-340.2941 1426.6788,-312.3397 1396.4216,-293.0769"/>
<polygon fill="#191970" stroke="#191970" points="1398.3077,-290.1285 1388.0074,-287.6476 1394.5124,-296.0104 1398.3077,-290.1285"/>
</g>
<!-- Node66 -->
<g id="node47" class="node">
<title>Node66</title>
<g id="a_node47"><a xlink:href="output__adapters_8hpp.html" target="_top" xlink:title="nlohmann/detail/output\l/output_adapters.hpp">
<polygon fill="#ffffff" stroke="#ff0000" points="1518.281,-190.5 1518.281,-220.5 1633.281,-220.5 1633.281,-190.5 1518.281,-190.5"/>
<text text-anchor="start" x="1526.281" y="-208.5" font-family="Helvetica,sans-Serif" font-size="10.00" fill="#000000">nlohmann/detail/output</text>
<text text-anchor="middle" x="1575.781" y="-197.5" font-family="Helvetica,sans-Serif" font-size="10.00" fill="#000000">/output_adapters.hpp</text>
</a>
</g>
</g>
<!-- Node7&#45;&gt;Node66 -->
<g id="edge152" class="edge">
<title>Node7&#45;&gt;Node66</title>
<path fill="none" stroke="#191970" d="M1853.3007,-391.3051C1808.2209,-361.1233 1669.6662,-268.3581 1607.0622,-226.4434"/>
<polygon fill="#191970" stroke="#191970" points="1608.6536,-223.2969 1598.3968,-220.6418 1604.7592,-229.1136 1608.6536,-223.2969"/>
</g>
<!-- Node69 -->
<g id="node48" class="node">
<title>Node69</title>
<g id="a_node48"><a xlink:href="serializer_8hpp.html" target="_top" xlink:title="nlohmann/detail/output\l/serializer.hpp">
<polygon fill="#ffffff" stroke="#ff0000" points="1530.281,-324.5 1530.281,-354.5 1645.281,-354.5 1645.281,-324.5 1530.281,-324.5"/>
<text text-anchor="start" x="1538.281" y="-342.5" font-family="Helvetica,sans-Serif" font-size="10.00" fill="#000000">nlohmann/detail/output</text>
<text text-anchor="middle" x="1587.781" y="-331.5" font-family="Helvetica,sans-Serif" font-size="10.00" fill="#000000">/serializer.hpp</text>
</a>
</g>
</g>
<!-- Node7&#45;&gt;Node69 -->
<g id="edge153" class="edge">
<title>Node7&#45;&gt;Node69</title>
<path fill="none" stroke="#191970" d="M1824.3382,-391.4581C1779.1702,-381.5373 1707.8582,-365.8741 1655.33,-354.3367"/>
<polygon fill="#191970" stroke="#191970" points="1655.938,-350.8868 1645.4199,-352.16 1654.4362,-357.7239 1655.938,-350.8868"/>
</g>
<!-- Node71 -->
<g id="node49" class="node">
<title>Node71</title>
<g id="a_node49"><a xlink:href="macro__unscope_8hpp.html" target="_top" xlink:title="nlohmann/detail/macro\l_unscope.hpp">
<polygon fill="#ffffff" stroke="#ff0000" points="2237.281,-324.5 2237.281,-354.5 2352.281,-354.5 2352.281,-324.5 2237.281,-324.5"/>
<text text-anchor="start" x="2245.281" y="-342.5" font-family="Helvetica,sans-Serif" font-size="10.00" fill="#000000">nlohmann/detail/macro</text>
<text text-anchor="middle" x="2294.781" y="-331.5" font-family="Helvetica,sans-Serif" font-size="10.00" fill="#000000">_unscope.hpp</text>
</a>
</g>
</g>
<!-- Node7&#45;&gt;Node71 -->
<g id="edge169" class="edge">
<title>Node7&#45;&gt;Node71</title>
<path fill="none" stroke="#191970" d="M1916.8011,-392.3706C1919.8373,-391.8912 1922.8492,-391.4302 1925.781,-391 2057.3387,-371.698 2091.65,-377.0148 2222.781,-355 2224.239,-354.7552 2225.7122,-354.5009 2227.1962,-354.2385"/>
<polygon fill="#191970" stroke="#191970" points="2227.907,-357.6665 2237.1017,-352.4025 2226.6313,-350.7837 2227.907,-357.6665"/>
</g>
<!-- Node9 -->
<g id="node10" class="node">
<title>Node9</title>
<polygon fill="#ffffff" stroke="#bfbfbf" points="1695.781,-.5 1695.781,-19.5 1735.781,-19.5 1735.781,-.5 1695.781,-.5"/>
<text text-anchor="middle" x="1715.781" y="-7.5" font-family="Helvetica,sans-Serif" font-size="10.00" fill="#000000">utility</text>
</g>
<!-- Node8&#45;&gt;Node9 -->
<g id="edge9" class="edge">
<title>Node8&#45;&gt;Node9</title>
<path fill="none" stroke="#191970" d="M2111.781,-329.7483C2111.781,-307.643 2111.781,-252.0278 2111.781,-205.5 2111.781,-205.5 2111.781,-205.5 2111.781,-138.5 2111.781,-61.6736 1838.712,-23.8313 1746.0883,-13.2052"/>
<polygon fill="#191970" stroke="#191970" points="1746.2908,-9.7061 1735.9631,-12.0703 1745.511,-16.6625 1746.2908,-9.7061"/>
</g>
<!-- Node8&#45;&gt;Node10 -->
<g id="edge10" class="edge">
<title>Node8&#45;&gt;Node10</title>
<path fill="none" stroke="#191970" d="M2118.8503,-329.7765C2131.9001,-312.5285 2161.499,-276.5568 2194.781,-257 2224.8478,-239.3324 2261.3485,-227.4109 2293.5265,-219.5296"/>
<polygon fill="#191970" stroke="#191970" points="2294.4318,-222.9122 2303.3622,-217.2115 2292.8259,-216.0989 2294.4318,-222.9122"/>
</g>
<!-- Node8&#45;&gt;Node41 -->
<g id="edge48" class="edge">
<title>Node8&#45;&gt;Node41</title>
<path fill="none" stroke="#191970" d="M2180.4004,-329.9718C2196.2732,-327.8894 2213.1043,-325.7785 2228.781,-324 2393.6787,-305.2929 2587.1892,-288.1452 2693.559,-279.1332"/>
<polygon fill="#191970" stroke="#191970" points="2693.9072,-282.6163 2703.5769,-278.2866 2693.3177,-275.6412 2693.9072,-282.6163"/>
</g>
<!-- Node10&#45;&gt;Node9 -->
<g id="edge21" class="edge">
<title>Node10&#45;&gt;Node9</title>
<path fill="none" stroke="#191970" d="M2371.3987,-190.4493C2365.4536,-158.655 2346.6807,-85.1824 2296.781,-56 2249.0221,-28.0696 1858.7776,-14.2876 1746.1221,-10.8656"/>
<polygon fill="#191970" stroke="#191970" points="1745.9143,-7.3579 1735.8143,-10.5581 1745.7054,-14.3548 1745.9143,-7.3579"/>
</g>
<!-- Node11 -->
<g id="node12" class="node">
<title>Node11</title>
<polygon fill="#ffffff" stroke="#bfbfbf" points="1441.781,-129 1441.781,-148 1497.781,-148 1497.781,-129 1441.781,-129"/>
<text text-anchor="middle" x="1469.781" y="-136" font-family="Helvetica,sans-Serif" font-size="10.00" fill="#000000">algorithm</text>
</g>
<!-- Node10&#45;&gt;Node11 -->
<g id="edge11" class="edge">
<title>Node10&#45;&gt;Node11</title>
<path fill="none" stroke="#191970" d="M2303.5979,-200.2984C2123.0742,-186.9189 1647.0842,-151.6408 1508.2843,-141.3537"/>
<polygon fill="#191970" stroke="#191970" points="1508.3653,-137.8502 1498.134,-140.6014 1507.8479,-144.831 1508.3653,-137.8502"/>
</g>
<!-- Node12 -->
<g id="node13" class="node">
<title>Node12</title>
<polygon fill="#ffffff" stroke="#bfbfbf" points="888.781,-62 888.781,-81 926.781,-81 926.781,-62 888.781,-62"/>
<text text-anchor="middle" x="907.781" y="-69" font-family="Helvetica,sans-Serif" font-size="10.00" fill="#000000">array</text>
</g>
<!-- Node10&#45;&gt;Node12 -->
<g id="edge12" class="edge">
<title>Node10&#45;&gt;Node12</title>
<path fill="none" stroke="#191970" d="M2303.6136,-202.3754C2222.8239,-197.4281 2086.7267,-184.9313 1973.781,-154 1940.1783,-144.7976 1935.7609,-130.6939 1901.781,-123 1700.4989,-77.4247 1178.2883,-114.7193 973.781,-87 961.5471,-85.3418 948.2585,-82.4403 936.8332,-79.5927"/>
<polygon fill="#191970" stroke="#191970" points="937.5065,-76.1517 926.9481,-77.03 935.7497,-82.9276 937.5065,-76.1517"/>
</g>
<!-- Node13 -->
<g id="node14" class="node">
<title>Node13</title>
<polygon fill="#ffffff" stroke="#bfbfbf" points="3328.781,-.5 3328.781,-19.5 3378.781,-19.5 3378.781,-.5 3328.781,-.5"/>
<text text-anchor="middle" x="3353.781" y="-7.5" font-family="Helvetica,sans-Serif" font-size="10.00" fill="#000000">ciso646</text>
</g>
<!-- Node10&#45;&gt;Node13 -->
<g id="edge13" class="edge">
<title>Node10&#45;&gt;Node13</title>
<path fill="none" stroke="#191970" d="M2443.8556,-196.5082C2513.4577,-186.8599 2614.8345,-170.6627 2650.781,-154 2670.5557,-144.8336 2668.9358,-132.0128 2688.781,-123 2703.4285,-116.3477 3183.1399,-37.8186 3318.5244,-15.7412"/>
<polygon fill="#191970" stroke="#191970" points="3319.4433,-19.1377 3328.7498,-14.0743 3318.317,-12.2289 3319.4433,-19.1377"/>
</g>
<!-- Node14 -->
<g id="node15" class="node">
<title>Node14</title>
<polygon fill="#ffffff" stroke="#bfbfbf" points="2402.281,-129 2402.281,-148 2469.281,-148 2469.281,-129 2402.281,-129"/>
<text text-anchor="middle" x="2435.781" y="-136" font-family="Helvetica,sans-Serif" font-size="10.00" fill="#000000">forward_list</text>
</g>
<!-- Node10&#45;&gt;Node14 -->
<g id="edge14" class="edge">
<title>Node10&#45;&gt;Node14</title>
<path fill="none" stroke="#191970" d="M2387.8498,-190.2967C2397.4159,-179.9591 2410.0848,-166.2684 2419.9953,-155.5588"/>
<polygon fill="#191970" stroke="#191970" points="2422.716,-157.7718 2426.9391,-148.055 2417.5783,-153.0175 2422.716,-157.7718"/>
</g>
<!-- Node15 -->
<g id="node16" class="node">
<title>Node15</title>
<polygon fill="#ffffff" stroke="#bfbfbf" points="2240.281,-62 2240.281,-81 2287.281,-81 2287.281,-62 2240.281,-62"/>
<text text-anchor="middle" x="2263.781" y="-69" font-family="Helvetica,sans-Serif" font-size="10.00" fill="#000000">iterator</text>
</g>
<!-- Node10&#45;&gt;Node15 -->
<g id="edge15" class="edge">
<title>Node10&#45;&gt;Node15</title>
<path fill="none" stroke="#191970" d="M2364.5204,-190.26C2353.8718,-173.2016 2335.4462,-145.0626 2316.781,-123 2306.2156,-110.5116 2293.0276,-97.6882 2282.4502,-87.9612"/>
<polygon fill="#191970" stroke="#191970" points="2284.7212,-85.296 2274.9571,-81.1834 2280.0254,-90.4873 2284.7212,-85.296"/>
</g>
<!-- Node16 -->
<g id="node17" class="node">
<title>Node16</title>
<polygon fill="#ffffff" stroke="#bfbfbf" points="1328.281,-.5 1328.281,-19.5 1363.281,-19.5 1363.281,-.5 1328.281,-.5"/>
<text text-anchor="middle" x="1345.781" y="-7.5" font-family="Helvetica,sans-Serif" font-size="10.00" fill="#000000">map</text>
</g>
<!-- Node10&#45;&gt;Node16 -->
<g id="edge16" class="edge">
<title>Node10&#45;&gt;Node16</title>
<path fill="none" stroke="#191970" d="M2443.9722,-200.9856C2518.3652,-193.4889 2619.9901,-173.8401 2579.781,-123 2499.6004,-21.6203 2424.7638,-74.0879 2296.781,-56 2203.3712,-42.7983 1520.3107,-16.562 1373.5179,-11.0364"/>
<polygon fill="#191970" stroke="#191970" points="1373.647,-7.5388 1363.5226,-10.661 1373.3842,-14.5339 1373.647,-7.5388"/>
</g>
<!-- Node17 -->
<g id="node18" class="node">
<title>Node17</title>
<polygon fill="#ffffff" stroke="#bfbfbf" points="825.281,-.5 825.281,-19.5 866.281,-19.5 866.281,-.5 825.281,-.5"/>
<text text-anchor="middle" x="845.781" y="-7.5" font-family="Helvetica,sans-Serif" font-size="10.00" fill="#000000">string</text>
</g>
<!-- Node10&#45;&gt;Node17 -->
<g id="edge17" class="edge">
<title>Node10&#45;&gt;Node17</title>
<path fill="none" stroke="#191970" d="M2303.7306,-198.1503C2224.9217,-189.1592 2102.359,-172.7944 2059.781,-154 1995.5184,-125.6338 2001.6336,-80.449 1935.781,-56 1884.826,-37.082 1048.6628,-15.1006 876.593,-10.7644"/>
<polygon fill="#191970" stroke="#191970" points="876.5375,-7.262 866.4528,-10.51 876.3618,-14.2598 876.5375,-7.262"/>
</g>
<!-- Node18 -->
<g id="node19" class="node">
<title>Node18</title>
<polygon fill="#ffffff" stroke="#bfbfbf" points="2810.781,-129 2810.781,-148 2848.781,-148 2848.781,-129 2810.781,-129"/>
<text text-anchor="middle" x="2829.781" y="-136" font-family="Helvetica,sans-Serif" font-size="10.00" fill="#000000">tuple</text>
</g>
<!-- Node10&#45;&gt;Node18 -->
<g id="edge18" class="edge">
<title>Node10&#45;&gt;Node18</title>
<path fill="none" stroke="#191970" d="M2444.1487,-200.3296C2547.9913,-192.141 2736.9772,-174.9491 2801.781,-154 2803.03,-153.5962 2804.287,-153.135 2805.5397,-152.6303"/>
<polygon fill="#191970" stroke="#191970" points="2807.3677,-155.6349 2814.8607,-148.1445 2804.3321,-149.3273 2807.3677,-155.6349"/>
</g>
<!-- Node19 -->
<g id="node20" class="node">
<title>Node19</title>
<polygon fill="#ffffff" stroke="#bfbfbf" points="3125.781,-.5 3125.781,-19.5 3187.781,-19.5 3187.781,-.5 3125.781,-.5"/>
<text text-anchor="middle" x="3156.781" y="-7.5" font-family="Helvetica,sans-Serif" font-size="10.00" fill="#000000">type_traits</text>
</g>
<!-- Node10&#45;&gt;Node19 -->
<g id="edge19" class="edge">
<title>Node10&#45;&gt;Node19</title>
<path fill="none" stroke="#191970" d="M2444.0232,-197.1741C2492.7358,-189.7799 2558.3741,-176.545 2612.781,-154 2636.2421,-144.2782 2637.3962,-132.9041 2660.781,-123 2782.1917,-71.5789 2821.2018,-85.1904 2949.781,-56 3007.324,-42.9364 3073.9574,-28.1987 3115.7403,-19.0043"/>
<polygon fill="#191970" stroke="#191970" points="3116.5349,-22.4133 3125.5498,-16.8471 3115.0314,-15.5766 3116.5349,-22.4133"/>
</g>
<!-- Node20 -->
<g id="node21" class="node">
<title>Node20</title>
<polygon fill="#ffffff" stroke="#bfbfbf" points="2487.281,-129 2487.281,-148 2570.281,-148 2570.281,-129 2487.281,-129"/>
<text text-anchor="middle" x="2528.781" y="-136" font-family="Helvetica,sans-Serif" font-size="10.00" fill="#000000">unordered_map</text>
</g>
<!-- Node10&#45;&gt;Node20 -->
<g id="edge20" class="edge">
<title>Node10&#45;&gt;Node20</title>
<path fill="none" stroke="#191970" d="M2408.566,-190.4639C2435.1588,-178.969 2471.5094,-163.2561 2497.2567,-152.1266"/>
<polygon fill="#191970" stroke="#191970" points="2498.7725,-155.2844 2506.563,-148.1039 2495.9951,-148.859 2498.7725,-155.2844"/>
</g>
<!-- Node21 -->
<g id="node22" class="node">
<title>Node21</title>
<polygon fill="#ffffff" stroke="#bfbfbf" points="2741.281,-129 2741.281,-148 2792.281,-148 2792.281,-129 2741.281,-129"/>
<text text-anchor="middle" x="2766.781" y="-136" font-family="Helvetica,sans-Serif" font-size="10.00" fill="#000000">valarray</text>
</g>
<!-- Node10&#45;&gt;Node21 -->
<g id="edge22" class="edge">
<title>Node10&#45;&gt;Node21</title>
<path fill="none" stroke="#191970" d="M2444.0339,-199.9377C2515.9478,-193.1571 2630.4997,-179.3324 2726.781,-154 2729.5494,-153.2716 2732.3883,-152.4125 2735.214,-151.4784"/>
<polygon fill="#191970" stroke="#191970" points="2736.418,-154.7649 2744.6492,-148.0943 2734.0547,-148.1759 2736.418,-154.7649"/>
</g>
<!-- Node10&#45;&gt;Node22 -->
<g id="edge23" class="edge">
<title>Node10&#45;&gt;Node22</title>
<path fill="none" stroke="#191970" d="M2303.4668,-203.1141C2108.5759,-196.4132 1544.9737,-176.4405 1076.781,-154 1013.6198,-150.9727 942.3629,-146.9557 888.0749,-143.7697"/>
<polygon fill="#191970" stroke="#191970" points="887.9851,-140.2584 877.7967,-143.1645 887.5736,-147.2463 887.9851,-140.2584"/>
</g>
<!-- Node10&#45;&gt;Node27 -->
<g id="edge30" class="edge">
<title>Node10&#45;&gt;Node27</title>
<path fill="none" stroke="#191970" d="M2303.6769,-198.811C2216.2048,-189.8483 2072.0091,-172.8692 2021.781,-154 1998.0076,-145.069 1997.7288,-131.4522 1973.781,-123 1898.0407,-96.2682 1669.1255,-80.9757 1553.7706,-74.7737"/>
<polygon fill="#191970" stroke="#191970" points="1553.8149,-71.2712 1543.6437,-74.2369 1553.4444,-78.2614 1553.8149,-71.2712"/>
</g>
<!-- Node10&#45;&gt;Node30 -->
<g id="edge31" class="edge">
<title>Node10&#45;&gt;Node30</title>
<path fill="none" stroke="#191970" d="M2443.878,-197.7525C2522.7701,-188.3832 2645.5638,-171.6593 2688.781,-154 2710.9253,-144.9514 2710.2953,-131.1635 2732.781,-123 2784.0162,-104.3989 3139.4612,-83.1671 3288.3785,-74.9752"/>
<polygon fill="#191970" stroke="#191970" points="3288.9429,-78.4496 3298.7366,-74.4081 3288.5602,-71.4601 3288.9429,-78.4496"/>
</g>
<!-- Node10&#45;&gt;Node31 -->
<g id="edge34" class="edge">
<title>Node10&#45;&gt;Node31</title>
<path fill="none" stroke="#191970" d="M2443.7814,-198.8C2579.4429,-185.8152 2876.3866,-157.3935 3008.3413,-144.7635"/>
<polygon fill="#191970" stroke="#191970" points="3008.6917,-148.2461 3018.3127,-143.8091 3008.0247,-141.2779 3008.6917,-148.2461"/>
</g>
<!-- Node10&#45;&gt;Node40 -->
<g id="edge44" class="edge">
<title>Node10&#45;&gt;Node40</title>
<path fill="none" stroke="#191970" d="M2303.6602,-197.5592C2218.8356,-187.8385 2071.7335,-170.6138 1945.781,-154 1932.105,-152.1961 1917.4701,-150.1642 1903.5286,-148.1799"/>
<polygon fill="#191970" stroke="#191970" points="1903.9184,-144.7001 1893.5232,-146.7475 1902.9263,-151.6295 1903.9184,-144.7001"/>
</g>
<!-- Node22&#45;&gt;Node17 -->
<g id="edge26" class="edge">
<title>Node22&#45;&gt;Node17</title>
<path fill="none" stroke="#191970" d="M775.2989,-128.8529C757.6087,-120.6533 735.3849,-106.9948 724.781,-87 718.3258,-74.828 716.9589,-67.342 724.781,-56 735.3731,-40.6416 783.1221,-25.8559 815.3758,-17.3603"/>
<polygon fill="#191970" stroke="#191970" points="816.4202,-20.7057 825.2366,-14.8302 814.6804,-13.9254 816.4202,-20.7057"/>
</g>
<!-- Node23 -->
<g id="node24" class="node">
<title>Node23</title>
<polygon fill="#ffffff" stroke="#bfbfbf" points="734.281,-62 734.281,-81 793.281,-81 793.281,-62 734.281,-62"/>
<text text-anchor="middle" x="763.781" y="-69" font-family="Helvetica,sans-Serif" font-size="10.00" fill="#000000">exception</text>
</g>
<!-- Node22&#45;&gt;Node23 -->
<g id="edge24" class="edge">
<title>Node22&#45;&gt;Node23</title>
<path fill="none" stroke="#191970" d="M795.4798,-128.9005C789.8748,-118.751 780.8971,-102.4941 773.9245,-89.8679"/>
<polygon fill="#191970" stroke="#191970" points="776.9705,-88.1435 769.0724,-81.0817 770.8428,-91.5275 776.9705,-88.1435"/>
</g>
<!-- Node24 -->
<g id="node25" class="node">
<title>Node24</title>
<polygon fill="#ffffff" stroke="#bfbfbf" points="811.281,-62 811.281,-81 870.281,-81 870.281,-62 811.281,-62"/>
<text text-anchor="middle" x="840.781" y="-69" font-family="Helvetica,sans-Serif" font-size="10.00" fill="#000000">stdexcept</text>
</g>
<!-- Node22&#45;&gt;Node24 -->
<g id="edge25" class="edge">
<title>Node22&#45;&gt;Node24</title>
<path fill="none" stroke="#191970" d="M806.512,-128.9005C812.5715,-118.751 822.2771,-102.4941 829.8151,-89.8679"/>
<polygon fill="#191970" stroke="#191970" points="832.9396,-91.462 835.0606,-81.0817 826.9293,-87.8737 832.9396,-91.462"/>
</g>
<!-- Node25 -->
<g id="node26" class="node">
<title>Node25</title>
<g id="a_node26"><a xlink:href="position__t_8hpp.html" target="_top" xlink:title="nlohmann/detail/input\l/position_t.hpp">
<polygon fill="#ffffff" stroke="#ff0000" points="530.281,-56.5 530.281,-86.5 639.281,-86.5 639.281,-56.5 530.281,-56.5"/>
<text text-anchor="start" x="538.281" y="-74.5" font-family="Helvetica,sans-Serif" font-size="10.00" fill="#000000">nlohmann/detail/input</text>
<text text-anchor="middle" x="584.781" y="-63.5" font-family="Helvetica,sans-Serif" font-size="10.00" fill="#000000">/position_t.hpp</text>
</a>
</g>
</g>
<!-- Node22&#45;&gt;Node25 -->
<g id="edge27" class="edge">
<title>Node22&#45;&gt;Node25</title>
<path fill="none" stroke="#191970" d="M769.8335,-128.9005C736.7872,-118.6501 683.6579,-102.1702 642.7863,-89.4924"/>
<polygon fill="#191970" stroke="#191970" points="643.7974,-86.1416 633.2094,-86.5218 641.7235,-92.8273 643.7974,-86.1416"/>
</g>
<!-- Node22&#45;&gt;Node27 -->
<g id="edge28" class="edge">
<title>Node22&#45;&gt;Node27</title>
<path fill="none" stroke="#191970" d="M878.0276,-130.9445C1013.102,-117.7328 1289.9985,-90.6495 1418.0598,-78.1238"/>
<polygon fill="#191970" stroke="#191970" points="1418.519,-81.5957 1428.1308,-77.1388 1417.8375,-74.6289 1418.519,-81.5957"/>
</g>
<!-- Node27&#45;&gt;Node9 -->
<g id="edge29" class="edge">
<title>Node27&#45;&gt;Node9</title>
<path fill="none" stroke="#191970" d="M1542.0453,-56.4554C1587.3151,-44.3507 1649.184,-27.8075 1685.5706,-18.078"/>
<polygon fill="#191970" stroke="#191970" points="1686.8041,-21.3712 1695.5606,-15.4068 1684.9959,-14.6088 1686.8041,-21.3712"/>
</g>
<!-- Node30&#45;&gt;Node13 -->
<g id="edge32" class="edge">
<title>Node30&#45;&gt;Node13</title>
<path fill="none" stroke="#191970" d="M3353.781,-56.2977C3353.781,-48.3834 3353.781,-38.6043 3353.781,-30.0759"/>
<polygon fill="#191970" stroke="#191970" points="3357.2811,-29.8469 3353.781,-19.8469 3350.2811,-29.847 3357.2811,-29.8469"/>
</g>
<!-- Node30&#45;&gt;Node19 -->
<g id="edge33" class="edge">
<title>Node30&#45;&gt;Node19</title>
<path fill="none" stroke="#191970" d="M3305.5894,-56.4554C3272.2869,-46.059 3228.4967,-32.3884 3197.0546,-22.5727"/>
<polygon fill="#191970" stroke="#191970" points="3197.8977,-19.1694 3187.309,-19.5303 3195.8116,-25.8514 3197.8977,-19.1694"/>
</g>
<!-- Node31&#45;&gt;Node9 -->
<g id="edge37" class="edge">
<title>Node31&#45;&gt;Node9</title>
<path fill="none" stroke="#191970" d="M3050.4634,-123.4744C3018.4378,-103.7599 2958.357,-70.0252 2901.781,-56 2786.7459,-27.4828 1920.5976,-13.0701 1746.2879,-10.4426"/>
<polygon fill="#191970" stroke="#191970" points="1746.0929,-6.9394 1736.0418,-10.2898 1745.9885,-13.9386 1746.0929,-6.9394"/>
</g>
<!-- Node31&#45;&gt;Node13 -->
<g id="edge35" class="edge">
<title>Node31&#45;&gt;Node13</title>
<path fill="none" stroke="#191970" d="M3106.7239,-123.3816C3161.5688,-98.2117 3270.7853,-48.0891 3323.6823,-23.8131"/>
<polygon fill="#191970" stroke="#191970" points="3325.2494,-26.945 3332.8781,-19.5929 3322.3296,-20.583 3325.2494,-26.945"/>
</g>
<!-- Node31&#45;&gt;Node19 -->
<g id="edge36" class="edge">
<title>Node31&#45;&gt;Node19</title>
<path fill="none" stroke="#191970" d="M3083.6281,-123.2548C3098.9349,-99.5568 3128.3862,-53.9605 3144.8675,-28.4444"/>
<polygon fill="#191970" stroke="#191970" points="3148.0068,-30.0349 3150.4925,-19.7358 3142.1267,-26.2369 3148.0068,-30.0349"/>
</g>
<!-- Node31&#45;&gt;Node27 -->
<g id="edge38" class="edge">
<title>Node31&#45;&gt;Node27</title>
<path fill="none" stroke="#191970" d="M3018.7705,-134.0325C2975.1379,-130.6147 2912.59,-125.9943 2857.781,-123 2357.1499,-95.6496 1752.9549,-78.476 1553.3645,-73.2201"/>
<polygon fill="#191970" stroke="#191970" points="1553.4116,-69.7203 1543.3232,-72.9568 1553.228,-76.7179 1553.4116,-69.7203"/>
</g>
<!-- Node31&#45;&gt;Node30 -->
<g id="edge39" class="edge">
<title>Node31&#45;&gt;Node30</title>
<path fill="none" stroke="#191970" d="M3129.1,-125.263C3175.024,-114.274 3240.4206,-98.6255 3288.8263,-87.0427"/>
<polygon fill="#191970" stroke="#191970" points="3289.666,-90.4407 3298.5769,-84.7095 3288.0369,-83.6329 3289.666,-90.4407"/>
</g>
<!-- Node31&#45;&gt;Node36 -->
<g id="edge40" class="edge">
<title>Node31&#45;&gt;Node36</title>
<path fill="none" stroke="#191970" d="M3018.7803,-133.8427C2975.1531,-130.3201 2912.6077,-125.6515 2857.781,-123 2218.7722,-92.0963 2058.1861,-108.176 1418.781,-87 1311.9824,-83.463 1188.1717,-78.1187 1112.6806,-74.7201"/>
<polygon fill="#191970" stroke="#191970" points="1112.5037,-71.2087 1102.356,-74.2539 1112.1879,-78.2015 1112.5037,-71.2087"/>
</g>
<!-- Node36&#45;&gt;Node16 -->
<g id="edge41" class="edge">
<title>Node36&#45;&gt;Node16</title>
<path fill="none" stroke="#191970" d="M1089.7923,-61.9581C1153.8628,-48.9537 1266.5455,-26.0825 1318.3361,-15.5705"/>
<polygon fill="#191970" stroke="#191970" points="1319.0334,-19.0004 1328.1374,-13.5811 1317.641,-12.1403 1319.0334,-19.0004"/>
</g>
<!-- Node36&#45;&gt;Node17 -->
<g id="edge42" class="edge">
<title>Node36&#45;&gt;Node17</title>
<path fill="none" stroke="#191970" d="M1011.9997,-61.8906C974.9064,-50.3107 912.9798,-30.9783 876.096,-19.4638"/>
<polygon fill="#191970" stroke="#191970" points="876.9871,-16.0755 866.3984,-16.4364 874.9011,-22.7575 876.9871,-16.0755"/>
</g>
<!-- Node39 -->
<g id="node31" class="node">
<title>Node39</title>
<polygon fill="#ffffff" stroke="#bfbfbf" points="198.781,-.5 198.781,-19.5 242.781,-19.5 242.781,-.5 198.781,-.5"/>
<text text-anchor="middle" x="220.781" y="-7.5" font-family="Helvetica,sans-Serif" font-size="10.00" fill="#000000">vector</text>
</g>
<!-- Node36&#45;&gt;Node39 -->
<g id="edge43" class="edge">
<title>Node36&#45;&gt;Node39</title>
<path fill="none" stroke="#191970" d="M1002.6384,-61.9861C991.7108,-59.6993 979.8382,-57.49 968.781,-56 693.5612,-18.913 357.2893,-11.6921 253.0999,-10.3163"/>
<polygon fill="#191970" stroke="#191970" points="252.9657,-6.8145 242.9234,-10.1911 252.8795,-13.8139 252.9657,-6.8145"/>
</g>
<!-- Node40&#45;&gt;Node12 -->
<g id="edge45" class="edge">
<title>Node40&#45;&gt;Node12</title>
<path fill="none" stroke="#191970" d="M1782.0677,-135.7349C1603.6384,-126.802 1053.3286,-98.6242 973.781,-87 961.565,-85.2149 948.2796,-82.2905 936.8519,-79.4601"/>
<polygon fill="#191970" stroke="#191970" points="937.5194,-76.0181 926.9632,-76.9225 935.7794,-82.7984 937.5194,-76.0181"/>
</g>
<!-- Node40&#45;&gt;Node13 -->
<g id="edge46" class="edge">
<title>Node40&#45;&gt;Node13</title>
<path fill="none" stroke="#191970" d="M1893.3949,-123.7454C1969.2495,-104.3381 2109.6932,-70.9503 2231.781,-56 2657.7861,-3.8335 2768.1398,-41.6426 3196.781,-20 3238.6881,-17.8841 3286.8401,-14.7063 3318.6485,-12.5032"/>
<polygon fill="#191970" stroke="#191970" points="3319.0445,-15.9841 3328.7765,-11.7963 3318.5571,-9.0011 3319.0445,-15.9841"/>
</g>
<!-- Node40&#45;&gt;Node17 -->
<g id="edge47" class="edge">
<title>Node40&#45;&gt;Node17</title>
<path fill="none" stroke="#191970" d="M1806.3162,-123.4058C1764.0766,-103.9435 1686.1887,-70.8404 1615.781,-56 1470.7856,-25.4381 1001.0685,-13.34 876.3952,-10.6218"/>
<polygon fill="#191970" stroke="#191970" points="876.4627,-7.1226 866.3901,-10.4078 876.3129,-14.121 876.4627,-7.1226"/>
</g>
<!-- Node41&#45;&gt;Node9 -->
<g id="edge55" class="edge">
<title>Node41&#45;&gt;Node9</title>
<path fill="none" stroke="#191970" d="M2817.5701,-257.4951C2836.1309,-249.2356 2856.6825,-237.2921 2870.781,-221 2900.1244,-187.0909 2924.5744,-156.5144 2894.781,-123 2873.6701,-99.2526 2358.4082,-59.0545 2326.781,-56 2104.1797,-34.5015 1835.1298,-17.2906 1746.0416,-11.8237"/>
<polygon fill="#191970" stroke="#191970" points="1746.0446,-8.3175 1735.8499,-11.2015 1745.618,-15.3045 1746.0446,-8.3175"/>
</g>
<!-- Node41&#45;&gt;Node11 -->
<g id="edge49" class="edge">
<title>Node41&#45;&gt;Node11</title>
<path fill="none" stroke="#191970" d="M2703.5234,-271.6423C2444.9831,-268.2283 1558.8329,-254.1474 1508.781,-221 1487.482,-206.8945 1477.5414,-177.8265 1473.1007,-158.2417"/>
<polygon fill="#191970" stroke="#191970" points="1476.4962,-157.3707 1471.1196,-148.2415 1469.6297,-158.731 1476.4962,-157.3707"/>
</g>
<!-- Node41&#45;&gt;Node13 -->
<g id="edge50" class="edge">
<title>Node41&#45;&gt;Node13</title>
<path fill="none" stroke="#191970" d="M2844.0229,-270.8456C2995.9101,-266.6663 3344.657,-253.6007 3386.781,-221 3447.0819,-174.3318 3471.9644,-122.0011 3433.781,-56 3423.9894,-39.0749 3405.3511,-27.8326 3388.5268,-20.7014"/>
<polygon fill="#191970" stroke="#191970" points="3389.4999,-17.3246 3378.9112,-16.9658 3386.965,-23.8495 3389.4999,-17.3246"/>
</g>
<!-- Node41&#45;&gt;Node15 -->
<g id="edge51" class="edge">
<title>Node41&#45;&gt;Node15</title>
<path fill="none" stroke="#191970" d="M2797.3741,-257.4675C2838.821,-229.2989 2916.611,-167.4102 2875.781,-123 2856.0593,-101.549 2423.6654,-79.1758 2297.84,-73.1007"/>
<polygon fill="#191970" stroke="#191970" points="2297.7934,-69.5946 2287.6372,-72.6115 2297.4581,-76.5865 2297.7934,-69.5946"/>
</g>
<!-- Node41&#45;&gt;Node17 -->
<g id="edge52" class="edge">
<title>Node41&#45;&gt;Node17</title>
<path fill="none" stroke="#191970" d="M2703.5955,-267.7061C2609.9159,-260.6807 2439.0543,-245.6752 2294.781,-221 2166.95,-199.137 2136.1172,-187.3105 2010.781,-154 1862.5048,-114.5927 1830.9544,-82.1795 1679.781,-56 1520.8249,-28.4727 1008.1927,-14.0474 876.7304,-10.743"/>
<polygon fill="#191970" stroke="#191970" points="876.6471,-7.24 866.5633,-10.4907 876.4733,-14.2378 876.6471,-7.24"/>
</g>
<!-- Node41&#45;&gt;Node18 -->
<g id="edge53" class="edge">
<title>Node41&#45;&gt;Node18</title>
<path fill="none" stroke="#191970" d="M2780.096,-257.389C2790.3485,-232.8564 2810.5952,-184.4088 2821.8191,-157.5517"/>
<polygon fill="#191970" stroke="#191970" points="2825.1407,-158.6805 2825.7673,-148.1042 2818.682,-155.9813 2825.1407,-158.6805"/>
</g>
<!-- Node41&#45;&gt;Node19 -->
<g id="edge54" class="edge">
<title>Node41&#45;&gt;Node19</title>
<path fill="none" stroke="#191970" d="M2843.7817,-269.705C2929.8555,-264.9418 3069.506,-252.4853 3109.781,-221 3168.6783,-174.9566 3164.3743,-72.813 3159.5649,-29.7529"/>
<polygon fill="#191970" stroke="#191970" points="3163.0224,-29.1949 3158.3082,-19.7067 3156.0766,-30.0638 3163.0224,-29.1949"/>
</g>
<!-- Node41&#45;&gt;Node21 -->
<g id="edge56" class="edge">
<title>Node41&#45;&gt;Node21</title>
<path fill="none" stroke="#191970" d="M2772.9916,-257.389C2771.7214,-233.0735 2769.2239,-185.2644 2767.8137,-158.2698"/>
<polygon fill="#191970" stroke="#191970" points="2771.2997,-157.9079 2767.2827,-148.1042 2764.3092,-158.2732 2771.2997,-157.9079"/>
</g>
<!-- Node41&#45;&gt;Node30 -->
<g id="edge64" class="edge">
<title>Node41&#45;&gt;Node30</title>
<path fill="none" stroke="#191970" d="M2843.8808,-271.5992C2993.037,-268.954 3331.1188,-258.8085 3365.781,-221 3396.8764,-187.0821 3379.3227,-128.7513 3365.4679,-95.8752"/>
<polygon fill="#191970" stroke="#191970" points="3368.5881,-94.2768 3361.3448,-86.5447 3362.1854,-97.1061 3368.5881,-94.2768"/>
</g>
<!-- Node41&#45;&gt;Node31 -->
<g id="edge65" class="edge">
<title>Node41&#45;&gt;Node31</title>
<path fill="none" stroke="#191970" d="M2841.118,-257.427C2872.8899,-248.9619 2910.7655,-236.8706 2942.781,-221 2963.8895,-210.5362 2966.0363,-202.8533 2985.781,-190 3002.3988,-179.1822 3021.3225,-167.9711 3037.3524,-158.7821"/>
<polygon fill="#191970" stroke="#191970" points="3039.4568,-161.6116 3046.4169,-153.6237 3035.9946,-155.5278 3039.4568,-161.6116"/>
</g>
<!-- Node41&#45;&gt;Node39 -->
<g id="edge57" class="edge">
<title>Node41&#45;&gt;Node39</title>
<path fill="none" stroke="#191970" d="M2703.6097,-271.7466C2319.3197,-267.5265 482.8804,-246.1089 365.781,-221 291.2012,-205.0083 252.2303,-215.985 207.781,-154 180.8254,-116.4103 199.4119,-58.3242 211.9431,-28.7257"/>
<polygon fill="#191970" stroke="#191970" points="215.1696,-30.0839 216.0384,-19.5247 208.7744,-27.2374 215.1696,-30.0839"/>
</g>
<!-- Node41&#45;&gt;Node40 -->
<g id="edge66" class="edge">
<title>Node41&#45;&gt;Node40</title>
<path fill="none" stroke="#191970" d="M2703.3662,-271.1663C2585.1935,-267.9597 2339.8509,-257.1474 2135.781,-221 2048.9065,-205.6117 1950.7551,-175.9789 1891.6122,-156.7337"/>
<polygon fill="#191970" stroke="#191970" points="1892.6987,-153.4067 1882.1061,-153.6204 1890.52,-160.059 1892.6987,-153.4067"/>
</g>
<!-- Node41&#45;&gt;Node42 -->
<g id="edge58" class="edge">
<title>Node41&#45;&gt;Node42</title>
<path fill="none" stroke="#191970" d="M2753.3586,-257.2967C2741.2762,-248.302 2725.7838,-236.7687 2712.4862,-226.8694"/>
<polygon fill="#191970" stroke="#191970" points="2714.2339,-223.8072 2704.1226,-220.6432 2710.0539,-229.4221 2714.2339,-223.8072"/>
</g>
<!-- Node42&#45;&gt;Node15 -->
<g id="edge59" class="edge">
<title>Node42&#45;&gt;Node15</title>
<path fill="none" stroke="#191970" d="M2745.3576,-197.5353C2809.4592,-186.854 2895.6291,-164.2715 2857.781,-123 2838.702,-102.1953 2420.743,-79.4481 2297.6186,-73.1789"/>
<polygon fill="#191970" stroke="#191970" points="2297.4593,-69.6664 2287.2953,-72.6568 2297.1057,-76.6575 2297.4593,-69.6664"/>
</g>
<!-- Node42&#45;&gt;Node17 -->
<g id="edge60" class="edge">
<title>Node42&#45;&gt;Node17</title>
<path fill="none" stroke="#191970" d="M2622.1892,-200.59C2495.1475,-190.2791 2212.3159,-166.3119 2169.781,-154 2076.2281,-126.9207 2068.0932,-80.3032 1973.781,-56 1865.0198,-27.9734 1046.7001,-13.2573 876.6654,-10.4848"/>
<polygon fill="#191970" stroke="#191970" points="876.4726,-6.9814 866.4174,-10.3195 876.3596,-13.9804 876.4726,-6.9814"/>
</g>
<!-- Node42&#45;&gt;Node18 -->
<g id="edge61" class="edge">
<title>Node42&#45;&gt;Node18</title>
<path fill="none" stroke="#191970" d="M2720.6,-190.4822C2744.0835,-180.6464 2775.0234,-167.2087 2801.781,-154 2802.4723,-153.6587 2803.1709,-153.309 2803.874,-152.9526"/>
<polygon fill="#191970" stroke="#191970" points="2805.8357,-155.8744 2813.0376,-148.1037 2802.5617,-149.6872 2805.8357,-155.8744"/>
</g>
<!-- Node42&#45;&gt;Node31 -->
<g id="edge62" class="edge">
<title>Node42&#45;&gt;Node31</title>
<path fill="none" stroke="#191970" d="M2745.5777,-194.8837C2817.3751,-182.5492 2935.3213,-162.2867 3008.5522,-149.706"/>
<polygon fill="#191970" stroke="#191970" points="3009.3162,-153.1261 3018.5792,-147.9834 3008.1309,-146.2271 3009.3162,-153.1261"/>
</g>
<!-- Node42&#45;&gt;Node40 -->
<g id="edge63" class="edge">
<title>Node42&#45;&gt;Node40</title>
<path fill="none" stroke="#191970" d="M2622.2573,-200.6276C2467.4788,-188.3697 2062.9483,-156.3324 1903.6281,-143.7148"/>
<polygon fill="#191970" stroke="#191970" points="1903.7389,-140.2127 1893.4938,-142.9122 1903.1862,-147.1909 1903.7389,-140.2127"/>
</g>
<!-- Node43&#45;&gt;Node9 -->
<g id="edge76" class="edge">
<title>Node43&#45;&gt;Node9</title>
<path fill="none" stroke="#191970" d="M1257.4694,-190.3851C1261.3575,-172.401 1270.1122,-142.379 1287.781,-123 1331.8409,-74.6754 1356.5673,-76.1494 1418.781,-56 1513.0171,-25.4793 1630.8177,-14.9284 1685.4091,-11.5135"/>
<polygon fill="#191970" stroke="#191970" points="1685.6819,-15.0036 1695.4589,-10.9218 1685.2705,-8.0157 1685.6819,-15.0036"/>
</g>
<!-- Node43&#45;&gt;Node11 -->
<g id="edge71" class="edge">
<title>Node43&#45;&gt;Node11</title>
<path fill="none" stroke="#191970" d="M1303.0312,-190.4639C1342.0739,-178.2971 1396.2801,-161.4049 1432.1597,-150.2239"/>
<polygon fill="#191970" stroke="#191970" points="1433.2599,-153.5471 1441.7657,-147.2303 1431.1772,-146.8641 1433.2599,-153.5471"/>
</g>
<!-- Node43&#45;&gt;Node12 -->
<g id="edge72" class="edge">
<title>Node43&#45;&gt;Node12</title>
<path fill="none" stroke="#191970" d="M1200.2341,-192.3284C1164.589,-183.0868 1117.3049,-169.6192 1076.781,-154 1024.6525,-133.908 966.7076,-103.8177 934.0103,-86.0709"/>
<polygon fill="#191970" stroke="#191970" points="935.5487,-82.9231 925.0953,-81.1977 932.1912,-89.0653 935.5487,-82.9231"/>
</g>
<!-- Node43&#45;&gt;Node15 -->
<g id="edge74" class="edge">
<title>Node43&#45;&gt;Node15</title>
<path fill="none" stroke="#191970" d="M1279.61,-190.3422C1313.0356,-170.8094 1374.9978,-137.6285 1432.781,-123 1587.461,-83.841 2093.3778,-73.9213 2229.6894,-71.9327"/>
<polygon fill="#191970" stroke="#191970" points="2229.9867,-75.4289 2239.9364,-71.7882 2229.888,-68.4296 2229.9867,-75.4289"/>
</g>
<!-- Node43&#45;&gt;Node17 -->
<g id="edge75" class="edge">
<title>Node43&#45;&gt;Node17</title>
<path fill="none" stroke="#191970" d="M1199.9783,-202.2485C1065.8849,-194.0302 730.9754,-171.8123 714.781,-154 704.9896,-143.2303 696.1554,-83.3275 715.781,-56 727.5826,-39.5669 780.4663,-24.7818 815.0416,-16.6317"/>
<polygon fill="#191970" stroke="#191970" points="816.1537,-19.9676 825.1184,-14.3208 814.589,-13.1447 816.1537,-19.9676"/>
</g>
<!-- Node43&#45;&gt;Node22 -->
<g id="edge77" class="edge">
<title>Node43&#45;&gt;Node22</title>
<path fill="none" stroke="#191970" d="M1200.018,-197.4182C1118.8653,-185.442 966.466,-162.9513 875.2408,-149.4886"/>
<polygon fill="#191970" stroke="#191970" points="875.6502,-146.0112 865.2463,-148.0136 874.6282,-152.9361 875.6502,-146.0112"/>
</g>
<!-- Node43&#45;&gt;Node27 -->
<g id="edge86" class="edge">
<title>Node43&#45;&gt;Node27</title>
<path fill="none" stroke="#191970" d="M1263.5789,-190.462C1275.1324,-171.9859 1297.113,-140.8957 1323.781,-123 1351.9745,-104.0806 1387.5461,-91.7649 1418.17,-83.9385"/>
<polygon fill="#191970" stroke="#191970" points="1419.0415,-87.3286 1427.9234,-81.5526 1417.3781,-80.5291 1419.0415,-87.3286"/>
</g>
<!-- Node43&#45;&gt;Node40 -->
<g id="edge87" class="edge">
<title>Node43&#45;&gt;Node40</title>
<path fill="none" stroke="#191970" d="M1309.3662,-199.2269C1416.9402,-186.8642 1655.9409,-159.3976 1772.0005,-146.0597"/>
<polygon fill="#191970" stroke="#191970" points="1772.631,-149.5103 1782.166,-144.8914 1771.8317,-142.5561 1772.631,-149.5103"/>
</g>
<!-- Node44 -->
<g id="node36" class="node">
<title>Node44</title>
<polygon fill="#ffffff" stroke="#bfbfbf" points="463.281,-62 463.281,-81 512.281,-81 512.281,-62 463.281,-62"/>
<text text-anchor="middle" x="487.781" y="-69" font-family="Helvetica,sans-Serif" font-size="10.00" fill="#000000">cassert</text>
</g>
<!-- Node43&#45;&gt;Node44 -->
<g id="edge73" class="edge">
<title>Node43&#45;&gt;Node44</title>
<path fill="none" stroke="#191970" d="M1200.1821,-202.3334C1060.2193,-194.0127 695.936,-171.0021 643.781,-154 618.5616,-145.7787 616.0456,-135.7422 592.781,-123 578.9035,-115.3992 543.0038,-97.9641 517.0411,-85.4868"/>
<polygon fill="#191970" stroke="#191970" points="518.5147,-82.3119 507.9847,-81.1416 515.4867,-88.623 518.5147,-82.3119"/>
</g>
<!-- Node43&#45;&gt;Node48 -->
<g id="edge78" class="edge">
<title>Node43&#45;&gt;Node48</title>
<path fill="none" stroke="#191970" d="M1229.1972,-190.4639C1213.321,-181.1332 1192.716,-169.0232 1175.3918,-158.8415"/>
<polygon fill="#191970" stroke="#191970" points="1177.0686,-155.7672 1166.6739,-153.7177 1173.5217,-161.8021 1177.0686,-155.7672"/>
</g>
<!-- Node48&#45;&gt;Node9 -->
<g id="edge84" class="edge">
<title>Node48&#45;&gt;Node9</title>
<path fill="none" stroke="#191970" d="M1179.521,-123.448C1202.9162,-113.9053 1233.0778,-100.7918 1258.781,-87 1281.1587,-74.9926 1282.8623,-64.5342 1306.781,-56 1376.824,-31.0087 1603.3673,-16.2461 1685.6013,-11.6009"/>
<polygon fill="#191970" stroke="#191970" points="1685.9871,-15.085 1695.7778,-11.0364 1685.5993,-8.0957 1685.9871,-15.085"/>
</g>
<!-- Node48&#45;&gt;Node12 -->
<g id="edge79" class="edge">
<title>Node48&#45;&gt;Node12</title>
<path fill="none" stroke="#191970" d="M1086.0652,-125.6287C1036.4861,-113.7438 967.2632,-96.534 940.781,-87 939.1842,-86.4251 937.5599,-85.8006 935.9313,-85.1432"/>
<polygon fill="#191970" stroke="#191970" points="937.2858,-81.9157 926.7198,-81.1345 934.4925,-88.3342 937.2858,-81.9157"/>
</g>
<!-- Node48&#45;&gt;Node15 -->
<g id="edge81" class="edge">
<title>Node48&#45;&gt;Node15</title>
<path fill="none" stroke="#191970" d="M1195.7147,-134.4482C1240.4226,-131.1985 1305.1635,-126.6016 1361.781,-123 1700.2883,-101.4666 2110.5339,-79.5645 2229.7758,-73.282"/>
<polygon fill="#191970" stroke="#191970" points="2230.2794,-76.7604 2240.0816,-72.7397 2229.9115,-69.7701 2230.2794,-76.7604"/>
</g>
<!-- Node48&#45;&gt;Node17 -->
<g id="edge82" class="edge">
<title>Node48&#45;&gt;Node17</title>
<path fill="none" stroke="#191970" d="M1139.7409,-123.4437C1137.5913,-104.6502 1130.9986,-72.9239 1110.781,-56 1075.6521,-26.5941 938.6893,-15.2417 876.6377,-11.5432"/>
<polygon fill="#191970" stroke="#191970" points="876.4912,-8.0293 866.3091,-10.9575 876.0949,-15.0181 876.4912,-8.0293"/>
</g>
<!-- Node48&#45;&gt;Node19 -->
<g id="edge83" class="edge">
<title>Node48&#45;&gt;Node19</title>
<path fill="none" stroke="#191970" d="M1186.2451,-123.4262C1252.7793,-101.6395 1373.6588,-63.1648 1418.781,-56 1590.9862,-28.656 2868.245,-13.1979 3115.4278,-10.446"/>
<polygon fill="#191970" stroke="#191970" points="3115.8012,-13.9421 3125.7618,-10.3317 3115.7237,-6.9426 3115.8012,-13.9421"/>
</g>
<!-- Node48&#45;&gt;Node27 -->
<g id="edge85" class="edge">
<title>Node48&#45;&gt;Node27</title>
<path fill="none" stroke="#191970" d="M1195.4473,-127.8837C1255.7753,-116.1678 1352.9353,-97.299 1418.0442,-84.6547"/>
<polygon fill="#191970" stroke="#191970" points="1419.0587,-88.0231 1428.208,-82.6808 1417.7241,-81.1515 1419.0587,-88.0231"/>
</g>
<!-- Node48&#45;&gt;Node44 -->
<g id="edge80" class="edge">
<title>Node48&#45;&gt;Node44</title>
<path fill="none" stroke="#191970" d="M1086.2463,-135.082C945.029,-126.0737 574.6526,-101.3883 520.781,-87 518.8088,-86.4733 516.8098,-85.8332 514.822,-85.1169"/>
<polygon fill="#191970" stroke="#191970" points="515.729,-81.7023 505.1531,-81.0693 513.0259,-88.1593 515.729,-81.7023"/>
</g>
<!-- Node53&#45;&gt;Node9 -->
<g id="edge92" class="edge">
<title>Node53&#45;&gt;Node9</title>
<path fill="none" stroke="#191970" d="M451.11,-190.3569C479.8936,-170.8404 533.4927,-137.6775 584.781,-123 810.0622,-58.5298 881.8457,-136.9669 1110.781,-87 1148.8467,-78.6919 1154.7976,-64.6769 1192.781,-56 1287.7554,-34.3042 1588.7758,-16.7678 1685.523,-11.5717"/>
<polygon fill="#191970" stroke="#191970" points="1685.9752,-15.0527 1695.7751,-11.0263 1685.6033,-8.0625 1685.9752,-15.0527"/>
</g>
<!-- Node53&#45;&gt;Node12 -->
<g id="edge90" class="edge">
<title>Node53&#45;&gt;Node12</title>
<path fill="none" stroke="#191970" d="M429.4171,-190.2623C429.8736,-171.2772 433.8145,-139.3487 453.781,-123 527.1163,-62.9527 787.8934,-113.8923 878.781,-87 880.2522,-86.5647 881.7341,-86.05 883.2082,-85.4773"/>
<polygon fill="#191970" stroke="#191970" points="885.0444,-88.4829 892.6285,-81.0848 882.0862,-82.1387 885.0444,-88.4829"/>
</g>
<!-- Node53&#45;&gt;Node17 -->
<g id="edge91" class="edge">
<title>Node53&#45;&gt;Node17</title>
<path fill="none" stroke="#191970" d="M420.1922,-190.4025C414.4746,-180.4813 407.7648,-166.9794 404.781,-154 394.2409,-108.152 405.261,-81.5207 444.781,-56 475.7203,-36.0204 726.2769,-17.8337 814.8787,-11.9694"/>
<polygon fill="#191970" stroke="#191970" points="815.3424,-15.4466 825.0923,-11.3007 814.885,-8.4616 815.3424,-15.4466"/>
</g>
<!-- Node53&#45;&gt;Node25 -->
<g id="edge95" class="edge">
<title>Node53&#45;&gt;Node25</title>
<path fill="none" stroke="#191970" d="M420.9661,-190.2274C411.95,-172.3639 401.168,-142.7295 415.781,-123 422.3716,-114.1019 475.3003,-98.8557 520.1933,-87.2543"/>
<polygon fill="#191970" stroke="#191970" points="521.1045,-90.634 529.9242,-84.7634 519.3685,-83.8527 521.1045,-90.634"/>
</g>
<!-- Node53&#45;&gt;Node27 -->
<g id="edge96" class="edge">
<title>Node53&#45;&gt;Node27</title>
<path fill="none" stroke="#191970" d="M471.1289,-190.4771C525.9948,-171.2537 626.256,-138.5821 714.781,-123 782.9923,-110.9935 1242.8741,-84.8448 1418.1295,-75.1836"/>
<polygon fill="#191970" stroke="#191970" points="1418.4662,-78.6705 1428.2587,-74.6261 1418.0815,-71.681 1418.4662,-78.6705"/>
</g>
<!-- Node53&#45;&gt;Node39 -->
<g id="edge93" class="edge">
<title>Node53&#45;&gt;Node39</title>
<path fill="none" stroke="#191970" d="M374.9826,-199.0808C321.1207,-191.5308 244.3649,-177.023 225.781,-154 196.9544,-118.2878 206.8783,-59.802 214.8157,-29.5277"/>
<polygon fill="#191970" stroke="#191970" points="218.2288,-30.3195 217.5746,-19.7449 211.4916,-28.4194 218.2288,-30.3195"/>
</g>
<!-- Node53&#45;&gt;Node48 -->
<g id="edge94" class="edge">
<title>Node53&#45;&gt;Node48</title>
<path fill="none" stroke="#191970" d="M484.3914,-200.3539C613.5064,-188.1869 937.128,-157.6909 1075.9181,-144.6123"/>
<polygon fill="#191970" stroke="#191970" points="1076.357,-148.0865 1085.9845,-143.6637 1075.7002,-141.1174 1076.357,-148.0865"/>
</g>
<!-- Node56&#45;&gt;Node9 -->
<g id="edge100" class="edge">
<title>Node56&#45;&gt;Node9</title>
<path fill="none" stroke="#191970" d="M709.7892,-257.4142C698.9982,-227.4634 680.4455,-160.1855 714.781,-123 748.8841,-86.0662 1117.7034,-101.6855 1165.781,-87 1192.6169,-78.8029 1193.999,-64.3715 1220.781,-56 1308.3409,-28.6305 1591.8171,-14.9963 1685.4524,-11.1588"/>
<polygon fill="#191970" stroke="#191970" points="1685.8063,-14.6475 1695.6578,-10.7488 1685.5253,-7.6532 1685.8063,-14.6475"/>
</g>
<!-- Node56&#45;&gt;Node17 -->
<g id="edge99" class="edge">
<title>Node56&#45;&gt;Node17</title>
<path fill="none" stroke="#191970" d="M660.9057,-271.6187C525.4803,-268.8771 183.838,-258.2966 149.781,-221 120.4111,-188.8364 125.9912,-159.4847 149.781,-123 190.105,-61.1579 230.2445,-74.2482 301.781,-56 400.2508,-30.8814 715.4506,-15.5679 815.2049,-11.2576"/>
<polygon fill="#191970" stroke="#191970" points="815.3884,-14.753 825.2302,-10.8303 815.0902,-7.7594 815.3884,-14.753"/>
</g>
<!-- Node56&#45;&gt;Node22 -->
<g id="edge102" class="edge">
<title>Node56&#45;&gt;Node22</title>
<path fill="none" stroke="#191970" d="M725.3663,-257.389C741.0658,-232.6393 772.2048,-183.5495 789.145,-156.8438"/>
<polygon fill="#191970" stroke="#191970" points="792.2878,-158.4234 794.6888,-148.1042 786.3767,-154.6738 792.2878,-158.4234"/>
</g>
<!-- Node56&#45;&gt;Node27 -->
<g id="edge105" class="edge">
<title>Node56&#45;&gt;Node27</title>
<path fill="none" stroke="#191970" d="M770.386,-270.0422C909.3943,-263.4735 1269.131,-244.408 1317.781,-221 1371.8896,-194.9656 1365.1133,-161.9871 1410.781,-123 1423.7886,-111.8952 1439.2105,-100.9708 1452.6771,-92.0609"/>
<polygon fill="#191970" stroke="#191970" points="1454.7267,-94.903 1461.1992,-86.5151 1450.9087,-89.0359 1454.7267,-94.903"/>
</g>
<!-- Node56&#45;&gt;Node39 -->
<g id="edge101" class="edge">
<title>Node56&#45;&gt;Node39</title>
<path fill="none" stroke="#191970" d="M661.2624,-270.3741C503.6019,-263.9646 56.9735,-243.8582 35.781,-221 -14.0771,-167.2231 -9.386,-113.773 35.781,-56 54.4004,-32.184 140.6546,-18.9337 188.5324,-13.2975"/>
<polygon fill="#191970" stroke="#191970" points="189.148,-16.7503 198.6911,-12.1481 188.361,-9.7947 189.148,-16.7503"/>
</g>
<!-- Node56&#45;&gt;Node40 -->
<g id="edge106" class="edge">
<title>Node56&#45;&gt;Node40</title>
<path fill="none" stroke="#191970" d="M770.3274,-271.9073C942.7374,-269.651 1474.4072,-259.6573 1641.781,-221 1699.9803,-207.5581 1762.9013,-178.1552 1801.3305,-158.3344"/>
<polygon fill="#191970" stroke="#191970" points="1803.3111,-161.2486 1810.5551,-153.5172 1800.0709,-155.0437 1803.3111,-161.2486"/>
</g>
<!-- Node56&#45;&gt;Node44 -->
<g id="edge98" class="edge">
<title>Node56&#45;&gt;Node44</title>
<path fill="none" stroke="#191970" d="M661.0488,-268.3379C567.4429,-260.66 384.7991,-243.0213 365.781,-221 323.9043,-172.5106 412.6872,-113.0331 460.2778,-86.0479"/>
<polygon fill="#191970" stroke="#191970" points="462.1516,-89.0109 469.1958,-81.097 458.7539,-82.8908 462.1516,-89.0109"/>
</g>
<!-- Node56&#45;&gt;Node48 -->
<g id="edge103" class="edge">
<title>Node56&#45;&gt;Node48</title>
<path fill="none" stroke="#191970" d="M770.6865,-264.7435C821.3742,-256.7212 898.3267,-242.344 962.781,-221 1013.6848,-204.1433 1069.2971,-176.819 1104.5758,-158.2765"/>
<polygon fill="#191970" stroke="#191970" points="1106.3331,-161.3063 1113.5285,-153.5296 1103.0539,-155.1219 1106.3331,-161.3063"/>
</g>
<!-- Node56&#45;&gt;Node53 -->
<g id="edge104" class="edge">
<title>Node56&#45;&gt;Node53</title>
<path fill="none" stroke="#191970" d="M660.9757,-259.661C613.381,-248.5112 544.4015,-232.3517 494.1826,-220.5871"/>
<polygon fill="#191970" stroke="#191970" points="494.9356,-217.1688 484.4009,-218.2956 493.3389,-223.9843 494.9356,-217.1688"/>
</g>
<!-- Node58&#45;&gt;Node59 -->
<g id="edge108" class="edge">
<title>Node58&#45;&gt;Node59</title>
<path fill="none" stroke="#191970" d="M3664.781,-123.2967C3664.781,-115.5013 3664.781,-105.7991 3664.781,-96.9064"/>
<polygon fill="#191970" stroke="#191970" points="3668.2811,-96.6431 3664.781,-86.6432 3661.2811,-96.6432 3668.2811,-96.6431"/>
</g>
<!-- Node60&#45;&gt;Node13 -->
<g id="edge110" class="edge">
<title>Node60&#45;&gt;Node13</title>
<path fill="none" stroke="#191970" d="M3319.8949,-190.4162C3349.7259,-170.8595 3397.9415,-133.6626 3417.781,-87 3423.1719,-74.3207 3424.0674,-68.26 3417.781,-56 3410.848,-42.4789 3397.8874,-32.0326 3385.4329,-24.5377"/>
<polygon fill="#191970" stroke="#191970" points="3386.9882,-21.3979 3376.547,-19.6001 3383.5882,-27.5168 3386.9882,-21.3979"/>
</g>
<!-- Node60&#45;&gt;Node15 -->
<g id="edge111" class="edge">
<title>Node60&#45;&gt;Node15</title>
<path fill="none" stroke="#191970" d="M3273.415,-190.4538C3244.3086,-170.8816 3189.8421,-137.4834 3137.781,-123 3055.8207,-100.1986 2448.7908,-77.8914 2297.7403,-72.6521"/>
<polygon fill="#191970" stroke="#191970" points="2297.7809,-69.1515 2287.6662,-72.3046 2297.5395,-76.1474 2297.7809,-69.1515"/>
</g>
<!-- Node60&#45;&gt;Node19 -->
<g id="edge112" class="edge">
<title>Node60&#45;&gt;Node19</title>
<path fill="none" stroke="#191970" d="M3288.1574,-190.4933C3275.3264,-162.3676 3245.1217,-100.5476 3208.781,-56 3199.7334,-44.9092 3187.8906,-34.2097 3177.7926,-25.925"/>
<polygon fill="#191970" stroke="#191970" points="3179.8238,-23.0684 3169.8203,-19.5782 3175.4639,-28.5449 3179.8238,-23.0684"/>
</g>
<!-- Node60&#45;&gt;Node22 -->
<g id="edge113" class="edge">
<title>Node60&#45;&gt;Node22</title>
<path fill="none" stroke="#191970" d="M3233.1827,-199.3164C3197.2332,-195.9636 3150.9832,-192.0886 3109.781,-190 2207.2426,-144.2498 1979.8629,-187.3418 1076.781,-154 1013.703,-151.6712 942.5884,-147.644 888.3446,-144.2783"/>
<polygon fill="#191970" stroke="#191970" points="888.2724,-140.767 878.0736,-143.6364 887.8358,-147.7534 888.2724,-140.767"/>
</g>
<!-- Node60&#45;&gt;Node27 -->
<g id="edge116" class="edge">
<title>Node60&#45;&gt;Node27</title>
<path fill="none" stroke="#191970" d="M3233.1649,-199.6342C3197.2096,-196.3873 3150.9596,-192.5123 3109.781,-190 2692.4729,-164.5403 2585.0548,-202.3933 2169.781,-154 2098.7009,-145.7168 2082.5842,-133.3874 2011.781,-123 1848.09,-98.9851 1654.0469,-83.2509 1553.6104,-76.0461"/>
<polygon fill="#191970" stroke="#191970" points="1553.8218,-72.5523 1543.5987,-75.3339 1553.3251,-79.5347 1553.8218,-72.5523"/>
</g>
<!-- Node60&#45;&gt;Node30 -->
<g id="edge117" class="edge">
<title>Node60&#45;&gt;Node30</title>
<path fill="none" stroke="#191970" d="M3301.4344,-190.389C3311.5264,-167.4681 3330.8101,-123.6712 3342.9446,-96.1116"/>
<polygon fill="#191970" stroke="#191970" points="3346.2349,-97.324 3347.0614,-86.7614 3339.8284,-94.5031 3346.2349,-97.324"/>
</g>
<!-- Node60&#45;&gt;Node31 -->
<g id="edge118" class="edge">
<title>Node60&#45;&gt;Node31</title>
<path fill="none" stroke="#191970" d="M3245.1843,-190.4639C3212.0315,-180.4131 3168.2421,-167.1375 3133.2226,-156.5208"/>
<polygon fill="#191970" stroke="#191970" points="3134.1794,-153.1536 3123.594,-153.6017 3132.1484,-159.8525 3134.1794,-153.1536"/>
</g>
<!-- Node60&#45;&gt;Node40 -->
<g id="edge119" class="edge">
<title>Node60&#45;&gt;Node40</title>
<path fill="none" stroke="#191970" d="M3233.1662,-199.6136C3197.2112,-196.3598 3150.9612,-192.4848 3109.781,-190 2677.3829,-163.9093 2568.5375,-173.251 2135.781,-154 2055.9117,-150.447 1964.045,-145.5451 1903.6694,-142.2117"/>
<polygon fill="#191970" stroke="#191970" points="1903.6938,-138.7077 1893.5156,-141.6494 1903.3068,-145.697 1903.6938,-138.7077"/>
</g>
<!-- Node60&#45;&gt;Node58 -->
<g id="edge114" class="edge">
<title>Node60&#45;&gt;Node58</title>
<path fill="none" stroke="#191970" d="M3356.2943,-194.3611C3421.515,-182.5509 3524.42,-163.9167 3593.225,-151.4574"/>
<polygon fill="#191970" stroke="#191970" points="3593.9043,-154.8914 3603.1206,-149.6655 3592.657,-148.0035 3593.9043,-154.8914"/>
</g>
<!-- Node60&#45;&gt;Node59 -->
<g id="edge115" class="edge">
<title>Node60&#45;&gt;Node59</title>
<path fill="none" stroke="#191970" d="M3336.5055,-190.389C3404.6943,-165.6936 3539.7965,-116.7646 3613.6442,-90.0198"/>
<polygon fill="#191970" stroke="#191970" points="3614.9985,-93.2519 3623.209,-86.5558 3612.6148,-86.6702 3614.9985,-93.2519"/>
</g>
<!-- Node61&#45;&gt;Node9 -->
<g id="edge123" class="edge">
<title>Node61&#45;&gt;Node9</title>
<path fill="none" stroke="#191970" d="M2226.9028,-123.255C2205.7322,-103.949 2166.2105,-71.3538 2125.781,-56 2056.0898,-29.5336 1828.665,-15.6947 1746.0892,-11.4463"/>
<polygon fill="#191970" stroke="#191970" points="1746.0335,-7.9392 1735.8701,-10.9318 1745.6815,-14.9303 1746.0335,-7.9392"/>
</g>
<!-- Node61&#45;&gt;Node15 -->
<g id="edge122" class="edge">
<title>Node61&#45;&gt;Node15</title>
<path fill="none" stroke="#191970" d="M2247.5462,-123.2967C2250.564,-113.6685 2254.4934,-101.1318 2257.7306,-90.8038"/>
<polygon fill="#191970" stroke="#191970" points="2261.135,-91.6441 2260.7861,-81.055 2254.4554,-89.5504 2261.135,-91.6441"/>
</g>
<!-- Node62&#45;&gt;Node9 -->
<g id="edge129" class="edge">
<title>Node62&#45;&gt;Node9</title>
<path fill="none" stroke="#191970" d="M928.4224,-190.4905C962.5001,-172.472 1022.5698,-142.2777 1076.781,-123 1138.9377,-100.8969 1161.8051,-116.5609 1220.781,-87 1240.2662,-77.2333 1238.6409,-64.333 1258.781,-56 1336.4989,-23.8439 1596.447,-13.4478 1685.5271,-10.7847"/>
<polygon fill="#191970" stroke="#191970" points="1685.8608,-14.2767 1695.7561,-10.4909 1685.6597,-7.2796 1685.8608,-14.2767"/>
</g>
<!-- Node62&#45;&gt;Node11 -->
<g id="edge126" class="edge">
<title>Node62&#45;&gt;Node11</title>
<path fill="none" stroke="#191970" d="M953.8002,-199.257C1067.4625,-185.8732 1332.2946,-154.6891 1431.4199,-143.017"/>
<polygon fill="#191970" stroke="#191970" points="1432.0581,-146.4662 1441.5801,-141.8207 1431.2394,-139.5142 1432.0581,-146.4662"/>
</g>
<!-- Node62&#45;&gt;Node17 -->
<g id="edge128" class="edge">
<title>Node62&#45;&gt;Node17</title>
<path fill="none" stroke="#191970" d="M847.6815,-200.8388C762.9195,-192.8833 601.1545,-175.4454 547.781,-154 500.176,-134.8724 477.2797,-132.606 453.781,-87 447.4704,-74.7524 444.6239,-66.2944 453.781,-56 477.7168,-29.0912 726.7031,-15.3561 814.9673,-11.3049"/>
<polygon fill="#191970" stroke="#191970" points="815.3117,-14.7931 825.1448,-10.8483 814.9979,-7.8001 815.3117,-14.7931"/>
</g>
<!-- Node62&#45;&gt;Node22 -->
<g id="edge131" class="edge">
<title>Node62&#45;&gt;Node22</title>
<path fill="none" stroke="#191970" d="M878.0894,-190.2967C861.7526,-179.351 839.8051,-164.6462 823.4691,-153.701"/>
<polygon fill="#191970" stroke="#191970" points="825.298,-150.7135 815.0421,-148.055 821.4017,-156.5289 825.298,-150.7135"/>
</g>
<!-- Node62&#45;&gt;Node27 -->
<g id="edge132" class="edge">
<title>Node62&#45;&gt;Node27</title>
<path fill="none" stroke="#191970" d="M953.9669,-199.4904C1014.9777,-191.9011 1117.6889,-176.99 1203.781,-154 1242.2283,-143.7331 1249.8112,-134.9122 1287.781,-123 1330.7128,-109.5311 1379.6398,-96.7814 1418.1158,-87.3373"/>
<polygon fill="#191970" stroke="#191970" points="1419.2822,-90.6555 1428.1686,-84.8865 1417.6241,-83.8547 1419.2822,-90.6555"/>
</g>
<!-- Node62&#45;&gt;Node39 -->
<g id="edge130" class="edge">
<title>Node62&#45;&gt;Node39</title>
<path fill="none" stroke="#191970" d="M847.4741,-201.5724C749.8376,-193.9534 546.1442,-175.9692 478.781,-154 383.8517,-123.0407 284.1196,-55.9073 241.7728,-25.5105"/>
<polygon fill="#191970" stroke="#191970" points="243.7806,-22.6431 233.6298,-19.608 239.6724,-28.3108 243.7806,-22.6431"/>
</g>
<!-- Node62&#45;&gt;Node40 -->
<g id="edge133" class="edge">
<title>Node62&#45;&gt;Node40</title>
<path fill="none" stroke="#191970" d="M953.8429,-201.7058C1114.5001,-190.2181 1595.4161,-155.8303 1771.9009,-143.2107"/>
<polygon fill="#191970" stroke="#191970" points="1772.3556,-146.6873 1782.0805,-142.4829 1771.8563,-139.7051 1772.3556,-146.6873"/>
</g>
<!-- Node62&#45;&gt;Node44 -->
<g id="edge127" class="edge">
<title>Node62&#45;&gt;Node44</title>
<path fill="none" stroke="#191970" d="M847.7067,-203.1668C787.1205,-198.9511 686.035,-187.1292 605.781,-154 566.6491,-137.8462 527.6482,-106.9575 505.7322,-87.9007"/>
<polygon fill="#191970" stroke="#191970" points="508.0106,-85.2432 498.2046,-81.2317 503.3687,-90.4828 508.0106,-85.2432"/>
</g>
<!-- Node64&#45;&gt;Node9 -->
<g id="edge135" class="edge">
<title>Node64&#45;&gt;Node9</title>
<path fill="none" stroke="#191970" d="M3037.2968,-190.4862C3023.385,-171.7376 2997.0273,-140.0586 2966.781,-123 2854.1975,-59.5041 2811.7714,-74.0336 2683.781,-56 2496.2441,-29.5764 1889.9064,-14.0519 1746.4235,-10.6925"/>
<polygon fill="#191970" stroke="#191970" points="1746.2459,-7.1875 1736.1674,-10.4547 1746.0836,-14.1856 1746.2459,-7.1875"/>
</g>
<!-- Node64&#45;&gt;Node31 -->
<g id="edge136" class="edge">
<title>Node64&#45;&gt;Node31</title>
<path fill="none" stroke="#191970" d="M3053.6808,-190.2967C3056.8056,-182.2443 3060.7199,-172.1574 3064.262,-163.0296"/>
<polygon fill="#191970" stroke="#191970" points="3067.5497,-164.2321 3067.9045,-153.6432 3061.0238,-161.6996 3067.5497,-164.2321"/>
</g>
<!-- Node65&#45;&gt;Node11 -->
<g id="edge141" class="edge">
<title>Node65&#45;&gt;Node11</title>
<path fill="none" stroke="#191970" d="M1377.509,-257.389C1396.8862,-232.4222 1435.4871,-182.6864 1456.0854,-156.1462"/>
<polygon fill="#191970" stroke="#191970" points="1458.9607,-158.15 1462.327,-148.1042 1453.4308,-153.8581 1458.9607,-158.15"/>
</g>
<!-- Node65&#45;&gt;Node12 -->
<g id="edge142" class="edge">
<title>Node65&#45;&gt;Node12</title>
<path fill="none" stroke="#191970" d="M1310.6498,-257.4865C1276.0184,-247.7574 1230.5357,-234.4335 1190.781,-221 1154.2631,-208.6603 1145.9788,-203.2494 1109.781,-190 1064.2423,-173.3316 1048.9727,-177.9054 1006.781,-154 974.5895,-135.7607 942.6754,-106.6582 924.1141,-88.3392"/>
<polygon fill="#191970" stroke="#191970" points="926.5517,-85.8269 917.015,-81.2116 921.592,-90.7667 926.5517,-85.8269"/>
</g>
<!-- Node65&#45;&gt;Node17 -->
<g id="edge143" class="edge">
<title>Node65&#45;&gt;Node17</title>
<path fill="none" stroke="#191970" d="M1308.0251,-270.5923C1097.4201,-263.5021 382.1117,-238.1934 365.781,-221 326.8401,-180.0021 293.5448,-149.6797 408.781,-56 440.2369,-30.4284 720.7275,-15.6085 815.0173,-11.3152"/>
<polygon fill="#191970" stroke="#191970" points="815.2308,-14.8093 825.0644,-10.8657 814.9179,-7.8163 815.2308,-14.8093"/>
</g>
<!-- Node65&#45;&gt;Node27 -->
<g id="edge145" class="edge">
<title>Node65&#45;&gt;Node27</title>
<path fill="none" stroke="#191970" d="M1370.5222,-257.0888C1379.6694,-228.8229 1401.6363,-167.5103 1432.781,-123 1440.2514,-112.3237 1450.1362,-102.0128 1459.3439,-93.4578"/>
<polygon fill="#191970" stroke="#191970" points="1461.7502,-96.0011 1466.8513,-86.7151 1457.0727,-90.7932 1461.7502,-96.0011"/>
</g>
<!-- Node65&#45;&gt;Node43 -->
<g id="edge144" class="edge">
<title>Node65&#45;&gt;Node43</title>
<path fill="none" stroke="#191970" d="M1340.8704,-257.4639C1325.5539,-248.2188 1305.7171,-236.2452 1288.9461,-226.1222"/>
<polygon fill="#191970" stroke="#191970" points="1290.3625,-222.889 1279.9925,-220.7177 1286.7451,-228.8819 1290.3625,-222.889"/>
</g>
<!-- Node65&#45;&gt;Node66 -->
<g id="edge146" class="edge">
<title>Node65&#45;&gt;Node66</title>
<path fill="none" stroke="#191970" d="M1412.9091,-257.4639C1444.2771,-247.456 1485.6661,-234.2509 1518.8709,-223.657"/>
<polygon fill="#191970" stroke="#191970" points="1519.9843,-226.9757 1528.4473,-220.6017 1517.8566,-220.3069 1519.9843,-226.9757"/>
</g>
<!-- Node66&#45;&gt;Node11 -->
<g id="edge147" class="edge">
<title>Node66&#45;&gt;Node11</title>
<path fill="none" stroke="#191970" d="M1551.9925,-190.4639C1534.5275,-179.4247 1510.9081,-164.4954 1493.4672,-153.4715"/>
<polygon fill="#191970" stroke="#191970" points="1495.2983,-150.4883 1484.9753,-148.1039 1491.5582,-156.4054 1495.2983,-150.4883"/>
</g>
<!-- Node66&#45;&gt;Node15 -->
<g id="edge148" class="edge">
<title>Node66&#45;&gt;Node15</title>
<path fill="none" stroke="#191970" d="M1604.2306,-190.4527C1641.7305,-171.3606 1710.2773,-138.9964 1772.781,-123 1859.9182,-100.6993 2134.2054,-80.349 2230.2021,-73.7407"/>
<polygon fill="#191970" stroke="#191970" points="2230.4889,-77.2293 2240.2271,-73.056 2230.0119,-70.2456 2230.4889,-77.2293"/>
</g>
<!-- Node66&#45;&gt;Node17 -->
<g id="edge149" class="edge">
<title>Node66&#45;&gt;Node17</title>
<path fill="none" stroke="#191970" d="M1578.7336,-190.4163C1583.7402,-159.8578 1589.9481,-90.6104 1551.781,-56 1526.4198,-33.0021 1009.6122,-15.1683 876.7197,-10.9506"/>
<polygon fill="#191970" stroke="#191970" points="876.5467,-7.4435 866.4416,-10.6273 876.3266,-14.44 876.5467,-7.4435"/>
</g>
<!-- Node66&#45;&gt;Node27 -->
<g id="edge151" class="edge">
<title>Node66&#45;&gt;Node27</title>
<path fill="none" stroke="#191970" d="M1571.176,-190.2738C1565.5001,-172.9784 1554.7372,-144.3866 1539.781,-123 1532.2406,-112.2176 1522.1839,-101.8848 1512.7944,-93.342"/>
<polygon fill="#191970" stroke="#191970" points="1514.9578,-90.5839 1505.1339,-86.6164 1510.3395,-95.8442 1514.9578,-90.5839"/>
</g>
<!-- Node66&#45;&gt;Node39 -->
<g id="edge150" class="edge">
<title>Node66&#45;&gt;Node39</title>
<path fill="none" stroke="#191970" d="M1565.3618,-190.3798C1550.0975,-168.7329 1521.8404,-130.6659 1506.781,-123 1400.9851,-69.1453 1084.2078,-130.5776 973.781,-87 953.5067,-78.9992 956.0681,-63.9685 935.781,-56 871.733,-30.8429 384.2029,-14.8076 253.1359,-10.9207"/>
<polygon fill="#191970" stroke="#191970" points="253.0429,-7.4165 242.9445,-10.6217 252.8376,-14.4135 253.0429,-7.4165"/>
</g>
<!-- Node69&#45;&gt;Node9 -->
<g id="edge160" class="edge">
<title>Node69&#45;&gt;Node9</title>
<path fill="none" stroke="#191970" d="M1618.4402,-324.4735C1656.3078,-303.5064 1715.781,-261.6401 1715.781,-205.5 1715.781,-205.5 1715.781,-205.5 1715.781,-138.5 1715.781,-100.0012 1715.781,-55.0145 1715.781,-29.7812"/>
<polygon fill="#191970" stroke="#191970" points="1719.2811,-29.6718 1715.781,-19.6719 1712.2811,-29.6719 1719.2811,-29.6718"/>
</g>
<!-- Node69&#45;&gt;Node11 -->
<g id="edge154" class="edge">
<title>Node69&#45;&gt;Node11</title>
<path fill="none" stroke="#191970" d="M1568.115,-324.2867C1543.1908,-303.7838 1501.0401,-264.7693 1480.781,-221 1471.5202,-200.9923 1469.3909,-175.528 1469.182,-158.2187"/>
<polygon fill="#191970" stroke="#191970" points="1472.6822,-158.1899 1469.2663,-148.1609 1465.6825,-158.1312 1472.6822,-158.1899"/>
</g>
<!-- Node69&#45;&gt;Node12 -->
<g id="edge155" class="edge">
<title>Node69&#45;&gt;Node12</title>
<path fill="none" stroke="#191970" d="M1530.1475,-332.0765C1471.3788,-323.8446 1377.8602,-308.9109 1298.781,-288 1212.6205,-265.2166 1192.5329,-254.0884 1109.781,-221 1075.883,-207.4459 987.3658,-177.9138 959.781,-154 939.4751,-136.3964 924.3587,-108.9055 915.8031,-90.5561"/>
<polygon fill="#191970" stroke="#191970" points="918.8974,-88.9008 911.6337,-81.1878 912.5021,-91.747 918.8974,-88.9008"/>
</g>
<!-- Node69&#45;&gt;Node13 -->
<g id="edge157" class="edge">
<title>Node69&#45;&gt;Node13</title>
<path fill="none" stroke="#191970" d="M1645.2862,-337.401C1730.3874,-334.3185 1894.8862,-328.4513 2034.781,-324 2310.9793,-315.2117 3005.3641,-334.3873 3277.781,-288 3396.8765,-267.7203 3536.781,-326.3098 3536.781,-205.5 3536.781,-205.5 3536.781,-205.5 3536.781,-138.5 3536.781,-66.8352 3441.6227,-31.7071 3388.5441,-17.6873"/>
<polygon fill="#191970" stroke="#191970" points="3389.3954,-14.2924 3378.8427,-15.2355 3387.6802,-21.0791 3389.3954,-14.2924"/>
</g>
<!-- Node69&#45;&gt;Node17 -->
<g id="edge158" class="edge">
<title>Node69&#45;&gt;Node17</title>
<path fill="none" stroke="#191970" d="M1530.2658,-338.2355C1327.9099,-333.5832 649.4116,-316.2075 433.781,-288 295.7353,-269.9417 215.065,-329.463 127.781,-221 79.4916,-160.9935 113.1633,-92.8849 180.781,-56 236.8702,-25.4038 691.0445,-13.3639 814.7601,-10.6335"/>
<polygon fill="#191970" stroke="#191970" points="815.1166,-14.1267 825.0386,-10.4115 814.9653,-7.1283 815.1166,-14.1267"/>
</g>
<!-- Node69&#45;&gt;Node19 -->
<g id="edge159" class="edge">
<title>Node69&#45;&gt;Node19</title>
<path fill="none" stroke="#191970" d="M1645.5968,-337.4542C1885.4314,-328.9283 2792.3512,-296.2808 2852.781,-288 2981.2674,-270.3932 3035.8134,-302.3899 3136.781,-221 3195.4476,-173.7089 3190.4449,-129.9134 3175.781,-56 3173.9162,-46.6003 3170.1011,-36.7115 3166.3756,-28.5215"/>
<polygon fill="#191970" stroke="#191970" points="3169.5242,-26.993 3162.0128,-19.5212 3163.2253,-30.0464 3169.5242,-26.993"/>
</g>
<!-- Node69&#45;&gt;Node22 -->
<g id="edge161" class="edge">
<title>Node69&#45;&gt;Node22</title>
<path fill="none" stroke="#191970" d="M1530.0658,-334.7234C1459.4133,-328.0505 1336.4896,-313.7591 1233.781,-288 1109.5505,-256.8433 1084.0558,-231.187 962.781,-190 921.7551,-176.0669 874.5052,-161.177 841.6629,-151.0102"/>
<polygon fill="#191970" stroke="#191970" points="842.5433,-147.6191 831.9558,-148.0129 840.4781,-154.3075 842.5433,-147.6191"/>
</g>
<!-- Node69&#45;&gt;Node27 -->
<g id="edge162" class="edge">
<title>Node69&#45;&gt;Node27</title>
<path fill="none" stroke="#191970" d="M1601.0916,-324.3003C1623.3968,-296.8834 1663.8149,-237.5782 1641.781,-190 1629.3382,-163.1321 1561.6574,-117.9954 1519.6334,-91.8692"/>
<polygon fill="#191970" stroke="#191970" points="1521.4331,-88.867 1511.0845,-86.5961 1517.7582,-94.8248 1521.4331,-88.867"/>
</g>
<!-- Node69&#45;&gt;Node30 -->
<g id="edge163" class="edge">
<title>Node69&#45;&gt;Node30</title>
<path fill="none" stroke="#191970" d="M1645.2876,-337.446C1730.3907,-334.4199 1894.8918,-328.6226 2034.781,-324 2289.4343,-315.5851 2929.7889,-331.8413 3180.781,-288 3275.6214,-271.434 3326.7814,-296.294 3386.781,-221 3413.9757,-186.8731 3406.6763,-164.3656 3392.781,-123 3389.299,-112.6342 3382.8122,-102.6939 3376.1145,-94.3587"/>
<polygon fill="#191970" stroke="#191970" points="3378.6216,-91.906 3369.4499,-86.6021 3373.3122,-96.4679 3378.6216,-91.906"/>
</g>
<!-- Node69&#45;&gt;Node40 -->
<g id="edge166" class="edge">
<title>Node69&#45;&gt;Node40</title>
<path fill="none" stroke="#191970" d="M1645.5529,-326.9901C1672.9829,-319.0404 1705.0823,-306.6422 1729.781,-288 1774.944,-253.9117 1809.2189,-195.6458 1826.1167,-162.8262"/>
<polygon fill="#191970" stroke="#191970" points="1829.434,-164.0196 1830.7958,-153.5127 1823.179,-160.8771 1829.434,-164.0196"/>
</g>
<!-- Node69&#45;&gt;Node44 -->
<g id="edge156" class="edge">
<title>Node69&#45;&gt;Node44</title>
<path fill="none" stroke="#191970" d="M1530.1589,-338.6925C1296.2246,-334.7971 426.3829,-314.1008 351.781,-221 334.4675,-199.3933 360.9783,-134.2619 370.781,-123 392.0057,-98.6159 426.9567,-85.3072 453.1418,-78.3648"/>
<polygon fill="#191970" stroke="#191970" points="454.1796,-81.7139 463.0535,-75.9256 452.5068,-74.9167 454.1796,-81.7139"/>
</g>
<!-- Node69&#45;&gt;Node65 -->
<g id="edge164" class="edge">
<title>Node69&#45;&gt;Node65</title>
<path fill="none" stroke="#191970" d="M1537.9599,-324.4639C1504.6571,-314.4131 1460.6695,-301.1375 1425.4916,-290.5208"/>
<polygon fill="#191970" stroke="#191970" points="1426.4042,-287.1403 1415.8194,-287.6017 1424.3816,-293.8418 1426.4042,-287.1403"/>
</g>
<!-- Node69&#45;&gt;Node66 -->
<g id="edge165" class="edge">
<title>Node69&#45;&gt;Node66</title>
<path fill="none" stroke="#191970" d="M1586.4278,-324.389C1584.3932,-301.6691 1580.5217,-258.438 1578.0503,-230.8405"/>
<polygon fill="#191970" stroke="#191970" points="1581.5258,-230.4093 1577.1477,-220.7614 1574.5537,-231.0338 1581.5258,-230.4093"/>
</g>
</g>
</svg>
        <g id="navigator" transform="translate(0 0)" fill="#404254">
                <rect fill="#f2f5e9" fill-opacity="0.5" stroke="#606060" stroke-width=".5" x="0" y="0" width="60" height="60"/>
                <use id="zoomplus" xlink:href="#zoomPlus" x="17" y="9" onmousedown="handleZoom(evt,'in')"/>
                <use id="zoomminus" xlink:href="#zoomMin" x="42" y="9" onmousedown="handleZoom(evt,'out')"/>
                <use id="reset" xlink:href="#resetDef" x="30" y="36" onmousedown="handleReset()"/>
                <g id="arrowUp" xlink:href="#dirArrow" transform="translate(30 24)" onmousedown="handlePan(0,-1)">
                  <use xlink:href="#rim" fill="#404040">
                        <set attributeName="fill" to="#808080" begin="arrowUp.mouseover" end="arrowUp.mouseout"/>
                  </use>
                  <path fill="none" stroke="white" stroke-width="1.5" d="M0,-3.0v7 M-2.5,-0.5L0,-3.0L2.5,-0.5"/>
                </g>
                <g id="arrowRight" xlink:href="#dirArrow" transform="rotate(90) translate(36 -43)" onmousedown="handlePan(1,0)">
                  <use xlink:href="#rim" fill="#404040">
                        <set attributeName="fill" to="#808080" begin="arrowRight.mouseover" end="arrowRight.mouseout"/>
                  </use>
                  <path fill="none" stroke="white" stroke-width="1.5" d="M0,-3.0v7 M-2.5,-0.5L0,-3.0L2.5,-0.5"/>
                </g>
                <g id="arrowDown" xlink:href="#dirArrow" transform="rotate(180) translate(-30 -48)" onmousedown="handlePan(0,1)">
                  <use xlink:href="#rim" fill="#404040">
                        <set attributeName="fill" to="#808080" begin="arrowDown.mouseover" end="arrowDown.mouseout"/>
                  </use>
                  <path fill="none" stroke="white" stroke-width="1.5" d="M0,-3.0v7 M-2.5,-0.5L0,-3.0L2.5,-0.5"/>
                </g>
                <g id="arrowLeft" xlink:href="#dirArrow" transform="rotate(270) translate(-36 17)" onmousedown="handlePan(-1,0)">
                  <use xlink:href="#rim" fill="#404040">
                        <set attributeName="fill" to="#808080" begin="arrowLeft.mouseover" end="arrowLeft.mouseout"/>
                  </use>
                  <path fill="none" stroke="white" stroke-width="1.5" d="M0,-3.0v7 M-2.5,-0.5L0,-3.0L2.5,-0.5"/>
                </g>
        </g>
        <svg viewBox="0 0 15 15" width="100%" height="30px" preserveAspectRatio="xMaxYMin meet">
         <g id="arrow_out" transform="scale(0.3 0.3)">
          <a xlink:href="_pose_estimation_8h__incl_org.svg" target="_base">
           <rect id="button" ry="5" rx="5" y="6" x="6" height="38" width="38"
                fill="#f2f5e9" fill-opacity="0.5" stroke="#606060" stroke-width="1.0"/>
           <path id="arrow"
             d="M 11.500037,31.436501 C 11.940474,20.09759 22.043105,11.32322 32.158766,21.979434 L 37.068811,17.246167 C 37.068811,17.246167 37.088388,32 37.088388,32 L 22.160133,31.978069 C 22.160133,31.978069 26.997745,27.140456 26.997745,27.140456 C 18.528582,18.264221 13.291696,25.230495 11.500037,31.436501 z"
             style="fill:#404040;"/>
          </a>
         </g>
        </svg>
</svg>
