<?xml version="1.0" encoding="UTF-8" standalone="no"?>
<!DOCTYPE svg PUBLIC "-//W3C//DTD SVG 1.1//EN"
 "http://www.w3.org/Graphics/SVG/1.1/DTD/svg11.dtd">
<!-- Generated by graphviz version 2.40.1 (20161225.0304)
 -->
<!-- Title: /home/bdn_jz/bdn_jz/camera&#45;tracker&#45;cpp/CameraTrackerLinux/src/PoseEstimation.cpp Pages: 1 -->
<svg width="3581pt" height="620pt"
 viewBox="0.00 0.00 3581.48 620.00" xmlns="http://www.w3.org/2000/svg" xmlns:xlink="http://www.w3.org/1999/xlink">
<g id="graph0" class="graph" transform="scale(1 1) rotate(0) translate(4 616)">
<title>/home/bdn_jz/bdn_jz/camera&#45;tracker&#45;cpp/CameraTrackerLinux/src/PoseEstimation.cpp</title>
<polygon fill="#ffffff" stroke="transparent" points="-4,4 -4,-616 3577.4804,-616 3577.4804,4 -4,4"/>
<!-- Node0 -->
<g id="node1" class="node">
<title>Node0</title>
<polygon fill="#bfbfbf" stroke="#000000" points="1151.9804,-559.5 1151.9804,-611.5 1278.9804,-611.5 1278.9804,-559.5 1151.9804,-559.5"/>
<text text-anchor="start" x="1159.9804" y="-599.5" font-family="Helvetica,sans-Serif" font-size="10.00" fill="#000000">/home/bdn_jz/bdn_jz</text>
<text text-anchor="start" x="1159.9804" y="-588.5" font-family="Helvetica,sans-Serif" font-size="10.00" fill="#000000">/camera&#45;tracker&#45;cpp</text>
<text text-anchor="start" x="1159.9804" y="-577.5" font-family="Helvetica,sans-Serif" font-size="10.00" fill="#000000">/CameraTrackerLinux/src</text>
<text text-anchor="middle" x="1215.4804" y="-566.5" font-family="Helvetica,sans-Serif" font-size="10.00" fill="#000000">/PoseEstimation.cpp</text>
</g>
<!-- Node1 -->
<g id="node2" class="node">
<title>Node1</title>
<g id="a_node2"><a xlink:href="_pose_estimation_8h.html" target="_top" xlink:title="This file contains the declaration of the PoseEstimation class. ">
<polygon fill="#ffffff" stroke="#000000" points="1168.4804,-503.5 1168.4804,-522.5 1262.4804,-522.5 1262.4804,-503.5 1168.4804,-503.5"/>
<text text-anchor="middle" x="1215.4804" y="-510.5" font-family="Helvetica,sans-Serif" font-size="10.00" fill="#000000">PoseEstimation.h</text>
</a>
</g>
</g>
<!-- Node0&#45;&gt;Node1 -->
<g id="edge1" class="edge">
<title>Node0&#45;&gt;Node1</title>
<path fill="none" stroke="#191970" d="M1215.4804,-559.3258C1215.4804,-550.5142 1215.4804,-540.8397 1215.4804,-532.621"/>
<polygon fill="#191970" stroke="#191970" points="1218.9805,-532.534 1215.4804,-522.534 1211.9805,-532.534 1218.9805,-532.534"/>
</g>
<!-- Node2 -->
<g id="node3" class="node">
<title>Node2</title>
<g id="a_node3"><a xlink:href="_chessboard_detector_8h.html" target="_top" xlink:title="This file contains the declaration of the ChessboardDetector class. ">
<polygon fill="#ffffff" stroke="#000000" points="1089.9804,-447.5 1089.9804,-466.5 1204.9804,-466.5 1204.9804,-447.5 1089.9804,-447.5"/>
<text text-anchor="middle" x="1147.4804" y="-454.5" font-family="Helvetica,sans-Serif" font-size="10.00" fill="#000000">ChessboardDetector.h</text>
</a>
</g>
</g>
<!-- Node1&#45;&gt;Node2 -->
<g id="edge2" class="edge">
<title>Node1&#45;&gt;Node2</title>
<path fill="none" stroke="#191970" d="M1203.6357,-503.2455C1193.5924,-494.9746 1178.9809,-482.9416 1167.18,-473.2232"/>
<polygon fill="#191970" stroke="#191970" points="1169.1336,-470.298 1159.1893,-466.6427 1164.6837,-475.7015 1169.1336,-470.298"/>
</g>
<!-- Node7 -->
<g id="node8" class="node">
<title>Node7</title>
<g id="a_node8"><a xlink:href="_json_utilization_8h.html" target="_top" xlink:title="This file contains the declaration of the namespace jsonUtilization. ">
<polygon fill="#ffffff" stroke="#000000" points="1815.9804,-447.5 1815.9804,-466.5 1904.9804,-466.5 1904.9804,-447.5 1815.9804,-447.5"/>
<text text-anchor="middle" x="1860.4804" y="-454.5" font-family="Helvetica,sans-Serif" font-size="10.00" fill="#000000">JsonUtilization.h</text>
</a>
</g>
</g>
<!-- Node1&#45;&gt;Node7 -->
<g id="edge7" class="edge">
<title>Node1&#45;&gt;Node7</title>
<path fill="none" stroke="#191970" d="M1262.6474,-508.9049C1379.449,-498.764 1681.6483,-472.5265 1805.8989,-461.7389"/>
<polygon fill="#191970" stroke="#191970" points="1806.2881,-465.2183 1815.9479,-460.8664 1805.6826,-458.2446 1806.2881,-465.2183"/>
</g>
<!-- Node3 -->
<g id="node4" class="node">
<title>Node3</title>
<g id="a_node4"><a xlink:href="_chessboard_8h.html" target="_top" xlink:title="This file contains the declaration of the Chessboard class. ">
<polygon fill="#ffffff" stroke="#000000" points="396.9804,-391.5 396.9804,-410.5 473.9804,-410.5 473.9804,-391.5 396.9804,-391.5"/>
<text text-anchor="middle" x="435.4804" y="-398.5" font-family="Helvetica,sans-Serif" font-size="10.00" fill="#000000">Chessboard.h</text>
</a>
</g>
</g>
<!-- Node2&#45;&gt;Node3 -->
<g id="edge3" class="edge">
<title>Node2&#45;&gt;Node3</title>
<path fill="none" stroke="#191970" d="M1089.8175,-452.4647C953.2863,-441.7263 612.168,-414.8968 484.626,-404.8654"/>
<polygon fill="#191970" stroke="#191970" points="484.6288,-401.3549 474.3851,-404.0599 484.0799,-408.3333 484.6288,-401.3549"/>
</g>
<!-- Node6 -->
<g id="node7" class="node">
<title>Node6</title>
<polygon fill="#ffffff" stroke="#bfbfbf" points="1077.4804,-391.5 1077.4804,-410.5 1217.4804,-410.5 1217.4804,-391.5 1077.4804,-391.5"/>
<text text-anchor="middle" x="1147.4804" y="-398.5" font-family="Helvetica,sans-Serif" font-size="10.00" fill="#000000">opencv2/calib3d/calib3d.hpp</text>
</g>
<!-- Node2&#45;&gt;Node6 -->
<g id="edge6" class="edge">
<title>Node2&#45;&gt;Node6</title>
<path fill="none" stroke="#191970" d="M1147.4804,-447.2455C1147.4804,-439.9382 1147.4804,-429.6944 1147.4804,-420.7046"/>
<polygon fill="#191970" stroke="#191970" points="1150.9805,-420.6426 1147.4804,-410.6427 1143.9805,-420.6427 1150.9805,-420.6426"/>
</g>
<!-- Node4 -->
<g id="node5" class="node">
<title>Node4</title>
<polygon fill="#ffffff" stroke="#bfbfbf" points="269.4804,-330 269.4804,-349 363.4804,-349 363.4804,-330 269.4804,-330"/>
<text text-anchor="middle" x="316.4804" y="-337" font-family="Helvetica,sans-Serif" font-size="10.00" fill="#000000">opencv2/core.hpp</text>
</g>
<!-- Node3&#45;&gt;Node4 -->
<g id="edge4" class="edge">
<title>Node3&#45;&gt;Node4</title>
<path fill="none" stroke="#191970" d="M416.8866,-391.3906C397.325,-381.2811 366.3303,-365.2628 343.9495,-353.6962"/>
<polygon fill="#191970" stroke="#191970" points="345.4342,-350.5238 334.9435,-349.0419 342.2204,-356.7425 345.4342,-350.5238"/>
</g>
<!-- Node5 -->
<g id="node6" class="node">
<title>Node5</title>
<polygon fill="#ffffff" stroke="#bfbfbf" points="381.9804,-330 381.9804,-349 488.9804,-349 488.9804,-330 381.9804,-330"/>
<text text-anchor="middle" x="435.4804" y="-337" font-family="Helvetica,sans-Serif" font-size="10.00" fill="#000000">opencv2/opencv.hpp</text>
</g>
<!-- Node3&#45;&gt;Node5 -->
<g id="edge5" class="edge">
<title>Node3&#45;&gt;Node5</title>
<path fill="none" stroke="#191970" d="M435.4804,-391.3906C435.4804,-382.8657 435.4804,-370.1392 435.4804,-359.4235"/>
<polygon fill="#191970" stroke="#191970" points="438.9805,-359.2448 435.4804,-349.2449 431.9805,-359.2449 438.9805,-359.2448"/>
</g>
<!-- Node8 -->
<g id="node9" class="node">
<title>Node8</title>
<g id="a_node9"><a xlink:href="json_8hpp.html" target="_top" xlink:title="nlohmann/json.hpp">
<polygon fill="#ffffff" stroke="#000000" points="1811.4804,-391.5 1811.4804,-410.5 1909.4804,-410.5 1909.4804,-391.5 1811.4804,-391.5"/>
<text text-anchor="middle" x="1860.4804" y="-398.5" font-family="Helvetica,sans-Serif" font-size="10.00" fill="#000000">nlohmann/json.hpp</text>
</a>
</g>
</g>
<!-- Node7&#45;&gt;Node8 -->
<g id="edge8" class="edge">
<title>Node7&#45;&gt;Node8</title>
<path fill="none" stroke="#191970" d="M1860.4804,-447.2455C1860.4804,-439.9382 1860.4804,-429.6944 1860.4804,-420.7046"/>
<polygon fill="#191970" stroke="#191970" points="1863.9805,-420.6426 1860.4804,-410.6427 1856.9805,-420.6427 1863.9805,-420.6426"/>
</g>
<!-- Node74 -->
<g id="node50" class="node">
<title>Node74</title>
<polygon fill="#ffffff" stroke="#bfbfbf" points="1927.4804,-391.5 1927.4804,-410.5 1977.4804,-410.5 1977.4804,-391.5 1927.4804,-391.5"/>
<text text-anchor="middle" x="1952.4804" y="-398.5" font-family="Helvetica,sans-Serif" font-size="10.00" fill="#000000">fstream</text>
</g>
<!-- Node7&#45;&gt;Node74 -->
<g id="edge166" class="edge">
<title>Node7&#45;&gt;Node74</title>
<path fill="none" stroke="#191970" d="M1876.5055,-447.2455C1890.6212,-438.6534 1911.4067,-426.0014 1927.6702,-416.1018"/>
<polygon fill="#191970" stroke="#191970" points="1929.9167,-418.8319 1936.6388,-410.6427 1926.277,-412.8525 1929.9167,-418.8319"/>
</g>
<!-- Node9 -->
<g id="node10" class="node">
<title>Node9</title>
<g id="a_node10"><a xlink:href="adl__serializer_8hpp.html" target="_top" xlink:title="nlohmann/adl_serializer.hpp">
<polygon fill="#ffffff" stroke="#000000" points="2408.9804,-330 2408.9804,-349 2545.9804,-349 2545.9804,-330 2408.9804,-330"/>
<text text-anchor="middle" x="2477.4804" y="-337" font-family="Helvetica,sans-Serif" font-size="10.00" fill="#000000">nlohmann/adl_serializer.hpp</text>
</a>
</g>
</g>
<!-- Node8&#45;&gt;Node9 -->
<g id="edge9" class="edge">
<title>Node8&#45;&gt;Node9</title>
<path fill="none" stroke="#191970" d="M1909.4829,-392.2428C1912.5234,-391.7951 1915.5411,-391.376 1918.4804,-391 2108.2707,-366.7223 2157.1224,-374.3293 2347.4804,-355 2363.9596,-353.3267 2381.5913,-351.35 2398.3839,-349.3782"/>
<polygon fill="#191970" stroke="#191970" points="2399.1949,-352.8067 2408.7134,-348.1539 2398.3709,-345.8553 2399.1949,-352.8067"/>
</g>
<!-- Node11 -->
<g id="node12" class="node">
<title>Node11</title>
<g id="a_node12"><a xlink:href="from__json_8hpp.html" target="_top" xlink:title="nlohmann/detail/conversions\l/from_json.hpp">
<polygon fill="#ffffff" stroke="#000000" points="3012.4804,-190.5 3012.4804,-220.5 3152.4804,-220.5 3152.4804,-190.5 3012.4804,-190.5"/>
<text text-anchor="start" x="3020.4804" y="-208.5" font-family="Helvetica,sans-Serif" font-size="10.00" fill="#000000">nlohmann/detail/conversions</text>
<text text-anchor="middle" x="3082.4804" y="-197.5" font-family="Helvetica,sans-Serif" font-size="10.00" fill="#000000">/from_json.hpp</text>
</a>
</g>
</g>
<!-- Node8&#45;&gt;Node11 -->
<g id="edge68" class="edge">
<title>Node8&#45;&gt;Node11</title>
<path fill="none" stroke="#191970" d="M1909.781,-392.0573C1912.7192,-391.662 1915.6356,-391.3045 1918.4804,-391 2105.5817,-370.9732 2581.7482,-399.9105 2764.4804,-355 2875.5939,-327.6914 2994.5877,-260.1499 3050.2716,-225.9875"/>
<polygon fill="#191970" stroke="#191970" points="3052.3083,-228.8432 3058.9705,-220.6051 3048.6251,-222.8905 3052.3083,-228.8432"/>
</g>
<!-- Node23 -->
<g id="node24" class="node">
<title>Node23</title>
<g id="a_node24"><a xlink:href="exceptions_8hpp.html" target="_top" xlink:title="nlohmann/detail/exceptions.hpp">
<polygon fill="#ffffff" stroke="#000000" points="618.4804,-129 618.4804,-148 772.4804,-148 772.4804,-129 618.4804,-129"/>
<text text-anchor="middle" x="695.4804" y="-136" font-family="Helvetica,sans-Serif" font-size="10.00" fill="#000000">nlohmann/detail/exceptions.hpp</text>
</a>
</g>
</g>
<!-- Node8&#45;&gt;Node23 -->
<g id="edge70" class="edge">
<title>Node8&#45;&gt;Node23</title>
<path fill="none" stroke="#191970" d="M1811.3447,-399.9581C1614.5864,-395.6329 892.0997,-378.2273 849.4804,-355 767.9127,-310.5461 719.3737,-202.0454 702.3778,-157.7811"/>
<polygon fill="#191970" stroke="#191970" points="705.5852,-156.3645 698.8163,-148.214 699.0251,-158.8067 705.5852,-156.3645"/>
</g>
<!-- Node28 -->
<g id="node28" class="node">
<title>Node28</title>
<g id="a_node28"><a xlink:href="macro__scope_8hpp.html" target="_top" xlink:title="nlohmann/detail/macro\l_scope.hpp">
<polygon fill="#ffffff" stroke="#ff0000" points="994.9804,-56.5 994.9804,-86.5 1109.9804,-86.5 1109.9804,-56.5 994.9804,-56.5"/>
<text text-anchor="start" x="1002.9804" y="-74.5" font-family="Helvetica,sans-Serif" font-size="10.00" fill="#000000">nlohmann/detail/macro</text>
<text text-anchor="middle" x="1052.4804" y="-63.5" font-family="Helvetica,sans-Serif" font-size="10.00" fill="#000000">_scope.hpp</text>
</a>
</g>
</g>
<!-- Node8&#45;&gt;Node28 -->
<g id="edge134" class="edge">
<title>Node8&#45;&gt;Node28</title>
<path fill="none" stroke="#191970" d="M1848.8612,-391.4908C1798.6377,-350.9681 1593.8268,-191.6438 1396.4804,-123 1279.641,-82.3593 1242.2554,-108.7705 1120.4804,-87 1120.3761,-86.9814 1120.2717,-86.9627 1120.1672,-86.9439"/>
<polygon fill="#191970" stroke="#191970" points="1120.7536,-83.4928 1110.276,-85.0645 1119.4469,-90.3697 1120.7536,-83.4928"/>
</g>
<!-- Node31 -->
<g id="node29" class="node">
<title>Node31</title>
<g id="a_node29"><a xlink:href="cpp__future_8hpp.html" target="_top" xlink:title="nlohmann/detail/meta\l/cpp_future.hpp">
<polygon fill="#ffffff" stroke="#ff0000" points="2912.4804,-56.5 2912.4804,-86.5 3022.4804,-86.5 3022.4804,-56.5 2912.4804,-56.5"/>
<text text-anchor="start" x="2920.4804" y="-74.5" font-family="Helvetica,sans-Serif" font-size="10.00" fill="#000000">nlohmann/detail/meta</text>
<text text-anchor="middle" x="2967.4804" y="-63.5" font-family="Helvetica,sans-Serif" font-size="10.00" fill="#000000">/cpp_future.hpp</text>
</a>
</g>
</g>
<!-- Node8&#45;&gt;Node31 -->
<g id="edge135" class="edge">
<title>Node8&#45;&gt;Node31</title>
<path fill="none" stroke="#191970" d="M1909.78,-392.0479C1912.7185,-391.655 1915.6351,-391.3006 1918.4804,-391 2318.7933,-348.7122 2422.0614,-385.0253 2823.4804,-355 2990.6852,-342.4934 3573.4804,-440.172 3573.4804,-272.5 3573.4804,-272.5 3573.4804,-272.5 3573.4804,-205.5 3573.4804,-142.2353 3516.6569,-145.3731 3457.4804,-123 3381.3672,-94.2236 3147.7421,-79.7747 3032.7693,-74.2514"/>
<polygon fill="#191970" stroke="#191970" points="3032.8451,-70.7512 3022.6911,-73.7755 3032.5149,-77.7434 3032.8451,-70.7512"/>
</g>
<!-- Node32 -->
<g id="node30" class="node">
<title>Node32</title>
<g id="a_node30"><a xlink:href="type__traits_8hpp.html" target="_top" xlink:title="nlohmann/detail/meta\l/type_traits.hpp">
<polygon fill="#ffffff" stroke="#ff0000" points="2722.4804,-123.5 2722.4804,-153.5 2832.4804,-153.5 2832.4804,-123.5 2722.4804,-123.5"/>
<text text-anchor="start" x="2730.4804" y="-141.5" font-family="Helvetica,sans-Serif" font-size="10.00" fill="#000000">nlohmann/detail/meta</text>
<text text-anchor="middle" x="2777.4804" y="-130.5" font-family="Helvetica,sans-Serif" font-size="10.00" fill="#000000">/type_traits.hpp</text>
</a>
</g>
</g>
<!-- Node8&#45;&gt;Node32 -->
<g id="edge136" class="edge">
<title>Node8&#45;&gt;Node32</title>
<path fill="none" stroke="#191970" d="M1909.7825,-392.0715C1912.7204,-391.6726 1915.6362,-391.3105 1918.4804,-391 2003.6236,-381.706 2620.4709,-407.0622 2688.4804,-355 2749.6408,-308.1808 2707.2556,-259.0022 2741.4804,-190 2746.3519,-180.1783 2752.9467,-170.1312 2759.161,-161.5492"/>
<polygon fill="#191970" stroke="#191970" points="2761.9815,-163.6218 2765.1706,-153.5183 2756.3769,-159.4279 2761.9815,-163.6218"/>
</g>
<!-- Node37 -->
<g id="node31" class="node">
<title>Node37</title>
<g id="a_node31"><a xlink:href="json__fwd_8hpp.html" target="_top" xlink:title="nlohmann/json_fwd.hpp">
<polygon fill="#ffffff" stroke="#ff0000" points="1223.9804,-62 1223.9804,-81 1342.9804,-81 1342.9804,-62 1223.9804,-62"/>
<text text-anchor="middle" x="1283.4804" y="-69" font-family="Helvetica,sans-Serif" font-size="10.00" fill="#000000">nlohmann/json_fwd.hpp</text>
</a>
</g>
</g>
<!-- Node8&#45;&gt;Node37 -->
<g id="edge164" class="edge">
<title>Node8&#45;&gt;Node37</title>
<path fill="none" stroke="#191970" d="M1811.4386,-400.4568C1641.2034,-398.2828 1082.2107,-388.6295 1009.4804,-355 935.0028,-320.5626 912.8619,-297.2221 882.4804,-221 877.379,-208.2015 874.2332,-201.0368 882.4804,-190 903.7699,-161.5091 1127.4609,-107.195 1231.1908,-83.2906"/>
<polygon fill="#191970" stroke="#191970" points="1232.1792,-86.6548 1241.1424,-81.0058 1230.6127,-79.8323 1232.1792,-86.6548"/>
</g>
<!-- Node41 -->
<g id="node33" class="node">
<title>Node41</title>
<g id="a_node33"><a xlink:href="value__t_8hpp.html" target="_top" xlink:title="nlohmann/detail/value\l_t.hpp">
<polygon fill="#ffffff" stroke="#ff0000" points="1524.9804,-123.5 1524.9804,-153.5 1635.9804,-153.5 1635.9804,-123.5 1524.9804,-123.5"/>
<text text-anchor="start" x="1532.9804" y="-141.5" font-family="Helvetica,sans-Serif" font-size="10.00" fill="#000000">nlohmann/detail/value</text>
<text text-anchor="middle" x="1580.4804" y="-130.5" font-family="Helvetica,sans-Serif" font-size="10.00" fill="#000000">_t.hpp</text>
</a>
</g>
</g>
<!-- Node8&#45;&gt;Node41 -->
<g id="edge163" class="edge">
<title>Node8&#45;&gt;Node41</title>
<path fill="none" stroke="#191970" d="M1861.7132,-391.4185C1864.3831,-366.4641 1868.1277,-298.5255 1836.4804,-257 1790.2469,-196.3356 1705.5205,-165.6257 1646.2474,-150.8761"/>
<polygon fill="#191970" stroke="#191970" points="1646.7687,-147.402 1636.2283,-148.4738 1645.1365,-154.209 1646.7687,-147.402"/>
</g>
<!-- Node42 -->
<g id="node34" class="node">
<title>Node42</title>
<g id="a_node34"><a xlink:href="to__json_8hpp.html" target="_top" xlink:title="nlohmann/detail/conversions\l/to_json.hpp">
<polygon fill="#ffffff" stroke="#000000" points="2407.4804,-257.5 2407.4804,-287.5 2547.4804,-287.5 2547.4804,-257.5 2407.4804,-257.5"/>
<text text-anchor="start" x="2415.4804" y="-275.5" font-family="Helvetica,sans-Serif" font-size="10.00" fill="#000000">nlohmann/detail/conversions</text>
<text text-anchor="middle" x="2477.4804" y="-264.5" font-family="Helvetica,sans-Serif" font-size="10.00" fill="#000000">/to_json.hpp</text>
</a>
</g>
</g>
<!-- Node8&#45;&gt;Node42 -->
<g id="edge69" class="edge">
<title>Node8&#45;&gt;Node42</title>
<path fill="none" stroke="#191970" d="M1909.4972,-392.3482C1912.5342,-391.8743 1915.5471,-391.4207 1918.4804,-391 2057.5275,-371.0586 2095.3804,-385.5834 2232.4804,-355 2303.5263,-339.1515 2382.8886,-310.2707 2431.5132,-291.232"/>
<polygon fill="#191970" stroke="#191970" points="2432.7986,-294.4875 2440.8168,-287.5622 2430.23,-287.9757 2432.7986,-294.4875"/>
</g>
<!-- Node43 -->
<g id="node35" class="node">
<title>Node43</title>
<g id="a_node35"><a xlink:href="iteration__proxy_8hpp.html" target="_top" xlink:title="nlohmann/detail/iterators\l/iteration_proxy.hpp">
<polygon fill="#ffffff" stroke="#ff0000" points="2002.9804,-190.5 2002.9804,-220.5 2125.9804,-220.5 2125.9804,-190.5 2002.9804,-190.5"/>
<text text-anchor="start" x="2010.9804" y="-208.5" font-family="Helvetica,sans-Serif" font-size="10.00" fill="#000000">nlohmann/detail/iterators</text>
<text text-anchor="middle" x="2064.4804" y="-197.5" font-family="Helvetica,sans-Serif" font-size="10.00" fill="#000000">/iteration_proxy.hpp</text>
</a>
</g>
</g>
<!-- Node8&#45;&gt;Node43 -->
<g id="edge118" class="edge">
<title>Node8&#45;&gt;Node43</title>
<path fill="none" stroke="#191970" d="M1886.3496,-391.4274C1905.3965,-383.5548 1931.2221,-371.0867 1950.4804,-355 1994.4837,-318.2434 2031.7742,-261.54 2050.846,-229.57"/>
<polygon fill="#191970" stroke="#191970" points="2053.9095,-231.2649 2055.9502,-220.8684 2047.8716,-227.7231 2053.9095,-231.2649"/>
</g>
<!-- Node44 -->
<g id="node36" class="node">
<title>Node44</title>
<g id="a_node36"><a xlink:href="binary__reader_8hpp.html" target="_top" xlink:title="nlohmann/detail/input\l/binary_reader.hpp">
<polygon fill="#ffffff" stroke="#ff0000" points="1139.9804,-190.5 1139.9804,-220.5 1248.9804,-220.5 1248.9804,-190.5 1139.9804,-190.5"/>
<text text-anchor="start" x="1147.9804" y="-208.5" font-family="Helvetica,sans-Serif" font-size="10.00" fill="#000000">nlohmann/detail/input</text>
<text text-anchor="middle" x="1194.4804" y="-197.5" font-family="Helvetica,sans-Serif" font-size="10.00" fill="#000000">/binary_reader.hpp</text>
</a>
</g>
</g>
<!-- Node8&#45;&gt;Node44 -->
<g id="edge71" class="edge">
<title>Node8&#45;&gt;Node44</title>
<path fill="none" stroke="#191970" d="M1811.2312,-398.3439C1715.2004,-392.7213 1506.3914,-378.1962 1438.4804,-355 1351.6526,-325.3425 1263.1116,-260.6668 1220.5205,-226.9355"/>
<polygon fill="#191970" stroke="#191970" points="1222.624,-224.136 1212.6291,-220.6213 1218.2507,-229.6018 1222.624,-224.136"/>
</g>
<!-- Node49 -->
<g id="node37" class="node">
<title>Node49</title>
<g id="a_node37"><a xlink:href="input__adapters_8hpp.html" target="_top" xlink:title="nlohmann/detail/input\l/input_adapters.hpp">
<polygon fill="#ffffff" stroke="#ff0000" points="828.9804,-123.5 828.9804,-153.5 937.9804,-153.5 937.9804,-123.5 828.9804,-123.5"/>
<text text-anchor="start" x="836.9804" y="-141.5" font-family="Helvetica,sans-Serif" font-size="10.00" fill="#000000">nlohmann/detail/input</text>
<text text-anchor="middle" x="883.4804" y="-130.5" font-family="Helvetica,sans-Serif" font-size="10.00" fill="#000000">/input_adapters.hpp</text>
</a>
</g>
</g>
<!-- Node8&#45;&gt;Node49 -->
<g id="edge87" class="edge">
<title>Node8&#45;&gt;Node49</title>
<path fill="none" stroke="#191970" d="M1811.2307,-398.5451C1703.726,-392.8377 1451.0626,-377.4323 1368.4804,-355 1201.3547,-309.6026 1174.6782,-258.1759 1015.4804,-190 988.7302,-178.5443 958.5159,-166.6789 933.7511,-157.2286"/>
<polygon fill="#191970" stroke="#191970" points="934.7891,-153.879 924.1979,-153.5995 932.3031,-160.4227 934.7891,-153.879"/>
</g>
<!-- Node54 -->
<g id="node38" class="node">
<title>Node54</title>
<g id="a_node38"><a xlink:href="lexer_8hpp.html" target="_top" xlink:title="nlohmann/detail/input\l/lexer.hpp">
<polygon fill="#ffffff" stroke="#ff0000" points="148.9804,-190.5 148.9804,-220.5 257.9804,-220.5 257.9804,-190.5 148.9804,-190.5"/>
<text text-anchor="start" x="156.9804" y="-208.5" font-family="Helvetica,sans-Serif" font-size="10.00" fill="#000000">nlohmann/detail/input</text>
<text text-anchor="middle" x="203.4804" y="-197.5" font-family="Helvetica,sans-Serif" font-size="10.00" fill="#000000">/lexer.hpp</text>
</a>
</g>
</g>
<!-- Node8&#45;&gt;Node54 -->
<g id="edge88" class="edge">
<title>Node8&#45;&gt;Node54</title>
<path fill="none" stroke="#191970" d="M1811.3965,-400.0951C1595.0841,-395.9845 732.341,-378.2616 613.4804,-355 540.9329,-340.8021 340.7569,-261.3828 249.6792,-224.4236"/>
<polygon fill="#191970" stroke="#191970" points="250.7512,-221.0813 240.1693,-220.5579 248.1152,-227.5661 250.7512,-221.0813"/>
</g>
<!-- Node57 -->
<g id="node39" class="node">
<title>Node57</title>
<g id="a_node39"><a xlink:href="parser_8hpp.html" target="_top" xlink:title="nlohmann/detail/input\l/parser.hpp">
<polygon fill="#ffffff" stroke="#ff0000" points="583.9804,-257.5 583.9804,-287.5 692.9804,-287.5 692.9804,-257.5 583.9804,-257.5"/>
<text text-anchor="start" x="591.9804" y="-275.5" font-family="Helvetica,sans-Serif" font-size="10.00" fill="#000000">nlohmann/detail/input</text>
<text text-anchor="middle" x="638.4804" y="-264.5" font-family="Helvetica,sans-Serif" font-size="10.00" fill="#000000">/parser.hpp</text>
</a>
</g>
</g>
<!-- Node8&#45;&gt;Node57 -->
<g id="edge96" class="edge">
<title>Node8&#45;&gt;Node57</title>
<path fill="none" stroke="#191970" d="M1811.3332,-399.9622C1600.0241,-395.378 777.1359,-376.2288 726.4804,-355 696.9054,-342.6057 671.2263,-315.522 655.3637,-295.756"/>
<polygon fill="#191970" stroke="#191970" points="658.0813,-293.549 649.1837,-287.7971 652.5523,-297.8421 658.0813,-293.549"/>
</g>
<!-- Node59 -->
<g id="node40" class="node">
<title>Node59</title>
<g id="a_node40"><a xlink:href="internal__iterator_8hpp.html" target="_top" xlink:title="nlohmann/detail/iterators\l/internal_iterator.hpp">
<polygon fill="#ffffff" stroke="#000000" points="2106.9804,-123.5 2106.9804,-153.5 2229.9804,-153.5 2229.9804,-123.5 2106.9804,-123.5"/>
<text text-anchor="start" x="2114.9804" y="-141.5" font-family="Helvetica,sans-Serif" font-size="10.00" fill="#000000">nlohmann/detail/iterators</text>
<text text-anchor="middle" x="2168.4804" y="-130.5" font-family="Helvetica,sans-Serif" font-size="10.00" fill="#000000">/internal_iterator.hpp</text>
</a>
</g>
</g>
<!-- Node8&#45;&gt;Node59 -->
<g id="edge105" class="edge">
<title>Node8&#45;&gt;Node59</title>
<path fill="none" stroke="#191970" d="M1894.5199,-391.4661C1919.3723,-383.6863 1953.3234,-371.3179 1980.4804,-355 2058.2487,-308.2711 2081.5563,-294.6922 2134.4804,-221 2147.0526,-203.4942 2156.0017,-180.6497 2161.5525,-163.4394"/>
<polygon fill="#191970" stroke="#191970" points="2164.9992,-164.136 2164.5715,-153.5498 2158.3042,-162.0922 2164.9992,-164.136"/>
</g>
<!-- Node60 -->
<g id="node41" class="node">
<title>Node60</title>
<g id="a_node41"><a xlink:href="primitive__iterator_8hpp.html" target="_top" xlink:title="nlohmann/detail/iterators\l/primitive_iterator.hpp">
<polygon fill="#ffffff" stroke="#ff0000" points="2106.9804,-56.5 2106.9804,-86.5 2229.9804,-86.5 2229.9804,-56.5 2106.9804,-56.5"/>
<text text-anchor="start" x="2114.9804" y="-74.5" font-family="Helvetica,sans-Serif" font-size="10.00" fill="#000000">nlohmann/detail/iterators</text>
<text text-anchor="middle" x="2168.4804" y="-63.5" font-family="Helvetica,sans-Serif" font-size="10.00" fill="#000000">/primitive_iterator.hpp</text>
</a>
</g>
</g>
<!-- Node8&#45;&gt;Node60 -->
<g id="edge122" class="edge">
<title>Node8&#45;&gt;Node60</title>
<path fill="none" stroke="#191970" d="M1867.5154,-391.2431C1874.1143,-382.0085 1884.1819,-367.7065 1892.4804,-355 1939.4954,-283.0113 1934.0947,-252.1782 1993.4804,-190 2033.6641,-147.9267 2091.206,-112.5115 2129.1873,-91.6474"/>
<polygon fill="#191970" stroke="#191970" points="2131.2712,-94.4994 2138.3997,-86.6613 2127.9392,-88.3432 2131.2712,-94.4994"/>
</g>
<!-- Node61 -->
<g id="node42" class="node">
<title>Node61</title>
<g id="a_node42"><a xlink:href="iter__impl_8hpp.html" target="_top" xlink:title="nlohmann/detail/iterators\l/iter_impl.hpp">
<polygon fill="#ffffff" stroke="#000000" points="2182.9804,-190.5 2182.9804,-220.5 2305.9804,-220.5 2305.9804,-190.5 2182.9804,-190.5"/>
<text text-anchor="start" x="2190.9804" y="-208.5" font-family="Helvetica,sans-Serif" font-size="10.00" fill="#000000">nlohmann/detail/iterators</text>
<text text-anchor="middle" x="2244.4804" y="-197.5" font-family="Helvetica,sans-Serif" font-size="10.00" fill="#000000">/iter_impl.hpp</text>
</a>
</g>
</g>
<!-- Node8&#45;&gt;Node61 -->
<g id="edge107" class="edge">
<title>Node8&#45;&gt;Node61</title>
<path fill="none" stroke="#191970" d="M1909.5123,-392.4479C1912.5455,-391.9493 1915.5535,-391.463 1918.4804,-391 1973.9197,-382.2308 2122.8556,-387.6926 2168.4804,-355 2210.3383,-325.0066 2230.6341,-265.1016 2239.1823,-230.9297"/>
<polygon fill="#191970" stroke="#191970" points="2242.6799,-231.3448 2241.5574,-220.8096 2235.8651,-229.7454 2242.6799,-231.3448"/>
</g>
<!-- Node62 -->
<g id="node43" class="node">
<title>Node62</title>
<g id="a_node43"><a xlink:href="json__reverse__iterator_8hpp.html" target="_top" xlink:title="nlohmann/detail/iterators\l/json_reverse_iterator.hpp">
<polygon fill="#ffffff" stroke="#ff0000" points="1844.9804,-123.5 1844.9804,-153.5 1973.9804,-153.5 1973.9804,-123.5 1844.9804,-123.5"/>
<text text-anchor="start" x="1852.9804" y="-141.5" font-family="Helvetica,sans-Serif" font-size="10.00" fill="#000000">nlohmann/detail/iterators</text>
<text text-anchor="middle" x="1909.4804" y="-130.5" font-family="Helvetica,sans-Serif" font-size="10.00" fill="#000000">/json_reverse_iterator.hpp</text>
</a>
</g>
</g>
<!-- Node8&#45;&gt;Node62 -->
<g id="edge119" class="edge">
<title>Node8&#45;&gt;Node62</title>
<path fill="none" stroke="#191970" d="M1863.8735,-391.2337C1866.9834,-381.9924 1871.5387,-367.6859 1874.4804,-355 1890.3555,-286.5391 1901.5332,-204.2525 1906.5346,-163.6661"/>
<polygon fill="#191970" stroke="#191970" points="1910.0262,-163.9453 1907.7533,-153.5971 1903.077,-163.1041 1910.0262,-163.9453"/>
</g>
<!-- Node63 -->
<g id="node44" class="node">
<title>Node63</title>
<g id="a_node44"><a xlink:href="json__pointer_8hpp.html" target="_top" xlink:title="nlohmann/detail/json\l_pointer.hpp">
<polygon fill="#ffffff" stroke="#ff0000" points="440.4804,-190.5 440.4804,-220.5 546.4804,-220.5 546.4804,-190.5 440.4804,-190.5"/>
<text text-anchor="start" x="448.4804" y="-208.5" font-family="Helvetica,sans-Serif" font-size="10.00" fill="#000000">nlohmann/detail/json</text>
<text text-anchor="middle" x="493.4804" y="-197.5" font-family="Helvetica,sans-Serif" font-size="10.00" fill="#000000">_pointer.hpp</text>
</a>
</g>
</g>
<!-- Node8&#45;&gt;Node63 -->
<g id="edge123" class="edge">
<title>Node8&#45;&gt;Node63</title>
<path fill="none" stroke="#191970" d="M1811.4055,-400.6015C1601.9462,-398.6961 788.5252,-389.1436 679.4804,-355 606.6417,-332.1931 542.311,-264.7866 511.9656,-228.7844"/>
<polygon fill="#191970" stroke="#191970" points="514.4069,-226.2445 505.3358,-220.7703 509.0133,-230.7065 514.4069,-226.2445"/>
</g>
<!-- Node65 -->
<g id="node45" class="node">
<title>Node65</title>
<g id="a_node45"><a xlink:href="json__ref_8hpp.html" target="_top" xlink:title="nlohmann/detail/json\l_ref.hpp">
<polygon fill="#ffffff" stroke="#ff0000" points="2750.4804,-190.5 2750.4804,-220.5 2856.4804,-220.5 2856.4804,-190.5 2750.4804,-190.5"/>
<text text-anchor="start" x="2758.4804" y="-208.5" font-family="Helvetica,sans-Serif" font-size="10.00" fill="#000000">nlohmann/detail/json</text>
<text text-anchor="middle" x="2803.4804" y="-197.5" font-family="Helvetica,sans-Serif" font-size="10.00" fill="#000000">_ref.hpp</text>
</a>
</g>
</g>
<!-- Node8&#45;&gt;Node65 -->
<g id="edge131" class="edge">
<title>Node8&#45;&gt;Node65</title>
<path fill="none" stroke="#191970" d="M1909.7815,-392.0622C1912.7196,-391.6657 1915.6358,-391.3066 1918.4804,-391 2008.9334,-381.2516 2661.2262,-406.1234 2736.4804,-355 2778.3019,-326.5888 2794.3484,-265.5502 2800.2503,-230.8949"/>
<polygon fill="#191970" stroke="#191970" points="2803.7658,-231.0615 2801.8298,-220.645 2796.8475,-229.9952 2803.7658,-231.0615"/>
</g>
<!-- Node66 -->
<g id="node46" class="node">
<title>Node66</title>
<g id="a_node46"><a xlink:href="binary__writer_8hpp.html" target="_top" xlink:title="nlohmann/detail/output\l/binary_writer.hpp">
<polygon fill="#ffffff" stroke="#ff0000" points="1015.9804,-257.5 1015.9804,-287.5 1130.9804,-287.5 1130.9804,-257.5 1015.9804,-257.5"/>
<text text-anchor="start" x="1023.9804" y="-275.5" font-family="Helvetica,sans-Serif" font-size="10.00" fill="#000000">nlohmann/detail/output</text>
<text text-anchor="middle" x="1073.4804" y="-264.5" font-family="Helvetica,sans-Serif" font-size="10.00" fill="#000000">/binary_writer.hpp</text>
</a>
</g>
</g>
<!-- Node8&#45;&gt;Node66 -->
<g id="edge137" class="edge">
<title>Node8&#45;&gt;Node66</title>
<path fill="none" stroke="#191970" d="M1811.2316,-400.0134C1659.3397,-396.6692 1204.7991,-384.2972 1145.4804,-355 1119.73,-342.282 1099.2974,-315.8434 1086.8739,-296.3073"/>
<polygon fill="#191970" stroke="#191970" points="1089.777,-294.3452 1081.5847,-287.6267 1083.7992,-297.9875 1089.777,-294.3452"/>
</g>
<!-- Node67 -->
<g id="node47" class="node">
<title>Node67</title>
<g id="a_node47"><a xlink:href="output__adapters_8hpp.html" target="_top" xlink:title="nlohmann/detail/output\l/output_adapters.hpp">
<polygon fill="#ffffff" stroke="#ff0000" points="891.9804,-190.5 891.9804,-220.5 1006.9804,-220.5 1006.9804,-190.5 891.9804,-190.5"/>
<text text-anchor="start" x="899.9804" y="-208.5" font-family="Helvetica,sans-Serif" font-size="10.00" fill="#000000">nlohmann/detail/output</text>
<text text-anchor="middle" x="949.4804" y="-197.5" font-family="Helvetica,sans-Serif" font-size="10.00" fill="#000000">/output_adapters.hpp</text>
</a>
</g>
</g>
<!-- Node8&#45;&gt;Node67 -->
<g id="edge149" class="edge">
<title>Node8&#45;&gt;Node67</title>
<path fill="none" stroke="#191970" d="M1811.3525,-400.5866C1665.9064,-398.9566 1239.3107,-391.1398 1105.4804,-355 1041.5813,-337.7446 1014.51,-339.1307 972.4804,-288 959.1252,-271.7529 953.5066,-248.274 951.1524,-230.5146"/>
<polygon fill="#191970" stroke="#191970" points="954.632,-230.1362 950.089,-220.5648 947.6716,-230.8801 954.632,-230.1362"/>
</g>
<!-- Node70 -->
<g id="node48" class="node">
<title>Node70</title>
<g id="a_node48"><a xlink:href="serializer_8hpp.html" target="_top" xlink:title="nlohmann/detail/output\l/serializer.hpp">
<polygon fill="#ffffff" stroke="#ff0000" points="1447.9804,-324.5 1447.9804,-354.5 1562.9804,-354.5 1562.9804,-324.5 1447.9804,-324.5"/>
<text text-anchor="start" x="1455.9804" y="-342.5" font-family="Helvetica,sans-Serif" font-size="10.00" fill="#000000">nlohmann/detail/output</text>
<text text-anchor="middle" x="1505.4804" y="-331.5" font-family="Helvetica,sans-Serif" font-size="10.00" fill="#000000">/serializer.hpp</text>
</a>
</g>
</g>
<!-- Node8&#45;&gt;Node70 -->
<g id="edge150" class="edge">
<title>Node8&#45;&gt;Node70</title>
<path fill="none" stroke="#191970" d="M1811.1191,-392.4487C1749.1984,-381.7216 1642.7297,-363.277 1573.2227,-351.2356"/>
<polygon fill="#191970" stroke="#191970" points="1573.6962,-347.7656 1563.2455,-349.5072 1572.5012,-354.6629 1573.6962,-347.7656"/>
</g>
<!-- Node72 -->
<g id="node49" class="node">
<title>Node72</title>
<g id="a_node49"><a xlink:href="macro__unscope_8hpp.html" target="_top" xlink:title="nlohmann/detail/macro\l_unscope.hpp">
<polygon fill="#ffffff" stroke="#ff0000" points="2563.9804,-324.5 2563.9804,-354.5 2678.9804,-354.5 2678.9804,-324.5 2563.9804,-324.5"/>
<text text-anchor="start" x="2571.9804" y="-342.5" font-family="Helvetica,sans-Serif" font-size="10.00" fill="#000000">nlohmann/detail/macro</text>
<text text-anchor="middle" x="2621.4804" y="-331.5" font-family="Helvetica,sans-Serif" font-size="10.00" fill="#000000">_unscope.hpp</text>
</a>
</g>
</g>
<!-- Node8&#45;&gt;Node72 -->
<g id="edge165" class="edge">
<title>Node8&#45;&gt;Node72</title>
<path fill="none" stroke="#191970" d="M1909.7862,-392.1044C1912.7231,-391.6973 1915.6378,-391.3243 1918.4804,-391 2196.9141,-359.2346 2273.0573,-394.7181 2553.5755,-355.125"/>
<polygon fill="#191970" stroke="#191970" points="2554.2379,-358.5659 2563.6413,-353.6846 2553.2463,-351.6365 2554.2379,-358.5659"/>
</g>
<!-- Node10 -->
<g id="node11" class="node">
<title>Node10</title>
<polygon fill="#ffffff" stroke="#bfbfbf" points="1644.4804,-.5 1644.4804,-19.5 1684.4804,-19.5 1684.4804,-.5 1644.4804,-.5"/>
<text text-anchor="middle" x="1664.4804" y="-7.5" font-family="Helvetica,sans-Serif" font-size="10.00" fill="#000000">utility</text>
</g>
<!-- Node9&#45;&gt;Node10 -->
<g id="edge10" class="edge">
<title>Node9&#45;&gt;Node10</title>
<path fill="none" stroke="#191970" d="M2494.8134,-329.8789C2546.287,-300.0498 2691.395,-206.1304 2637.4804,-123 2617.6154,-92.3704 2522.959,-64.6054 2487.4804,-56 2332.5965,-18.4326 1824.2017,-11.4147 1694.7063,-10.2253"/>
<polygon fill="#191970" stroke="#191970" points="1694.7298,-6.7254 1684.6997,-10.1382 1694.6688,-13.7252 1694.7298,-6.7254"/>
</g>
<!-- Node9&#45;&gt;Node11 -->
<g id="edge11" class="edge">
<title>Node9&#45;&gt;Node11</title>
<path fill="none" stroke="#191970" d="M2520.5055,-329.9705C2621.6682,-307.5642 2875.7918,-251.279 3004.7775,-222.7102"/>
<polygon fill="#191970" stroke="#191970" points="3005.5923,-226.1147 3014.5988,-220.5349 3004.0785,-219.2803 3005.5923,-226.1147"/>
</g>
<!-- Node9&#45;&gt;Node42 -->
<g id="edge49" class="edge">
<title>Node9&#45;&gt;Node42</title>
<path fill="none" stroke="#191970" d="M2477.4804,-329.9005C2477.4804,-321.5099 2477.4804,-308.9451 2477.4804,-297.7085"/>
<polygon fill="#191970" stroke="#191970" points="2480.9805,-297.5217 2477.4804,-287.5218 2473.9805,-297.5218 2480.9805,-297.5217"/>
</g>
<!-- Node11&#45;&gt;Node10 -->
<g id="edge22" class="edge">
<title>Node11&#45;&gt;Node10</title>
<path fill="none" stroke="#191970" d="M3119.7481,-190.4585C3153.5628,-174.6911 3194.9539,-148.6815 3172.4804,-123 3132.7633,-77.6135 2959.5148,-109.3053 2903.4804,-87 2881.5911,-78.2867 2882.7571,-63.6687 2860.4804,-56 2747.2973,-17.0373 1868.8916,-10.947 1694.5152,-10.119"/>
<polygon fill="#191970" stroke="#191970" points="1694.5175,-6.619 1684.5017,-10.0736 1694.4858,-13.619 1694.5175,-6.619"/>
</g>
<!-- Node12 -->
<g id="node13" class="node">
<title>Node12</title>
<polygon fill="#ffffff" stroke="#bfbfbf" points="1298.4804,-129 1298.4804,-148 1354.4804,-148 1354.4804,-129 1298.4804,-129"/>
<text text-anchor="middle" x="1326.4804" y="-136" font-family="Helvetica,sans-Serif" font-size="10.00" fill="#000000">algorithm</text>
</g>
<!-- Node11&#45;&gt;Node12 -->
<g id="edge12" class="edge">
<title>Node11&#45;&gt;Node12</title>
<path fill="none" stroke="#191970" d="M3012.1639,-199.6788C2969.7142,-196.3636 2914.5219,-192.4042 2865.4804,-190 2265.987,-160.611 2114.8108,-186.5419 1515.4804,-154 1463.1949,-151.161 1402.9258,-145.8669 1364.7745,-142.264"/>
<polygon fill="#191970" stroke="#191970" points="1364.9126,-138.7614 1354.6255,-141.2961 1364.248,-145.7298 1364.9126,-138.7614"/>
</g>
<!-- Node13 -->
<g id="node14" class="node">
<title>Node13</title>
<polygon fill="#ffffff" stroke="#bfbfbf" points="1129.4804,-62 1129.4804,-81 1167.4804,-81 1167.4804,-62 1129.4804,-62"/>
<text text-anchor="middle" x="1148.4804" y="-69" font-family="Helvetica,sans-Serif" font-size="10.00" fill="#000000">array</text>
</g>
<!-- Node11&#45;&gt;Node13 -->
<g id="edge13" class="edge">
<title>Node11&#45;&gt;Node13</title>
<path fill="none" stroke="#191970" d="M3083.013,-190.3868C3082.7682,-171.2234 3079.0859,-138.7821 3058.4804,-123 3017.8076,-91.8481 1265.312,-93.3921 1214.4804,-87 1202.2311,-85.4596 1188.9397,-82.5794 1177.5165,-79.7159"/>
<polygon fill="#191970" stroke="#191970" points="1178.1948,-76.2756 1167.6344,-77.1298 1176.4225,-83.0476 1178.1948,-76.2756"/>
</g>
<!-- Node14 -->
<g id="node15" class="node">
<title>Node14</title>
<polygon fill="#ffffff" stroke="#bfbfbf" points="2669.4804,-.5 2669.4804,-19.5 2719.4804,-19.5 2719.4804,-.5 2669.4804,-.5"/>
<text text-anchor="middle" x="2694.4804" y="-7.5" font-family="Helvetica,sans-Serif" font-size="10.00" fill="#000000">ciso646</text>
</g>
<!-- Node11&#45;&gt;Node14 -->
<g id="edge14" class="edge">
<title>Node11&#45;&gt;Node14</title>
<path fill="none" stroke="#191970" d="M3145.2527,-190.4629C3187.7502,-177.0924 3232.4762,-154.7193 3210.4804,-123 3155.0382,-43.0492 2837.0182,-18.0029 2729.7809,-11.7713"/>
<polygon fill="#191970" stroke="#191970" points="2729.9672,-8.2764 2719.7866,-11.21 2729.5746,-15.2653 2729.9672,-8.2764"/>
</g>
<!-- Node15 -->
<g id="node16" class="node">
<title>Node15</title>
<polygon fill="#ffffff" stroke="#bfbfbf" points="3262.9804,-129 3262.9804,-148 3329.9804,-148 3329.9804,-129 3262.9804,-129"/>
<text text-anchor="middle" x="3296.4804" y="-136" font-family="Helvetica,sans-Serif" font-size="10.00" fill="#000000">forward_list</text>
</g>
<!-- Node11&#45;&gt;Node15 -->
<g id="edge15" class="edge">
<title>Node11&#45;&gt;Node15</title>
<path fill="none" stroke="#191970" d="M3131.5558,-190.4372C3164.6257,-180.2471 3209.2128,-166.4308 3248.4804,-154 3251.392,-153.0783 3254.4011,-152.12 3257.4271,-151.1523"/>
<polygon fill="#191970" stroke="#191970" points="3258.5999,-154.4518 3267.0512,-148.0623 3256.46,-147.7869 3258.5999,-154.4518"/>
</g>
<!-- Node16 -->
<g id="node17" class="node">
<title>Node16</title>
<polygon fill="#ffffff" stroke="#bfbfbf" points="1932.9804,-62 1932.9804,-81 1979.9804,-81 1979.9804,-62 1932.9804,-62"/>
<text text-anchor="middle" x="1956.4804" y="-69" font-family="Helvetica,sans-Serif" font-size="10.00" fill="#000000">iterator</text>
</g>
<!-- Node11&#45;&gt;Node16 -->
<g id="edge16" class="edge">
<title>Node11&#45;&gt;Node16</title>
<path fill="none" stroke="#191970" d="M3091.6165,-190.4906C3101.5451,-172.044 3113.8282,-140.9842 3096.4804,-123 3057.9241,-83.0292 2152.8695,-91.037 2097.4804,-87 2060.8914,-84.3333 2019.1402,-79.5215 1990.6243,-75.9642"/>
<polygon fill="#191970" stroke="#191970" points="1990.7418,-72.4513 1980.3817,-74.6693 1989.8637,-79.396 1990.7418,-72.4513"/>
</g>
<!-- Node17 -->
<g id="node18" class="node">
<title>Node17</title>
<polygon fill="#ffffff" stroke="#bfbfbf" points="3266.9804,-.5 3266.9804,-19.5 3301.9804,-19.5 3301.9804,-.5 3266.9804,-.5"/>
<text text-anchor="middle" x="3284.4804" y="-7.5" font-family="Helvetica,sans-Serif" font-size="10.00" fill="#000000">map</text>
</g>
<!-- Node11&#45;&gt;Node17 -->
<g id="edge17" class="edge">
<title>Node11&#45;&gt;Node17</title>
<path fill="none" stroke="#191970" d="M3152.6846,-201.2325C3259.7344,-194.0007 3453.6303,-177.7685 3474.4804,-154 3530.0682,-90.6315 3376.9571,-36.9505 3312.0282,-17.6496"/>
<polygon fill="#191970" stroke="#191970" points="3312.635,-14.1811 3302.0554,-14.75 3310.6806,-20.9028 3312.635,-14.1811"/>
</g>
<!-- Node18 -->
<g id="node19" class="node">
<title>Node18</title>
<polygon fill="#ffffff" stroke="#bfbfbf" points="820.9804,-.5 820.9804,-19.5 861.9804,-19.5 861.9804,-.5 820.9804,-.5"/>
<text text-anchor="middle" x="841.4804" y="-7.5" font-family="Helvetica,sans-Serif" font-size="10.00" fill="#000000">string</text>
</g>
<!-- Node11&#45;&gt;Node18 -->
<g id="edge18" class="edge">
<title>Node11&#45;&gt;Node18</title>
<path fill="none" stroke="#191970" d="M3096.8121,-190.3881C3112.1254,-172.4071 3131.9782,-142.388 3114.4804,-123 3102.2822,-109.4841 2480.6479,-57.1896 2462.4804,-56 2136.266,-34.6398 1067.9106,-14.1784 872.3625,-10.5634"/>
<polygon fill="#191970" stroke="#191970" points="872.2813,-7.0615 862.2185,-10.3766 872.1524,-14.0603 872.2813,-7.0615"/>
</g>
<!-- Node19 -->
<g id="node20" class="node">
<title>Node19</title>
<polygon fill="#ffffff" stroke="#bfbfbf" points="2590.4804,-129 2590.4804,-148 2628.4804,-148 2628.4804,-129 2590.4804,-129"/>
<text text-anchor="middle" x="2609.4804" y="-136" font-family="Helvetica,sans-Serif" font-size="10.00" fill="#000000">tuple</text>
</g>
<!-- Node11&#45;&gt;Node19 -->
<g id="edge19" class="edge">
<title>Node11&#45;&gt;Node19</title>
<path fill="none" stroke="#191970" d="M3012.3996,-195.9161C2938.1535,-185.7165 2817.5134,-169.0119 2713.4804,-154 2688.2475,-150.3589 2659.5943,-146.0776 2638.7621,-142.9382"/>
<polygon fill="#191970" stroke="#191970" points="2639.0511,-139.4422 2628.6406,-141.41 2638.006,-146.3638 2639.0511,-139.4422"/>
</g>
<!-- Node20 -->
<g id="node21" class="node">
<title>Node20</title>
<polygon fill="#ffffff" stroke="#bfbfbf" points="2936.4804,-.5 2936.4804,-19.5 2998.4804,-19.5 2998.4804,-.5 2936.4804,-.5"/>
<text text-anchor="middle" x="2967.4804" y="-7.5" font-family="Helvetica,sans-Serif" font-size="10.00" fill="#000000">type_traits</text>
</g>
<!-- Node11&#45;&gt;Node20 -->
<g id="edge20" class="edge">
<title>Node11&#45;&gt;Node20</title>
<path fill="none" stroke="#191970" d="M3152.5927,-200.7902C3255.585,-193.1487 3437.7744,-176.5972 3457.4804,-154 3466.5357,-143.616 3465.6007,-134.1305 3457.4804,-123 3404.2612,-50.0525 3117.1045,-21.2126 3008.8276,-12.8288"/>
<polygon fill="#191970" stroke="#191970" points="3008.8562,-9.3211 2998.6211,-12.0584 3008.3293,-16.3012 3008.8562,-9.3211"/>
</g>
<!-- Node21 -->
<g id="node22" class="node">
<title>Node21</title>
<polygon fill="#ffffff" stroke="#bfbfbf" points="3347.9804,-129 3347.9804,-148 3430.9804,-148 3430.9804,-129 3347.9804,-129"/>
<text text-anchor="middle" x="3389.4804" y="-136" font-family="Helvetica,sans-Serif" font-size="10.00" fill="#000000">unordered_map</text>
</g>
<!-- Node11&#45;&gt;Node21 -->
<g id="edge21" class="edge">
<title>Node11&#45;&gt;Node21</title>
<path fill="none" stroke="#191970" d="M3152.7283,-193.4381C3204.6349,-184.0382 3276.859,-169.9357 3339.4804,-154 3343.1299,-153.0713 3346.908,-152.0371 3350.6774,-150.9559"/>
<polygon fill="#191970" stroke="#191970" points="3351.9523,-154.2284 3360.5407,-148.0245 3349.958,-147.5185 3351.9523,-154.2284"/>
</g>
<!-- Node22 -->
<g id="node23" class="node">
<title>Node22</title>
<polygon fill="#ffffff" stroke="#bfbfbf" points="2964.9804,-129 2964.9804,-148 3015.9804,-148 3015.9804,-129 2964.9804,-129"/>
<text text-anchor="middle" x="2990.4804" y="-136" font-family="Helvetica,sans-Serif" font-size="10.00" fill="#000000">valarray</text>
</g>
<!-- Node11&#45;&gt;Node22 -->
<g id="edge23" class="edge">
<title>Node11&#45;&gt;Node22</title>
<path fill="none" stroke="#191970" d="M3061.6041,-190.2967C3046.7135,-179.4524 3026.756,-164.9182 3011.7722,-154.006"/>
<polygon fill="#191970" stroke="#191970" points="3013.7446,-151.1127 3003.6006,-148.055 3009.6238,-156.7712 3013.7446,-151.1127"/>
</g>
<!-- Node11&#45;&gt;Node23 -->
<g id="edge24" class="edge">
<title>Node11&#45;&gt;Node23</title>
<path fill="none" stroke="#191970" d="M3012.1714,-199.5173C2969.7245,-196.1448 2914.5323,-192.1818 2865.4804,-190 1956.9046,-149.5868 1726.6647,-218.4951 819.4804,-154 803.8585,-152.8894 787.1871,-151.1726 771.3001,-149.2799"/>
<polygon fill="#191970" stroke="#191970" points="771.3442,-145.7592 760.9924,-148.0153 770.4917,-152.7071 771.3442,-145.7592"/>
</g>
<!-- Node11&#45;&gt;Node28 -->
<g id="edge31" class="edge">
<title>Node11&#45;&gt;Node28</title>
<path fill="none" stroke="#191970" d="M3077.0346,-190.2754C3069.1039,-170.6688 3052.3247,-137.4064 3025.4804,-123 2932.2106,-72.9455 1225.5522,-99.8298 1120.4804,-87 1120.3752,-86.9872 1120.27,-86.9742 1120.1646,-86.9612"/>
<polygon fill="#191970" stroke="#191970" points="1120.6106,-83.4893 1110.2096,-85.5064 1119.5984,-90.4157 1120.6106,-83.4893"/>
</g>
<!-- Node11&#45;&gt;Node31 -->
<g id="edge32" class="edge">
<title>Node11&#45;&gt;Node31</title>
<path fill="none" stroke="#191970" d="M3152.6873,-200.2919C3251.5616,-192.234 3421.9256,-175.415 3440.4804,-154 3449.5025,-143.5871 3449.6804,-133.2561 3440.4804,-123 3413.7562,-93.2082 3156.415,-79.0084 3032.9443,-73.8671"/>
<polygon fill="#191970" stroke="#191970" points="3032.9912,-70.3662 3022.8566,-73.4548 3032.7053,-77.3603 3032.9912,-70.3662"/>
</g>
<!-- Node11&#45;&gt;Node32 -->
<g id="edge35" class="edge">
<title>Node11&#45;&gt;Node32</title>
<path fill="none" stroke="#191970" d="M3014.0324,-190.4639C2962.6597,-179.1787 2892.7806,-163.8282 2842.3066,-152.7405"/>
<polygon fill="#191970" stroke="#191970" points="2842.9999,-149.3094 2832.4818,-150.5823 2841.4979,-156.1464 2842.9999,-149.3094"/>
</g>
<!-- Node11&#45;&gt;Node41 -->
<g id="edge45" class="edge">
<title>Node11&#45;&gt;Node41</title>
<path fill="none" stroke="#191970" d="M3012.1563,-199.8263C2969.704,-196.5634 2914.5116,-192.6071 2865.4804,-190 2408.0692,-165.6784 2293.014,-175.8975 1835.4804,-154 1771.1043,-150.919 1697.6503,-146.3416 1646.1661,-142.9593"/>
<polygon fill="#191970" stroke="#191970" points="1646.3803,-139.4659 1636.1714,-142.2996 1645.9192,-146.4507 1646.3803,-139.4659"/>
</g>
<!-- Node23&#45;&gt;Node18 -->
<g id="edge27" class="edge">
<title>Node23&#45;&gt;Node18</title>
<path fill="none" stroke="#191970" d="M677.0499,-128.9327C649.9739,-113.6466 604.8769,-82.7145 626.4804,-56 649.3198,-27.7571 757.0222,-16.084 810.7895,-11.9531"/>
<polygon fill="#191970" stroke="#191970" points="811.0636,-15.4425 820.7827,-11.2248 810.5548,-8.461 811.0636,-15.4425"/>
</g>
<!-- Node24 -->
<g id="node25" class="node">
<title>Node24</title>
<polygon fill="#ffffff" stroke="#bfbfbf" points="635.9804,-62 635.9804,-81 694.9804,-81 694.9804,-62 635.9804,-62"/>
<text text-anchor="middle" x="665.4804" y="-69" font-family="Helvetica,sans-Serif" font-size="10.00" fill="#000000">exception</text>
</g>
<!-- Node23&#45;&gt;Node24 -->
<g id="edge25" class="edge">
<title>Node23&#45;&gt;Node24</title>
<path fill="none" stroke="#191970" d="M691.1821,-128.9005C686.6821,-118.8505 679.5008,-102.8122 673.8715,-90.2403"/>
<polygon fill="#191970" stroke="#191970" points="677.0518,-88.7782 669.7707,-81.0817 670.663,-91.6389 677.0518,-88.7782"/>
</g>
<!-- Node25 -->
<g id="node26" class="node">
<title>Node25</title>
<polygon fill="#ffffff" stroke="#bfbfbf" points="712.9804,-62 712.9804,-81 771.9804,-81 771.9804,-62 712.9804,-62"/>
<text text-anchor="middle" x="742.4804" y="-69" font-family="Helvetica,sans-Serif" font-size="10.00" fill="#000000">stdexcept</text>
</g>
<!-- Node23&#45;&gt;Node25 -->
<g id="edge26" class="edge">
<title>Node23&#45;&gt;Node25</title>
<path fill="none" stroke="#191970" d="M702.2143,-128.9005C709.404,-118.6515 720.9623,-102.1747 729.8552,-89.4976"/>
<polygon fill="#191970" stroke="#191970" points="732.8813,-91.2783 735.7589,-81.0817 727.1507,-87.2582 732.8813,-91.2783"/>
</g>
<!-- Node26 -->
<g id="node27" class="node">
<title>Node26</title>
<g id="a_node27"><a xlink:href="position__t_8hpp.html" target="_top" xlink:title="nlohmann/detail/input\l/position_t.hpp">
<polygon fill="#ffffff" stroke="#ff0000" points="352.9804,-56.5 352.9804,-86.5 461.9804,-86.5 461.9804,-56.5 352.9804,-56.5"/>
<text text-anchor="start" x="360.9804" y="-74.5" font-family="Helvetica,sans-Serif" font-size="10.00" fill="#000000">nlohmann/detail/input</text>
<text text-anchor="middle" x="407.4804" y="-63.5" font-family="Helvetica,sans-Serif" font-size="10.00" fill="#000000">/position_t.hpp</text>
</a>
</g>
</g>
<!-- Node23&#45;&gt;Node26 -->
<g id="edge28" class="edge">
<title>Node23&#45;&gt;Node26</title>
<path fill="none" stroke="#191970" d="M654.5228,-128.9717C606.9103,-117.8952 527.7362,-99.4762 471.8721,-86.48"/>
<polygon fill="#191970" stroke="#191970" points="472.6066,-83.0575 462.0736,-84.2005 471.0205,-89.8754 472.6066,-83.0575"/>
</g>
<!-- Node23&#45;&gt;Node28 -->
<g id="edge29" class="edge">
<title>Node23&#45;&gt;Node28</title>
<path fill="none" stroke="#191970" d="M746.2506,-128.9717C808.817,-117.2295 915.3498,-97.236 984.8175,-84.1986"/>
<polygon fill="#191970" stroke="#191970" points="985.6054,-87.612 994.7882,-82.3274 984.3142,-80.7321 985.6054,-87.612"/>
</g>
<!-- Node28&#45;&gt;Node10 -->
<g id="edge30" class="edge">
<title>Node28&#45;&gt;Node10</title>
<path fill="none" stroke="#191970" d="M1110.2459,-57.7551C1113.6995,-57.1132 1117.1303,-56.5208 1120.4804,-56 1314.5338,-25.8305 1550.8258,-14.364 1633.8649,-11.0886"/>
<polygon fill="#191970" stroke="#191970" points="1634.2467,-14.5766 1644.1052,-10.696 1633.9785,-7.5817 1634.2467,-14.5766"/>
</g>
<!-- Node31&#45;&gt;Node14 -->
<g id="edge33" class="edge">
<title>Node31&#45;&gt;Node14</title>
<path fill="none" stroke="#191970" d="M2912.2347,-59.0546C2857.6268,-46.7528 2775.7401,-28.3058 2729.5123,-17.8918"/>
<polygon fill="#191970" stroke="#191970" points="2730.1875,-14.4563 2719.6628,-15.673 2728.6491,-21.2851 2730.1875,-14.4563"/>
</g>
<!-- Node31&#45;&gt;Node20 -->
<g id="edge34" class="edge">
<title>Node31&#45;&gt;Node20</title>
<path fill="none" stroke="#191970" d="M2967.4804,-56.2977C2967.4804,-48.3834 2967.4804,-38.6043 2967.4804,-30.0759"/>
<polygon fill="#191970" stroke="#191970" points="2970.9805,-29.8469 2967.4804,-19.8469 2963.9805,-29.847 2970.9805,-29.8469"/>
</g>
<!-- Node32&#45;&gt;Node10 -->
<g id="edge38" class="edge">
<title>Node32&#45;&gt;Node10</title>
<path fill="none" stroke="#191970" d="M2752.2133,-123.408C2717.8803,-103.7845 2653.9401,-70.3291 2594.4804,-56 2505.459,-34.5469 1845.4925,-15.0345 1694.9781,-10.833"/>
<polygon fill="#191970" stroke="#191970" points="1694.7456,-7.3252 1684.6523,-10.5465 1694.5514,-14.3226 1694.7456,-7.3252"/>
</g>
<!-- Node32&#45;&gt;Node14 -->
<g id="edge36" class="edge">
<title>Node32&#45;&gt;Node14</title>
<path fill="none" stroke="#191970" d="M2767.6332,-123.2548C2752.3264,-99.5568 2722.8751,-53.9605 2706.3939,-28.4444"/>
<polygon fill="#191970" stroke="#191970" points="2709.1347,-26.2369 2700.7688,-19.7358 2703.2546,-30.0349 2709.1347,-26.2369"/>
</g>
<!-- Node32&#45;&gt;Node20 -->
<g id="edge37" class="edge">
<title>Node32&#45;&gt;Node20</title>
<path fill="none" stroke="#191970" d="M2832.7203,-131.0457C2903.5937,-120.9211 3018.9492,-102.3269 3031.4804,-87 3040.2012,-76.3335 3037.7667,-68.26 3031.4804,-56 3024.5474,-42.4789 3011.5867,-32.0326 2999.1323,-24.5377"/>
<polygon fill="#191970" stroke="#191970" points="3000.6876,-21.3979 2990.2464,-19.6001 2997.2875,-27.5168 3000.6876,-21.3979"/>
</g>
<!-- Node32&#45;&gt;Node28 -->
<g id="edge39" class="edge">
<title>Node32&#45;&gt;Node28</title>
<path fill="none" stroke="#191970" d="M2722.389,-131.2868C2696.6408,-128.2017 2665.5394,-124.8827 2637.4804,-123 2301.0308,-100.4255 1455.1006,-128.6795 1120.4804,-87 1120.3752,-86.9869 1120.27,-86.9737 1120.1647,-86.9604"/>
<polygon fill="#191970" stroke="#191970" points="1120.6167,-83.4893 1110.212,-85.4871 1119.5916,-90.4138 1120.6167,-83.4893"/>
</g>
<!-- Node32&#45;&gt;Node31 -->
<g id="edge40" class="edge">
<title>Node32&#45;&gt;Node31</title>
<path fill="none" stroke="#191970" d="M2820.1201,-123.4639C2848.257,-113.5419 2885.3056,-100.4774 2915.215,-89.9304"/>
<polygon fill="#191970" stroke="#191970" points="2916.3878,-93.2281 2924.6547,-86.6017 2914.0599,-86.6266 2916.3878,-93.2281"/>
</g>
<!-- Node32&#45;&gt;Node37 -->
<g id="edge41" class="edge">
<title>Node32&#45;&gt;Node37</title>
<path fill="none" stroke="#191970" d="M2722.3761,-131.4692C2696.6252,-128.4225 2665.5253,-125.0831 2637.4804,-123 2383.9492,-104.1684 1593.3102,-80.4236 1353.2783,-73.4867"/>
<polygon fill="#191970" stroke="#191970" points="1353.376,-69.9882 1343.2792,-73.1983 1353.1741,-76.9852 1353.376,-69.9882"/>
</g>
<!-- Node37&#45;&gt;Node17 -->
<g id="edge42" class="edge">
<title>Node37&#45;&gt;Node17</title>
<path fill="none" stroke="#191970" d="M1343.0357,-69.8552C1563.6189,-63.7347 2355.058,-41.5211 3007.4804,-20 3098.664,-16.9922 3206.7135,-12.9548 3256.6371,-11.0625"/>
<polygon fill="#191970" stroke="#191970" points="3256.7982,-14.559 3266.6581,-10.6819 3256.5324,-7.5641 3256.7982,-14.559"/>
</g>
<!-- Node37&#45;&gt;Node18 -->
<g id="edge43" class="edge">
<title>Node37&#45;&gt;Node18</title>
<path fill="none" stroke="#191970" d="M1240.9404,-61.9659C1230.6708,-59.8372 1219.7084,-57.7075 1209.4804,-56 1085.2096,-35.2542 935.9071,-19.3472 872.4474,-13.0028"/>
<polygon fill="#191970" stroke="#191970" points="872.6136,-9.5022 862.3171,-11.9986 871.9231,-16.4681 872.6136,-9.5022"/>
</g>
<!-- Node40 -->
<g id="node32" class="node">
<title>Node40</title>
<polygon fill="#ffffff" stroke="#bfbfbf" points="141.4804,-.5 141.4804,-19.5 185.4804,-19.5 185.4804,-.5 141.4804,-.5"/>
<text text-anchor="middle" x="163.4804" y="-7.5" font-family="Helvetica,sans-Serif" font-size="10.00" fill="#000000">vector</text>
</g>
<!-- Node37&#45;&gt;Node40 -->
<g id="edge44" class="edge">
<title>Node37&#45;&gt;Node40</title>
<path fill="none" stroke="#191970" d="M1225.0172,-61.969C1209.2942,-59.6965 1192.2703,-57.4985 1176.4804,-56 791.6061,-19.4746 321.625,-11.7644 195.754,-10.3102"/>
<polygon fill="#191970" stroke="#191970" points="195.6738,-6.8092 185.6357,-10.1984 195.5964,-13.8088 195.6738,-6.8092"/>
</g>
<!-- Node41&#45;&gt;Node13 -->
<g id="edge46" class="edge">
<title>Node41&#45;&gt;Node13</title>
<path fill="none" stroke="#191970" d="M1524.7106,-130.4536C1507.9236,-128.043 1489.4538,-125.4022 1472.4804,-123 1357.8452,-106.7761 1328.2897,-108.2575 1214.4804,-87 1202.3445,-84.7332 1189.0736,-81.7219 1177.635,-78.9567"/>
<polygon fill="#191970" stroke="#191970" points="1178.2776,-75.5103 1167.7305,-76.5148 1176.6019,-82.3068 1178.2776,-75.5103"/>
</g>
<!-- Node41&#45;&gt;Node14 -->
<g id="edge47" class="edge">
<title>Node41&#45;&gt;Node14</title>
<path fill="none" stroke="#191970" d="M1600.378,-123.1909C1627.2767,-103.4907 1677.5278,-70.1248 1726.4804,-56 1817.3417,-29.7827 2495.2576,-14.135 2658.9729,-10.7136"/>
<polygon fill="#191970" stroke="#191970" points="2659.5048,-14.2034 2669.4302,-10.4972 2659.3599,-7.2049 2659.5048,-14.2034"/>
</g>
<!-- Node41&#45;&gt;Node18 -->
<g id="edge48" class="edge">
<title>Node41&#45;&gt;Node18</title>
<path fill="none" stroke="#191970" d="M1547.1432,-123.421C1503.2639,-104.2947 1423.2715,-71.8934 1351.4804,-56 1259.1262,-35.5543 967.9158,-17.3148 872.2597,-11.7411"/>
<polygon fill="#191970" stroke="#191970" points="872.2793,-8.2365 862.094,-11.1537 871.8755,-15.2248 872.2793,-8.2365"/>
</g>
<!-- Node42&#45;&gt;Node10 -->
<g id="edge56" class="edge">
<title>Node42&#45;&gt;Node10</title>
<path fill="none" stroke="#191970" d="M2482.2211,-257.4817C2493.6387,-218.0215 2517.8132,-110.6951 2462.4804,-56 2434.6761,-28.5162 1837.3175,-13.7715 1694.8085,-10.6373"/>
<polygon fill="#191970" stroke="#191970" points="1694.6884,-7.134 1684.6148,-10.416 1694.5364,-14.1323 1694.6884,-7.134"/>
</g>
<!-- Node42&#45;&gt;Node12 -->
<g id="edge50" class="edge">
<title>Node42&#45;&gt;Node12</title>
<path fill="none" stroke="#191970" d="M2407.1631,-269.0255C2286.5822,-262.6143 2032.7323,-247.1374 1819.4804,-221 1648.9053,-200.0934 1447.2233,-162.1646 1364.6305,-146.0591"/>
<polygon fill="#191970" stroke="#191970" points="1365.1844,-142.6012 1354.6983,-144.1154 1363.8399,-149.4709 1365.1844,-142.6012"/>
</g>
<!-- Node42&#45;&gt;Node14 -->
<g id="edge51" class="edge">
<title>Node42&#45;&gt;Node14</title>
<path fill="none" stroke="#191970" d="M2511.9324,-257.3088C2530.9616,-248.1299 2554.5138,-235.4286 2573.4804,-221 2606.2547,-196.0672 2615.2685,-188.6761 2637.4804,-154 2663.5986,-113.2255 2681.1782,-58.5544 2689.307,-29.7183"/>
<polygon fill="#191970" stroke="#191970" points="2692.7865,-30.2622 2692.0424,-19.6935 2686.0334,-28.4195 2692.7865,-30.2622"/>
</g>
<!-- Node42&#45;&gt;Node16 -->
<g id="edge52" class="edge">
<title>Node42&#45;&gt;Node16</title>
<path fill="none" stroke="#191970" d="M2432.2174,-257.4741C2409.0969,-248.695 2381.1409,-236.3166 2358.4804,-221 2307.1866,-186.3297 2314.5569,-151.2784 2259.4804,-123 2212.8463,-99.0563 2059.2995,-81.5288 1990.4303,-74.6736"/>
<polygon fill="#191970" stroke="#191970" points="1990.427,-71.1566 1980.1336,-73.6656 1989.745,-78.1233 1990.427,-71.1566"/>
</g>
<!-- Node42&#45;&gt;Node18 -->
<g id="edge53" class="edge">
<title>Node42&#45;&gt;Node18</title>
<path fill="none" stroke="#191970" d="M2476.4311,-257.2859C2472.6992,-216.373 2456.2419,-103.8627 2386.4804,-56 2354.0941,-33.7801 1088.1273,-13.7198 872.5385,-10.4614"/>
<polygon fill="#191970" stroke="#191970" points="872.3093,-6.9576 862.2578,-10.3067 872.204,-13.9568 872.3093,-6.9576"/>
</g>
<!-- Node42&#45;&gt;Node19 -->
<g id="edge54" class="edge">
<title>Node42&#45;&gt;Node19</title>
<path fill="none" stroke="#191970" d="M2501.1311,-257.2845C2515.0869,-247.732 2532.6643,-234.665 2546.4804,-221 2566.6968,-201.0045 2585.9247,-174.3178 2597.7031,-156.7835"/>
<polygon fill="#191970" stroke="#191970" points="2600.8562,-158.3597 2603.4392,-148.0845 2595.0123,-154.5062 2600.8562,-158.3597"/>
</g>
<!-- Node42&#45;&gt;Node20 -->
<g id="edge55" class="edge">
<title>Node42&#45;&gt;Node20</title>
<path fill="none" stroke="#191970" d="M2547.6198,-267.026C2658.2953,-257.9087 2863.8777,-238.8476 2892.4804,-221 2936.6141,-193.4612 2916.1777,-155.8917 2956.4804,-123 2990.1771,-95.4995 3023.0279,-122.9699 3047.4804,-87 3055.2262,-75.6058 3054.3798,-67.9258 3047.4804,-56 3038.7768,-40.9557 3023.0836,-30.4014 3007.8875,-23.2332"/>
<polygon fill="#191970" stroke="#191970" points="3009.1248,-19.955 2998.5571,-19.1977 3006.346,-26.3799 3009.1248,-19.955"/>
</g>
<!-- Node42&#45;&gt;Node22 -->
<g id="edge57" class="edge">
<title>Node42&#45;&gt;Node22</title>
<path fill="none" stroke="#191970" d="M2547.7262,-268.5909C2671.457,-261.1603 2918.2814,-243.6918 2950.4804,-221 2971.461,-206.2142 2981.881,-177.323 2986.7202,-157.9622"/>
<polygon fill="#191970" stroke="#191970" points="2990.1614,-158.6108 2988.9144,-148.0896 2983.3281,-157.0921 2990.1614,-158.6108"/>
</g>
<!-- Node42&#45;&gt;Node31 -->
<g id="edge65" class="edge">
<title>Node42&#45;&gt;Node31</title>
<path fill="none" stroke="#191970" d="M2547.8266,-266.5318C2652.4593,-257.151 2839.6131,-238.2438 2865.4804,-221 2907.4057,-193.0514 2893.1023,-163.9365 2922.4804,-123 2929.5826,-113.1034 2938.2196,-102.8679 2946.0205,-94.1545"/>
<polygon fill="#191970" stroke="#191970" points="2948.7276,-96.3803 2952.8816,-86.6338 2943.5562,-91.6625 2948.7276,-96.3803"/>
</g>
<!-- Node42&#45;&gt;Node32 -->
<g id="edge66" class="edge">
<title>Node42&#45;&gt;Node32</title>
<path fill="none" stroke="#191970" d="M2525.5174,-257.4247C2554.0911,-247.9696 2590.8247,-234.9546 2622.4804,-221 2665.259,-202.1421 2712.4098,-176.2707 2743.3418,-158.5568"/>
<polygon fill="#191970" stroke="#191970" points="2745.0903,-161.5888 2752.008,-153.564 2741.5959,-155.5233 2745.0903,-161.5888"/>
</g>
<!-- Node42&#45;&gt;Node40 -->
<g id="edge58" class="edge">
<title>Node42&#45;&gt;Node40</title>
<path fill="none" stroke="#191970" d="M2467.0495,-257.3671C2437.2596,-215.6433 2346.9231,-99.2007 2238.4804,-56 2213.7041,-46.1298 458.6312,-15.1485 196.1674,-10.5681"/>
<polygon fill="#191970" stroke="#191970" points="195.8505,-7.0622 185.791,-10.3872 195.7284,-14.0611 195.8505,-7.0622"/>
</g>
<!-- Node42&#45;&gt;Node41 -->
<g id="edge67" class="edge">
<title>Node42&#45;&gt;Node41</title>
<path fill="none" stroke="#191970" d="M2407.0882,-267.0353C2312.6531,-259.2422 2139.8722,-243.3623 1993.4804,-221 1870.0998,-202.1529 1727.6324,-171.7594 1646.3889,-153.5973"/>
<polygon fill="#191970" stroke="#191970" points="1646.8305,-150.1095 1636.3069,-151.3359 1645.2984,-156.9398 1646.8305,-150.1095"/>
</g>
<!-- Node42&#45;&gt;Node43 -->
<g id="edge59" class="edge">
<title>Node42&#45;&gt;Node43</title>
<path fill="none" stroke="#191970" d="M2407.4205,-261.1344C2331.875,-248.8788 2212.2319,-229.4694 2136.0898,-217.117"/>
<polygon fill="#191970" stroke="#191970" points="2136.5364,-213.6438 2126.1049,-215.4972 2135.4154,-220.5535 2136.5364,-213.6438"/>
</g>
<!-- Node43&#45;&gt;Node16 -->
<g id="edge60" class="edge">
<title>Node43&#45;&gt;Node16</title>
<path fill="none" stroke="#191970" d="M2052.3013,-190.389C2032.1788,-165.4222 1992.0932,-115.6864 1970.7027,-89.1462"/>
<polygon fill="#191970" stroke="#191970" points="1973.2214,-86.6938 1964.221,-81.1042 1967.7712,-91.0865 1973.2214,-86.6938"/>
</g>
<!-- Node43&#45;&gt;Node18 -->
<g id="edge61" class="edge">
<title>Node43&#45;&gt;Node18</title>
<path fill="none" stroke="#191970" d="M2002.7275,-191.7717C1956.6198,-181.4827 1892.0756,-166.998 1835.4804,-154 1649.5068,-111.2883 1606.0083,-85.4564 1417.4804,-56 1210.7454,-23.6988 958.5198,-13.4967 872.17,-10.8254"/>
<polygon fill="#191970" stroke="#191970" points="872.1172,-7.3224 862.0173,-10.5228 871.9086,-14.3192 872.1172,-7.3224"/>
</g>
<!-- Node43&#45;&gt;Node19 -->
<g id="edge62" class="edge">
<title>Node43&#45;&gt;Node19</title>
<path fill="none" stroke="#191970" d="M2126.1257,-196.4744C2141.5778,-194.2835 2158.1275,-191.9981 2173.4804,-190 2326.2973,-170.1121 2509.6867,-149.5151 2580.0376,-141.7342"/>
<polygon fill="#191970" stroke="#191970" points="2580.7803,-145.1735 2590.336,-140.5975 2580.0123,-138.2158 2580.7803,-145.1735"/>
</g>
<!-- Node43&#45;&gt;Node32 -->
<g id="edge63" class="edge">
<title>Node43&#45;&gt;Node32</title>
<path fill="none" stroke="#191970" d="M2126.0738,-196.0418C2141.5272,-193.8616 2158.0905,-191.6895 2173.4804,-190 2379.0871,-167.4283 2431.5486,-173.3833 2637.4804,-154 2661.8696,-151.7044 2688.6087,-148.8319 2712.1241,-146.1856"/>
<polygon fill="#191970" stroke="#191970" points="2712.7917,-149.6324 2722.3338,-145.0282 2712.0031,-142.677 2712.7917,-149.6324"/>
</g>
<!-- Node43&#45;&gt;Node41 -->
<g id="edge64" class="edge">
<title>Node43&#45;&gt;Node41</title>
<path fill="none" stroke="#191970" d="M2002.9163,-197.1912C1928.4342,-187.1103 1799.2401,-169.5331 1688.4804,-154 1674.8196,-152.0842 1660.1913,-150.0041 1646.2514,-148.0081"/>
<polygon fill="#191970" stroke="#191970" points="1646.642,-144.5284 1636.2463,-146.5732 1645.6481,-151.4575 1646.642,-144.5284"/>
</g>
<!-- Node44&#45;&gt;Node10 -->
<g id="edge76" class="edge">
<title>Node44&#45;&gt;Node10</title>
<path fill="none" stroke="#191970" d="M1200.0365,-190.2703C1207.6351,-171.5963 1223.057,-140.3021 1246.4804,-123 1262.5827,-111.1058 1541.3636,-40.7517 1634.477,-17.4738"/>
<polygon fill="#191970" stroke="#191970" points="1635.5356,-20.817 1644.3896,-14.9983 1633.8395,-14.0256 1635.5356,-20.817"/>
</g>
<!-- Node44&#45;&gt;Node12 -->
<g id="edge72" class="edge">
<title>Node44&#45;&gt;Node12</title>
<path fill="none" stroke="#191970" d="M1224.1037,-190.4639C1246.3514,-179.1715 1276.6187,-163.8086 1298.4664,-152.7192"/>
<polygon fill="#191970" stroke="#191970" points="1300.2263,-155.7511 1307.5592,-148.1039 1297.058,-149.5091 1300.2263,-155.7511"/>
</g>
<!-- Node44&#45;&gt;Node13 -->
<g id="edge73" class="edge">
<title>Node44&#45;&gt;Node13</title>
<path fill="none" stroke="#191970" d="M1189.293,-190.389C1180.9086,-165.9649 1164.3871,-117.8371 1155.1433,-90.9095"/>
<polygon fill="#191970" stroke="#191970" points="1158.3346,-89.426 1151.7773,-81.1042 1151.7139,-91.6988 1158.3346,-89.426"/>
</g>
<!-- Node44&#45;&gt;Node16 -->
<g id="edge74" class="edge">
<title>Node44&#45;&gt;Node16</title>
<path fill="none" stroke="#191970" d="M1209.4682,-190.3698C1231.3039,-168.7101 1271.2419,-130.6269 1289.4804,-123 1348.1764,-98.4548 1795.0308,-78.1985 1922.5838,-72.8707"/>
<polygon fill="#191970" stroke="#191970" points="1923.059,-76.3541 1932.9055,-72.4432 1922.7692,-69.3601 1923.059,-76.3541"/>
</g>
<!-- Node44&#45;&gt;Node18 -->
<g id="edge75" class="edge">
<title>Node44&#45;&gt;Node18</title>
<path fill="none" stroke="#191970" d="M1139.8136,-199.8907C1038.2882,-189.2124 829.9137,-165.9641 819.4804,-154 788.7171,-118.7231 813.9339,-59.1889 830.2671,-28.9099"/>
<polygon fill="#191970" stroke="#191970" points="833.5171,-30.2715 835.3719,-19.8402 827.4169,-26.838 833.5171,-30.2715"/>
</g>
<!-- Node44&#45;&gt;Node23 -->
<g id="edge77" class="edge">
<title>Node44&#45;&gt;Node23</title>
<path fill="none" stroke="#191970" d="M1139.9327,-199.3727C1061.5856,-190.4 912.7207,-172.7097 786.4804,-154 777.7265,-152.7026 768.5152,-151.2438 759.4511,-149.7535"/>
<polygon fill="#191970" stroke="#191970" points="759.7514,-146.2554 749.3122,-148.0645 758.6011,-153.1602 759.7514,-146.2554"/>
</g>
<!-- Node44&#45;&gt;Node28 -->
<g id="edge85" class="edge">
<title>Node44&#45;&gt;Node28</title>
<path fill="none" stroke="#191970" d="M1178.4672,-190.389C1153.5387,-166.8649 1105.3082,-121.3517 1076.2921,-93.9702"/>
<polygon fill="#191970" stroke="#191970" points="1078.328,-91.0791 1068.6529,-86.7614 1073.5237,-96.1702 1078.328,-91.0791"/>
</g>
<!-- Node44&#45;&gt;Node41 -->
<g id="edge86" class="edge">
<title>Node44&#45;&gt;Node41</title>
<path fill="none" stroke="#191970" d="M1249.3748,-195.9717C1319.2495,-183.8432 1439.842,-162.9113 1514.6021,-149.9348"/>
<polygon fill="#191970" stroke="#191970" points="1515.5827,-153.317 1524.8368,-148.1583 1514.3856,-146.4202 1515.5827,-153.317"/>
</g>
<!-- Node44&#45;&gt;Node49 -->
<g id="edge78" class="edge">
<title>Node44&#45;&gt;Node49</title>
<path fill="none" stroke="#191970" d="M1139.9524,-193.7528C1086.4601,-182.2288 1004.8822,-164.6541 948.1465,-152.4313"/>
<polygon fill="#191970" stroke="#191970" points="948.72,-148.9746 938.2071,-150.29 947.2457,-155.8176 948.72,-148.9746"/>
</g>
<!-- Node49&#45;&gt;Node10 -->
<g id="edge83" class="edge">
<title>Node49&#45;&gt;Node10</title>
<path fill="none" stroke="#191970" d="M890.741,-123.397C901.0143,-103.9249 921.7879,-70.811 950.4804,-56 1011.8817,-24.3047 1505.9737,-12.9551 1634.1798,-10.5283"/>
<polygon fill="#191970" stroke="#191970" points="1634.504,-14.023 1644.4376,-10.3386 1634.3745,-7.0242 1634.504,-14.023"/>
</g>
<!-- Node49&#45;&gt;Node13 -->
<g id="edge79" class="edge">
<title>Node49&#45;&gt;Node13</title>
<path fill="none" stroke="#191970" d="M938.2776,-130.6546C986.6426,-122.7572 1058.5675,-108.62 1118.4804,-87 1119.7211,-86.5523 1120.9755,-86.0635 1122.2315,-85.5444"/>
<polygon fill="#191970" stroke="#191970" points="1124.0998,-88.5357 1131.6937,-81.1477 1121.15,-82.1876 1124.0998,-88.5357"/>
</g>
<!-- Node49&#45;&gt;Node16 -->
<g id="edge80" class="edge">
<title>Node49&#45;&gt;Node16</title>
<path fill="none" stroke="#191970" d="M938.1658,-135.0853C1129.8022,-123.1192 1767.7197,-83.2865 1922.4525,-73.6248"/>
<polygon fill="#191970" stroke="#191970" points="1922.983,-77.0985 1932.7454,-72.982 1922.5467,-70.1121 1922.983,-77.0985"/>
</g>
<!-- Node49&#45;&gt;Node18 -->
<g id="edge81" class="edge">
<title>Node49&#45;&gt;Node18</title>
<path fill="none" stroke="#191970" d="M878.4975,-123.2548C870.8542,-99.87 856.2415,-55.1619 847.8429,-29.4665"/>
<polygon fill="#191970" stroke="#191970" points="851.0961,-28.1536 844.6625,-19.7358 844.4425,-30.3283 851.0961,-28.1536"/>
</g>
<!-- Node49&#45;&gt;Node20 -->
<g id="edge82" class="edge">
<title>Node49&#45;&gt;Node20</title>
<path fill="none" stroke="#191970" d="M902.2699,-123.4347C915.0376,-113.1844 932.2993,-99.3001 947.4804,-87 964.4153,-73.2789 965.0244,-63.5244 985.4804,-56 1076.3799,-22.5641 2631.6736,-23.0246 2728.4804,-20 2797.7503,-17.8357 2878.2697,-14.2438 2925.937,-12.0051"/>
<polygon fill="#191970" stroke="#191970" points="2926.3458,-15.4898 2936.1694,-11.5216 2926.0153,-8.4976 2926.3458,-15.4898"/>
</g>
<!-- Node49&#45;&gt;Node28 -->
<g id="edge84" class="edge">
<title>Node49&#45;&gt;Node28</title>
<path fill="none" stroke="#191970" d="M921.4073,-123.4639C946.1093,-113.6708 978.5335,-100.8162 1004.952,-90.3426"/>
<polygon fill="#191970" stroke="#191970" points="1006.3819,-93.5408 1014.388,-86.6017 1003.802,-87.0335 1006.3819,-93.5408"/>
</g>
<!-- Node54&#45;&gt;Node10 -->
<g id="edge91" class="edge">
<title>Node54&#45;&gt;Node10</title>
<path fill="none" stroke="#191970" d="M209.0788,-190.0689C221.5692,-158.2162 255.054,-85.6906 310.4804,-56 370.7628,-23.7082 1439.3086,-12.1215 1634.1274,-10.2733"/>
<polygon fill="#191970" stroke="#191970" points="1634.2605,-13.7723 1644.2273,-10.1788 1634.1949,-6.7726 1634.2605,-13.7723"/>
</g>
<!-- Node54&#45;&gt;Node13 -->
<g id="edge89" class="edge">
<title>Node54&#45;&gt;Node13</title>
<path fill="none" stroke="#191970" d="M258.1566,-196.0456C313.7599,-186.2467 402.3318,-170.1308 478.4804,-154 537.0117,-141.6011 550.3353,-132.0289 609.4804,-123 833.6704,-88.7757 900.1377,-148.3107 1118.4804,-87 1120.1489,-86.5315 1121.8322,-85.9645 1123.5044,-85.3279"/>
<polygon fill="#191970" stroke="#191970" points="1125.1192,-88.4389 1132.784,-81.1244 1122.2308,-82.0626 1125.1192,-88.4389"/>
</g>
<!-- Node54&#45;&gt;Node18 -->
<g id="edge90" class="edge">
<title>Node54&#45;&gt;Node18</title>
<path fill="none" stroke="#191970" d="M162.5696,-190.4816C146.452,-182.3159 129.6322,-170.4491 120.4804,-154 106.2471,-128.418 136.5974,-58.3311 139.4804,-56 165.9521,-34.5955 678.9009,-15.5794 810.7795,-11.0301"/>
<polygon fill="#191970" stroke="#191970" points="811.1047,-14.5211 820.9791,-10.681 810.8652,-7.5252 811.1047,-14.5211"/>
</g>
<!-- Node54&#45;&gt;Node26 -->
<g id="edge94" class="edge">
<title>Node54&#45;&gt;Node26</title>
<path fill="none" stroke="#191970" d="M226.4852,-190.389C263.0838,-166.3487 334.6435,-119.3438 375.9754,-92.1945"/>
<polygon fill="#191970" stroke="#191970" points="378.123,-94.9713 384.5596,-86.5558 374.2799,-89.1206 378.123,-94.9713"/>
</g>
<!-- Node54&#45;&gt;Node28 -->
<g id="edge95" class="edge">
<title>Node54&#45;&gt;Node28</title>
<path fill="none" stroke="#191970" d="M253.7114,-190.45C317.8153,-171.8134 432.4036,-140.4061 532.4804,-123 693.2565,-95.0366 884.8358,-80.9434 984.5463,-75.0348"/>
<polygon fill="#191970" stroke="#191970" points="985.0025,-78.5143 994.7818,-74.438 984.5949,-71.5261 985.0025,-78.5143"/>
</g>
<!-- Node54&#45;&gt;Node40 -->
<g id="edge92" class="edge">
<title>Node54&#45;&gt;Node40</title>
<path fill="none" stroke="#191970" d="M152.8034,-190.4236C107.5938,-173.6732 45.537,-141.5281 25.4804,-87 20.7241,-74.0692 17.4244,-67.1771 25.4804,-56 37.9794,-38.6586 94.2947,-24.1367 131.0104,-16.2887"/>
<polygon fill="#191970" stroke="#191970" points="132.1694,-19.6228 141.2494,-14.1634 130.7467,-12.7689 132.1694,-19.6228"/>
</g>
<!-- Node54&#45;&gt;Node49 -->
<g id="edge93" class="edge">
<title>Node54&#45;&gt;Node49</title>
<path fill="none" stroke="#191970" d="M258.1861,-201.7606C360.9306,-194.4857 589.6877,-177.0944 781.4804,-154 793.4979,-152.5529 806.2785,-150.7897 818.5818,-148.9782"/>
<polygon fill="#191970" stroke="#191970" points="819.406,-152.3939 828.7772,-147.451 818.369,-145.4711 819.406,-152.3939"/>
</g>
<!-- Node57&#45;&gt;Node10 -->
<g id="edge98" class="edge">
<title>Node57&#45;&gt;Node10</title>
<path fill="none" stroke="#191970" d="M583.6735,-263.523C530.9336,-254.0683 455.7235,-238.1898 431.4804,-221 363.6828,-172.9277 285.7436,-115.7823 343.4804,-56 366.6682,-31.9907 1439.413,-13.6184 1634.283,-10.4762"/>
<polygon fill="#191970" stroke="#191970" points="1634.4384,-13.9742 1644.381,-10.3144 1634.3262,-6.9751 1634.4384,-13.9742"/>
</g>
<!-- Node57&#45;&gt;Node18 -->
<g id="edge97" class="edge">
<title>Node57&#45;&gt;Node18</title>
<path fill="none" stroke="#191970" d="M583.6408,-270.0438C461.334,-264.1132 174.2307,-247.5126 139.4804,-221 80.9044,-176.3099 69.2366,-105.8594 123.4804,-56 149.1405,-32.4139 675.9704,-14.9852 810.4487,-10.9091"/>
<polygon fill="#191970" stroke="#191970" points="810.9497,-14.3957 820.8401,-10.5972 810.7396,-7.3989 810.9497,-14.3957"/>
</g>
<!-- Node57&#45;&gt;Node23 -->
<g id="edge100" class="edge">
<title>Node57&#45;&gt;Node23</title>
<path fill="none" stroke="#191970" d="M644.9082,-257.389C655.3437,-232.8564 675.952,-184.4088 687.3763,-157.5517"/>
<polygon fill="#191970" stroke="#191970" points="690.7014,-158.6763 691.395,-148.1042 684.2599,-155.9362 690.7014,-158.6763"/>
</g>
<!-- Node57&#45;&gt;Node28 -->
<g id="edge103" class="edge">
<title>Node57&#45;&gt;Node28</title>
<path fill="none" stroke="#191970" d="M628.1992,-257.1811C609.6125,-227.4088 575.3704,-161.3051 609.4804,-123 633.9654,-95.5036 866.6193,-80.4365 984.5892,-74.508"/>
<polygon fill="#191970" stroke="#191970" points="984.789,-78.0025 994.6039,-74.0128 984.4433,-71.011 984.789,-78.0025"/>
</g>
<!-- Node57&#45;&gt;Node40 -->
<g id="edge99" class="edge">
<title>Node57&#45;&gt;Node40</title>
<path fill="none" stroke="#191970" d="M583.5303,-269.3989C456.1857,-261.8967 148.515,-241.8428 106.4804,-221 31.8321,-183.9857 -31.7953,-123.1888 17.4804,-56 31.0203,-37.5379 92.4716,-23.0898 131.2072,-15.6157"/>
<polygon fill="#191970" stroke="#191970" points="132.286,-18.9747 141.4716,-13.695 130.9984,-12.0941 132.286,-18.9747"/>
</g>
<!-- Node57&#45;&gt;Node41 -->
<g id="edge104" class="edge">
<title>Node57&#45;&gt;Node41</title>
<path fill="none" stroke="#191970" d="M693.094,-271.0174C801.4284,-267.4035 1050.906,-255.7244 1257.4804,-221 1351.3429,-205.222 1457.9038,-175.6703 1522.1144,-156.5522"/>
<polygon fill="#191970" stroke="#191970" points="1523.4724,-159.7992 1532.0478,-153.5771 1521.464,-153.0935 1523.4724,-159.7992"/>
</g>
<!-- Node57&#45;&gt;Node49 -->
<g id="edge101" class="edge">
<title>Node57&#45;&gt;Node49</title>
<path fill="none" stroke="#191970" d="M666.1087,-257.389C710.4315,-233.1472 797.449,-185.5539 846.8845,-158.5157"/>
<polygon fill="#191970" stroke="#191970" points="848.859,-161.4251 855.953,-153.5558 845.5,-155.2837 848.859,-161.4251"/>
</g>
<!-- Node57&#45;&gt;Node54 -->
<g id="edge102" class="edge">
<title>Node57&#45;&gt;Node54</title>
<path fill="none" stroke="#191970" d="M583.7805,-264.5144C567.003,-262.0817 548.4848,-259.4134 531.4804,-257 416.4157,-240.6692 386.83,-241.7539 272.4804,-221 271.0081,-220.7328 269.5196,-220.4559 268.0198,-220.1708"/>
<polygon fill="#191970" stroke="#191970" points="268.4981,-216.6976 258.0085,-218.1872 267.1375,-223.5642 268.4981,-216.6976"/>
</g>
<!-- Node59&#45;&gt;Node60 -->
<g id="edge106" class="edge">
<title>Node59&#45;&gt;Node60</title>
<path fill="none" stroke="#191970" d="M2168.4804,-123.2967C2168.4804,-115.5013 2168.4804,-105.7991 2168.4804,-96.9064"/>
<polygon fill="#191970" stroke="#191970" points="2171.9805,-96.6431 2168.4804,-86.6432 2164.9805,-96.6432 2171.9805,-96.6431"/>
</g>
<!-- Node61&#45;&gt;Node14 -->
<g id="edge108" class="edge">
<title>Node61&#45;&gt;Node14</title>
<path fill="none" stroke="#191970" d="M2279.0439,-190.4841C2363.985,-153.5819 2581.933,-58.8956 2663.2601,-23.5635"/>
<polygon fill="#191970" stroke="#191970" points="2664.7054,-26.7516 2672.4826,-19.5568 2661.9161,-20.3314 2664.7054,-26.7516"/>
</g>
<!-- Node61&#45;&gt;Node16 -->
<g id="edge109" class="edge">
<title>Node61&#45;&gt;Node16</title>
<path fill="none" stroke="#191970" d="M2248.3597,-190.2989C2252.0491,-171.9468 2254.8819,-141.2765 2238.4804,-123 2222,-104.6356 2061.8153,-83.8174 1990.4678,-75.3684"/>
<polygon fill="#191970" stroke="#191970" points="1990.5532,-71.8546 1980.2138,-74.167 1989.7386,-78.807 1990.5532,-71.8546"/>
</g>
<!-- Node61&#45;&gt;Node20 -->
<g id="edge110" class="edge">
<title>Node61&#45;&gt;Node20</title>
<path fill="none" stroke="#191970" d="M2296.0781,-190.454C2329.6472,-180.4985 2374.3079,-166.9398 2413.4804,-154 2452.4569,-141.1249 2461.1446,-134.7319 2500.4804,-123 2655.9042,-76.6447 2844.6269,-35.5195 2926.4103,-18.42"/>
<polygon fill="#191970" stroke="#191970" points="2927.2296,-21.8245 2936.306,-16.3593 2925.8025,-14.9715 2927.2296,-21.8245"/>
</g>
<!-- Node61&#45;&gt;Node23 -->
<g id="edge111" class="edge">
<title>Node61&#45;&gt;Node23</title>
<path fill="none" stroke="#191970" d="M2182.9492,-195.584C2167.1889,-193.3871 2150.2394,-191.3218 2134.4804,-190 1551.8627,-141.1333 1402.4622,-198.3114 819.4804,-154 804.1303,-152.8333 787.7631,-151.1225 772.1219,-149.2589"/>
<polygon fill="#191970" stroke="#191970" points="772.3172,-145.7568 761.9662,-148.0164 771.4671,-152.705 772.3172,-145.7568"/>
</g>
<!-- Node61&#45;&gt;Node28 -->
<g id="edge114" class="edge">
<title>Node61&#45;&gt;Node28</title>
<path fill="none" stroke="#191970" d="M2182.8412,-196.5913C2167.083,-194.3751 2150.1615,-192.0486 2134.4804,-190 2001.7595,-172.6611 1968.0126,-172.7257 1835.4804,-154 1750.3264,-141.9685 1729.9145,-132.8466 1644.4804,-123 1412.5777,-96.2723 1351.4226,-121.0426 1120.4804,-87 1120.3755,-86.9845 1120.2707,-86.969 1120.1657,-86.9534"/>
<polygon fill="#191970" stroke="#191970" points="1120.6741,-83.49 1110.2363,-85.3078 1119.5295,-90.3958 1120.6741,-83.49"/>
</g>
<!-- Node61&#45;&gt;Node31 -->
<g id="edge115" class="edge">
<title>Node61&#45;&gt;Node31</title>
<path fill="none" stroke="#191970" d="M2306.2105,-196.0571C2358.5,-187.3532 2435.1645,-172.9248 2500.4804,-154 2537.504,-143.2727 2544.1235,-132.5021 2581.4804,-123 2640.6082,-107.9603 2808.2243,-88.5291 2901.9674,-78.374"/>
<polygon fill="#191970" stroke="#191970" points="2902.6218,-81.8238 2912.1888,-77.2718 2901.8712,-74.8642 2902.6218,-81.8238"/>
</g>
<!-- Node61&#45;&gt;Node32 -->
<g id="edge116" class="edge">
<title>Node61&#45;&gt;Node32</title>
<path fill="none" stroke="#191970" d="M2306.1429,-197.7488C2407.5806,-184.9977 2608.7187,-159.7139 2712.3677,-146.6849"/>
<polygon fill="#191970" stroke="#191970" points="2712.9052,-150.145 2722.3906,-145.425 2712.0321,-143.1996 2712.9052,-150.145"/>
</g>
<!-- Node61&#45;&gt;Node41 -->
<g id="edge117" class="edge">
<title>Node61&#45;&gt;Node41</title>
<path fill="none" stroke="#191970" d="M2182.8777,-196.2963C2167.1188,-194.0857 2150.1879,-191.8357 2134.4804,-190 1958.2968,-169.4097 1749.8117,-151.8597 1646.0225,-143.5831"/>
<polygon fill="#191970" stroke="#191970" points="1646.2532,-140.0905 1636.0074,-142.7873 1645.6987,-147.0685 1646.2532,-140.0905"/>
</g>
<!-- Node61&#45;&gt;Node59 -->
<g id="edge112" class="edge">
<title>Node61&#45;&gt;Node59</title>
<path fill="none" stroke="#191970" d="M2227.2348,-190.2967C2217.2262,-181.4733 2204.4467,-170.2072 2193.3639,-160.4368"/>
<polygon fill="#191970" stroke="#191970" points="2195.4735,-157.6307 2185.6577,-153.6432 2190.8444,-162.8816 2195.4735,-157.6307"/>
</g>
<!-- Node61&#45;&gt;Node60 -->
<g id="edge113" class="edge">
<title>Node61&#45;&gt;Node60</title>
<path fill="none" stroke="#191970" d="M2257.11,-190.3009C2269.8271,-173.0303 2285.8014,-144.4613 2272.4804,-123 2263.7251,-108.8946 2249.8316,-98.534 2235.0146,-90.9689"/>
<polygon fill="#191970" stroke="#191970" points="2236.2478,-87.6817 2225.7072,-86.6112 2233.2797,-94.0213 2236.2478,-87.6817"/>
</g>
<!-- Node62&#45;&gt;Node10 -->
<g id="edge121" class="edge">
<title>Node62&#45;&gt;Node10</title>
<path fill="none" stroke="#191970" d="M1880.4135,-123.2548C1832.6241,-98.1897 1738.1266,-48.6267 1691.6245,-24.2368"/>
<polygon fill="#191970" stroke="#191970" points="1693.2093,-21.1159 1682.7278,-19.5706 1689.9579,-27.315 1693.2093,-21.1159"/>
</g>
<!-- Node62&#45;&gt;Node16 -->
<g id="edge120" class="edge">
<title>Node62&#45;&gt;Node16</title>
<path fill="none" stroke="#191970" d="M1920.1454,-123.2967C1927.1838,-113.2631 1936.4381,-100.0709 1943.8456,-89.5113"/>
<polygon fill="#191970" stroke="#191970" points="1946.9001,-91.2516 1949.7776,-81.055 1941.1694,-87.2316 1946.9001,-91.2516"/>
</g>
<!-- Node63&#45;&gt;Node10 -->
<g id="edge126" class="edge">
<title>Node63&#45;&gt;Node10</title>
<path fill="none" stroke="#191970" d="M498.0838,-190.1936C503.9444,-172.5654 515.4039,-143.4154 532.4804,-123 565.3966,-83.6475 577.974,-72.7103 626.4804,-56 723.802,-22.4729 1472.7757,-12.1633 1633.9763,-10.3224"/>
<polygon fill="#191970" stroke="#191970" points="1634.1819,-13.8204 1644.1421,-10.2087 1634.1036,-6.8209 1634.1819,-13.8204"/>
</g>
<!-- Node63&#45;&gt;Node12 -->
<g id="edge124" class="edge">
<title>Node63&#45;&gt;Node12</title>
<path fill="none" stroke="#191970" d="M546.5374,-201.2325C701.804,-188.7441 1152.8031,-152.4692 1287.8373,-141.6081"/>
<polygon fill="#191970" stroke="#191970" points="1288.4135,-145.0732 1298.1007,-140.7826 1287.8522,-138.0957 1288.4135,-145.0732"/>
</g>
<!-- Node63&#45;&gt;Node18 -->
<g id="edge125" class="edge">
<title>Node63&#45;&gt;Node18</title>
<path fill="none" stroke="#191970" d="M457.9546,-190.481C400.181,-164.0616 296.7817,-107.211 343.4804,-56 375.0168,-21.4163 706.7141,-12.457 810.5712,-10.4911"/>
<polygon fill="#191970" stroke="#191970" points="810.7829,-13.9879 820.718,-10.3078 810.6564,-6.9891 810.7829,-13.9879"/>
</g>
<!-- Node63&#45;&gt;Node23 -->
<g id="edge128" class="edge">
<title>Node63&#45;&gt;Node23</title>
<path fill="none" stroke="#191970" d="M538.8131,-190.4639C574.4914,-178.63 623.6473,-162.3258 657.3286,-151.1543"/>
<polygon fill="#191970" stroke="#191970" points="658.433,-154.4756 666.8226,-148.0053 656.2292,-147.8315 658.433,-154.4756"/>
</g>
<!-- Node63&#45;&gt;Node28 -->
<g id="edge129" class="edge">
<title>Node63&#45;&gt;Node28</title>
<path fill="none" stroke="#191970" d="M503.7511,-190.2137C517.6955,-170.8632 544.5726,-138.2199 576.4804,-123 612.4646,-105.8356 861.8626,-85.4731 984.5822,-76.3466"/>
<polygon fill="#191970" stroke="#191970" points="984.9096,-79.8321 994.6241,-75.6039 984.3932,-72.8511 984.9096,-79.8321"/>
</g>
<!-- Node63&#45;&gt;Node40 -->
<g id="edge127" class="edge">
<title>Node63&#45;&gt;Node40</title>
<path fill="none" stroke="#191970" d="M440.2136,-197.0474C402.3546,-189.5158 351.2103,-176.1682 310.4804,-154 251.0762,-121.668 199.1422,-58.4069 176.1158,-27.6421"/>
<polygon fill="#191970" stroke="#191970" points="178.9052,-25.5272 170.1625,-19.5424 173.2648,-29.6729 178.9052,-25.5272"/>
</g>
<!-- Node63&#45;&gt;Node41 -->
<g id="edge130" class="edge">
<title>Node63&#45;&gt;Node41</title>
<path fill="none" stroke="#191970" d="M546.705,-202.5756C682.722,-195.0532 1054.151,-174.2022 1363.4804,-154 1414.2483,-150.6844 1471.6694,-146.5666 1514.6865,-143.4088"/>
<polygon fill="#191970" stroke="#191970" points="1515.0277,-146.8932 1524.7439,-142.6687 1514.5139,-139.9121 1515.0277,-146.8932"/>
</g>
<!-- Node65&#45;&gt;Node10 -->
<g id="edge132" class="edge">
<title>Node65&#45;&gt;Node10</title>
<path fill="none" stroke="#191970" d="M2819.5944,-190.3044C2835.9117,-173.0371 2856.7286,-144.471 2841.4804,-123 2789.1488,-49.3121 2738.213,-73.1761 2649.4804,-56 2460.0797,-19.3375 1840.7192,-11.5757 1695.2588,-10.2433"/>
<polygon fill="#191970" stroke="#191970" points="1694.9015,-6.7402 1684.8711,-10.1519 1694.8399,-13.7399 1694.9015,-6.7402"/>
</g>
<!-- Node65&#45;&gt;Node32 -->
<g id="edge133" class="edge">
<title>Node65&#45;&gt;Node32</title>
<path fill="none" stroke="#191970" d="M2797.5806,-190.2967C2794.4557,-182.2443 2790.5414,-172.1574 2786.9993,-163.0296"/>
<polygon fill="#191970" stroke="#191970" points="2790.2376,-161.6996 2783.3568,-153.6432 2783.7117,-164.2321 2790.2376,-161.6996"/>
</g>
<!-- Node66&#45;&gt;Node12 -->
<g id="edge138" class="edge">
<title>Node66&#45;&gt;Node12</title>
<path fill="none" stroke="#191970" d="M1131.0483,-265.4477C1169.2956,-258.6764 1219.3078,-245.6612 1257.4804,-221 1283.1068,-204.4442 1304.1295,-175.4137 1315.9856,-156.5771"/>
<polygon fill="#191970" stroke="#191970" points="1318.988,-158.376 1321.188,-148.0121 1313.0052,-154.7421 1318.988,-158.376"/>
</g>
<!-- Node66&#45;&gt;Node13 -->
<g id="edge139" class="edge">
<title>Node66&#45;&gt;Node13</title>
<path fill="none" stroke="#191970" d="M1079.1175,-257.3923C1092.5359,-221.431 1126.3601,-130.7824 1141.2517,-90.8727"/>
<polygon fill="#191970" stroke="#191970" points="1144.6232,-91.8488 1144.84,-81.2562 1138.0649,-89.4016 1144.6232,-91.8488"/>
</g>
<!-- Node66&#45;&gt;Node18 -->
<g id="edge140" class="edge">
<title>Node66&#45;&gt;Node18</title>
<path fill="none" stroke="#191970" d="M1015.9581,-269.8466C868.5229,-262.7689 484.9356,-242.5093 431.4804,-221 361.7939,-192.9596 339.8443,-161.2518 328.4804,-87 326.396,-73.3808 319.1832,-66.1681 328.4804,-56 361.1123,-20.3111 704.8936,-12.0913 810.6797,-10.4006"/>
<polygon fill="#191970" stroke="#191970" points="810.7687,-13.8997 820.7145,-10.2486 810.6626,-6.9005 810.7687,-13.8997"/>
</g>
<!-- Node66&#45;&gt;Node28 -->
<g id="edge142" class="edge">
<title>Node66&#45;&gt;Node28</title>
<path fill="none" stroke="#191970" d="M1071.9019,-257.3923C1068.313,-223.0414 1059.5108,-138.7914 1055.0954,-96.5301"/>
<polygon fill="#191970" stroke="#191970" points="1058.5687,-96.0909 1054.0484,-86.5088 1051.6066,-96.8184 1058.5687,-96.0909"/>
</g>
<!-- Node66&#45;&gt;Node44 -->
<g id="edge141" class="edge">
<title>Node66&#45;&gt;Node44</title>
<path fill="none" stroke="#191970" d="M1100.6351,-257.4639C1117.5635,-248.0903 1139.5571,-235.9121 1157.9971,-225.7015"/>
<polygon fill="#191970" stroke="#191970" points="1159.9447,-228.6239 1166.9976,-220.7177 1156.5537,-222.5 1159.9447,-228.6239"/>
</g>
<!-- Node66&#45;&gt;Node67 -->
<g id="edge143" class="edge">
<title>Node66&#45;&gt;Node67</title>
<path fill="none" stroke="#191970" d="M1045.6523,-257.4639C1028.2251,-248.0475 1005.5594,-235.8008 986.6095,-225.5617"/>
<polygon fill="#191970" stroke="#191970" points="988.1062,-222.3922 977.6445,-220.7177 984.7786,-228.5507 988.1062,-222.3922"/>
</g>
<!-- Node67&#45;&gt;Node12 -->
<g id="edge144" class="edge">
<title>Node67&#45;&gt;Node12</title>
<path fill="none" stroke="#191970" d="M1007.0316,-195.8657C1066.9079,-185.7613 1163.3531,-169.2586 1246.4804,-154 1260.095,-151.5009 1274.9889,-148.6479 1288.1953,-146.0766"/>
<polygon fill="#191970" stroke="#191970" points="1289.2258,-149.4415 1298.3681,-144.087 1287.8822,-142.5716 1289.2258,-149.4415"/>
</g>
<!-- Node67&#45;&gt;Node16 -->
<g id="edge145" class="edge">
<title>Node67&#45;&gt;Node16</title>
<path fill="none" stroke="#191970" d="M993.136,-190.4254C1050.4984,-171.3037 1154.7334,-138.9075 1246.4804,-123 1379.016,-100.0204 1799.5111,-78.8843 1922.4267,-73.0716"/>
<polygon fill="#191970" stroke="#191970" points="1922.9019,-76.5533 1932.7265,-72.5876 1922.5732,-69.561 1922.9019,-76.5533"/>
</g>
<!-- Node67&#45;&gt;Node18 -->
<g id="edge146" class="edge">
<title>Node67&#45;&gt;Node18</title>
<path fill="none" stroke="#191970" d="M891.9219,-200.8403C799.7847,-192.7923 627.6295,-175.1052 609.4804,-154 596.0863,-138.4243 600.6264,-74.3272 617.4804,-56 643.178,-28.0561 755.4973,-16.1911 810.6711,-11.9767"/>
<polygon fill="#191970" stroke="#191970" points="811.1813,-15.449 820.9013,-11.2333 810.6739,-8.4674 811.1813,-15.449"/>
</g>
<!-- Node67&#45;&gt;Node28 -->
<g id="edge148" class="edge">
<title>Node67&#45;&gt;Node28</title>
<path fill="none" stroke="#191970" d="M954.773,-190.426C961.3597,-173.016 973.8063,-144.0709 990.4804,-123 999.3372,-111.8077 1010.9789,-101.3585 1021.7803,-92.837"/>
<polygon fill="#191970" stroke="#191970" points="1023.9819,-95.5598 1029.8162,-86.716 1019.7403,-89.9912 1023.9819,-95.5598"/>
</g>
<!-- Node67&#45;&gt;Node40 -->
<g id="edge147" class="edge">
<title>Node67&#45;&gt;Node40</title>
<path fill="none" stroke="#191970" d="M891.6835,-199.0205C821.8344,-190.73 700.9179,-174.905 598.4804,-154 483.6667,-130.5694 454.3156,-125.0356 343.4804,-87 288.8223,-68.2429 227.3728,-40.4382 192.2601,-23.8764"/>
<polygon fill="#191970" stroke="#191970" points="193.6173,-20.6464 183.0824,-19.5201 190.6156,-26.9701 193.6173,-20.6464"/>
</g>
<!-- Node70&#45;&gt;Node10 -->
<g id="edge156" class="edge">
<title>Node70&#45;&gt;Node10</title>
<path fill="none" stroke="#191970" d="M1548.9278,-324.3831C1596.0048,-304.9043 1664.4804,-266.1477 1664.4804,-205.5 1664.4804,-205.5 1664.4804,-205.5 1664.4804,-138.5 1664.4804,-100.0012 1664.4804,-55.0145 1664.4804,-29.7812"/>
<polygon fill="#191970" stroke="#191970" points="1667.9805,-29.6718 1664.4804,-19.6719 1660.9805,-29.6719 1667.9805,-29.6718"/>
</g>
<!-- Node70&#45;&gt;Node12 -->
<g id="edge151" class="edge">
<title>Node70&#45;&gt;Node12</title>
<path fill="none" stroke="#191970" d="M1447.71,-327.6356C1423.2198,-319.9837 1396.0985,-307.6471 1377.4804,-288 1342.7044,-251.3021 1331.5668,-189.9266 1328.0567,-158.4491"/>
<polygon fill="#191970" stroke="#191970" points="1331.5223,-157.9239 1327.0789,-148.3059 1324.5546,-158.5957 1331.5223,-157.9239"/>
</g>
<!-- Node70&#45;&gt;Node13 -->
<g id="edge152" class="edge">
<title>Node70&#45;&gt;Node13</title>
<path fill="none" stroke="#191970" d="M1499.8733,-324.2245C1483.0923,-279.3365 1432.2188,-149.3399 1396.4804,-123 1318.4885,-65.5184 1273.9668,-115.8637 1181.4804,-87 1179.6224,-86.4201 1177.7346,-85.756 1175.851,-85.0361"/>
<polygon fill="#191970" stroke="#191970" points="1177.1969,-81.8051 1166.6252,-81.1049 1174.4528,-88.2448 1177.1969,-81.8051"/>
</g>
<!-- Node70&#45;&gt;Node14 -->
<g id="edge153" class="edge">
<title>Node70&#45;&gt;Node14</title>
<path fill="none" stroke="#191970" d="M1563.034,-327.0594C1590.0601,-319.1455 1621.519,-306.7574 1645.4804,-288 1743.5164,-211.2552 1694.0468,-117.1801 1802.4804,-56 1840.3536,-34.6313 2496.8906,-15.3881 2658.6752,-10.9559"/>
<polygon fill="#191970" stroke="#191970" points="2659.129,-14.4449 2669.03,-10.674 2658.9385,-7.4475 2659.129,-14.4449"/>
</g>
<!-- Node70&#45;&gt;Node18 -->
<g id="edge154" class="edge">
<title>Node70&#45;&gt;Node18</title>
<path fill="none" stroke="#191970" d="M1505.2095,-324.4705C1503.5562,-283.5246 1492.6618,-169.9355 1423.4804,-123 1345.4804,-70.0817 1300.2571,-126.073 1214.4804,-87 1194.6454,-77.9648 1196.4666,-64.6956 1176.4804,-56 1122.0775,-32.3304 944.7481,-17.3616 872.5186,-12.1095"/>
<polygon fill="#191970" stroke="#191970" points="872.4804,-8.598 862.2567,-11.3776 871.9823,-15.5803 872.4804,-8.598"/>
</g>
<!-- Node70&#45;&gt;Node20 -->
<g id="edge155" class="edge">
<title>Node70&#45;&gt;Node20</title>
<path fill="none" stroke="#191970" d="M1563.2156,-329.6077C1597.6128,-321.9219 1641.118,-308.9482 1675.4804,-288 1804.354,-209.4353 1781.5629,-107.3835 1923.4804,-56 1929.487,-53.8252 2733.9216,-19.8336 2926.4363,-11.7263"/>
<polygon fill="#191970" stroke="#191970" points="2926.5883,-15.2231 2936.4322,-11.3055 2926.2938,-8.2293 2926.5883,-15.2231"/>
</g>
<!-- Node70&#45;&gt;Node23 -->
<g id="edge157" class="edge">
<title>Node70&#45;&gt;Node23</title>
<path fill="none" stroke="#191970" d="M1447.5563,-336.8055C1328.4891,-330.7938 1060.0794,-314.6774 972.4804,-288 869.7747,-256.722 761.5667,-185.4017 716.7918,-153.921"/>
<polygon fill="#191970" stroke="#191970" points="718.6436,-150.9433 708.4635,-148.0079 714.5911,-156.651 718.6436,-150.9433"/>
</g>
<!-- Node70&#45;&gt;Node28 -->
<g id="edge158" class="edge">
<title>Node70&#45;&gt;Node28</title>
<path fill="none" stroke="#191970" d="M1494.9793,-324.2347C1487.9821,-314.0174 1478.6124,-300.2483 1470.4804,-288 1422.1355,-215.1846 1437.0046,-170.2599 1363.4804,-123 1271.6383,-63.9658 1227.7841,-107.1469 1120.4804,-87 1120.3762,-86.9804 1120.272,-86.9609 1120.1677,-86.9412"/>
<polygon fill="#191970" stroke="#191970" points="1120.7765,-83.4939 1110.2886,-84.9955 1119.4238,-90.362 1120.7765,-83.4939"/>
</g>
<!-- Node70&#45;&gt;Node31 -->
<g id="edge159" class="edge">
<title>Node70&#45;&gt;Node31</title>
<path fill="none" stroke="#191970" d="M1563.0449,-332.1743C1615.4621,-324.5006 1694.512,-310.3964 1760.4804,-288 1918.3945,-234.3878 1936.1999,-165.4236 2097.4804,-123 2249.3797,-83.0441 2727.108,-74.0241 2902.2695,-72.0417"/>
<polygon fill="#191970" stroke="#191970" points="2902.411,-75.5405 2912.3721,-71.9315 2902.3345,-68.5409 2902.411,-75.5405"/>
</g>
<!-- Node70&#45;&gt;Node41 -->
<g id="edge162" class="edge">
<title>Node70&#45;&gt;Node41</title>
<path fill="none" stroke="#191970" d="M1511.1175,-324.3923C1523.9895,-289.8956 1555.6389,-205.075 1571.3408,-162.994"/>
<polygon fill="#191970" stroke="#191970" points="1574.6633,-164.1014 1574.8801,-153.5088 1568.1049,-161.6542 1574.6633,-164.1014"/>
</g>
<!-- Node70&#45;&gt;Node66 -->
<g id="edge160" class="edge">
<title>Node70&#45;&gt;Node66</title>
<path fill="none" stroke="#191970" d="M1447.6672,-330.5336C1368.2417,-318.2153 1225.6484,-296.1001 1141.2869,-283.0163"/>
<polygon fill="#191970" stroke="#191970" points="1141.714,-279.5408 1131.2957,-281.4667 1140.6411,-286.4581 1141.714,-279.5408"/>
</g>
<!-- Node70&#45;&gt;Node67 -->
<g id="edge161" class="edge">
<title>Node70&#45;&gt;Node67</title>
<path fill="none" stroke="#191970" d="M1447.8269,-336.2603C1324.611,-328.9488 1043.765,-310.0727 1006.4804,-288 984.2832,-274.8592 968.686,-249.2921 959.4849,-230.0856"/>
<polygon fill="#191970" stroke="#191970" points="962.5613,-228.3939 955.2552,-220.7212 956.1819,-231.2754 962.5613,-228.3939"/>
</g>
</g>
</svg>
