<?xml version="1.0" encoding="UTF-8" standalone="no"?>
<!DOCTYPE svg PUBLIC "-//W3C//DTD SVG 1.1//EN"
 "http://www.w3.org/Graphics/SVG/1.1/DTD/svg11.dtd">
<!-- Generated by graphviz version 2.40.1 (20161225.0304)
 -->
<!-- Title: /home/bdn_jz/bdn_jz/camera&#45;tracker&#45;cpp/CameraTrackerLinux/include/RotationStage.h Pages: 1 -->
<svg width="421pt" height="173pt"
 viewBox="0.00 0.00 421.00 173.00" xmlns="http://www.w3.org/2000/svg" xmlns:xlink="http://www.w3.org/1999/xlink">
<g id="graph0" class="graph" transform="scale(1 1) rotate(0) translate(4 169)">
<title>/home/bdn_jz/bdn_jz/camera&#45;tracker&#45;cpp/CameraTrackerLinux/include/RotationStage.h</title>
<polygon fill="#ffffff" stroke="transparent" points="-4,4 -4,-169 417,-169 417,4 -4,4"/>
<!-- Node0 -->
<g id="node1" class="node">
<title>Node0</title>
<polygon fill="#bfbfbf" stroke="#000000" points="109.5,-112.5 109.5,-164.5 253.5,-164.5 253.5,-112.5 109.5,-112.5"/>
<text text-anchor="start" x="117.5" y="-152.5" font-family="Helvetica,sans-Serif" font-size="10.00" fill="#000000">/home/bdn_jz/bdn_jz</text>
<text text-anchor="start" x="117.5" y="-141.5" font-family="Helvetica,sans-Serif" font-size="10.00" fill="#000000">/camera&#45;tracker&#45;cpp</text>
<text text-anchor="start" x="117.5" y="-130.5" font-family="Helvetica,sans-Serif" font-size="10.00" fill="#000000">/CameraTrackerLinux/include</text>
<text text-anchor="middle" x="181.5" y="-119.5" font-family="Helvetica,sans-Serif" font-size="10.00" fill="#000000">/RotationStage.h</text>
</g>
<!-- Node1 -->
<g id="node2" class="node">
<title>Node1</title>
<polygon fill="#ffffff" stroke="#bfbfbf" points="0,-.5 0,-19.5 41,-19.5 41,-.5 0,-.5"/>
<text text-anchor="middle" x="20.5" y="-7.5" font-family="Helvetica,sans-Serif" font-size="10.00" fill="#000000">string</text>
</g>
<!-- Node0&#45;&gt;Node1 -->
<g id="edge1" class="edge">
<title>Node0&#45;&gt;Node1</title>
<path fill="none" stroke="#191970" d="M109.1049,-121.6126C66.6694,-110.0861 18.9978,-93.7345 6.5,-76 -3.2585,-62.1527 2.4772,-42.8868 9.315,-28.7441"/>
<polygon fill="#191970" stroke="#191970" points="12.4149,-30.3693 14.048,-19.9011 6.2433,-27.066 12.4149,-30.3693"/>
</g>
<!-- Node2 -->
<g id="node3" class="node">
<title>Node2</title>
<polygon fill="#ffffff" stroke="#bfbfbf" points="15.5,-56.5 15.5,-75.5 69.5,-75.5 69.5,-56.5 15.5,-56.5"/>
<text text-anchor="middle" x="42.5" y="-63.5" font-family="Helvetica,sans-Serif" font-size="10.00" fill="#000000">iostream</text>
</g>
<!-- Node0&#45;&gt;Node2 -->
<g id="edge2" class="edge">
<title>Node0&#45;&gt;Node2</title>
<path fill="none" stroke="#191970" d="M131.3178,-112.3258C110.5841,-101.5115 87.3588,-89.3976 69.8595,-80.2703"/>
<polygon fill="#191970" stroke="#191970" points="71.264,-77.0554 60.779,-75.534 68.0268,-83.2619 71.264,-77.0554"/>
</g>
<!-- Node3 -->
<g id="node4" class="node">
<title>Node3</title>
<g id="a_node4"><a xlink:href="_conex_8h.html" target="_top" xlink:title="This file contains declarations of functions creating CONEX&#45;CC commands. ">
<polygon fill="#ffffff" stroke="#000000" points="88,-56.5 88,-75.5 141,-75.5 141,-56.5 88,-56.5"/>
<text text-anchor="middle" x="114.5" y="-63.5" font-family="Helvetica,sans-Serif" font-size="10.00" fill="#000000">Conex.h</text>
</a>
</g>
</g>
<!-- Node0&#45;&gt;Node3 -->
<g id="edge3" class="edge">
<title>Node0&#45;&gt;Node3</title>
<path fill="none" stroke="#191970" d="M157.3115,-112.3258C148.2429,-102.5128 138.1854,-91.6298 130.0986,-82.879"/>
<polygon fill="#191970" stroke="#191970" points="132.6682,-80.5027 123.3107,-75.534 127.5273,-85.2536 132.6682,-80.5027"/>
</g>
<!-- Node5 -->
<g id="node6" class="node">
<title>Node5</title>
<polygon fill="#ffffff" stroke="#bfbfbf" points="159.5,-56.5 159.5,-75.5 203.5,-75.5 203.5,-56.5 159.5,-56.5"/>
<text text-anchor="middle" x="181.5" y="-63.5" font-family="Helvetica,sans-Serif" font-size="10.00" fill="#000000">fcntl.h</text>
</g>
<!-- Node0&#45;&gt;Node5 -->
<g id="edge6" class="edge">
<title>Node0&#45;&gt;Node5</title>
<path fill="none" stroke="#191970" d="M181.5,-112.3258C181.5,-103.5142 181.5,-93.8397 181.5,-85.621"/>
<polygon fill="#191970" stroke="#191970" points="185.0001,-85.534 181.5,-75.534 178.0001,-85.534 185.0001,-85.534"/>
</g>
<!-- Node6 -->
<g id="node7" class="node">
<title>Node6</title>
<polygon fill="#ffffff" stroke="#bfbfbf" points="222,-56.5 222,-75.5 269,-75.5 269,-56.5 222,-56.5"/>
<text text-anchor="middle" x="245.5" y="-63.5" font-family="Helvetica,sans-Serif" font-size="10.00" fill="#000000">errno.h</text>
</g>
<!-- Node0&#45;&gt;Node6 -->
<g id="edge7" class="edge">
<title>Node0&#45;&gt;Node6</title>
<path fill="none" stroke="#191970" d="M204.6055,-112.3258C213.1796,-102.613 222.6791,-91.8518 230.3628,-83.1476"/>
<polygon fill="#191970" stroke="#191970" points="233.0897,-85.3472 237.0838,-75.534 227.8419,-80.7146 233.0897,-85.3472"/>
</g>
<!-- Node7 -->
<g id="node8" class="node">
<title>Node7</title>
<polygon fill="#ffffff" stroke="#bfbfbf" points="287,-56.5 287,-75.5 344,-75.5 344,-56.5 287,-56.5"/>
<text text-anchor="middle" x="315.5" y="-63.5" font-family="Helvetica,sans-Serif" font-size="10.00" fill="#000000">termios.h</text>
</g>
<!-- Node0&#45;&gt;Node7 -->
<g id="edge8" class="edge">
<title>Node0&#45;&gt;Node7</title>
<path fill="none" stroke="#191970" d="M229.8771,-112.3258C249.6799,-101.6116 271.8404,-89.6218 288.6546,-80.5246"/>
<polygon fill="#191970" stroke="#191970" points="290.7488,-83.371 297.8785,-75.534 287.4178,-77.2143 290.7488,-83.371"/>
</g>
<!-- Node8 -->
<g id="node9" class="node">
<title>Node8</title>
<polygon fill="#ffffff" stroke="#bfbfbf" points="362,-56.5 362,-75.5 413,-75.5 413,-56.5 362,-56.5"/>
<text text-anchor="middle" x="387.5" y="-63.5" font-family="Helvetica,sans-Serif" font-size="10.00" fill="#000000">unistd.h</text>
</g>
<!-- Node0&#45;&gt;Node8 -->
<g id="edge9" class="edge">
<title>Node0&#45;&gt;Node8</title>
<path fill="none" stroke="#191970" d="M253.5488,-113.143C286.8822,-101.4116 324.9834,-88.0022 352.0062,-78.4917"/>
<polygon fill="#191970" stroke="#191970" points="353.5166,-81.6707 361.7875,-75.0493 351.1927,-75.0677 353.5166,-81.6707"/>
</g>
<!-- Node3&#45;&gt;Node1 -->
<g id="edge4" class="edge">
<title>Node3&#45;&gt;Node1</title>
<path fill="none" stroke="#191970" d="M98.1264,-56.2455C83.5692,-47.5731 62.069,-34.7645 45.3848,-24.825"/>
<polygon fill="#191970" stroke="#191970" points="47.0683,-21.7539 36.6859,-19.6427 43.4856,-27.7676 47.0683,-21.7539"/>
</g>
<!-- Node4 -->
<g id="node5" class="node">
<title>Node4</title>
<polygon fill="#ffffff" stroke="#bfbfbf" points="91.5,-.5 91.5,-19.5 137.5,-19.5 137.5,-.5 91.5,-.5"/>
<text text-anchor="middle" x="114.5" y="-7.5" font-family="Helvetica,sans-Serif" font-size="10.00" fill="#000000">cstring</text>
</g>
<!-- Node3&#45;&gt;Node4 -->
<g id="edge5" class="edge">
<title>Node3&#45;&gt;Node4</title>
<path fill="none" stroke="#191970" d="M114.5,-56.2455C114.5,-48.9382 114.5,-38.6944 114.5,-29.7046"/>
<polygon fill="#191970" stroke="#191970" points="118.0001,-29.6426 114.5,-19.6427 111.0001,-29.6427 118.0001,-29.6426"/>
</g>
</g>
</svg>
