<?xml version="1.0" encoding="UTF-8" standalone="no"?>
<!DOCTYPE svg PUBLIC "-//W3C//DTD SVG 1.1//EN"
 "http://www.w3.org/Graphics/SVG/1.1/DTD/svg11.dtd">
<!-- Generated by graphviz version 2.40.1 (20161225.0304)
 -->
<!-- Title: /home/bdn_jz/bdn_jz/CameraTrackerLinux/src/RotationStage.cpp Pages: 1 -->
<svg width="421pt" height="218pt"
 viewBox="0.00 0.00 421.00 218.00" xmlns="http://www.w3.org/2000/svg" xmlns:xlink="http://www.w3.org/1999/xlink">
<g id="graph0" class="graph" transform="scale(1 1) rotate(0) translate(4 214)">
<title>/home/bdn_jz/bdn_jz/CameraTrackerLinux/src/RotationStage.cpp</title>
<polygon fill="#ffffff" stroke="transparent" points="-4,4 -4,-214 417,-214 417,4 -4,4"/>
<!-- Node0 -->
<g id="node1" class="node">
<title>Node0</title>
<polygon fill="#bfbfbf" stroke="#000000" points="123,-168.5 123,-209.5 240,-209.5 240,-168.5 123,-168.5"/>
<text text-anchor="start" x="131" y="-197.5" font-family="Helvetica,sans-Serif" font-size="10.00" fill="#000000">/home/bdn_jz/bdn_jz</text>
<text text-anchor="start" x="131" y="-186.5" font-family="Helvetica,sans-Serif" font-size="10.00" fill="#000000">/CameraTrackerLinux</text>
<text text-anchor="middle" x="181.5" y="-175.5" font-family="Helvetica,sans-Serif" font-size="10.00" fill="#000000">/src/RotationStage.cpp</text>
</g>
<!-- Node1 -->
<g id="node2" class="node">
<title>Node1</title>
<g id="a_node2"><a xlink:href="_rotation_stage_8h.html" target="_top" xlink:title="This file contains the declaration of the RotationStage class. ">
<polygon fill="#ffffff" stroke="#000000" points="138,-112.5 138,-131.5 225,-131.5 225,-112.5 138,-112.5"/>
<text text-anchor="middle" x="181.5" y="-119.5" font-family="Helvetica,sans-Serif" font-size="10.00" fill="#000000">RotationStage.h</text>
</a>
</g>
</g>
<!-- Node0&#45;&gt;Node1 -->
<g id="edge1" class="edge">
<title>Node0&#45;&gt;Node1</title>
<path fill="none" stroke="#191970" d="M181.5,-168.168C181.5,-159.8226 181.5,-150.2471 181.5,-141.9879"/>
<polygon fill="#191970" stroke="#191970" points="185.0001,-141.7804 181.5,-131.7805 178.0001,-141.7805 185.0001,-141.7804"/>
</g>
<!-- Node2 -->
<g id="node3" class="node">
<title>Node2</title>
<polygon fill="#ffffff" stroke="#bfbfbf" points="0,-.5 0,-19.5 41,-19.5 41,-.5 0,-.5"/>
<text text-anchor="middle" x="20.5" y="-7.5" font-family="Helvetica,sans-Serif" font-size="10.00" fill="#000000">string</text>
</g>
<!-- Node1&#45;&gt;Node2 -->
<g id="edge2" class="edge">
<title>Node1&#45;&gt;Node2</title>
<path fill="none" stroke="#191970" d="M137.7237,-116.5973C91.2775,-109.8597 22.4218,-96.6478 6.5,-76 -3.9608,-62.4342 2.0999,-42.8279 9.2191,-28.5103"/>
<polygon fill="#191970" stroke="#191970" points="12.3767,-30.0316 14.1268,-19.5823 6.2424,-26.6595 12.3767,-30.0316"/>
</g>
<!-- Node3 -->
<g id="node4" class="node">
<title>Node3</title>
<polygon fill="#ffffff" stroke="#bfbfbf" points="15.5,-56.5 15.5,-75.5 69.5,-75.5 69.5,-56.5 15.5,-56.5"/>
<text text-anchor="middle" x="42.5" y="-63.5" font-family="Helvetica,sans-Serif" font-size="10.00" fill="#000000">iostream</text>
</g>
<!-- Node1&#45;&gt;Node3 -->
<g id="edge3" class="edge">
<title>Node1&#45;&gt;Node3</title>
<path fill="none" stroke="#191970" d="M157.605,-112.3733C134.9918,-103.2629 100.8458,-89.5062 75.6127,-79.3404"/>
<polygon fill="#191970" stroke="#191970" points="76.6666,-75.9917 66.0831,-75.5011 74.0507,-82.4845 76.6666,-75.9917"/>
</g>
<!-- Node4 -->
<g id="node5" class="node">
<title>Node4</title>
<g id="a_node5"><a xlink:href="_conex_8h.html" target="_top" xlink:title="Conex.h">
<polygon fill="#ffffff" stroke="#000000" points="88,-56.5 88,-75.5 141,-75.5 141,-56.5 88,-56.5"/>
<text text-anchor="middle" x="114.5" y="-63.5" font-family="Helvetica,sans-Serif" font-size="10.00" fill="#000000">Conex.h</text>
</a>
</g>
</g>
<!-- Node1&#45;&gt;Node4 -->
<g id="edge4" class="edge">
<title>Node1&#45;&gt;Node4</title>
<path fill="none" stroke="#191970" d="M169.8295,-112.2455C159.9339,-103.9746 145.5373,-91.9416 133.9099,-82.2232"/>
<polygon fill="#191970" stroke="#191970" points="135.9542,-79.3703 126.0368,-75.6427 131.465,-84.7413 135.9542,-79.3703"/>
</g>
<!-- Node6 -->
<g id="node7" class="node">
<title>Node6</title>
<polygon fill="#ffffff" stroke="#bfbfbf" points="159.5,-56.5 159.5,-75.5 203.5,-75.5 203.5,-56.5 159.5,-56.5"/>
<text text-anchor="middle" x="181.5" y="-63.5" font-family="Helvetica,sans-Serif" font-size="10.00" fill="#000000">fcntl.h</text>
</g>
<!-- Node1&#45;&gt;Node6 -->
<g id="edge7" class="edge">
<title>Node1&#45;&gt;Node6</title>
<path fill="none" stroke="#191970" d="M181.5,-112.2455C181.5,-104.9382 181.5,-94.6944 181.5,-85.7046"/>
<polygon fill="#191970" stroke="#191970" points="185.0001,-85.6426 181.5,-75.6427 178.0001,-85.6427 185.0001,-85.6426"/>
</g>
<!-- Node7 -->
<g id="node8" class="node">
<title>Node7</title>
<polygon fill="#ffffff" stroke="#bfbfbf" points="222,-56.5 222,-75.5 269,-75.5 269,-56.5 222,-56.5"/>
<text text-anchor="middle" x="245.5" y="-63.5" font-family="Helvetica,sans-Serif" font-size="10.00" fill="#000000">errno.h</text>
</g>
<!-- Node1&#45;&gt;Node7 -->
<g id="edge8" class="edge">
<title>Node1&#45;&gt;Node7</title>
<path fill="none" stroke="#191970" d="M192.6479,-112.2455C202.0087,-104.0549 215.5858,-92.1749 226.6349,-82.5069"/>
<polygon fill="#191970" stroke="#191970" points="229.2588,-84.8618 234.4798,-75.6427 224.6492,-79.5937 229.2588,-84.8618"/>
</g>
<!-- Node8 -->
<g id="node9" class="node">
<title>Node8</title>
<polygon fill="#ffffff" stroke="#bfbfbf" points="287,-56.5 287,-75.5 344,-75.5 344,-56.5 287,-56.5"/>
<text text-anchor="middle" x="315.5" y="-63.5" font-family="Helvetica,sans-Serif" font-size="10.00" fill="#000000">termios.h</text>
</g>
<!-- Node1&#45;&gt;Node8 -->
<g id="edge9" class="edge">
<title>Node1&#45;&gt;Node8</title>
<path fill="none" stroke="#191970" d="M204.5354,-112.3733C226.2388,-103.3032 258.9618,-89.6279 283.255,-79.4755"/>
<polygon fill="#191970" stroke="#191970" points="284.8881,-82.5865 292.7652,-75.5011 282.1889,-76.1278 284.8881,-82.5865"/>
</g>
<!-- Node9 -->
<g id="node10" class="node">
<title>Node9</title>
<polygon fill="#ffffff" stroke="#bfbfbf" points="362,-56.5 362,-75.5 413,-75.5 413,-56.5 362,-56.5"/>
<text text-anchor="middle" x="387.5" y="-63.5" font-family="Helvetica,sans-Serif" font-size="10.00" fill="#000000">unistd.h</text>
</g>
<!-- Node1&#45;&gt;Node9 -->
<g id="edge10" class="edge">
<title>Node1&#45;&gt;Node9</title>
<path fill="none" stroke="#191970" d="M218.1445,-112.4803C250.9721,-103.8897 300.6732,-90.7308 352.2509,-76.3097"/>
<polygon fill="#191970" stroke="#191970" points="353.2167,-79.674 361.8998,-73.6031 351.3261,-72.9341 353.2167,-79.674"/>
</g>
<!-- Node4&#45;&gt;Node2 -->
<g id="edge5" class="edge">
<title>Node4&#45;&gt;Node2</title>
<path fill="none" stroke="#191970" d="M98.1264,-56.2455C83.5692,-47.5731 62.069,-34.7645 45.3848,-24.825"/>
<polygon fill="#191970" stroke="#191970" points="47.0683,-21.7539 36.6859,-19.6427 43.4856,-27.7676 47.0683,-21.7539"/>
</g>
<!-- Node5 -->
<g id="node6" class="node">
<title>Node5</title>
<polygon fill="#ffffff" stroke="#bfbfbf" points="91.5,-.5 91.5,-19.5 137.5,-19.5 137.5,-.5 91.5,-.5"/>
<text text-anchor="middle" x="114.5" y="-7.5" font-family="Helvetica,sans-Serif" font-size="10.00" fill="#000000">cstring</text>
</g>
<!-- Node4&#45;&gt;Node5 -->
<g id="edge6" class="edge">
<title>Node4&#45;&gt;Node5</title>
<path fill="none" stroke="#191970" d="M114.5,-56.2455C114.5,-48.9382 114.5,-38.6944 114.5,-29.7046"/>
<polygon fill="#191970" stroke="#191970" points="118.0001,-29.6426 114.5,-19.6427 111.0001,-29.6427 118.0001,-29.6426"/>
</g>
</g>
</svg>
