<?xml version="1.0" encoding="UTF-8" standalone="no"?>
<!DOCTYPE svg PUBLIC "-//W3C//DTD SVG 1.1//EN"
 "http://www.w3.org/Graphics/SVG/1.1/DTD/svg11.dtd">
<!-- Generated by graphviz version 2.40.1 (20161225.0304)
 -->
<!-- Title: /home/bdn_jz/bdn_jz/CameraTrackerLinux/include/RotationStage.h Pages: 1 -->
<svg width="254pt" height="128pt"
 viewBox="0.00 0.00 253.50 128.00" xmlns="http://www.w3.org/2000/svg" xmlns:xlink="http://www.w3.org/1999/xlink">
<g id="graph0" class="graph" transform="scale(1 1) rotate(0) translate(4 124)">
<title>/home/bdn_jz/bdn_jz/CameraTrackerLinux/include/RotationStage.h</title>
<polygon fill="#ffffff" stroke="transparent" points="-4,4 -4,-124 249.5,-124 249.5,4 -4,4"/>
<!-- Node9 -->
<g id="node1" class="node">
<title>Node9</title>
<polygon fill="#bfbfbf" stroke="#000000" points="59,-78.5 59,-119.5 183,-119.5 183,-78.5 59,-78.5"/>
<text text-anchor="start" x="67" y="-107.5" font-family="Helvetica,sans-Serif" font-size="10.00" fill="#000000">/home/bdn_jz/bdn_jz</text>
<text text-anchor="start" x="67" y="-96.5" font-family="Helvetica,sans-Serif" font-size="10.00" fill="#000000">/CameraTrackerLinux</text>
<text text-anchor="middle" x="121" y="-85.5" font-family="Helvetica,sans-Serif" font-size="10.00" fill="#000000">/include/RotationStage.h</text>
</g>
<!-- Node10 -->
<g id="node2" class="node">
<title>Node10</title>
<g id="a_node2"><a xlink:href="main_8cpp.html" target="_top" xlink:title="/home/bdn_jz/bdn_jz\l/CameraTrackerLinux\l/main.cpp">
<polygon fill="#ffffff" stroke="#000000" points="0,-.5 0,-41.5 110,-41.5 110,-.5 0,-.5"/>
<text text-anchor="start" x="8" y="-29.5" font-family="Helvetica,sans-Serif" font-size="10.00" fill="#000000">/home/bdn_jz/bdn_jz</text>
<text text-anchor="start" x="8" y="-18.5" font-family="Helvetica,sans-Serif" font-size="10.00" fill="#000000">/CameraTrackerLinux</text>
<text text-anchor="middle" x="55" y="-7.5" font-family="Helvetica,sans-Serif" font-size="10.00" fill="#000000">/main.cpp</text>
</a>
</g>
</g>
<!-- Node9&#45;&gt;Node10 -->
<g id="edge1" class="edge">
<title>Node9&#45;&gt;Node10</title>
<path fill="none" stroke="#191970" d="M96.7797,-70.376C88.7364,-60.8703 79.9427,-50.4778 72.5068,-41.6898"/>
<polygon fill="#191970" stroke="#191970" points="94.1819,-72.7244 103.3132,-78.0974 99.5256,-68.2027 94.1819,-72.7244"/>
</g>
<!-- Node11 -->
<g id="node3" class="node">
<title>Node11</title>
<g id="a_node3"><a xlink:href="_rotation_stage_8cpp.html" target="_top" xlink:title="/home/bdn_jz/bdn_jz\l/CameraTrackerLinux\l/src/RotationStage.cpp">
<polygon fill="#ffffff" stroke="#000000" points="128.5,-.5 128.5,-41.5 245.5,-41.5 245.5,-.5 128.5,-.5"/>
<text text-anchor="start" x="136.5" y="-29.5" font-family="Helvetica,sans-Serif" font-size="10.00" fill="#000000">/home/bdn_jz/bdn_jz</text>
<text text-anchor="start" x="136.5" y="-18.5" font-family="Helvetica,sans-Serif" font-size="10.00" fill="#000000">/CameraTrackerLinux</text>
<text text-anchor="middle" x="187" y="-7.5" font-family="Helvetica,sans-Serif" font-size="10.00" fill="#000000">/src/RotationStage.cpp</text>
</a>
</g>
</g>
<!-- Node9&#45;&gt;Node11 -->
<g id="edge2" class="edge">
<title>Node9&#45;&gt;Node11</title>
<path fill="none" stroke="#191970" d="M145.2203,-70.376C153.2636,-60.8703 162.0573,-50.4778 169.4932,-41.6898"/>
<polygon fill="#191970" stroke="#191970" points="142.4744,-68.2027 138.6868,-78.0974 147.8181,-72.7244 142.4744,-68.2027"/>
</g>
</g>
</svg>
