<?xml version="1.0" encoding="UTF-8" standalone="no"?>
<!DOCTYPE svg PUBLIC "-//W3C//DTD SVG 1.1//EN"
 "http://www.w3.org/Graphics/SVG/1.1/DTD/svg11.dtd">
<!-- Generated by graphviz version 2.40.1 (20161225.0304)
 -->
<!-- Title: /home/bdn_jz/bdn_jz/CameraTrackerLinux/include/RotationStage.h Pages: 1 -->
<svg width="421pt" height="162pt"
 viewBox="0.00 0.00 421.00 162.00" xmlns="http://www.w3.org/2000/svg" xmlns:xlink="http://www.w3.org/1999/xlink">
<g id="graph0" class="graph" transform="scale(1 1) rotate(0) translate(4 158)">
<title>/home/bdn_jz/bdn_jz/CameraTrackerLinux/include/RotationStage.h</title>
<polygon fill="#ffffff" stroke="transparent" points="-4,4 -4,-158 417,-158 417,4 -4,4"/>
<!-- Node0 -->
<g id="node1" class="node">
<title>Node0</title>
<polygon fill="#bfbfbf" stroke="#000000" points="119.5,-112.5 119.5,-153.5 243.5,-153.5 243.5,-112.5 119.5,-112.5"/>
<text text-anchor="start" x="127.5" y="-141.5" font-family="Helvetica,sans-Serif" font-size="10.00" fill="#000000">/home/bdn_jz/bdn_jz</text>
<text text-anchor="start" x="127.5" y="-130.5" font-family="Helvetica,sans-Serif" font-size="10.00" fill="#000000">/CameraTrackerLinux</text>
<text text-anchor="middle" x="181.5" y="-119.5" font-family="Helvetica,sans-Serif" font-size="10.00" fill="#000000">/include/RotationStage.h</text>
</g>
<!-- Node1 -->
<g id="node2" class="node">
<title>Node1</title>
<polygon fill="#ffffff" stroke="#bfbfbf" points="0,-.5 0,-19.5 41,-19.5 41,-.5 0,-.5"/>
<text text-anchor="middle" x="20.5" y="-7.5" font-family="Helvetica,sans-Serif" font-size="10.00" fill="#000000">string</text>
</g>
<!-- Node0&#45;&gt;Node1 -->
<g id="edge1" class="edge">
<title>Node0&#45;&gt;Node1</title>
<path fill="none" stroke="#191970" d="M119.4659,-120.8226C74.8203,-110.6521 20.1568,-94.8111 6.5,-76 -3.4524,-62.2914 2.3085,-43.0074 9.2049,-28.8228"/>
<polygon fill="#191970" stroke="#191970" points="12.3238,-30.4129 13.9815,-19.9486 6.1599,-27.0952 12.3238,-30.4129"/>
</g>
<!-- Node2 -->
<g id="node3" class="node">
<title>Node2</title>
<polygon fill="#ffffff" stroke="#bfbfbf" points="15.5,-56.5 15.5,-75.5 69.5,-75.5 69.5,-56.5 15.5,-56.5"/>
<text text-anchor="middle" x="42.5" y="-63.5" font-family="Helvetica,sans-Serif" font-size="10.00" fill="#000000">iostream</text>
</g>
<!-- Node0&#45;&gt;Node2 -->
<g id="edge2" class="edge">
<title>Node0&#45;&gt;Node2</title>
<path fill="none" stroke="#191970" d="M138.6612,-112.3511C116.9611,-101.8913 91.1736,-89.4614 71.7683,-80.1077"/>
<polygon fill="#191970" stroke="#191970" points="73.0577,-76.8439 62.5298,-75.6546 70.0182,-83.1496 73.0577,-76.8439"/>
</g>
<!-- Node3 -->
<g id="node4" class="node">
<title>Node3</title>
<g id="a_node4"><a xlink:href="_conex_8h.html" target="_top" xlink:title="Conex.h">
<polygon fill="#ffffff" stroke="#000000" points="88,-56.5 88,-75.5 141,-75.5 141,-56.5 88,-56.5"/>
<text text-anchor="middle" x="114.5" y="-63.5" font-family="Helvetica,sans-Serif" font-size="10.00" fill="#000000">Conex.h</text>
</a>
</g>
</g>
<!-- Node0&#45;&gt;Node3 -->
<g id="edge3" class="edge">
<title>Node0&#45;&gt;Node3</title>
<path fill="none" stroke="#191970" d="M160.668,-112.168C151.2794,-102.7794 140.334,-91.834 131.4574,-82.9574"/>
<polygon fill="#191970" stroke="#191970" points="133.8265,-80.3767 124.2805,-75.7805 128.8767,-85.3265 133.8265,-80.3767"/>
</g>
<!-- Node5 -->
<g id="node6" class="node">
<title>Node5</title>
<polygon fill="#ffffff" stroke="#bfbfbf" points="159.5,-56.5 159.5,-75.5 203.5,-75.5 203.5,-56.5 159.5,-56.5"/>
<text text-anchor="middle" x="181.5" y="-63.5" font-family="Helvetica,sans-Serif" font-size="10.00" fill="#000000">fcntl.h</text>
</g>
<!-- Node0&#45;&gt;Node5 -->
<g id="edge6" class="edge">
<title>Node0&#45;&gt;Node5</title>
<path fill="none" stroke="#191970" d="M181.5,-112.168C181.5,-103.8226 181.5,-94.2471 181.5,-85.9879"/>
<polygon fill="#191970" stroke="#191970" points="185.0001,-85.7804 181.5,-75.7805 178.0001,-85.7805 185.0001,-85.7804"/>
</g>
<!-- Node6 -->
<g id="node7" class="node">
<title>Node6</title>
<polygon fill="#ffffff" stroke="#bfbfbf" points="222,-56.5 222,-75.5 269,-75.5 269,-56.5 222,-56.5"/>
<text text-anchor="middle" x="245.5" y="-63.5" font-family="Helvetica,sans-Serif" font-size="10.00" fill="#000000">errno.h</text>
</g>
<!-- Node0&#45;&gt;Node6 -->
<g id="edge7" class="edge">
<title>Node0&#45;&gt;Node6</title>
<path fill="none" stroke="#191970" d="M201.3992,-112.168C210.2768,-102.8742 220.6117,-92.0549 229.0444,-83.227"/>
<polygon fill="#191970" stroke="#191970" points="231.781,-85.4292 236.1575,-75.7805 226.7192,-80.594 231.781,-85.4292"/>
</g>
<!-- Node7 -->
<g id="node8" class="node">
<title>Node7</title>
<polygon fill="#ffffff" stroke="#bfbfbf" points="287,-56.5 287,-75.5 344,-75.5 344,-56.5 287,-56.5"/>
<text text-anchor="middle" x="315.5" y="-63.5" font-family="Helvetica,sans-Serif" font-size="10.00" fill="#000000">termios.h</text>
</g>
<!-- Node0&#45;&gt;Node7 -->
<g id="edge8" class="edge">
<title>Node0&#45;&gt;Node7</title>
<path fill="none" stroke="#191970" d="M222.7978,-112.3511C243.6219,-101.9391 268.3503,-89.5748 287.0279,-80.2361"/>
<polygon fill="#191970" stroke="#191970" points="288.8117,-83.2573 296.1907,-75.6546 285.6812,-76.9963 288.8117,-83.2573"/>
</g>
<!-- Node8 -->
<g id="node9" class="node">
<title>Node8</title>
<polygon fill="#ffffff" stroke="#bfbfbf" points="362,-56.5 362,-75.5 413,-75.5 413,-56.5 362,-56.5"/>
<text text-anchor="middle" x="387.5" y="-63.5" font-family="Helvetica,sans-Serif" font-size="10.00" fill="#000000">unistd.h</text>
</g>
<!-- Node0&#45;&gt;Node8 -->
<g id="edge9" class="edge">
<title>Node0&#45;&gt;Node8</title>
<path fill="none" stroke="#191970" d="M243.5861,-112.8069C279.1356,-101.2447 322.4493,-87.1573 352.2149,-77.4762"/>
<polygon fill="#191970" stroke="#191970" points="353.332,-80.7934 361.7591,-74.372 351.1669,-74.1367 353.332,-80.7934"/>
</g>
<!-- Node3&#45;&gt;Node1 -->
<g id="edge4" class="edge">
<title>Node3&#45;&gt;Node1</title>
<path fill="none" stroke="#191970" d="M98.1264,-56.2455C83.5692,-47.5731 62.069,-34.7645 45.3848,-24.825"/>
<polygon fill="#191970" stroke="#191970" points="47.0683,-21.7539 36.6859,-19.6427 43.4856,-27.7676 47.0683,-21.7539"/>
</g>
<!-- Node4 -->
<g id="node5" class="node">
<title>Node4</title>
<polygon fill="#ffffff" stroke="#bfbfbf" points="91.5,-.5 91.5,-19.5 137.5,-19.5 137.5,-.5 91.5,-.5"/>
<text text-anchor="middle" x="114.5" y="-7.5" font-family="Helvetica,sans-Serif" font-size="10.00" fill="#000000">cstring</text>
</g>
<!-- Node3&#45;&gt;Node4 -->
<g id="edge5" class="edge">
<title>Node3&#45;&gt;Node4</title>
<path fill="none" stroke="#191970" d="M114.5,-56.2455C114.5,-48.9382 114.5,-38.6944 114.5,-29.7046"/>
<polygon fill="#191970" stroke="#191970" points="118.0001,-29.6426 114.5,-19.6427 111.0001,-29.6427 118.0001,-29.6426"/>
</g>
</g>
</svg>
