<?xml version="1.0" encoding="UTF-8" standalone="no"?>
<!DOCTYPE svg PUBLIC "-//W3C//DTD SVG 1.1//EN"
 "http://www.w3.org/Graphics/SVG/1.1/DTD/svg11.dtd">
<!-- Generated by graphviz version 2.40.1 (20161225.0304)
 -->
<!-- Title: /home/bdn_jz/bdn_jz/CameraTrackerLinux/include/Scanner.h Pages: 1 -->
<svg width="242pt" height="218pt"
 viewBox="0.00 0.00 241.50 218.00" xmlns="http://www.w3.org/2000/svg" xmlns:xlink="http://www.w3.org/1999/xlink">
<g id="graph0" class="graph" transform="scale(1 1) rotate(0) translate(4 214)">
<title>/home/bdn_jz/bdn_jz/CameraTrackerLinux/include/Scanner.h</title>
<polygon fill="#ffffff" stroke="transparent" points="-4,4 -4,-214 237.5,-214 237.5,4 -4,4"/>
<!-- Node0 -->
<g id="node1" class="node">
<title>Node0</title>
<polygon fill="#bfbfbf" stroke="#000000" points="16,-168.5 16,-209.5 126,-209.5 126,-168.5 16,-168.5"/>
<text text-anchor="start" x="24" y="-197.5" font-family="Helvetica,sans-Serif" font-size="10.00" fill="#000000">/home/bdn_jz/bdn_jz</text>
<text text-anchor="start" x="24" y="-186.5" font-family="Helvetica,sans-Serif" font-size="10.00" fill="#000000">/CameraTrackerLinux</text>
<text text-anchor="middle" x="71" y="-175.5" font-family="Helvetica,sans-Serif" font-size="10.00" fill="#000000">/include/Scanner.h</text>
</g>
<!-- Node1 -->
<g id="node2" class="node">
<title>Node1</title>
<polygon fill="#ffffff" stroke="#bfbfbf" points="0,-112.5 0,-131.5 44,-131.5 44,-112.5 0,-112.5"/>
<text text-anchor="middle" x="22" y="-119.5" font-family="Helvetica,sans-Serif" font-size="10.00" fill="#000000">zbar.h</text>
</g>
<!-- Node0&#45;&gt;Node1 -->
<g id="edge1" class="edge">
<title>Node0&#45;&gt;Node1</title>
<path fill="none" stroke="#191970" d="M55.7647,-168.168C49.1758,-159.1587 41.5385,-148.7159 35.1958,-140.0432"/>
<polygon fill="#191970" stroke="#191970" points="37.8812,-137.7861 29.1529,-131.7805 32.231,-141.9183 37.8812,-137.7861"/>
</g>
<!-- Node2 -->
<g id="node3" class="node">
<title>Node2</title>
<g id="a_node3"><a xlink:href="_chessboard_detector_8h.html" target="_top" xlink:title="This file contains the declaration of the ChessboardDetector class. ">
<polygon fill="#ffffff" stroke="#000000" points="62.5,-112.5 62.5,-131.5 177.5,-131.5 177.5,-112.5 62.5,-112.5"/>
<text text-anchor="middle" x="120" y="-119.5" font-family="Helvetica,sans-Serif" font-size="10.00" fill="#000000">ChessboardDetector.h</text>
</a>
</g>
</g>
<!-- Node0&#45;&gt;Node2 -->
<g id="edge2" class="edge">
<title>Node0&#45;&gt;Node2</title>
<path fill="none" stroke="#191970" d="M86.2353,-168.168C92.8242,-159.1587 100.4615,-148.7159 106.8042,-140.0432"/>
<polygon fill="#191970" stroke="#191970" points="109.769,-141.9183 112.8471,-131.7805 104.1188,-137.7861 109.769,-141.9183"/>
</g>
<!-- Node3 -->
<g id="node4" class="node">
<title>Node3</title>
<g id="a_node4"><a xlink:href="_chessboard_8h.html" target="_top" xlink:title="This file contains the declaration of the Chessboard class. ">
<polygon fill="#ffffff" stroke="#000000" points="81.5,-56.5 81.5,-75.5 158.5,-75.5 158.5,-56.5 81.5,-56.5"/>
<text text-anchor="middle" x="120" y="-63.5" font-family="Helvetica,sans-Serif" font-size="10.00" fill="#000000">Chessboard.h</text>
</a>
</g>
</g>
<!-- Node2&#45;&gt;Node3 -->
<g id="edge3" class="edge">
<title>Node2&#45;&gt;Node3</title>
<path fill="none" stroke="#191970" d="M120,-112.2455C120,-104.9382 120,-94.6944 120,-85.7046"/>
<polygon fill="#191970" stroke="#191970" points="123.5001,-85.6426 120,-75.6427 116.5001,-85.6427 123.5001,-85.6426"/>
</g>
<!-- Node4 -->
<g id="node5" class="node">
<title>Node4</title>
<polygon fill="#ffffff" stroke="#bfbfbf" points="14,-.5 14,-19.5 108,-19.5 108,-.5 14,-.5"/>
<text text-anchor="middle" x="61" y="-7.5" font-family="Helvetica,sans-Serif" font-size="10.00" fill="#000000">opencv2/core.hpp</text>
</g>
<!-- Node3&#45;&gt;Node4 -->
<g id="edge4" class="edge">
<title>Node3&#45;&gt;Node4</title>
<path fill="none" stroke="#191970" d="M109.723,-56.2455C101.1782,-48.1352 88.8222,-36.4075 78.6915,-26.7919"/>
<polygon fill="#191970" stroke="#191970" points="80.8218,-23.9884 71.1592,-19.6427 76.0028,-29.0655 80.8218,-23.9884"/>
</g>
<!-- Node5 -->
<g id="node6" class="node">
<title>Node5</title>
<polygon fill="#ffffff" stroke="#bfbfbf" points="126.5,-.5 126.5,-19.5 233.5,-19.5 233.5,-.5 126.5,-.5"/>
<text text-anchor="middle" x="180" y="-7.5" font-family="Helvetica,sans-Serif" font-size="10.00" fill="#000000">opencv2/opencv.hpp</text>
</g>
<!-- Node3&#45;&gt;Node5 -->
<g id="edge5" class="edge">
<title>Node3&#45;&gt;Node5</title>
<path fill="none" stroke="#191970" d="M130.4512,-56.2455C139.2269,-48.0549 151.9554,-36.1749 162.314,-26.5069"/>
<polygon fill="#191970" stroke="#191970" points="164.7461,-29.0246 169.6686,-19.6427 159.9699,-23.9072 164.7461,-29.0246"/>
</g>
</g>
</svg>
