<?xml version="1.0" encoding="UTF-8" standalone="no"?>
<!DOCTYPE svg PUBLIC "-//W3C//DTD SVG 1.1//EN"
 "http://www.w3.org/Graphics/SVG/1.1/DTD/svg11.dtd">
<!-- Generated by graphviz version 2.40.1 (20161225.0304)
 -->
<!-- Title: /home/bdn_jz/bdn_jz/camera&#45;tracker&#45;cpp/CameraTrackerLinux/src/Scanner.cpp Pages: 1 -->
<svg width="242pt" height="285pt"
 viewBox="0.00 0.00 241.50 285.00" xmlns="http://www.w3.org/2000/svg" xmlns:xlink="http://www.w3.org/1999/xlink">
<g id="graph0" class="graph" transform="scale(1 1) rotate(0) translate(4 281)">
<title>/home/bdn_jz/bdn_jz/camera&#45;tracker&#45;cpp/CameraTrackerLinux/src/Scanner.cpp</title>
<polygon fill="#ffffff" stroke="transparent" points="-4,4 -4,-281 237.5,-281 237.5,4 -4,4"/>
<!-- Node0 -->
<g id="node1" class="node">
<title>Node0</title>
<polygon fill="#bfbfbf" stroke="#000000" points="7.5,-224.5 7.5,-276.5 134.5,-276.5 134.5,-224.5 7.5,-224.5"/>
<text text-anchor="start" x="15.5" y="-264.5" font-family="Helvetica,sans-Serif" font-size="10.00" fill="#000000">/home/bdn_jz/bdn_jz</text>
<text text-anchor="start" x="15.5" y="-253.5" font-family="Helvetica,sans-Serif" font-size="10.00" fill="#000000">/camera&#45;tracker&#45;cpp</text>
<text text-anchor="start" x="15.5" y="-242.5" font-family="Helvetica,sans-Serif" font-size="10.00" fill="#000000">/CameraTrackerLinux/src</text>
<text text-anchor="middle" x="71" y="-231.5" font-family="Helvetica,sans-Serif" font-size="10.00" fill="#000000">/Scanner.cpp</text>
</g>
<!-- Node1 -->
<g id="node2" class="node">
<title>Node1</title>
<g id="a_node2"><a xlink:href="_scanner_8h.html" target="_top" target="_top" xlink:title="This file contains the declaration of the Scanner class. ">
<polygon fill="#ffffff" stroke="#000000" points="40.5,-168.5 40.5,-187.5 101.5,-187.5 101.5,-168.5 40.5,-168.5"/>
<text text-anchor="middle" x="71" y="-175.5" font-family="Helvetica,sans-Serif" font-size="10.00" fill="#000000">Scanner.h</text>
</a>
</g>
</g>
<!-- Node0&#45;&gt;Node1 -->
<g id="edge1" class="edge">
<title>Node0&#45;&gt;Node1</title>
<path fill="none" stroke="#191970" d="M71,-224.3258C71,-215.5142 71,-205.8397 71,-197.621"/>
<polygon fill="#191970" stroke="#191970" points="74.5001,-197.534 71,-187.534 67.5001,-197.534 74.5001,-197.534"/>
</g>
<!-- Node2 -->
<g id="node3" class="node">
<title>Node2</title>
<polygon fill="#ffffff" stroke="#bfbfbf" points="0,-112.5 0,-131.5 44,-131.5 44,-112.5 0,-112.5"/>
<text text-anchor="middle" x="22" y="-119.5" font-family="Helvetica,sans-Serif" font-size="10.00" fill="#000000">zbar.h</text>
</g>
<!-- Node1&#45;&gt;Node2 -->
<g id="edge2" class="edge">
<title>Node1&#45;&gt;Node2</title>
<path fill="none" stroke="#191970" d="M62.4649,-168.2455C55.5088,-160.2958 45.5117,-148.8706 37.1949,-139.3656"/>
<polygon fill="#191970" stroke="#191970" points="39.6564,-136.8637 30.4373,-131.6427 34.3884,-141.4732 39.6564,-136.8637"/>
</g>
<!-- Node3 -->
<g id="node4" class="node">
<title>Node3</title>
<g id="a_node4"><a xlink:href="_chessboard_detector_8h.html" target="_top" target="_top" xlink:title="This file contains the declaration of the ChessboardDetector class. ">
<polygon fill="#ffffff" stroke="#000000" points="62.5,-112.5 62.5,-131.5 177.5,-131.5 177.5,-112.5 62.5,-112.5"/>
<text text-anchor="middle" x="120" y="-119.5" font-family="Helvetica,sans-Serif" font-size="10.00" fill="#000000">ChessboardDetector.h</text>
</a>
</g>
</g>
<!-- Node1&#45;&gt;Node3 -->
<g id="edge3" class="edge">
<title>Node1&#45;&gt;Node3</title>
<path fill="none" stroke="#191970" d="M79.5351,-168.2455C86.4912,-160.2958 96.4883,-148.8706 104.8051,-139.3656"/>
<polygon fill="#191970" stroke="#191970" points="107.6116,-141.4732 111.5627,-131.6427 102.3436,-136.8637 107.6116,-141.4732"/>
</g>
<!-- Node4 -->
<g id="node5" class="node">
<title>Node4</title>
<g id="a_node5"><a xlink:href="_chessboard_8h.html" target="_top" target="_top" xlink:title="This file contains the declaration of the Chessboard class. ">
<polygon fill="#ffffff" stroke="#000000" points="81.5,-56.5 81.5,-75.5 158.5,-75.5 158.5,-56.5 81.5,-56.5"/>
<text text-anchor="middle" x="120" y="-63.5" font-family="Helvetica,sans-Serif" font-size="10.00" fill="#000000">Chessboard.h</text>
</a>
</g>
</g>
<!-- Node3&#45;&gt;Node4 -->
<g id="edge4" class="edge">
<title>Node3&#45;&gt;Node4</title>
<path fill="none" stroke="#191970" d="M120,-112.2455C120,-104.9382 120,-94.6944 120,-85.7046"/>
<polygon fill="#191970" stroke="#191970" points="123.5001,-85.6426 120,-75.6427 116.5001,-85.6427 123.5001,-85.6426"/>
</g>
<!-- Node5 -->
<g id="node6" class="node">
<title>Node5</title>
<polygon fill="#ffffff" stroke="#bfbfbf" points="14,-.5 14,-19.5 108,-19.5 108,-.5 14,-.5"/>
<text text-anchor="middle" x="61" y="-7.5" font-family="Helvetica,sans-Serif" font-size="10.00" fill="#000000">opencv2/core.hpp</text>
</g>
<!-- Node4&#45;&gt;Node5 -->
<g id="edge5" class="edge">
<title>Node4&#45;&gt;Node5</title>
<path fill="none" stroke="#191970" d="M109.723,-56.2455C101.1782,-48.1352 88.8222,-36.4075 78.6915,-26.7919"/>
<polygon fill="#191970" stroke="#191970" points="80.8218,-23.9884 71.1592,-19.6427 76.0028,-29.0655 80.8218,-23.9884"/>
</g>
<!-- Node6 -->
<g id="node7" class="node">
<title>Node6</title>
<polygon fill="#ffffff" stroke="#bfbfbf" points="126.5,-.5 126.5,-19.5 233.5,-19.5 233.5,-.5 126.5,-.5"/>
<text text-anchor="middle" x="180" y="-7.5" font-family="Helvetica,sans-Serif" font-size="10.00" fill="#000000">opencv2/opencv.hpp</text>
</g>
<!-- Node4&#45;&gt;Node6 -->
<g id="edge6" class="edge">
<title>Node4&#45;&gt;Node6</title>
<path fill="none" stroke="#191970" d="M130.4512,-56.2455C139.2269,-48.0549 151.9554,-36.1749 162.314,-26.5069"/>
<polygon fill="#191970" stroke="#191970" points="164.7461,-29.0246 169.6686,-19.6427 159.9699,-23.9072 164.7461,-29.0246"/>
</g>
</g>
</svg>
