<?xml version="1.0" encoding="UTF-8" standalone="no"?>
<!DOCTYPE svg PUBLIC "-//W3C//DTD SVG 1.1//EN"
 "http://www.w3.org/Graphics/SVG/1.1/DTD/svg11.dtd">
<!-- Generated by graphviz version 2.40.1 (20161225.0304)
 -->
<!-- Title: /home/bdn_jz/bdn_jz/camera&#45;tracker&#45;cpp/CameraTrackerLinux/src/Scanner.cpp Pages: 1 -->
<svg width="311pt" height="285pt"
 viewBox="0.00 0.00 311.00 285.00" xmlns="http://www.w3.org/2000/svg" xmlns:xlink="http://www.w3.org/1999/xlink">
<g id="graph0" class="graph" transform="scale(1 1) rotate(0) translate(4 281)">
<title>/home/bdn_jz/bdn_jz/camera&#45;tracker&#45;cpp/CameraTrackerLinux/src/Scanner.cpp</title>
<polygon fill="#ffffff" stroke="transparent" points="-4,4 -4,-281 307,-281 307,4 -4,4"/>
<!-- Node0 -->
<g id="node1" class="node">
<title>Node0</title>
<polygon fill="#bfbfbf" stroke="#000000" points="56.5,-224.5 56.5,-276.5 183.5,-276.5 183.5,-224.5 56.5,-224.5"/>
<text text-anchor="start" x="64.5" y="-264.5" font-family="Helvetica,sans-Serif" font-size="10.00" fill="#000000">/home/bdn_jz/bdn_jz</text>
<text text-anchor="start" x="64.5" y="-253.5" font-family="Helvetica,sans-Serif" font-size="10.00" fill="#000000">/camera&#45;tracker&#45;cpp</text>
<text text-anchor="start" x="64.5" y="-242.5" font-family="Helvetica,sans-Serif" font-size="10.00" fill="#000000">/CameraTrackerLinux/src</text>
<text text-anchor="middle" x="120" y="-231.5" font-family="Helvetica,sans-Serif" font-size="10.00" fill="#000000">/Scanner.cpp</text>
</g>
<!-- Node1 -->
<g id="node2" class="node">
<title>Node1</title>
<g id="a_node2"><a xlink:href="_scanner_8h.html" target="_top" xlink:title="This file contains the declaration of the Scanner class. ">
<polygon fill="#ffffff" stroke="#000000" points="89.5,-168.5 89.5,-187.5 150.5,-187.5 150.5,-168.5 89.5,-168.5"/>
<text text-anchor="middle" x="120" y="-175.5" font-family="Helvetica,sans-Serif" font-size="10.00" fill="#000000">Scanner.h</text>
</a>
</g>
</g>
<!-- Node0&#45;&gt;Node1 -->
<g id="edge1" class="edge">
<title>Node0&#45;&gt;Node1</title>
<path fill="none" stroke="#191970" d="M120,-224.3258C120,-215.5142 120,-205.8397 120,-197.621"/>
<polygon fill="#191970" stroke="#191970" points="123.5001,-197.534 120,-187.534 116.5001,-197.534 123.5001,-197.534"/>
</g>
<!-- Node2 -->
<g id="node3" class="node">
<title>Node2</title>
<polygon fill="#ffffff" stroke="#bfbfbf" points="49,-112.5 49,-131.5 93,-131.5 93,-112.5 49,-112.5"/>
<text text-anchor="middle" x="71" y="-119.5" font-family="Helvetica,sans-Serif" font-size="10.00" fill="#000000">zbar.h</text>
</g>
<!-- Node1&#45;&gt;Node2 -->
<g id="edge2" class="edge">
<title>Node1&#45;&gt;Node2</title>
<path fill="none" stroke="#191970" d="M111.4649,-168.2455C104.5088,-160.2958 94.5117,-148.8706 86.1949,-139.3656"/>
<polygon fill="#191970" stroke="#191970" points="88.6564,-136.8637 79.4373,-131.6427 83.3884,-141.4732 88.6564,-136.8637"/>
</g>
<!-- Node3 -->
<g id="node4" class="node">
<title>Node3</title>
<g id="a_node4"><a xlink:href="_chessboard_detector_8h.html" target="_top" xlink:title="This file contains the declaration of the ChessboardDetector class. ">
<polygon fill="#ffffff" stroke="#000000" points="111.5,-112.5 111.5,-131.5 226.5,-131.5 226.5,-112.5 111.5,-112.5"/>
<text text-anchor="middle" x="169" y="-119.5" font-family="Helvetica,sans-Serif" font-size="10.00" fill="#000000">ChessboardDetector.h</text>
</a>
</g>
</g>
<!-- Node1&#45;&gt;Node3 -->
<g id="edge3" class="edge">
<title>Node1&#45;&gt;Node3</title>
<path fill="none" stroke="#191970" d="M128.5351,-168.2455C135.4912,-160.2958 145.4883,-148.8706 153.8051,-139.3656"/>
<polygon fill="#191970" stroke="#191970" points="156.6116,-141.4732 160.5627,-131.6427 151.3436,-136.8637 156.6116,-141.4732"/>
</g>
<!-- Node4 -->
<g id="node5" class="node">
<title>Node4</title>
<g id="a_node5"><a xlink:href="_chessboard_8h.html" target="_top" xlink:title="This file contains the declaration of the Chessboard class. ">
<polygon fill="#ffffff" stroke="#000000" points="67.5,-56.5 67.5,-75.5 144.5,-75.5 144.5,-56.5 67.5,-56.5"/>
<text text-anchor="middle" x="106" y="-63.5" font-family="Helvetica,sans-Serif" font-size="10.00" fill="#000000">Chessboard.h</text>
</a>
</g>
</g>
<!-- Node3&#45;&gt;Node4 -->
<g id="edge4" class="edge">
<title>Node3&#45;&gt;Node4</title>
<path fill="none" stroke="#191970" d="M158.0262,-112.2455C148.8118,-104.0549 135.4468,-92.1749 124.5703,-82.5069"/>
<polygon fill="#191970" stroke="#191970" points="126.6474,-79.6704 116.848,-75.6427 121.9968,-84.9023 126.6474,-79.6704"/>
</g>
<!-- Node7 -->
<g id="node8" class="node">
<title>Node7</title>
<polygon fill="#ffffff" stroke="#bfbfbf" points="163,-56.5 163,-75.5 303,-75.5 303,-56.5 163,-56.5"/>
<text text-anchor="middle" x="233" y="-63.5" font-family="Helvetica,sans-Serif" font-size="10.00" fill="#000000">opencv2/calib3d/calib3d.hpp</text>
</g>
<!-- Node3&#45;&gt;Node7 -->
<g id="edge7" class="edge">
<title>Node3&#45;&gt;Node7</title>
<path fill="none" stroke="#191970" d="M180.1479,-112.2455C189.5087,-104.0549 203.0858,-92.1749 214.1349,-82.5069"/>
<polygon fill="#191970" stroke="#191970" points="216.7588,-84.8618 221.9798,-75.6427 212.1492,-79.5937 216.7588,-84.8618"/>
</g>
<!-- Node5 -->
<g id="node6" class="node">
<title>Node5</title>
<polygon fill="#ffffff" stroke="#bfbfbf" points="0,-.5 0,-19.5 94,-19.5 94,-.5 0,-.5"/>
<text text-anchor="middle" x="47" y="-7.5" font-family="Helvetica,sans-Serif" font-size="10.00" fill="#000000">opencv2/core.hpp</text>
</g>
<!-- Node4&#45;&gt;Node5 -->
<g id="edge5" class="edge">
<title>Node4&#45;&gt;Node5</title>
<path fill="none" stroke="#191970" d="M95.723,-56.2455C87.1782,-48.1352 74.8222,-36.4075 64.6915,-26.7919"/>
<polygon fill="#191970" stroke="#191970" points="66.8218,-23.9884 57.1592,-19.6427 62.0028,-29.0655 66.8218,-23.9884"/>
</g>
<!-- Node6 -->
<g id="node7" class="node">
<title>Node6</title>
<polygon fill="#ffffff" stroke="#bfbfbf" points="112.5,-.5 112.5,-19.5 219.5,-19.5 219.5,-.5 112.5,-.5"/>
<text text-anchor="middle" x="166" y="-7.5" font-family="Helvetica,sans-Serif" font-size="10.00" fill="#000000">opencv2/opencv.hpp</text>
</g>
<!-- Node4&#45;&gt;Node6 -->
<g id="edge6" class="edge">
<title>Node4&#45;&gt;Node6</title>
<path fill="none" stroke="#191970" d="M116.4512,-56.2455C125.2269,-48.0549 137.9554,-36.1749 148.314,-26.5069"/>
<polygon fill="#191970" stroke="#191970" points="150.7461,-29.0246 155.6686,-19.6427 145.9699,-23.9072 150.7461,-29.0246"/>
</g>
</g>
</svg>
