<?xml version="1.0" encoding="UTF-8" standalone="no"?>
<!DOCTYPE svg PUBLIC "-//W3C//DTD SVG 1.1//EN"
 "http://www.w3.org/Graphics/SVG/1.1/DTD/svg11.dtd">
<!-- Generated by graphviz version 2.40.1 (20161225.0304)
 -->
<!-- Title: /home/bdn_jz/bdn_jz/camera&#45;tracker&#45;cpp/CameraTrackerLinux/include/Scanner.h Pages: 1 -->
<svg width="243pt" height="229pt"
 viewBox="0.00 0.00 242.50 229.00" xmlns="http://www.w3.org/2000/svg" xmlns:xlink="http://www.w3.org/1999/xlink">
<g id="graph0" class="graph" transform="scale(1 1) rotate(0) translate(4 225)">
<title>/home/bdn_jz/bdn_jz/camera&#45;tracker&#45;cpp/CameraTrackerLinux/include/Scanner.h</title>
<polygon fill="#ffffff" stroke="transparent" points="-4,4 -4,-225 238.5,-225 238.5,4 -4,4"/>
<!-- Node0 -->
<g id="node1" class="node">
<title>Node0</title>
<polygon fill="#bfbfbf" stroke="#000000" points="0,-168.5 0,-220.5 144,-220.5 144,-168.5 0,-168.5"/>
<text text-anchor="start" x="8" y="-208.5" font-family="Helvetica,sans-Serif" font-size="10.00" fill="#000000">/home/bdn_jz/bdn_jz</text>
<text text-anchor="start" x="8" y="-197.5" font-family="Helvetica,sans-Serif" font-size="10.00" fill="#000000">/camera&#45;tracker&#45;cpp</text>
<text text-anchor="start" x="8" y="-186.5" font-family="Helvetica,sans-Serif" font-size="10.00" fill="#000000">/CameraTrackerLinux/include</text>
<text text-anchor="middle" x="72" y="-175.5" font-family="Helvetica,sans-Serif" font-size="10.00" fill="#000000">/Scanner.h</text>
</g>
<!-- Node1 -->
<g id="node2" class="node">
<title>Node1</title>
<polygon fill="#ffffff" stroke="#bfbfbf" points="1,-112.5 1,-131.5 45,-131.5 45,-112.5 1,-112.5"/>
<text text-anchor="middle" x="23" y="-119.5" font-family="Helvetica,sans-Serif" font-size="10.00" fill="#000000">zbar.h</text>
</g>
<!-- Node0&#45;&gt;Node1 -->
<g id="edge1" class="edge">
<title>Node0&#45;&gt;Node1</title>
<path fill="none" stroke="#191970" d="M54.3099,-168.3258C47.9483,-158.9134 40.9214,-148.5164 35.1392,-139.961"/>
<polygon fill="#191970" stroke="#191970" points="37.9432,-137.8593 29.4437,-131.534 32.1435,-141.7791 37.9432,-137.8593"/>
</g>
<!-- Node2 -->
<g id="node3" class="node">
<title>Node2</title>
<g id="a_node3"><a xlink:href="_chessboard_detector_8h.html" target="_top" target="_top" xlink:title="This file contains the declaration of the ChessboardDetector class. ">
<polygon fill="#ffffff" stroke="#000000" points="63.5,-112.5 63.5,-131.5 178.5,-131.5 178.5,-112.5 63.5,-112.5"/>
<text text-anchor="middle" x="121" y="-119.5" font-family="Helvetica,sans-Serif" font-size="10.00" fill="#000000">ChessboardDetector.h</text>
</a>
</g>
</g>
<!-- Node0&#45;&gt;Node2 -->
<g id="edge2" class="edge">
<title>Node0&#45;&gt;Node2</title>
<path fill="none" stroke="#191970" d="M89.6901,-168.3258C96.0517,-158.9134 103.0786,-148.5164 108.8608,-139.961"/>
<polygon fill="#191970" stroke="#191970" points="111.8565,-141.7791 114.5563,-131.534 106.0568,-137.8593 111.8565,-141.7791"/>
</g>
<!-- Node3 -->
<g id="node4" class="node">
<title>Node3</title>
<g id="a_node4"><a xlink:href="_chessboard_8h.html" target="_top" target="_top" xlink:title="This file contains the declaration of the Chessboard class. ">
<polygon fill="#ffffff" stroke="#000000" points="82.5,-56.5 82.5,-75.5 159.5,-75.5 159.5,-56.5 82.5,-56.5"/>
<text text-anchor="middle" x="121" y="-63.5" font-family="Helvetica,sans-Serif" font-size="10.00" fill="#000000">Chessboard.h</text>
</a>
</g>
</g>
<!-- Node2&#45;&gt;Node3 -->
<g id="edge3" class="edge">
<title>Node2&#45;&gt;Node3</title>
<path fill="none" stroke="#191970" d="M121,-112.2455C121,-104.9382 121,-94.6944 121,-85.7046"/>
<polygon fill="#191970" stroke="#191970" points="124.5001,-85.6426 121,-75.6427 117.5001,-85.6427 124.5001,-85.6426"/>
</g>
<!-- Node4 -->
<g id="node5" class="node">
<title>Node4</title>
<polygon fill="#ffffff" stroke="#bfbfbf" points="15,-.5 15,-19.5 109,-19.5 109,-.5 15,-.5"/>
<text text-anchor="middle" x="62" y="-7.5" font-family="Helvetica,sans-Serif" font-size="10.00" fill="#000000">opencv2/core.hpp</text>
</g>
<!-- Node3&#45;&gt;Node4 -->
<g id="edge4" class="edge">
<title>Node3&#45;&gt;Node4</title>
<path fill="none" stroke="#191970" d="M110.723,-56.2455C102.1782,-48.1352 89.8222,-36.4075 79.6915,-26.7919"/>
<polygon fill="#191970" stroke="#191970" points="81.8218,-23.9884 72.1592,-19.6427 77.0028,-29.0655 81.8218,-23.9884"/>
</g>
<!-- Node5 -->
<g id="node6" class="node">
<title>Node5</title>
<polygon fill="#ffffff" stroke="#bfbfbf" points="127.5,-.5 127.5,-19.5 234.5,-19.5 234.5,-.5 127.5,-.5"/>
<text text-anchor="middle" x="181" y="-7.5" font-family="Helvetica,sans-Serif" font-size="10.00" fill="#000000">opencv2/opencv.hpp</text>
</g>
<!-- Node3&#45;&gt;Node5 -->
<g id="edge5" class="edge">
<title>Node3&#45;&gt;Node5</title>
<path fill="none" stroke="#191970" d="M131.4512,-56.2455C140.2269,-48.0549 152.9554,-36.1749 163.314,-26.5069"/>
<polygon fill="#191970" stroke="#191970" points="165.7461,-29.0246 170.6686,-19.6427 160.9699,-23.9072 165.7461,-29.0246"/>
</g>
</g>
</svg>
