<?xml version="1.0" encoding="UTF-8" standalone="no"?>
<!DOCTYPE svg PUBLIC "-//W3C//DTD SVG 1.1//EN"
 "http://www.w3.org/Graphics/SVG/1.1/DTD/svg11.dtd">
<!-- Generated by graphviz version 2.40.1 (20161225.0304)
 -->
<!-- Title: /home/bdn_jz/bdn_jz/camera&#45;tracker&#45;cpp/CameraTrackerLinux/include/nlohmann/adl_serializer.hpp Pages: 1 -->
<svg width="1701pt" height="452pt"
 viewBox="0.00 0.00 1700.62 452.00" xmlns="http://www.w3.org/2000/svg" xmlns:xlink="http://www.w3.org/1999/xlink">
<g id="graph0" class="graph" transform="scale(1 1) rotate(0) translate(4 448)">
<title>/home/bdn_jz/bdn_jz/camera&#45;tracker&#45;cpp/CameraTrackerLinux/include/nlohmann/adl_serializer.hpp</title>
<polygon fill="#ffffff" stroke="transparent" points="-4,4 -4,-448 1696.6224,-448 1696.6224,4 -4,4"/>
<!-- Node0 -->
<g id="node1" class="node">
<title>Node0</title>
<polygon fill="#bfbfbf" stroke="#000000" points="606.6323,-391.5 606.6323,-443.5 750.6323,-443.5 750.6323,-391.5 606.6323,-391.5"/>
<text text-anchor="start" x="614.6323" y="-431.5" font-family="Helvetica,sans-Serif" font-size="10.00" fill="#000000">/home/bdn_jz/bdn_jz</text>
<text text-anchor="start" x="614.6323" y="-420.5" font-family="Helvetica,sans-Serif" font-size="10.00" fill="#000000">/camera&#45;tracker&#45;cpp</text>
<text text-anchor="start" x="614.6323" y="-409.5" font-family="Helvetica,sans-Serif" font-size="10.00" fill="#000000">/CameraTrackerLinux/include</text>
<text text-anchor="middle" x="678.6323" y="-398.5" font-family="Helvetica,sans-Serif" font-size="10.00" fill="#000000">/nlohmann/adl_serializer.hpp</text>
</g>
<!-- Node1 -->
<g id="node2" class="node">
<title>Node1</title>
<polygon fill="#ffffff" stroke="#bfbfbf" points="69.6323,-62 69.6323,-81 109.6323,-81 109.6323,-62 69.6323,-62"/>
<text text-anchor="middle" x="89.6323" y="-69" font-family="Helvetica,sans-Serif" font-size="10.00" fill="#000000">utility</text>
</g>
<!-- Node0&#45;&gt;Node1 -->
<g id="edge1" class="edge">
<title>Node0&#45;&gt;Node1</title>
<path fill="none" stroke="#191970" d="M606.5395,-408.3358C471.0595,-389.9817 184.8683,-345.4958 104.6323,-288 43.1225,-243.9231 44.5392,-196.477 62.6323,-123 65.5288,-111.2371 71.6424,-99.186 77.3207,-89.7015"/>
<polygon fill="#191970" stroke="#191970" points="80.325,-91.4992 82.7186,-81.1783 74.4112,-87.7539 80.325,-91.4992"/>
</g>
<!-- Node2 -->
<g id="node3" class="node">
<title>Node2</title>
<g id="a_node3"><a xlink:href="from__json_8hpp.html" target="_top" xlink:title="nlohmann/detail/conversions\l/from_json.hpp">
<polygon fill="#ffffff" stroke="#000000" points="608.6323,-257.5 608.6323,-287.5 748.6323,-287.5 748.6323,-257.5 608.6323,-257.5"/>
<text text-anchor="start" x="616.6323" y="-275.5" font-family="Helvetica,sans-Serif" font-size="10.00" fill="#000000">nlohmann/detail/conversions</text>
<text text-anchor="middle" x="678.6323" y="-264.5" font-family="Helvetica,sans-Serif" font-size="10.00" fill="#000000">/from_json.hpp</text>
</a>
</g>
</g>
<!-- Node0&#45;&gt;Node2 -->
<g id="edge2" class="edge">
<title>Node0&#45;&gt;Node2</title>
<path fill="none" stroke="#191970" d="M678.6323,-391.2416C678.6323,-364.8199 678.6323,-324.3355 678.6323,-298.137"/>
<polygon fill="#191970" stroke="#191970" points="682.1324,-297.8663 678.6323,-287.8663 675.1324,-297.8664 682.1324,-297.8663"/>
</g>
<!-- Node33 -->
<g id="node34" class="node">
<title>Node33</title>
<g id="a_node34"><a xlink:href="to__json_8hpp.html" target="_top" xlink:title="nlohmann/detail/conversions\l/to_json.hpp">
<polygon fill="#ffffff" stroke="#000000" points="799.6323,-324.5 799.6323,-354.5 939.6323,-354.5 939.6323,-324.5 799.6323,-324.5"/>
<text text-anchor="start" x="807.6323" y="-342.5" font-family="Helvetica,sans-Serif" font-size="10.00" fill="#000000">nlohmann/detail/conversions</text>
<text text-anchor="middle" x="869.6323" y="-331.5" font-family="Helvetica,sans-Serif" font-size="10.00" fill="#000000">/to_json.hpp</text>
</a>
</g>
</g>
<!-- Node0&#45;&gt;Node33 -->
<g id="edge56" class="edge">
<title>Node0&#45;&gt;Node33</title>
<path fill="none" stroke="#191970" d="M742.4981,-391.4187C769.0177,-380.5887 799.2063,-368.2603 823.5097,-358.3354"/>
<polygon fill="#191970" stroke="#191970" points="824.9201,-361.5401 832.8546,-354.5192 822.2735,-355.0597 824.9201,-361.5401"/>
</g>
<!-- Node2&#45;&gt;Node1 -->
<g id="edge13" class="edge">
<title>Node2&#45;&gt;Node1</title>
<path fill="none" stroke="#191970" d="M608.387,-266.6826C519.9164,-258.6046 373.441,-242.5204 323.6323,-221 303.3063,-212.2179 304.7458,-199.2585 284.6323,-190 208.1457,-154.7924 155.6646,-215.9443 98.6323,-154 83.2047,-137.2437 83.3989,-109.7221 85.8043,-91.1206"/>
<polygon fill="#191970" stroke="#191970" points="89.2822,-91.5375 87.4211,-81.1074 82.3717,-90.4216 89.2822,-91.5375"/>
</g>
<!-- Node3 -->
<g id="node4" class="node">
<title>Node3</title>
<polygon fill="#ffffff" stroke="#bfbfbf" points="706.6323,-196 706.6323,-215 762.6323,-215 762.6323,-196 706.6323,-196"/>
<text text-anchor="middle" x="734.6323" y="-203" font-family="Helvetica,sans-Serif" font-size="10.00" fill="#000000">algorithm</text>
</g>
<!-- Node2&#45;&gt;Node3 -->
<g id="edge3" class="edge">
<title>Node2&#45;&gt;Node3</title>
<path fill="none" stroke="#191970" d="M691.3395,-257.2967C699.8952,-247.0605 711.1987,-233.5366 720.1102,-222.8746"/>
<polygon fill="#191970" stroke="#191970" points="722.9184,-224.9724 726.646,-215.055 717.5474,-220.4832 722.9184,-224.9724"/>
</g>
<!-- Node4 -->
<g id="node5" class="node">
<title>Node4</title>
<polygon fill="#ffffff" stroke="#bfbfbf" points="1483.6323,-129 1483.6323,-148 1521.6323,-148 1521.6323,-129 1483.6323,-129"/>
<text text-anchor="middle" x="1502.6323" y="-136" font-family="Helvetica,sans-Serif" font-size="10.00" fill="#000000">array</text>
</g>
<!-- Node2&#45;&gt;Node4 -->
<g id="edge4" class="edge">
<title>Node2&#45;&gt;Node4</title>
<path fill="none" stroke="#191970" d="M748.6925,-269.7586C867.3824,-264.3752 1102.6083,-250.3033 1179.6323,-221 1201.6523,-212.6226 1200.7943,-198.8411 1222.6323,-190 1325.4623,-148.369 1363.3881,-185.927 1469.6323,-154 1471.5418,-153.4262 1473.481,-152.7589 1475.4137,-152.0298"/>
<polygon fill="#191970" stroke="#191970" points="1477.0215,-155.1496 1484.8554,-148.0165 1474.2831,-148.7074 1477.0215,-155.1496"/>
</g>
<!-- Node5 -->
<g id="node6" class="node">
<title>Node5</title>
<polygon fill="#ffffff" stroke="#bfbfbf" points="411.6323,-.5 411.6323,-19.5 461.6323,-19.5 461.6323,-.5 411.6323,-.5"/>
<text text-anchor="middle" x="436.6323" y="-7.5" font-family="Helvetica,sans-Serif" font-size="10.00" fill="#000000">ciso646</text>
</g>
<!-- Node2&#45;&gt;Node5 -->
<g id="edge5" class="edge">
<title>Node2&#45;&gt;Node5</title>
<path fill="none" stroke="#191970" d="M608.4834,-270.9991C460.5006,-267.1793 126.7923,-254.8719 88.6323,-221 33.0038,-171.6227 11.3333,-111.6978 60.6323,-56 83.0407,-30.683 312.068,-16.3573 401.3077,-11.7008"/>
<polygon fill="#191970" stroke="#191970" points="401.6662,-15.1871 411.4743,-11.1808 401.3085,-8.1963 401.6662,-15.1871"/>
</g>
<!-- Node6 -->
<g id="node7" class="node">
<title>Node6</title>
<polygon fill="#ffffff" stroke="#bfbfbf" points="209.1323,-196 209.1323,-215 276.1323,-215 276.1323,-196 209.1323,-196"/>
<text text-anchor="middle" x="242.6323" y="-203" font-family="Helvetica,sans-Serif" font-size="10.00" fill="#000000">forward_list</text>
</g>
<!-- Node2&#45;&gt;Node6 -->
<g id="edge6" class="edge">
<title>Node2&#45;&gt;Node6</title>
<path fill="none" stroke="#191970" d="M608.5745,-267.0321C530.3528,-260.0432 400.329,-245.7785 290.6323,-221 286.8018,-220.1348 282.8404,-219.097 278.9115,-217.9738"/>
<polygon fill="#191970" stroke="#191970" points="279.891,-214.6135 269.3054,-215.0551 277.856,-221.3112 279.891,-214.6135"/>
</g>
<!-- Node7 -->
<g id="node8" class="node">
<title>Node7</title>
<polygon fill="#ffffff" stroke="#bfbfbf" points="1093.1323,-62 1093.1323,-81 1140.1323,-81 1140.1323,-62 1093.1323,-62"/>
<text text-anchor="middle" x="1116.6323" y="-69" font-family="Helvetica,sans-Serif" font-size="10.00" fill="#000000">iterator</text>
</g>
<!-- Node2&#45;&gt;Node7 -->
<g id="edge7" class="edge">
<title>Node2&#45;&gt;Node7</title>
<path fill="none" stroke="#191970" d="M677.3916,-257.4962C676.747,-238.7581 678.8049,-207.0902 697.6323,-190 743.4306,-148.4273 915.0469,-173.8375 973.6323,-154 1020.462,-138.1431 1069.1097,-106.1972 1095.8626,-87.0445"/>
<polygon fill="#191970" stroke="#191970" points="1098.033,-89.7938 1104.0617,-81.0814 1093.9157,-84.1326 1098.033,-89.7938"/>
</g>
<!-- Node8 -->
<g id="node9" class="node">
<title>Node8</title>
<polygon fill="#ffffff" stroke="#bfbfbf" points="1241.1323,-62 1241.1323,-81 1276.1323,-81 1276.1323,-62 1241.1323,-62"/>
<text text-anchor="middle" x="1258.6323" y="-69" font-family="Helvetica,sans-Serif" font-size="10.00" fill="#000000">map</text>
</g>
<!-- Node2&#45;&gt;Node8 -->
<g id="edge8" class="edge">
<title>Node2&#45;&gt;Node8</title>
<path fill="none" stroke="#191970" d="M748.723,-265.5519C808.4915,-258.3447 896.1485,-244.7139 969.6323,-221 1034.8979,-199.9381 1047.676,-185.4252 1108.6323,-154 1152.7307,-131.2657 1203.0994,-103.1006 1232.8097,-86.2543"/>
<polygon fill="#191970" stroke="#191970" points="1234.7314,-89.1879 1241.6958,-81.2037 1231.2725,-83.1022 1234.7314,-89.1879"/>
</g>
<!-- Node9 -->
<g id="node10" class="node">
<title>Node9</title>
<polygon fill="#ffffff" stroke="#bfbfbf" points="1503.1323,-62 1503.1323,-81 1544.1323,-81 1544.1323,-62 1503.1323,-62"/>
<text text-anchor="middle" x="1523.6323" y="-69" font-family="Helvetica,sans-Serif" font-size="10.00" fill="#000000">string</text>
</g>
<!-- Node2&#45;&gt;Node9 -->
<g id="edge9" class="edge">
<title>Node2&#45;&gt;Node9</title>
<path fill="none" stroke="#191970" d="M748.8595,-262.8271C818.096,-253.0783 926.8501,-237.1956 1020.6323,-221 1091.5794,-208.7479 1108.6328,-201.9446 1179.6323,-190 1292.0693,-171.0842 1330.5418,-202.7058 1433.6323,-154 1450.4451,-146.0567 1486.4873,-110.2493 1507.5032,-88.5031"/>
<polygon fill="#191970" stroke="#191970" points="1510.1066,-90.845 1514.5026,-81.2051 1505.0546,-85.9996 1510.1066,-90.845"/>
</g>
<!-- Node10 -->
<g id="node11" class="node">
<title>Node10</title>
<polygon fill="#ffffff" stroke="#bfbfbf" points="1231.6323,-196 1231.6323,-215 1269.6323,-215 1269.6323,-196 1231.6323,-196"/>
<text text-anchor="middle" x="1250.6323" y="-203" font-family="Helvetica,sans-Serif" font-size="10.00" fill="#000000">tuple</text>
</g>
<!-- Node2&#45;&gt;Node10 -->
<g id="edge10" class="edge">
<title>Node2&#45;&gt;Node10</title>
<path fill="none" stroke="#191970" d="M748.9776,-268.7817C874.2983,-261.6592 1131.1585,-244.6705 1217.6323,-221 1219.6012,-220.4611 1221.5977,-219.8119 1223.5837,-219.0889"/>
<polygon fill="#191970" stroke="#191970" points="1225.3862,-222.1279 1233.2485,-215.0263 1222.6736,-215.6748 1225.3862,-222.1279"/>
</g>
<!-- Node11 -->
<g id="node12" class="node">
<title>Node11</title>
<polygon fill="#ffffff" stroke="#bfbfbf" points="526.6323,-.5 526.6323,-19.5 588.6323,-19.5 588.6323,-.5 526.6323,-.5"/>
<text text-anchor="middle" x="557.6323" y="-7.5" font-family="Helvetica,sans-Serif" font-size="10.00" fill="#000000">type_traits</text>
</g>
<!-- Node2&#45;&gt;Node11 -->
<g id="edge11" class="edge">
<title>Node2&#45;&gt;Node11</title>
<path fill="none" stroke="#191970" d="M635.0359,-257.4414C615.0018,-248.9796 591.9114,-236.8868 574.6323,-221 523.4036,-173.8992 512.3185,-154.035 493.6323,-87 489.9327,-73.7282 487.3459,-68.26 493.6323,-56 500.5653,-42.4789 513.5259,-32.0326 525.9804,-24.5377"/>
<polygon fill="#191970" stroke="#191970" points="527.8251,-27.5168 534.8663,-19.6001 524.425,-21.3979 527.8251,-27.5168"/>
</g>
<!-- Node12 -->
<g id="node13" class="node">
<title>Node12</title>
<polygon fill="#ffffff" stroke="#bfbfbf" points="108.1323,-196 108.1323,-215 191.1323,-215 191.1323,-196 108.1323,-196"/>
<text text-anchor="middle" x="149.6323" y="-203" font-family="Helvetica,sans-Serif" font-size="10.00" fill="#000000">unordered_map</text>
</g>
<!-- Node2&#45;&gt;Node12 -->
<g id="edge12" class="edge">
<title>Node2&#45;&gt;Node12</title>
<path fill="none" stroke="#191970" d="M608.5681,-269.2178C514.6641,-263.8549 343.1745,-250.674 199.6323,-221 195.4771,-220.141 191.1746,-219.0798 186.9165,-217.9187"/>
<polygon fill="#191970" stroke="#191970" points="187.7321,-214.5109 177.1523,-215.0764 185.7755,-221.2319 187.7321,-214.5109"/>
</g>
<!-- Node13 -->
<g id="node14" class="node">
<title>Node13</title>
<polygon fill="#ffffff" stroke="#bfbfbf" points="781.1323,-196 781.1323,-215 832.1323,-215 832.1323,-196 781.1323,-196"/>
<text text-anchor="middle" x="806.6323" y="-203" font-family="Helvetica,sans-Serif" font-size="10.00" fill="#000000">valarray</text>
</g>
<!-- Node2&#45;&gt;Node13 -->
<g id="edge14" class="edge">
<title>Node2&#45;&gt;Node13</title>
<path fill="none" stroke="#191970" d="M707.358,-257.4639C728.8347,-246.2222 758.0185,-230.9463 779.1817,-219.8686"/>
<polygon fill="#191970" stroke="#191970" points="781.0479,-222.8423 788.2845,-215.1039 777.8017,-216.6406 781.0479,-222.8423"/>
</g>
<!-- Node14 -->
<g id="node15" class="node">
<title>Node14</title>
<g id="a_node15"><a xlink:href="exceptions_8hpp.html" target="_top" xlink:title="nlohmann/detail/exceptions.hpp">
<polygon fill="#ffffff" stroke="#000000" points="332.6323,-196 332.6323,-215 486.6323,-215 486.6323,-196 332.6323,-196"/>
<text text-anchor="middle" x="409.6323" y="-203" font-family="Helvetica,sans-Serif" font-size="10.00" fill="#000000">nlohmann/detail/exceptions.hpp</text>
</a>
</g>
</g>
<!-- Node2&#45;&gt;Node14 -->
<g id="edge15" class="edge">
<title>Node2&#45;&gt;Node14</title>
<path fill="none" stroke="#191970" d="M618.2634,-257.4639C569.7317,-245.3761 502.4734,-228.624 457.5797,-217.4423"/>
<polygon fill="#191970" stroke="#191970" points="458.3448,-214.026 447.7953,-215.0053 456.6529,-220.8185 458.3448,-214.026"/>
</g>
<!-- Node19 -->
<g id="node20" class="node">
<title>Node19</title>
<g id="a_node20"><a xlink:href="macro__scope_8hpp.html" target="_top" xlink:title="nlohmann/detail/macro\l_scope.hpp">
<polygon fill="#ffffff" stroke="#000000" points="262.1323,-123.5 262.1323,-153.5 377.1323,-153.5 377.1323,-123.5 262.1323,-123.5"/>
<text text-anchor="start" x="270.1323" y="-141.5" font-family="Helvetica,sans-Serif" font-size="10.00" fill="#000000">nlohmann/detail/macro</text>
<text text-anchor="middle" x="319.6323" y="-130.5" font-family="Helvetica,sans-Serif" font-size="10.00" fill="#000000">_scope.hpp</text>
</a>
</g>
</g>
<!-- Node2&#45;&gt;Node19 -->
<g id="edge25" class="edge">
<title>Node2&#45;&gt;Node19</title>
<path fill="none" stroke="#191970" d="M608.566,-271.4629C461.7292,-268.5615 132.4575,-257.9617 98.6323,-221 89.3307,-210.8359 90.0665,-200.7914 98.6323,-190 98.7872,-189.8048 187.1771,-169.2493 252.1111,-154.1701"/>
<polygon fill="#191970" stroke="#191970" points="252.9614,-157.5659 261.9106,-151.8947 251.3781,-150.7473 252.9614,-157.5659"/>
</g>
<!-- Node22 -->
<g id="node23" class="node">
<title>Node22</title>
<g id="a_node23"><a xlink:href="cpp__future_8hpp.html" target="_top" xlink:title="nlohmann/detail/meta\l/cpp_future.hpp">
<polygon fill="#ffffff" stroke="#000000" points="502.6323,-56.5 502.6323,-86.5 612.6323,-86.5 612.6323,-56.5 502.6323,-56.5"/>
<text text-anchor="start" x="510.6323" y="-74.5" font-family="Helvetica,sans-Serif" font-size="10.00" fill="#000000">nlohmann/detail/meta</text>
<text text-anchor="middle" x="557.6323" y="-63.5" font-family="Helvetica,sans-Serif" font-size="10.00" fill="#000000">/cpp_future.hpp</text>
</a>
</g>
</g>
<!-- Node2&#45;&gt;Node22 -->
<g id="edge26" class="edge">
<title>Node2&#45;&gt;Node22</title>
<path fill="none" stroke="#191970" d="M653.7169,-257.3646C624.1228,-237.7557 576.2935,-200.5064 556.6323,-154 549.037,-136.0343 549.8049,-113.8387 552.1878,-96.9964"/>
<polygon fill="#191970" stroke="#191970" points="555.6956,-97.244 553.9153,-86.7999 548.794,-96.0747 555.6956,-97.244"/>
</g>
<!-- Node23 -->
<g id="node24" class="node">
<title>Node23</title>
<g id="a_node24"><a xlink:href="type__traits_8hpp.html" target="_top" xlink:title="nlohmann/detail/meta\l/type_traits.hpp">
<polygon fill="#ffffff" stroke="#000000" points="850.6323,-190.5 850.6323,-220.5 960.6323,-220.5 960.6323,-190.5 850.6323,-190.5"/>
<text text-anchor="start" x="858.6323" y="-208.5" font-family="Helvetica,sans-Serif" font-size="10.00" fill="#000000">nlohmann/detail/meta</text>
<text text-anchor="middle" x="905.6323" y="-197.5" font-family="Helvetica,sans-Serif" font-size="10.00" fill="#000000">/type_traits.hpp</text>
</a>
</g>
</g>
<!-- Node2&#45;&gt;Node23 -->
<g id="edge30" class="edge">
<title>Node2&#45;&gt;Node23</title>
<path fill="none" stroke="#191970" d="M729.5755,-257.4639C763.6283,-247.4131 808.6066,-234.1375 844.5768,-223.5208"/>
<polygon fill="#191970" stroke="#191970" points="845.8667,-226.7894 854.4669,-220.6017 843.8851,-220.0757 845.8667,-226.7894"/>
</g>
<!-- Node32 -->
<g id="node33" class="node">
<title>Node32</title>
<g id="a_node33"><a xlink:href="value__t_8hpp.html" target="_top" xlink:title="nlohmann/detail/value\l_t.hpp">
<polygon fill="#ffffff" stroke="#000000" points="1418.1323,-190.5 1418.1323,-220.5 1529.1323,-220.5 1529.1323,-190.5 1418.1323,-190.5"/>
<text text-anchor="start" x="1426.1323" y="-208.5" font-family="Helvetica,sans-Serif" font-size="10.00" fill="#000000">nlohmann/detail/value</text>
<text text-anchor="middle" x="1473.6323" y="-197.5" font-family="Helvetica,sans-Serif" font-size="10.00" fill="#000000">_t.hpp</text>
</a>
</g>
</g>
<!-- Node2&#45;&gt;Node32 -->
<g id="edge50" class="edge">
<title>Node2&#45;&gt;Node32</title>
<path fill="none" stroke="#191970" d="M748.8345,-266.5836C901.0427,-253.756 1259.6269,-223.5357 1407.7963,-211.0484"/>
<polygon fill="#191970" stroke="#191970" points="1408.4244,-214.508 1418.0952,-210.1805 1407.8365,-207.5327 1408.4244,-214.508"/>
</g>
<!-- Node14&#45;&gt;Node9 -->
<g id="edge18" class="edge">
<title>Node14&#45;&gt;Node9</title>
<path fill="none" stroke="#191970" d="M486.6398,-201.304C544.6433,-198.156 626.1276,-193.7602 697.6323,-190 853.4001,-181.8086 1251.4734,-205.7201 1398.6323,-154 1420.8592,-146.1882 1422.0911,-136.1608 1441.6323,-123 1460.5148,-110.2828 1482.3662,-96.6088 1498.7615,-86.549"/>
<polygon fill="#191970" stroke="#191970" points="1501.0101,-89.2769 1507.7206,-81.0781 1497.3619,-83.3027 1501.0101,-89.2769"/>
</g>
<!-- Node15 -->
<g id="node16" class="node">
<title>Node15</title>
<polygon fill="#ffffff" stroke="#bfbfbf" points="108.1323,-129 108.1323,-148 167.1323,-148 167.1323,-129 108.1323,-129"/>
<text text-anchor="middle" x="137.6323" y="-136" font-family="Helvetica,sans-Serif" font-size="10.00" fill="#000000">exception</text>
</g>
<!-- Node14&#45;&gt;Node15 -->
<g id="edge16" class="edge">
<title>Node14&#45;&gt;Node15</title>
<path fill="none" stroke="#191970" d="M353.6178,-195.9556C305.7709,-187.1445 235.4036,-172.6181 175.6323,-154 173.3364,-153.2849 170.9854,-152.4889 168.6338,-151.6458"/>
<polygon fill="#191970" stroke="#191970" points="169.6927,-148.3036 159.1021,-148.0014 167.1927,-154.842 169.6927,-148.3036"/>
</g>
<!-- Node16 -->
<g id="node17" class="node">
<title>Node16</title>
<polygon fill="#ffffff" stroke="#bfbfbf" points="185.1323,-129 185.1323,-148 244.1323,-148 244.1323,-129 185.1323,-129"/>
<text text-anchor="middle" x="214.6323" y="-136" font-family="Helvetica,sans-Serif" font-size="10.00" fill="#000000">stdexcept</text>
</g>
<!-- Node14&#45;&gt;Node16 -->
<g id="edge17" class="edge">
<title>Node14&#45;&gt;Node16</title>
<path fill="none" stroke="#191970" d="M378.4295,-195.9759C346.5874,-186.0906 295.8481,-169.8794 252.6323,-154 250.7764,-153.3181 248.8764,-152.6019 246.9636,-151.8668"/>
<polygon fill="#191970" stroke="#191970" points="248.025,-148.523 237.4384,-148.106 245.4543,-155.0339 248.025,-148.523"/>
</g>
<!-- Node17 -->
<g id="node18" class="node">
<title>Node17</title>
<g id="a_node18"><a xlink:href="position__t_8hpp.html" target="_top" xlink:title="nlohmann/detail/input\l/position_t.hpp">
<polygon fill="#ffffff" stroke="#000000" points="856.1323,-123.5 856.1323,-153.5 965.1323,-153.5 965.1323,-123.5 856.1323,-123.5"/>
<text text-anchor="start" x="864.1323" y="-141.5" font-family="Helvetica,sans-Serif" font-size="10.00" fill="#000000">nlohmann/detail/input</text>
<text text-anchor="middle" x="910.6323" y="-130.5" font-family="Helvetica,sans-Serif" font-size="10.00" fill="#000000">/position_t.hpp</text>
</a>
</g>
</g>
<!-- Node14&#45;&gt;Node17 -->
<g id="edge19" class="edge">
<title>Node14&#45;&gt;Node17</title>
<path fill="none" stroke="#191970" d="M487.0119,-199.2156C572.5394,-191.6296 714.4837,-177.149 846.0542,-153.9678"/>
<polygon fill="#191970" stroke="#191970" points="846.6806,-157.4114 855.9114,-152.2111 845.4524,-150.52 846.6806,-157.4114"/>
</g>
<!-- Node14&#45;&gt;Node19 -->
<g id="edge21" class="edge">
<title>Node14&#45;&gt;Node19</title>
<path fill="none" stroke="#191970" d="M396.7375,-195.9005C384.072,-186.4718 364.3266,-171.7725 347.9885,-159.6096"/>
<polygon fill="#191970" stroke="#191970" points="349.9221,-156.6858 339.8108,-153.5218 345.7421,-162.3007 349.9221,-156.6858"/>
</g>
<!-- Node18 -->
<g id="node19" class="node">
<title>Node18</title>
<polygon fill="#ffffff" stroke="#bfbfbf" points="1372.1323,-.5 1372.1323,-19.5 1421.1323,-19.5 1421.1323,-.5 1372.1323,-.5"/>
<text text-anchor="middle" x="1396.6323" y="-7.5" font-family="Helvetica,sans-Serif" font-size="10.00" fill="#000000">cstddef</text>
</g>
<!-- Node17&#45;&gt;Node18 -->
<g id="edge20" class="edge">
<title>Node17&#45;&gt;Node18</title>
<path fill="none" stroke="#191970" d="M936.19,-123.402C969.2815,-104.5643 1029.2863,-72.7914 1084.6323,-56 1182.2939,-26.3706 1303.146,-15.5014 1361.6417,-11.7814"/>
<polygon fill="#191970" stroke="#191970" points="1362.0479,-15.2633 1371.8188,-11.167 1361.6261,-8.276 1362.0479,-15.2633"/>
</g>
<!-- Node19&#45;&gt;Node1 -->
<g id="edge22" class="edge">
<title>Node19&#45;&gt;Node1</title>
<path fill="none" stroke="#191970" d="M268.0158,-123.4639C222.3752,-110.1686 157.3643,-91.2306 119.7325,-80.2683"/>
<polygon fill="#191970" stroke="#191970" points="120.4632,-76.8358 109.8833,-77.3992 118.5054,-83.5564 120.4632,-76.8358"/>
</g>
<!-- Node20 -->
<g id="node21" class="node">
<title>Node20</title>
<polygon fill="#ffffff" stroke="#bfbfbf" points="209.6323,-56.5 209.6323,-86.5 311.6323,-86.5 311.6323,-56.5 209.6323,-56.5"/>
<text text-anchor="start" x="217.6323" y="-74.5" font-family="Helvetica,sans-Serif" font-size="10.00" fill="#000000">nlohmann/thirdparty</text>
<text text-anchor="middle" x="260.6323" y="-63.5" font-family="Helvetica,sans-Serif" font-size="10.00" fill="#000000">/hedley/hedley.hpp</text>
</g>
<!-- Node19&#45;&gt;Node20 -->
<g id="edge23" class="edge">
<title>Node19&#45;&gt;Node20</title>
<path fill="none" stroke="#191970" d="M306.2443,-123.2967C298.7007,-114.7303 289.1296,-103.8614 280.7048,-94.2943"/>
<polygon fill="#191970" stroke="#191970" points="283.2029,-91.835 273.9673,-86.6432 277.9494,-96.4612 283.2029,-91.835"/>
</g>
<!-- Node21 -->
<g id="node22" class="node">
<title>Node21</title>
<polygon fill="#ffffff" stroke="#bfbfbf" points="330.1323,-62 330.1323,-81 375.1323,-81 375.1323,-62 330.1323,-62"/>
<text text-anchor="middle" x="352.6323" y="-69" font-family="Helvetica,sans-Serif" font-size="10.00" fill="#000000">cstdlib</text>
</g>
<!-- Node19&#45;&gt;Node21 -->
<g id="edge24" class="edge">
<title>Node19&#45;&gt;Node21</title>
<path fill="none" stroke="#191970" d="M327.1205,-123.2967C331.9625,-113.4658 338.2982,-100.6026 343.4443,-90.1545"/>
<polygon fill="#191970" stroke="#191970" points="346.6474,-91.5724 347.9261,-81.055 340.3677,-88.4794 346.6474,-91.5724"/>
</g>
<!-- Node22&#45;&gt;Node5 -->
<g id="edge27" class="edge">
<title>Node22&#45;&gt;Node5</title>
<path fill="none" stroke="#191970" d="M528.0323,-56.4554C508.6401,-46.599 483.4581,-33.7999 464.438,-24.1327"/>
<polygon fill="#191970" stroke="#191970" points="465.8835,-20.9412 455.383,-19.5303 462.7117,-27.1815 465.8835,-20.9412"/>
</g>
<!-- Node22&#45;&gt;Node11 -->
<g id="edge29" class="edge">
<title>Node22&#45;&gt;Node11</title>
<path fill="none" stroke="#191970" d="M557.6323,-56.2977C557.6323,-48.3834 557.6323,-38.6043 557.6323,-30.0759"/>
<polygon fill="#191970" stroke="#191970" points="561.1324,-29.8469 557.6323,-19.8469 554.1324,-29.847 561.1324,-29.8469"/>
</g>
<!-- Node22&#45;&gt;Node18 -->
<g id="edge28" class="edge">
<title>Node22&#45;&gt;Node18</title>
<path fill="none" stroke="#191970" d="M612.7025,-57.9883C616.7253,-57.2387 620.7328,-56.5632 624.6323,-56 770.0421,-34.9997 1231.0224,-16.2874 1361.7606,-11.2984"/>
<polygon fill="#191970" stroke="#191970" points="1362.1292,-14.787 1371.9894,-10.9104 1361.8639,-7.7921 1362.1292,-14.787"/>
</g>
<!-- Node23&#45;&gt;Node1 -->
<g id="edge34" class="edge">
<title>Node23&#45;&gt;Node1</title>
<path fill="none" stroke="#191970" d="M850.4126,-191.8278C847.112,-191.1676 843.8335,-190.5514 840.6323,-190 693.0593,-164.5814 652.961,-180.7985 505.6323,-154 451.4373,-144.1421 439.4771,-134.6193 385.6323,-123 289.2763,-102.207 173.8771,-84.0483 120.0591,-75.9656"/>
<polygon fill="#191970" stroke="#191970" points="120.2462,-72.4548 109.8392,-74.441 119.2133,-79.3782 120.2462,-72.4548"/>
</g>
<!-- Node23&#45;&gt;Node5 -->
<g id="edge31" class="edge">
<title>Node23&#45;&gt;Node5</title>
<path fill="none" stroke="#191970" d="M850.3998,-191.9003C847.1024,-191.2218 843.8281,-190.5818 840.6323,-190 715.4576,-167.2105 670.0038,-211.7491 556.6323,-154 501.946,-126.1439 462.7087,-61.1816 445.8365,-28.9012"/>
<polygon fill="#191970" stroke="#191970" points="448.7948,-26.996 441.1531,-19.6574 442.5505,-30.1597 448.7948,-26.996"/>
</g>
<!-- Node23&#45;&gt;Node11 -->
<g id="edge33" class="edge">
<title>Node23&#45;&gt;Node11</title>
<path fill="none" stroke="#191970" d="M933.0089,-190.4859C958.8631,-174.318 991.2478,-147.5976 973.6323,-123 929.4875,-61.3583 694.6266,-26.5055 598.5967,-14.6504"/>
<polygon fill="#191970" stroke="#191970" points="599.0172,-11.1759 588.6684,-13.446 598.1741,-18.1249 599.0172,-11.1759"/>
</g>
<!-- Node23&#45;&gt;Node19 -->
<g id="edge39" class="edge">
<title>Node23&#45;&gt;Node19</title>
<path fill="none" stroke="#191970" d="M850.4196,-191.7865C847.1172,-191.1367 843.8364,-190.534 840.6323,-190 676.3504,-162.6189 633.3436,-170.674 467.6323,-154 441.425,-151.363 412.6183,-148.368 387.4393,-145.7184"/>
<polygon fill="#191970" stroke="#191970" points="387.5667,-142.2125 377.2548,-144.6447 386.8327,-149.1739 387.5667,-142.2125"/>
</g>
<!-- Node23&#45;&gt;Node22 -->
<g id="edge40" class="edge">
<title>Node23&#45;&gt;Node22</title>
<path fill="none" stroke="#191970" d="M850.3931,-191.9361C847.0974,-191.2487 843.8253,-190.5969 840.6323,-190 782.4309,-179.1197 620.3574,-193.9236 576.6323,-154 561.0262,-139.7507 556.9568,-115.4832 556.3879,-96.9458"/>
<polygon fill="#191970" stroke="#191970" points="559.8879,-96.8155 556.3967,-86.8124 552.8879,-96.8094 559.8879,-96.8155"/>
</g>
<!-- Node24 -->
<g id="node25" class="node">
<title>Node24</title>
<polygon fill="#ffffff" stroke="#bfbfbf" points="1059.6323,-129 1059.6323,-148 1099.6323,-148 1099.6323,-129 1059.6323,-129"/>
<text text-anchor="middle" x="1079.6323" y="-136" font-family="Helvetica,sans-Serif" font-size="10.00" fill="#000000">limits</text>
</g>
<!-- Node23&#45;&gt;Node24 -->
<g id="edge32" class="edge">
<title>Node23&#45;&gt;Node24</title>
<path fill="none" stroke="#191970" d="M949.158,-190.4405C976.9578,-180.5884 1013.6563,-167.1482 1045.6323,-154 1047.1997,-153.3555 1048.8013,-152.6811 1050.4138,-151.9896"/>
<polygon fill="#191970" stroke="#191970" points="1051.8709,-155.1723 1059.6058,-147.932 1049.044,-148.7685 1051.8709,-155.1723"/>
</g>
<!-- Node25 -->
<g id="node26" class="node">
<title>Node25</title>
<g id="a_node26"><a xlink:href="iterator__traits_8hpp.html" target="_top" xlink:title="nlohmann/detail/iterators\l/iterator_traits.hpp">
<polygon fill="#ffffff" stroke="#000000" points="586.1323,-123.5 586.1323,-153.5 709.1323,-153.5 709.1323,-123.5 586.1323,-123.5"/>
<text text-anchor="start" x="594.1323" y="-141.5" font-family="Helvetica,sans-Serif" font-size="10.00" fill="#000000">nlohmann/detail/iterators</text>
<text text-anchor="middle" x="647.6323" y="-130.5" font-family="Helvetica,sans-Serif" font-size="10.00" fill="#000000">/iterator_traits.hpp</text>
</a>
</g>
</g>
<!-- Node23&#45;&gt;Node25 -->
<g id="edge35" class="edge">
<title>Node23&#45;&gt;Node25</title>
<path fill="none" stroke="#191970" d="M850.6013,-191.209C811.143,-180.9621 757.739,-167.0936 715.6142,-156.1542"/>
<polygon fill="#191970" stroke="#191970" points="716.2721,-152.709 705.7134,-153.5831 714.5126,-159.4843 716.2721,-152.709"/>
</g>
<!-- Node27 -->
<g id="node28" class="node">
<title>Node27</title>
<g id="a_node28"><a xlink:href="detected_8hpp.html" target="_top" xlink:title="nlohmann/detail/meta\l/detected.hpp">
<polygon fill="#ffffff" stroke="#000000" points="727.6323,-123.5 727.6323,-153.5 837.6323,-153.5 837.6323,-123.5 727.6323,-123.5"/>
<text text-anchor="start" x="735.6323" y="-141.5" font-family="Helvetica,sans-Serif" font-size="10.00" fill="#000000">nlohmann/detail/meta</text>
<text text-anchor="middle" x="782.6323" y="-130.5" font-family="Helvetica,sans-Serif" font-size="10.00" fill="#000000">/detected.hpp</text>
</a>
</g>
</g>
<!-- Node23&#45;&gt;Node27 -->
<g id="edge41" class="edge">
<title>Node23&#45;&gt;Node27</title>
<path fill="none" stroke="#191970" d="M878.0287,-190.4639C860.742,-181.0475 838.2591,-168.8008 819.462,-158.5617"/>
<polygon fill="#191970" stroke="#191970" points="821.0253,-155.4277 810.5693,-153.7177 817.6768,-161.5749 821.0253,-155.4277"/>
</g>
<!-- Node28 -->
<g id="node29" class="node">
<title>Node28</title>
<g id="a_node29"><a xlink:href="json__fwd_8hpp.html" target="_top" xlink:title="nlohmann/json_fwd.hpp">
<polygon fill="#ffffff" stroke="#000000" points="1270.1323,-129 1270.1323,-148 1389.1323,-148 1389.1323,-129 1270.1323,-129"/>
<text text-anchor="middle" x="1329.6323" y="-136" font-family="Helvetica,sans-Serif" font-size="10.00" fill="#000000">nlohmann/json_fwd.hpp</text>
</a>
</g>
</g>
<!-- Node23&#45;&gt;Node28 -->
<g id="edge44" class="edge">
<title>Node23&#45;&gt;Node28</title>
<path fill="none" stroke="#191970" d="M961.0629,-196.7409C1037.8537,-184.6065 1176.568,-162.687 1260.1757,-149.4755"/>
<polygon fill="#191970" stroke="#191970" points="1260.7595,-152.9267 1270.0907,-147.9087 1259.6669,-146.0125 1260.7595,-152.9267"/>
</g>
<!-- Node25&#45;&gt;Node7 -->
<g id="edge36" class="edge">
<title>Node25&#45;&gt;Node7</title>
<path fill="none" stroke="#191970" d="M709.142,-124.7318C712.3467,-124.121 715.5245,-123.5393 718.6323,-123 852.5391,-99.7644 1013.4583,-82.0376 1082.4784,-74.9151"/>
<polygon fill="#191970" stroke="#191970" points="1083.1568,-78.3641 1092.7484,-73.8638 1082.4439,-71.4004 1083.1568,-78.3641"/>
</g>
<!-- Node25&#45;&gt;Node22 -->
<g id="edge38" class="edge">
<title>Node25&#45;&gt;Node22</title>
<path fill="none" stroke="#191970" d="M627.2099,-123.2967C615.1275,-114.302 599.6351,-102.7687 586.3375,-92.8694"/>
<polygon fill="#191970" stroke="#191970" points="588.0852,-89.8072 577.9738,-86.6432 583.9052,-95.4221 588.0852,-89.8072"/>
</g>
<!-- Node26 -->
<g id="node27" class="node">
<title>Node26</title>
<g id="a_node27"><a xlink:href="void__t_8hpp.html" target="_top" xlink:title="nlohmann/detail/meta\l/void_t.hpp">
<polygon fill="#ffffff" stroke="#000000" points="633.6323,-56.5 633.6323,-86.5 743.6323,-86.5 743.6323,-56.5 633.6323,-56.5"/>
<text text-anchor="start" x="641.6323" y="-74.5" font-family="Helvetica,sans-Serif" font-size="10.00" fill="#000000">nlohmann/detail/meta</text>
<text text-anchor="middle" x="688.6323" y="-63.5" font-family="Helvetica,sans-Serif" font-size="10.00" fill="#000000">/void_t.hpp</text>
</a>
</g>
</g>
<!-- Node25&#45;&gt;Node26 -->
<g id="edge37" class="edge">
<title>Node25&#45;&gt;Node26</title>
<path fill="none" stroke="#191970" d="M656.9358,-123.2967C661.9682,-115.0729 668.2992,-104.7272 673.9773,-95.4483"/>
<polygon fill="#191970" stroke="#191970" points="677.1313,-96.9997 679.3656,-86.6432 671.1605,-93.346 677.1313,-96.9997"/>
</g>
<!-- Node27&#45;&gt;Node11 -->
<g id="edge42" class="edge">
<title>Node27&#45;&gt;Node11</title>
<path fill="none" stroke="#191970" d="M781.3892,-123.3082C779.0299,-104.6733 772.2211,-73.4193 752.6323,-56 730.1386,-35.9975 648.9289,-22.0158 598.6778,-15.0565"/>
<polygon fill="#191970" stroke="#191970" points="599.1403,-11.5873 588.7621,-13.7185 598.2042,-18.5244 599.1403,-11.5873"/>
</g>
<!-- Node27&#45;&gt;Node26 -->
<g id="edge43" class="edge">
<title>Node27&#45;&gt;Node26</title>
<path fill="none" stroke="#191970" d="M761.3022,-123.2967C748.5626,-114.2163 732.1933,-102.5488 718.217,-92.587"/>
<polygon fill="#191970" stroke="#191970" points="720.0526,-89.5973 709.8779,-86.6432 715.9896,-95.2975 720.0526,-89.5973"/>
</g>
<!-- Node28&#45;&gt;Node8 -->
<g id="edge46" class="edge">
<title>Node28&#45;&gt;Node8</title>
<path fill="none" stroke="#191970" d="M1319.4597,-128.9005C1308.177,-118.2535 1289.7722,-100.8856 1276.1581,-88.0385"/>
<polygon fill="#191970" stroke="#191970" points="1278.4611,-85.3994 1268.786,-81.0817 1273.6568,-90.4905 1278.4611,-85.3994"/>
</g>
<!-- Node28&#45;&gt;Node9 -->
<g id="edge48" class="edge">
<title>Node28&#45;&gt;Node9</title>
<path fill="none" stroke="#191970" d="M1357.4277,-128.9005C1393.4362,-116.4646 1455.9934,-94.8598 1493.2316,-81.9992"/>
<polygon fill="#191970" stroke="#191970" points="1494.7105,-85.1914 1503.0202,-78.6186 1492.4254,-78.5748 1494.7105,-85.1914"/>
</g>
<!-- Node29 -->
<g id="node30" class="node">
<title>Node29</title>
<polygon fill="#ffffff" stroke="#bfbfbf" points="1406.6323,-62 1406.6323,-81 1452.6323,-81 1452.6323,-62 1406.6323,-62"/>
<text text-anchor="middle" x="1429.6323" y="-69" font-family="Helvetica,sans-Serif" font-size="10.00" fill="#000000">cstdint</text>
</g>
<!-- Node28&#45;&gt;Node29 -->
<g id="edge45" class="edge">
<title>Node28&#45;&gt;Node29</title>
<path fill="none" stroke="#191970" d="M1343.9598,-128.9005C1360.3708,-117.9052 1387.4798,-99.7422 1406.8074,-86.7927"/>
<polygon fill="#191970" stroke="#191970" points="1408.9717,-89.5556 1415.3313,-81.0817 1405.0754,-83.7402 1408.9717,-89.5556"/>
</g>
<!-- Node30 -->
<g id="node31" class="node">
<title>Node30</title>
<polygon fill="#ffffff" stroke="#bfbfbf" points="1303.6323,-62 1303.6323,-81 1355.6323,-81 1355.6323,-62 1303.6323,-62"/>
<text text-anchor="middle" x="1329.6323" y="-69" font-family="Helvetica,sans-Serif" font-size="10.00" fill="#000000">memory</text>
</g>
<!-- Node28&#45;&gt;Node30 -->
<g id="edge47" class="edge">
<title>Node28&#45;&gt;Node30</title>
<path fill="none" stroke="#191970" d="M1329.6323,-128.9005C1329.6323,-119.149 1329.6323,-103.7597 1329.6323,-91.3695"/>
<polygon fill="#191970" stroke="#191970" points="1333.1324,-91.0816 1329.6323,-81.0817 1326.1324,-91.0817 1333.1324,-91.0816"/>
</g>
<!-- Node31 -->
<g id="node32" class="node">
<title>Node31</title>
<polygon fill="#ffffff" stroke="#bfbfbf" points="1615.6323,-62 1615.6323,-81 1659.6323,-81 1659.6323,-62 1615.6323,-62"/>
<text text-anchor="middle" x="1637.6323" y="-69" font-family="Helvetica,sans-Serif" font-size="10.00" fill="#000000">vector</text>
</g>
<!-- Node28&#45;&gt;Node31 -->
<g id="edge49" class="edge">
<title>Node28&#45;&gt;Node31</title>
<path fill="none" stroke="#191970" d="M1373.4341,-128.9717C1436.1561,-115.3276 1550.0933,-90.5426 1605.5654,-78.4756"/>
<polygon fill="#191970" stroke="#191970" points="1606.5054,-81.853 1615.5329,-76.3073 1605.0174,-75.013 1606.5054,-81.853"/>
</g>
<!-- Node32&#45;&gt;Node4 -->
<g id="edge51" class="edge">
<title>Node32&#45;&gt;Node4</title>
<path fill="none" stroke="#191970" d="M1480.2128,-190.2967C1484.4241,-180.5672 1489.921,-167.8675 1494.4178,-157.4784"/>
<polygon fill="#191970" stroke="#191970" points="1497.7363,-158.6225 1498.4965,-148.055 1491.3122,-155.8419 1497.7363,-158.6225"/>
</g>
<!-- Node32&#45;&gt;Node5 -->
<g id="edge52" class="edge">
<title>Node32&#45;&gt;Node5</title>
<path fill="none" stroke="#191970" d="M1417.9399,-199.3862C1373.6208,-192.8151 1311.0548,-179.6401 1261.6323,-154 1202.92,-123.5405 1210.8622,-81.0162 1149.6323,-56 1019.4095,-2.796 657.7367,-32.6249 517.6323,-20 502.6757,-18.6523 486.22,-16.7065 472.07,-14.8888"/>
<polygon fill="#191970" stroke="#191970" points="472.1324,-11.3671 461.7619,-13.5359 471.2214,-18.3075 472.1324,-11.3671"/>
</g>
<!-- Node32&#45;&gt;Node9 -->
<g id="edge55" class="edge">
<title>Node32&#45;&gt;Node9</title>
<path fill="none" stroke="#191970" d="M1507.8216,-190.4711C1522.5881,-182.045 1538.3528,-169.9734 1546.6323,-154 1557.3707,-133.2824 1546.2993,-106.9614 1536.1229,-89.6932"/>
<polygon fill="#191970" stroke="#191970" points="1539.0077,-87.7064 1530.7056,-81.1242 1533.0909,-91.447 1539.0077,-87.7064"/>
</g>
<!-- Node32&#45;&gt;Node18 -->
<g id="edge53" class="edge">
<title>Node32&#45;&gt;Node18</title>
<path fill="none" stroke="#191970" d="M1524.7504,-190.4098C1598.0552,-166.2612 1718.9519,-115.544 1668.6323,-56 1653.4526,-38.0377 1501.4457,-20.5595 1431.51,-13.3965"/>
<polygon fill="#191970" stroke="#191970" points="1431.7194,-9.8999 1421.418,-12.3763 1431.0152,-16.8644 1431.7194,-9.8999"/>
</g>
<!-- Node32&#45;&gt;Node29 -->
<g id="edge54" class="edge">
<title>Node32&#45;&gt;Node29</title>
<path fill="none" stroke="#191970" d="M1498.409,-190.3813C1510.5543,-181.4661 1523.9729,-168.9917 1530.6323,-154 1536.2254,-141.4086 1537.8294,-134.7486 1530.6323,-123 1515.944,-99.0228 1486.1963,-85.7685 1462.7711,-78.7362"/>
<polygon fill="#191970" stroke="#191970" points="1463.4264,-75.2865 1452.8562,-76.0084 1461.5695,-82.0357 1463.4264,-75.2865"/>
</g>
<!-- Node33&#45;&gt;Node1 -->
<g id="edge63" class="edge">
<title>Node33&#45;&gt;Node1</title>
<path fill="none" stroke="#191970" d="M799.5307,-338.3058C649.3014,-335.0813 300.8678,-323.8621 188.6323,-288 133.7425,-270.4613 105.9571,-271.1817 77.6323,-221 54.15,-179.3975 70.4895,-120.6393 81.6333,-90.6835"/>
<polygon fill="#191970" stroke="#191970" points="85.0245,-91.6229 85.4204,-81.0355 78.5085,-89.0652 85.0245,-91.6229"/>
</g>
<!-- Node33&#45;&gt;Node3 -->
<g id="edge57" class="edge">
<title>Node33&#45;&gt;Node3</title>
<path fill="none" stroke="#191970" d="M854.4085,-324.389C829.0367,-299.2051 778.2751,-248.8195 751.718,-222.4592"/>
<polygon fill="#191970" stroke="#191970" points="753.8711,-219.6649 744.3081,-215.1042 748.9398,-224.633 753.8711,-219.6649"/>
</g>
<!-- Node33&#45;&gt;Node5 -->
<g id="edge58" class="edge">
<title>Node33&#45;&gt;Node5</title>
<path fill="none" stroke="#191970" d="M799.5486,-338.4253C621.7786,-335.1884 163.2031,-323.4628 104.6323,-288 12.718,-232.3488 -38.383,-132.9285 36.6323,-56 61.9193,-30.068 308.4532,-15.9739 401.4079,-11.5473"/>
<polygon fill="#191970" stroke="#191970" points="401.6235,-15.0411 411.4494,-11.0784 401.297,-8.0487 401.6235,-15.0411"/>
</g>
<!-- Node33&#45;&gt;Node7 -->
<g id="edge59" class="edge">
<title>Node33&#45;&gt;Node7</title>
<path fill="none" stroke="#191970" d="M903.3261,-324.4582C957.2403,-298.3973 1061.6028,-239.3313 1108.6323,-154 1119.2871,-134.6676 1120.0454,-108.8815 1118.9417,-91.3174"/>
<polygon fill="#191970" stroke="#191970" points="1122.4063,-90.7631 1118.0328,-81.1131 1115.4339,-91.3842 1122.4063,-90.7631"/>
</g>
<!-- Node33&#45;&gt;Node9 -->
<g id="edge60" class="edge">
<title>Node33&#45;&gt;Node9</title>
<path fill="none" stroke="#191970" d="M939.6324,-335.4475C1064.352,-327.785 1320.0473,-309.9556 1406.6323,-288 1480.5673,-269.2521 1515.7875,-279.5838 1564.6323,-221 1592.8491,-187.1571 1597.3422,-163.3471 1579.6323,-123 1573.1817,-108.3041 1560.2387,-95.9567 1548.4195,-87.0391"/>
<polygon fill="#191970" stroke="#191970" points="1550.3058,-84.0862 1540.1209,-81.1673 1546.2626,-89.8004 1550.3058,-84.0862"/>
</g>
<!-- Node33&#45;&gt;Node10 -->
<g id="edge61" class="edge">
<title>Node33&#45;&gt;Node10</title>
<path fill="none" stroke="#191970" d="M939.8739,-335.079C996.4064,-329.4623 1076.8313,-316.7448 1141.6323,-288 1178.0507,-271.8453 1213.577,-241.4021 1233.7211,-222.3562"/>
<polygon fill="#191970" stroke="#191970" points="1236.3701,-224.6638 1241.1335,-215.2002 1231.5081,-219.6278 1236.3701,-224.6638"/>
</g>
<!-- Node33&#45;&gt;Node11 -->
<g id="edge62" class="edge">
<title>Node33&#45;&gt;Node11</title>
<path fill="none" stroke="#191970" d="M799.5307,-338.3058C649.3014,-335.0813 300.8678,-323.8621 188.6323,-288 133.7425,-270.4613 109.0649,-269.2958 77.6323,-221 37.4187,-159.2122 10.8353,-110.361 60.6323,-56 91.5223,-22.2788 425.1345,-24.6114 470.6323,-20 485.4819,-18.4949 501.7365,-16.6736 516.1348,-14.9999"/>
<polygon fill="#191970" stroke="#191970" points="516.7202,-18.4553 526.2443,-13.8139 515.9045,-11.503 516.7202,-18.4553"/>
</g>
<!-- Node33&#45;&gt;Node13 -->
<g id="edge64" class="edge">
<title>Node33&#45;&gt;Node13</title>
<path fill="none" stroke="#191970" d="M862.5278,-324.389C850.9428,-299.7478 828.0145,-250.9796 815.4224,-224.1965"/>
<polygon fill="#191970" stroke="#191970" points="818.5698,-222.6647 811.1477,-215.1042 812.235,-225.6431 818.5698,-222.6647"/>
</g>
<!-- Node33&#45;&gt;Node22 -->
<g id="edge73" class="edge">
<title>Node33&#45;&gt;Node22</title>
<path fill="none" stroke="#191970" d="M799.5003,-334.0255C616.3983,-319.0264 134.8715,-274.7842 88.6323,-221 74.011,-203.9929 82.0486,-138.9904 98.6323,-123 105.6505,-116.2329 367.0427,-90.0126 492.165,-77.8112"/>
<polygon fill="#191970" stroke="#191970" points="492.7719,-81.2687 502.3857,-76.8161 492.0936,-74.3017 492.7719,-81.2687"/>
</g>
<!-- Node33&#45;&gt;Node23 -->
<g id="edge74" class="edge">
<title>Node33&#45;&gt;Node23</title>
<path fill="none" stroke="#191970" d="M873.692,-324.389C879.8228,-301.5686 891.513,-258.055 898.9225,-230.4751"/>
<polygon fill="#191970" stroke="#191970" points="902.3177,-231.3271 901.5322,-220.7614 895.5574,-229.5108 902.3177,-231.3271"/>
</g>
<!-- Node33&#45;&gt;Node31 -->
<g id="edge65" class="edge">
<title>Node33&#45;&gt;Node31</title>
<path fill="none" stroke="#191970" d="M939.8818,-337.6353C1078.0598,-333.3014 1380.2943,-320.3432 1478.6323,-288 1532.6502,-270.2336 1552.2666,-265.5292 1587.6323,-221 1618.7234,-181.853 1630.9019,-122.4567 1635.3279,-91.639"/>
<polygon fill="#191970" stroke="#191970" points="1638.8498,-91.6966 1636.6679,-81.3288 1631.9082,-90.7943 1638.8498,-91.6966"/>
</g>
<!-- Node33&#45;&gt;Node32 -->
<g id="edge75" class="edge">
<title>Node33&#45;&gt;Node32</title>
<path fill="none" stroke="#191970" d="M940.0144,-337.0475C1058.5792,-332.1196 1292.6393,-318.7415 1368.6323,-288 1401.6446,-274.6455 1432.8443,-247.6138 1452.5208,-228.1267"/>
<polygon fill="#191970" stroke="#191970" points="1455.1996,-230.3947 1459.7247,-220.8148 1450.2132,-225.4819 1455.1996,-230.3947"/>
</g>
<!-- Node34 -->
<g id="node35" class="node">
<title>Node34</title>
<g id="a_node35"><a xlink:href="iteration__proxy_8hpp.html" target="_top" xlink:title="nlohmann/detail/iterators\l/iteration_proxy.hpp">
<polygon fill="#ffffff" stroke="#000000" points="1236.1323,-257.5 1236.1323,-287.5 1359.1323,-287.5 1359.1323,-257.5 1236.1323,-257.5"/>
<text text-anchor="start" x="1244.1323" y="-275.5" font-family="Helvetica,sans-Serif" font-size="10.00" fill="#000000">nlohmann/detail/iterators</text>
<text text-anchor="middle" x="1297.6323" y="-264.5" font-family="Helvetica,sans-Serif" font-size="10.00" fill="#000000">/iteration_proxy.hpp</text>
</a>
</g>
</g>
<!-- Node33&#45;&gt;Node34 -->
<g id="edge66" class="edge">
<title>Node33&#45;&gt;Node34</title>
<path fill="none" stroke="#191970" d="M939.706,-328.6826C1006.7125,-318.3186 1110.5844,-302.1997 1200.6323,-288 1208.8656,-286.7017 1217.4908,-285.3341 1226.0581,-283.9711"/>
<polygon fill="#191970" stroke="#191970" points="1226.737,-287.4072 1236.0619,-282.3775 1225.6357,-280.4943 1226.737,-287.4072"/>
</g>
<!-- Node34&#45;&gt;Node7 -->
<g id="edge68" class="edge">
<title>Node34&#45;&gt;Node7</title>
<path fill="none" stroke="#191970" d="M1298.1312,-257.2593C1297.9076,-239.1514 1294.8507,-209.0074 1278.6323,-190 1250.9362,-157.5412 1224.4734,-178.632 1189.6323,-154 1164.383,-136.1493 1141.9086,-107.9384 1128.7755,-89.5743"/>
<polygon fill="#191970" stroke="#191970" points="1131.5366,-87.4145 1122.9507,-81.2071 1125.7916,-91.414 1131.5366,-87.4145"/>
</g>
<!-- Node34&#45;&gt;Node9 -->
<g id="edge69" class="edge">
<title>Node34&#45;&gt;Node9</title>
<path fill="none" stroke="#191970" d="M1359.2625,-266.1726C1421.5813,-258.6037 1512.3464,-243.9931 1538.6323,-221 1572.3843,-191.4761 1576.9115,-165.5084 1562.6323,-123 1558.3233,-110.1723 1549.4127,-97.9963 1541.1954,-88.7072"/>
<polygon fill="#191970" stroke="#191970" points="1543.6806,-86.2408 1534.2856,-81.3434 1538.576,-91.0307 1543.6806,-86.2408"/>
</g>
<!-- Node34&#45;&gt;Node10 -->
<g id="edge70" class="edge">
<title>Node34&#45;&gt;Node10</title>
<path fill="none" stroke="#191970" d="M1286.9672,-257.2967C1279.9288,-247.2631 1270.6745,-234.0709 1263.2671,-223.5113"/>
<polygon fill="#191970" stroke="#191970" points="1265.9432,-221.2316 1257.335,-215.055 1260.2126,-225.2516 1265.9432,-221.2316"/>
</g>
<!-- Node34&#45;&gt;Node18 -->
<g id="edge67" class="edge">
<title>Node34&#45;&gt;Node18</title>
<path fill="none" stroke="#191970" d="M1359.2174,-268.8272C1414.9896,-263.6277 1498.3271,-251.1042 1564.6323,-221 1638.2419,-187.5794 1667.4533,-165.2823 1687.6323,-87 1691.0714,-73.6583 1696.5818,-66.4754 1687.6323,-56 1671.1261,-36.6796 1504.8889,-19.6353 1431.3324,-12.9759"/>
<polygon fill="#191970" stroke="#191970" points="1431.4528,-9.4729 1421.1812,-12.0697 1430.8303,-16.4451 1431.4528,-9.4729"/>
</g>
<!-- Node34&#45;&gt;Node23 -->
<g id="edge71" class="edge">
<title>Node34&#45;&gt;Node23</title>
<path fill="none" stroke="#191970" d="M1235.9511,-261.9575C1163.7744,-249.6212 1044.7745,-229.282 971.033,-216.6782"/>
<polygon fill="#191970" stroke="#191970" points="971.3845,-213.1876 960.9378,-214.9527 970.2051,-220.0875 971.3845,-213.1876"/>
</g>
<!-- Node34&#45;&gt;Node32 -->
<g id="edge72" class="edge">
<title>Node34&#45;&gt;Node32</title>
<path fill="none" stroke="#191970" d="M1337.1301,-257.4639C1362.9682,-247.6278 1396.9189,-234.7034 1424.497,-224.2049"/>
<polygon fill="#191970" stroke="#191970" points="1425.8617,-227.4305 1433.9622,-220.6017 1423.3712,-220.8885 1425.8617,-227.4305"/>
</g>
</g>
</svg>
