<?xml version="1.0" encoding="UTF-8" standalone="no"?>
<!DOCTYPE svg PUBLIC "-//W3C//DTD SVG 1.1//EN"
 "http://www.w3.org/Graphics/SVG/1.1/DTD/svg11.dtd">
<!-- Generated by graphviz version 2.40.1 (20161225.0304)
 -->
<!-- Title: /home/bdn_jz/bdn_jz/camera&#45;tracker&#45;cpp/CameraTrackerLinux/include/nlohmann/detail/output/binary_writer.hpp Pages: 1 -->
<svg width="2661pt" height="463pt"
 viewBox="0.00 0.00 2661.00 463.00" xmlns="http://www.w3.org/2000/svg" xmlns:xlink="http://www.w3.org/1999/xlink">
<g id="graph0" class="graph" transform="scale(1 1) rotate(0) translate(4 459)">
<title>/home/bdn_jz/bdn_jz/camera&#45;tracker&#45;cpp/CameraTrackerLinux/include/nlohmann/detail/output/binary_writer.hpp</title>
<polygon fill="#ffffff" stroke="transparent" points="-4,4 -4,-459 2657,-459 2657,4 -4,4"/>
<!-- Node0 -->
<g id="node1" class="node">
<title>Node0</title>
<polygon fill="#bfbfbf" stroke="#000000" points="1211.5,-391.5 1211.5,-454.5 1358.5,-454.5 1358.5,-391.5 1211.5,-391.5"/>
<text text-anchor="start" x="1219.5" y="-442.5" font-family="Helvetica,sans-Serif" font-size="10.00" fill="#000000">/home/bdn_jz/bdn_jz</text>
<text text-anchor="start" x="1219.5" y="-431.5" font-family="Helvetica,sans-Serif" font-size="10.00" fill="#000000">/camera&#45;tracker&#45;cpp</text>
<text text-anchor="start" x="1219.5" y="-420.5" font-family="Helvetica,sans-Serif" font-size="10.00" fill="#000000">/CameraTrackerLinux/include</text>
<text text-anchor="start" x="1219.5" y="-409.5" font-family="Helvetica,sans-Serif" font-size="10.00" fill="#000000">/nlohmann/detail/output/binary</text>
<text text-anchor="middle" x="1285" y="-398.5" font-family="Helvetica,sans-Serif" font-size="10.00" fill="#000000">_writer.hpp</text>
</g>
<!-- Node1 -->
<g id="node2" class="node">
<title>Node1</title>
<polygon fill="#ffffff" stroke="#bfbfbf" points="2597,-129 2597,-148 2653,-148 2653,-129 2597,-129"/>
<text text-anchor="middle" x="2625" y="-136" font-family="Helvetica,sans-Serif" font-size="10.00" fill="#000000">algorithm</text>
</g>
<!-- Node0&#45;&gt;Node1 -->
<g id="edge1" class="edge">
<title>Node0&#45;&gt;Node1</title>
<path fill="none" stroke="#191970" d="M1358.5466,-421.5716C1593.1139,-416.5991 2313.705,-397.9556 2409,-355 2507.3076,-310.6864 2585.5819,-200.4191 2613.7345,-156.7381"/>
<polygon fill="#191970" stroke="#191970" points="2616.7162,-158.5715 2619.1101,-148.2506 2610.8025,-154.8259 2616.7162,-158.5715"/>
</g>
<!-- Node2 -->
<g id="node3" class="node">
<title>Node2</title>
<polygon fill="#ffffff" stroke="#bfbfbf" points="716,-129 716,-148 754,-148 754,-129 716,-129"/>
<text text-anchor="middle" x="735" y="-136" font-family="Helvetica,sans-Serif" font-size="10.00" fill="#000000">array</text>
</g>
<!-- Node0&#45;&gt;Node2 -->
<g id="edge2" class="edge">
<title>Node0&#45;&gt;Node2</title>
<path fill="none" stroke="#191970" d="M1211.1424,-415.742C1097.7369,-400.5354 881.6331,-354.7725 765,-221 749.324,-203.0204 741.6024,-176.1876 737.9683,-158.0479"/>
<polygon fill="#191970" stroke="#191970" points="741.3856,-157.2722 736.1993,-148.0336 734.4923,-158.49 741.3856,-157.2722"/>
</g>
<!-- Node3 -->
<g id="node4" class="node">
<title>Node3</title>
<polygon fill="#ffffff" stroke="#bfbfbf" points="78,-62 78,-81 124,-81 124,-62 78,-62"/>
<text text-anchor="middle" x="101" y="-69" font-family="Helvetica,sans-Serif" font-size="10.00" fill="#000000">cstdint</text>
</g>
<!-- Node0&#45;&gt;Node3 -->
<g id="edge3" class="edge">
<title>Node0&#45;&gt;Node3</title>
<path fill="none" stroke="#191970" d="M1211.2975,-422.1702C938.2516,-418.1359 0,-395.3364 0,-272.5 0,-272.5 0,-272.5 0,-205.5 0,-153.7963 48.5448,-109.3773 78.3238,-86.9932"/>
<polygon fill="#191970" stroke="#191970" points="80.5024,-89.7364 86.5292,-81.0227 76.3839,-84.0762 80.5024,-89.7364"/>
</g>
<!-- Node4 -->
<g id="node5" class="node">
<title>Node4</title>
<polygon fill="#ffffff" stroke="#bfbfbf" points="848,-129 848,-148 894,-148 894,-129 848,-129"/>
<text text-anchor="middle" x="871" y="-136" font-family="Helvetica,sans-Serif" font-size="10.00" fill="#000000">cstring</text>
</g>
<!-- Node0&#45;&gt;Node4 -->
<g id="edge4" class="edge">
<title>Node0&#45;&gt;Node4</title>
<path fill="none" stroke="#191970" d="M1239.1129,-391.4665C1150.4411,-330.5314 958.5456,-198.6612 893.2643,-153.8"/>
<polygon fill="#191970" stroke="#191970" points="895.1409,-150.8428 884.917,-148.0637 891.1763,-156.6119 895.1409,-150.8428"/>
</g>
<!-- Node5 -->
<g id="node6" class="node">
<title>Node5</title>
<polygon fill="#ffffff" stroke="#bfbfbf" points="84,-129 84,-148 124,-148 124,-129 84,-129"/>
<text text-anchor="middle" x="104" y="-136" font-family="Helvetica,sans-Serif" font-size="10.00" fill="#000000">limits</text>
</g>
<!-- Node0&#45;&gt;Node5 -->
<g id="edge5" class="edge">
<title>Node0&#45;&gt;Node5</title>
<path fill="none" stroke="#191970" d="M1211.4626,-420.3507C1047.0874,-412.8054 638.7505,-385.0069 313,-288 246.1191,-268.0832 225.9231,-264.0486 171,-221 147.6274,-202.6806 127.1611,-174.7873 115.1849,-156.5989"/>
<polygon fill="#191970" stroke="#191970" points="118.0661,-154.6079 109.7256,-148.0744 112.1713,-158.3831 118.0661,-154.6079"/>
</g>
<!-- Node6 -->
<g id="node7" class="node">
<title>Node6</title>
<polygon fill="#ffffff" stroke="#bfbfbf" points="1449.5,-62 1449.5,-81 1490.5,-81 1490.5,-62 1449.5,-62"/>
<text text-anchor="middle" x="1470" y="-69" font-family="Helvetica,sans-Serif" font-size="10.00" fill="#000000">string</text>
</g>
<!-- Node0&#45;&gt;Node6 -->
<g id="edge6" class="edge">
<title>Node0&#45;&gt;Node6</title>
<path fill="none" stroke="#191970" d="M1358.5037,-414.8376C1440.5663,-401.1679 1562,-365.2673 1562,-272.5 1562,-272.5 1562,-272.5 1562,-205.5 1562,-155.3757 1517.7089,-110.2978 1490.5893,-87.3945"/>
<polygon fill="#191970" stroke="#191970" points="1492.7488,-84.6391 1482.7922,-81.0174 1488.3171,-90.0577 1492.7488,-84.6391"/>
</g>
<!-- Node7 -->
<g id="node8" class="node">
<title>Node7</title>
<g id="a_node8"><a xlink:href="binary__reader_8hpp.html" target="_top" xlink:title="nlohmann/detail/input\l/binary_reader.hpp">
<polygon fill="#ffffff" stroke="#000000" points="1230.5,-324.5 1230.5,-354.5 1339.5,-354.5 1339.5,-324.5 1230.5,-324.5"/>
<text text-anchor="start" x="1238.5" y="-342.5" font-family="Helvetica,sans-Serif" font-size="10.00" fill="#000000">nlohmann/detail/input</text>
<text text-anchor="middle" x="1285" y="-331.5" font-family="Helvetica,sans-Serif" font-size="10.00" fill="#000000">/binary_reader.hpp</text>
</a>
</g>
</g>
<!-- Node0&#45;&gt;Node7 -->
<g id="edge7" class="edge">
<title>Node0&#45;&gt;Node7</title>
<path fill="none" stroke="#191970" d="M1285,-391.4322C1285,-382.6979 1285,-373.3303 1285,-364.989"/>
<polygon fill="#191970" stroke="#191970" points="1288.5001,-364.7544 1285,-354.7545 1281.5001,-364.7545 1288.5001,-364.7544"/>
</g>
<!-- Node18 -->
<g id="node19" class="node">
<title>Node18</title>
<g id="a_node19"><a xlink:href="macro__scope_8hpp.html" target="_top" xlink:title="nlohmann/detail/macro\l_scope.hpp">
<polygon fill="#ffffff" stroke="#000000" points="2041.5,-123.5 2041.5,-153.5 2156.5,-153.5 2156.5,-123.5 2041.5,-123.5"/>
<text text-anchor="start" x="2049.5" y="-141.5" font-family="Helvetica,sans-Serif" font-size="10.00" fill="#000000">nlohmann/detail/macro</text>
<text text-anchor="middle" x="2099" y="-130.5" font-family="Helvetica,sans-Serif" font-size="10.00" fill="#000000">_scope.hpp</text>
</a>
</g>
</g>
<!-- Node0&#45;&gt;Node18 -->
<g id="edge88" class="edge">
<title>Node0&#45;&gt;Node18</title>
<path fill="none" stroke="#191970" d="M1358.98,-414.1194C1482.9073,-397.8759 1739.2167,-358.4031 1946,-288 2010.1634,-266.1544 2041.778,-274.8045 2083,-221 2095.4916,-204.6955 2099.083,-181.3739 2099.7854,-163.6839"/>
<polygon fill="#191970" stroke="#191970" points="2103.2871,-163.55 2099.9031,-153.5101 2096.2876,-163.4689 2103.2871,-163.55"/>
</g>
<!-- Node38 -->
<g id="node39" class="node">
<title>Node38</title>
<g id="a_node39"><a xlink:href="output__adapters_8hpp.html" target="_top" xlink:title="nlohmann/detail/output\l/output_adapters.hpp">
<polygon fill="#ffffff" stroke="#000000" points="2338.5,-190.5 2338.5,-220.5 2453.5,-220.5 2453.5,-190.5 2338.5,-190.5"/>
<text text-anchor="start" x="2346.5" y="-208.5" font-family="Helvetica,sans-Serif" font-size="10.00" fill="#000000">nlohmann/detail/output</text>
<text text-anchor="middle" x="2396" y="-197.5" font-family="Helvetica,sans-Serif" font-size="10.00" fill="#000000">/output_adapters.hpp</text>
</a>
</g>
</g>
<!-- Node0&#45;&gt;Node38 -->
<g id="edge89" class="edge">
<title>Node0&#45;&gt;Node38</title>
<path fill="none" stroke="#191970" d="M1358.7074,-421.0966C1599.4837,-414.5363 2349.556,-391.2584 2386,-355 2418.4478,-322.7174 2411.015,-264.1849 2403.1949,-230.7385"/>
<polygon fill="#191970" stroke="#191970" points="2406.5338,-229.6648 2400.6924,-220.8258 2399.7467,-231.3783 2406.5338,-229.6648"/>
</g>
<!-- Node7&#45;&gt;Node1 -->
<g id="edge8" class="edge">
<title>Node7&#45;&gt;Node1</title>
<path fill="none" stroke="#191970" d="M1339.7112,-338.8762C1524.1039,-336.4416 2121.7655,-325.7601 2310,-288 2396.1501,-270.7182 2417.1646,-259.8005 2496,-221 2535.9369,-201.3442 2578.8164,-172.108 2603.7049,-154.232"/>
<polygon fill="#191970" stroke="#191970" points="2605.9822,-156.904 2612.0215,-148.1989 2601.8718,-151.2378 2605.9822,-156.904"/>
</g>
<!-- Node7&#45;&gt;Node2 -->
<g id="edge9" class="edge">
<title>Node7&#45;&gt;Node2</title>
<path fill="none" stroke="#191970" d="M1230.32,-330.8555C1119.4617,-312.5708 872.7541,-267.7974 802,-221 777.1001,-204.531 756.9116,-175.925 745.4253,-157.1021"/>
<polygon fill="#191970" stroke="#191970" points="748.3173,-155.115 740.2331,-148.2668 742.2822,-158.6616 748.3173,-155.115"/>
</g>
<!-- Node7&#45;&gt;Node3 -->
<g id="edge13" class="edge">
<title>Node7&#45;&gt;Node3</title>
<path fill="none" stroke="#191970" d="M1230.3865,-337.8384C1038.4878,-331.8304 401.8953,-310.4051 313,-288 195.29,-258.3325 131.135,-261.6321 75,-154 64.1015,-133.1034 76.3365,-106.8229 87.4375,-89.6128"/>
<polygon fill="#191970" stroke="#191970" points="90.5302,-91.2937 93.3339,-81.0766 84.7707,-87.3153 90.5302,-91.2937"/>
</g>
<!-- Node7&#45;&gt;Node4 -->
<g id="edge15" class="edge">
<title>Node7&#45;&gt;Node4</title>
<path fill="none" stroke="#191970" d="M1269.1347,-324.4346C1250.7493,-307.2869 1219.227,-278.8302 1190,-257 1145.6482,-223.8728 1136.32,-210.7546 1085,-190 1010.5782,-159.9027 984.7231,-177.6224 908,-154 905.8368,-153.334 903.6264,-152.5872 901.4159,-151.791"/>
<polygon fill="#191970" stroke="#191970" points="902.4566,-148.4405 891.8679,-148.0803 899.9209,-154.9651 902.4566,-148.4405"/>
</g>
<!-- Node7&#45;&gt;Node5 -->
<g id="edge17" class="edge">
<title>Node7&#45;&gt;Node5</title>
<path fill="none" stroke="#191970" d="M1230.4145,-337.7172C1070.4793,-332.2397 604.8244,-314.411 455,-288 351.4056,-269.7384 323.3046,-265.5232 228,-221 188.7391,-202.6586 147.7404,-172.975 124.105,-154.6599"/>
<polygon fill="#191970" stroke="#191970" points="125.9628,-151.6686 115.9365,-148.2445 121.6391,-157.1737 125.9628,-151.6686"/>
</g>
<!-- Node7&#45;&gt;Node6 -->
<g id="edge18" class="edge">
<title>Node7&#45;&gt;Node6</title>
<path fill="none" stroke="#191970" d="M1277.7078,-324.4136C1260.3858,-286.1505 1221.6295,-184.0379 1269,-123 1289.7224,-96.2987 1388.0652,-81.0708 1439.0997,-74.8428"/>
<polygon fill="#191970" stroke="#191970" points="1439.7053,-78.2958 1449.227,-73.6495 1438.8861,-71.3439 1439.7053,-78.2958"/>
</g>
<!-- Node8 -->
<g id="node9" class="node">
<title>Node8</title>
<polygon fill="#ffffff" stroke="#bfbfbf" points="1666.5,-129 1666.5,-148 1715.5,-148 1715.5,-129 1666.5,-129"/>
<text text-anchor="middle" x="1691" y="-136" font-family="Helvetica,sans-Serif" font-size="10.00" fill="#000000">cassert</text>
</g>
<!-- Node7&#45;&gt;Node8 -->
<g id="edge10" class="edge">
<title>Node7&#45;&gt;Node8</title>
<path fill="none" stroke="#191970" d="M1315.516,-324.3923C1391.5832,-286.7335 1588.7885,-189.1022 1662.5778,-152.5711"/>
<polygon fill="#191970" stroke="#191970" points="1664.3393,-155.6045 1671.7483,-148.031 1661.2335,-149.3312 1664.3393,-155.6045"/>
</g>
<!-- Node9 -->
<g id="node10" class="node">
<title>Node9</title>
<polygon fill="#ffffff" stroke="#bfbfbf" points="1137,-263 1137,-282 1181,-282 1181,-263 1137,-263"/>
<text text-anchor="middle" x="1159" y="-270" font-family="Helvetica,sans-Serif" font-size="10.00" fill="#000000">cmath</text>
</g>
<!-- Node7&#45;&gt;Node9 -->
<g id="edge11" class="edge">
<title>Node7&#45;&gt;Node9</title>
<path fill="none" stroke="#191970" d="M1256.7231,-324.4639C1235.582,-313.2222 1206.8542,-297.9463 1186.0216,-286.8686"/>
<polygon fill="#191970" stroke="#191970" points="1187.5337,-283.7087 1177.0611,-282.1039 1184.2472,-289.8892 1187.5337,-283.7087"/>
</g>
<!-- Node10 -->
<g id="node11" class="node">
<title>Node10</title>
<polygon fill="#ffffff" stroke="#bfbfbf" points="1950.5,-.5 1950.5,-19.5 1999.5,-19.5 1999.5,-.5 1950.5,-.5"/>
<text text-anchor="middle" x="1975" y="-7.5" font-family="Helvetica,sans-Serif" font-size="10.00" fill="#000000">cstddef</text>
</g>
<!-- Node7&#45;&gt;Node10 -->
<g id="edge12" class="edge">
<title>Node7&#45;&gt;Node10</title>
<path fill="none" stroke="#191970" d="M1339.7143,-336.2924C1558.24,-323.1713 2361.5366,-271.8668 2463,-221 2467.6361,-218.6758 2526.0517,-158.8062 2528,-154 2550.2159,-99.1954 2493.1453,-77.356 2438,-56 2359.7571,-25.6991 2103.6028,-14.2841 2009.8121,-11.0573"/>
<polygon fill="#191970" stroke="#191970" points="2009.8224,-7.5558 1999.7111,-10.7201 2009.5887,-14.5519 2009.8224,-7.5558"/>
</g>
<!-- Node11 -->
<g id="node12" class="node">
<title>Node11</title>
<polygon fill="#ffffff" stroke="#bfbfbf" points="1278.5,-129 1278.5,-148 1321.5,-148 1321.5,-129 1278.5,-129"/>
<text text-anchor="middle" x="1300" y="-136" font-family="Helvetica,sans-Serif" font-size="10.00" fill="#000000">cstdio</text>
</g>
<!-- Node7&#45;&gt;Node11 -->
<g id="edge14" class="edge">
<title>Node7&#45;&gt;Node11</title>
<path fill="none" stroke="#191970" d="M1286.1274,-324.3923C1288.7997,-288.5844 1295.5183,-198.5545 1298.516,-158.386"/>
<polygon fill="#191970" stroke="#191970" points="1302.0179,-158.489 1299.2719,-148.2562 1295.0373,-157.968 1302.0179,-158.489"/>
</g>
<!-- Node12 -->
<g id="node13" class="node">
<title>Node12</title>
<polygon fill="#ffffff" stroke="#bfbfbf" points="1764.5,-62 1764.5,-81 1811.5,-81 1811.5,-62 1764.5,-62"/>
<text text-anchor="middle" x="1788" y="-69" font-family="Helvetica,sans-Serif" font-size="10.00" fill="#000000">iterator</text>
</g>
<!-- Node7&#45;&gt;Node12 -->
<g id="edge16" class="edge">
<title>Node7&#45;&gt;Node12</title>
<path fill="none" stroke="#191970" d="M1339.6672,-336.2822C1463.4962,-328.7226 1762.2844,-308.8858 1861,-288 1951.4778,-268.8571 1974.3889,-260.5205 2058,-221 2109.0689,-196.8612 2138.5348,-203.3597 2166,-154 2172.6991,-141.9605 2175.0609,-133.3791 2166,-123 2143.4504,-97.1698 1910.0408,-79.4298 1821.6617,-73.5932"/>
<polygon fill="#191970" stroke="#191970" points="1821.8327,-70.0971 1811.6266,-72.9407 1821.3784,-77.0823 1821.8327,-70.0971"/>
</g>
<!-- Node13 -->
<g id="node14" class="node">
<title>Node13</title>
<polygon fill="#ffffff" stroke="#bfbfbf" points="691,-62 691,-81 731,-81 731,-62 691,-62"/>
<text text-anchor="middle" x="711" y="-69" font-family="Helvetica,sans-Serif" font-size="10.00" fill="#000000">utility</text>
</g>
<!-- Node7&#45;&gt;Node13 -->
<g id="edge19" class="edge">
<title>Node7&#45;&gt;Node13</title>
<path fill="none" stroke="#191970" d="M1230.3317,-334.746C1137.6695,-326.2864 953.8062,-307.6536 892,-288 795.2486,-257.2343 742.4568,-249.1324 707,-154 699.3588,-133.4984 702.247,-108.1289 705.8276,-90.9768"/>
<polygon fill="#191970" stroke="#191970" points="709.2855,-91.5625 708.177,-81.0259 702.4728,-89.9541 709.2855,-91.5625"/>
</g>
<!-- Node14 -->
<g id="node15" class="node">
<title>Node14</title>
<g id="a_node15"><a xlink:href="exceptions_8hpp.html" target="_top" xlink:title="nlohmann/detail/exceptions.hpp">
<polygon fill="#ffffff" stroke="#000000" points="1772,-196 1772,-215 1926,-215 1926,-196 1772,-196"/>
<text text-anchor="middle" x="1849" y="-203" font-family="Helvetica,sans-Serif" font-size="10.00" fill="#000000">nlohmann/detail/exceptions.hpp</text>
</a>
</g>
</g>
<!-- Node7&#45;&gt;Node14 -->
<g id="edge20" class="edge">
<title>Node7&#45;&gt;Node14</title>
<path fill="none" stroke="#191970" d="M1339.5912,-326.5298C1448.9919,-300.5374 1693.5994,-242.4214 1799.0497,-217.3676"/>
<polygon fill="#191970" stroke="#191970" points="1799.8908,-220.7653 1808.8109,-215.0485 1798.2726,-213.9549 1799.8908,-220.7653"/>
</g>
<!-- Node7&#45;&gt;Node18 -->
<g id="edge59" class="edge">
<title>Node7&#45;&gt;Node18</title>
<path fill="none" stroke="#191970" d="M1339.6672,-336.2822C1463.4962,-328.7226 1762.2844,-308.8858 1861,-288 1951.4778,-268.8571 1988.3934,-281.8901 2058,-221 2075.2884,-205.8765 2086.0827,-181.7578 2092.2282,-163.4957"/>
<polygon fill="#191970" stroke="#191970" points="2095.619,-164.3785 2095.2497,-153.7901 2088.9354,-162.2978 2095.619,-164.3785"/>
</g>
<!-- Node21 -->
<g id="node22" class="node">
<title>Node21</title>
<g id="a_node22"><a xlink:href="input__adapters_8hpp.html" target="_top" xlink:title="nlohmann/detail/input\l/input_adapters.hpp">
<polygon fill="#ffffff" stroke="#000000" points="1351.5,-190.5 1351.5,-220.5 1460.5,-220.5 1460.5,-190.5 1351.5,-190.5"/>
<text text-anchor="start" x="1359.5" y="-208.5" font-family="Helvetica,sans-Serif" font-size="10.00" fill="#000000">nlohmann/detail/input</text>
<text text-anchor="middle" x="1406" y="-197.5" font-family="Helvetica,sans-Serif" font-size="10.00" fill="#000000">/input_adapters.hpp</text>
</a>
</g>
</g>
<!-- Node7&#45;&gt;Node21 -->
<g id="edge30" class="edge">
<title>Node7&#45;&gt;Node21</title>
<path fill="none" stroke="#191970" d="M1301.3223,-324.0993C1311.77,-314.0571 1325.4772,-300.5343 1337,-288 1354.7557,-268.6856 1373.8067,-245.7202 1387.3822,-228.9299"/>
<polygon fill="#191970" stroke="#191970" points="1390.4086,-230.7513 1393.9463,-220.7646 1384.953,-226.3655 1390.4086,-230.7513"/>
</g>
<!-- Node30 -->
<g id="node31" class="node">
<title>Node30</title>
<g id="a_node31"><a xlink:href="json__sax_8hpp.html" target="_top" xlink:title="nlohmann/detail/input\l/json_sax.hpp">
<polygon fill="#ffffff" stroke="#000000" points="1742.5,-257.5 1742.5,-287.5 1851.5,-287.5 1851.5,-257.5 1742.5,-257.5"/>
<text text-anchor="start" x="1750.5" y="-275.5" font-family="Helvetica,sans-Serif" font-size="10.00" fill="#000000">nlohmann/detail/input</text>
<text text-anchor="middle" x="1797" y="-264.5" font-family="Helvetica,sans-Serif" font-size="10.00" fill="#000000">/json_sax.hpp</text>
</a>
</g>
</g>
<!-- Node7&#45;&gt;Node30 -->
<g id="edge51" class="edge">
<title>Node7&#45;&gt;Node30</title>
<path fill="none" stroke="#191970" d="M1339.793,-332.3298C1434.9418,-319.8787 1630.269,-294.3183 1732.0653,-280.9973"/>
<polygon fill="#191970" stroke="#191970" points="1732.7533,-284.4372 1742.2146,-279.6692 1731.845,-277.4964 1732.7533,-284.4372"/>
</g>
<!-- Node32 -->
<g id="node33" class="node">
<title>Node32</title>
<g id="a_node33"><a xlink:href="is__sax_8hpp.html" target="_top" xlink:title="nlohmann/detail/meta\l/is_sax.hpp">
<polygon fill="#ffffff" stroke="#000000" points="464,-257.5 464,-287.5 574,-287.5 574,-257.5 464,-257.5"/>
<text text-anchor="start" x="472" y="-275.5" font-family="Helvetica,sans-Serif" font-size="10.00" fill="#000000">nlohmann/detail/meta</text>
<text text-anchor="middle" x="519" y="-264.5" font-family="Helvetica,sans-Serif" font-size="10.00" fill="#000000">/is_sax.hpp</text>
</a>
</g>
</g>
<!-- Node7&#45;&gt;Node32 -->
<g id="edge60" class="edge">
<title>Node7&#45;&gt;Node32</title>
<path fill="none" stroke="#191970" d="M1230.2186,-334.7084C1092.6154,-322.6726 732.8846,-291.2079 584.4778,-278.2272"/>
<polygon fill="#191970" stroke="#191970" points="584.4307,-274.7098 574.1637,-277.325 583.8207,-281.6831 584.4307,-274.7098"/>
</g>
<!-- Node37 -->
<g id="node38" class="node">
<title>Node37</title>
<g id="a_node38"><a xlink:href="value__t_8hpp.html" target="_top" xlink:title="nlohmann/detail/value\l_t.hpp">
<polygon fill="#ffffff" stroke="#000000" points="811.5,-190.5 811.5,-220.5 922.5,-220.5 922.5,-190.5 811.5,-190.5"/>
<text text-anchor="start" x="819.5" y="-208.5" font-family="Helvetica,sans-Serif" font-size="10.00" fill="#000000">nlohmann/detail/value</text>
<text text-anchor="middle" x="867" y="-197.5" font-family="Helvetica,sans-Serif" font-size="10.00" fill="#000000">_t.hpp</text>
</a>
</g>
</g>
<!-- Node7&#45;&gt;Node37 -->
<g id="edge82" class="edge">
<title>Node7&#45;&gt;Node37</title>
<path fill="none" stroke="#191970" d="M1237.8626,-324.389C1160.4347,-299.5676 1006.6393,-250.2647 923.4992,-223.6122"/>
<polygon fill="#191970" stroke="#191970" points="924.5562,-220.2757 913.9651,-220.5558 922.4193,-226.9415 924.5562,-220.2757"/>
</g>
<!-- Node14&#45;&gt;Node6 -->
<g id="edge23" class="edge">
<title>Node14&#45;&gt;Node6</title>
<path fill="none" stroke="#191970" d="M1839.7591,-195.7919C1820.6581,-175.9571 1777.0261,-131.9001 1758,-123 1653.1292,-73.9433 1610.3375,-122.0725 1500,-87 1498.5334,-86.5338 1497.0522,-86.0003 1495.5747,-85.4181"/>
<polygon fill="#191970" stroke="#191970" points="1496.6236,-82.0489 1486.0742,-81.0685 1493.7096,-88.4136 1496.6236,-82.0489"/>
</g>
<!-- Node15 -->
<g id="node16" class="node">
<title>Node15</title>
<polygon fill="#ffffff" stroke="#bfbfbf" points="1810.5,-129 1810.5,-148 1869.5,-148 1869.5,-129 1810.5,-129"/>
<text text-anchor="middle" x="1840" y="-136" font-family="Helvetica,sans-Serif" font-size="10.00" fill="#000000">exception</text>
</g>
<!-- Node14&#45;&gt;Node15 -->
<g id="edge21" class="edge">
<title>Node14&#45;&gt;Node15</title>
<path fill="none" stroke="#191970" d="M1847.7105,-195.9005C1846.4006,-186.149 1844.3334,-170.7597 1842.669,-158.3695"/>
<polygon fill="#191970" stroke="#191970" points="1846.0873,-157.5266 1841.2871,-148.0817 1839.1497,-158.4586 1846.0873,-157.5266"/>
</g>
<!-- Node16 -->
<g id="node17" class="node">
<title>Node16</title>
<polygon fill="#ffffff" stroke="#bfbfbf" points="1887.5,-129 1887.5,-148 1946.5,-148 1946.5,-129 1887.5,-129"/>
<text text-anchor="middle" x="1917" y="-136" font-family="Helvetica,sans-Serif" font-size="10.00" fill="#000000">stdexcept</text>
</g>
<!-- Node14&#45;&gt;Node16 -->
<g id="edge22" class="edge">
<title>Node14&#45;&gt;Node16</title>
<path fill="none" stroke="#191970" d="M1858.7427,-195.9005C1869.4477,-185.353 1886.847,-168.2096 1899.8479,-155.3998"/>
<polygon fill="#191970" stroke="#191970" points="1902.6085,-157.5933 1907.2753,-148.0817 1897.6956,-152.607 1902.6085,-157.5933"/>
</g>
<!-- Node17 -->
<g id="node18" class="node">
<title>Node17</title>
<g id="a_node18"><a xlink:href="position__t_8hpp.html" target="_top" xlink:title="nlohmann/detail/input\l/position_t.hpp">
<polygon fill="#ffffff" stroke="#000000" points="2249.5,-56.5 2249.5,-86.5 2358.5,-86.5 2358.5,-56.5 2249.5,-56.5"/>
<text text-anchor="start" x="2257.5" y="-74.5" font-family="Helvetica,sans-Serif" font-size="10.00" fill="#000000">nlohmann/detail/input</text>
<text text-anchor="middle" x="2304" y="-63.5" font-family="Helvetica,sans-Serif" font-size="10.00" fill="#000000">/position_t.hpp</text>
</a>
</g>
</g>
<!-- Node14&#45;&gt;Node17 -->
<g id="edge24" class="edge">
<title>Node14&#45;&gt;Node17</title>
<path fill="none" stroke="#191970" d="M1926.3022,-201.0993C1991.7867,-195.4685 2087.3034,-182.7209 2166,-154 2206.9332,-139.0612 2249.2593,-111.6645 2276.0589,-92.5582"/>
<polygon fill="#191970" stroke="#191970" points="2278.1433,-95.3701 2284.1931,-86.6724 2274.0397,-89.6991 2278.1433,-95.3701"/>
</g>
<!-- Node14&#45;&gt;Node18 -->
<g id="edge26" class="edge">
<title>Node14&#45;&gt;Node18</title>
<path fill="none" stroke="#191970" d="M1884.5534,-195.9717C1923.0647,-185.6507 1985.3631,-168.9547 2032.9142,-156.211"/>
<polygon fill="#191970" stroke="#191970" points="2034.0702,-159.5248 2042.8233,-153.5553 2032.2581,-152.7634 2034.0702,-159.5248"/>
</g>
<!-- Node17&#45;&gt;Node10 -->
<g id="edge25" class="edge">
<title>Node17&#45;&gt;Node10</title>
<path fill="none" stroke="#191970" d="M2249.2407,-57.9874C2246.1189,-57.2952 2243.0223,-56.6276 2240,-56 2157.8341,-38.9381 2060.4322,-23.1615 2009.68,-15.2743"/>
<polygon fill="#191970" stroke="#191970" points="2009.9977,-11.7819 1999.5804,-13.7134 2008.9284,-18.6998 2009.9977,-11.7819"/>
</g>
<!-- Node18&#45;&gt;Node13 -->
<g id="edge27" class="edge">
<title>Node18&#45;&gt;Node13</title>
<path fill="none" stroke="#191970" d="M2041.3313,-131.3479C2015.3006,-128.352 1984.1408,-125.0874 1956,-123 1558.1055,-93.4855 1457.6305,-103.8767 1059,-87 941.5385,-82.0271 801.7969,-75.6687 741.3476,-72.8966"/>
<polygon fill="#191970" stroke="#191970" points="741.1564,-69.3843 731.0064,-72.4219 740.8354,-76.3769 741.1564,-69.3843"/>
</g>
<!-- Node19 -->
<g id="node20" class="node">
<title>Node19</title>
<polygon fill="#ffffff" stroke="#bfbfbf" points="2129,-56.5 2129,-86.5 2231,-86.5 2231,-56.5 2129,-56.5"/>
<text text-anchor="start" x="2137" y="-74.5" font-family="Helvetica,sans-Serif" font-size="10.00" fill="#000000">nlohmann/thirdparty</text>
<text text-anchor="middle" x="2180" y="-63.5" font-family="Helvetica,sans-Serif" font-size="10.00" fill="#000000">/hedley/hedley.hpp</text>
</g>
<!-- Node18&#45;&gt;Node19 -->
<g id="edge28" class="edge">
<title>Node18&#45;&gt;Node19</title>
<path fill="none" stroke="#191970" d="M2117.3802,-123.2967C2128.1508,-114.3876 2141.9322,-102.9882 2153.8229,-93.1527"/>
<polygon fill="#191970" stroke="#191970" points="2156.2178,-95.7139 2161.6926,-86.6432 2151.7562,-90.32 2156.2178,-95.7139"/>
</g>
<!-- Node20 -->
<g id="node21" class="node">
<title>Node20</title>
<polygon fill="#ffffff" stroke="#bfbfbf" points="2065.5,-62 2065.5,-81 2110.5,-81 2110.5,-62 2065.5,-62"/>
<text text-anchor="middle" x="2088" y="-69" font-family="Helvetica,sans-Serif" font-size="10.00" fill="#000000">cstdlib</text>
</g>
<!-- Node18&#45;&gt;Node20 -->
<g id="edge29" class="edge">
<title>Node18&#45;&gt;Node20</title>
<path fill="none" stroke="#191970" d="M2096.5039,-123.2967C2094.9398,-113.7699 2092.9082,-101.3954 2091.2229,-91.1306"/>
<polygon fill="#191970" stroke="#191970" points="2094.6427,-90.3558 2089.5687,-81.055 2087.7351,-91.4899 2094.6427,-90.3558"/>
</g>
<!-- Node21&#45;&gt;Node2 -->
<g id="edge31" class="edge">
<title>Node21&#45;&gt;Node2</title>
<path fill="none" stroke="#191970" d="M1351.1551,-201.57C1249.8126,-194.0746 1026.4485,-176.4626 839,-154 813.6869,-150.9666 785.041,-146.63 764.232,-143.3148"/>
<polygon fill="#191970" stroke="#191970" points="764.5531,-139.8214 754.1237,-141.6865 763.4399,-146.7324 764.5531,-139.8214"/>
</g>
<!-- Node21&#45;&gt;Node4 -->
<g id="edge35" class="edge">
<title>Node21&#45;&gt;Node4</title>
<path fill="none" stroke="#191970" d="M1351.2562,-201.0183C1264.8339,-193.573 1091.6321,-177.1503 946,-154 932.2195,-151.8094 917.1335,-148.81 904.1281,-146.0331"/>
<polygon fill="#191970" stroke="#191970" points="904.7246,-142.581 894.2089,-143.8735 903.2354,-149.4208 904.7246,-142.581"/>
</g>
<!-- Node21&#45;&gt;Node6 -->
<g id="edge40" class="edge">
<title>Node21&#45;&gt;Node6</title>
<path fill="none" stroke="#191970" d="M1432.5601,-190.4375C1445.3989,-181.6125 1459.5996,-169.2036 1467,-154 1476.5708,-134.3375 1475.7987,-108.8069 1473.6129,-91.3877"/>
<polygon fill="#191970" stroke="#191970" points="1477.0352,-90.6129 1472.0668,-81.2553 1470.1153,-91.6689 1477.0352,-90.6129"/>
</g>
<!-- Node21&#45;&gt;Node8 -->
<g id="edge32" class="edge">
<title>Node21&#45;&gt;Node8</title>
<path fill="none" stroke="#191970" d="M1460.5908,-193.1294C1465.4607,-192.0584 1470.3177,-191.002 1475,-190 1553.5001,-173.2017 1575.0627,-176.915 1652,-154 1654.444,-153.2721 1656.9487,-152.4535 1659.4518,-151.5826"/>
<polygon fill="#191970" stroke="#191970" points="1660.8127,-154.8108 1668.9666,-148.0458 1658.3737,-148.2494 1660.8127,-154.8108"/>
</g>
<!-- Node21&#45;&gt;Node10 -->
<g id="edge33" class="edge">
<title>Node21&#45;&gt;Node10</title>
<path fill="none" stroke="#191970" d="M1435.6714,-190.4509C1495.0733,-160.8616 1633.4294,-94.6366 1756,-56 1819.6693,-35.9302 1896.5337,-22.0783 1940.1943,-15.1392"/>
<polygon fill="#191970" stroke="#191970" points="1940.9498,-18.5638 1950.2908,-13.5642 1939.8709,-11.6474 1940.9498,-18.5638"/>
</g>
<!-- Node21&#45;&gt;Node11 -->
<g id="edge34" class="edge">
<title>Node21&#45;&gt;Node11</title>
<path fill="none" stroke="#191970" d="M1382.2115,-190.4639C1364.7465,-179.4247 1341.1271,-164.4954 1323.6862,-153.4715"/>
<polygon fill="#191970" stroke="#191970" points="1325.5173,-150.4883 1315.1943,-148.1039 1321.7772,-156.4054 1325.5173,-150.4883"/>
</g>
<!-- Node21&#45;&gt;Node12 -->
<g id="edge37" class="edge">
<title>Node21&#45;&gt;Node12</title>
<path fill="none" stroke="#191970" d="M1460.6124,-193.0792C1517.4182,-179.984 1600.019,-160.3823 1614,-154 1635.7615,-144.066 1636.9551,-134.3736 1658,-123 1689.4358,-106.0106 1727.7001,-91.5323 1754.5476,-82.2942"/>
<polygon fill="#191970" stroke="#191970" points="1755.8887,-85.5354 1764.2401,-79.0158 1753.6458,-78.9045 1755.8887,-85.5354"/>
</g>
<!-- Node21&#45;&gt;Node13 -->
<g id="edge42" class="edge">
<title>Node21&#45;&gt;Node13</title>
<path fill="none" stroke="#191970" d="M1351.335,-197.2581C1334.5587,-194.8158 1316.0325,-192.2064 1299,-190 1159.2563,-171.8972 1116.674,-201.4722 984,-154 960.0889,-145.4444 959.3986,-132.8714 936,-123 869.6579,-95.0115 785.5988,-80.9412 741.3773,-75.0395"/>
<polygon fill="#191970" stroke="#191970" points="741.648,-71.5456 731.2835,-73.7431 740.7562,-78.4886 741.648,-71.5456"/>
</g>
<!-- Node21&#45;&gt;Node18 -->
<g id="edge50" class="edge">
<title>Node21&#45;&gt;Node18</title>
<path fill="none" stroke="#191970" d="M1460.6708,-200.6473C1559.5567,-191.8107 1774.7053,-172.3123 1956,-154 1980.5659,-151.5186 2007.4874,-148.6418 2031.2804,-146.0452"/>
<polygon fill="#191970" stroke="#191970" points="2031.7103,-149.5192 2041.2699,-144.9515 2030.9484,-142.5607 2031.7103,-149.5192"/>
</g>
<!-- Node22 -->
<g id="node23" class="node">
<title>Node22</title>
<polygon fill="#ffffff" stroke="#bfbfbf" points="1339.5,-129 1339.5,-148 1388.5,-148 1388.5,-129 1339.5,-129"/>
<text text-anchor="middle" x="1364" y="-136" font-family="Helvetica,sans-Serif" font-size="10.00" fill="#000000">istream</text>
</g>
<!-- Node21&#45;&gt;Node22 -->
<g id="edge36" class="edge">
<title>Node21&#45;&gt;Node22</title>
<path fill="none" stroke="#191970" d="M1396.4695,-190.2967C1390.2434,-180.3645 1382.077,-167.3371 1375.4918,-156.8321"/>
<polygon fill="#191970" stroke="#191970" points="1378.2666,-154.6689 1369.9897,-148.055 1372.3356,-158.3868 1378.2666,-154.6689"/>
</g>
<!-- Node23 -->
<g id="node24" class="node">
<title>Node23</title>
<polygon fill="#ffffff" stroke="#bfbfbf" points="1509,-62 1509,-81 1561,-81 1561,-62 1509,-62"/>
<text text-anchor="middle" x="1535" y="-69" font-family="Helvetica,sans-Serif" font-size="10.00" fill="#000000">memory</text>
</g>
<!-- Node21&#45;&gt;Node23 -->
<g id="edge38" class="edge">
<title>Node21&#45;&gt;Node23</title>
<path fill="none" stroke="#191970" d="M1434.8976,-190.497C1450.6421,-181.3769 1469.76,-168.6719 1484,-154 1502.5168,-134.9217 1517.5928,-107.9944 1526.4286,-90.1573"/>
<polygon fill="#191970" stroke="#191970" points="1529.6217,-91.593 1530.7834,-81.062 1523.3081,-88.57 1529.6217,-91.593"/>
</g>
<!-- Node24 -->
<g id="node25" class="node">
<title>Node24</title>
<polygon fill="#ffffff" stroke="#bfbfbf" points="1406.5,-129 1406.5,-148 1457.5,-148 1457.5,-129 1406.5,-129"/>
<text text-anchor="middle" x="1432" y="-136" font-family="Helvetica,sans-Serif" font-size="10.00" fill="#000000">numeric</text>
</g>
<!-- Node21&#45;&gt;Node24 -->
<g id="edge39" class="edge">
<title>Node21&#45;&gt;Node24</title>
<path fill="none" stroke="#191970" d="M1411.8998,-190.2967C1415.6754,-180.5672 1420.6037,-167.8675 1424.6353,-157.4784"/>
<polygon fill="#191970" stroke="#191970" points="1427.9372,-158.6439 1428.2921,-148.055 1421.4114,-156.1114 1427.9372,-158.6439"/>
</g>
<!-- Node25 -->
<g id="node26" class="node">
<title>Node25</title>
<polygon fill="#ffffff" stroke="#bfbfbf" points="320,-.5 320,-19.5 382,-19.5 382,-.5 320,-.5"/>
<text text-anchor="middle" x="351" y="-7.5" font-family="Helvetica,sans-Serif" font-size="10.00" fill="#000000">type_traits</text>
</g>
<!-- Node21&#45;&gt;Node25 -->
<g id="edge41" class="edge">
<title>Node21&#45;&gt;Node25</title>
<path fill="none" stroke="#191970" d="M1351.3165,-197.3971C1334.5395,-194.9599 1316.0176,-192.3186 1299,-190 1173.8062,-172.9424 1134.5328,-200.3732 1017,-154 995.0844,-145.3531 995.1963,-133.2848 974,-123 876.6729,-75.7755 846.0594,-77.31 740,-56 674.1567,-42.7704 478.3575,-22.5729 392.3263,-14.0345"/>
<polygon fill="#191970" stroke="#191970" points="392.4477,-10.5295 382.1517,-13.0283 391.7587,-17.4955 392.4477,-10.5295"/>
</g>
<!-- Node26 -->
<g id="node27" class="node">
<title>Node26</title>
<g id="a_node27"><a xlink:href="iterator__traits_8hpp.html" target="_top" xlink:title="nlohmann/detail/iterators\l/iterator_traits.hpp">
<polygon fill="#ffffff" stroke="#000000" points="460.5,-123.5 460.5,-153.5 583.5,-153.5 583.5,-123.5 460.5,-123.5"/>
<text text-anchor="start" x="468.5" y="-141.5" font-family="Helvetica,sans-Serif" font-size="10.00" fill="#000000">nlohmann/detail/iterators</text>
<text text-anchor="middle" x="522" y="-130.5" font-family="Helvetica,sans-Serif" font-size="10.00" fill="#000000">/iterator_traits.hpp</text>
</a>
</g>
</g>
<!-- Node21&#45;&gt;Node26 -->
<g id="edge43" class="edge">
<title>Node21&#45;&gt;Node26</title>
<path fill="none" stroke="#191970" d="M1351.1588,-201.6477C1233.2573,-193.3244 946.886,-172.8858 707,-154 669.7278,-151.0656 628.249,-147.608 594.0285,-144.7039"/>
<polygon fill="#191970" stroke="#191970" points="593.9147,-141.1817 583.6541,-143.8216 593.3215,-148.1565 593.9147,-141.1817"/>
</g>
<!-- Node26&#45;&gt;Node12 -->
<g id="edge44" class="edge">
<title>Node26&#45;&gt;Node12</title>
<path fill="none" stroke="#191970" d="M583.6193,-132.6869C619.5758,-129.4575 665.8258,-125.5825 707,-123 1090.1362,-98.969 1186.7199,-108.6154 1570,-87 1635.306,-83.317 1711.514,-77.5655 1754.3269,-74.2015"/>
<polygon fill="#191970" stroke="#191970" points="1754.7718,-77.6773 1764.465,-73.4004 1754.2204,-70.6991 1754.7718,-77.6773"/>
</g>
<!-- Node27 -->
<g id="node28" class="node">
<title>Node27</title>
<g id="a_node28"><a xlink:href="void__t_8hpp.html" target="_top" xlink:title="nlohmann/detail/meta\l/void_t.hpp">
<polygon fill="#ffffff" stroke="#000000" points="180,-56.5 180,-86.5 290,-86.5 290,-56.5 180,-56.5"/>
<text text-anchor="start" x="188" y="-74.5" font-family="Helvetica,sans-Serif" font-size="10.00" fill="#000000">nlohmann/detail/meta</text>
<text text-anchor="middle" x="235" y="-63.5" font-family="Helvetica,sans-Serif" font-size="10.00" fill="#000000">/void_t.hpp</text>
</a>
</g>
</g>
<!-- Node26&#45;&gt;Node27 -->
<g id="edge45" class="edge">
<title>Node26&#45;&gt;Node27</title>
<path fill="none" stroke="#191970" d="M460.4313,-124.1268C413.2241,-113.1063 348.2266,-97.9327 300.1497,-86.7092"/>
<polygon fill="#191970" stroke="#191970" points="300.6938,-83.2422 290.16,-84.3771 299.1024,-90.0589 300.6938,-83.2422"/>
</g>
<!-- Node28 -->
<g id="node29" class="node">
<title>Node28</title>
<g id="a_node29"><a xlink:href="cpp__future_8hpp.html" target="_top" xlink:title="nlohmann/detail/meta\l/cpp_future.hpp">
<polygon fill="#ffffff" stroke="#000000" points="435,-56.5 435,-86.5 545,-86.5 545,-56.5 435,-56.5"/>
<text text-anchor="start" x="443" y="-74.5" font-family="Helvetica,sans-Serif" font-size="10.00" fill="#000000">nlohmann/detail/meta</text>
<text text-anchor="middle" x="490" y="-63.5" font-family="Helvetica,sans-Serif" font-size="10.00" fill="#000000">/cpp_future.hpp</text>
</a>
</g>
</g>
<!-- Node26&#45;&gt;Node28 -->
<g id="edge46" class="edge">
<title>Node26&#45;&gt;Node28</title>
<path fill="none" stroke="#191970" d="M514.7387,-123.2967C510.8519,-115.1586 505.9726,-104.9425 501.5767,-95.7386"/>
<polygon fill="#191970" stroke="#191970" points="504.7007,-94.1584 497.2326,-86.6432 498.3841,-97.1752 504.7007,-94.1584"/>
</g>
<!-- Node28&#45;&gt;Node10 -->
<g id="edge48" class="edge">
<title>Node28&#45;&gt;Node10</title>
<path fill="none" stroke="#191970" d="M545.4071,-66.3632C583.7345,-62.9728 635.9281,-58.6778 682,-56 1181.2904,-26.9797 1790.1757,-13.6428 1940.3188,-10.6609"/>
<polygon fill="#191970" stroke="#191970" points="1940.3993,-14.1601 1950.3285,-10.464 1940.2616,-7.1614 1940.3993,-14.1601"/>
</g>
<!-- Node28&#45;&gt;Node25 -->
<g id="edge49" class="edge">
<title>Node28&#45;&gt;Node25</title>
<path fill="none" stroke="#191970" d="M455.9968,-56.4554C433.3129,-46.419 403.7327,-33.3314 381.7521,-23.6061"/>
<polygon fill="#191970" stroke="#191970" points="383.1011,-20.3758 372.5401,-19.5303 380.2688,-26.7772 383.1011,-20.3758"/>
</g>
<!-- Node29 -->
<g id="node30" class="node">
<title>Node29</title>
<polygon fill="#ffffff" stroke="#bfbfbf" points="465,-.5 465,-19.5 515,-19.5 515,-.5 465,-.5"/>
<text text-anchor="middle" x="490" y="-7.5" font-family="Helvetica,sans-Serif" font-size="10.00" fill="#000000">ciso646</text>
</g>
<!-- Node28&#45;&gt;Node29 -->
<g id="edge47" class="edge">
<title>Node28&#45;&gt;Node29</title>
<path fill="none" stroke="#191970" d="M490,-56.2977C490,-48.3834 490,-38.6043 490,-30.0759"/>
<polygon fill="#191970" stroke="#191970" points="493.5001,-29.8469 490,-19.8469 486.5001,-29.847 493.5001,-29.8469"/>
</g>
<!-- Node30&#45;&gt;Node6 -->
<g id="edge54" class="edge">
<title>Node30&#45;&gt;Node6</title>
<path fill="none" stroke="#191970" d="M1785.6827,-257.2502C1778.5943,-247.2682 1769.5875,-233.7558 1763,-221 1741.5644,-179.4929 1761.3312,-152.366 1725,-123 1646.2393,-59.3388 1596.2016,-118.6426 1500,-87 1498.5382,-86.5192 1497.0607,-85.974 1495.5861,-85.3827"/>
<polygon fill="#191970" stroke="#191970" points="1496.6413,-82.015 1486.0947,-81.005 1493.7095,-88.3715 1496.6413,-82.015"/>
</g>
<!-- Node30&#45;&gt;Node8 -->
<g id="edge52" class="edge">
<title>Node30&#45;&gt;Node8</title>
<path fill="none" stroke="#191970" d="M1772.0159,-257.4979C1758.2752,-248.2932 1741.6946,-235.5053 1730,-221 1714.6014,-201.9004 1703.5615,-175.7192 1697.2417,-158.0131"/>
<polygon fill="#191970" stroke="#191970" points="1700.4474,-156.568 1693.9199,-148.2228 1693.8186,-158.8172 1700.4474,-156.568"/>
</g>
<!-- Node30&#45;&gt;Node10 -->
<g id="edge53" class="edge">
<title>Node30&#45;&gt;Node10</title>
<path fill="none" stroke="#191970" d="M1851.8335,-263.8989C1880.1259,-256.8153 1913.185,-244.0132 1935,-221 1985.643,-167.5752 1981.9626,-71.0519 1977.6286,-29.6864"/>
<polygon fill="#191970" stroke="#191970" points="1981.0819,-29.0841 1976.4334,-19.5635 1974.1302,-29.9049 1981.0819,-29.0841"/>
</g>
<!-- Node30&#45;&gt;Node13 -->
<g id="edge55" class="edge">
<title>Node30&#45;&gt;Node13</title>
<path fill="none" stroke="#191970" d="M1742.2574,-267.2117C1656.6847,-258.7406 1486.0947,-241.0312 1342,-221 1319.3571,-217.8523 956.4959,-164.1255 936,-154 917.9584,-145.0871 920.8189,-132.3502 903,-123 835.7669,-87.7204 806.4074,-115.4207 736,-87 735.1506,-86.6571 734.2974,-86.2862 733.4453,-85.8928"/>
<polygon fill="#191970" stroke="#191970" points="735.0252,-82.7681 724.5665,-81.0755 731.6869,-88.9208 735.0252,-82.7681"/>
</g>
<!-- Node30&#45;&gt;Node14 -->
<g id="edge57" class="edge">
<title>Node30&#45;&gt;Node14</title>
<path fill="none" stroke="#191970" d="M1808.7996,-257.2967C1816.6655,-247.1618 1827.0327,-233.804 1835.2688,-223.1921"/>
<polygon fill="#191970" stroke="#191970" points="1838.2179,-225.1008 1841.5842,-215.055 1832.688,-220.8089 1838.2179,-225.1008"/>
</g>
<!-- Node30&#45;&gt;Node18 -->
<g id="edge58" class="edge">
<title>Node30&#45;&gt;Node18</title>
<path fill="none" stroke="#191970" d="M1851.7351,-264.2768C1910.0348,-254.816 1997.8573,-238.3412 2027,-221 2051.3988,-206.4816 2071.8343,-180.8247 2084.6268,-161.9666"/>
<polygon fill="#191970" stroke="#191970" points="2087.5624,-163.8725 2090.115,-153.5898 2081.7072,-160.0364 2087.5624,-163.8725"/>
</g>
<!-- Node31 -->
<g id="node32" class="node">
<title>Node31</title>
<polygon fill="#ffffff" stroke="#bfbfbf" points="2003,-62 2003,-81 2047,-81 2047,-62 2003,-62"/>
<text text-anchor="middle" x="2025" y="-69" font-family="Helvetica,sans-Serif" font-size="10.00" fill="#000000">vector</text>
</g>
<!-- Node30&#45;&gt;Node31 -->
<g id="edge56" class="edge">
<title>Node30&#45;&gt;Node31</title>
<path fill="none" stroke="#191970" d="M1851.5022,-264.221C1901.2943,-255.5665 1969.9712,-240.5254 1989,-221 2023.5173,-185.582 2026.9301,-123.1384 2026.1801,-91.3289"/>
<polygon fill="#191970" stroke="#191970" points="2029.6678,-90.9523 2025.7653,-81.1024 2022.6735,-91.2361 2029.6678,-90.9523"/>
</g>
<!-- Node32&#45;&gt;Node3 -->
<g id="edge61" class="edge">
<title>Node32&#45;&gt;Node3</title>
<path fill="none" stroke="#191970" d="M463.8194,-264.4093C390.8332,-251.47 260.953,-220.4753 171,-154 146.5752,-135.9501 125.0805,-107.7916 112.5574,-89.4932"/>
<polygon fill="#191970" stroke="#191970" points="115.4635,-87.5426 107.0075,-81.1593 109.6372,-91.4226 115.4635,-87.5426"/>
</g>
<!-- Node32&#45;&gt;Node6 -->
<g id="edge63" class="edge">
<title>Node32&#45;&gt;Node6</title>
<path fill="none" stroke="#191970" d="M574.3325,-267.866C653.7502,-260.699 804.4375,-245.176 931,-221 1047.7887,-198.691 1081.5828,-202.8159 1190,-154 1212.48,-143.8781 1213.339,-132.7099 1236,-123 1305.2019,-93.3482 1393.5156,-79.8819 1439.3275,-74.5362"/>
<polygon fill="#191970" stroke="#191970" points="1439.9437,-77.9893 1449.4943,-73.4029 1439.1681,-71.0323 1439.9437,-77.9893"/>
</g>
<!-- Node32&#45;&gt;Node13 -->
<g id="edge62" class="edge">
<title>Node32&#45;&gt;Node13</title>
<path fill="none" stroke="#191970" d="M533.4312,-257.3923C568.4415,-220.741 657.7146,-127.2832 694.6352,-88.6319"/>
<polygon fill="#191970" stroke="#191970" points="697.3042,-90.9049 701.6806,-81.2562 692.2424,-86.0698 697.3042,-90.9049"/>
</g>
<!-- Node33 -->
<g id="node34" class="node">
<title>Node33</title>
<g id="a_node34"><a xlink:href="detected_8hpp.html" target="_top" xlink:title="nlohmann/detail/meta\l/detected.hpp">
<polygon fill="#ffffff" stroke="#000000" points="180,-123.5 180,-153.5 290,-153.5 290,-123.5 180,-123.5"/>
<text text-anchor="start" x="188" y="-141.5" font-family="Helvetica,sans-Serif" font-size="10.00" fill="#000000">nlohmann/detail/meta</text>
<text text-anchor="middle" x="235" y="-130.5" font-family="Helvetica,sans-Serif" font-size="10.00" fill="#000000">/detected.hpp</text>
</a>
</g>
</g>
<!-- Node32&#45;&gt;Node33 -->
<g id="edge64" class="edge">
<title>Node32&#45;&gt;Node33</title>
<path fill="none" stroke="#191970" d="M479.0972,-257.484C453.8609,-247.7019 420.7032,-234.3218 392,-221 349.5483,-201.2972 302.1609,-175.9079 270.6639,-158.5303"/>
<polygon fill="#191970" stroke="#191970" points="272.2645,-155.4159 261.821,-153.6315 268.8724,-161.5391 272.2645,-155.4159"/>
</g>
<!-- Node34 -->
<g id="node35" class="node">
<title>Node34</title>
<g id="a_node35"><a xlink:href="type__traits_8hpp.html" target="_top" xlink:title="nlohmann/detail/meta\l/type_traits.hpp">
<polygon fill="#ffffff" stroke="#000000" points="401,-190.5 401,-220.5 511,-220.5 511,-190.5 401,-190.5"/>
<text text-anchor="start" x="409" y="-208.5" font-family="Helvetica,sans-Serif" font-size="10.00" fill="#000000">nlohmann/detail/meta</text>
<text text-anchor="middle" x="456" y="-197.5" font-family="Helvetica,sans-Serif" font-size="10.00" fill="#000000">/type_traits.hpp</text>
</a>
</g>
</g>
<!-- Node32&#45;&gt;Node34 -->
<g id="edge67" class="edge">
<title>Node32&#45;&gt;Node34</title>
<path fill="none" stroke="#191970" d="M504.7043,-257.2967C496.5688,-248.6446 486.2248,-237.6438 477.1639,-228.0076"/>
<polygon fill="#191970" stroke="#191970" points="479.6392,-225.5308 470.2391,-220.6432 474.5396,-230.326 479.6392,-225.5308"/>
</g>
<!-- Node33&#45;&gt;Node25 -->
<g id="edge65" class="edge">
<title>Node33&#45;&gt;Node25</title>
<path fill="none" stroke="#191970" d="M209.0791,-123.2909C184.1597,-106.7344 152.7657,-79.4802 171,-56 187.8643,-34.284 262.1008,-21.0905 309.8125,-14.6996"/>
<polygon fill="#191970" stroke="#191970" points="310.3846,-18.1549 319.8536,-13.402 309.4874,-11.2126 310.3846,-18.1549"/>
</g>
<!-- Node33&#45;&gt;Node27 -->
<g id="edge66" class="edge">
<title>Node33&#45;&gt;Node27</title>
<path fill="none" stroke="#191970" d="M235,-123.2967C235,-115.5013 235,-105.7991 235,-96.9064"/>
<polygon fill="#191970" stroke="#191970" points="238.5001,-96.6431 235,-86.6432 231.5001,-96.6432 238.5001,-96.6431"/>
</g>
<!-- Node34&#45;&gt;Node5 -->
<g id="edge69" class="edge">
<title>Node34&#45;&gt;Node5</title>
<path fill="none" stroke="#191970" d="M400.9453,-196.3676C343.431,-186.6363 250.6578,-170.4012 171,-154 158.9133,-151.5114 145.6647,-148.5056 134.1628,-145.806"/>
<polygon fill="#191970" stroke="#191970" points="134.7121,-142.3392 124.1743,-143.4364 133.0963,-149.1502 134.7121,-142.3392"/>
</g>
<!-- Node34&#45;&gt;Node13 -->
<g id="edge71" class="edge">
<title>Node34&#45;&gt;Node13</title>
<path fill="none" stroke="#191970" d="M504.4909,-190.4662C531.0446,-181.4187 564.1229,-168.7935 592,-154 613.1307,-142.7866 616.3618,-136.6597 636,-123 653.5031,-110.8254 673.4,-97.1713 688.3,-86.9828"/>
<polygon fill="#191970" stroke="#191970" points="690.5829,-89.6621 696.8656,-81.1311 686.6341,-83.8822 690.5829,-89.6621"/>
</g>
<!-- Node34&#45;&gt;Node18 -->
<g id="edge73" class="edge">
<title>Node34&#45;&gt;Node18</title>
<path fill="none" stroke="#191970" d="M511.1214,-202.7995C579.3901,-199.5083 699.2524,-193.9039 802,-190 1314.7684,-170.5174 1444.1032,-189.6743 1956,-154 1980.6311,-152.2834 2007.5676,-149.5807 2031.3542,-146.9095"/>
<polygon fill="#191970" stroke="#191970" points="2031.8012,-150.3813 2041.3397,-145.7697 2031.0073,-143.4265 2031.8012,-150.3813"/>
</g>
<!-- Node34&#45;&gt;Node25 -->
<g id="edge70" class="edge">
<title>Node34&#45;&gt;Node25</title>
<path fill="none" stroke="#191970" d="M443.1254,-190.3473C435.0372,-180.404 424.7133,-166.8983 417,-154 391.5934,-111.5147 369.2848,-57.5811 358.2787,-29.3038"/>
<polygon fill="#191970" stroke="#191970" points="361.4819,-27.8816 354.631,-19.7998 354.9467,-30.3899 361.4819,-27.8816"/>
</g>
<!-- Node34&#45;&gt;Node26 -->
<g id="edge72" class="edge">
<title>Node34&#45;&gt;Node26</title>
<path fill="none" stroke="#191970" d="M470.9764,-190.2967C479.4993,-181.6446 490.336,-170.6438 499.8283,-161.0076"/>
<polygon fill="#191970" stroke="#191970" points="502.5585,-163.2234 507.0828,-153.6432 497.5717,-158.311 502.5585,-163.2234"/>
</g>
<!-- Node34&#45;&gt;Node28 -->
<g id="edge74" class="edge">
<title>Node34&#45;&gt;Node28</title>
<path fill="none" stroke="#191970" d="M451.7682,-190.4518C447.7692,-173.5653 443.4151,-145.5798 451,-123 454.482,-112.6342 460.9688,-102.6939 467.6665,-94.3587"/>
<polygon fill="#191970" stroke="#191970" points="470.4688,-96.4679 474.3311,-86.6021 465.1594,-91.906 470.4688,-96.4679"/>
</g>
<!-- Node34&#45;&gt;Node29 -->
<g id="edge68" class="edge">
<title>Node34&#45;&gt;Node29</title>
<path fill="none" stroke="#191970" d="M446.7181,-190.182C430.9845,-162.0677 402.9301,-100.9922 426,-56 432.933,-42.4789 445.8936,-32.0326 458.3481,-24.5377"/>
<polygon fill="#191970" stroke="#191970" points="460.1928,-27.5168 467.234,-19.6001 456.7928,-21.3979 460.1928,-27.5168"/>
</g>
<!-- Node34&#45;&gt;Node33 -->
<g id="edge75" class="edge">
<title>Node34&#45;&gt;Node33</title>
<path fill="none" stroke="#191970" d="M406.4033,-190.4639C373.2505,-180.4131 329.4611,-167.1375 294.4416,-156.5208"/>
<polygon fill="#191970" stroke="#191970" points="295.3984,-153.1536 284.813,-153.6017 293.3674,-159.8525 295.3984,-153.1536"/>
</g>
<!-- Node35 -->
<g id="node36" class="node">
<title>Node35</title>
<g id="a_node36"><a xlink:href="json__fwd_8hpp.html" target="_top" xlink:title="nlohmann/json_fwd.hpp">
<polygon fill="#ffffff" stroke="#000000" points="1026.5,-129 1026.5,-148 1145.5,-148 1145.5,-129 1026.5,-129"/>
<text text-anchor="middle" x="1086" y="-136" font-family="Helvetica,sans-Serif" font-size="10.00" fill="#000000">nlohmann/json_fwd.hpp</text>
</a>
</g>
</g>
<!-- Node34&#45;&gt;Node35 -->
<g id="edge76" class="edge">
<title>Node34&#45;&gt;Node35</title>
<path fill="none" stroke="#191970" d="M511.0809,-199.6422C625.8003,-187.4419 890.1526,-159.3282 1016.4121,-145.9006"/>
<polygon fill="#191970" stroke="#191970" points="1016.7866,-149.3806 1026.3603,-144.8426 1016.0462,-142.4199 1016.7866,-149.3806"/>
</g>
<!-- Node35&#45;&gt;Node3 -->
<g id="edge77" class="edge">
<title>Node35&#45;&gt;Node3</title>
<path fill="none" stroke="#191970" d="M1026.2872,-132.9058C990.5442,-129.691 944.1984,-125.757 903,-123 578.0003,-101.2514 493.8271,-130.364 171,-87 158.787,-85.3595 145.5514,-82.6698 133.9106,-79.9877"/>
<polygon fill="#191970" stroke="#191970" points="134.6965,-76.577 124.1571,-77.6592 133.071,-83.3857 134.6965,-76.577"/>
</g>
<!-- Node35&#45;&gt;Node6 -->
<g id="edge80" class="edge">
<title>Node35&#45;&gt;Node6</title>
<path fill="none" stroke="#191970" d="M1130.157,-128.9353C1139.9667,-126.8986 1150.3245,-124.8162 1160,-123 1262.0074,-103.8523 1383.5983,-84.7229 1439.3353,-76.1585"/>
<polygon fill="#191970" stroke="#191970" points="1439.9136,-79.6109 1449.2684,-74.6371 1438.8537,-72.6915 1439.9136,-79.6109"/>
</g>
<!-- Node35&#45;&gt;Node23 -->
<g id="edge79" class="edge">
<title>Node35&#45;&gt;Node23</title>
<path fill="none" stroke="#191970" d="M1145.7917,-133.2343C1243.9159,-124.2285 1434.7383,-105.0848 1500,-87 1502.1854,-86.3944 1504.4102,-85.6748 1506.6249,-84.8824"/>
<polygon fill="#191970" stroke="#191970" points="1508.1422,-88.0448 1516.1172,-81.0699 1505.5332,-81.5491 1508.1422,-88.0448"/>
</g>
<!-- Node35&#45;&gt;Node31 -->
<g id="edge81" class="edge">
<title>Node35&#45;&gt;Node31</title>
<path fill="none" stroke="#191970" d="M1145.7299,-133.1469C1181.4789,-130.0163 1227.8249,-126.0861 1269,-123 1514.1668,-104.6244 1575.7559,-104.3135 1821,-87 1881.8202,-82.7063 1952.8,-77.2015 1992.9677,-74.0404"/>
<polygon fill="#191970" stroke="#191970" points="1993.2748,-77.5272 2002.9686,-73.2517 1992.7244,-70.5489 1993.2748,-77.5272"/>
</g>
<!-- Node36 -->
<g id="node37" class="node">
<title>Node36</title>
<polygon fill="#ffffff" stroke="#bfbfbf" points="1068.5,-62 1068.5,-81 1103.5,-81 1103.5,-62 1068.5,-62"/>
<text text-anchor="middle" x="1086" y="-69" font-family="Helvetica,sans-Serif" font-size="10.00" fill="#000000">map</text>
</g>
<!-- Node35&#45;&gt;Node36 -->
<g id="edge78" class="edge">
<title>Node35&#45;&gt;Node36</title>
<path fill="none" stroke="#191970" d="M1086,-128.9005C1086,-119.149 1086,-103.7597 1086,-91.3695"/>
<polygon fill="#191970" stroke="#191970" points="1089.5001,-91.0816 1086,-81.0817 1082.5001,-91.0817 1089.5001,-91.0816"/>
</g>
<!-- Node37&#45;&gt;Node2 -->
<g id="edge83" class="edge">
<title>Node37&#45;&gt;Node2</title>
<path fill="none" stroke="#191970" d="M837.3766,-190.4639C815.1289,-179.1715 784.8616,-163.8086 763.0139,-152.7192"/>
<polygon fill="#191970" stroke="#191970" points="764.4224,-149.5091 753.9212,-148.1039 761.2541,-155.7511 764.4224,-149.5091"/>
</g>
<!-- Node37&#45;&gt;Node3 -->
<g id="edge86" class="edge">
<title>Node37&#45;&gt;Node3</title>
<path fill="none" stroke="#191970" d="M811.199,-200.5302C731.0934,-192.9572 579.0428,-176.9469 451,-154 333.3686,-132.919 195.9574,-97.2358 134.1199,-80.5755"/>
<polygon fill="#191970" stroke="#191970" points="134.7321,-77.1153 124.165,-77.8815 132.9035,-83.8723 134.7321,-77.1153"/>
</g>
<!-- Node37&#45;&gt;Node6 -->
<g id="edge87" class="edge">
<title>Node37&#45;&gt;Node6</title>
<path fill="none" stroke="#191970" d="M922.7394,-198.4226C994.0203,-188.8693 1113.1277,-171.0719 1154,-154 1176.0735,-144.7801 1175.9708,-132.3254 1198,-123 1280.6397,-88.017 1387.4283,-76.6681 1439.1761,-73.0876"/>
<polygon fill="#191970" stroke="#191970" points="1439.5988,-76.5678 1449.3546,-72.4357 1439.1513,-69.5821 1439.5988,-76.5678"/>
</g>
<!-- Node37&#45;&gt;Node10 -->
<g id="edge85" class="edge">
<title>Node37&#45;&gt;Node10</title>
<path fill="none" stroke="#191970" d="M853.9869,-190.1946C840.6596,-172.5674 823.8741,-143.4183 839,-123 899.8423,-40.8695 958.3124,-73.5844 1059,-56 1233.0656,-25.6007 1793.8185,-13.3366 1939.9258,-10.6116"/>
<polygon fill="#191970" stroke="#191970" points="1940.1692,-14.1078 1950.1033,-10.4248 1940.0407,-7.109 1940.1692,-14.1078"/>
</g>
<!-- Node37&#45;&gt;Node29 -->
<g id="edge84" class="edge">
<title>Node37&#45;&gt;Node29</title>
<path fill="none" stroke="#191970" d="M846.2437,-190.3221C833.8128,-180.6843 818.1238,-167.5155 806,-154 770.9354,-114.9103 783.9236,-84.7793 740,-56 705.1773,-33.1837 585.8912,-19.0129 525.5552,-13.1372"/>
<polygon fill="#191970" stroke="#191970" points="525.642,-9.6298 515.3558,-12.1685 524.98,-16.5984 525.642,-9.6298"/>
</g>
<!-- Node38&#45;&gt;Node1 -->
<g id="edge90" class="edge">
<title>Node38&#45;&gt;Node1</title>
<path fill="none" stroke="#191970" d="M2447.3921,-190.4639C2489.7601,-178.068 2548.8929,-160.7671 2587.0665,-149.5984"/>
<polygon fill="#191970" stroke="#191970" points="2588.1564,-152.9264 2596.7713,-146.7591 2586.1908,-146.208 2588.1564,-152.9264"/>
</g>
<!-- Node38&#45;&gt;Node6 -->
<g id="edge96" class="edge">
<title>Node38&#45;&gt;Node6</title>
<path fill="none" stroke="#191970" d="M2338.3854,-191.9703C2284.7739,-179.1325 2211.337,-160.8189 2199,-154 2181.3881,-144.2656 2184.5025,-130.9118 2166,-123 2029.7206,-64.7255 1643.0249,-125.8831 1500,-87 1498.2887,-86.5348 1496.563,-85.9631 1494.8501,-85.3165"/>
<polygon fill="#191970" stroke="#191970" points="1495.9232,-81.9601 1485.3705,-81.016 1493.0312,-88.3348 1495.9232,-81.9601"/>
</g>
<!-- Node38&#45;&gt;Node10 -->
<g id="edge91" class="edge">
<title>Node38&#45;&gt;Node10</title>
<path fill="none" stroke="#191970" d="M2453.5657,-194.0799C2475.7247,-186.5741 2498.8484,-174.2283 2512,-154 2519.51,-142.4489 2519.4077,-134.6169 2512,-123 2457.2846,-37.1942 2119.9154,-15.9059 2009.7551,-11.21"/>
<polygon fill="#191970" stroke="#191970" points="2009.6587,-7.7032 1999.5248,-10.7943 2009.3744,-14.6975 2009.6587,-7.7032"/>
</g>
<!-- Node38&#45;&gt;Node12 -->
<g id="edge93" class="edge">
<title>Node38&#45;&gt;Node12</title>
<path fill="none" stroke="#191970" d="M2379.4919,-190.2224C2357.5034,-170.8813 2316.5289,-138.2482 2275,-123 2232.6047,-107.4337 1925.09,-82.229 1821.7613,-74.1094"/>
<polygon fill="#191970" stroke="#191970" points="1821.8216,-70.6035 1811.5791,-73.3127 1821.2756,-77.5821 1821.8216,-70.6035"/>
</g>
<!-- Node38&#45;&gt;Node18 -->
<g id="edge98" class="edge">
<title>Node38&#45;&gt;Node18</title>
<path fill="none" stroke="#191970" d="M2338.3833,-192.5023C2289.1764,-181.4017 2218.3373,-165.4212 2166.487,-153.7243"/>
<polygon fill="#191970" stroke="#191970" points="2167.2345,-150.3051 2156.7094,-151.5186 2165.694,-157.1335 2167.2345,-150.3051"/>
</g>
<!-- Node38&#45;&gt;Node23 -->
<g id="edge94" class="edge">
<title>Node38&#45;&gt;Node23</title>
<path fill="none" stroke="#191970" d="M2359.0171,-190.4415C2334.1028,-180.2533 2300.5253,-166.4374 2271,-154 2238.8924,-140.4748 2232.8249,-131.3488 2199,-123 2183.6303,-119.2064 1708.3332,-84.1931 1571.5128,-74.1695"/>
<polygon fill="#191970" stroke="#191970" points="1571.3865,-70.651 1561.1575,-73.4112 1570.8752,-77.6323 1571.3865,-70.651"/>
</g>
<!-- Node38&#45;&gt;Node31 -->
<g id="edge97" class="edge">
<title>Node38&#45;&gt;Node31</title>
<path fill="none" stroke="#191970" d="M2392.335,-190.4386C2386.8329,-171.3312 2374.4834,-138.9505 2351,-123 2242.102,-49.0338 2183.2783,-124.1962 2057,-87 2055.1348,-86.4506 2053.244,-85.8017 2051.3623,-85.0861"/>
<polygon fill="#191970" stroke="#191970" points="2052.7558,-81.8755 2042.189,-81.1045 2049.9687,-88.2967 2052.7558,-81.8755"/>
</g>
<!-- Node39 -->
<g id="node40" class="node">
<title>Node39</title>
<polygon fill="#ffffff" stroke="#bfbfbf" points="2403.5,-129 2403.5,-148 2432.5,-148 2432.5,-129 2403.5,-129"/>
<text text-anchor="middle" x="2418" y="-136" font-family="Helvetica,sans-Serif" font-size="10.00" fill="#000000">ios</text>
</g>
<!-- Node38&#45;&gt;Node39 -->
<g id="edge92" class="edge">
<title>Node38&#45;&gt;Node39</title>
<path fill="none" stroke="#191970" d="M2400.9921,-190.2967C2404.1536,-180.6685 2408.2702,-168.1318 2411.6615,-157.8038"/>
<polygon fill="#191970" stroke="#191970" points="2415.0681,-158.6478 2414.8625,-148.055 2408.4175,-156.464 2415.0681,-158.6478"/>
</g>
<!-- Node40 -->
<g id="node41" class="node">
<title>Node40</title>
<polygon fill="#ffffff" stroke="#bfbfbf" points="2451,-129 2451,-148 2503,-148 2503,-129 2451,-129"/>
<text text-anchor="middle" x="2477" y="-136" font-family="Helvetica,sans-Serif" font-size="10.00" fill="#000000">ostream</text>
</g>
<!-- Node38&#45;&gt;Node40 -->
<g id="edge95" class="edge">
<title>Node38&#45;&gt;Node40</title>
<path fill="none" stroke="#191970" d="M2414.3802,-190.2967C2427.2454,-179.6551 2444.4063,-165.4602 2457.5096,-154.6217"/>
<polygon fill="#191970" stroke="#191970" points="2459.9737,-157.1257 2465.4485,-148.055 2455.5121,-151.7318 2459.9737,-157.1257"/>
</g>
</g>
</svg>
