<?xml version="1.0" encoding="UTF-8" standalone="no"?>
<!DOCTYPE svg PUBLIC "-//W3C//DTD SVG 1.1//EN"
 "http://www.w3.org/Graphics/SVG/1.1/DTD/svg11.dtd">
<!-- Generated by graphviz version 2.40.1 (20161225.0304)
 -->
<!-- Title: BarcodeScanner Pages: 1 -->
<svg width="205pt" height="409pt"
 viewBox="0.00 0.00 205.00 409.00" xmlns="http://www.w3.org/2000/svg" xmlns:xlink="http://www.w3.org/1999/xlink">
<g id="graph0" class="graph" transform="scale(1 1) rotate(0) translate(4 405)">
<title>BarcodeScanner</title>
<polygon fill="#ffffff" stroke="transparent" points="-4,4 -4,-405 201,-405 201,4 -4,4"/>
<!-- Node2 -->
<g id="node1" class="node">
<title>Node2</title>
<polygon fill="#bfbfbf" stroke="#000000" points="4.5,-.5 4.5,-79.5 114.5,-79.5 114.5,-.5 4.5,-.5"/>
<text text-anchor="middle" x="59.5" y="-67.5" font-family="Helvetica,sans-Serif" font-size="10.00" fill="#000000">BarcodeScanner</text>
<polyline fill="none" stroke="#000000" points="4.5,-60.5 114.5,-60.5 "/>
<text text-anchor="middle" x="59.5" y="-48.5" font-family="Helvetica,sans-Serif" font-size="10.00" fill="#000000"> </text>
<polyline fill="none" stroke="#000000" points="4.5,-41.5 114.5,-41.5 "/>
<text text-anchor="start" x="12.5" y="-29.5" font-family="Helvetica,sans-Serif" font-size="10.00" fill="#000000">+ BarcodeScanner()</text>
<text text-anchor="start" x="12.5" y="-18.5" font-family="Helvetica,sans-Serif" font-size="10.00" fill="#000000">+ ~BarcodeScanner()</text>
<text text-anchor="start" x="12.5" y="-7.5" font-family="Helvetica,sans-Serif" font-size="10.00" fill="#000000">+ getBarCode()</text>
</g>
<!-- Node3 -->
<g id="node2" class="node">
<title>Node3</title>
<g id="a_node2"><a xlink:href="class_code_scanner.html" target="_top" target="_top" xlink:title="Class that contains the precedures of finding the position of code and decoding the code...">
<polygon fill="#ffffff" stroke="#000000" points="100,-117.5 100,-207.5 197,-207.5 197,-117.5 100,-117.5"/>
<text text-anchor="middle" x="148.5" y="-195.5" font-family="Helvetica,sans-Serif" font-size="10.00" fill="#000000">CodeScanner</text>
<polyline fill="none" stroke="#000000" points="100,-188.5 197,-188.5 "/>
<text text-anchor="middle" x="148.5" y="-176.5" font-family="Helvetica,sans-Serif" font-size="10.00" fill="#000000"> </text>
<polyline fill="none" stroke="#000000" points="100,-169.5 197,-169.5 "/>
<text text-anchor="start" x="108" y="-157.5" font-family="Helvetica,sans-Serif" font-size="10.00" fill="#000000">+ CodeScanner()</text>
<text text-anchor="start" x="108" y="-146.5" font-family="Helvetica,sans-Serif" font-size="10.00" fill="#000000">+ ~CodeScanner()</text>
<text text-anchor="start" x="108" y="-135.5" font-family="Helvetica,sans-Serif" font-size="10.00" fill="#000000">+ getCodeInfo()</text>
<text text-anchor="start" x="108" y="-124.5" font-family="Helvetica,sans-Serif" font-size="10.00" fill="#000000">+ decode()</text>
</a>
</g>
</g>
<!-- Node3&#45;&gt;Node2 -->
<g id="edge1" class="edge">
<title>Node3&#45;&gt;Node2</title>
<path fill="none" stroke="#191970" d="M109.6838,-109.0733C102.5508,-99.2554 95.2197,-89.1648 88.4399,-79.8331"/>
<polygon fill="none" stroke="#191970" points="106.9031,-111.2006 115.6125,-117.2336 112.5663,-107.0861 106.9031,-111.2006"/>
</g>
<!-- Node4 -->
<g id="node3" class="node">
<title>Node4</title>
<g id="a_node3"><a xlink:href="struct_code_info.html" target="_top" target="_top" xlink:title="Structure that contains the related information of the code. ">
<polygon fill="#ffffff" stroke="#000000" points="0,-255.5 0,-400.5 75,-400.5 75,-255.5 0,-255.5"/>
<text text-anchor="middle" x="37.5" y="-388.5" font-family="Helvetica,sans-Serif" font-size="10.00" fill="#000000">CodeInfo</text>
<polyline fill="none" stroke="#000000" points="0,-381.5 75,-381.5 "/>
<text text-anchor="start" x="8" y="-369.5" font-family="Helvetica,sans-Serif" font-size="10.00" fill="#000000">+ originX</text>
<text text-anchor="start" x="8" y="-358.5" font-family="Helvetica,sans-Serif" font-size="10.00" fill="#000000">+ endX</text>
<text text-anchor="start" x="8" y="-347.5" font-family="Helvetica,sans-Serif" font-size="10.00" fill="#000000">+ originY</text>
<text text-anchor="start" x="8" y="-336.5" font-family="Helvetica,sans-Serif" font-size="10.00" fill="#000000">+ endY</text>
<text text-anchor="start" x="8" y="-325.5" font-family="Helvetica,sans-Serif" font-size="10.00" fill="#000000">+ codeWidth</text>
<text text-anchor="start" x="8" y="-314.5" font-family="Helvetica,sans-Serif" font-size="10.00" fill="#000000">+ codeHeight</text>
<text text-anchor="start" x="8" y="-303.5" font-family="Helvetica,sans-Serif" font-size="10.00" fill="#000000">+ codeType</text>
<text text-anchor="start" x="8" y="-292.5" font-family="Helvetica,sans-Serif" font-size="10.00" fill="#000000">+ codeData</text>
<text text-anchor="start" x="8" y="-281.5" font-family="Helvetica,sans-Serif" font-size="10.00" fill="#000000">+ code</text>
<polyline fill="none" stroke="#000000" points="0,-274.5 75,-274.5 "/>
<text text-anchor="middle" x="37.5" y="-262.5" font-family="Helvetica,sans-Serif" font-size="10.00" fill="#000000"> </text>
</a>
</g>
</g>
<!-- Node4&#45;&gt;Node2 -->
<g id="edge3" class="edge">
<title>Node4&#45;&gt;Node2</title>
<path fill="none" stroke="#404040" d="M28.2318,-255.2076C24.8168,-214.2996 23.4885,-162.4746 31.5,-117 33.0101,-108.4284 35.3979,-99.5555 38.1576,-91.0149"/>
<polygon fill="none" stroke="#404040" points="38.1724,-90.9719 36.3588,-83.9926 42.1037,-79.6341 43.9173,-86.6135 38.1724,-90.9719"/>
<text text-anchor="middle" x="61.5" y="-160" font-family="Helvetica,sans-Serif" font-size="10.00" fill="#000000"> &#45;barCodeInfo</text>
</g>
<!-- Node4&#45;&gt;Node3 -->
<g id="edge2" class="edge">
<title>Node4&#45;&gt;Node3</title>
<path fill="none" stroke="#404040" d="M75.0795,-271.9692C86.8565,-254.4099 99.8395,-235.0524 111.5711,-217.5606"/>
<polygon fill="none" stroke="#404040" points="111.6312,-217.471 111.6513,-210.2599 118.3154,-207.505 118.2953,-214.7161 111.6312,-217.471"/>
<text text-anchor="middle" x="126" y="-229" font-family="Helvetica,sans-Serif" font-size="10.00" fill="#000000"> +codeInfo</text>
</g>
</g>
</svg>
