<?xml version="1.0" encoding="UTF-8" standalone="no"?>
<!DOCTYPE svg PUBLIC "-//W3C//DTD SVG 1.1//EN"
 "http://www.w3.org/Graphics/SVG/1.1/DTD/svg11.dtd">
<!-- Generated by graphviz version 2.40.1 (20161225.0304)
 -->
<!-- Title: CodeScanner Pages: 1 -->
<svg width="242pt" height="215pt"
 viewBox="0.00 0.00 241.50 215.00" xmlns="http://www.w3.org/2000/svg" xmlns:xlink="http://www.w3.org/1999/xlink">
<g id="graph0" class="graph" transform="scale(1 1) rotate(0) translate(4 211)">
<title>CodeScanner</title>
<polygon fill="#ffffff" stroke="transparent" points="-4,4 -4,-211 237.5,-211 237.5,4 -4,4"/>
<!-- Node0 -->
<g id="node1" class="node">
<title>Node0</title>
<polygon fill="#bfbfbf" stroke="#000000" points="69.5,-116.5 69.5,-206.5 166.5,-206.5 166.5,-116.5 69.5,-116.5"/>
<text text-anchor="middle" x="118" y="-194.5" font-family="Helvetica,sans-Serif" font-size="10.00" fill="#000000">CodeScanner</text>
<polyline fill="none" stroke="#000000" points="69.5,-187.5 166.5,-187.5 "/>
<text text-anchor="start" x="77.5" y="-175.5" font-family="Helvetica,sans-Serif" font-size="10.00" fill="#000000">+ codeInfo</text>
<polyline fill="none" stroke="#000000" points="69.5,-168.5 166.5,-168.5 "/>
<text text-anchor="start" x="77.5" y="-156.5" font-family="Helvetica,sans-Serif" font-size="10.00" fill="#000000">+ CodeScanner()</text>
<text text-anchor="start" x="77.5" y="-145.5" font-family="Helvetica,sans-Serif" font-size="10.00" fill="#000000">+ ~CodeScanner()</text>
<text text-anchor="start" x="77.5" y="-134.5" font-family="Helvetica,sans-Serif" font-size="10.00" fill="#000000">+ getCodeInfo()</text>
<text text-anchor="start" x="77.5" y="-123.5" font-family="Helvetica,sans-Serif" font-size="10.00" fill="#000000">+ decode()</text>
</g>
<!-- Node1 -->
<g id="node2" class="node">
<title>Node1</title>
<g id="a_node2"><a xlink:href="class_barcode_scanner.html" target="_top" target="_top" xlink:title="Class that contains the precedures of finding the position of barcode and decoding the barcode...">
<polygon fill="#ffffff" stroke="#000000" points="0,-.5 0,-79.5 110,-79.5 110,-.5 0,-.5"/>
<text text-anchor="middle" x="55" y="-67.5" font-family="Helvetica,sans-Serif" font-size="10.00" fill="#000000">BarcodeScanner</text>
<polyline fill="none" stroke="#000000" points="0,-60.5 110,-60.5 "/>
<text text-anchor="start" x="8" y="-48.5" font-family="Helvetica,sans-Serif" font-size="10.00" fill="#000000">&#45; barCodeInfo</text>
<polyline fill="none" stroke="#000000" points="0,-41.5 110,-41.5 "/>
<text text-anchor="start" x="8" y="-29.5" font-family="Helvetica,sans-Serif" font-size="10.00" fill="#000000">+ BarcodeScanner()</text>
<text text-anchor="start" x="8" y="-18.5" font-family="Helvetica,sans-Serif" font-size="10.00" fill="#000000">+ ~BarcodeScanner()</text>
<text text-anchor="start" x="8" y="-7.5" font-family="Helvetica,sans-Serif" font-size="10.00" fill="#000000">+ getBarCode()</text>
</a>
</g>
</g>
<!-- Node0&#45;&gt;Node1 -->
<g id="edge1" class="edge">
<title>Node0&#45;&gt;Node1</title>
<path fill="none" stroke="#191970" d="M89.8032,-107.1204C85.0142,-97.8846 80.1223,-88.4502 75.5768,-79.6838"/>
<polygon fill="none" stroke="#191970" points="86.8308,-108.9915 94.5411,-116.2579 93.045,-105.7692 86.8308,-108.9915"/>
</g>
<!-- Node2 -->
<g id="node3" class="node">
<title>Node2</title>
<g id="a_node3"><a xlink:href="class_qrcode_scanner.html" target="_top" target="_top" xlink:title="Class that contains the precedures of finding the position of QR&#45;code and decoding the QR&#45;code...">
<polygon fill="#ffffff" stroke="#000000" points="128.5,-.5 128.5,-79.5 233.5,-79.5 233.5,-.5 128.5,-.5"/>
<text text-anchor="middle" x="181" y="-67.5" font-family="Helvetica,sans-Serif" font-size="10.00" fill="#000000">QrcodeScanner</text>
<polyline fill="none" stroke="#000000" points="128.5,-60.5 233.5,-60.5 "/>
<text text-anchor="start" x="136.5" y="-48.5" font-family="Helvetica,sans-Serif" font-size="10.00" fill="#000000">&#45; qrCodeInfo</text>
<polyline fill="none" stroke="#000000" points="128.5,-41.5 233.5,-41.5 "/>
<text text-anchor="start" x="136.5" y="-29.5" font-family="Helvetica,sans-Serif" font-size="10.00" fill="#000000">+ QrcodeScanner()</text>
<text text-anchor="start" x="136.5" y="-18.5" font-family="Helvetica,sans-Serif" font-size="10.00" fill="#000000">+ ~QrcodeScanner()</text>
<text text-anchor="start" x="136.5" y="-7.5" font-family="Helvetica,sans-Serif" font-size="10.00" fill="#000000">+ getQrCode()</text>
</a>
</g>
</g>
<!-- Node0&#45;&gt;Node2 -->
<g id="edge2" class="edge">
<title>Node0&#45;&gt;Node2</title>
<path fill="none" stroke="#191970" d="M146.1968,-107.1204C150.9858,-97.8846 155.8777,-88.4502 160.4232,-79.6838"/>
<polygon fill="none" stroke="#191970" points="142.955,-105.7692 141.4589,-116.2579 149.1692,-108.9915 142.955,-105.7692"/>
</g>
</g>
</svg>
