<?xml version="1.0" encoding="UTF-8" standalone="no"?>
<!DOCTYPE svg PUBLIC "-//W3C//DTD SVG 1.1//EN"
 "http://www.w3.org/Graphics/SVG/1.1/DTD/svg11.dtd">
<!-- Generated by graphviz version 2.40.1 (20161225.0304)
 -->
<!-- Title: CodeScanner Pages: 1 -->
<svg width="105pt" height="292pt"
 viewBox="0.00 0.00 105.00 292.00" xmlns="http://www.w3.org/2000/svg" xmlns:xlink="http://www.w3.org/1999/xlink">
<g id="graph0" class="graph" transform="scale(1 1) rotate(0) translate(4 288)">
<title>CodeScanner</title>
<polygon fill="#ffffff" stroke="transparent" points="-4,4 -4,-288 101,-288 101,4 -4,4"/>
<!-- Node3 -->
<g id="node1" class="node">
<title>Node3</title>
<polygon fill="#bfbfbf" stroke="#000000" points="0,-.5 0,-90.5 97,-90.5 97,-.5 0,-.5"/>
<text text-anchor="middle" x="48.5" y="-78.5" font-family="Helvetica,sans-Serif" font-size="10.00" fill="#000000">CodeScanner</text>
<polyline fill="none" stroke="#000000" points="0,-71.5 97,-71.5 "/>
<text text-anchor="middle" x="48.5" y="-59.5" font-family="Helvetica,sans-Serif" font-size="10.00" fill="#000000"> </text>
<polyline fill="none" stroke="#000000" points="0,-52.5 97,-52.5 "/>
<text text-anchor="start" x="8" y="-40.5" font-family="Helvetica,sans-Serif" font-size="10.00" fill="#000000">+ CodeScanner()</text>
<text text-anchor="start" x="8" y="-29.5" font-family="Helvetica,sans-Serif" font-size="10.00" fill="#000000">+ ~CodeScanner()</text>
<text text-anchor="start" x="8" y="-18.5" font-family="Helvetica,sans-Serif" font-size="10.00" fill="#000000">+ getCodeInfo()</text>
<text text-anchor="start" x="8" y="-7.5" font-family="Helvetica,sans-Serif" font-size="10.00" fill="#000000">+ decode()</text>
</g>
<!-- Node4 -->
<g id="node2" class="node">
<title>Node4</title>
<g id="a_node2"><a xlink:href="struct_code_info.html" target="_top" xlink:title="Structure that contains the related information of the code. ">
<polygon fill="#ffffff" stroke="#000000" points="11,-138.5 11,-283.5 86,-283.5 86,-138.5 11,-138.5"/>
<text text-anchor="middle" x="48.5" y="-271.5" font-family="Helvetica,sans-Serif" font-size="10.00" fill="#000000">CodeInfo</text>
<polyline fill="none" stroke="#000000" points="11,-264.5 86,-264.5 "/>
<text text-anchor="start" x="19" y="-252.5" font-family="Helvetica,sans-Serif" font-size="10.00" fill="#000000">+ originX</text>
<text text-anchor="start" x="19" y="-241.5" font-family="Helvetica,sans-Serif" font-size="10.00" fill="#000000">+ endX</text>
<text text-anchor="start" x="19" y="-230.5" font-family="Helvetica,sans-Serif" font-size="10.00" fill="#000000">+ originY</text>
<text text-anchor="start" x="19" y="-219.5" font-family="Helvetica,sans-Serif" font-size="10.00" fill="#000000">+ endY</text>
<text text-anchor="start" x="19" y="-208.5" font-family="Helvetica,sans-Serif" font-size="10.00" fill="#000000">+ codeWidth</text>
<text text-anchor="start" x="19" y="-197.5" font-family="Helvetica,sans-Serif" font-size="10.00" fill="#000000">+ codeHeight</text>
<text text-anchor="start" x="19" y="-186.5" font-family="Helvetica,sans-Serif" font-size="10.00" fill="#000000">+ codeType</text>
<text text-anchor="start" x="19" y="-175.5" font-family="Helvetica,sans-Serif" font-size="10.00" fill="#000000">+ codeData</text>
<text text-anchor="start" x="19" y="-164.5" font-family="Helvetica,sans-Serif" font-size="10.00" fill="#000000">+ code</text>
<polyline fill="none" stroke="#000000" points="11,-157.5 86,-157.5 "/>
<text text-anchor="middle" x="48.5" y="-145.5" font-family="Helvetica,sans-Serif" font-size="10.00" fill="#000000"> </text>
</a>
</g>
</g>
<!-- Node4&#45;&gt;Node3 -->
<g id="edge1" class="edge">
<title>Node4&#45;&gt;Node3</title>
<path fill="none" stroke="#404040" d="M48.5,-138.4093C48.5,-126.546 48.5,-114.3998 48.5,-102.9661"/>
<polygon fill="none" stroke="#404040" points="48.5001,-102.886 44.5,-96.8861 48.5,-90.886 52.5,-96.886 48.5001,-102.886"/>
<text text-anchor="middle" x="72" y="-112" font-family="Helvetica,sans-Serif" font-size="10.00" fill="#000000"> +codeInfo</text>
</g>
</g>
</svg>
