<?xml version="1.0" encoding="UTF-8" standalone="no"?>
<!DOCTYPE svg PUBLIC "-//W3C//DTD SVG 1.1//EN"
 "http://www.w3.org/Graphics/SVG/1.1/DTD/svg11.dtd">
<!-- Generated by graphviz version 2.40.1 (20161225.0304)
 -->
<!-- Title: ChessboardDetector Pages: 1 -->
<svg width="263pt" height="402pt"
 viewBox="0.00 0.00 262.50 402.00" xmlns="http://www.w3.org/2000/svg" xmlns:xlink="http://www.w3.org/1999/xlink">
<g id="graph0" class="graph" transform="scale(1 1) rotate(0) translate(4 398)">
<title>ChessboardDetector</title>
<polygon fill="#ffffff" stroke="transparent" points="-4,4 -4,-398 258.5,-398 258.5,4 -4,4"/>
<!-- Node1 -->
<g id="node1" class="node">
<title>Node1</title>
<polygon fill="#bfbfbf" stroke="#000000" points="54,-.5 54,-189.5 215,-189.5 215,-.5 54,-.5"/>
<text text-anchor="middle" x="134.5" y="-177.5" font-family="Helvetica,sans-Serif" font-size="10.00" fill="#000000">ChessboardDetector</text>
<polyline fill="none" stroke="#000000" points="54,-170.5 215,-170.5 "/>
<text text-anchor="start" x="62" y="-158.5" font-family="Helvetica,sans-Serif" font-size="10.00" fill="#000000">&#45; maxAxis</text>
<text text-anchor="start" x="62" y="-147.5" font-family="Helvetica,sans-Serif" font-size="10.00" fill="#000000">&#45; scale</text>
<polyline fill="none" stroke="#000000" points="54,-140.5 215,-140.5 "/>
<text text-anchor="start" x="62" y="-128.5" font-family="Helvetica,sans-Serif" font-size="10.00" fill="#000000">+ ChessboardDetector()</text>
<text text-anchor="start" x="62" y="-117.5" font-family="Helvetica,sans-Serif" font-size="10.00" fill="#000000">+ ~ChessboardDetector()</text>
<text text-anchor="start" x="62" y="-106.5" font-family="Helvetica,sans-Serif" font-size="10.00" fill="#000000">+ findChessboardCorners()</text>
<text text-anchor="start" x="62" y="-95.5" font-family="Helvetica,sans-Serif" font-size="10.00" fill="#000000">+ perspectiveChessboard()</text>
<text text-anchor="start" x="62" y="-84.5" font-family="Helvetica,sans-Serif" font-size="10.00" fill="#000000">+ detectionResult()</text>
<text text-anchor="start" x="62" y="-73.5" font-family="Helvetica,sans-Serif" font-size="10.00" fill="#000000">+ getResult()</text>
<text text-anchor="start" x="62" y="-62.5" font-family="Helvetica,sans-Serif" font-size="10.00" fill="#000000">+ getOriginalCorners()</text>
<text text-anchor="start" x="62" y="-51.5" font-family="Helvetica,sans-Serif" font-size="10.00" fill="#000000">+ preprocess()</text>
<text text-anchor="start" x="62" y="-40.5" font-family="Helvetica,sans-Serif" font-size="10.00" fill="#000000">&#45; _compute_perspective</text>
<text text-anchor="start" x="62" y="-29.5" font-family="Helvetica,sans-Serif" font-size="10.00" fill="#000000">_transform()</text>
<text text-anchor="start" x="62" y="-18.5" font-family="Helvetica,sans-Serif" font-size="10.00" fill="#000000">&#45; _compute_bounding_box()</text>
<text text-anchor="start" x="62" y="-7.5" font-family="Helvetica,sans-Serif" font-size="10.00" fill="#000000">&#45; _compute_bounding_rectangle()</text>
</g>
<!-- Node2 -->
<g id="node2" class="node">
<title>Node2</title>
<g id="a_node2"><a xlink:href="struct_chessboard_detector_result.html" target="_top" xlink:title="Structure that contains the result of chessboard detection. ">
<polygon fill="#ffffff" stroke="#000000" points="0,-237.5 0,-393.5 135,-393.5 135,-237.5 0,-237.5"/>
<text text-anchor="middle" x="67.5" y="-381.5" font-family="Helvetica,sans-Serif" font-size="10.00" fill="#000000">ChessboardDetectorResult</text>
<polyline fill="none" stroke="#000000" points="0,-374.5 135,-374.5 "/>
<text text-anchor="start" x="8" y="-362.5" font-family="Helvetica,sans-Serif" font-size="10.00" fill="#000000">+ success</text>
<text text-anchor="start" x="8" y="-351.5" font-family="Helvetica,sans-Serif" font-size="10.00" fill="#000000">+ corners</text>
<text text-anchor="start" x="8" y="-340.5" font-family="Helvetica,sans-Serif" font-size="10.00" fill="#000000">+ boundingBox</text>
<text text-anchor="start" x="8" y="-329.5" font-family="Helvetica,sans-Serif" font-size="10.00" fill="#000000">+ boundingRectangle</text>
<text text-anchor="start" x="8" y="-318.5" font-family="Helvetica,sans-Serif" font-size="10.00" fill="#000000">+ image</text>
<text text-anchor="start" x="8" y="-307.5" font-family="Helvetica,sans-Serif" font-size="10.00" fill="#000000">+ perspective</text>
<text text-anchor="start" x="8" y="-296.5" font-family="Helvetica,sans-Serif" font-size="10.00" fill="#000000">+ perspectiveCopy</text>
<text text-anchor="start" x="8" y="-285.5" font-family="Helvetica,sans-Serif" font-size="10.00" fill="#000000">+ unitWidth</text>
<text text-anchor="start" x="8" y="-274.5" font-family="Helvetica,sans-Serif" font-size="10.00" fill="#000000">+ unitHeight</text>
<text text-anchor="start" x="8" y="-263.5" font-family="Helvetica,sans-Serif" font-size="10.00" fill="#000000">+ scale</text>
<polyline fill="none" stroke="#000000" points="0,-256.5 135,-256.5 "/>
<text text-anchor="middle" x="67.5" y="-244.5" font-family="Helvetica,sans-Serif" font-size="10.00" fill="#000000"> </text>
</a>
</g>
</g>
<!-- Node2&#45;&gt;Node1 -->
<g id="edge1" class="edge">
<title>Node2&#45;&gt;Node1</title>
<path fill="none" stroke="#404040" d="M78.2578,-237.4803C80.31,-227.4741 82.7095,-217.436 85.5,-208 86.1708,-205.7316 86.8752,-203.4482 87.6089,-201.1555"/>
<polygon fill="none" stroke="#404040" points="87.6593,-201.0062 85.7919,-194.0411 91.503,-189.6385 93.3704,-196.6036 87.6593,-201.0062"/>
<text text-anchor="middle" x="133" y="-211" font-family="Helvetica,sans-Serif" font-size="10.00" fill="#000000"> &#45;fianlDetectionResult</text>
</g>
<!-- Node3 -->
<g id="node3" class="node">
<title>Node3</title>
<g id="a_node3"><a xlink:href="struct_find_corners_result.html" target="_top" xlink:title="Structure that contains the result of corner detection. ">
<polygon fill="#ffffff" stroke="#000000" points="153.5,-276 153.5,-355 251.5,-355 251.5,-276 153.5,-276"/>
<text text-anchor="middle" x="202.5" y="-343" font-family="Helvetica,sans-Serif" font-size="10.00" fill="#000000">FindCornersResult</text>
<polyline fill="none" stroke="#000000" points="153.5,-336 251.5,-336 "/>
<text text-anchor="start" x="161.5" y="-324" font-family="Helvetica,sans-Serif" font-size="10.00" fill="#000000">+ success</text>
<text text-anchor="start" x="161.5" y="-313" font-family="Helvetica,sans-Serif" font-size="10.00" fill="#000000">+ corners</text>
<text text-anchor="start" x="161.5" y="-302" font-family="Helvetica,sans-Serif" font-size="10.00" fill="#000000">+ image</text>
<polyline fill="none" stroke="#000000" points="153.5,-295 251.5,-295 "/>
<text text-anchor="middle" x="202.5" y="-283" font-family="Helvetica,sans-Serif" font-size="10.00" fill="#000000"> </text>
</a>
</g>
</g>
<!-- Node3&#45;&gt;Node1 -->
<g id="edge2" class="edge">
<title>Node3&#45;&gt;Node1</title>
<path fill="none" stroke="#404040" d="M196.1754,-275.7493C192.4652,-255.2823 187.1847,-230.0599 180.5,-208 179.8205,-205.7575 179.1138,-203.4978 178.3835,-201.2266"/>
<polygon fill="none" stroke="#404040" points="178.3674,-201.1783 172.6676,-196.7611 174.5528,-189.8008 180.2526,-194.218 178.3674,-201.1783"/>
<text text-anchor="middle" x="218.5" y="-211" font-family="Helvetica,sans-Serif" font-size="10.00" fill="#000000"> &#45;originalCorners</text>
</g>
</g>
</svg>
