<?xml version="1.0" encoding="UTF-8" standalone="no"?>
<!DOCTYPE svg PUBLIC "-//W3C//DTD SVG 1.1//EN"
 "http://www.w3.org/Graphics/SVG/1.1/DTD/svg11.dtd">
<!-- Generated by graphviz version 2.40.1 (20161225.0304)
 -->
<!-- Title: QrcodeScanner Pages: 1 -->
<svg width="200pt" height="409pt"
 viewBox="0.00 0.00 200.00 409.00" xmlns="http://www.w3.org/2000/svg" xmlns:xlink="http://www.w3.org/1999/xlink">
<g id="graph0" class="graph" transform="scale(1 1) rotate(0) translate(4 405)">
<title>QrcodeScanner</title>
<polygon fill="#ffffff" stroke="transparent" points="-4,4 -4,-405 196,-405 196,4 -4,4"/>
<!-- Node2 -->
<g id="node1" class="node">
<title>Node2</title>
<polygon fill="#bfbfbf" stroke="#000000" points="5,-.5 5,-79.5 110,-79.5 110,-.5 5,-.5"/>
<text text-anchor="middle" x="57.5" y="-67.5" font-family="Helvetica,sans-Serif" font-size="10.00" fill="#000000">QrcodeScanner</text>
<polyline fill="none" stroke="#000000" points="5,-60.5 110,-60.5 "/>
<text text-anchor="middle" x="57.5" y="-48.5" font-family="Helvetica,sans-Serif" font-size="10.00" fill="#000000"> </text>
<polyline fill="none" stroke="#000000" points="5,-41.5 110,-41.5 "/>
<text text-anchor="start" x="13" y="-29.5" font-family="Helvetica,sans-Serif" font-size="10.00" fill="#000000">+ QrcodeScanner()</text>
<text text-anchor="start" x="13" y="-18.5" font-family="Helvetica,sans-Serif" font-size="10.00" fill="#000000">+ ~QrcodeScanner()</text>
<text text-anchor="start" x="13" y="-7.5" font-family="Helvetica,sans-Serif" font-size="10.00" fill="#000000">+ getQrCode()</text>
</g>
<!-- Node3 -->
<g id="node2" class="node">
<title>Node3</title>
<g id="a_node2"><a xlink:href="class_code_scanner.html" target="_top" xlink:title="Class that contains the precedures of finding the position of code and decoding the code...">
<polygon fill="#ffffff" stroke="#000000" points="95,-117.5 95,-207.5 192,-207.5 192,-117.5 95,-117.5"/>
<text text-anchor="middle" x="143.5" y="-195.5" font-family="Helvetica,sans-Serif" font-size="10.00" fill="#000000">CodeScanner</text>
<polyline fill="none" stroke="#000000" points="95,-188.5 192,-188.5 "/>
<text text-anchor="middle" x="143.5" y="-176.5" font-family="Helvetica,sans-Serif" font-size="10.00" fill="#000000"> </text>
<polyline fill="none" stroke="#000000" points="95,-169.5 192,-169.5 "/>
<text text-anchor="start" x="103" y="-157.5" font-family="Helvetica,sans-Serif" font-size="10.00" fill="#000000">+ CodeScanner()</text>
<text text-anchor="start" x="103" y="-146.5" font-family="Helvetica,sans-Serif" font-size="10.00" fill="#000000">+ ~CodeScanner()</text>
<text text-anchor="start" x="103" y="-135.5" font-family="Helvetica,sans-Serif" font-size="10.00" fill="#000000">+ getCodeInfo()</text>
<text text-anchor="start" x="103" y="-124.5" font-family="Helvetica,sans-Serif" font-size="10.00" fill="#000000">+ decode()</text>
</a>
</g>
</g>
<!-- Node3&#45;&gt;Node2 -->
<g id="edge1" class="edge">
<title>Node3&#45;&gt;Node2</title>
<path fill="none" stroke="#191970" d="M105.7854,-108.7787C98.9581,-99.0536 91.9502,-89.0715 85.4644,-79.8331"/>
<polygon fill="none" stroke="#191970" points="103.1107,-111.0601 111.7211,-117.2336 108.8398,-107.038 103.1107,-111.0601"/>
</g>
<!-- Node4 -->
<g id="node3" class="node">
<title>Node4</title>
<g id="a_node3"><a xlink:href="struct_code_info.html" target="_top" xlink:title="Structure that contains the related information of the code. ">
<polygon fill="#ffffff" stroke="#000000" points="0,-255.5 0,-400.5 75,-400.5 75,-255.5 0,-255.5"/>
<text text-anchor="middle" x="37.5" y="-388.5" font-family="Helvetica,sans-Serif" font-size="10.00" fill="#000000">CodeInfo</text>
<polyline fill="none" stroke="#000000" points="0,-381.5 75,-381.5 "/>
<text text-anchor="start" x="8" y="-369.5" font-family="Helvetica,sans-Serif" font-size="10.00" fill="#000000">+ originX</text>
<text text-anchor="start" x="8" y="-358.5" font-family="Helvetica,sans-Serif" font-size="10.00" fill="#000000">+ endX</text>
<text text-anchor="start" x="8" y="-347.5" font-family="Helvetica,sans-Serif" font-size="10.00" fill="#000000">+ originY</text>
<text text-anchor="start" x="8" y="-336.5" font-family="Helvetica,sans-Serif" font-size="10.00" fill="#000000">+ endY</text>
<text text-anchor="start" x="8" y="-325.5" font-family="Helvetica,sans-Serif" font-size="10.00" fill="#000000">+ codeWidth</text>
<text text-anchor="start" x="8" y="-314.5" font-family="Helvetica,sans-Serif" font-size="10.00" fill="#000000">+ codeHeight</text>
<text text-anchor="start" x="8" y="-303.5" font-family="Helvetica,sans-Serif" font-size="10.00" fill="#000000">+ codeType</text>
<text text-anchor="start" x="8" y="-292.5" font-family="Helvetica,sans-Serif" font-size="10.00" fill="#000000">+ codeData</text>
<text text-anchor="start" x="8" y="-281.5" font-family="Helvetica,sans-Serif" font-size="10.00" fill="#000000">+ code</text>
<polyline fill="none" stroke="#000000" points="0,-274.5 75,-274.5 "/>
<text text-anchor="middle" x="37.5" y="-262.5" font-family="Helvetica,sans-Serif" font-size="10.00" fill="#000000"> </text>
</a>
</g>
</g>
<!-- Node4&#45;&gt;Node2 -->
<g id="edge3" class="edge">
<title>Node4&#45;&gt;Node2</title>
<path fill="none" stroke="#404040" d="M28.6391,-255.2769C25.3515,-214.3906 24.0149,-162.5642 31.5,-117 32.8836,-108.5777 35.065,-99.8363 37.59,-91.3969"/>
<polygon fill="none" stroke="#404040" points="37.6676,-91.1555 35.6965,-84.219 41.3412,-79.7316 43.3124,-86.6681 37.6676,-91.1555"/>
<text text-anchor="middle" x="59" y="-160" font-family="Helvetica,sans-Serif" font-size="10.00" fill="#000000"> &#45;qrCodeInfo</text>
</g>
<!-- Node4&#45;&gt;Node3 -->
<g id="edge2" class="edge">
<title>Node4&#45;&gt;Node3</title>
<path fill="none" stroke="#404040" d="M75.1701,-269.1849C85.8116,-252.5701 97.3552,-234.5469 107.8726,-218.1258"/>
<polygon fill="none" stroke="#404040" points="108.1439,-217.7022 108.0116,-210.4923 114.616,-207.5972 114.7483,-214.8071 108.1439,-217.7022"/>
<text text-anchor="middle" x="123" y="-229" font-family="Helvetica,sans-Serif" font-size="10.00" fill="#000000"> +codeInfo</text>
</g>
</g>
</svg>
