<?xml version="1.0" encoding="UTF-8" standalone="no"?>
<!DOCTYPE svg PUBLIC "-//W3C//DTD SVG 1.1//EN"
 "http://www.w3.org/Graphics/SVG/1.1/DTD/svg11.dtd">
<!-- Generated by graphviz version 2.40.1 (20161225.0304)
 -->
<!-- Title: BarcodeScanner Pages: 1 -->
<svg width="118pt" height="215pt"
 viewBox="0.00 0.00 118.00 215.00" xmlns="http://www.w3.org/2000/svg" xmlns:xlink="http://www.w3.org/1999/xlink">
<g id="graph0" class="graph" transform="scale(1 1) rotate(0) translate(4 211)">
<title>BarcodeScanner</title>
<polygon fill="#ffffff" stroke="transparent" points="-4,4 -4,-211 114,-211 114,4 -4,4"/>
<!-- Node0 -->
<g id="node1" class="node">
<title>Node0</title>
<polygon fill="#bfbfbf" stroke="#000000" points="0,-.5 0,-79.5 110,-79.5 110,-.5 0,-.5"/>
<text text-anchor="middle" x="55" y="-67.5" font-family="Helvetica,sans-Serif" font-size="10.00" fill="#000000">BarcodeScanner</text>
<polyline fill="none" stroke="#000000" points="0,-60.5 110,-60.5 "/>
<text text-anchor="start" x="8" y="-48.5" font-family="Helvetica,sans-Serif" font-size="10.00" fill="#000000">&#45; barCodeInfo</text>
<polyline fill="none" stroke="#000000" points="0,-41.5 110,-41.5 "/>
<text text-anchor="start" x="8" y="-29.5" font-family="Helvetica,sans-Serif" font-size="10.00" fill="#000000">+ BarcodeScanner()</text>
<text text-anchor="start" x="8" y="-18.5" font-family="Helvetica,sans-Serif" font-size="10.00" fill="#000000">+ ~BarcodeScanner()</text>
<text text-anchor="start" x="8" y="-7.5" font-family="Helvetica,sans-Serif" font-size="10.00" fill="#000000">+ getBarCode()</text>
</g>
<!-- Node1 -->
<g id="node2" class="node">
<title>Node1</title>
<g id="a_node2"><a xlink:href="class_code_scanner.html" target="_top" target="_top" xlink:title="Class that contains the precedures of finding the position of code and decoding the code...">
<polygon fill="#ffffff" stroke="#000000" points="6.5,-116.5 6.5,-206.5 103.5,-206.5 103.5,-116.5 6.5,-116.5"/>
<text text-anchor="middle" x="55" y="-194.5" font-family="Helvetica,sans-Serif" font-size="10.00" fill="#000000">CodeScanner</text>
<polyline fill="none" stroke="#000000" points="6.5,-187.5 103.5,-187.5 "/>
<text text-anchor="start" x="14.5" y="-175.5" font-family="Helvetica,sans-Serif" font-size="10.00" fill="#000000">+ codeInfo</text>
<polyline fill="none" stroke="#000000" points="6.5,-168.5 103.5,-168.5 "/>
<text text-anchor="start" x="14.5" y="-156.5" font-family="Helvetica,sans-Serif" font-size="10.00" fill="#000000">+ CodeScanner()</text>
<text text-anchor="start" x="14.5" y="-145.5" font-family="Helvetica,sans-Serif" font-size="10.00" fill="#000000">+ ~CodeScanner()</text>
<text text-anchor="start" x="14.5" y="-134.5" font-family="Helvetica,sans-Serif" font-size="10.00" fill="#000000">+ getCodeInfo()</text>
<text text-anchor="start" x="14.5" y="-123.5" font-family="Helvetica,sans-Serif" font-size="10.00" fill="#000000">+ decode()</text>
</a>
</g>
</g>
<!-- Node1&#45;&gt;Node0 -->
<g id="edge1" class="edge">
<title>Node1&#45;&gt;Node0</title>
<path fill="none" stroke="#191970" d="M55,-106.254C55,-97.2956 55,-88.1763 55,-79.6838"/>
<polygon fill="none" stroke="#191970" points="51.5001,-106.2578 55,-116.2579 58.5001,-106.2579 51.5001,-106.2578"/>
</g>
</g>
</svg>
