<?xml version="1.0" encoding="UTF-8" standalone="no"?>
<!DOCTYPE svg PUBLIC "-//W3C//DTD SVG 1.1//EN"
 "http://www.w3.org/Graphics/SVG/1.1/DTD/svg11.dtd">
<!-- Generated by graphviz version 2.40.1 (20161225.0304)
 -->
<!-- Title: QrcodeScanner Pages: 1 -->
<svg width="113pt" height="215pt"
 viewBox="0.00 0.00 113.00 215.00" xmlns="http://www.w3.org/2000/svg" xmlns:xlink="http://www.w3.org/1999/xlink">
<g id="graph0" class="graph" transform="scale(1 1) rotate(0) translate(4 211)">
<title>QrcodeScanner</title>
<polygon fill="#ffffff" stroke="transparent" points="-4,4 -4,-211 109,-211 109,4 -4,4"/>
<!-- Node0 -->
<g id="node1" class="node">
<title>Node0</title>
<polygon fill="#bfbfbf" stroke="#000000" points="0,-.5 0,-79.5 105,-79.5 105,-.5 0,-.5"/>
<text text-anchor="middle" x="52.5" y="-67.5" font-family="Helvetica,sans-Serif" font-size="10.00" fill="#000000">QrcodeScanner</text>
<polyline fill="none" stroke="#000000" points="0,-60.5 105,-60.5 "/>
<text text-anchor="start" x="8" y="-48.5" font-family="Helvetica,sans-Serif" font-size="10.00" fill="#000000">&#45; qrCodeInfo</text>
<polyline fill="none" stroke="#000000" points="0,-41.5 105,-41.5 "/>
<text text-anchor="start" x="8" y="-29.5" font-family="Helvetica,sans-Serif" font-size="10.00" fill="#000000">+ QrcodeScanner()</text>
<text text-anchor="start" x="8" y="-18.5" font-family="Helvetica,sans-Serif" font-size="10.00" fill="#000000">+ ~QrcodeScanner()</text>
<text text-anchor="start" x="8" y="-7.5" font-family="Helvetica,sans-Serif" font-size="10.00" fill="#000000">+ getQrCode()</text>
</g>
<!-- Node1 -->
<g id="node2" class="node">
<title>Node1</title>
<g id="a_node2"><a xlink:href="class_code_scanner.html" target="_top" xlink:title="Class that contains the precedures of finding the position of code and decoding the code...">
<polygon fill="#ffffff" stroke="#000000" points="4,-116.5 4,-206.5 101,-206.5 101,-116.5 4,-116.5"/>
<text text-anchor="middle" x="52.5" y="-194.5" font-family="Helvetica,sans-Serif" font-size="10.00" fill="#000000">CodeScanner</text>
<polyline fill="none" stroke="#000000" points="4,-187.5 101,-187.5 "/>
<text text-anchor="start" x="12" y="-175.5" font-family="Helvetica,sans-Serif" font-size="10.00" fill="#000000">+ codeInfo</text>
<polyline fill="none" stroke="#000000" points="4,-168.5 101,-168.5 "/>
<text text-anchor="start" x="12" y="-156.5" font-family="Helvetica,sans-Serif" font-size="10.00" fill="#000000">+ CodeScanner()</text>
<text text-anchor="start" x="12" y="-145.5" font-family="Helvetica,sans-Serif" font-size="10.00" fill="#000000">+ ~CodeScanner()</text>
<text text-anchor="start" x="12" y="-134.5" font-family="Helvetica,sans-Serif" font-size="10.00" fill="#000000">+ getCodeInfo()</text>
<text text-anchor="start" x="12" y="-123.5" font-family="Helvetica,sans-Serif" font-size="10.00" fill="#000000">+ decode()</text>
</a>
</g>
</g>
<!-- Node1&#45;&gt;Node0 -->
<g id="edge1" class="edge">
<title>Node1&#45;&gt;Node0</title>
<path fill="none" stroke="#191970" d="M52.5,-106.254C52.5,-97.2956 52.5,-88.1763 52.5,-79.6838"/>
<polygon fill="none" stroke="#191970" points="49.0001,-106.2578 52.5,-116.2579 56.0001,-106.2579 49.0001,-106.2578"/>
</g>
</g>
</svg>
