<?xml version="1.0" encoding="UTF-8" standalone="no"?>
<!DOCTYPE svg PUBLIC "-//W3C//DTD SVG 1.1//EN"
 "http://www.w3.org/Graphics/SVG/1.1/DTD/svg11.dtd">
<!-- Generated by graphviz version 2.40.1 (20161225.0304)
 -->
<!-- Title: /home/bdn_jz/bdn_jz/camera&#45;tracker&#45;cpp/CameraTrackerLinux/include/constants.h Pages: 1 -->
<svg width="350pt" height="328pt"
 viewBox="0.00 0.00 350.00 328.00" xmlns="http://www.w3.org/2000/svg" xmlns:xlink="http://www.w3.org/1999/xlink">
<g id="graph0" class="graph" transform="scale(1 1) rotate(0) translate(4 324)">
<title>/home/bdn_jz/bdn_jz/camera&#45;tracker&#45;cpp/CameraTrackerLinux/include/constants.h</title>
<polygon fill="#ffffff" stroke="transparent" points="-4,4 -4,-324 346,-324 346,4 -4,4"/>
<!-- Node2 -->
<g id="node1" class="node">
<title>Node2</title>
<polygon fill="#bfbfbf" stroke="#000000" points="185.5,-267.5 185.5,-319.5 329.5,-319.5 329.5,-267.5 185.5,-267.5"/>
<text text-anchor="start" x="193.5" y="-307.5" font-family="Helvetica,sans-Serif" font-size="10.00" fill="#000000">/home/bdn_jz/bdn_jz</text>
<text text-anchor="start" x="193.5" y="-296.5" font-family="Helvetica,sans-Serif" font-size="10.00" fill="#000000">/camera&#45;tracker&#45;cpp</text>
<text text-anchor="start" x="193.5" y="-285.5" font-family="Helvetica,sans-Serif" font-size="10.00" fill="#000000">/CameraTrackerLinux/include</text>
<text text-anchor="middle" x="257.5" y="-274.5" font-family="Helvetica,sans-Serif" font-size="10.00" fill="#000000">/constants.h</text>
</g>
<!-- Node3 -->
<g id="node2" class="node">
<title>Node3</title>
<g id="a_node2"><a xlink:href="_generic_camera_8h.html" target="_top" target="_top" xlink:title="Header of the camera base class. ">
<polygon fill="#ffffff" stroke="#000000" points="85.5,-178.5 85.5,-230.5 229.5,-230.5 229.5,-178.5 85.5,-178.5"/>
<text text-anchor="start" x="93.5" y="-218.5" font-family="Helvetica,sans-Serif" font-size="10.00" fill="#000000">/home/bdn_jz/bdn_jz</text>
<text text-anchor="start" x="93.5" y="-207.5" font-family="Helvetica,sans-Serif" font-size="10.00" fill="#000000">/camera&#45;tracker&#45;cpp</text>
<text text-anchor="start" x="93.5" y="-196.5" font-family="Helvetica,sans-Serif" font-size="10.00" fill="#000000">/CameraTrackerLinux/include</text>
<text text-anchor="middle" x="157.5" y="-185.5" font-family="Helvetica,sans-Serif" font-size="10.00" fill="#000000">/GenericCamera.h</text>
</a>
</g>
</g>
<!-- Node2&#45;&gt;Node3 -->
<g id="edge1" class="edge">
<title>Node2&#45;&gt;Node3</title>
<path fill="none" stroke="#191970" d="M220.5062,-260.5755C209.3711,-250.6653 197.3111,-239.9319 186.7519,-230.5341"/>
<polygon fill="#191970" stroke="#191970" points="218.2407,-263.2446 228.0376,-267.2784 222.8945,-258.0156 218.2407,-263.2446"/>
</g>
<!-- Node6 -->
<g id="node5" class="node">
<title>Node6</title>
<g id="a_node5"><a xlink:href="_basler_gig_e_camera_8cpp.html" target="_top" target="_top" xlink:title="Body file for the Basler GigE Camera class. ">
<polygon fill="#ffffff" stroke="#000000" points="215,-.5 215,-52.5 342,-52.5 342,-.5 215,-.5"/>
<text text-anchor="start" x="223" y="-40.5" font-family="Helvetica,sans-Serif" font-size="10.00" fill="#000000">/home/bdn_jz/bdn_jz</text>
<text text-anchor="start" x="223" y="-29.5" font-family="Helvetica,sans-Serif" font-size="10.00" fill="#000000">/camera&#45;tracker&#45;cpp</text>
<text text-anchor="start" x="223" y="-18.5" font-family="Helvetica,sans-Serif" font-size="10.00" fill="#000000">/CameraTrackerLinux/src</text>
<text text-anchor="middle" x="278.5" y="-7.5" font-family="Helvetica,sans-Serif" font-size="10.00" fill="#000000">/BaslerGigECamera.cpp</text>
</a>
</g>
</g>
<!-- Node2&#45;&gt;Node6 -->
<g id="edge6" class="edge">
<title>Node2&#45;&gt;Node6</title>
<path fill="none" stroke="#191970" d="M274.4483,-258.249C291.8868,-217.6041 314.9996,-148.7127 303.5,-89 301.1132,-76.6063 296.2908,-63.5461 291.5126,-52.5876"/>
<polygon fill="#191970" stroke="#191970" points="271.2186,-256.8985 270.3843,-267.4605 277.6231,-259.7241 271.2186,-256.8985"/>
</g>
<!-- Node7 -->
<g id="node6" class="node">
<title>Node7</title>
<g id="a_node6"><a xlink:href="_generic_camera_8cpp.html" target="_top" target="_top" xlink:title="Boday of the camera base class. ">
<polygon fill="#ffffff" stroke="#000000" points="167,-89.5 167,-141.5 294,-141.5 294,-89.5 167,-89.5"/>
<text text-anchor="start" x="175" y="-129.5" font-family="Helvetica,sans-Serif" font-size="10.00" fill="#000000">/home/bdn_jz/bdn_jz</text>
<text text-anchor="start" x="175" y="-118.5" font-family="Helvetica,sans-Serif" font-size="10.00" fill="#000000">/camera&#45;tracker&#45;cpp</text>
<text text-anchor="start" x="175" y="-107.5" font-family="Helvetica,sans-Serif" font-size="10.00" fill="#000000">/CameraTrackerLinux/src</text>
<text text-anchor="middle" x="230.5" y="-96.5" font-family="Helvetica,sans-Serif" font-size="10.00" fill="#000000">/GenericCamera.cpp</text>
</a>
</g>
</g>
<!-- Node2&#45;&gt;Node7 -->
<g id="edge7" class="edge">
<title>Node2&#45;&gt;Node7</title>
<path fill="none" stroke="#191970" d="M251.9844,-257.1378C246.7729,-222.7809 239.0837,-172.0886 234.4563,-141.5823"/>
<polygon fill="#191970" stroke="#191970" points="248.5559,-257.8735 253.5161,-267.2355 255.4767,-256.8237 248.5559,-257.8735"/>
</g>
<!-- Node4 -->
<g id="node3" class="node">
<title>Node4</title>
<g id="a_node3"><a xlink:href="_basler_gig_e_camera_8h.html" target="_top" target="_top" xlink:title="Header file for the Basler GigE Camera class. ">
<polygon fill="#ffffff" stroke="#000000" points="4.5,-89.5 4.5,-141.5 148.5,-141.5 148.5,-89.5 4.5,-89.5"/>
<text text-anchor="start" x="12.5" y="-129.5" font-family="Helvetica,sans-Serif" font-size="10.00" fill="#000000">/home/bdn_jz/bdn_jz</text>
<text text-anchor="start" x="12.5" y="-118.5" font-family="Helvetica,sans-Serif" font-size="10.00" fill="#000000">/camera&#45;tracker&#45;cpp</text>
<text text-anchor="start" x="12.5" y="-107.5" font-family="Helvetica,sans-Serif" font-size="10.00" fill="#000000">/CameraTrackerLinux/include</text>
<text text-anchor="middle" x="76.5" y="-96.5" font-family="Helvetica,sans-Serif" font-size="10.00" fill="#000000">/BaslerGigECamera.h</text>
</a>
</g>
</g>
<!-- Node3&#45;&gt;Node4 -->
<g id="edge2" class="edge">
<title>Node3&#45;&gt;Node4</title>
<path fill="none" stroke="#191970" d="M126.7527,-170.7159C117.953,-161.0472 108.5003,-150.6608 100.194,-141.5341"/>
<polygon fill="#191970" stroke="#191970" points="124.3161,-173.2386 133.6354,-178.2784 129.493,-168.527 124.3161,-173.2386"/>
</g>
<!-- Node3&#45;&gt;Node7 -->
<g id="edge5" class="edge">
<title>Node3&#45;&gt;Node7</title>
<path fill="none" stroke="#191970" d="M185.4463,-170.4285C193.3097,-160.8416 201.7344,-150.5704 209.1461,-141.5341"/>
<polygon fill="#191970" stroke="#191970" points="182.6433,-168.3269 179.0076,-178.2784 188.0556,-172.7662 182.6433,-168.3269"/>
</g>
<!-- Node5 -->
<g id="node4" class="node">
<title>Node5</title>
<g id="a_node4"><a xlink:href="main_8cpp.html" target="_top" target="_top" xlink:title="/home/bdn_jz/bdn_jz\l/camera&#45;tracker&#45;cpp\l/CameraTrackerLinux/main.cpp">
<polygon fill="#ffffff" stroke="#000000" points="0,-6 0,-47 153,-47 153,-6 0,-6"/>
<text text-anchor="start" x="8" y="-35" font-family="Helvetica,sans-Serif" font-size="10.00" fill="#000000">/home/bdn_jz/bdn_jz</text>
<text text-anchor="start" x="8" y="-24" font-family="Helvetica,sans-Serif" font-size="10.00" fill="#000000">/camera&#45;tracker&#45;cpp</text>
<text text-anchor="middle" x="76.5" y="-13" font-family="Helvetica,sans-Serif" font-size="10.00" fill="#000000">/CameraTrackerLinux/main.cpp</text>
</a>
</g>
</g>
<!-- Node4&#45;&gt;Node5 -->
<g id="edge3" class="edge">
<title>Node4&#45;&gt;Node5</title>
<path fill="none" stroke="#191970" d="M76.5,-79.1335C76.5,-68.2443 76.5,-56.6825 76.5,-47.1771"/>
<polygon fill="#191970" stroke="#191970" points="73.0001,-79.2784 76.5,-89.2784 80.0001,-79.2785 73.0001,-79.2784"/>
</g>
<!-- Node4&#45;&gt;Node6 -->
<g id="edge4" class="edge">
<title>Node4&#45;&gt;Node6</title>
<path fill="none" stroke="#191970" d="M145.1656,-85.2464C169.2303,-74.6436 196.0328,-62.8346 219.2593,-52.6011"/>
<polygon fill="#191970" stroke="#191970" points="143.4817,-82.1635 135.7418,-89.3984 146.3041,-88.5693 143.4817,-82.1635"/>
</g>
</g>
</svg>
