<?xml version="1.0" encoding="UTF-8" standalone="no"?>
<!DOCTYPE svg PUBLIC "-//W3C//DTD SVG 1.1//EN"
 "http://www.w3.org/Graphics/SVG/1.1/DTD/svg11.dtd">
<!-- Generated by graphviz version 2.40.1 (20161225.0304)
 -->
<!-- Title: /home/bdn_jz/bdn_jz/camera&#45;tracker&#45;cpp/CameraTrackerLinux/include/constants.h Pages: 1 -->
<svg width="448pt" height="417pt"
 viewBox="0.00 0.00 448.00 417.00" xmlns="http://www.w3.org/2000/svg" xmlns:xlink="http://www.w3.org/1999/xlink">
<g id="graph0" class="graph" transform="scale(1 1) rotate(0) translate(4 413)">
<title>/home/bdn_jz/bdn_jz/camera&#45;tracker&#45;cpp/CameraTrackerLinux/include/constants.h</title>
<polygon fill="#ffffff" stroke="transparent" points="-4,4 -4,-413 444,-413 444,4 -4,4"/>
<!-- Node2 -->
<g id="node1" class="node">
<title>Node2</title>
<polygon fill="#bfbfbf" stroke="#000000" points="262.5,-356.5 262.5,-408.5 406.5,-408.5 406.5,-356.5 262.5,-356.5"/>
<text text-anchor="start" x="270.5" y="-396.5" font-family="Helvetica,sans-Serif" font-size="10.00" fill="#000000">/home/bdn_jz/bdn_jz</text>
<text text-anchor="start" x="270.5" y="-385.5" font-family="Helvetica,sans-Serif" font-size="10.00" fill="#000000">/camera&#45;tracker&#45;cpp</text>
<text text-anchor="start" x="270.5" y="-374.5" font-family="Helvetica,sans-Serif" font-size="10.00" fill="#000000">/CameraTrackerLinux/include</text>
<text text-anchor="middle" x="334.5" y="-363.5" font-family="Helvetica,sans-Serif" font-size="10.00" fill="#000000">/constants.h</text>
</g>
<!-- Node3 -->
<g id="node2" class="node">
<title>Node3</title>
<g id="a_node2"><a xlink:href="_generic_camera_8h.html" target="_top" xlink:title="Header of the camera base class. ">
<polygon fill="#ffffff" stroke="#000000" points="162.5,-267.5 162.5,-319.5 306.5,-319.5 306.5,-267.5 162.5,-267.5"/>
<text text-anchor="start" x="170.5" y="-307.5" font-family="Helvetica,sans-Serif" font-size="10.00" fill="#000000">/home/bdn_jz/bdn_jz</text>
<text text-anchor="start" x="170.5" y="-296.5" font-family="Helvetica,sans-Serif" font-size="10.00" fill="#000000">/camera&#45;tracker&#45;cpp</text>
<text text-anchor="start" x="170.5" y="-285.5" font-family="Helvetica,sans-Serif" font-size="10.00" fill="#000000">/CameraTrackerLinux/include</text>
<text text-anchor="middle" x="234.5" y="-274.5" font-family="Helvetica,sans-Serif" font-size="10.00" fill="#000000">/GenericCamera.h</text>
</a>
</g>
</g>
<!-- Node2&#45;&gt;Node3 -->
<g id="edge1" class="edge">
<title>Node2&#45;&gt;Node3</title>
<path fill="none" stroke="#191970" d="M297.5062,-349.5755C286.3711,-339.6653 274.3111,-328.9319 263.7519,-319.5341"/>
<polygon fill="#191970" stroke="#191970" points="295.2407,-352.2446 305.0376,-356.2784 299.8945,-347.0156 295.2407,-352.2446"/>
</g>
<!-- Node8 -->
<g id="node7" class="node">
<title>Node8</title>
<g id="a_node7"><a xlink:href="_basler_gig_e_camera_8cpp.html" target="_top" xlink:title="Body file for the Basler GigE Camera class. ">
<polygon fill="#ffffff" stroke="#000000" points="313,-89.5 313,-141.5 440,-141.5 440,-89.5 313,-89.5"/>
<text text-anchor="start" x="321" y="-129.5" font-family="Helvetica,sans-Serif" font-size="10.00" fill="#000000">/home/bdn_jz/bdn_jz</text>
<text text-anchor="start" x="321" y="-118.5" font-family="Helvetica,sans-Serif" font-size="10.00" fill="#000000">/camera&#45;tracker&#45;cpp</text>
<text text-anchor="start" x="321" y="-107.5" font-family="Helvetica,sans-Serif" font-size="10.00" fill="#000000">/CameraTrackerLinux/src</text>
<text text-anchor="middle" x="376.5" y="-96.5" font-family="Helvetica,sans-Serif" font-size="10.00" fill="#000000">/BaslerGigECamera.cpp</text>
</a>
</g>
</g>
<!-- Node2&#45;&gt;Node8 -->
<g id="edge9" class="edge">
<title>Node2&#45;&gt;Node8</title>
<path fill="none" stroke="#191970" d="M348.606,-346.8156C359.7733,-316.5421 374.4613,-271.6731 380.5,-231 383.9593,-207.6998 381.2526,-201.5435 380.5,-178 380.1179,-166.0459 379.3256,-152.8254 378.5462,-141.6339"/>
<polygon fill="#191970" stroke="#191970" points="345.21,-345.9034 344.9714,-356.4956 351.7633,-348.3641 345.21,-345.9034"/>
</g>
<!-- Node9 -->
<g id="node8" class="node">
<title>Node9</title>
<g id="a_node8"><a xlink:href="_generic_camera_8cpp.html" target="_top" xlink:title="Boday of the camera base class. ">
<polygon fill="#ffffff" stroke="#000000" points="244,-178.5 244,-230.5 371,-230.5 371,-178.5 244,-178.5"/>
<text text-anchor="start" x="252" y="-218.5" font-family="Helvetica,sans-Serif" font-size="10.00" fill="#000000">/home/bdn_jz/bdn_jz</text>
<text text-anchor="start" x="252" y="-207.5" font-family="Helvetica,sans-Serif" font-size="10.00" fill="#000000">/camera&#45;tracker&#45;cpp</text>
<text text-anchor="start" x="252" y="-196.5" font-family="Helvetica,sans-Serif" font-size="10.00" fill="#000000">/CameraTrackerLinux/src</text>
<text text-anchor="middle" x="307.5" y="-185.5" font-family="Helvetica,sans-Serif" font-size="10.00" fill="#000000">/GenericCamera.cpp</text>
</a>
</g>
</g>
<!-- Node2&#45;&gt;Node9 -->
<g id="edge10" class="edge">
<title>Node2&#45;&gt;Node9</title>
<path fill="none" stroke="#191970" d="M328.9844,-346.1378C323.7729,-311.7809 316.0837,-261.0886 311.4563,-230.5823"/>
<polygon fill="#191970" stroke="#191970" points="325.5559,-346.8735 330.5161,-356.2355 332.4767,-345.8237 325.5559,-346.8735"/>
</g>
<!-- Node4 -->
<g id="node3" class="node">
<title>Node4</title>
<g id="a_node3"><a xlink:href="_basler_gig_e_camera_8h.html" target="_top" xlink:title="Header file for the Basler GigE Camera class. ">
<polygon fill="#ffffff" stroke="#000000" points="81.5,-178.5 81.5,-230.5 225.5,-230.5 225.5,-178.5 81.5,-178.5"/>
<text text-anchor="start" x="89.5" y="-218.5" font-family="Helvetica,sans-Serif" font-size="10.00" fill="#000000">/home/bdn_jz/bdn_jz</text>
<text text-anchor="start" x="89.5" y="-207.5" font-family="Helvetica,sans-Serif" font-size="10.00" fill="#000000">/camera&#45;tracker&#45;cpp</text>
<text text-anchor="start" x="89.5" y="-196.5" font-family="Helvetica,sans-Serif" font-size="10.00" fill="#000000">/CameraTrackerLinux/include</text>
<text text-anchor="middle" x="153.5" y="-185.5" font-family="Helvetica,sans-Serif" font-size="10.00" fill="#000000">/BaslerGigECamera.h</text>
</a>
</g>
</g>
<!-- Node3&#45;&gt;Node4 -->
<g id="edge2" class="edge">
<title>Node3&#45;&gt;Node4</title>
<path fill="none" stroke="#191970" d="M203.7527,-259.7159C194.953,-250.0472 185.5003,-239.6608 177.194,-230.5341"/>
<polygon fill="#191970" stroke="#191970" points="201.3161,-262.2386 210.6354,-267.2784 206.493,-257.527 201.3161,-262.2386"/>
</g>
<!-- Node3&#45;&gt;Node9 -->
<g id="edge8" class="edge">
<title>Node3&#45;&gt;Node9</title>
<path fill="none" stroke="#191970" d="M262.4463,-259.4285C270.3097,-249.8416 278.7344,-239.5704 286.1461,-230.5341"/>
<polygon fill="#191970" stroke="#191970" points="259.6433,-257.3269 256.0076,-267.2784 265.0556,-261.7662 259.6433,-257.3269"/>
</g>
<!-- Node5 -->
<g id="node4" class="node">
<title>Node5</title>
<g id="a_node4"><a xlink:href="_tracker_8h.html" target="_top" xlink:title="This file contains declarations of the Tracker class. ">
<polygon fill="#ffffff" stroke="#000000" points="104.5,-89.5 104.5,-141.5 248.5,-141.5 248.5,-89.5 104.5,-89.5"/>
<text text-anchor="start" x="112.5" y="-129.5" font-family="Helvetica,sans-Serif" font-size="10.00" fill="#000000">/home/bdn_jz/bdn_jz</text>
<text text-anchor="start" x="112.5" y="-118.5" font-family="Helvetica,sans-Serif" font-size="10.00" fill="#000000">/camera&#45;tracker&#45;cpp</text>
<text text-anchor="start" x="112.5" y="-107.5" font-family="Helvetica,sans-Serif" font-size="10.00" fill="#000000">/CameraTrackerLinux/include</text>
<text text-anchor="middle" x="176.5" y="-96.5" font-family="Helvetica,sans-Serif" font-size="10.00" fill="#000000">/Tracker.h</text>
</a>
</g>
</g>
<!-- Node4&#45;&gt;Node5 -->
<g id="edge3" class="edge">
<title>Node4&#45;&gt;Node5</title>
<path fill="none" stroke="#191970" d="M162.8277,-168.4059C165.1526,-159.4097 167.6003,-149.9379 169.7721,-141.5341"/>
<polygon fill="#191970" stroke="#191970" points="159.3898,-167.7208 160.2764,-178.2784 166.1672,-169.4723 159.3898,-167.7208"/>
</g>
<!-- Node6 -->
<g id="node5" class="node">
<title>Node6</title>
<g id="a_node5"><a xlink:href="main_8cpp.html" target="_top" xlink:title="/home/bdn_jz/bdn_jz\l/camera&#45;tracker&#45;cpp\l/CameraTrackerLinux/main.cpp">
<polygon fill="#ffffff" stroke="#000000" points="0,-6 0,-47 153,-47 153,-6 0,-6"/>
<text text-anchor="start" x="8" y="-35" font-family="Helvetica,sans-Serif" font-size="10.00" fill="#000000">/home/bdn_jz/bdn_jz</text>
<text text-anchor="start" x="8" y="-24" font-family="Helvetica,sans-Serif" font-size="10.00" fill="#000000">/camera&#45;tracker&#45;cpp</text>
<text text-anchor="middle" x="76.5" y="-13" font-family="Helvetica,sans-Serif" font-size="10.00" fill="#000000">/CameraTrackerLinux/main.cpp</text>
</a>
</g>
</g>
<!-- Node4&#45;&gt;Node6 -->
<g id="edge6" class="edge">
<title>Node4&#45;&gt;Node6</title>
<path fill="none" stroke="#191970" d="M115.7751,-170.9487C107.9709,-162.251 100.5876,-152.3844 95.5,-142 80.4796,-111.3415 76.9908,-71.1806 76.3672,-47.1927"/>
<polygon fill="#191970" stroke="#191970" points="113.2837,-173.4081 122.6946,-178.2749 118.3727,-168.6017 113.2837,-173.4081"/>
</g>
<!-- Node4&#45;&gt;Node8 -->
<g id="edge7" class="edge">
<title>Node4&#45;&gt;Node8</title>
<path fill="none" stroke="#191970" d="M228.4158,-174.6009C255.7409,-163.6953 286.3628,-151.474 312.638,-140.9875"/>
<polygon fill="#191970" stroke="#191970" points="226.8909,-171.441 218.9006,-178.3984 229.4856,-177.9423 226.8909,-171.441"/>
</g>
<!-- Node5&#45;&gt;Node6 -->
<g id="edge4" class="edge">
<title>Node5&#45;&gt;Node6</title>
<path fill="none" stroke="#191970" d="M139.3953,-82.4768C126.1068,-70.6501 111.514,-57.6625 99.7327,-47.1771"/>
<polygon fill="#191970" stroke="#191970" points="137.2407,-85.2446 147.0376,-89.2784 141.8945,-80.0156 137.2407,-85.2446"/>
</g>
<!-- Node7 -->
<g id="node6" class="node">
<title>Node7</title>
<g id="a_node6"><a xlink:href="_tracker_8cpp.html" target="_top" xlink:title="/home/bdn_jz/bdn_jz\l/camera&#45;tracker&#45;cpp\l/CameraTrackerLinux/src\l/Tracker.cpp">
<polygon fill="#ffffff" stroke="#000000" points="171,-.5 171,-52.5 298,-52.5 298,-.5 171,-.5"/>
<text text-anchor="start" x="179" y="-40.5" font-family="Helvetica,sans-Serif" font-size="10.00" fill="#000000">/home/bdn_jz/bdn_jz</text>
<text text-anchor="start" x="179" y="-29.5" font-family="Helvetica,sans-Serif" font-size="10.00" fill="#000000">/camera&#45;tracker&#45;cpp</text>
<text text-anchor="start" x="179" y="-18.5" font-family="Helvetica,sans-Serif" font-size="10.00" fill="#000000">/CameraTrackerLinux/src</text>
<text text-anchor="middle" x="234.5" y="-7.5" font-family="Helvetica,sans-Serif" font-size="10.00" fill="#000000">/Tracker.cpp</text>
</a>
</g>
</g>
<!-- Node5&#45;&gt;Node7 -->
<g id="edge5" class="edge">
<title>Node5&#45;&gt;Node7</title>
<path fill="none" stroke="#191970" d="M199.0793,-80.8525C205.219,-71.4313 211.7629,-61.3897 217.5339,-52.5341"/>
<polygon fill="#191970" stroke="#191970" points="196.1158,-78.9895 193.5882,-89.2784 201.9804,-82.8114 196.1158,-78.9895"/>
</g>
</g>
</svg>
