<?xml version="1.0" encoding="UTF-8" standalone="no"?>
<!DOCTYPE svg PUBLIC "-//W3C//DTD SVG 1.1//EN"
 "http://www.w3.org/Graphics/SVG/1.1/DTD/svg11.dtd">
<!-- Generated by graphviz version 2.40.1 (20161225.0304)
 -->
<!-- Title: /home/bdn_jz/bdn_jz/camera&#45;tracker&#45;cpp/CameraTrackerLinux/include/nlohmann/detail/meta/cpp_future.hpp Pages: 1 -->
<!--zoomable 1017 -->
<svg id="main" version="1.1" xmlns="http://www.w3.org/2000/svg" xmlns:xlink="http://www.w3.org/1999/xlink" xml:space="preserve" onload="init(evt)">
<style type="text/css"><![CDATA[
.edge:hover path { stroke: red; }
.edge:hover polygon { stroke: red; fill: red; }
]]></style>
<script type="text/javascript"><![CDATA[
var edges = document.getElementsByTagName('g');
if (edges && edges.length) {
  for (var i=0;i<edges.length;i++) {
    if (edges[i].id.substr(0,4)=='edge') {
      edges[i].setAttribute('class','edge');
    }
  }
}
]]></script>
        <defs>
                <circle id="rim" cx="0" cy="0" r="7"/>
                <circle id="rim2" cx="0" cy="0" r="3.5"/>
                <g id="zoomPlus">
                        <use xlink:href="#rim" target="_top" fill="#404040">
                                <set attributeName="fill" to="#808080" begin="zoomplus.mouseover" end="zoomplus.mouseout"/>
                        </use>
                        <path d="M-4,0h8M0,-4v8" fill="none" stroke="white" stroke-width="1.5" pointer-events="none"/>
                </g>
                <g id="zoomMin">
                        <use xlink:href="#rim" target="_top" fill="#404040">
                                <set attributeName="fill" to="#808080" begin="zoomminus.mouseover" end="zoomminus.mouseout"/>
                        </use>
                        <path d="M-4,0h8" fill="none" stroke="white" stroke-width="1.5" pointer-events="none"/>
                </g>
                <g id="dirArrow">
                        <path fill="none" stroke="white" stroke-width="1.5" d="M0,-3.0v7 M-2.5,-0.5L0,-3.0L2.5,-0.5"/>
                </g>
               <g id="resetDef">
                       <use xlink:href="#rim2" target="_top" fill="#404040">
                               <set attributeName="fill" to="#808080" begin="reset.mouseover" end="reset.mouseout"/>
                       </use>
               </g>
        </defs>

<script type="text/javascript">
var viewWidth = 1133;
var viewHeight = 1017;
var sectionId = 'dynsection-1';
</script>
<script xlink:href="svgpan.js" target="_top"/>
<svg id="graph" class="graph">
<g id="viewport">
<title>/home/bdn_jz/bdn_jz/camera&#45;tracker&#45;cpp/CameraTrackerLinux/include/nlohmann/detail/meta/cpp_future.hpp</title>
<polygon fill="#ffffff" stroke="transparent" points="-4,4 -4,-1013 1129.4752,-1013 1129.4752,4 -4,4"/>
<!-- Node4 -->
<g id="node1" class="node">
<title>Node4</title>
<polygon fill="#bfbfbf" stroke="#000000" points="260,-945.5 260,-1008.5 404,-1008.5 404,-945.5 260,-945.5"/>
<text text-anchor="start" x="268" y="-996.5" font-family="Helvetica,sans-Serif" font-size="10.00" fill="#000000">/home/bdn_jz/bdn_jz</text>
<text text-anchor="start" x="268" y="-985.5" font-family="Helvetica,sans-Serif" font-size="10.00" fill="#000000">/camera&#45;tracker&#45;cpp</text>
<text text-anchor="start" x="268" y="-974.5" font-family="Helvetica,sans-Serif" font-size="10.00" fill="#000000">/CameraTrackerLinux/include</text>
<text text-anchor="start" x="268" y="-963.5" font-family="Helvetica,sans-Serif" font-size="10.00" fill="#000000">/nlohmann/detail/meta/cpp</text>
<text text-anchor="middle" x="332" y="-952.5" font-family="Helvetica,sans-Serif" font-size="10.00" fill="#000000">_future.hpp</text>
</g>
<!-- Node5 -->
<g id="node2" class="node">
<title>Node5</title>
<g id="a_node2"><a xlink:href="json_8hpp.html" target="_top" target="_top" xlink:title="/home/bdn_jz/bdn_jz\l/camera&#45;tracker&#45;cpp\l/CameraTrackerLinux/include\l/nlohmann/json.hpp">
<polygon fill="#ffffff" stroke="#000000" points="512,-267.5 512,-319.5 656,-319.5 656,-267.5 512,-267.5"/>
<text text-anchor="start" x="520" y="-307.5" font-family="Helvetica,sans-Serif" font-size="10.00" fill="#000000">/home/bdn_jz/bdn_jz</text>
<text text-anchor="start" x="520" y="-296.5" font-family="Helvetica,sans-Serif" font-size="10.00" fill="#000000">/camera&#45;tracker&#45;cpp</text>
<text text-anchor="start" x="520" y="-285.5" font-family="Helvetica,sans-Serif" font-size="10.00" fill="#000000">/CameraTrackerLinux/include</text>
<text text-anchor="middle" x="584" y="-274.5" font-family="Helvetica,sans-Serif" font-size="10.00" fill="#000000">/nlohmann/json.hpp</text>
</a>
</g>
</g>
<!-- Node4&#45;&gt;Node5 -->
<g id="edge1" class="edge">
<title>Node4&#45;&gt;Node5</title>
<path fill="none" stroke="#191970" d="M250.0291,-964.2924C151.7172,-943.8542 0,-893.4489 0,-777 0,-777 0,-777 0,-477 0,-387.8437 77.7751,-390.466 160,-356 222.017,-330.0045 407.8288,-309.5604 511.7073,-299.7876"/>
<polygon fill="#191970" stroke="#191970" points="249.4666,-967.7493 259.9609,-966.2936 250.8493,-960.8872 249.4666,-967.7493"/>
</g>
<!-- Node11 -->
<g id="node8" class="node">
<title>Node11</title>
<g id="a_node8"><a xlink:href="from__json_8hpp.html" target="_top" target="_top" xlink:title="/home/bdn_jz/bdn_jz\l/camera&#45;tracker&#45;cpp\l/CameraTrackerLinux/include\l/nlohmann/detail/conversions\l/from_json.hpp">
<polygon fill="#ffffff" stroke="#000000" points="28,-545.5 28,-608.5 172,-608.5 172,-545.5 28,-545.5"/>
<text text-anchor="start" x="36" y="-596.5" font-family="Helvetica,sans-Serif" font-size="10.00" fill="#000000">/home/bdn_jz/bdn_jz</text>
<text text-anchor="start" x="36" y="-585.5" font-family="Helvetica,sans-Serif" font-size="10.00" fill="#000000">/camera&#45;tracker&#45;cpp</text>
<text text-anchor="start" x="36" y="-574.5" font-family="Helvetica,sans-Serif" font-size="10.00" fill="#000000">/CameraTrackerLinux/include</text>
<text text-anchor="start" x="36" y="-563.5" font-family="Helvetica,sans-Serif" font-size="10.00" fill="#000000">/nlohmann/detail/conversions</text>
<text text-anchor="middle" x="100" y="-552.5" font-family="Helvetica,sans-Serif" font-size="10.00" fill="#000000">/from_json.hpp</text>
</a>
</g>
</g>
<!-- Node4&#45;&gt;Node11 -->
<g id="edge8" class="edge">
<title>Node4&#45;&gt;Node11</title>
<path fill="none" stroke="#191970" d="M296.4767,-937.4822C289.0049,-928.4055 281.4429,-918.5944 275,-909 205.0764,-804.8741 141.3605,-669.6199 114.0536,-608.9277"/>
<polygon fill="#191970" stroke="#191970" points="293.881,-939.8338 302.9893,-945.2458 299.2439,-935.335 293.881,-939.8338"/>
</g>
<!-- Node13 -->
<g id="node10" class="node">
<title>Node13</title>
<g id="a_node10"><a xlink:href="to__json_8hpp.html" target="_top" target="_top" xlink:title="/home/bdn_jz/bdn_jz\l/camera&#45;tracker&#45;cpp\l/CameraTrackerLinux/include\l/nlohmann/detail/conversions\l/to_json.hpp">
<polygon fill="#ffffff" stroke="#000000" points="190,-545.5 190,-608.5 334,-608.5 334,-545.5 190,-545.5"/>
<text text-anchor="start" x="198" y="-596.5" font-family="Helvetica,sans-Serif" font-size="10.00" fill="#000000">/home/bdn_jz/bdn_jz</text>
<text text-anchor="start" x="198" y="-585.5" font-family="Helvetica,sans-Serif" font-size="10.00" fill="#000000">/camera&#45;tracker&#45;cpp</text>
<text text-anchor="start" x="198" y="-574.5" font-family="Helvetica,sans-Serif" font-size="10.00" fill="#000000">/CameraTrackerLinux/include</text>
<text text-anchor="start" x="198" y="-563.5" font-family="Helvetica,sans-Serif" font-size="10.00" fill="#000000">/nlohmann/detail/conversions</text>
<text text-anchor="middle" x="262" y="-552.5" font-family="Helvetica,sans-Serif" font-size="10.00" fill="#000000">/to_json.hpp</text>
</a>
</g>
</g>
<!-- Node4&#45;&gt;Node13 -->
<g id="edge12" class="edge">
<title>Node4&#45;&gt;Node13</title>
<path fill="none" stroke="#191970" d="M313.8838,-935.7405C292.2321,-883.9719 257.2634,-791.9082 244,-709 239.5067,-680.9127 240.33,-673.2067 244,-645 245.5599,-633.011 248.6053,-620.1253 251.7539,-608.8293"/>
<polygon fill="#191970" stroke="#191970" points="310.7789,-937.385 317.8948,-945.2345 317.2271,-934.6607 310.7789,-937.385"/>
</g>
<!-- Node14 -->
<g id="node11" class="node">
<title>Node14</title>
<g id="a_node11"><a xlink:href="iter__impl_8hpp.html" target="_top" target="_top" xlink:title="/home/bdn_jz/bdn_jz\l/camera&#45;tracker&#45;cpp\l/CameraTrackerLinux/include\l/nlohmann/detail/iterators\l/iter_impl.hpp">
<polygon fill="#ffffff" stroke="#000000" points="722,-645.5 722,-708.5 866,-708.5 866,-645.5 722,-645.5"/>
<text text-anchor="start" x="730" y="-696.5" font-family="Helvetica,sans-Serif" font-size="10.00" fill="#000000">/home/bdn_jz/bdn_jz</text>
<text text-anchor="start" x="730" y="-685.5" font-family="Helvetica,sans-Serif" font-size="10.00" fill="#000000">/camera&#45;tracker&#45;cpp</text>
<text text-anchor="start" x="730" y="-674.5" font-family="Helvetica,sans-Serif" font-size="10.00" fill="#000000">/CameraTrackerLinux/include</text>
<text text-anchor="start" x="730" y="-663.5" font-family="Helvetica,sans-Serif" font-size="10.00" fill="#000000">/nlohmann/detail/iterators</text>
<text text-anchor="middle" x="794" y="-652.5" font-family="Helvetica,sans-Serif" font-size="10.00" fill="#000000">/iter_impl.hpp</text>
</a>
</g>
</g>
<!-- Node4&#45;&gt;Node14 -->
<g id="edge15" class="edge">
<title>Node4&#45;&gt;Node14</title>
<path fill="none" stroke="#191970" d="M414.0031,-960.0538C455.4176,-949.2854 505.3609,-932.8042 546,-909 639.6071,-854.1701 726.7712,-758.3066 768.3965,-708.7205"/>
<polygon fill="#191970" stroke="#191970" points="413.0498,-956.6847 404.2163,-962.5344 414.7697,-963.4701 413.0498,-956.6847"/>
</g>
<!-- Node15 -->
<g id="node12" class="node">
<title>Node15</title>
<g id="a_node12"><a xlink:href="iterator__traits_8hpp.html" target="_top" target="_top" xlink:title="/home/bdn_jz/bdn_jz\l/camera&#45;tracker&#45;cpp\l/CameraTrackerLinux/include\l/nlohmann/detail/iterators\l/iterator_traits.hpp">
<polygon fill="#ffffff" stroke="#000000" points="360,-845.5 360,-908.5 504,-908.5 504,-845.5 360,-845.5"/>
<text text-anchor="start" x="368" y="-896.5" font-family="Helvetica,sans-Serif" font-size="10.00" fill="#000000">/home/bdn_jz/bdn_jz</text>
<text text-anchor="start" x="368" y="-885.5" font-family="Helvetica,sans-Serif" font-size="10.00" fill="#000000">/camera&#45;tracker&#45;cpp</text>
<text text-anchor="start" x="368" y="-874.5" font-family="Helvetica,sans-Serif" font-size="10.00" fill="#000000">/CameraTrackerLinux/include</text>
<text text-anchor="start" x="368" y="-863.5" font-family="Helvetica,sans-Serif" font-size="10.00" fill="#000000">/nlohmann/detail/iterators</text>
<text text-anchor="middle" x="432" y="-852.5" font-family="Helvetica,sans-Serif" font-size="10.00" fill="#000000">/iterator_traits.hpp</text>
</a>
</g>
</g>
<!-- Node4&#45;&gt;Node15 -->
<g id="edge17" class="edge">
<title>Node4&#45;&gt;Node15</title>
<path fill="none" stroke="#191970" d="M370.9199,-938.0801C380.6221,-928.3779 390.9104,-918.0896 400.222,-908.778"/>
<polygon fill="#191970" stroke="#191970" points="368.2368,-935.8134 363.6406,-945.3594 373.1866,-940.7632 368.2368,-935.8134"/>
</g>
<!-- Node19 -->
<g id="node16" class="node">
<title>Node19</title>
<g id="a_node16"><a xlink:href="serializer_8hpp.html" target="_top" target="_top" xlink:title="/home/bdn_jz/bdn_jz\l/camera&#45;tracker&#45;cpp\l/CameraTrackerLinux/include\l/nlohmann/detail/output/serializer.hpp">
<polygon fill="#ffffff" stroke="#000000" points="584.5,-356.5 584.5,-408.5 763.5,-408.5 763.5,-356.5 584.5,-356.5"/>
<text text-anchor="start" x="592.5" y="-396.5" font-family="Helvetica,sans-Serif" font-size="10.00" fill="#000000">/home/bdn_jz/bdn_jz</text>
<text text-anchor="start" x="592.5" y="-385.5" font-family="Helvetica,sans-Serif" font-size="10.00" fill="#000000">/camera&#45;tracker&#45;cpp</text>
<text text-anchor="start" x="592.5" y="-374.5" font-family="Helvetica,sans-Serif" font-size="10.00" fill="#000000">/CameraTrackerLinux/include</text>
<text text-anchor="middle" x="674" y="-363.5" font-family="Helvetica,sans-Serif" font-size="10.00" fill="#000000">/nlohmann/detail/output/serializer.hpp</text>
</a>
</g>
</g>
<!-- Node4&#45;&gt;Node19 -->
<g id="edge45" class="edge">
<title>Node4&#45;&gt;Node19</title>
<path fill="none" stroke="#191970" d="M414.0662,-965.2597C449.7124,-955.9128 488.7749,-939.1299 513,-909 550.1397,-862.8077 532,-836.2713 532,-777 532,-777 532,-777 532,-577 532,-505.2975 595.7289,-442.3745 637.8,-408.6475"/>
<polygon fill="#191970" stroke="#191970" points="412.9941,-961.919 404.1179,-967.7038 414.6642,-968.7168 412.9941,-961.919"/>
</g>
<!-- Node22 -->
<g id="node19" class="node">
<title>Node22</title>
<g id="a_node19"><a xlink:href="type__traits_8hpp.html" target="_top" target="_top" xlink:title="/home/bdn_jz/bdn_jz\l/camera&#45;tracker&#45;cpp\l/CameraTrackerLinux/include\l/nlohmann/detail/meta/type\l_traits.hpp">
<polygon fill="#ffffff" stroke="#000000" points="360,-745.5 360,-808.5 504,-808.5 504,-745.5 360,-745.5"/>
<text text-anchor="start" x="368" y="-796.5" font-family="Helvetica,sans-Serif" font-size="10.00" fill="#000000">/home/bdn_jz/bdn_jz</text>
<text text-anchor="start" x="368" y="-785.5" font-family="Helvetica,sans-Serif" font-size="10.00" fill="#000000">/camera&#45;tracker&#45;cpp</text>
<text text-anchor="start" x="368" y="-774.5" font-family="Helvetica,sans-Serif" font-size="10.00" fill="#000000">/CameraTrackerLinux/include</text>
<text text-anchor="start" x="368" y="-763.5" font-family="Helvetica,sans-Serif" font-size="10.00" fill="#000000">/nlohmann/detail/meta/type</text>
<text text-anchor="middle" x="432" y="-752.5" font-family="Helvetica,sans-Serif" font-size="10.00" fill="#000000">_traits.hpp</text>
</a>
</g>
</g>
<!-- Node4&#45;&gt;Node22 -->
<g id="edge44" class="edge">
<title>Node4&#45;&gt;Node22</title>
<path fill="none" stroke="#191970" d="M330.5178,-935.3846C331.2791,-908.1086 335.6793,-872.5388 351,-845 358.766,-831.0408 370.6085,-818.7159 382.8599,-808.5267"/>
<polygon fill="#191970" stroke="#191970" points="327.018,-935.354 330.389,-945.3982 334.0174,-935.4441 327.018,-935.354"/>
</g>
<!-- Node6 -->
<g id="node3" class="node">
<title>Node6</title>
<g id="a_node3"><a xlink:href="_json_utilization_8h.html" target="_top" target="_top" xlink:title="This file contains the declaration of the namespace jsonUtilization. ">
<polygon fill="#ffffff" stroke="#000000" points="512,-178.5 512,-230.5 656,-230.5 656,-178.5 512,-178.5"/>
<text text-anchor="start" x="520" y="-218.5" font-family="Helvetica,sans-Serif" font-size="10.00" fill="#000000">/home/bdn_jz/bdn_jz</text>
<text text-anchor="start" x="520" y="-207.5" font-family="Helvetica,sans-Serif" font-size="10.00" fill="#000000">/camera&#45;tracker&#45;cpp</text>
<text text-anchor="start" x="520" y="-196.5" font-family="Helvetica,sans-Serif" font-size="10.00" fill="#000000">/CameraTrackerLinux/include</text>
<text text-anchor="middle" x="584" y="-185.5" font-family="Helvetica,sans-Serif" font-size="10.00" fill="#000000">/JsonUtilization.h</text>
</a>
</g>
</g>
<!-- Node5&#45;&gt;Node6 -->
<g id="edge2" class="edge">
<title>Node5&#45;&gt;Node6</title>
<path fill="none" stroke="#191970" d="M584,-257.1155C584,-248.2061 584,-238.8475 584,-230.5341"/>
<polygon fill="#191970" stroke="#191970" points="580.5001,-257.2784 584,-267.2784 587.5001,-257.2785 580.5001,-257.2784"/>
</g>
<!-- Node7 -->
<g id="node4" class="node">
<title>Node7</title>
<g id="a_node4"><a xlink:href="_pose_estimation_8h.html" target="_top" target="_top" xlink:title="This file contains the declaration of the PoseEstimation class. ">
<polygon fill="#ffffff" stroke="#000000" points="512,-89.5 512,-141.5 656,-141.5 656,-89.5 512,-89.5"/>
<text text-anchor="start" x="520" y="-129.5" font-family="Helvetica,sans-Serif" font-size="10.00" fill="#000000">/home/bdn_jz/bdn_jz</text>
<text text-anchor="start" x="520" y="-118.5" font-family="Helvetica,sans-Serif" font-size="10.00" fill="#000000">/camera&#45;tracker&#45;cpp</text>
<text text-anchor="start" x="520" y="-107.5" font-family="Helvetica,sans-Serif" font-size="10.00" fill="#000000">/CameraTrackerLinux/include</text>
<text text-anchor="middle" x="584" y="-96.5" font-family="Helvetica,sans-Serif" font-size="10.00" fill="#000000">/PoseEstimation.h</text>
</a>
</g>
</g>
<!-- Node6&#45;&gt;Node7 -->
<g id="edge3" class="edge">
<title>Node6&#45;&gt;Node7</title>
<path fill="none" stroke="#191970" d="M584,-168.1155C584,-159.2061 584,-149.8475 584,-141.5341"/>
<polygon fill="#191970" stroke="#191970" points="580.5001,-168.2784 584,-178.2784 587.5001,-168.2785 580.5001,-168.2784"/>
</g>
<!-- Node8 -->
<g id="node5" class="node">
<title>Node8</title>
<g id="a_node5"><a xlink:href="main_8cpp.html" target="_top" target="_top" xlink:title="/home/bdn_jz/bdn_jz\l/camera&#45;tracker&#45;cpp\l/CameraTrackerLinux/main.cpp">
<polygon fill="#ffffff" stroke="#000000" points="407.5,-6 407.5,-47 560.5,-47 560.5,-6 407.5,-6"/>
<text text-anchor="start" x="415.5" y="-35" font-family="Helvetica,sans-Serif" font-size="10.00" fill="#000000">/home/bdn_jz/bdn_jz</text>
<text text-anchor="start" x="415.5" y="-24" font-family="Helvetica,sans-Serif" font-size="10.00" fill="#000000">/camera&#45;tracker&#45;cpp</text>
<text text-anchor="middle" x="484" y="-13" font-family="Helvetica,sans-Serif" font-size="10.00" fill="#000000">/CameraTrackerLinux/main.cpp</text>
</a>
</g>
</g>
<!-- Node6&#45;&gt;Node8 -->
<g id="edge6" class="edge">
<title>Node6&#45;&gt;Node8</title>
<path fill="none" stroke="#191970" d="M529.9869,-172.0704C519.5858,-163.5125 509.8214,-153.4232 503,-142 485.3921,-112.5138 482.7518,-71.623 482.9908,-47.2355"/>
<polygon fill="#191970" stroke="#191970" points="527.9816,-174.9445 538.0267,-178.313 532.2747,-169.4155 527.9816,-174.9445"/>
</g>
<!-- Node10 -->
<g id="node7" class="node">
<title>Node10</title>
<g id="a_node7"><a xlink:href="_json_utilization_8cpp.html" target="_top" target="_top" xlink:title="/home/bdn_jz/bdn_jz\l/camera&#45;tracker&#45;cpp\l/CameraTrackerLinux/src\l/JsonUtilization.cpp">
<polygon fill="#ffffff" stroke="#000000" points="674.5,-89.5 674.5,-141.5 801.5,-141.5 801.5,-89.5 674.5,-89.5"/>
<text text-anchor="start" x="682.5" y="-129.5" font-family="Helvetica,sans-Serif" font-size="10.00" fill="#000000">/home/bdn_jz/bdn_jz</text>
<text text-anchor="start" x="682.5" y="-118.5" font-family="Helvetica,sans-Serif" font-size="10.00" fill="#000000">/camera&#45;tracker&#45;cpp</text>
<text text-anchor="start" x="682.5" y="-107.5" font-family="Helvetica,sans-Serif" font-size="10.00" fill="#000000">/CameraTrackerLinux/src</text>
<text text-anchor="middle" x="738" y="-96.5" font-family="Helvetica,sans-Serif" font-size="10.00" fill="#000000">/JsonUtilization.cpp</text>
</a>
</g>
</g>
<!-- Node6&#45;&gt;Node10 -->
<g id="edge7" class="edge">
<title>Node6&#45;&gt;Node10</title>
<path fill="none" stroke="#191970" d="M638.5074,-172.9989C656.3274,-162.7004 675.9091,-151.3837 692.9521,-141.5341"/>
<polygon fill="#191970" stroke="#191970" points="636.279,-170.2443 629.3721,-178.2784 639.7816,-176.305 636.279,-170.2443"/>
</g>
<!-- Node7&#45;&gt;Node8 -->
<g id="edge4" class="edge">
<title>Node7&#45;&gt;Node8</title>
<path fill="none" stroke="#191970" d="M546.8953,-82.4768C533.6068,-70.6501 519.014,-57.6625 507.2327,-47.1771"/>
<polygon fill="#191970" stroke="#191970" points="544.7407,-85.2446 554.5376,-89.2784 549.3945,-80.0156 544.7407,-85.2446"/>
</g>
<!-- Node9 -->
<g id="node6" class="node">
<title>Node9</title>
<g id="a_node6"><a xlink:href="_pose_estimation_8cpp.html" target="_top" target="_top" xlink:title="/home/bdn_jz/bdn_jz\l/camera&#45;tracker&#45;cpp\l/CameraTrackerLinux/src\l/PoseEstimation.cpp">
<polygon fill="#ffffff" stroke="#000000" points="578.5,-.5 578.5,-52.5 705.5,-52.5 705.5,-.5 578.5,-.5"/>
<text text-anchor="start" x="586.5" y="-40.5" font-family="Helvetica,sans-Serif" font-size="10.00" fill="#000000">/home/bdn_jz/bdn_jz</text>
<text text-anchor="start" x="586.5" y="-29.5" font-family="Helvetica,sans-Serif" font-size="10.00" fill="#000000">/camera&#45;tracker&#45;cpp</text>
<text text-anchor="start" x="586.5" y="-18.5" font-family="Helvetica,sans-Serif" font-size="10.00" fill="#000000">/CameraTrackerLinux/src</text>
<text text-anchor="middle" x="642" y="-7.5" font-family="Helvetica,sans-Serif" font-size="10.00" fill="#000000">/PoseEstimation.cpp</text>
</a>
</g>
</g>
<!-- Node7&#45;&gt;Node9 -->
<g id="edge5" class="edge">
<title>Node7&#45;&gt;Node9</title>
<path fill="none" stroke="#191970" d="M606.5793,-80.8525C612.719,-71.4313 619.2629,-61.3897 625.0339,-52.5341"/>
<polygon fill="#191970" stroke="#191970" points="603.6158,-78.9895 601.0882,-89.2784 609.4804,-82.8114 603.6158,-78.9895"/>
</g>
<!-- Node11&#45;&gt;Node5 -->
<g id="edge9" class="edge">
<title>Node11&#45;&gt;Node5</title>
<path fill="none" stroke="#191970" d="M104.8659,-535.262C109.6376,-507.7848 118.9596,-472.0331 137,-445 172.4864,-391.8246 191.7863,-382.4212 250,-356 334.8755,-317.478 442.2102,-302.6991 511.9502,-297.0292"/>
<polygon fill="#191970" stroke="#191970" points="101.3754,-534.9249 103.2513,-545.3523 108.2875,-536.031 101.3754,-534.9249"/>
</g>
<!-- Node12 -->
<g id="node9" class="node">
<title>Node12</title>
<g id="a_node9"><a xlink:href="adl__serializer_8hpp.html" target="_top" target="_top" xlink:title="/home/bdn_jz/bdn_jz\l/camera&#45;tracker&#45;cpp\l/CameraTrackerLinux/include\l/nlohmann/adl_serializer.hpp">
<polygon fill="#ffffff" stroke="#000000" points="146,-451 146,-503 290,-503 290,-451 146,-451"/>
<text text-anchor="start" x="154" y="-491" font-family="Helvetica,sans-Serif" font-size="10.00" fill="#000000">/home/bdn_jz/bdn_jz</text>
<text text-anchor="start" x="154" y="-480" font-family="Helvetica,sans-Serif" font-size="10.00" fill="#000000">/camera&#45;tracker&#45;cpp</text>
<text text-anchor="start" x="154" y="-469" font-family="Helvetica,sans-Serif" font-size="10.00" fill="#000000">/CameraTrackerLinux/include</text>
<text text-anchor="middle" x="218" y="-458" font-family="Helvetica,sans-Serif" font-size="10.00" fill="#000000">/nlohmann/adl_serializer.hpp</text>
</a>
</g>
</g>
<!-- Node11&#45;&gt;Node12 -->
<g id="edge10" class="edge">
<title>Node11&#45;&gt;Node12</title>
<path fill="none" stroke="#191970" d="M145.0289,-538.8399C159.1252,-526.8939 174.3503,-513.9913 187.228,-503.078"/>
<polygon fill="#191970" stroke="#191970" points="142.7021,-536.224 137.3359,-545.3594 147.2278,-541.5643 142.7021,-536.224"/>
</g>
<!-- Node12&#45;&gt;Node5 -->
<g id="edge11" class="edge">
<title>Node12&#45;&gt;Node5</title>
<path fill="none" stroke="#191970" d="M233.968,-441.967C248.3693,-414.3685 272.1741,-377.137 304,-356 337.5554,-333.7143 440.4885,-314.6394 511.7327,-303.6147"/>
<polygon fill="#191970" stroke="#191970" points="230.8304,-440.4159 229.4466,-450.92 237.0788,-443.5715 230.8304,-440.4159"/>
</g>
<!-- Node13&#45;&gt;Node5 -->
<g id="edge13" class="edge">
<title>Node13&#45;&gt;Node5</title>
<path fill="none" stroke="#191970" d="M286.0765,-536.2712C290.742,-527.4548 295.3183,-518.0557 299,-509 325.6025,-443.5665 291.5263,-405.413 342,-356 366.0305,-332.4744 449.677,-314.5248 511.9387,-304.0233"/>
<polygon fill="#191970" stroke="#191970" points="282.9187,-534.7519 281.2161,-545.209 289.0682,-538.096 282.9187,-534.7519"/>
</g>
<!-- Node13&#45;&gt;Node12 -->
<g id="edge14" class="edge">
<title>Node13&#45;&gt;Node12</title>
<path fill="none" stroke="#191970" d="M244.0351,-536.1707C239.1171,-524.9933 233.9205,-513.1829 229.4743,-503.078"/>
<polygon fill="#191970" stroke="#191970" points="240.8471,-537.6158 248.0781,-545.3594 247.2543,-534.7966 240.8471,-537.6158"/>
</g>
<!-- Node14&#45;&gt;Node5 -->
<g id="edge16" class="edge">
<title>Node14&#45;&gt;Node5</title>
<path fill="none" stroke="#191970" d="M814.3314,-635.892C844.4754,-568.3679 890.4167,-433.7244 821,-356 799.1388,-331.5225 717.5784,-313.8514 656.1978,-303.6712"/>
<polygon fill="#191970" stroke="#191970" points="810.9816,-634.8022 810.0142,-645.3528 817.3498,-637.7083 810.9816,-634.8022"/>
</g>
<!-- Node16 -->
<g id="node13" class="node">
<title>Node16</title>
<g id="a_node13"><a xlink:href="input__adapters_8hpp.html" target="_top" target="_top" xlink:title="/home/bdn_jz/bdn_jz\l/camera&#45;tracker&#45;cpp\l/CameraTrackerLinux/include\l/nlohmann/detail/input/input\l_adapters.hpp">
<polygon fill="#ffffff" stroke="#000000" points="884,-645.5 884,-708.5 1028,-708.5 1028,-645.5 884,-645.5"/>
<text text-anchor="start" x="892" y="-696.5" font-family="Helvetica,sans-Serif" font-size="10.00" fill="#000000">/home/bdn_jz/bdn_jz</text>
<text text-anchor="start" x="892" y="-685.5" font-family="Helvetica,sans-Serif" font-size="10.00" fill="#000000">/camera&#45;tracker&#45;cpp</text>
<text text-anchor="start" x="892" y="-674.5" font-family="Helvetica,sans-Serif" font-size="10.00" fill="#000000">/CameraTrackerLinux/include</text>
<text text-anchor="start" x="892" y="-663.5" font-family="Helvetica,sans-Serif" font-size="10.00" fill="#000000">/nlohmann/detail/input/input</text>
<text text-anchor="middle" x="956" y="-652.5" font-family="Helvetica,sans-Serif" font-size="10.00" fill="#000000">_adapters.hpp</text>
</a>
</g>
</g>
<!-- Node15&#45;&gt;Node16 -->
<g id="edge18" class="edge">
<title>Node15&#45;&gt;Node16</title>
<path fill="none" stroke="#191970" d="M513.7392,-846.3864C602.7322,-812.9664 749.1823,-757.7073 875,-709 877.8201,-707.9083 880.6939,-706.7918 883.5959,-705.6612"/>
<polygon fill="#191970" stroke="#191970" points="512.3756,-843.1598 504.2438,-849.9513 514.836,-849.7132 512.3756,-843.1598"/>
</g>
<!-- Node15&#45;&gt;Node22 -->
<g id="edge31" class="edge">
<title>Node15&#45;&gt;Node22</title>
<path fill="none" stroke="#191970" d="M432,-835.2111C432,-826.37 432,-817.1767 432,-808.778"/>
<polygon fill="#191970" stroke="#191970" points="428.5001,-835.3593 432,-845.3594 435.5001,-835.3594 428.5001,-835.3593"/>
</g>
<!-- Node16&#45;&gt;Node5 -->
<g id="edge19" class="edge">
<title>Node16&#45;&gt;Node5</title>
<path fill="none" stroke="#191970" d="M1037.6221,-658.5914C1063.6554,-648.4489 1089.6625,-632.859 1105,-609 1144.7066,-547.2328 1120.0071,-509.5469 1085,-445 1058.0294,-395.2709 1044.6215,-381.2559 994,-356 936.0943,-327.1098 757.3703,-307.9768 656.041,-299.1421"/>
<polygon fill="#191970" stroke="#191970" points="1036.2423,-655.3691 1028.0494,-662.0868 1038.6433,-661.9445 1036.2423,-655.3691"/>
</g>
<!-- Node17 -->
<g id="node14" class="node">
<title>Node17</title>
<g id="a_node14"><a xlink:href="binary__reader_8hpp.html" target="_top" target="_top" xlink:title="/home/bdn_jz/bdn_jz\l/camera&#45;tracker&#45;cpp\l/CameraTrackerLinux/include\l/nlohmann/detail/input/binary\l_reader.hpp">
<polygon fill="#ffffff" stroke="#000000" points="657,-545.5 657,-608.5 801,-608.5 801,-545.5 657,-545.5"/>
<text text-anchor="start" x="665" y="-596.5" font-family="Helvetica,sans-Serif" font-size="10.00" fill="#000000">/home/bdn_jz/bdn_jz</text>
<text text-anchor="start" x="665" y="-585.5" font-family="Helvetica,sans-Serif" font-size="10.00" fill="#000000">/camera&#45;tracker&#45;cpp</text>
<text text-anchor="start" x="665" y="-574.5" font-family="Helvetica,sans-Serif" font-size="10.00" fill="#000000">/CameraTrackerLinux/include</text>
<text text-anchor="start" x="665" y="-563.5" font-family="Helvetica,sans-Serif" font-size="10.00" fill="#000000">/nlohmann/detail/input/binary</text>
<text text-anchor="middle" x="729" y="-552.5" font-family="Helvetica,sans-Serif" font-size="10.00" fill="#000000">_reader.hpp</text>
</a>
</g>
</g>
<!-- Node16&#45;&gt;Node17 -->
<g id="edge20" class="edge">
<title>Node16&#45;&gt;Node17</title>
<path fill="none" stroke="#191970" d="M875.2602,-641.4318C850.8754,-630.6896 824.284,-618.9753 800.5431,-608.5168"/>
<polygon fill="#191970" stroke="#191970" points="873.925,-644.6681 884.4874,-645.4966 876.747,-638.2622 873.925,-644.6681"/>
</g>
<!-- Node20 -->
<g id="node17" class="node">
<title>Node20</title>
<g id="a_node17"><a xlink:href="lexer_8hpp.html" target="_top" target="_top" xlink:title="/home/bdn_jz/bdn_jz\l/camera&#45;tracker&#45;cpp\l/CameraTrackerLinux/include\l/nlohmann/detail/input/lexer.hpp">
<polygon fill="#ffffff" stroke="#000000" points="940.5,-551 940.5,-603 1095.5,-603 1095.5,-551 940.5,-551"/>
<text text-anchor="start" x="948.5" y="-591" font-family="Helvetica,sans-Serif" font-size="10.00" fill="#000000">/home/bdn_jz/bdn_jz</text>
<text text-anchor="start" x="948.5" y="-580" font-family="Helvetica,sans-Serif" font-size="10.00" fill="#000000">/camera&#45;tracker&#45;cpp</text>
<text text-anchor="start" x="948.5" y="-569" font-family="Helvetica,sans-Serif" font-size="10.00" fill="#000000">/CameraTrackerLinux/include</text>
<text text-anchor="middle" x="1018" y="-558" font-family="Helvetica,sans-Serif" font-size="10.00" fill="#000000">/nlohmann/detail/input/lexer.hpp</text>
</a>
</g>
</g>
<!-- Node16&#45;&gt;Node20 -->
<g id="edge26" class="edge">
<title>Node16&#45;&gt;Node20</title>
<path fill="none" stroke="#191970" d="M980.8989,-636.8405C987.9508,-625.4664 995.4413,-613.385 1001.8317,-603.078"/>
<polygon fill="#191970" stroke="#191970" points="977.912,-635.016 975.6172,-645.3594 983.8613,-638.7046 977.912,-635.016"/>
</g>
<!-- Node21 -->
<g id="node18" class="node">
<title>Node21</title>
<g id="a_node18"><a xlink:href="parser_8hpp.html" target="_top" target="_top" xlink:title="/home/bdn_jz/bdn_jz\l/camera&#45;tracker&#45;cpp\l/CameraTrackerLinux/include\l/nlohmann/detail/input/parser.hpp">
<polygon fill="#ffffff" stroke="#000000" points="896.5,-451 896.5,-503 1057.5,-503 1057.5,-451 896.5,-451"/>
<text text-anchor="start" x="904.5" y="-491" font-family="Helvetica,sans-Serif" font-size="10.00" fill="#000000">/home/bdn_jz/bdn_jz</text>
<text text-anchor="start" x="904.5" y="-480" font-family="Helvetica,sans-Serif" font-size="10.00" fill="#000000">/camera&#45;tracker&#45;cpp</text>
<text text-anchor="start" x="904.5" y="-469" font-family="Helvetica,sans-Serif" font-size="10.00" fill="#000000">/CameraTrackerLinux/include</text>
<text text-anchor="middle" x="977" y="-458" font-family="Helvetica,sans-Serif" font-size="10.00" fill="#000000">/nlohmann/detail/input/parser.hpp</text>
</a>
</g>
</g>
<!-- Node16&#45;&gt;Node21 -->
<g id="edge30" class="edge">
<title>Node16&#45;&gt;Node21</title>
<path fill="none" stroke="#191970" d="M938.6083,-635.6767C929.9464,-609.3685 923.043,-574.7655 932,-545 936.528,-529.9528 945.5895,-515.1701 954.4019,-503.2515"/>
<polygon fill="#191970" stroke="#191970" points="935.3784,-637.0433 941.9848,-645.3261 941.9855,-634.7313 935.3784,-637.0433"/>
</g>
<!-- Node17&#45;&gt;Node5 -->
<g id="edge21" class="edge">
<title>Node17&#45;&gt;Node5</title>
<path fill="none" stroke="#191970" d="M789.0344,-538.3391C797.9353,-529.8063 805.8389,-519.9848 811,-509 840.1626,-446.931 837.711,-406.2105 791,-356 772.3981,-336.0045 708.0736,-318.5487 656.0093,-307.2049"/>
<polygon fill="#191970" stroke="#191970" points="786.4825,-535.9258 781.3615,-545.2008 791.1487,-541.1437 786.4825,-535.9258"/>
</g>
<!-- Node18 -->
<g id="node15" class="node">
<title>Node18</title>
<g id="a_node15"><a xlink:href="binary__writer_8hpp.html" target="_top" target="_top" xlink:title="/home/bdn_jz/bdn_jz\l/camera&#45;tracker&#45;cpp\l/CameraTrackerLinux/include\l/nlohmann/detail/output/binary\l_writer.hpp">
<polygon fill="#ffffff" stroke="#000000" points="654.5,-445.5 654.5,-508.5 801.5,-508.5 801.5,-445.5 654.5,-445.5"/>
<text text-anchor="start" x="662.5" y="-496.5" font-family="Helvetica,sans-Serif" font-size="10.00" fill="#000000">/home/bdn_jz/bdn_jz</text>
<text text-anchor="start" x="662.5" y="-485.5" font-family="Helvetica,sans-Serif" font-size="10.00" fill="#000000">/camera&#45;tracker&#45;cpp</text>
<text text-anchor="start" x="662.5" y="-474.5" font-family="Helvetica,sans-Serif" font-size="10.00" fill="#000000">/CameraTrackerLinux/include</text>
<text text-anchor="start" x="662.5" y="-463.5" font-family="Helvetica,sans-Serif" font-size="10.00" fill="#000000">/nlohmann/detail/output/binary</text>
<text text-anchor="middle" x="728" y="-452.5" font-family="Helvetica,sans-Serif" font-size="10.00" fill="#000000">_writer.hpp</text>
</a>
</g>
</g>
<!-- Node17&#45;&gt;Node18 -->
<g id="edge22" class="edge">
<title>Node17&#45;&gt;Node18</title>
<path fill="none" stroke="#191970" d="M728.5821,-535.2111C728.4937,-526.37 728.4018,-517.1767 728.3178,-508.778"/>
<polygon fill="#191970" stroke="#191970" points="725.0837,-535.3949 728.6836,-545.3594 732.0833,-535.3248 725.0837,-535.3949"/>
</g>
<!-- Node18&#45;&gt;Node5 -->
<g id="edge23" class="edge">
<title>Node18&#45;&gt;Node5</title>
<path fill="none" stroke="#191970" d="M761.1678,-436.9362C777.5751,-412.0131 790.4958,-380.2132 773,-356 758.7807,-336.3212 703.2402,-319.4172 656.018,-308.1697"/>
<polygon fill="#191970" stroke="#191970" points="758.091,-435.2308 755.2631,-445.4413 763.8411,-439.2229 758.091,-435.2308"/>
</g>
<!-- Node18&#45;&gt;Node19 -->
<g id="edge24" class="edge">
<title>Node18&#45;&gt;Node19</title>
<path fill="none" stroke="#191970" d="M704.8064,-436.4112C699.431,-427.0043 693.8503,-417.238 688.9395,-408.6442"/>
<polygon fill="#191970" stroke="#191970" points="701.8683,-438.324 709.8686,-445.27 707.946,-434.851 701.8683,-438.324"/>
</g>
<!-- Node19&#45;&gt;Node5 -->
<g id="edge25" class="edge">
<title>Node19&#45;&gt;Node5</title>
<path fill="none" stroke="#191970" d="M640.1265,-349.0029C630.267,-339.2529 619.6472,-328.7511 610.3267,-319.5341"/>
<polygon fill="#191970" stroke="#191970" points="637.9123,-351.7356 647.4838,-356.2784 642.8343,-346.7583 637.9123,-351.7356"/>
</g>
<!-- Node20&#45;&gt;Node5 -->
<g id="edge27" class="edge">
<title>Node20&#45;&gt;Node5</title>
<path fill="none" stroke="#191970" d="M1049.0567,-542.5991C1056.375,-532.4741 1063.159,-520.9005 1067,-509 1075.7369,-481.9306 1080.8896,-469.8227 1067,-445 1030.0764,-379.0123 992.5891,-383.1091 922,-356 834.1199,-322.2505 726.2012,-306.3624 656.3094,-299.1381"/>
<polygon fill="#191970" stroke="#191970" points="1046.1274,-540.6681 1042.8365,-550.7389 1051.6894,-544.9184 1046.1274,-540.6681"/>
</g>
<!-- Node20&#45;&gt;Node21 -->
<g id="edge28" class="edge">
<title>Node20&#45;&gt;Node21</title>
<path fill="none" stroke="#191970" d="M1003.5031,-541.6418C998.3168,-528.9923 992.5683,-514.9715 987.7543,-503.2299"/>
<polygon fill="#191970" stroke="#191970" points="1000.3028,-543.0625 1007.3348,-550.9872 1006.7796,-540.4069 1000.3028,-543.0625"/>
</g>
<!-- Node21&#45;&gt;Node5 -->
<g id="edge29" class="edge">
<title>Node21&#45;&gt;Node5</title>
<path fill="none" stroke="#191970" d="M958.5492,-441.8386C942.1669,-414.165 915.6295,-376.8954 882,-356 844.9572,-332.9838 731.8696,-313.6731 656.152,-302.8527"/>
<polygon fill="#191970" stroke="#191970" points="955.693,-443.8928 963.7112,-450.8181 961.7617,-440.4041 955.693,-443.8928"/>
</g>
<!-- Node22&#45;&gt;Node5 -->
<g id="edge32" class="edge">
<title>Node22&#45;&gt;Node5</title>
<path fill="none" stroke="#191970" d="M429.7858,-735.2363C424.864,-642.2516 413.414,-425.0491 413,-409 412.3925,-385.4523 399.5021,-375.3047 413,-356 425.0447,-338.7737 470.7293,-322.5771 511.8488,-310.9898"/>
<polygon fill="#191970" stroke="#191970" points="426.3008,-735.614 430.3248,-745.4149 433.291,-735.2438 426.3008,-735.614"/>
</g>
<!-- Node22&#45;&gt;Node11 -->
<g id="edge33" class="edge">
<title>Node22&#45;&gt;Node11</title>
<path fill="none" stroke="#191970" d="M349.8647,-755.0743C315.728,-744.0216 276.561,-728.7179 244,-709 198.4548,-681.4192 154.6132,-638.021 127.5159,-608.5799"/>
<polygon fill="#191970" stroke="#191970" points="349.2255,-758.543 359.8156,-758.2233 351.3375,-751.8692 349.2255,-758.543"/>
</g>
<!-- Node22&#45;&gt;Node13 -->
<g id="edge34" class="edge">
<title>Node22&#45;&gt;Node13</title>
<path fill="none" stroke="#191970" d="M349.7981,-764.1957C317.1682,-754.6573 282.7642,-738.019 263,-709 243.0041,-679.6408 246.8554,-637.4435 253.0067,-608.7172"/>
<polygon fill="#191970" stroke="#191970" points="349.2811,-767.6824 359.8495,-766.9338 351.121,-760.9285 349.2811,-767.6824"/>
</g>
<!-- Node22&#45;&gt;Node14 -->
<g id="edge35" class="edge">
<title>Node22&#45;&gt;Node14</title>
<path fill="none" stroke="#191970" d="M514.0225,-760.3024C570.5097,-748.038 646.9851,-729.9162 713,-709 715.8828,-708.0866 718.8095,-707.1206 721.7557,-706.1158"/>
<polygon fill="#191970" stroke="#191970" points="513.1086,-756.9189 504.0706,-762.4474 514.5836,-763.7617 513.1086,-756.9189"/>
</g>
<!-- Node23 -->
<g id="node20" class="node">
<title>Node23</title>
<g id="a_node20"><a xlink:href="iteration__proxy_8hpp.html" target="_top" target="_top" xlink:title="/home/bdn_jz/bdn_jz\l/camera&#45;tracker&#45;cpp\l/CameraTrackerLinux/include\l/nlohmann/detail/iterators\l/iteration_proxy.hpp">
<polygon fill="#ffffff" stroke="#000000" points="272,-645.5 272,-708.5 416,-708.5 416,-645.5 272,-645.5"/>
<text text-anchor="start" x="280" y="-696.5" font-family="Helvetica,sans-Serif" font-size="10.00" fill="#000000">/home/bdn_jz/bdn_jz</text>
<text text-anchor="start" x="280" y="-685.5" font-family="Helvetica,sans-Serif" font-size="10.00" fill="#000000">/camera&#45;tracker&#45;cpp</text>
<text text-anchor="start" x="280" y="-674.5" font-family="Helvetica,sans-Serif" font-size="10.00" fill="#000000">/CameraTrackerLinux/include</text>
<text text-anchor="start" x="280" y="-663.5" font-family="Helvetica,sans-Serif" font-size="10.00" fill="#000000">/nlohmann/detail/iterators</text>
<text text-anchor="middle" x="344" y="-652.5" font-family="Helvetica,sans-Serif" font-size="10.00" fill="#000000">/iteration_proxy.hpp</text>
</a>
</g>
</g>
<!-- Node22&#45;&gt;Node23 -->
<g id="edge36" class="edge">
<title>Node22&#45;&gt;Node23</title>
<path fill="none" stroke="#191970" d="M397.4993,-737.7946C389.0351,-728.1763 380.0785,-717.9983 371.9647,-708.778"/>
<polygon fill="#191970" stroke="#191970" points="394.9224,-740.1644 404.1563,-745.3594 400.1774,-735.54 394.9224,-740.1644"/>
</g>
<!-- Node24 -->
<g id="node21" class="node">
<title>Node24</title>
<g id="a_node21"><a xlink:href="json__ref_8hpp.html" target="_top" target="_top" xlink:title="/home/bdn_jz/bdn_jz\l/camera&#45;tracker&#45;cpp\l/CameraTrackerLinux/include\l/nlohmann/detail/json_ref.hpp">
<polygon fill="#ffffff" stroke="#000000" points="422,-356.5 422,-408.5 566,-408.5 566,-356.5 422,-356.5"/>
<text text-anchor="start" x="430" y="-396.5" font-family="Helvetica,sans-Serif" font-size="10.00" fill="#000000">/home/bdn_jz/bdn_jz</text>
<text text-anchor="start" x="430" y="-385.5" font-family="Helvetica,sans-Serif" font-size="10.00" fill="#000000">/camera&#45;tracker&#45;cpp</text>
<text text-anchor="start" x="430" y="-374.5" font-family="Helvetica,sans-Serif" font-size="10.00" fill="#000000">/CameraTrackerLinux/include</text>
<text text-anchor="middle" x="494" y="-363.5" font-family="Helvetica,sans-Serif" font-size="10.00" fill="#000000">/nlohmann/detail/json_ref.hpp</text>
</a>
</g>
</g>
<!-- Node22&#45;&gt;Node24 -->
<g id="edge39" class="edge">
<title>Node22&#45;&gt;Node24</title>
<path fill="none" stroke="#191970" d="M449.678,-735.793C452.8714,-727.0751 455.861,-717.836 458,-709 484.4997,-599.5324 491.538,-464.641 493.3709,-408.7077"/>
<polygon fill="#191970" stroke="#191970" points="446.3204,-734.7747 446.0205,-745.3653 452.8593,-737.2732 446.3204,-734.7747"/>
</g>
<!-- Node25 -->
<g id="node22" class="node">
<title>Node25</title>
<g id="a_node22"><a xlink:href="is__sax_8hpp.html" target="_top" target="_top" xlink:title="/home/bdn_jz/bdn_jz\l/camera&#45;tracker&#45;cpp\l/CameraTrackerLinux/include\l/nlohmann/detail/meta/is\l_sax.hpp">
<polygon fill="#ffffff" stroke="#000000" points="560,-645.5 560,-708.5 704,-708.5 704,-645.5 560,-645.5"/>
<text text-anchor="start" x="568" y="-696.5" font-family="Helvetica,sans-Serif" font-size="10.00" fill="#000000">/home/bdn_jz/bdn_jz</text>
<text text-anchor="start" x="568" y="-685.5" font-family="Helvetica,sans-Serif" font-size="10.00" fill="#000000">/camera&#45;tracker&#45;cpp</text>
<text text-anchor="start" x="568" y="-674.5" font-family="Helvetica,sans-Serif" font-size="10.00" fill="#000000">/CameraTrackerLinux/include</text>
<text text-anchor="start" x="568" y="-663.5" font-family="Helvetica,sans-Serif" font-size="10.00" fill="#000000">/nlohmann/detail/meta/is</text>
<text text-anchor="middle" x="632" y="-652.5" font-family="Helvetica,sans-Serif" font-size="10.00" fill="#000000">_sax.hpp</text>
</a>
</g>
</g>
<!-- Node22&#45;&gt;Node25 -->
<g id="edge41" class="edge">
<title>Node22&#45;&gt;Node25</title>
<path fill="none" stroke="#191970" d="M503.9892,-741.0054C525.2396,-730.3802 548.3258,-718.8371 568.9665,-708.5168"/>
<polygon fill="#191970" stroke="#191970" points="502.3858,-737.8939 495.0067,-745.4966 505.5163,-744.1549 502.3858,-737.8939"/>
</g>
<!-- Node23&#45;&gt;Node5 -->
<g id="edge37" class="edge">
<title>Node23&#45;&gt;Node5</title>
<path fill="none" stroke="#191970" d="M343.1839,-635.1524C342.548,-558.0252 345.544,-397.5281 380,-356 397.1479,-335.3325 460.317,-318.0264 511.8725,-306.9043"/>
<polygon fill="#191970" stroke="#191970" points="339.6874,-635.4993 343.2949,-645.461 346.687,-635.4239 339.6874,-635.4993"/>
</g>
<!-- Node23&#45;&gt;Node13 -->
<g id="edge38" class="edge">
<title>Node23&#45;&gt;Node13</title>
<path fill="none" stroke="#191970" d="M311.6172,-637.5088C303.7994,-627.9748 295.5437,-617.907 288.058,-608.778"/>
<polygon fill="#191970" stroke="#191970" points="309.0074,-639.846 318.0547,-645.3594 314.4203,-635.4074 309.0074,-639.846"/>
</g>
<!-- Node24&#45;&gt;Node5 -->
<g id="edge40" class="edge">
<title>Node24&#45;&gt;Node5</title>
<path fill="none" stroke="#191970" d="M527.8735,-349.0029C537.733,-339.2529 548.3528,-328.7511 557.6733,-319.5341"/>
<polygon fill="#191970" stroke="#191970" points="525.1657,-346.7583 520.5162,-356.2784 530.0877,-351.7356 525.1657,-346.7583"/>
</g>
<!-- Node25&#45;&gt;Node17 -->
<g id="edge42" class="edge">
<title>Node25&#45;&gt;Node17</title>
<path fill="none" stroke="#191970" d="M669.7523,-638.0801C679.1634,-628.3779 689.1431,-618.0896 698.1753,-608.778"/>
<polygon fill="#191970" stroke="#191970" points="667.1417,-635.7445 662.6914,-645.3594 672.1663,-640.6183 667.1417,-635.7445"/>
</g>
<!-- Node25&#45;&gt;Node21 -->
<g id="edge43" class="edge">
<title>Node25&#45;&gt;Node21</title>
<path fill="none" stroke="#191970" d="M713.9103,-644.7626C757.8516,-628.8296 772.4987,-630.0814 810,-609 863.638,-578.8473 918.1471,-532.0796 949.7048,-503.0642"/>
<polygon fill="#191970" stroke="#191970" points="712.5398,-641.5382 704.3943,-648.3133 714.9869,-648.0966 712.5398,-641.5382"/>
</g>
</g>
</svg>
        <g id="navigator" transform="translate(0 0)" fill="#404254">
                <rect fill="#f2f5e9" fill-opacity="0.5" stroke="#606060" stroke-width=".5" x="0" y="0" width="60" height="60"/>
                <use id="zoomplus" xlink:href="#zoomPlus" target="_top" x="17" y="9" onmousedown="handleZoom(evt,'in')"/>
                <use id="zoomminus" xlink:href="#zoomMin" target="_top" x="42" y="9" onmousedown="handleZoom(evt,'out')"/>
                <use id="reset" xlink:href="#resetDef" target="_top" x="30" y="36" onmousedown="handleReset()"/>
                <g id="arrowUp" xlink:href="#dirArrow" target="_top" transform="translate(30 24)" onmousedown="handlePan(0,-1)">
                  <use xlink:href="#rim" target="_top" fill="#404040">
                        <set attributeName="fill" to="#808080" begin="arrowUp.mouseover" end="arrowUp.mouseout"/>
                  </use>
                  <path fill="none" stroke="white" stroke-width="1.5" d="M0,-3.0v7 M-2.5,-0.5L0,-3.0L2.5,-0.5"/>
                </g>
                <g id="arrowRight" xlink:href="#dirArrow" target="_top" transform="rotate(90) translate(36 -43)" onmousedown="handlePan(1,0)">
                  <use xlink:href="#rim" target="_top" fill="#404040">
                        <set attributeName="fill" to="#808080" begin="arrowRight.mouseover" end="arrowRight.mouseout"/>
                  </use>
                  <path fill="none" stroke="white" stroke-width="1.5" d="M0,-3.0v7 M-2.5,-0.5L0,-3.0L2.5,-0.5"/>
                </g>
                <g id="arrowDown" xlink:href="#dirArrow" target="_top" transform="rotate(180) translate(-30 -48)" onmousedown="handlePan(0,1)">
                  <use xlink:href="#rim" target="_top" fill="#404040">
                        <set attributeName="fill" to="#808080" begin="arrowDown.mouseover" end="arrowDown.mouseout"/>
                  </use>
                  <path fill="none" stroke="white" stroke-width="1.5" d="M0,-3.0v7 M-2.5,-0.5L0,-3.0L2.5,-0.5"/>
                </g>
                <g id="arrowLeft" xlink:href="#dirArrow" target="_top" transform="rotate(270) translate(-36 17)" onmousedown="handlePan(-1,0)">
                  <use xlink:href="#rim" target="_top" fill="#404040">
                        <set attributeName="fill" to="#808080" begin="arrowLeft.mouseover" end="arrowLeft.mouseout"/>
                  </use>
                  <path fill="none" stroke="white" stroke-width="1.5" d="M0,-3.0v7 M-2.5,-0.5L0,-3.0L2.5,-0.5"/>
                </g>
        </g>
        <svg viewBox="0 0 15 15" width="100%" height="30px" preserveAspectRatio="xMaxYMin meet">
         <g id="arrow_out" transform="scale(0.3 0.3)">
          <a xlink:href="cpp__future_8hpp__dep__incl_org.svg" target="_top" target="_base">
           <rect id="button" ry="5" rx="5" y="6" x="6" height="38" width="38"
                fill="#f2f5e9" fill-opacity="0.5" stroke="#606060" stroke-width="1.0"/>
           <path id="arrow"
             d="M 11.500037,31.436501 C 11.940474,20.09759 22.043105,11.32322 32.158766,21.979434 L 37.068811,17.246167 C 37.068811,17.246167 37.088388,32 37.088388,32 L 22.160133,31.978069 C 22.160133,31.978069 26.997745,27.140456 26.997745,27.140456 C 18.528582,18.264221 13.291696,25.230495 11.500037,31.436501 z"
             style="fill:#404040;"/>
          </a>
         </g>
        </svg>
</svg>
