<?xml version="1.0" encoding="UTF-8" standalone="no"?>
<!DOCTYPE svg PUBLIC "-//W3C//DTD SVG 1.1//EN"
 "http://www.w3.org/Graphics/SVG/1.1/DTD/svg11.dtd">
<!-- Generated by graphviz version 2.40.1 (20161225.0304)
 -->
<!-- Title: /home/bdn_jz/bdn_jz/camera&#45;tracker&#45;cpp/CameraTrackerLinux/include/nlohmann/detail/meta/cpp_future.hpp Pages: 1 -->
<!--zoomable 1106 -->
<svg id="main" version="1.1" xmlns="http://www.w3.org/2000/svg" xmlns:xlink="http://www.w3.org/1999/xlink" xml:space="preserve" onload="init(evt)">
<style type="text/css"><![CDATA[
.edge:hover path { stroke: red; }
.edge:hover polygon { stroke: red; fill: red; }
]]></style>
<script type="text/javascript"><![CDATA[
var edges = document.getElementsByTagName('g');
if (edges && edges.length) {
  for (var i=0;i<edges.length;i++) {
    if (edges[i].id.substr(0,4)=='edge') {
      edges[i].setAttribute('class','edge');
    }
  }
}
]]></script>
        <defs>
                <circle id="rim" cx="0" cy="0" r="7"/>
                <circle id="rim2" cx="0" cy="0" r="3.5"/>
                <g id="zoomPlus">
                        <use xlink:href="#rim" fill="#404040">
                                <set attributeName="fill" to="#808080" begin="zoomplus.mouseover" end="zoomplus.mouseout"/>
                        </use>
                        <path d="M-4,0h8M0,-4v8" fill="none" stroke="white" stroke-width="1.5" pointer-events="none"/>
                </g>
                <g id="zoomMin">
                        <use xlink:href="#rim" fill="#404040">
                                <set attributeName="fill" to="#808080" begin="zoomminus.mouseover" end="zoomminus.mouseout"/>
                        </use>
                        <path d="M-4,0h8" fill="none" stroke="white" stroke-width="1.5" pointer-events="none"/>
                </g>
                <g id="dirArrow">
                        <path fill="none" stroke="white" stroke-width="1.5" d="M0,-3.0v7 M-2.5,-0.5L0,-3.0L2.5,-0.5"/>
                </g>
               <g id="resetDef">
                       <use xlink:href="#rim2" fill="#404040">
                               <set attributeName="fill" to="#808080" begin="reset.mouseover" end="reset.mouseout"/>
                       </use>
               </g>
        </defs>

<script type="text/javascript">
var viewWidth = 1133;
var viewHeight = 1106;
var sectionId = 'dynsection-1';
</script>
<script xlink:href="svgpan.js"/>
<svg id="graph" class="graph">
<g id="viewport">
<title>/home/bdn_jz/bdn_jz/camera&#45;tracker&#45;cpp/CameraTrackerLinux/include/nlohmann/detail/meta/cpp_future.hpp</title>
<polygon fill="#ffffff" stroke="transparent" points="-4,4 -4,-1102 1129.4752,-1102 1129.4752,4 -4,4"/>
<!-- Node4 -->
<g id="node1" class="node">
<title>Node4</title>
<polygon fill="#bfbfbf" stroke="#000000" points="260,-1034.5 260,-1097.5 404,-1097.5 404,-1034.5 260,-1034.5"/>
<text text-anchor="start" x="268" y="-1085.5" font-family="Helvetica,sans-Serif" font-size="10.00" fill="#000000">/home/bdn_jz/bdn_jz</text>
<text text-anchor="start" x="268" y="-1074.5" font-family="Helvetica,sans-Serif" font-size="10.00" fill="#000000">/camera&#45;tracker&#45;cpp</text>
<text text-anchor="start" x="268" y="-1063.5" font-family="Helvetica,sans-Serif" font-size="10.00" fill="#000000">/CameraTrackerLinux/include</text>
<text text-anchor="start" x="268" y="-1052.5" font-family="Helvetica,sans-Serif" font-size="10.00" fill="#000000">/nlohmann/detail/meta/cpp</text>
<text text-anchor="middle" x="332" y="-1041.5" font-family="Helvetica,sans-Serif" font-size="10.00" fill="#000000">_future.hpp</text>
</g>
<!-- Node5 -->
<g id="node2" class="node">
<title>Node5</title>
<g id="a_node2"><a xlink:href="json_8hpp.html" target="_top" xlink:title="/home/bdn_jz/bdn_jz\l/camera&#45;tracker&#45;cpp\l/CameraTrackerLinux/include\l/nlohmann/json.hpp">
<polygon fill="#ffffff" stroke="#000000" points="512,-356.5 512,-408.5 656,-408.5 656,-356.5 512,-356.5"/>
<text text-anchor="start" x="520" y="-396.5" font-family="Helvetica,sans-Serif" font-size="10.00" fill="#000000">/home/bdn_jz/bdn_jz</text>
<text text-anchor="start" x="520" y="-385.5" font-family="Helvetica,sans-Serif" font-size="10.00" fill="#000000">/camera&#45;tracker&#45;cpp</text>
<text text-anchor="start" x="520" y="-374.5" font-family="Helvetica,sans-Serif" font-size="10.00" fill="#000000">/CameraTrackerLinux/include</text>
<text text-anchor="middle" x="584" y="-363.5" font-family="Helvetica,sans-Serif" font-size="10.00" fill="#000000">/nlohmann/json.hpp</text>
</a>
</g>
</g>
<!-- Node4&#45;&gt;Node5 -->
<g id="edge1" class="edge">
<title>Node4&#45;&gt;Node5</title>
<path fill="none" stroke="#191970" d="M250.0291,-1053.2924C151.7172,-1032.8542 0,-982.4489 0,-866 0,-866 0,-866 0,-566 0,-476.8437 77.7751,-479.466 160,-445 222.017,-419.0045 407.8288,-398.5604 511.7073,-388.7876"/>
<polygon fill="#191970" stroke="#191970" points="249.4666,-1056.7493 259.9609,-1055.2936 250.8493,-1049.8872 249.4666,-1056.7493"/>
</g>
<!-- Node13 -->
<g id="node10" class="node">
<title>Node13</title>
<g id="a_node10"><a xlink:href="from__json_8hpp.html" target="_top" xlink:title="/home/bdn_jz/bdn_jz\l/camera&#45;tracker&#45;cpp\l/CameraTrackerLinux/include\l/nlohmann/detail/conversions\l/from_json.hpp">
<polygon fill="#ffffff" stroke="#000000" points="28,-634.5 28,-697.5 172,-697.5 172,-634.5 28,-634.5"/>
<text text-anchor="start" x="36" y="-685.5" font-family="Helvetica,sans-Serif" font-size="10.00" fill="#000000">/home/bdn_jz/bdn_jz</text>
<text text-anchor="start" x="36" y="-674.5" font-family="Helvetica,sans-Serif" font-size="10.00" fill="#000000">/camera&#45;tracker&#45;cpp</text>
<text text-anchor="start" x="36" y="-663.5" font-family="Helvetica,sans-Serif" font-size="10.00" fill="#000000">/CameraTrackerLinux/include</text>
<text text-anchor="start" x="36" y="-652.5" font-family="Helvetica,sans-Serif" font-size="10.00" fill="#000000">/nlohmann/detail/conversions</text>
<text text-anchor="middle" x="100" y="-641.5" font-family="Helvetica,sans-Serif" font-size="10.00" fill="#000000">/from_json.hpp</text>
</a>
</g>
</g>
<!-- Node4&#45;&gt;Node13 -->
<g id="edge10" class="edge">
<title>Node4&#45;&gt;Node13</title>
<path fill="none" stroke="#191970" d="M296.4767,-1026.4822C289.0049,-1017.4055 281.4429,-1007.5944 275,-998 205.0764,-893.8741 141.3605,-758.6199 114.0536,-697.9277"/>
<polygon fill="#191970" stroke="#191970" points="293.881,-1028.8338 302.9893,-1034.2458 299.2439,-1024.335 293.881,-1028.8338"/>
</g>
<!-- Node15 -->
<g id="node12" class="node">
<title>Node15</title>
<g id="a_node12"><a xlink:href="to__json_8hpp.html" target="_top" xlink:title="/home/bdn_jz/bdn_jz\l/camera&#45;tracker&#45;cpp\l/CameraTrackerLinux/include\l/nlohmann/detail/conversions\l/to_json.hpp">
<polygon fill="#ffffff" stroke="#000000" points="190,-634.5 190,-697.5 334,-697.5 334,-634.5 190,-634.5"/>
<text text-anchor="start" x="198" y="-685.5" font-family="Helvetica,sans-Serif" font-size="10.00" fill="#000000">/home/bdn_jz/bdn_jz</text>
<text text-anchor="start" x="198" y="-674.5" font-family="Helvetica,sans-Serif" font-size="10.00" fill="#000000">/camera&#45;tracker&#45;cpp</text>
<text text-anchor="start" x="198" y="-663.5" font-family="Helvetica,sans-Serif" font-size="10.00" fill="#000000">/CameraTrackerLinux/include</text>
<text text-anchor="start" x="198" y="-652.5" font-family="Helvetica,sans-Serif" font-size="10.00" fill="#000000">/nlohmann/detail/conversions</text>
<text text-anchor="middle" x="262" y="-641.5" font-family="Helvetica,sans-Serif" font-size="10.00" fill="#000000">/to_json.hpp</text>
</a>
</g>
</g>
<!-- Node4&#45;&gt;Node15 -->
<g id="edge14" class="edge">
<title>Node4&#45;&gt;Node15</title>
<path fill="none" stroke="#191970" d="M313.8838,-1024.7405C292.2321,-972.9719 257.2634,-880.9082 244,-798 239.5067,-769.9127 240.33,-762.2067 244,-734 245.5599,-722.011 248.6053,-709.1253 251.7539,-697.8293"/>
<polygon fill="#191970" stroke="#191970" points="310.7789,-1026.385 317.8948,-1034.2345 317.2271,-1023.6607 310.7789,-1026.385"/>
</g>
<!-- Node16 -->
<g id="node13" class="node">
<title>Node16</title>
<g id="a_node13"><a xlink:href="iter__impl_8hpp.html" target="_top" xlink:title="/home/bdn_jz/bdn_jz\l/camera&#45;tracker&#45;cpp\l/CameraTrackerLinux/include\l/nlohmann/detail/iterators\l/iter_impl.hpp">
<polygon fill="#ffffff" stroke="#000000" points="722,-734.5 722,-797.5 866,-797.5 866,-734.5 722,-734.5"/>
<text text-anchor="start" x="730" y="-785.5" font-family="Helvetica,sans-Serif" font-size="10.00" fill="#000000">/home/bdn_jz/bdn_jz</text>
<text text-anchor="start" x="730" y="-774.5" font-family="Helvetica,sans-Serif" font-size="10.00" fill="#000000">/camera&#45;tracker&#45;cpp</text>
<text text-anchor="start" x="730" y="-763.5" font-family="Helvetica,sans-Serif" font-size="10.00" fill="#000000">/CameraTrackerLinux/include</text>
<text text-anchor="start" x="730" y="-752.5" font-family="Helvetica,sans-Serif" font-size="10.00" fill="#000000">/nlohmann/detail/iterators</text>
<text text-anchor="middle" x="794" y="-741.5" font-family="Helvetica,sans-Serif" font-size="10.00" fill="#000000">/iter_impl.hpp</text>
</a>
</g>
</g>
<!-- Node4&#45;&gt;Node16 -->
<g id="edge17" class="edge">
<title>Node4&#45;&gt;Node16</title>
<path fill="none" stroke="#191970" d="M414.0031,-1049.0538C455.4176,-1038.2854 505.3609,-1021.8042 546,-998 639.6071,-943.1701 726.7712,-847.3066 768.3965,-797.7205"/>
<polygon fill="#191970" stroke="#191970" points="413.0498,-1045.6847 404.2163,-1051.5344 414.7697,-1052.4701 413.0498,-1045.6847"/>
</g>
<!-- Node17 -->
<g id="node14" class="node">
<title>Node17</title>
<g id="a_node14"><a xlink:href="iterator__traits_8hpp.html" target="_top" xlink:title="/home/bdn_jz/bdn_jz\l/camera&#45;tracker&#45;cpp\l/CameraTrackerLinux/include\l/nlohmann/detail/iterators\l/iterator_traits.hpp">
<polygon fill="#ffffff" stroke="#000000" points="360,-934.5 360,-997.5 504,-997.5 504,-934.5 360,-934.5"/>
<text text-anchor="start" x="368" y="-985.5" font-family="Helvetica,sans-Serif" font-size="10.00" fill="#000000">/home/bdn_jz/bdn_jz</text>
<text text-anchor="start" x="368" y="-974.5" font-family="Helvetica,sans-Serif" font-size="10.00" fill="#000000">/camera&#45;tracker&#45;cpp</text>
<text text-anchor="start" x="368" y="-963.5" font-family="Helvetica,sans-Serif" font-size="10.00" fill="#000000">/CameraTrackerLinux/include</text>
<text text-anchor="start" x="368" y="-952.5" font-family="Helvetica,sans-Serif" font-size="10.00" fill="#000000">/nlohmann/detail/iterators</text>
<text text-anchor="middle" x="432" y="-941.5" font-family="Helvetica,sans-Serif" font-size="10.00" fill="#000000">/iterator_traits.hpp</text>
</a>
</g>
</g>
<!-- Node4&#45;&gt;Node17 -->
<g id="edge19" class="edge">
<title>Node4&#45;&gt;Node17</title>
<path fill="none" stroke="#191970" d="M370.9199,-1027.0801C380.6221,-1017.3779 390.9104,-1007.0896 400.222,-997.778"/>
<polygon fill="#191970" stroke="#191970" points="368.2368,-1024.8134 363.6406,-1034.3594 373.1866,-1029.7632 368.2368,-1024.8134"/>
</g>
<!-- Node21 -->
<g id="node18" class="node">
<title>Node21</title>
<g id="a_node18"><a xlink:href="serializer_8hpp.html" target="_top" xlink:title="/home/bdn_jz/bdn_jz\l/camera&#45;tracker&#45;cpp\l/CameraTrackerLinux/include\l/nlohmann/detail/output/serializer.hpp">
<polygon fill="#ffffff" stroke="#000000" points="584.5,-445.5 584.5,-497.5 763.5,-497.5 763.5,-445.5 584.5,-445.5"/>
<text text-anchor="start" x="592.5" y="-485.5" font-family="Helvetica,sans-Serif" font-size="10.00" fill="#000000">/home/bdn_jz/bdn_jz</text>
<text text-anchor="start" x="592.5" y="-474.5" font-family="Helvetica,sans-Serif" font-size="10.00" fill="#000000">/camera&#45;tracker&#45;cpp</text>
<text text-anchor="start" x="592.5" y="-463.5" font-family="Helvetica,sans-Serif" font-size="10.00" fill="#000000">/CameraTrackerLinux/include</text>
<text text-anchor="middle" x="674" y="-452.5" font-family="Helvetica,sans-Serif" font-size="10.00" fill="#000000">/nlohmann/detail/output/serializer.hpp</text>
</a>
</g>
</g>
<!-- Node4&#45;&gt;Node21 -->
<g id="edge47" class="edge">
<title>Node4&#45;&gt;Node21</title>
<path fill="none" stroke="#191970" d="M414.0662,-1054.2597C449.7124,-1044.9128 488.7749,-1028.1299 513,-998 550.1397,-951.8077 532,-925.2713 532,-866 532,-866 532,-866 532,-666 532,-594.2975 595.7289,-531.3745 637.8,-497.6475"/>
<polygon fill="#191970" stroke="#191970" points="412.9941,-1050.919 404.1179,-1056.7038 414.6642,-1057.7168 412.9941,-1050.919"/>
</g>
<!-- Node24 -->
<g id="node21" class="node">
<title>Node24</title>
<g id="a_node21"><a xlink:href="type__traits_8hpp.html" target="_top" xlink:title="/home/bdn_jz/bdn_jz\l/camera&#45;tracker&#45;cpp\l/CameraTrackerLinux/include\l/nlohmann/detail/meta/type\l_traits.hpp">
<polygon fill="#ffffff" stroke="#000000" points="360,-834.5 360,-897.5 504,-897.5 504,-834.5 360,-834.5"/>
<text text-anchor="start" x="368" y="-885.5" font-family="Helvetica,sans-Serif" font-size="10.00" fill="#000000">/home/bdn_jz/bdn_jz</text>
<text text-anchor="start" x="368" y="-874.5" font-family="Helvetica,sans-Serif" font-size="10.00" fill="#000000">/camera&#45;tracker&#45;cpp</text>
<text text-anchor="start" x="368" y="-863.5" font-family="Helvetica,sans-Serif" font-size="10.00" fill="#000000">/CameraTrackerLinux/include</text>
<text text-anchor="start" x="368" y="-852.5" font-family="Helvetica,sans-Serif" font-size="10.00" fill="#000000">/nlohmann/detail/meta/type</text>
<text text-anchor="middle" x="432" y="-841.5" font-family="Helvetica,sans-Serif" font-size="10.00" fill="#000000">_traits.hpp</text>
</a>
</g>
</g>
<!-- Node4&#45;&gt;Node24 -->
<g id="edge46" class="edge">
<title>Node4&#45;&gt;Node24</title>
<path fill="none" stroke="#191970" d="M330.5178,-1024.3846C331.2791,-997.1086 335.6793,-961.5388 351,-934 358.766,-920.0408 370.6085,-907.7159 382.8599,-897.5267"/>
<polygon fill="#191970" stroke="#191970" points="327.018,-1024.354 330.389,-1034.3982 334.0174,-1024.4441 327.018,-1024.354"/>
</g>
<!-- Node6 -->
<g id="node3" class="node">
<title>Node6</title>
<g id="a_node3"><a xlink:href="_json_utilization_8h.html" target="_top" xlink:title="This file contains the declaration of the namespace jsonUtilization. ">
<polygon fill="#ffffff" stroke="#000000" points="512,-267.5 512,-319.5 656,-319.5 656,-267.5 512,-267.5"/>
<text text-anchor="start" x="520" y="-307.5" font-family="Helvetica,sans-Serif" font-size="10.00" fill="#000000">/home/bdn_jz/bdn_jz</text>
<text text-anchor="start" x="520" y="-296.5" font-family="Helvetica,sans-Serif" font-size="10.00" fill="#000000">/camera&#45;tracker&#45;cpp</text>
<text text-anchor="start" x="520" y="-285.5" font-family="Helvetica,sans-Serif" font-size="10.00" fill="#000000">/CameraTrackerLinux/include</text>
<text text-anchor="middle" x="584" y="-274.5" font-family="Helvetica,sans-Serif" font-size="10.00" fill="#000000">/JsonUtilization.h</text>
</a>
</g>
</g>
<!-- Node5&#45;&gt;Node6 -->
<g id="edge2" class="edge">
<title>Node5&#45;&gt;Node6</title>
<path fill="none" stroke="#191970" d="M584,-346.1155C584,-337.2061 584,-327.8475 584,-319.5341"/>
<polygon fill="#191970" stroke="#191970" points="580.5001,-346.2784 584,-356.2784 587.5001,-346.2785 580.5001,-346.2784"/>
</g>
<!-- Node7 -->
<g id="node4" class="node">
<title>Node7</title>
<g id="a_node4"><a xlink:href="_pose_estimation_8h.html" target="_top" xlink:title="This file contains the declaration of the PoseEstimation class. ">
<polygon fill="#ffffff" stroke="#000000" points="435,-178.5 435,-230.5 579,-230.5 579,-178.5 435,-178.5"/>
<text text-anchor="start" x="443" y="-218.5" font-family="Helvetica,sans-Serif" font-size="10.00" fill="#000000">/home/bdn_jz/bdn_jz</text>
<text text-anchor="start" x="443" y="-207.5" font-family="Helvetica,sans-Serif" font-size="10.00" fill="#000000">/camera&#45;tracker&#45;cpp</text>
<text text-anchor="start" x="443" y="-196.5" font-family="Helvetica,sans-Serif" font-size="10.00" fill="#000000">/CameraTrackerLinux/include</text>
<text text-anchor="middle" x="507" y="-185.5" font-family="Helvetica,sans-Serif" font-size="10.00" fill="#000000">/PoseEstimation.h</text>
</a>
</g>
</g>
<!-- Node6&#45;&gt;Node7 -->
<g id="edge3" class="edge">
<title>Node6&#45;&gt;Node7</title>
<path fill="none" stroke="#191970" d="M554.7711,-259.7159C546.406,-250.0472 537.42,-239.6608 529.5239,-230.5341"/>
<polygon fill="#191970" stroke="#191970" points="552.1242,-262.0059 561.3139,-267.2784 557.4179,-257.4259 552.1242,-262.0059"/>
</g>
<!-- Node12 -->
<g id="node9" class="node">
<title>Node12</title>
<g id="a_node9"><a xlink:href="_json_utilization_8cpp.html" target="_top" xlink:title="/home/bdn_jz/bdn_jz\l/camera&#45;tracker&#45;cpp\l/CameraTrackerLinux/src\l/JsonUtilization.cpp">
<polygon fill="#ffffff" stroke="#000000" points="597.5,-178.5 597.5,-230.5 724.5,-230.5 724.5,-178.5 597.5,-178.5"/>
<text text-anchor="start" x="605.5" y="-218.5" font-family="Helvetica,sans-Serif" font-size="10.00" fill="#000000">/home/bdn_jz/bdn_jz</text>
<text text-anchor="start" x="605.5" y="-207.5" font-family="Helvetica,sans-Serif" font-size="10.00" fill="#000000">/camera&#45;tracker&#45;cpp</text>
<text text-anchor="start" x="605.5" y="-196.5" font-family="Helvetica,sans-Serif" font-size="10.00" fill="#000000">/CameraTrackerLinux/src</text>
<text text-anchor="middle" x="661" y="-185.5" font-family="Helvetica,sans-Serif" font-size="10.00" fill="#000000">/JsonUtilization.cpp</text>
</a>
</g>
</g>
<!-- Node6&#45;&gt;Node12 -->
<g id="edge9" class="edge">
<title>Node6&#45;&gt;Node12</title>
<path fill="none" stroke="#191970" d="M613.2289,-259.7159C621.594,-250.0472 630.58,-239.6608 638.4761,-230.5341"/>
<polygon fill="#191970" stroke="#191970" points="610.5821,-257.4259 606.6861,-267.2784 615.8758,-262.0059 610.5821,-257.4259"/>
</g>
<!-- Node8 -->
<g id="node5" class="node">
<title>Node8</title>
<g id="a_node5"><a xlink:href="_tracker_8h.html" target="_top" xlink:title="This file contains declarations of the Tracker class. ">
<polygon fill="#ffffff" stroke="#000000" points="435,-89.5 435,-141.5 579,-141.5 579,-89.5 435,-89.5"/>
<text text-anchor="start" x="443" y="-129.5" font-family="Helvetica,sans-Serif" font-size="10.00" fill="#000000">/home/bdn_jz/bdn_jz</text>
<text text-anchor="start" x="443" y="-118.5" font-family="Helvetica,sans-Serif" font-size="10.00" fill="#000000">/camera&#45;tracker&#45;cpp</text>
<text text-anchor="start" x="443" y="-107.5" font-family="Helvetica,sans-Serif" font-size="10.00" fill="#000000">/CameraTrackerLinux/include</text>
<text text-anchor="middle" x="507" y="-96.5" font-family="Helvetica,sans-Serif" font-size="10.00" fill="#000000">/Tracker.h</text>
</a>
</g>
</g>
<!-- Node7&#45;&gt;Node8 -->
<g id="edge4" class="edge">
<title>Node7&#45;&gt;Node8</title>
<path fill="none" stroke="#191970" d="M507,-168.1155C507,-159.2061 507,-149.8475 507,-141.5341"/>
<polygon fill="#191970" stroke="#191970" points="503.5001,-168.2784 507,-178.2784 510.5001,-168.2785 503.5001,-168.2784"/>
</g>
<!-- Node9 -->
<g id="node6" class="node">
<title>Node9</title>
<g id="a_node6"><a xlink:href="main_8cpp.html" target="_top" xlink:title="/home/bdn_jz/bdn_jz\l/camera&#45;tracker&#45;cpp\l/CameraTrackerLinux/main.cpp">
<polygon fill="#ffffff" stroke="#000000" points="330.5,-6 330.5,-47 483.5,-47 483.5,-6 330.5,-6"/>
<text text-anchor="start" x="338.5" y="-35" font-family="Helvetica,sans-Serif" font-size="10.00" fill="#000000">/home/bdn_jz/bdn_jz</text>
<text text-anchor="start" x="338.5" y="-24" font-family="Helvetica,sans-Serif" font-size="10.00" fill="#000000">/camera&#45;tracker&#45;cpp</text>
<text text-anchor="middle" x="407" y="-13" font-family="Helvetica,sans-Serif" font-size="10.00" fill="#000000">/CameraTrackerLinux/main.cpp</text>
</a>
</g>
</g>
<!-- Node7&#45;&gt;Node9 -->
<g id="edge7" class="edge">
<title>Node7&#45;&gt;Node9</title>
<path fill="none" stroke="#191970" d="M452.9869,-172.0704C442.5858,-163.5125 432.8214,-153.4232 426,-142 408.3921,-112.5138 405.7518,-71.623 405.9908,-47.2355"/>
<polygon fill="#191970" stroke="#191970" points="450.9816,-174.9445 461.0267,-178.313 455.2747,-169.4155 450.9816,-174.9445"/>
</g>
<!-- Node11 -->
<g id="node8" class="node">
<title>Node11</title>
<g id="a_node8"><a xlink:href="_pose_estimation_8cpp.html" target="_top" xlink:title="/home/bdn_jz/bdn_jz\l/camera&#45;tracker&#45;cpp\l/CameraTrackerLinux/src\l/PoseEstimation.cpp">
<polygon fill="#ffffff" stroke="#000000" points="597.5,-89.5 597.5,-141.5 724.5,-141.5 724.5,-89.5 597.5,-89.5"/>
<text text-anchor="start" x="605.5" y="-129.5" font-family="Helvetica,sans-Serif" font-size="10.00" fill="#000000">/home/bdn_jz/bdn_jz</text>
<text text-anchor="start" x="605.5" y="-118.5" font-family="Helvetica,sans-Serif" font-size="10.00" fill="#000000">/camera&#45;tracker&#45;cpp</text>
<text text-anchor="start" x="605.5" y="-107.5" font-family="Helvetica,sans-Serif" font-size="10.00" fill="#000000">/CameraTrackerLinux/src</text>
<text text-anchor="middle" x="661" y="-96.5" font-family="Helvetica,sans-Serif" font-size="10.00" fill="#000000">/PoseEstimation.cpp</text>
</a>
</g>
</g>
<!-- Node7&#45;&gt;Node11 -->
<g id="edge8" class="edge">
<title>Node7&#45;&gt;Node11</title>
<path fill="none" stroke="#191970" d="M561.5074,-172.9989C579.3274,-162.7004 598.9091,-151.3837 615.9521,-141.5341"/>
<polygon fill="#191970" stroke="#191970" points="559.279,-170.2443 552.3721,-178.2784 562.7816,-176.305 559.279,-170.2443"/>
</g>
<!-- Node8&#45;&gt;Node9 -->
<g id="edge5" class="edge">
<title>Node8&#45;&gt;Node9</title>
<path fill="none" stroke="#191970" d="M469.8953,-82.4768C456.6068,-70.6501 442.014,-57.6625 430.2327,-47.1771"/>
<polygon fill="#191970" stroke="#191970" points="467.7407,-85.2446 477.5376,-89.2784 472.3945,-80.0156 467.7407,-85.2446"/>
</g>
<!-- Node10 -->
<g id="node7" class="node">
<title>Node10</title>
<g id="a_node7"><a xlink:href="_tracker_8cpp.html" target="_top" xlink:title="/home/bdn_jz/bdn_jz\l/camera&#45;tracker&#45;cpp\l/CameraTrackerLinux/src\l/Tracker.cpp">
<polygon fill="#ffffff" stroke="#000000" points="501.5,-.5 501.5,-52.5 628.5,-52.5 628.5,-.5 501.5,-.5"/>
<text text-anchor="start" x="509.5" y="-40.5" font-family="Helvetica,sans-Serif" font-size="10.00" fill="#000000">/home/bdn_jz/bdn_jz</text>
<text text-anchor="start" x="509.5" y="-29.5" font-family="Helvetica,sans-Serif" font-size="10.00" fill="#000000">/camera&#45;tracker&#45;cpp</text>
<text text-anchor="start" x="509.5" y="-18.5" font-family="Helvetica,sans-Serif" font-size="10.00" fill="#000000">/CameraTrackerLinux/src</text>
<text text-anchor="middle" x="565" y="-7.5" font-family="Helvetica,sans-Serif" font-size="10.00" fill="#000000">/Tracker.cpp</text>
</a>
</g>
</g>
<!-- Node8&#45;&gt;Node10 -->
<g id="edge6" class="edge">
<title>Node8&#45;&gt;Node10</title>
<path fill="none" stroke="#191970" d="M529.5793,-80.8525C535.719,-71.4313 542.2629,-61.3897 548.0339,-52.5341"/>
<polygon fill="#191970" stroke="#191970" points="526.6158,-78.9895 524.0882,-89.2784 532.4804,-82.8114 526.6158,-78.9895"/>
</g>
<!-- Node13&#45;&gt;Node5 -->
<g id="edge11" class="edge">
<title>Node13&#45;&gt;Node5</title>
<path fill="none" stroke="#191970" d="M104.8659,-624.262C109.6376,-596.7848 118.9596,-561.0331 137,-534 172.4864,-480.8246 191.7863,-471.4212 250,-445 334.8755,-406.478 442.2102,-391.6991 511.9502,-386.0292"/>
<polygon fill="#191970" stroke="#191970" points="101.3754,-623.9249 103.2513,-634.3523 108.2875,-625.031 101.3754,-623.9249"/>
</g>
<!-- Node14 -->
<g id="node11" class="node">
<title>Node14</title>
<g id="a_node11"><a xlink:href="adl__serializer_8hpp.html" target="_top" xlink:title="/home/bdn_jz/bdn_jz\l/camera&#45;tracker&#45;cpp\l/CameraTrackerLinux/include\l/nlohmann/adl_serializer.hpp">
<polygon fill="#ffffff" stroke="#000000" points="146,-540 146,-592 290,-592 290,-540 146,-540"/>
<text text-anchor="start" x="154" y="-580" font-family="Helvetica,sans-Serif" font-size="10.00" fill="#000000">/home/bdn_jz/bdn_jz</text>
<text text-anchor="start" x="154" y="-569" font-family="Helvetica,sans-Serif" font-size="10.00" fill="#000000">/camera&#45;tracker&#45;cpp</text>
<text text-anchor="start" x="154" y="-558" font-family="Helvetica,sans-Serif" font-size="10.00" fill="#000000">/CameraTrackerLinux/include</text>
<text text-anchor="middle" x="218" y="-547" font-family="Helvetica,sans-Serif" font-size="10.00" fill="#000000">/nlohmann/adl_serializer.hpp</text>
</a>
</g>
</g>
<!-- Node13&#45;&gt;Node14 -->
<g id="edge12" class="edge">
<title>Node13&#45;&gt;Node14</title>
<path fill="none" stroke="#191970" d="M145.0289,-627.8399C159.1252,-615.8939 174.3503,-602.9913 187.228,-592.078"/>
<polygon fill="#191970" stroke="#191970" points="142.7021,-625.224 137.3359,-634.3594 147.2278,-630.5643 142.7021,-625.224"/>
</g>
<!-- Node14&#45;&gt;Node5 -->
<g id="edge13" class="edge">
<title>Node14&#45;&gt;Node5</title>
<path fill="none" stroke="#191970" d="M233.968,-530.967C248.3693,-503.3685 272.1741,-466.137 304,-445 337.5554,-422.7143 440.4885,-403.6394 511.7327,-392.6147"/>
<polygon fill="#191970" stroke="#191970" points="230.8304,-529.4159 229.4466,-539.92 237.0788,-532.5715 230.8304,-529.4159"/>
</g>
<!-- Node15&#45;&gt;Node5 -->
<g id="edge15" class="edge">
<title>Node15&#45;&gt;Node5</title>
<path fill="none" stroke="#191970" d="M286.0765,-625.2712C290.742,-616.4548 295.3183,-607.0557 299,-598 325.6025,-532.5665 291.5263,-494.413 342,-445 366.0305,-421.4744 449.677,-403.5248 511.9387,-393.0233"/>
<polygon fill="#191970" stroke="#191970" points="282.9187,-623.7519 281.2161,-634.209 289.0682,-627.096 282.9187,-623.7519"/>
</g>
<!-- Node15&#45;&gt;Node14 -->
<g id="edge16" class="edge">
<title>Node15&#45;&gt;Node14</title>
<path fill="none" stroke="#191970" d="M244.0351,-625.1707C239.1171,-613.9933 233.9205,-602.1829 229.4743,-592.078"/>
<polygon fill="#191970" stroke="#191970" points="240.8471,-626.6158 248.0781,-634.3594 247.2543,-623.7966 240.8471,-626.6158"/>
</g>
<!-- Node16&#45;&gt;Node5 -->
<g id="edge18" class="edge">
<title>Node16&#45;&gt;Node5</title>
<path fill="none" stroke="#191970" d="M814.3314,-724.892C844.4754,-657.3679 890.4167,-522.7244 821,-445 799.1388,-420.5225 717.5784,-402.8514 656.1978,-392.6712"/>
<polygon fill="#191970" stroke="#191970" points="810.9816,-723.8022 810.0142,-734.3528 817.3498,-726.7083 810.9816,-723.8022"/>
</g>
<!-- Node18 -->
<g id="node15" class="node">
<title>Node18</title>
<g id="a_node15"><a xlink:href="input__adapters_8hpp.html" target="_top" xlink:title="/home/bdn_jz/bdn_jz\l/camera&#45;tracker&#45;cpp\l/CameraTrackerLinux/include\l/nlohmann/detail/input/input\l_adapters.hpp">
<polygon fill="#ffffff" stroke="#000000" points="884,-734.5 884,-797.5 1028,-797.5 1028,-734.5 884,-734.5"/>
<text text-anchor="start" x="892" y="-785.5" font-family="Helvetica,sans-Serif" font-size="10.00" fill="#000000">/home/bdn_jz/bdn_jz</text>
<text text-anchor="start" x="892" y="-774.5" font-family="Helvetica,sans-Serif" font-size="10.00" fill="#000000">/camera&#45;tracker&#45;cpp</text>
<text text-anchor="start" x="892" y="-763.5" font-family="Helvetica,sans-Serif" font-size="10.00" fill="#000000">/CameraTrackerLinux/include</text>
<text text-anchor="start" x="892" y="-752.5" font-family="Helvetica,sans-Serif" font-size="10.00" fill="#000000">/nlohmann/detail/input/input</text>
<text text-anchor="middle" x="956" y="-741.5" font-family="Helvetica,sans-Serif" font-size="10.00" fill="#000000">_adapters.hpp</text>
</a>
</g>
</g>
<!-- Node17&#45;&gt;Node18 -->
<g id="edge20" class="edge">
<title>Node17&#45;&gt;Node18</title>
<path fill="none" stroke="#191970" d="M513.7392,-935.3864C602.7322,-901.9664 749.1823,-846.7073 875,-798 877.8201,-796.9083 880.6939,-795.7918 883.5959,-794.6612"/>
<polygon fill="#191970" stroke="#191970" points="512.3756,-932.1598 504.2438,-938.9513 514.836,-938.7132 512.3756,-932.1598"/>
</g>
<!-- Node17&#45;&gt;Node24 -->
<g id="edge33" class="edge">
<title>Node17&#45;&gt;Node24</title>
<path fill="none" stroke="#191970" d="M432,-924.2111C432,-915.37 432,-906.1767 432,-897.778"/>
<polygon fill="#191970" stroke="#191970" points="428.5001,-924.3593 432,-934.3594 435.5001,-924.3594 428.5001,-924.3593"/>
</g>
<!-- Node18&#45;&gt;Node5 -->
<g id="edge21" class="edge">
<title>Node18&#45;&gt;Node5</title>
<path fill="none" stroke="#191970" d="M1037.6221,-747.5914C1063.6554,-737.4489 1089.6625,-721.859 1105,-698 1144.7066,-636.2328 1120.0071,-598.5469 1085,-534 1058.0294,-484.2709 1044.6215,-470.2559 994,-445 936.0943,-416.1098 757.3703,-396.9768 656.041,-388.1421"/>
<polygon fill="#191970" stroke="#191970" points="1036.2423,-744.3691 1028.0494,-751.0868 1038.6433,-750.9445 1036.2423,-744.3691"/>
</g>
<!-- Node19 -->
<g id="node16" class="node">
<title>Node19</title>
<g id="a_node16"><a xlink:href="binary__reader_8hpp.html" target="_top" xlink:title="/home/bdn_jz/bdn_jz\l/camera&#45;tracker&#45;cpp\l/CameraTrackerLinux/include\l/nlohmann/detail/input/binary\l_reader.hpp">
<polygon fill="#ffffff" stroke="#000000" points="657,-634.5 657,-697.5 801,-697.5 801,-634.5 657,-634.5"/>
<text text-anchor="start" x="665" y="-685.5" font-family="Helvetica,sans-Serif" font-size="10.00" fill="#000000">/home/bdn_jz/bdn_jz</text>
<text text-anchor="start" x="665" y="-674.5" font-family="Helvetica,sans-Serif" font-size="10.00" fill="#000000">/camera&#45;tracker&#45;cpp</text>
<text text-anchor="start" x="665" y="-663.5" font-family="Helvetica,sans-Serif" font-size="10.00" fill="#000000">/CameraTrackerLinux/include</text>
<text text-anchor="start" x="665" y="-652.5" font-family="Helvetica,sans-Serif" font-size="10.00" fill="#000000">/nlohmann/detail/input/binary</text>
<text text-anchor="middle" x="729" y="-641.5" font-family="Helvetica,sans-Serif" font-size="10.00" fill="#000000">_reader.hpp</text>
</a>
</g>
</g>
<!-- Node18&#45;&gt;Node19 -->
<g id="edge22" class="edge">
<title>Node18&#45;&gt;Node19</title>
<path fill="none" stroke="#191970" d="M875.2602,-730.4318C850.8754,-719.6896 824.284,-707.9753 800.5431,-697.5168"/>
<polygon fill="#191970" stroke="#191970" points="873.925,-733.6681 884.4874,-734.4966 876.747,-727.2622 873.925,-733.6681"/>
</g>
<!-- Node22 -->
<g id="node19" class="node">
<title>Node22</title>
<g id="a_node19"><a xlink:href="lexer_8hpp.html" target="_top" xlink:title="/home/bdn_jz/bdn_jz\l/camera&#45;tracker&#45;cpp\l/CameraTrackerLinux/include\l/nlohmann/detail/input/lexer.hpp">
<polygon fill="#ffffff" stroke="#000000" points="940.5,-640 940.5,-692 1095.5,-692 1095.5,-640 940.5,-640"/>
<text text-anchor="start" x="948.5" y="-680" font-family="Helvetica,sans-Serif" font-size="10.00" fill="#000000">/home/bdn_jz/bdn_jz</text>
<text text-anchor="start" x="948.5" y="-669" font-family="Helvetica,sans-Serif" font-size="10.00" fill="#000000">/camera&#45;tracker&#45;cpp</text>
<text text-anchor="start" x="948.5" y="-658" font-family="Helvetica,sans-Serif" font-size="10.00" fill="#000000">/CameraTrackerLinux/include</text>
<text text-anchor="middle" x="1018" y="-647" font-family="Helvetica,sans-Serif" font-size="10.00" fill="#000000">/nlohmann/detail/input/lexer.hpp</text>
</a>
</g>
</g>
<!-- Node18&#45;&gt;Node22 -->
<g id="edge28" class="edge">
<title>Node18&#45;&gt;Node22</title>
<path fill="none" stroke="#191970" d="M980.8989,-725.8405C987.9508,-714.4664 995.4413,-702.385 1001.8317,-692.078"/>
<polygon fill="#191970" stroke="#191970" points="977.912,-724.016 975.6172,-734.3594 983.8613,-727.7046 977.912,-724.016"/>
</g>
<!-- Node23 -->
<g id="node20" class="node">
<title>Node23</title>
<g id="a_node20"><a xlink:href="parser_8hpp.html" target="_top" xlink:title="/home/bdn_jz/bdn_jz\l/camera&#45;tracker&#45;cpp\l/CameraTrackerLinux/include\l/nlohmann/detail/input/parser.hpp">
<polygon fill="#ffffff" stroke="#000000" points="896.5,-540 896.5,-592 1057.5,-592 1057.5,-540 896.5,-540"/>
<text text-anchor="start" x="904.5" y="-580" font-family="Helvetica,sans-Serif" font-size="10.00" fill="#000000">/home/bdn_jz/bdn_jz</text>
<text text-anchor="start" x="904.5" y="-569" font-family="Helvetica,sans-Serif" font-size="10.00" fill="#000000">/camera&#45;tracker&#45;cpp</text>
<text text-anchor="start" x="904.5" y="-558" font-family="Helvetica,sans-Serif" font-size="10.00" fill="#000000">/CameraTrackerLinux/include</text>
<text text-anchor="middle" x="977" y="-547" font-family="Helvetica,sans-Serif" font-size="10.00" fill="#000000">/nlohmann/detail/input/parser.hpp</text>
</a>
</g>
</g>
<!-- Node18&#45;&gt;Node23 -->
<g id="edge32" class="edge">
<title>Node18&#45;&gt;Node23</title>
<path fill="none" stroke="#191970" d="M938.6083,-724.6767C929.9464,-698.3685 923.043,-663.7655 932,-634 936.528,-618.9528 945.5895,-604.1701 954.4019,-592.2515"/>
<polygon fill="#191970" stroke="#191970" points="935.3784,-726.0433 941.9848,-734.3261 941.9855,-723.7313 935.3784,-726.0433"/>
</g>
<!-- Node19&#45;&gt;Node5 -->
<g id="edge23" class="edge">
<title>Node19&#45;&gt;Node5</title>
<path fill="none" stroke="#191970" d="M789.0344,-627.3391C797.9353,-618.8063 805.8389,-608.9848 811,-598 840.1626,-535.931 837.711,-495.2105 791,-445 772.3981,-425.0045 708.0736,-407.5487 656.0093,-396.2049"/>
<polygon fill="#191970" stroke="#191970" points="786.4825,-624.9258 781.3615,-634.2008 791.1487,-630.1437 786.4825,-624.9258"/>
</g>
<!-- Node20 -->
<g id="node17" class="node">
<title>Node20</title>
<g id="a_node17"><a xlink:href="binary__writer_8hpp.html" target="_top" xlink:title="/home/bdn_jz/bdn_jz\l/camera&#45;tracker&#45;cpp\l/CameraTrackerLinux/include\l/nlohmann/detail/output/binary\l_writer.hpp">
<polygon fill="#ffffff" stroke="#000000" points="654.5,-534.5 654.5,-597.5 801.5,-597.5 801.5,-534.5 654.5,-534.5"/>
<text text-anchor="start" x="662.5" y="-585.5" font-family="Helvetica,sans-Serif" font-size="10.00" fill="#000000">/home/bdn_jz/bdn_jz</text>
<text text-anchor="start" x="662.5" y="-574.5" font-family="Helvetica,sans-Serif" font-size="10.00" fill="#000000">/camera&#45;tracker&#45;cpp</text>
<text text-anchor="start" x="662.5" y="-563.5" font-family="Helvetica,sans-Serif" font-size="10.00" fill="#000000">/CameraTrackerLinux/include</text>
<text text-anchor="start" x="662.5" y="-552.5" font-family="Helvetica,sans-Serif" font-size="10.00" fill="#000000">/nlohmann/detail/output/binary</text>
<text text-anchor="middle" x="728" y="-541.5" font-family="Helvetica,sans-Serif" font-size="10.00" fill="#000000">_writer.hpp</text>
</a>
</g>
</g>
<!-- Node19&#45;&gt;Node20 -->
<g id="edge24" class="edge">
<title>Node19&#45;&gt;Node20</title>
<path fill="none" stroke="#191970" d="M728.5821,-624.2111C728.4937,-615.37 728.4018,-606.1767 728.3178,-597.778"/>
<polygon fill="#191970" stroke="#191970" points="725.0837,-624.3949 728.6836,-634.3594 732.0833,-624.3248 725.0837,-624.3949"/>
</g>
<!-- Node20&#45;&gt;Node5 -->
<g id="edge25" class="edge">
<title>Node20&#45;&gt;Node5</title>
<path fill="none" stroke="#191970" d="M761.1678,-525.9362C777.5751,-501.0131 790.4958,-469.2132 773,-445 758.7807,-425.3212 703.2402,-408.4172 656.018,-397.1697"/>
<polygon fill="#191970" stroke="#191970" points="758.091,-524.2308 755.2631,-534.4413 763.8411,-528.2229 758.091,-524.2308"/>
</g>
<!-- Node20&#45;&gt;Node21 -->
<g id="edge26" class="edge">
<title>Node20&#45;&gt;Node21</title>
<path fill="none" stroke="#191970" d="M704.8064,-525.4112C699.431,-516.0043 693.8503,-506.238 688.9395,-497.6442"/>
<polygon fill="#191970" stroke="#191970" points="701.8683,-527.324 709.8686,-534.27 707.946,-523.851 701.8683,-527.324"/>
</g>
<!-- Node21&#45;&gt;Node5 -->
<g id="edge27" class="edge">
<title>Node21&#45;&gt;Node5</title>
<path fill="none" stroke="#191970" d="M640.1265,-438.0029C630.267,-428.2529 619.6472,-417.7511 610.3267,-408.5341"/>
<polygon fill="#191970" stroke="#191970" points="637.9123,-440.7356 647.4838,-445.2784 642.8343,-435.7583 637.9123,-440.7356"/>
</g>
<!-- Node22&#45;&gt;Node5 -->
<g id="edge29" class="edge">
<title>Node22&#45;&gt;Node5</title>
<path fill="none" stroke="#191970" d="M1049.0567,-631.5991C1056.375,-621.4741 1063.159,-609.9005 1067,-598 1075.7369,-570.9306 1080.8896,-558.8227 1067,-534 1030.0764,-468.0123 992.5891,-472.1091 922,-445 834.1199,-411.2505 726.2012,-395.3624 656.3094,-388.1381"/>
<polygon fill="#191970" stroke="#191970" points="1046.1274,-629.6681 1042.8365,-639.7389 1051.6894,-633.9184 1046.1274,-629.6681"/>
</g>
<!-- Node22&#45;&gt;Node23 -->
<g id="edge30" class="edge">
<title>Node22&#45;&gt;Node23</title>
<path fill="none" stroke="#191970" d="M1003.5031,-630.6418C998.3168,-617.9923 992.5683,-603.9715 987.7543,-592.2299"/>
<polygon fill="#191970" stroke="#191970" points="1000.3028,-632.0625 1007.3348,-639.9872 1006.7796,-629.4069 1000.3028,-632.0625"/>
</g>
<!-- Node23&#45;&gt;Node5 -->
<g id="edge31" class="edge">
<title>Node23&#45;&gt;Node5</title>
<path fill="none" stroke="#191970" d="M958.5492,-530.8386C942.1669,-503.165 915.6295,-465.8954 882,-445 844.9572,-421.9838 731.8696,-402.6731 656.152,-391.8527"/>
<polygon fill="#191970" stroke="#191970" points="955.693,-532.8928 963.7112,-539.8181 961.7617,-529.4041 955.693,-532.8928"/>
</g>
<!-- Node24&#45;&gt;Node5 -->
<g id="edge34" class="edge">
<title>Node24&#45;&gt;Node5</title>
<path fill="none" stroke="#191970" d="M429.7858,-824.2363C424.864,-731.2516 413.414,-514.0491 413,-498 412.3925,-474.4523 399.5021,-464.3047 413,-445 425.0447,-427.7737 470.7293,-411.5771 511.8488,-399.9898"/>
<polygon fill="#191970" stroke="#191970" points="426.3008,-824.614 430.3248,-834.4149 433.291,-824.2438 426.3008,-824.614"/>
</g>
<!-- Node24&#45;&gt;Node13 -->
<g id="edge35" class="edge">
<title>Node24&#45;&gt;Node13</title>
<path fill="none" stroke="#191970" d="M349.8647,-844.0743C315.728,-833.0216 276.561,-817.7179 244,-798 198.4548,-770.4192 154.6132,-727.021 127.5159,-697.5799"/>
<polygon fill="#191970" stroke="#191970" points="349.2255,-847.543 359.8156,-847.2233 351.3375,-840.8692 349.2255,-847.543"/>
</g>
<!-- Node24&#45;&gt;Node15 -->
<g id="edge36" class="edge">
<title>Node24&#45;&gt;Node15</title>
<path fill="none" stroke="#191970" d="M349.7981,-853.1957C317.1682,-843.6573 282.7642,-827.019 263,-798 243.0041,-768.6408 246.8554,-726.4435 253.0067,-697.7172"/>
<polygon fill="#191970" stroke="#191970" points="349.2811,-856.6824 359.8495,-855.9338 351.121,-849.9285 349.2811,-856.6824"/>
</g>
<!-- Node24&#45;&gt;Node16 -->
<g id="edge37" class="edge">
<title>Node24&#45;&gt;Node16</title>
<path fill="none" stroke="#191970" d="M514.0225,-849.3024C570.5097,-837.038 646.9851,-818.9162 713,-798 715.8828,-797.0866 718.8095,-796.1206 721.7557,-795.1158"/>
<polygon fill="#191970" stroke="#191970" points="513.1086,-845.9189 504.0706,-851.4474 514.5836,-852.7617 513.1086,-845.9189"/>
</g>
<!-- Node25 -->
<g id="node22" class="node">
<title>Node25</title>
<g id="a_node22"><a xlink:href="iteration__proxy_8hpp.html" target="_top" xlink:title="/home/bdn_jz/bdn_jz\l/camera&#45;tracker&#45;cpp\l/CameraTrackerLinux/include\l/nlohmann/detail/iterators\l/iteration_proxy.hpp">
<polygon fill="#ffffff" stroke="#000000" points="272,-734.5 272,-797.5 416,-797.5 416,-734.5 272,-734.5"/>
<text text-anchor="start" x="280" y="-785.5" font-family="Helvetica,sans-Serif" font-size="10.00" fill="#000000">/home/bdn_jz/bdn_jz</text>
<text text-anchor="start" x="280" y="-774.5" font-family="Helvetica,sans-Serif" font-size="10.00" fill="#000000">/camera&#45;tracker&#45;cpp</text>
<text text-anchor="start" x="280" y="-763.5" font-family="Helvetica,sans-Serif" font-size="10.00" fill="#000000">/CameraTrackerLinux/include</text>
<text text-anchor="start" x="280" y="-752.5" font-family="Helvetica,sans-Serif" font-size="10.00" fill="#000000">/nlohmann/detail/iterators</text>
<text text-anchor="middle" x="344" y="-741.5" font-family="Helvetica,sans-Serif" font-size="10.00" fill="#000000">/iteration_proxy.hpp</text>
</a>
</g>
</g>
<!-- Node24&#45;&gt;Node25 -->
<g id="edge38" class="edge">
<title>Node24&#45;&gt;Node25</title>
<path fill="none" stroke="#191970" d="M397.4993,-826.7946C389.0351,-817.1763 380.0785,-806.9983 371.9647,-797.778"/>
<polygon fill="#191970" stroke="#191970" points="394.9224,-829.1644 404.1563,-834.3594 400.1774,-824.54 394.9224,-829.1644"/>
</g>
<!-- Node26 -->
<g id="node23" class="node">
<title>Node26</title>
<g id="a_node23"><a xlink:href="json__ref_8hpp.html" target="_top" xlink:title="/home/bdn_jz/bdn_jz\l/camera&#45;tracker&#45;cpp\l/CameraTrackerLinux/include\l/nlohmann/detail/json_ref.hpp">
<polygon fill="#ffffff" stroke="#000000" points="422,-445.5 422,-497.5 566,-497.5 566,-445.5 422,-445.5"/>
<text text-anchor="start" x="430" y="-485.5" font-family="Helvetica,sans-Serif" font-size="10.00" fill="#000000">/home/bdn_jz/bdn_jz</text>
<text text-anchor="start" x="430" y="-474.5" font-family="Helvetica,sans-Serif" font-size="10.00" fill="#000000">/camera&#45;tracker&#45;cpp</text>
<text text-anchor="start" x="430" y="-463.5" font-family="Helvetica,sans-Serif" font-size="10.00" fill="#000000">/CameraTrackerLinux/include</text>
<text text-anchor="middle" x="494" y="-452.5" font-family="Helvetica,sans-Serif" font-size="10.00" fill="#000000">/nlohmann/detail/json_ref.hpp</text>
</a>
</g>
</g>
<!-- Node24&#45;&gt;Node26 -->
<g id="edge41" class="edge">
<title>Node24&#45;&gt;Node26</title>
<path fill="none" stroke="#191970" d="M449.678,-824.793C452.8714,-816.0751 455.861,-806.836 458,-798 484.4997,-688.5324 491.538,-553.641 493.3709,-497.7077"/>
<polygon fill="#191970" stroke="#191970" points="446.3204,-823.7747 446.0205,-834.3653 452.8593,-826.2732 446.3204,-823.7747"/>
</g>
<!-- Node27 -->
<g id="node24" class="node">
<title>Node27</title>
<g id="a_node24"><a xlink:href="is__sax_8hpp.html" target="_top" xlink:title="/home/bdn_jz/bdn_jz\l/camera&#45;tracker&#45;cpp\l/CameraTrackerLinux/include\l/nlohmann/detail/meta/is\l_sax.hpp">
<polygon fill="#ffffff" stroke="#000000" points="560,-734.5 560,-797.5 704,-797.5 704,-734.5 560,-734.5"/>
<text text-anchor="start" x="568" y="-785.5" font-family="Helvetica,sans-Serif" font-size="10.00" fill="#000000">/home/bdn_jz/bdn_jz</text>
<text text-anchor="start" x="568" y="-774.5" font-family="Helvetica,sans-Serif" font-size="10.00" fill="#000000">/camera&#45;tracker&#45;cpp</text>
<text text-anchor="start" x="568" y="-763.5" font-family="Helvetica,sans-Serif" font-size="10.00" fill="#000000">/CameraTrackerLinux/include</text>
<text text-anchor="start" x="568" y="-752.5" font-family="Helvetica,sans-Serif" font-size="10.00" fill="#000000">/nlohmann/detail/meta/is</text>
<text text-anchor="middle" x="632" y="-741.5" font-family="Helvetica,sans-Serif" font-size="10.00" fill="#000000">_sax.hpp</text>
</a>
</g>
</g>
<!-- Node24&#45;&gt;Node27 -->
<g id="edge43" class="edge">
<title>Node24&#45;&gt;Node27</title>
<path fill="none" stroke="#191970" d="M503.9892,-830.0054C525.2396,-819.3802 548.3258,-807.8371 568.9665,-797.5168"/>
<polygon fill="#191970" stroke="#191970" points="502.3858,-826.8939 495.0067,-834.4966 505.5163,-833.1549 502.3858,-826.8939"/>
</g>
<!-- Node25&#45;&gt;Node5 -->
<g id="edge39" class="edge">
<title>Node25&#45;&gt;Node5</title>
<path fill="none" stroke="#191970" d="M343.1839,-724.1524C342.548,-647.0252 345.544,-486.5281 380,-445 397.1479,-424.3325 460.317,-407.0264 511.8725,-395.9043"/>
<polygon fill="#191970" stroke="#191970" points="339.6874,-724.4993 343.2949,-734.461 346.687,-724.4239 339.6874,-724.4993"/>
</g>
<!-- Node25&#45;&gt;Node15 -->
<g id="edge40" class="edge">
<title>Node25&#45;&gt;Node15</title>
<path fill="none" stroke="#191970" d="M311.6172,-726.5088C303.7994,-716.9748 295.5437,-706.907 288.058,-697.778"/>
<polygon fill="#191970" stroke="#191970" points="309.0074,-728.846 318.0547,-734.3594 314.4203,-724.4074 309.0074,-728.846"/>
</g>
<!-- Node26&#45;&gt;Node5 -->
<g id="edge42" class="edge">
<title>Node26&#45;&gt;Node5</title>
<path fill="none" stroke="#191970" d="M527.8735,-438.0029C537.733,-428.2529 548.3528,-417.7511 557.6733,-408.5341"/>
<polygon fill="#191970" stroke="#191970" points="525.1657,-435.7583 520.5162,-445.2784 530.0877,-440.7356 525.1657,-435.7583"/>
</g>
<!-- Node27&#45;&gt;Node19 -->
<g id="edge44" class="edge">
<title>Node27&#45;&gt;Node19</title>
<path fill="none" stroke="#191970" d="M669.7523,-727.0801C679.1634,-717.3779 689.1431,-707.0896 698.1753,-697.778"/>
<polygon fill="#191970" stroke="#191970" points="667.1417,-724.7445 662.6914,-734.3594 672.1663,-729.6183 667.1417,-724.7445"/>
</g>
<!-- Node27&#45;&gt;Node23 -->
<g id="edge45" class="edge">
<title>Node27&#45;&gt;Node23</title>
<path fill="none" stroke="#191970" d="M713.9103,-733.7626C757.8516,-717.8296 772.4987,-719.0814 810,-698 863.638,-667.8473 918.1471,-621.0796 949.7048,-592.0642"/>
<polygon fill="#191970" stroke="#191970" points="712.5398,-730.5382 704.3943,-737.3133 714.9869,-737.0966 712.5398,-730.5382"/>
</g>
</g>
</svg>
        <g id="navigator" transform="translate(0 0)" fill="#404254">
                <rect fill="#f2f5e9" fill-opacity="0.5" stroke="#606060" stroke-width=".5" x="0" y="0" width="60" height="60"/>
                <use id="zoomplus" xlink:href="#zoomPlus" x="17" y="9" onmousedown="handleZoom(evt,'in')"/>
                <use id="zoomminus" xlink:href="#zoomMin" x="42" y="9" onmousedown="handleZoom(evt,'out')"/>
                <use id="reset" xlink:href="#resetDef" x="30" y="36" onmousedown="handleReset()"/>
                <g id="arrowUp" xlink:href="#dirArrow" transform="translate(30 24)" onmousedown="handlePan(0,-1)">
                  <use xlink:href="#rim" fill="#404040">
                        <set attributeName="fill" to="#808080" begin="arrowUp.mouseover" end="arrowUp.mouseout"/>
                  </use>
                  <path fill="none" stroke="white" stroke-width="1.5" d="M0,-3.0v7 M-2.5,-0.5L0,-3.0L2.5,-0.5"/>
                </g>
                <g id="arrowRight" xlink:href="#dirArrow" transform="rotate(90) translate(36 -43)" onmousedown="handlePan(1,0)">
                  <use xlink:href="#rim" fill="#404040">
                        <set attributeName="fill" to="#808080" begin="arrowRight.mouseover" end="arrowRight.mouseout"/>
                  </use>
                  <path fill="none" stroke="white" stroke-width="1.5" d="M0,-3.0v7 M-2.5,-0.5L0,-3.0L2.5,-0.5"/>
                </g>
                <g id="arrowDown" xlink:href="#dirArrow" transform="rotate(180) translate(-30 -48)" onmousedown="handlePan(0,1)">
                  <use xlink:href="#rim" fill="#404040">
                        <set attributeName="fill" to="#808080" begin="arrowDown.mouseover" end="arrowDown.mouseout"/>
                  </use>
                  <path fill="none" stroke="white" stroke-width="1.5" d="M0,-3.0v7 M-2.5,-0.5L0,-3.0L2.5,-0.5"/>
                </g>
                <g id="arrowLeft" xlink:href="#dirArrow" transform="rotate(270) translate(-36 17)" onmousedown="handlePan(-1,0)">
                  <use xlink:href="#rim" fill="#404040">
                        <set attributeName="fill" to="#808080" begin="arrowLeft.mouseover" end="arrowLeft.mouseout"/>
                  </use>
                  <path fill="none" stroke="white" stroke-width="1.5" d="M0,-3.0v7 M-2.5,-0.5L0,-3.0L2.5,-0.5"/>
                </g>
        </g>
        <svg viewBox="0 0 15 15" width="100%" height="30px" preserveAspectRatio="xMaxYMin meet">
         <g id="arrow_out" transform="scale(0.3 0.3)">
          <a xlink:href="cpp__future_8hpp__dep__incl_org.svg" target="_base">
           <rect id="button" ry="5" rx="5" y="6" x="6" height="38" width="38"
                fill="#f2f5e9" fill-opacity="0.5" stroke="#606060" stroke-width="1.0"/>
           <path id="arrow"
             d="M 11.500037,31.436501 C 11.940474,20.09759 22.043105,11.32322 32.158766,21.979434 L 37.068811,17.246167 C 37.068811,17.246167 37.088388,32 37.088388,32 L 22.160133,31.978069 C 22.160133,31.978069 26.997745,27.140456 26.997745,27.140456 C 18.528582,18.264221 13.291696,25.230495 11.500037,31.436501 z"
             style="fill:#404040;"/>
          </a>
         </g>
        </svg>
</svg>
