<?xml version="1.0" encoding="UTF-8" standalone="no"?>
<!DOCTYPE svg PUBLIC "-//W3C//DTD SVG 1.1//EN"
 "http://www.w3.org/Graphics/SVG/1.1/DTD/svg11.dtd">
<!-- Generated by graphviz version 2.40.1 (20161225.0304)
 -->
<!-- Title: /home/bdn_jz/bdn_jz/camera&#45;tracker&#45;cpp/CameraTrackerLinux/include/nlohmann/detail/meta/cpp_future.hpp Pages: 1 -->
<svg width="1133pt" height="928pt"
 viewBox="0.00 0.00 1133.48 928.00" xmlns="http://www.w3.org/2000/svg" xmlns:xlink="http://www.w3.org/1999/xlink">
<g id="graph0" class="graph" transform="scale(1 1) rotate(0) translate(4 924)">
<title>/home/bdn_jz/bdn_jz/camera&#45;tracker&#45;cpp/CameraTrackerLinux/include/nlohmann/detail/meta/cpp_future.hpp</title>
<polygon fill="#ffffff" stroke="transparent" points="-4,4 -4,-924 1129.4752,-924 1129.4752,4 -4,4"/>
<!-- Node4 -->
<g id="node1" class="node">
<title>Node4</title>
<polygon fill="#bfbfbf" stroke="#000000" points="260,-856.5 260,-919.5 404,-919.5 404,-856.5 260,-856.5"/>
<text text-anchor="start" x="268" y="-907.5" font-family="Helvetica,sans-Serif" font-size="10.00" fill="#000000">/home/bdn_jz/bdn_jz</text>
<text text-anchor="start" x="268" y="-896.5" font-family="Helvetica,sans-Serif" font-size="10.00" fill="#000000">/camera&#45;tracker&#45;cpp</text>
<text text-anchor="start" x="268" y="-885.5" font-family="Helvetica,sans-Serif" font-size="10.00" fill="#000000">/CameraTrackerLinux/include</text>
<text text-anchor="start" x="268" y="-874.5" font-family="Helvetica,sans-Serif" font-size="10.00" fill="#000000">/nlohmann/detail/meta/cpp</text>
<text text-anchor="middle" x="332" y="-863.5" font-family="Helvetica,sans-Serif" font-size="10.00" fill="#000000">_future.hpp</text>
</g>
<!-- Node5 -->
<g id="node2" class="node">
<title>Node5</title>
<g id="a_node2"><a xlink:href="json_8hpp.html" target="_top" xlink:title="/home/bdn_jz/bdn_jz\l/camera&#45;tracker&#45;cpp\l/CameraTrackerLinux/include\l/nlohmann/json.hpp">
<polygon fill="#ffffff" stroke="#000000" points="512,-178.5 512,-230.5 656,-230.5 656,-178.5 512,-178.5"/>
<text text-anchor="start" x="520" y="-218.5" font-family="Helvetica,sans-Serif" font-size="10.00" fill="#000000">/home/bdn_jz/bdn_jz</text>
<text text-anchor="start" x="520" y="-207.5" font-family="Helvetica,sans-Serif" font-size="10.00" fill="#000000">/camera&#45;tracker&#45;cpp</text>
<text text-anchor="start" x="520" y="-196.5" font-family="Helvetica,sans-Serif" font-size="10.00" fill="#000000">/CameraTrackerLinux/include</text>
<text text-anchor="middle" x="584" y="-185.5" font-family="Helvetica,sans-Serif" font-size="10.00" fill="#000000">/nlohmann/json.hpp</text>
</a>
</g>
</g>
<!-- Node4&#45;&gt;Node5 -->
<g id="edge1" class="edge">
<title>Node4&#45;&gt;Node5</title>
<path fill="none" stroke="#191970" d="M250.0291,-875.2924C151.7172,-854.8542 0,-804.4489 0,-688 0,-688 0,-688 0,-388 0,-298.8437 77.7751,-301.466 160,-267 222.017,-241.0045 407.8288,-220.5604 511.7073,-210.7876"/>
<polygon fill="#191970" stroke="#191970" points="249.4666,-878.7493 259.9609,-877.2936 250.8493,-871.8872 249.4666,-878.7493"/>
</g>
<!-- Node9 -->
<g id="node6" class="node">
<title>Node9</title>
<g id="a_node6"><a xlink:href="from__json_8hpp.html" target="_top" xlink:title="/home/bdn_jz/bdn_jz\l/camera&#45;tracker&#45;cpp\l/CameraTrackerLinux/include\l/nlohmann/detail/conversions\l/from_json.hpp">
<polygon fill="#ffffff" stroke="#000000" points="28,-456.5 28,-519.5 172,-519.5 172,-456.5 28,-456.5"/>
<text text-anchor="start" x="36" y="-507.5" font-family="Helvetica,sans-Serif" font-size="10.00" fill="#000000">/home/bdn_jz/bdn_jz</text>
<text text-anchor="start" x="36" y="-496.5" font-family="Helvetica,sans-Serif" font-size="10.00" fill="#000000">/camera&#45;tracker&#45;cpp</text>
<text text-anchor="start" x="36" y="-485.5" font-family="Helvetica,sans-Serif" font-size="10.00" fill="#000000">/CameraTrackerLinux/include</text>
<text text-anchor="start" x="36" y="-474.5" font-family="Helvetica,sans-Serif" font-size="10.00" fill="#000000">/nlohmann/detail/conversions</text>
<text text-anchor="middle" x="100" y="-463.5" font-family="Helvetica,sans-Serif" font-size="10.00" fill="#000000">/from_json.hpp</text>
</a>
</g>
</g>
<!-- Node4&#45;&gt;Node9 -->
<g id="edge5" class="edge">
<title>Node4&#45;&gt;Node9</title>
<path fill="none" stroke="#191970" d="M296.4767,-848.4822C289.0049,-839.4055 281.4429,-829.5944 275,-820 205.0764,-715.8741 141.3605,-580.6199 114.0536,-519.9277"/>
<polygon fill="#191970" stroke="#191970" points="293.881,-850.8338 302.9893,-856.2458 299.2439,-846.335 293.881,-850.8338"/>
</g>
<!-- Node11 -->
<g id="node8" class="node">
<title>Node11</title>
<g id="a_node8"><a xlink:href="to__json_8hpp.html" target="_top" xlink:title="/home/bdn_jz/bdn_jz\l/camera&#45;tracker&#45;cpp\l/CameraTrackerLinux/include\l/nlohmann/detail/conversions\l/to_json.hpp">
<polygon fill="#ffffff" stroke="#000000" points="190,-456.5 190,-519.5 334,-519.5 334,-456.5 190,-456.5"/>
<text text-anchor="start" x="198" y="-507.5" font-family="Helvetica,sans-Serif" font-size="10.00" fill="#000000">/home/bdn_jz/bdn_jz</text>
<text text-anchor="start" x="198" y="-496.5" font-family="Helvetica,sans-Serif" font-size="10.00" fill="#000000">/camera&#45;tracker&#45;cpp</text>
<text text-anchor="start" x="198" y="-485.5" font-family="Helvetica,sans-Serif" font-size="10.00" fill="#000000">/CameraTrackerLinux/include</text>
<text text-anchor="start" x="198" y="-474.5" font-family="Helvetica,sans-Serif" font-size="10.00" fill="#000000">/nlohmann/detail/conversions</text>
<text text-anchor="middle" x="262" y="-463.5" font-family="Helvetica,sans-Serif" font-size="10.00" fill="#000000">/to_json.hpp</text>
</a>
</g>
</g>
<!-- Node4&#45;&gt;Node11 -->
<g id="edge9" class="edge">
<title>Node4&#45;&gt;Node11</title>
<path fill="none" stroke="#191970" d="M313.8838,-846.7405C292.2321,-794.9719 257.2634,-702.9082 244,-620 239.5067,-591.9127 240.33,-584.2067 244,-556 245.5599,-544.011 248.6053,-531.1253 251.7539,-519.8293"/>
<polygon fill="#191970" stroke="#191970" points="310.7789,-848.385 317.8948,-856.2345 317.2271,-845.6607 310.7789,-848.385"/>
</g>
<!-- Node12 -->
<g id="node9" class="node">
<title>Node12</title>
<g id="a_node9"><a xlink:href="iter__impl_8hpp.html" target="_top" xlink:title="/home/bdn_jz/bdn_jz\l/camera&#45;tracker&#45;cpp\l/CameraTrackerLinux/include\l/nlohmann/detail/iterators\l/iter_impl.hpp">
<polygon fill="#ffffff" stroke="#000000" points="722,-556.5 722,-619.5 866,-619.5 866,-556.5 722,-556.5"/>
<text text-anchor="start" x="730" y="-607.5" font-family="Helvetica,sans-Serif" font-size="10.00" fill="#000000">/home/bdn_jz/bdn_jz</text>
<text text-anchor="start" x="730" y="-596.5" font-family="Helvetica,sans-Serif" font-size="10.00" fill="#000000">/camera&#45;tracker&#45;cpp</text>
<text text-anchor="start" x="730" y="-585.5" font-family="Helvetica,sans-Serif" font-size="10.00" fill="#000000">/CameraTrackerLinux/include</text>
<text text-anchor="start" x="730" y="-574.5" font-family="Helvetica,sans-Serif" font-size="10.00" fill="#000000">/nlohmann/detail/iterators</text>
<text text-anchor="middle" x="794" y="-563.5" font-family="Helvetica,sans-Serif" font-size="10.00" fill="#000000">/iter_impl.hpp</text>
</a>
</g>
</g>
<!-- Node4&#45;&gt;Node12 -->
<g id="edge12" class="edge">
<title>Node4&#45;&gt;Node12</title>
<path fill="none" stroke="#191970" d="M414.0031,-871.0538C455.4176,-860.2854 505.3609,-843.8042 546,-820 639.6071,-765.1701 726.7712,-669.3066 768.3965,-619.7205"/>
<polygon fill="#191970" stroke="#191970" points="413.0498,-867.6847 404.2163,-873.5344 414.7697,-874.4701 413.0498,-867.6847"/>
</g>
<!-- Node13 -->
<g id="node10" class="node">
<title>Node13</title>
<g id="a_node10"><a xlink:href="iterator__traits_8hpp.html" target="_top" xlink:title="/home/bdn_jz/bdn_jz\l/camera&#45;tracker&#45;cpp\l/CameraTrackerLinux/include\l/nlohmann/detail/iterators\l/iterator_traits.hpp">
<polygon fill="#ffffff" stroke="#000000" points="360,-756.5 360,-819.5 504,-819.5 504,-756.5 360,-756.5"/>
<text text-anchor="start" x="368" y="-807.5" font-family="Helvetica,sans-Serif" font-size="10.00" fill="#000000">/home/bdn_jz/bdn_jz</text>
<text text-anchor="start" x="368" y="-796.5" font-family="Helvetica,sans-Serif" font-size="10.00" fill="#000000">/camera&#45;tracker&#45;cpp</text>
<text text-anchor="start" x="368" y="-785.5" font-family="Helvetica,sans-Serif" font-size="10.00" fill="#000000">/CameraTrackerLinux/include</text>
<text text-anchor="start" x="368" y="-774.5" font-family="Helvetica,sans-Serif" font-size="10.00" fill="#000000">/nlohmann/detail/iterators</text>
<text text-anchor="middle" x="432" y="-763.5" font-family="Helvetica,sans-Serif" font-size="10.00" fill="#000000">/iterator_traits.hpp</text>
</a>
</g>
</g>
<!-- Node4&#45;&gt;Node13 -->
<g id="edge14" class="edge">
<title>Node4&#45;&gt;Node13</title>
<path fill="none" stroke="#191970" d="M370.9199,-849.0801C380.6221,-839.3779 390.9104,-829.0896 400.222,-819.778"/>
<polygon fill="#191970" stroke="#191970" points="368.2368,-846.8134 363.6406,-856.3594 373.1866,-851.7632 368.2368,-846.8134"/>
</g>
<!-- Node17 -->
<g id="node14" class="node">
<title>Node17</title>
<g id="a_node14"><a xlink:href="serializer_8hpp.html" target="_top" xlink:title="/home/bdn_jz/bdn_jz\l/camera&#45;tracker&#45;cpp\l/CameraTrackerLinux/include\l/nlohmann/detail/output/serializer.hpp">
<polygon fill="#ffffff" stroke="#000000" points="584.5,-267.5 584.5,-319.5 763.5,-319.5 763.5,-267.5 584.5,-267.5"/>
<text text-anchor="start" x="592.5" y="-307.5" font-family="Helvetica,sans-Serif" font-size="10.00" fill="#000000">/home/bdn_jz/bdn_jz</text>
<text text-anchor="start" x="592.5" y="-296.5" font-family="Helvetica,sans-Serif" font-size="10.00" fill="#000000">/camera&#45;tracker&#45;cpp</text>
<text text-anchor="start" x="592.5" y="-285.5" font-family="Helvetica,sans-Serif" font-size="10.00" fill="#000000">/CameraTrackerLinux/include</text>
<text text-anchor="middle" x="674" y="-274.5" font-family="Helvetica,sans-Serif" font-size="10.00" fill="#000000">/nlohmann/detail/output/serializer.hpp</text>
</a>
</g>
</g>
<!-- Node4&#45;&gt;Node17 -->
<g id="edge42" class="edge">
<title>Node4&#45;&gt;Node17</title>
<path fill="none" stroke="#191970" d="M414.0662,-876.2597C449.7124,-866.9128 488.7749,-850.1299 513,-820 550.1397,-773.8077 532,-747.2713 532,-688 532,-688 532,-688 532,-488 532,-416.2975 595.7289,-353.3745 637.8,-319.6475"/>
<polygon fill="#191970" stroke="#191970" points="412.9941,-872.919 404.1179,-878.7038 414.6642,-879.7168 412.9941,-872.919"/>
</g>
<!-- Node20 -->
<g id="node17" class="node">
<title>Node20</title>
<g id="a_node17"><a xlink:href="type__traits_8hpp.html" target="_top" xlink:title="/home/bdn_jz/bdn_jz\l/camera&#45;tracker&#45;cpp\l/CameraTrackerLinux/include\l/nlohmann/detail/meta/type\l_traits.hpp">
<polygon fill="#ffffff" stroke="#000000" points="360,-656.5 360,-719.5 504,-719.5 504,-656.5 360,-656.5"/>
<text text-anchor="start" x="368" y="-707.5" font-family="Helvetica,sans-Serif" font-size="10.00" fill="#000000">/home/bdn_jz/bdn_jz</text>
<text text-anchor="start" x="368" y="-696.5" font-family="Helvetica,sans-Serif" font-size="10.00" fill="#000000">/camera&#45;tracker&#45;cpp</text>
<text text-anchor="start" x="368" y="-685.5" font-family="Helvetica,sans-Serif" font-size="10.00" fill="#000000">/CameraTrackerLinux/include</text>
<text text-anchor="start" x="368" y="-674.5" font-family="Helvetica,sans-Serif" font-size="10.00" fill="#000000">/nlohmann/detail/meta/type</text>
<text text-anchor="middle" x="432" y="-663.5" font-family="Helvetica,sans-Serif" font-size="10.00" fill="#000000">_traits.hpp</text>
</a>
</g>
</g>
<!-- Node4&#45;&gt;Node20 -->
<g id="edge41" class="edge">
<title>Node4&#45;&gt;Node20</title>
<path fill="none" stroke="#191970" d="M330.5178,-846.3846C331.2791,-819.1086 335.6793,-783.5388 351,-756 358.766,-742.0408 370.6085,-729.7159 382.8599,-719.5267"/>
<polygon fill="#191970" stroke="#191970" points="327.018,-846.354 330.389,-856.3982 334.0174,-846.4441 327.018,-846.354"/>
</g>
<!-- Node6 -->
<g id="node3" class="node">
<title>Node6</title>
<g id="a_node3"><a xlink:href="_json_utilization_8h.html" target="_top" xlink:title="This file contains the declaration of the namespace jsonUtilization. ">
<polygon fill="#ffffff" stroke="#000000" points="512,-89.5 512,-141.5 656,-141.5 656,-89.5 512,-89.5"/>
<text text-anchor="start" x="520" y="-129.5" font-family="Helvetica,sans-Serif" font-size="10.00" fill="#000000">/home/bdn_jz/bdn_jz</text>
<text text-anchor="start" x="520" y="-118.5" font-family="Helvetica,sans-Serif" font-size="10.00" fill="#000000">/camera&#45;tracker&#45;cpp</text>
<text text-anchor="start" x="520" y="-107.5" font-family="Helvetica,sans-Serif" font-size="10.00" fill="#000000">/CameraTrackerLinux/include</text>
<text text-anchor="middle" x="584" y="-96.5" font-family="Helvetica,sans-Serif" font-size="10.00" fill="#000000">/JsonUtilization.h</text>
</a>
</g>
</g>
<!-- Node5&#45;&gt;Node6 -->
<g id="edge2" class="edge">
<title>Node5&#45;&gt;Node6</title>
<path fill="none" stroke="#191970" d="M584,-168.1155C584,-159.2061 584,-149.8475 584,-141.5341"/>
<polygon fill="#191970" stroke="#191970" points="580.5001,-168.2784 584,-178.2784 587.5001,-168.2785 580.5001,-168.2784"/>
</g>
<!-- Node7 -->
<g id="node4" class="node">
<title>Node7</title>
<g id="a_node4"><a xlink:href="main_8cpp.html" target="_top" xlink:title="/home/bdn_jz/bdn_jz\l/camera&#45;tracker&#45;cpp\l/CameraTrackerLinux/main.cpp">
<polygon fill="#ffffff" stroke="#000000" points="428.5,-6 428.5,-47 581.5,-47 581.5,-6 428.5,-6"/>
<text text-anchor="start" x="436.5" y="-35" font-family="Helvetica,sans-Serif" font-size="10.00" fill="#000000">/home/bdn_jz/bdn_jz</text>
<text text-anchor="start" x="436.5" y="-24" font-family="Helvetica,sans-Serif" font-size="10.00" fill="#000000">/camera&#45;tracker&#45;cpp</text>
<text text-anchor="middle" x="505" y="-13" font-family="Helvetica,sans-Serif" font-size="10.00" fill="#000000">/CameraTrackerLinux/main.cpp</text>
</a>
</g>
</g>
<!-- Node6&#45;&gt;Node7 -->
<g id="edge3" class="edge">
<title>Node6&#45;&gt;Node7</title>
<path fill="none" stroke="#191970" d="M553.8019,-81.4794C543.5447,-69.9238 532.4001,-57.3685 523.3538,-47.1771"/>
<polygon fill="#191970" stroke="#191970" points="551.4687,-84.1231 560.7247,-89.2784 556.7038,-79.4762 551.4687,-84.1231"/>
</g>
<!-- Node8 -->
<g id="node5" class="node">
<title>Node8</title>
<g id="a_node5"><a xlink:href="_json_utilization_8cpp.html" target="_top" xlink:title="/home/bdn_jz/bdn_jz\l/camera&#45;tracker&#45;cpp\l/CameraTrackerLinux/src\l/JsonUtilization.cpp">
<polygon fill="#ffffff" stroke="#000000" points="599.5,-.5 599.5,-52.5 726.5,-52.5 726.5,-.5 599.5,-.5"/>
<text text-anchor="start" x="607.5" y="-40.5" font-family="Helvetica,sans-Serif" font-size="10.00" fill="#000000">/home/bdn_jz/bdn_jz</text>
<text text-anchor="start" x="607.5" y="-29.5" font-family="Helvetica,sans-Serif" font-size="10.00" fill="#000000">/camera&#45;tracker&#45;cpp</text>
<text text-anchor="start" x="607.5" y="-18.5" font-family="Helvetica,sans-Serif" font-size="10.00" fill="#000000">/CameraTrackerLinux/src</text>
<text text-anchor="middle" x="663" y="-7.5" font-family="Helvetica,sans-Serif" font-size="10.00" fill="#000000">/JsonUtilization.cpp</text>
</a>
</g>
</g>
<!-- Node6&#45;&gt;Node8 -->
<g id="edge4" class="edge">
<title>Node6&#45;&gt;Node8</title>
<path fill="none" stroke="#191970" d="M613.9881,-81.7159C622.5705,-72.0472 631.7899,-61.6608 639.891,-52.5341"/>
<polygon fill="#191970" stroke="#191970" points="611.2962,-79.4762 607.2753,-89.2784 616.5313,-84.1231 611.2962,-79.4762"/>
</g>
<!-- Node9&#45;&gt;Node5 -->
<g id="edge6" class="edge">
<title>Node9&#45;&gt;Node5</title>
<path fill="none" stroke="#191970" d="M104.8659,-446.262C109.6376,-418.7848 118.9596,-383.0331 137,-356 172.4864,-302.8246 191.7863,-293.4212 250,-267 334.8755,-228.478 442.2102,-213.6991 511.9502,-208.0292"/>
<polygon fill="#191970" stroke="#191970" points="101.3754,-445.9249 103.2513,-456.3523 108.2875,-447.031 101.3754,-445.9249"/>
</g>
<!-- Node10 -->
<g id="node7" class="node">
<title>Node10</title>
<g id="a_node7"><a xlink:href="adl__serializer_8hpp.html" target="_top" xlink:title="/home/bdn_jz/bdn_jz\l/camera&#45;tracker&#45;cpp\l/CameraTrackerLinux/include\l/nlohmann/adl_serializer.hpp">
<polygon fill="#ffffff" stroke="#000000" points="146,-362 146,-414 290,-414 290,-362 146,-362"/>
<text text-anchor="start" x="154" y="-402" font-family="Helvetica,sans-Serif" font-size="10.00" fill="#000000">/home/bdn_jz/bdn_jz</text>
<text text-anchor="start" x="154" y="-391" font-family="Helvetica,sans-Serif" font-size="10.00" fill="#000000">/camera&#45;tracker&#45;cpp</text>
<text text-anchor="start" x="154" y="-380" font-family="Helvetica,sans-Serif" font-size="10.00" fill="#000000">/CameraTrackerLinux/include</text>
<text text-anchor="middle" x="218" y="-369" font-family="Helvetica,sans-Serif" font-size="10.00" fill="#000000">/nlohmann/adl_serializer.hpp</text>
</a>
</g>
</g>
<!-- Node9&#45;&gt;Node10 -->
<g id="edge7" class="edge">
<title>Node9&#45;&gt;Node10</title>
<path fill="none" stroke="#191970" d="M145.0289,-449.8399C159.1252,-437.8939 174.3503,-424.9913 187.228,-414.078"/>
<polygon fill="#191970" stroke="#191970" points="142.7021,-447.224 137.3359,-456.3594 147.2278,-452.5643 142.7021,-447.224"/>
</g>
<!-- Node10&#45;&gt;Node5 -->
<g id="edge8" class="edge">
<title>Node10&#45;&gt;Node5</title>
<path fill="none" stroke="#191970" d="M233.968,-352.967C248.3693,-325.3685 272.1741,-288.137 304,-267 337.5554,-244.7143 440.4885,-225.6394 511.7327,-214.6147"/>
<polygon fill="#191970" stroke="#191970" points="230.8304,-351.4159 229.4466,-361.92 237.0788,-354.5715 230.8304,-351.4159"/>
</g>
<!-- Node11&#45;&gt;Node5 -->
<g id="edge10" class="edge">
<title>Node11&#45;&gt;Node5</title>
<path fill="none" stroke="#191970" d="M286.0765,-447.2712C290.742,-438.4548 295.3183,-429.0557 299,-420 325.6025,-354.5665 291.5263,-316.413 342,-267 366.0305,-243.4744 449.677,-225.5248 511.9387,-215.0233"/>
<polygon fill="#191970" stroke="#191970" points="282.9187,-445.7519 281.2161,-456.209 289.0682,-449.096 282.9187,-445.7519"/>
</g>
<!-- Node11&#45;&gt;Node10 -->
<g id="edge11" class="edge">
<title>Node11&#45;&gt;Node10</title>
<path fill="none" stroke="#191970" d="M244.0351,-447.1707C239.1171,-435.9933 233.9205,-424.1829 229.4743,-414.078"/>
<polygon fill="#191970" stroke="#191970" points="240.8471,-448.6158 248.0781,-456.3594 247.2543,-445.7966 240.8471,-448.6158"/>
</g>
<!-- Node12&#45;&gt;Node5 -->
<g id="edge13" class="edge">
<title>Node12&#45;&gt;Node5</title>
<path fill="none" stroke="#191970" d="M814.3314,-546.892C844.4754,-479.3679 890.4167,-344.7244 821,-267 799.1388,-242.5225 717.5784,-224.8514 656.1978,-214.6712"/>
<polygon fill="#191970" stroke="#191970" points="810.9816,-545.8022 810.0142,-556.3528 817.3498,-548.7083 810.9816,-545.8022"/>
</g>
<!-- Node14 -->
<g id="node11" class="node">
<title>Node14</title>
<g id="a_node11"><a xlink:href="input__adapters_8hpp.html" target="_top" xlink:title="/home/bdn_jz/bdn_jz\l/camera&#45;tracker&#45;cpp\l/CameraTrackerLinux/include\l/nlohmann/detail/input/input\l_adapters.hpp">
<polygon fill="#ffffff" stroke="#000000" points="884,-556.5 884,-619.5 1028,-619.5 1028,-556.5 884,-556.5"/>
<text text-anchor="start" x="892" y="-607.5" font-family="Helvetica,sans-Serif" font-size="10.00" fill="#000000">/home/bdn_jz/bdn_jz</text>
<text text-anchor="start" x="892" y="-596.5" font-family="Helvetica,sans-Serif" font-size="10.00" fill="#000000">/camera&#45;tracker&#45;cpp</text>
<text text-anchor="start" x="892" y="-585.5" font-family="Helvetica,sans-Serif" font-size="10.00" fill="#000000">/CameraTrackerLinux/include</text>
<text text-anchor="start" x="892" y="-574.5" font-family="Helvetica,sans-Serif" font-size="10.00" fill="#000000">/nlohmann/detail/input/input</text>
<text text-anchor="middle" x="956" y="-563.5" font-family="Helvetica,sans-Serif" font-size="10.00" fill="#000000">_adapters.hpp</text>
</a>
</g>
</g>
<!-- Node13&#45;&gt;Node14 -->
<g id="edge15" class="edge">
<title>Node13&#45;&gt;Node14</title>
<path fill="none" stroke="#191970" d="M513.7392,-757.3864C602.7322,-723.9664 749.1823,-668.7073 875,-620 877.8201,-618.9083 880.6939,-617.7918 883.5959,-616.6612"/>
<polygon fill="#191970" stroke="#191970" points="512.3756,-754.1598 504.2438,-760.9513 514.836,-760.7132 512.3756,-754.1598"/>
</g>
<!-- Node13&#45;&gt;Node20 -->
<g id="edge28" class="edge">
<title>Node13&#45;&gt;Node20</title>
<path fill="none" stroke="#191970" d="M432,-746.2111C432,-737.37 432,-728.1767 432,-719.778"/>
<polygon fill="#191970" stroke="#191970" points="428.5001,-746.3593 432,-756.3594 435.5001,-746.3594 428.5001,-746.3593"/>
</g>
<!-- Node14&#45;&gt;Node5 -->
<g id="edge16" class="edge">
<title>Node14&#45;&gt;Node5</title>
<path fill="none" stroke="#191970" d="M1037.6221,-569.5914C1063.6554,-559.4489 1089.6625,-543.859 1105,-520 1144.7066,-458.2328 1120.0071,-420.5469 1085,-356 1058.0294,-306.2709 1044.6215,-292.2559 994,-267 936.0943,-238.1098 757.3703,-218.9768 656.041,-210.1421"/>
<polygon fill="#191970" stroke="#191970" points="1036.2423,-566.3691 1028.0494,-573.0868 1038.6433,-572.9445 1036.2423,-566.3691"/>
</g>
<!-- Node15 -->
<g id="node12" class="node">
<title>Node15</title>
<g id="a_node12"><a xlink:href="binary__reader_8hpp.html" target="_top" xlink:title="/home/bdn_jz/bdn_jz\l/camera&#45;tracker&#45;cpp\l/CameraTrackerLinux/include\l/nlohmann/detail/input/binary\l_reader.hpp">
<polygon fill="#ffffff" stroke="#000000" points="657,-456.5 657,-519.5 801,-519.5 801,-456.5 657,-456.5"/>
<text text-anchor="start" x="665" y="-507.5" font-family="Helvetica,sans-Serif" font-size="10.00" fill="#000000">/home/bdn_jz/bdn_jz</text>
<text text-anchor="start" x="665" y="-496.5" font-family="Helvetica,sans-Serif" font-size="10.00" fill="#000000">/camera&#45;tracker&#45;cpp</text>
<text text-anchor="start" x="665" y="-485.5" font-family="Helvetica,sans-Serif" font-size="10.00" fill="#000000">/CameraTrackerLinux/include</text>
<text text-anchor="start" x="665" y="-474.5" font-family="Helvetica,sans-Serif" font-size="10.00" fill="#000000">/nlohmann/detail/input/binary</text>
<text text-anchor="middle" x="729" y="-463.5" font-family="Helvetica,sans-Serif" font-size="10.00" fill="#000000">_reader.hpp</text>
</a>
</g>
</g>
<!-- Node14&#45;&gt;Node15 -->
<g id="edge17" class="edge">
<title>Node14&#45;&gt;Node15</title>
<path fill="none" stroke="#191970" d="M875.2602,-552.4318C850.8754,-541.6896 824.284,-529.9753 800.5431,-519.5168"/>
<polygon fill="#191970" stroke="#191970" points="873.925,-555.6681 884.4874,-556.4966 876.747,-549.2622 873.925,-555.6681"/>
</g>
<!-- Node18 -->
<g id="node15" class="node">
<title>Node18</title>
<g id="a_node15"><a xlink:href="lexer_8hpp.html" target="_top" xlink:title="/home/bdn_jz/bdn_jz\l/camera&#45;tracker&#45;cpp\l/CameraTrackerLinux/include\l/nlohmann/detail/input/lexer.hpp">
<polygon fill="#ffffff" stroke="#000000" points="940.5,-462 940.5,-514 1095.5,-514 1095.5,-462 940.5,-462"/>
<text text-anchor="start" x="948.5" y="-502" font-family="Helvetica,sans-Serif" font-size="10.00" fill="#000000">/home/bdn_jz/bdn_jz</text>
<text text-anchor="start" x="948.5" y="-491" font-family="Helvetica,sans-Serif" font-size="10.00" fill="#000000">/camera&#45;tracker&#45;cpp</text>
<text text-anchor="start" x="948.5" y="-480" font-family="Helvetica,sans-Serif" font-size="10.00" fill="#000000">/CameraTrackerLinux/include</text>
<text text-anchor="middle" x="1018" y="-469" font-family="Helvetica,sans-Serif" font-size="10.00" fill="#000000">/nlohmann/detail/input/lexer.hpp</text>
</a>
</g>
</g>
<!-- Node14&#45;&gt;Node18 -->
<g id="edge23" class="edge">
<title>Node14&#45;&gt;Node18</title>
<path fill="none" stroke="#191970" d="M980.8989,-547.8405C987.9508,-536.4664 995.4413,-524.385 1001.8317,-514.078"/>
<polygon fill="#191970" stroke="#191970" points="977.912,-546.016 975.6172,-556.3594 983.8613,-549.7046 977.912,-546.016"/>
</g>
<!-- Node19 -->
<g id="node16" class="node">
<title>Node19</title>
<g id="a_node16"><a xlink:href="parser_8hpp.html" target="_top" xlink:title="/home/bdn_jz/bdn_jz\l/camera&#45;tracker&#45;cpp\l/CameraTrackerLinux/include\l/nlohmann/detail/input/parser.hpp">
<polygon fill="#ffffff" stroke="#000000" points="896.5,-362 896.5,-414 1057.5,-414 1057.5,-362 896.5,-362"/>
<text text-anchor="start" x="904.5" y="-402" font-family="Helvetica,sans-Serif" font-size="10.00" fill="#000000">/home/bdn_jz/bdn_jz</text>
<text text-anchor="start" x="904.5" y="-391" font-family="Helvetica,sans-Serif" font-size="10.00" fill="#000000">/camera&#45;tracker&#45;cpp</text>
<text text-anchor="start" x="904.5" y="-380" font-family="Helvetica,sans-Serif" font-size="10.00" fill="#000000">/CameraTrackerLinux/include</text>
<text text-anchor="middle" x="977" y="-369" font-family="Helvetica,sans-Serif" font-size="10.00" fill="#000000">/nlohmann/detail/input/parser.hpp</text>
</a>
</g>
</g>
<!-- Node14&#45;&gt;Node19 -->
<g id="edge27" class="edge">
<title>Node14&#45;&gt;Node19</title>
<path fill="none" stroke="#191970" d="M938.6083,-546.6767C929.9464,-520.3685 923.043,-485.7655 932,-456 936.528,-440.9528 945.5895,-426.1701 954.4019,-414.2515"/>
<polygon fill="#191970" stroke="#191970" points="935.3784,-548.0433 941.9848,-556.3261 941.9855,-545.7313 935.3784,-548.0433"/>
</g>
<!-- Node15&#45;&gt;Node5 -->
<g id="edge18" class="edge">
<title>Node15&#45;&gt;Node5</title>
<path fill="none" stroke="#191970" d="M789.0344,-449.3391C797.9353,-440.8063 805.8389,-430.9848 811,-420 840.1626,-357.931 837.711,-317.2105 791,-267 772.3981,-247.0045 708.0736,-229.5487 656.0093,-218.2049"/>
<polygon fill="#191970" stroke="#191970" points="786.4825,-446.9258 781.3615,-456.2008 791.1487,-452.1437 786.4825,-446.9258"/>
</g>
<!-- Node16 -->
<g id="node13" class="node">
<title>Node16</title>
<g id="a_node13"><a xlink:href="binary__writer_8hpp.html" target="_top" xlink:title="/home/bdn_jz/bdn_jz\l/camera&#45;tracker&#45;cpp\l/CameraTrackerLinux/include\l/nlohmann/detail/output/binary\l_writer.hpp">
<polygon fill="#ffffff" stroke="#000000" points="654.5,-356.5 654.5,-419.5 801.5,-419.5 801.5,-356.5 654.5,-356.5"/>
<text text-anchor="start" x="662.5" y="-407.5" font-family="Helvetica,sans-Serif" font-size="10.00" fill="#000000">/home/bdn_jz/bdn_jz</text>
<text text-anchor="start" x="662.5" y="-396.5" font-family="Helvetica,sans-Serif" font-size="10.00" fill="#000000">/camera&#45;tracker&#45;cpp</text>
<text text-anchor="start" x="662.5" y="-385.5" font-family="Helvetica,sans-Serif" font-size="10.00" fill="#000000">/CameraTrackerLinux/include</text>
<text text-anchor="start" x="662.5" y="-374.5" font-family="Helvetica,sans-Serif" font-size="10.00" fill="#000000">/nlohmann/detail/output/binary</text>
<text text-anchor="middle" x="728" y="-363.5" font-family="Helvetica,sans-Serif" font-size="10.00" fill="#000000">_writer.hpp</text>
</a>
</g>
</g>
<!-- Node15&#45;&gt;Node16 -->
<g id="edge19" class="edge">
<title>Node15&#45;&gt;Node16</title>
<path fill="none" stroke="#191970" d="M728.5821,-446.2111C728.4937,-437.37 728.4018,-428.1767 728.3178,-419.778"/>
<polygon fill="#191970" stroke="#191970" points="725.0837,-446.3949 728.6836,-456.3594 732.0833,-446.3248 725.0837,-446.3949"/>
</g>
<!-- Node16&#45;&gt;Node5 -->
<g id="edge20" class="edge">
<title>Node16&#45;&gt;Node5</title>
<path fill="none" stroke="#191970" d="M761.1678,-347.9362C777.5751,-323.0131 790.4958,-291.2132 773,-267 758.7807,-247.3212 703.2402,-230.4172 656.018,-219.1697"/>
<polygon fill="#191970" stroke="#191970" points="758.091,-346.2308 755.2631,-356.4413 763.8411,-350.2229 758.091,-346.2308"/>
</g>
<!-- Node16&#45;&gt;Node17 -->
<g id="edge21" class="edge">
<title>Node16&#45;&gt;Node17</title>
<path fill="none" stroke="#191970" d="M704.8064,-347.4112C699.431,-338.0043 693.8503,-328.238 688.9395,-319.6442"/>
<polygon fill="#191970" stroke="#191970" points="701.8683,-349.324 709.8686,-356.27 707.946,-345.851 701.8683,-349.324"/>
</g>
<!-- Node17&#45;&gt;Node5 -->
<g id="edge22" class="edge">
<title>Node17&#45;&gt;Node5</title>
<path fill="none" stroke="#191970" d="M640.1265,-260.0029C630.267,-250.2529 619.6472,-239.7511 610.3267,-230.5341"/>
<polygon fill="#191970" stroke="#191970" points="637.9123,-262.7356 647.4838,-267.2784 642.8343,-257.7583 637.9123,-262.7356"/>
</g>
<!-- Node18&#45;&gt;Node5 -->
<g id="edge24" class="edge">
<title>Node18&#45;&gt;Node5</title>
<path fill="none" stroke="#191970" d="M1049.0567,-453.5991C1056.375,-443.4741 1063.159,-431.9005 1067,-420 1075.7369,-392.9306 1080.8896,-380.8227 1067,-356 1030.0764,-290.0123 992.5891,-294.1091 922,-267 834.1199,-233.2505 726.2012,-217.3624 656.3094,-210.1381"/>
<polygon fill="#191970" stroke="#191970" points="1046.1274,-451.6681 1042.8365,-461.7389 1051.6894,-455.9184 1046.1274,-451.6681"/>
</g>
<!-- Node18&#45;&gt;Node19 -->
<g id="edge25" class="edge">
<title>Node18&#45;&gt;Node19</title>
<path fill="none" stroke="#191970" d="M1003.5031,-452.6418C998.3168,-439.9923 992.5683,-425.9715 987.7543,-414.2299"/>
<polygon fill="#191970" stroke="#191970" points="1000.3028,-454.0625 1007.3348,-461.9872 1006.7796,-451.4069 1000.3028,-454.0625"/>
</g>
<!-- Node19&#45;&gt;Node5 -->
<g id="edge26" class="edge">
<title>Node19&#45;&gt;Node5</title>
<path fill="none" stroke="#191970" d="M958.5492,-352.8386C942.1669,-325.165 915.6295,-287.8954 882,-267 844.9572,-243.9838 731.8696,-224.6731 656.152,-213.8527"/>
<polygon fill="#191970" stroke="#191970" points="955.693,-354.8928 963.7112,-361.8181 961.7617,-351.4041 955.693,-354.8928"/>
</g>
<!-- Node20&#45;&gt;Node5 -->
<g id="edge29" class="edge">
<title>Node20&#45;&gt;Node5</title>
<path fill="none" stroke="#191970" d="M429.7858,-646.2363C424.864,-553.2516 413.414,-336.0491 413,-320 412.3925,-296.4523 399.5021,-286.3047 413,-267 425.0447,-249.7737 470.7293,-233.5771 511.8488,-221.9898"/>
<polygon fill="#191970" stroke="#191970" points="426.3008,-646.614 430.3248,-656.4149 433.291,-646.2438 426.3008,-646.614"/>
</g>
<!-- Node20&#45;&gt;Node9 -->
<g id="edge30" class="edge">
<title>Node20&#45;&gt;Node9</title>
<path fill="none" stroke="#191970" d="M349.8647,-666.0743C315.728,-655.0216 276.561,-639.7179 244,-620 198.4548,-592.4192 154.6132,-549.021 127.5159,-519.5799"/>
<polygon fill="#191970" stroke="#191970" points="349.2255,-669.543 359.8156,-669.2233 351.3375,-662.8692 349.2255,-669.543"/>
</g>
<!-- Node20&#45;&gt;Node11 -->
<g id="edge31" class="edge">
<title>Node20&#45;&gt;Node11</title>
<path fill="none" stroke="#191970" d="M349.7981,-675.1957C317.1682,-665.6573 282.7642,-649.019 263,-620 243.0041,-590.6408 246.8554,-548.4435 253.0067,-519.7172"/>
<polygon fill="#191970" stroke="#191970" points="349.2811,-678.6824 359.8495,-677.9338 351.121,-671.9285 349.2811,-678.6824"/>
</g>
<!-- Node20&#45;&gt;Node12 -->
<g id="edge32" class="edge">
<title>Node20&#45;&gt;Node12</title>
<path fill="none" stroke="#191970" d="M514.0225,-671.3024C570.5097,-659.038 646.9851,-640.9162 713,-620 715.8828,-619.0866 718.8095,-618.1206 721.7557,-617.1158"/>
<polygon fill="#191970" stroke="#191970" points="513.1086,-667.9189 504.0706,-673.4474 514.5836,-674.7617 513.1086,-667.9189"/>
</g>
<!-- Node21 -->
<g id="node18" class="node">
<title>Node21</title>
<g id="a_node18"><a xlink:href="iteration__proxy_8hpp.html" target="_top" xlink:title="/home/bdn_jz/bdn_jz\l/camera&#45;tracker&#45;cpp\l/CameraTrackerLinux/include\l/nlohmann/detail/iterators\l/iteration_proxy.hpp">
<polygon fill="#ffffff" stroke="#000000" points="272,-556.5 272,-619.5 416,-619.5 416,-556.5 272,-556.5"/>
<text text-anchor="start" x="280" y="-607.5" font-family="Helvetica,sans-Serif" font-size="10.00" fill="#000000">/home/bdn_jz/bdn_jz</text>
<text text-anchor="start" x="280" y="-596.5" font-family="Helvetica,sans-Serif" font-size="10.00" fill="#000000">/camera&#45;tracker&#45;cpp</text>
<text text-anchor="start" x="280" y="-585.5" font-family="Helvetica,sans-Serif" font-size="10.00" fill="#000000">/CameraTrackerLinux/include</text>
<text text-anchor="start" x="280" y="-574.5" font-family="Helvetica,sans-Serif" font-size="10.00" fill="#000000">/nlohmann/detail/iterators</text>
<text text-anchor="middle" x="344" y="-563.5" font-family="Helvetica,sans-Serif" font-size="10.00" fill="#000000">/iteration_proxy.hpp</text>
</a>
</g>
</g>
<!-- Node20&#45;&gt;Node21 -->
<g id="edge33" class="edge">
<title>Node20&#45;&gt;Node21</title>
<path fill="none" stroke="#191970" d="M397.4993,-648.7946C389.0351,-639.1763 380.0785,-628.9983 371.9647,-619.778"/>
<polygon fill="#191970" stroke="#191970" points="394.9224,-651.1644 404.1563,-656.3594 400.1774,-646.54 394.9224,-651.1644"/>
</g>
<!-- Node22 -->
<g id="node19" class="node">
<title>Node22</title>
<g id="a_node19"><a xlink:href="json__ref_8hpp.html" target="_top" xlink:title="/home/bdn_jz/bdn_jz\l/camera&#45;tracker&#45;cpp\l/CameraTrackerLinux/include\l/nlohmann/detail/json_ref.hpp">
<polygon fill="#ffffff" stroke="#000000" points="422,-267.5 422,-319.5 566,-319.5 566,-267.5 422,-267.5"/>
<text text-anchor="start" x="430" y="-307.5" font-family="Helvetica,sans-Serif" font-size="10.00" fill="#000000">/home/bdn_jz/bdn_jz</text>
<text text-anchor="start" x="430" y="-296.5" font-family="Helvetica,sans-Serif" font-size="10.00" fill="#000000">/camera&#45;tracker&#45;cpp</text>
<text text-anchor="start" x="430" y="-285.5" font-family="Helvetica,sans-Serif" font-size="10.00" fill="#000000">/CameraTrackerLinux/include</text>
<text text-anchor="middle" x="494" y="-274.5" font-family="Helvetica,sans-Serif" font-size="10.00" fill="#000000">/nlohmann/detail/json_ref.hpp</text>
</a>
</g>
</g>
<!-- Node20&#45;&gt;Node22 -->
<g id="edge36" class="edge">
<title>Node20&#45;&gt;Node22</title>
<path fill="none" stroke="#191970" d="M449.678,-646.793C452.8714,-638.0751 455.861,-628.836 458,-620 484.4997,-510.5324 491.538,-375.641 493.3709,-319.7077"/>
<polygon fill="#191970" stroke="#191970" points="446.3204,-645.7747 446.0205,-656.3653 452.8593,-648.2732 446.3204,-645.7747"/>
</g>
<!-- Node23 -->
<g id="node20" class="node">
<title>Node23</title>
<g id="a_node20"><a xlink:href="is__sax_8hpp.html" target="_top" xlink:title="/home/bdn_jz/bdn_jz\l/camera&#45;tracker&#45;cpp\l/CameraTrackerLinux/include\l/nlohmann/detail/meta/is\l_sax.hpp">
<polygon fill="#ffffff" stroke="#000000" points="560,-556.5 560,-619.5 704,-619.5 704,-556.5 560,-556.5"/>
<text text-anchor="start" x="568" y="-607.5" font-family="Helvetica,sans-Serif" font-size="10.00" fill="#000000">/home/bdn_jz/bdn_jz</text>
<text text-anchor="start" x="568" y="-596.5" font-family="Helvetica,sans-Serif" font-size="10.00" fill="#000000">/camera&#45;tracker&#45;cpp</text>
<text text-anchor="start" x="568" y="-585.5" font-family="Helvetica,sans-Serif" font-size="10.00" fill="#000000">/CameraTrackerLinux/include</text>
<text text-anchor="start" x="568" y="-574.5" font-family="Helvetica,sans-Serif" font-size="10.00" fill="#000000">/nlohmann/detail/meta/is</text>
<text text-anchor="middle" x="632" y="-563.5" font-family="Helvetica,sans-Serif" font-size="10.00" fill="#000000">_sax.hpp</text>
</a>
</g>
</g>
<!-- Node20&#45;&gt;Node23 -->
<g id="edge38" class="edge">
<title>Node20&#45;&gt;Node23</title>
<path fill="none" stroke="#191970" d="M503.9892,-652.0054C525.2396,-641.3802 548.3258,-629.8371 568.9665,-619.5168"/>
<polygon fill="#191970" stroke="#191970" points="502.3858,-648.8939 495.0067,-656.4966 505.5163,-655.1549 502.3858,-648.8939"/>
</g>
<!-- Node21&#45;&gt;Node5 -->
<g id="edge34" class="edge">
<title>Node21&#45;&gt;Node5</title>
<path fill="none" stroke="#191970" d="M343.1839,-546.1524C342.548,-469.0252 345.544,-308.5281 380,-267 397.1479,-246.3325 460.317,-229.0264 511.8725,-217.9043"/>
<polygon fill="#191970" stroke="#191970" points="339.6874,-546.4993 343.2949,-556.461 346.687,-546.4239 339.6874,-546.4993"/>
</g>
<!-- Node21&#45;&gt;Node11 -->
<g id="edge35" class="edge">
<title>Node21&#45;&gt;Node11</title>
<path fill="none" stroke="#191970" d="M311.6172,-548.5088C303.7994,-538.9748 295.5437,-528.907 288.058,-519.778"/>
<polygon fill="#191970" stroke="#191970" points="309.0074,-550.846 318.0547,-556.3594 314.4203,-546.4074 309.0074,-550.846"/>
</g>
<!-- Node22&#45;&gt;Node5 -->
<g id="edge37" class="edge">
<title>Node22&#45;&gt;Node5</title>
<path fill="none" stroke="#191970" d="M527.8735,-260.0029C537.733,-250.2529 548.3528,-239.7511 557.6733,-230.5341"/>
<polygon fill="#191970" stroke="#191970" points="525.1657,-257.7583 520.5162,-267.2784 530.0877,-262.7356 525.1657,-257.7583"/>
</g>
<!-- Node23&#45;&gt;Node15 -->
<g id="edge39" class="edge">
<title>Node23&#45;&gt;Node15</title>
<path fill="none" stroke="#191970" d="M669.7523,-549.0801C679.1634,-539.3779 689.1431,-529.0896 698.1753,-519.778"/>
<polygon fill="#191970" stroke="#191970" points="667.1417,-546.7445 662.6914,-556.3594 672.1663,-551.6183 667.1417,-546.7445"/>
</g>
<!-- Node23&#45;&gt;Node19 -->
<g id="edge40" class="edge">
<title>Node23&#45;&gt;Node19</title>
<path fill="none" stroke="#191970" d="M713.9103,-555.7626C757.8516,-539.8296 772.4987,-541.0814 810,-520 863.638,-489.8473 918.1471,-443.0796 949.7048,-414.0642"/>
<polygon fill="#191970" stroke="#191970" points="712.5398,-552.5382 704.3943,-559.3133 714.9869,-559.0966 712.5398,-552.5382"/>
</g>
</g>
</svg>
