<?xml version="1.0" encoding="UTF-8" standalone="no"?>
<!DOCTYPE svg PUBLIC "-//W3C//DTD SVG 1.1//EN"
 "http://www.w3.org/Graphics/SVG/1.1/DTD/svg11.dtd">
<!-- Generated by graphviz version 2.40.1 (20161225.0304)
 -->
<!-- Title: /home/bdn_jz/bdn_jz/camera&#45;tracker&#45;cpp/CameraTrackerLinux/include/nlohmann/detail/meta/detected.hpp Pages: 1 -->
<svg width="201pt" height="128pt"
 viewBox="0.00 0.00 201.00 128.00" xmlns="http://www.w3.org/2000/svg" xmlns:xlink="http://www.w3.org/1999/xlink">
<g id="graph0" class="graph" transform="scale(1 1) rotate(0) translate(4 124)">
<title>/home/bdn_jz/bdn_jz/camera&#45;tracker&#45;cpp/CameraTrackerLinux/include/nlohmann/detail/meta/detected.hpp</title>
<polygon fill="#ffffff" stroke="transparent" points="-4,4 -4,-124 197,-124 197,4 -4,4"/>
<!-- Node0 -->
<g id="node1" class="node">
<title>Node0</title>
<polygon fill="#bfbfbf" stroke="#000000" points="0,-67.5 0,-119.5 172,-119.5 172,-67.5 0,-67.5"/>
<text text-anchor="start" x="8" y="-107.5" font-family="Helvetica,sans-Serif" font-size="10.00" fill="#000000">/home/bdn_jz/bdn_jz</text>
<text text-anchor="start" x="8" y="-96.5" font-family="Helvetica,sans-Serif" font-size="10.00" fill="#000000">/camera&#45;tracker&#45;cpp</text>
<text text-anchor="start" x="8" y="-85.5" font-family="Helvetica,sans-Serif" font-size="10.00" fill="#000000">/CameraTrackerLinux/include</text>
<text text-anchor="middle" x="86" y="-74.5" font-family="Helvetica,sans-Serif" font-size="10.00" fill="#000000">/nlohmann/detail/meta/detected.hpp</text>
</g>
<!-- Node1 -->
<g id="node2" class="node">
<title>Node1</title>
<polygon fill="#ffffff" stroke="#bfbfbf" points="3,-6 3,-25 65,-25 65,-6 3,-6"/>
<text text-anchor="middle" x="34" y="-13" font-family="Helvetica,sans-Serif" font-size="10.00" fill="#000000">type_traits</text>
</g>
<!-- Node0&#45;&gt;Node1 -->
<g id="edge1" class="edge">
<title>Node0&#45;&gt;Node1</title>
<path fill="none" stroke="#191970" d="M68.3952,-67.0928C61.0715,-56.1073 52.7523,-43.6285 46.1303,-33.6954"/>
<polygon fill="#191970" stroke="#191970" points="48.8485,-31.4629 40.3892,-25.0839 43.0241,-35.3459 48.8485,-31.4629"/>
</g>
<!-- Node2 -->
<g id="node3" class="node">
<title>Node2</title>
<g id="a_node3"><a xlink:href="void__t_8hpp.html" target="_top" xlink:title="nlohmann/detail/meta\l/void_t.hpp">
<polygon fill="#ffffff" stroke="#000000" points="83,-.5 83,-30.5 193,-30.5 193,-.5 83,-.5"/>
<text text-anchor="start" x="91" y="-18.5" font-family="Helvetica,sans-Serif" font-size="10.00" fill="#000000">nlohmann/detail/meta</text>
<text text-anchor="middle" x="138" y="-7.5" font-family="Helvetica,sans-Serif" font-size="10.00" fill="#000000">/void_t.hpp</text>
</a>
</g>
</g>
<!-- Node0&#45;&gt;Node2 -->
<g id="edge2" class="edge">
<title>Node0&#45;&gt;Node2</title>
<path fill="none" stroke="#191970" d="M103.6048,-67.0928C109.7039,-57.9442 116.4934,-47.7599 122.4181,-38.8728"/>
<polygon fill="#191970" stroke="#191970" points="125.3621,-40.7665 127.997,-30.5046 119.5377,-36.8836 125.3621,-40.7665"/>
</g>
</g>
</svg>
