<?xml version="1.0" encoding="UTF-8" standalone="no"?>
<!DOCTYPE svg PUBLIC "-//W3C//DTD SVG 1.1//EN"
 "http://www.w3.org/Graphics/SVG/1.1/DTD/svg11.dtd">
<!-- Generated by graphviz version 2.40.1 (20161225.0304)
 -->
<!-- Title: /home/bdn_jz/bdn_jz/camera&#45;tracker&#45;cpp/CameraTrackerLinux/include/nlohmann/detail/meta/detected.hpp Pages: 1 -->
<svg width="868pt" height="995pt"
 viewBox="0.00 0.00 867.51 995.00" xmlns="http://www.w3.org/2000/svg" xmlns:xlink="http://www.w3.org/1999/xlink">
<g id="graph0" class="graph" transform="scale(1 1) rotate(0) translate(4 991)">
<title>/home/bdn_jz/bdn_jz/camera&#45;tracker&#45;cpp/CameraTrackerLinux/include/nlohmann/detail/meta/detected.hpp</title>
<polygon fill="#ffffff" stroke="transparent" points="-4,4 -4,-991 863.5096,-991 863.5096,4 -4,4"/>
<!-- Node3 -->
<g id="node1" class="node">
<title>Node3</title>
<polygon fill="#bfbfbf" stroke="#000000" points="338.2797,-934.5 338.2797,-986.5 510.2797,-986.5 510.2797,-934.5 338.2797,-934.5"/>
<text text-anchor="start" x="346.2797" y="-974.5" font-family="Helvetica,sans-Serif" font-size="10.00" fill="#000000">/home/bdn_jz/bdn_jz</text>
<text text-anchor="start" x="346.2797" y="-963.5" font-family="Helvetica,sans-Serif" font-size="10.00" fill="#000000">/camera&#45;tracker&#45;cpp</text>
<text text-anchor="start" x="346.2797" y="-952.5" font-family="Helvetica,sans-Serif" font-size="10.00" fill="#000000">/CameraTrackerLinux/include</text>
<text text-anchor="middle" x="424.2797" y="-941.5" font-family="Helvetica,sans-Serif" font-size="10.00" fill="#000000">/nlohmann/detail/meta/detected.hpp</text>
</g>
<!-- Node4 -->
<g id="node2" class="node">
<title>Node4</title>
<g id="a_node2"><a xlink:href="is__sax_8hpp.html" target="_top" xlink:title="/home/bdn_jz/bdn_jz\l/camera&#45;tracker&#45;cpp\l/CameraTrackerLinux/include\l/nlohmann/detail/meta/is\l_sax.hpp">
<polygon fill="#ffffff" stroke="#000000" points="249.2797,-734.5 249.2797,-797.5 393.2797,-797.5 393.2797,-734.5 249.2797,-734.5"/>
<text text-anchor="start" x="257.2797" y="-785.5" font-family="Helvetica,sans-Serif" font-size="10.00" fill="#000000">/home/bdn_jz/bdn_jz</text>
<text text-anchor="start" x="257.2797" y="-774.5" font-family="Helvetica,sans-Serif" font-size="10.00" fill="#000000">/camera&#45;tracker&#45;cpp</text>
<text text-anchor="start" x="257.2797" y="-763.5" font-family="Helvetica,sans-Serif" font-size="10.00" fill="#000000">/CameraTrackerLinux/include</text>
<text text-anchor="start" x="257.2797" y="-752.5" font-family="Helvetica,sans-Serif" font-size="10.00" fill="#000000">/nlohmann/detail/meta/is</text>
<text text-anchor="middle" x="321.2797" y="-741.5" font-family="Helvetica,sans-Serif" font-size="10.00" fill="#000000">_sax.hpp</text>
</a>
</g>
</g>
<!-- Node3&#45;&gt;Node4 -->
<g id="edge1" class="edge">
<title>Node3&#45;&gt;Node4</title>
<path fill="none" stroke="#191970" d="M405.4864,-925.0117C386.2106,-888.6123 356.5066,-832.5208 338.0164,-797.6047"/>
<polygon fill="#191970" stroke="#191970" points="402.6156,-927.0695 410.3886,-934.2689 408.8017,-923.7935 402.6156,-927.0695"/>
</g>
<!-- Node17 -->
<g id="node15" class="node">
<title>Node17</title>
<g id="a_node15"><a xlink:href="type__traits_8hpp.html" target="_top" xlink:title="/home/bdn_jz/bdn_jz\l/camera&#45;tracker&#45;cpp\l/CameraTrackerLinux/include\l/nlohmann/detail/meta/type\l_traits.hpp">
<polygon fill="#ffffff" stroke="#000000" points="421.2797,-834.5 421.2797,-897.5 565.2797,-897.5 565.2797,-834.5 421.2797,-834.5"/>
<text text-anchor="start" x="429.2797" y="-885.5" font-family="Helvetica,sans-Serif" font-size="10.00" fill="#000000">/home/bdn_jz/bdn_jz</text>
<text text-anchor="start" x="429.2797" y="-874.5" font-family="Helvetica,sans-Serif" font-size="10.00" fill="#000000">/camera&#45;tracker&#45;cpp</text>
<text text-anchor="start" x="429.2797" y="-863.5" font-family="Helvetica,sans-Serif" font-size="10.00" fill="#000000">/CameraTrackerLinux/include</text>
<text text-anchor="start" x="429.2797" y="-852.5" font-family="Helvetica,sans-Serif" font-size="10.00" fill="#000000">/nlohmann/detail/meta/type</text>
<text text-anchor="middle" x="493.2797" y="-841.5" font-family="Helvetica,sans-Serif" font-size="10.00" fill="#000000">_traits.hpp</text>
</a>
</g>
</g>
<!-- Node3&#45;&gt;Node17 -->
<g id="edge18" class="edge">
<title>Node3&#45;&gt;Node17</title>
<path fill="none" stroke="#191970" d="M449.3653,-926.1436C456.1487,-916.8533 463.4579,-906.8429 470.1297,-897.7054"/>
<polygon fill="#191970" stroke="#191970" points="446.3872,-924.2871 443.3169,-934.4273 452.0406,-928.415 446.3872,-924.2871"/>
</g>
<!-- Node5 -->
<g id="node3" class="node">
<title>Node5</title>
<g id="a_node3"><a xlink:href="binary__reader_8hpp.html" target="_top" xlink:title="/home/bdn_jz/bdn_jz\l/camera&#45;tracker&#45;cpp\l/CameraTrackerLinux/include\l/nlohmann/detail/input/binary\l_reader.hpp">
<polygon fill="#ffffff" stroke="#000000" points="149.2797,-634.5 149.2797,-697.5 293.2797,-697.5 293.2797,-634.5 149.2797,-634.5"/>
<text text-anchor="start" x="157.2797" y="-685.5" font-family="Helvetica,sans-Serif" font-size="10.00" fill="#000000">/home/bdn_jz/bdn_jz</text>
<text text-anchor="start" x="157.2797" y="-674.5" font-family="Helvetica,sans-Serif" font-size="10.00" fill="#000000">/camera&#45;tracker&#45;cpp</text>
<text text-anchor="start" x="157.2797" y="-663.5" font-family="Helvetica,sans-Serif" font-size="10.00" fill="#000000">/CameraTrackerLinux/include</text>
<text text-anchor="start" x="157.2797" y="-652.5" font-family="Helvetica,sans-Serif" font-size="10.00" fill="#000000">/nlohmann/detail/input/binary</text>
<text text-anchor="middle" x="221.2797" y="-641.5" font-family="Helvetica,sans-Serif" font-size="10.00" fill="#000000">_reader.hpp</text>
</a>
</g>
</g>
<!-- Node4&#45;&gt;Node5 -->
<g id="edge2" class="edge">
<title>Node4&#45;&gt;Node5</title>
<path fill="none" stroke="#191970" d="M282.3598,-727.0801C272.6576,-717.3779 262.3693,-707.0896 253.0577,-697.778"/>
<polygon fill="#191970" stroke="#191970" points="280.0931,-729.7632 289.639,-734.3594 285.0428,-724.8134 280.0931,-729.7632"/>
</g>
<!-- Node16 -->
<g id="node14" class="node">
<title>Node16</title>
<g id="a_node14"><a xlink:href="parser_8hpp.html" target="_top" xlink:title="/home/bdn_jz/bdn_jz\l/camera&#45;tracker&#45;cpp\l/CameraTrackerLinux/include\l/nlohmann/detail/input/parser.hpp">
<polygon fill="#ffffff" stroke="#000000" points="255.7797,-445.5 255.7797,-497.5 416.7797,-497.5 416.7797,-445.5 255.7797,-445.5"/>
<text text-anchor="start" x="263.7797" y="-485.5" font-family="Helvetica,sans-Serif" font-size="10.00" fill="#000000">/home/bdn_jz/bdn_jz</text>
<text text-anchor="start" x="263.7797" y="-474.5" font-family="Helvetica,sans-Serif" font-size="10.00" fill="#000000">/camera&#45;tracker&#45;cpp</text>
<text text-anchor="start" x="263.7797" y="-463.5" font-family="Helvetica,sans-Serif" font-size="10.00" fill="#000000">/CameraTrackerLinux/include</text>
<text text-anchor="middle" x="336.2797" y="-452.5" font-family="Helvetica,sans-Serif" font-size="10.00" fill="#000000">/nlohmann/detail/input/parser.hpp</text>
</a>
</g>
</g>
<!-- Node4&#45;&gt;Node16 -->
<g id="edge16" class="edge">
<title>Node4&#45;&gt;Node16</title>
<path fill="none" stroke="#191970" d="M323.4024,-724.3239C326.544,-662.643 332.3404,-548.8409 334.9477,-497.6511"/>
<polygon fill="#191970" stroke="#191970" points="319.8982,-724.3182 322.8849,-734.4833 326.8892,-724.6744 319.8982,-724.3182"/>
</g>
<!-- Node6 -->
<g id="node4" class="node">
<title>Node6</title>
<g id="a_node4"><a xlink:href="json_8hpp.html" target="_top" xlink:title="/home/bdn_jz/bdn_jz\l/camera&#45;tracker&#45;cpp\l/CameraTrackerLinux/include\l/nlohmann/json.hpp">
<polygon fill="#ffffff" stroke="#000000" points="473.2797,-356.5 473.2797,-408.5 617.2797,-408.5 617.2797,-356.5 473.2797,-356.5"/>
<text text-anchor="start" x="481.2797" y="-396.5" font-family="Helvetica,sans-Serif" font-size="10.00" fill="#000000">/home/bdn_jz/bdn_jz</text>
<text text-anchor="start" x="481.2797" y="-385.5" font-family="Helvetica,sans-Serif" font-size="10.00" fill="#000000">/camera&#45;tracker&#45;cpp</text>
<text text-anchor="start" x="481.2797" y="-374.5" font-family="Helvetica,sans-Serif" font-size="10.00" fill="#000000">/CameraTrackerLinux/include</text>
<text text-anchor="middle" x="545.2797" y="-363.5" font-family="Helvetica,sans-Serif" font-size="10.00" fill="#000000">/nlohmann/json.hpp</text>
</a>
</g>
</g>
<!-- Node5&#45;&gt;Node6 -->
<g id="edge3" class="edge">
<title>Node5&#45;&gt;Node6</title>
<path fill="none" stroke="#191970" d="M212.8733,-624.2913C205.5563,-574.9816 202.1042,-493.5078 246.2797,-445 276.1398,-412.2114 394.6049,-395.589 473.155,-388.0045"/>
<polygon fill="#191970" stroke="#191970" points="209.4392,-624.9816 214.4776,-634.3018 216.351,-623.8739 209.4392,-624.9816"/>
</g>
<!-- Node14 -->
<g id="node12" class="node">
<title>Node14</title>
<g id="a_node12"><a xlink:href="binary__writer_8hpp.html" target="_top" xlink:title="/home/bdn_jz/bdn_jz\l/camera&#45;tracker&#45;cpp\l/CameraTrackerLinux/include\l/nlohmann/detail/output/binary\l_writer.hpp">
<polygon fill="#ffffff" stroke="#000000" points="35.7797,-534.5 35.7797,-597.5 182.7797,-597.5 182.7797,-534.5 35.7797,-534.5"/>
<text text-anchor="start" x="43.7797" y="-585.5" font-family="Helvetica,sans-Serif" font-size="10.00" fill="#000000">/home/bdn_jz/bdn_jz</text>
<text text-anchor="start" x="43.7797" y="-574.5" font-family="Helvetica,sans-Serif" font-size="10.00" fill="#000000">/camera&#45;tracker&#45;cpp</text>
<text text-anchor="start" x="43.7797" y="-563.5" font-family="Helvetica,sans-Serif" font-size="10.00" fill="#000000">/CameraTrackerLinux/include</text>
<text text-anchor="start" x="43.7797" y="-552.5" font-family="Helvetica,sans-Serif" font-size="10.00" fill="#000000">/nlohmann/detail/output/binary</text>
<text text-anchor="middle" x="109.2797" y="-541.5" font-family="Helvetica,sans-Serif" font-size="10.00" fill="#000000">_writer.hpp</text>
</a>
</g>
</g>
<!-- Node5&#45;&gt;Node14 -->
<g id="edge12" class="edge">
<title>Node5&#45;&gt;Node14</title>
<path fill="none" stroke="#191970" d="M178.3279,-627.6502C167.2752,-617.7817 155.5045,-607.2722 144.8711,-597.778"/>
<polygon fill="#191970" stroke="#191970" points="176.0517,-630.31 185.8422,-634.3594 180.7138,-625.0884 176.0517,-630.31"/>
</g>
<!-- Node7 -->
<g id="node5" class="node">
<title>Node7</title>
<g id="a_node5"><a xlink:href="_json_utilization_8h.html" target="_top" xlink:title="This file contains the declaration of the namespace jsonUtilization. ">
<polygon fill="#ffffff" stroke="#000000" points="473.2797,-267.5 473.2797,-319.5 617.2797,-319.5 617.2797,-267.5 473.2797,-267.5"/>
<text text-anchor="start" x="481.2797" y="-307.5" font-family="Helvetica,sans-Serif" font-size="10.00" fill="#000000">/home/bdn_jz/bdn_jz</text>
<text text-anchor="start" x="481.2797" y="-296.5" font-family="Helvetica,sans-Serif" font-size="10.00" fill="#000000">/camera&#45;tracker&#45;cpp</text>
<text text-anchor="start" x="481.2797" y="-285.5" font-family="Helvetica,sans-Serif" font-size="10.00" fill="#000000">/CameraTrackerLinux/include</text>
<text text-anchor="middle" x="545.2797" y="-274.5" font-family="Helvetica,sans-Serif" font-size="10.00" fill="#000000">/JsonUtilization.h</text>
</a>
</g>
</g>
<!-- Node6&#45;&gt;Node7 -->
<g id="edge4" class="edge">
<title>Node6&#45;&gt;Node7</title>
<path fill="none" stroke="#191970" d="M545.2797,-346.1155C545.2797,-337.2061 545.2797,-327.8475 545.2797,-319.5341"/>
<polygon fill="#191970" stroke="#191970" points="541.7798,-346.2784 545.2797,-356.2784 548.7798,-346.2785 541.7798,-346.2784"/>
</g>
<!-- Node8 -->
<g id="node6" class="node">
<title>Node8</title>
<g id="a_node6"><a xlink:href="_pose_estimation_8h.html" target="_top" xlink:title="This file contains the declaration of the PoseEstimation class. ">
<polygon fill="#ffffff" stroke="#000000" points="396.2797,-178.5 396.2797,-230.5 540.2797,-230.5 540.2797,-178.5 396.2797,-178.5"/>
<text text-anchor="start" x="404.2797" y="-218.5" font-family="Helvetica,sans-Serif" font-size="10.00" fill="#000000">/home/bdn_jz/bdn_jz</text>
<text text-anchor="start" x="404.2797" y="-207.5" font-family="Helvetica,sans-Serif" font-size="10.00" fill="#000000">/camera&#45;tracker&#45;cpp</text>
<text text-anchor="start" x="404.2797" y="-196.5" font-family="Helvetica,sans-Serif" font-size="10.00" fill="#000000">/CameraTrackerLinux/include</text>
<text text-anchor="middle" x="468.2797" y="-185.5" font-family="Helvetica,sans-Serif" font-size="10.00" fill="#000000">/PoseEstimation.h</text>
</a>
</g>
</g>
<!-- Node7&#45;&gt;Node8 -->
<g id="edge5" class="edge">
<title>Node7&#45;&gt;Node8</title>
<path fill="none" stroke="#191970" d="M516.0507,-259.7159C507.6856,-250.0472 498.6997,-239.6608 490.8036,-230.5341"/>
<polygon fill="#191970" stroke="#191970" points="513.4039,-262.0059 522.5936,-267.2784 518.6976,-257.4259 513.4039,-262.0059"/>
</g>
<!-- Node13 -->
<g id="node11" class="node">
<title>Node13</title>
<g id="a_node11"><a xlink:href="_json_utilization_8cpp.html" target="_top" xlink:title="/home/bdn_jz/bdn_jz\l/camera&#45;tracker&#45;cpp\l/CameraTrackerLinux/src\l/JsonUtilization.cpp">
<polygon fill="#ffffff" stroke="#000000" points="558.7797,-178.5 558.7797,-230.5 685.7797,-230.5 685.7797,-178.5 558.7797,-178.5"/>
<text text-anchor="start" x="566.7797" y="-218.5" font-family="Helvetica,sans-Serif" font-size="10.00" fill="#000000">/home/bdn_jz/bdn_jz</text>
<text text-anchor="start" x="566.7797" y="-207.5" font-family="Helvetica,sans-Serif" font-size="10.00" fill="#000000">/camera&#45;tracker&#45;cpp</text>
<text text-anchor="start" x="566.7797" y="-196.5" font-family="Helvetica,sans-Serif" font-size="10.00" fill="#000000">/CameraTrackerLinux/src</text>
<text text-anchor="middle" x="622.2797" y="-185.5" font-family="Helvetica,sans-Serif" font-size="10.00" fill="#000000">/JsonUtilization.cpp</text>
</a>
</g>
</g>
<!-- Node7&#45;&gt;Node13 -->
<g id="edge11" class="edge">
<title>Node7&#45;&gt;Node13</title>
<path fill="none" stroke="#191970" d="M574.5086,-259.7159C582.8737,-250.0472 591.8597,-239.6608 599.7557,-230.5341"/>
<polygon fill="#191970" stroke="#191970" points="571.8617,-257.4259 567.9657,-267.2784 577.1555,-262.0059 571.8617,-257.4259"/>
</g>
<!-- Node9 -->
<g id="node7" class="node">
<title>Node9</title>
<g id="a_node7"><a xlink:href="_tracker_8h.html" target="_top" xlink:title="This file contains declarations of the Tracker class. ">
<polygon fill="#ffffff" stroke="#000000" points="396.2797,-89.5 396.2797,-141.5 540.2797,-141.5 540.2797,-89.5 396.2797,-89.5"/>
<text text-anchor="start" x="404.2797" y="-129.5" font-family="Helvetica,sans-Serif" font-size="10.00" fill="#000000">/home/bdn_jz/bdn_jz</text>
<text text-anchor="start" x="404.2797" y="-118.5" font-family="Helvetica,sans-Serif" font-size="10.00" fill="#000000">/camera&#45;tracker&#45;cpp</text>
<text text-anchor="start" x="404.2797" y="-107.5" font-family="Helvetica,sans-Serif" font-size="10.00" fill="#000000">/CameraTrackerLinux/include</text>
<text text-anchor="middle" x="468.2797" y="-96.5" font-family="Helvetica,sans-Serif" font-size="10.00" fill="#000000">/Tracker.h</text>
</a>
</g>
</g>
<!-- Node8&#45;&gt;Node9 -->
<g id="edge6" class="edge">
<title>Node8&#45;&gt;Node9</title>
<path fill="none" stroke="#191970" d="M468.2797,-168.1155C468.2797,-159.2061 468.2797,-149.8475 468.2797,-141.5341"/>
<polygon fill="#191970" stroke="#191970" points="464.7798,-168.2784 468.2797,-178.2784 471.7798,-168.2785 464.7798,-168.2784"/>
</g>
<!-- Node10 -->
<g id="node8" class="node">
<title>Node10</title>
<g id="a_node8"><a xlink:href="main_8cpp.html" target="_top" xlink:title="/home/bdn_jz/bdn_jz\l/camera&#45;tracker&#45;cpp\l/CameraTrackerLinux/main.cpp">
<polygon fill="#ffffff" stroke="#000000" points="291.7797,-6 291.7797,-47 444.7797,-47 444.7797,-6 291.7797,-6"/>
<text text-anchor="start" x="299.7797" y="-35" font-family="Helvetica,sans-Serif" font-size="10.00" fill="#000000">/home/bdn_jz/bdn_jz</text>
<text text-anchor="start" x="299.7797" y="-24" font-family="Helvetica,sans-Serif" font-size="10.00" fill="#000000">/camera&#45;tracker&#45;cpp</text>
<text text-anchor="middle" x="368.2797" y="-13" font-family="Helvetica,sans-Serif" font-size="10.00" fill="#000000">/CameraTrackerLinux/main.cpp</text>
</a>
</g>
</g>
<!-- Node8&#45;&gt;Node10 -->
<g id="edge9" class="edge">
<title>Node8&#45;&gt;Node10</title>
<path fill="none" stroke="#191970" d="M414.2666,-172.0704C403.8655,-163.5125 394.1011,-153.4232 387.2797,-142 369.6718,-112.5138 367.0315,-71.623 367.2705,-47.2355"/>
<polygon fill="#191970" stroke="#191970" points="412.2612,-174.9445 422.3063,-178.313 416.5543,-169.4155 412.2612,-174.9445"/>
</g>
<!-- Node12 -->
<g id="node10" class="node">
<title>Node12</title>
<g id="a_node10"><a xlink:href="_pose_estimation_8cpp.html" target="_top" xlink:title="/home/bdn_jz/bdn_jz\l/camera&#45;tracker&#45;cpp\l/CameraTrackerLinux/src\l/PoseEstimation.cpp">
<polygon fill="#ffffff" stroke="#000000" points="558.7797,-89.5 558.7797,-141.5 685.7797,-141.5 685.7797,-89.5 558.7797,-89.5"/>
<text text-anchor="start" x="566.7797" y="-129.5" font-family="Helvetica,sans-Serif" font-size="10.00" fill="#000000">/home/bdn_jz/bdn_jz</text>
<text text-anchor="start" x="566.7797" y="-118.5" font-family="Helvetica,sans-Serif" font-size="10.00" fill="#000000">/camera&#45;tracker&#45;cpp</text>
<text text-anchor="start" x="566.7797" y="-107.5" font-family="Helvetica,sans-Serif" font-size="10.00" fill="#000000">/CameraTrackerLinux/src</text>
<text text-anchor="middle" x="622.2797" y="-96.5" font-family="Helvetica,sans-Serif" font-size="10.00" fill="#000000">/PoseEstimation.cpp</text>
</a>
</g>
</g>
<!-- Node8&#45;&gt;Node12 -->
<g id="edge10" class="edge">
<title>Node8&#45;&gt;Node12</title>
<path fill="none" stroke="#191970" d="M522.7871,-172.9989C540.607,-162.7004 560.1888,-151.3837 577.2318,-141.5341"/>
<polygon fill="#191970" stroke="#191970" points="520.5586,-170.2443 513.6518,-178.2784 524.0613,-176.305 520.5586,-170.2443"/>
</g>
<!-- Node9&#45;&gt;Node10 -->
<g id="edge7" class="edge">
<title>Node9&#45;&gt;Node10</title>
<path fill="none" stroke="#191970" d="M431.175,-82.4768C417.8865,-70.6501 403.2937,-57.6625 391.5124,-47.1771"/>
<polygon fill="#191970" stroke="#191970" points="429.0203,-85.2446 438.8172,-89.2784 433.6742,-80.0156 429.0203,-85.2446"/>
</g>
<!-- Node11 -->
<g id="node9" class="node">
<title>Node11</title>
<g id="a_node9"><a xlink:href="_tracker_8cpp.html" target="_top" xlink:title="/home/bdn_jz/bdn_jz\l/camera&#45;tracker&#45;cpp\l/CameraTrackerLinux/src\l/Tracker.cpp">
<polygon fill="#ffffff" stroke="#000000" points="462.7797,-.5 462.7797,-52.5 589.7797,-52.5 589.7797,-.5 462.7797,-.5"/>
<text text-anchor="start" x="470.7797" y="-40.5" font-family="Helvetica,sans-Serif" font-size="10.00" fill="#000000">/home/bdn_jz/bdn_jz</text>
<text text-anchor="start" x="470.7797" y="-29.5" font-family="Helvetica,sans-Serif" font-size="10.00" fill="#000000">/camera&#45;tracker&#45;cpp</text>
<text text-anchor="start" x="470.7797" y="-18.5" font-family="Helvetica,sans-Serif" font-size="10.00" fill="#000000">/CameraTrackerLinux/src</text>
<text text-anchor="middle" x="526.2797" y="-7.5" font-family="Helvetica,sans-Serif" font-size="10.00" fill="#000000">/Tracker.cpp</text>
</a>
</g>
</g>
<!-- Node9&#45;&gt;Node11 -->
<g id="edge8" class="edge">
<title>Node9&#45;&gt;Node11</title>
<path fill="none" stroke="#191970" d="M490.859,-80.8525C496.9986,-71.4313 503.5426,-61.3897 509.3136,-52.5341"/>
<polygon fill="#191970" stroke="#191970" points="487.8954,-78.9895 485.3679,-89.2784 493.76,-82.8114 487.8954,-78.9895"/>
</g>
<!-- Node14&#45;&gt;Node6 -->
<g id="edge13" class="edge">
<title>Node14&#45;&gt;Node6</title>
<path fill="none" stroke="#191970" d="M35.7249,-528.1303C25.4868,-519.6312 16.3932,-509.616 10.2797,-498 -.6911,-477.1552 -5.3805,-462.5961 10.2797,-445 40.5485,-410.9893 334.3836,-392.5548 473.2556,-385.6805"/>
<polygon fill="#191970" stroke="#191970" points="33.6956,-530.9854 43.7468,-534.3355 37.9785,-525.4486 33.6956,-530.9854"/>
</g>
<!-- Node15 -->
<g id="node13" class="node">
<title>Node15</title>
<g id="a_node13"><a xlink:href="serializer_8hpp.html" target="_top" xlink:title="/home/bdn_jz/bdn_jz\l/camera&#45;tracker&#45;cpp\l/CameraTrackerLinux/include\l/nlohmann/detail/output/serializer.hpp">
<polygon fill="#ffffff" stroke="#000000" points="19.7797,-445.5 19.7797,-497.5 198.7797,-497.5 198.7797,-445.5 19.7797,-445.5"/>
<text text-anchor="start" x="27.7797" y="-485.5" font-family="Helvetica,sans-Serif" font-size="10.00" fill="#000000">/home/bdn_jz/bdn_jz</text>
<text text-anchor="start" x="27.7797" y="-474.5" font-family="Helvetica,sans-Serif" font-size="10.00" fill="#000000">/camera&#45;tracker&#45;cpp</text>
<text text-anchor="start" x="27.7797" y="-463.5" font-family="Helvetica,sans-Serif" font-size="10.00" fill="#000000">/CameraTrackerLinux/include</text>
<text text-anchor="middle" x="109.2797" y="-452.5" font-family="Helvetica,sans-Serif" font-size="10.00" fill="#000000">/nlohmann/detail/output/serializer.hpp</text>
</a>
</g>
</g>
<!-- Node14&#45;&gt;Node15 -->
<g id="edge14" class="edge">
<title>Node14&#45;&gt;Node15</title>
<path fill="none" stroke="#191970" d="M109.2797,-524.2457C109.2797,-515.2008 109.2797,-505.8836 109.2797,-497.6442"/>
<polygon fill="#191970" stroke="#191970" points="105.7798,-524.2699 109.2797,-534.27 112.7798,-524.27 105.7798,-524.2699"/>
</g>
<!-- Node15&#45;&gt;Node6 -->
<g id="edge15" class="edge">
<title>Node15&#45;&gt;Node6</title>
<path fill="none" stroke="#191970" d="M208.8147,-445.9984C210.3125,-445.6601 211.8015,-445.3271 213.2797,-445 302.3281,-425.2939 405.6918,-406.4675 473.1245,-394.723"/>
<polygon fill="#191970" stroke="#191970" points="207.7845,-442.644 198.8253,-448.2993 209.3557,-449.4654 207.7845,-442.644"/>
</g>
<!-- Node16&#45;&gt;Node6 -->
<g id="edge17" class="edge">
<title>Node16&#45;&gt;Node6</title>
<path fill="none" stroke="#191970" d="M406.9944,-441.387C431.9779,-430.7481 459.8484,-418.8798 483.9861,-408.6011"/>
<polygon fill="#191970" stroke="#191970" points="405.4036,-438.2602 397.5744,-445.3984 408.1462,-444.7006 405.4036,-438.2602"/>
</g>
<!-- Node17&#45;&gt;Node4 -->
<g id="edge34" class="edge">
<title>Node17&#45;&gt;Node4</title>
<path fill="none" stroke="#191970" d="M430.2013,-829.3265C412.3034,-818.9208 392.9767,-807.6843 375.6425,-797.6063"/>
<polygon fill="#191970" stroke="#191970" points="428.4535,-832.3589 438.8578,-834.3594 431.9719,-826.3073 428.4535,-832.3589"/>
</g>
<!-- Node17&#45;&gt;Node6 -->
<g id="edge19" class="edge">
<title>Node17&#45;&gt;Node6</title>
<path fill="none" stroke="#191970" d="M575.4356,-858.1801C659.4168,-848.5811 782.3454,-829.5672 817.2797,-798 862.9582,-756.7242 859.2797,-727.5648 859.2797,-666 859.2797,-666 859.2797,-666 859.2797,-566 859.2797,-454.5577 710.0212,-409.558 617.3176,-392.3563"/>
<polygon fill="#191970" stroke="#191970" points="574.944,-854.7132 565.3955,-859.3043 575.7229,-861.6697 574.944,-854.7132"/>
</g>
<!-- Node18 -->
<g id="node16" class="node">
<title>Node18</title>
<g id="a_node16"><a xlink:href="from__json_8hpp.html" target="_top" xlink:title="/home/bdn_jz/bdn_jz\l/camera&#45;tracker&#45;cpp\l/CameraTrackerLinux/include\l/nlohmann/detail/conversions\l/from_json.hpp">
<polygon fill="#ffffff" stroke="#000000" points="349.2797,-534.5 349.2797,-597.5 493.2797,-597.5 493.2797,-534.5 349.2797,-534.5"/>
<text text-anchor="start" x="357.2797" y="-585.5" font-family="Helvetica,sans-Serif" font-size="10.00" fill="#000000">/home/bdn_jz/bdn_jz</text>
<text text-anchor="start" x="357.2797" y="-574.5" font-family="Helvetica,sans-Serif" font-size="10.00" fill="#000000">/camera&#45;tracker&#45;cpp</text>
<text text-anchor="start" x="357.2797" y="-563.5" font-family="Helvetica,sans-Serif" font-size="10.00" fill="#000000">/CameraTrackerLinux/include</text>
<text text-anchor="start" x="357.2797" y="-552.5" font-family="Helvetica,sans-Serif" font-size="10.00" fill="#000000">/nlohmann/detail/conversions</text>
<text text-anchor="middle" x="421.2797" y="-541.5" font-family="Helvetica,sans-Serif" font-size="10.00" fill="#000000">/from_json.hpp</text>
</a>
</g>
</g>
<!-- Node17&#45;&gt;Node18 -->
<g id="edge20" class="edge">
<title>Node17&#45;&gt;Node18</title>
<path fill="none" stroke="#191970" d="M460.0146,-825.9324C454.2172,-817.1815 448.8958,-807.64 445.2797,-798 419.7515,-729.946 418.2232,-643.2662 419.5894,-597.5385"/>
<polygon fill="#191970" stroke="#191970" points="457.3294,-828.2003 465.9251,-834.3943 463.0681,-824.1919 457.3294,-828.2003"/>
</g>
<!-- Node20 -->
<g id="node18" class="node">
<title>Node20</title>
<g id="a_node18"><a xlink:href="to__json_8hpp.html" target="_top" xlink:title="/home/bdn_jz/bdn_jz\l/camera&#45;tracker&#45;cpp\l/CameraTrackerLinux/include\l/nlohmann/detail/conversions\l/to_json.hpp">
<polygon fill="#ffffff" stroke="#000000" points="511.2797,-534.5 511.2797,-597.5 655.2797,-597.5 655.2797,-534.5 511.2797,-534.5"/>
<text text-anchor="start" x="519.2797" y="-585.5" font-family="Helvetica,sans-Serif" font-size="10.00" fill="#000000">/home/bdn_jz/bdn_jz</text>
<text text-anchor="start" x="519.2797" y="-574.5" font-family="Helvetica,sans-Serif" font-size="10.00" fill="#000000">/camera&#45;tracker&#45;cpp</text>
<text text-anchor="start" x="519.2797" y="-563.5" font-family="Helvetica,sans-Serif" font-size="10.00" fill="#000000">/CameraTrackerLinux/include</text>
<text text-anchor="start" x="519.2797" y="-552.5" font-family="Helvetica,sans-Serif" font-size="10.00" fill="#000000">/nlohmann/detail/conversions</text>
<text text-anchor="middle" x="583.2797" y="-541.5" font-family="Helvetica,sans-Serif" font-size="10.00" fill="#000000">/to_json.hpp</text>
</a>
</g>
</g>
<!-- Node17&#45;&gt;Node20 -->
<g id="edge24" class="edge">
<title>Node17&#45;&gt;Node20</title>
<path fill="none" stroke="#191970" d="M478.0604,-824.8798C462.7361,-776.1612 445.6298,-694.0434 478.2797,-634 486.3203,-619.2133 499.1156,-607.1474 513.0499,-597.5101"/>
<polygon fill="#191970" stroke="#191970" points="474.7555,-826.0346 481.1854,-834.4553 481.4101,-823.8628 474.7555,-826.0346"/>
</g>
<!-- Node21 -->
<g id="node19" class="node">
<title>Node21</title>
<g id="a_node19"><a xlink:href="iter__impl_8hpp.html" target="_top" xlink:title="/home/bdn_jz/bdn_jz\l/camera&#45;tracker&#45;cpp\l/CameraTrackerLinux/include\l/nlohmann/detail/iterators\l/iter_impl.hpp">
<polygon fill="#ffffff" stroke="#000000" points="649.2797,-634.5 649.2797,-697.5 793.2797,-697.5 793.2797,-634.5 649.2797,-634.5"/>
<text text-anchor="start" x="657.2797" y="-685.5" font-family="Helvetica,sans-Serif" font-size="10.00" fill="#000000">/home/bdn_jz/bdn_jz</text>
<text text-anchor="start" x="657.2797" y="-674.5" font-family="Helvetica,sans-Serif" font-size="10.00" fill="#000000">/camera&#45;tracker&#45;cpp</text>
<text text-anchor="start" x="657.2797" y="-663.5" font-family="Helvetica,sans-Serif" font-size="10.00" fill="#000000">/CameraTrackerLinux/include</text>
<text text-anchor="start" x="657.2797" y="-652.5" font-family="Helvetica,sans-Serif" font-size="10.00" fill="#000000">/nlohmann/detail/iterators</text>
<text text-anchor="middle" x="721.2797" y="-641.5" font-family="Helvetica,sans-Serif" font-size="10.00" fill="#000000">/iter_impl.hpp</text>
</a>
</g>
</g>
<!-- Node17&#45;&gt;Node21 -->
<g id="edge27" class="edge">
<title>Node17&#45;&gt;Node21</title>
<path fill="none" stroke="#191970" d="M537.1877,-827.4842C580.2772,-789.6864 645.2,-732.7366 685.3214,-697.5423"/>
<polygon fill="#191970" stroke="#191970" points="534.6165,-825.0838 529.407,-834.3094 539.2326,-830.3462 534.6165,-825.0838"/>
</g>
<!-- Node22 -->
<g id="node20" class="node">
<title>Node22</title>
<g id="a_node20"><a xlink:href="iteration__proxy_8hpp.html" target="_top" xlink:title="/home/bdn_jz/bdn_jz\l/camera&#45;tracker&#45;cpp\l/CameraTrackerLinux/include\l/nlohmann/detail/iterators\l/iteration_proxy.hpp">
<polygon fill="#ffffff" stroke="#000000" points="487.2797,-634.5 487.2797,-697.5 631.2797,-697.5 631.2797,-634.5 487.2797,-634.5"/>
<text text-anchor="start" x="495.2797" y="-685.5" font-family="Helvetica,sans-Serif" font-size="10.00" fill="#000000">/home/bdn_jz/bdn_jz</text>
<text text-anchor="start" x="495.2797" y="-674.5" font-family="Helvetica,sans-Serif" font-size="10.00" fill="#000000">/camera&#45;tracker&#45;cpp</text>
<text text-anchor="start" x="495.2797" y="-663.5" font-family="Helvetica,sans-Serif" font-size="10.00" fill="#000000">/CameraTrackerLinux/include</text>
<text text-anchor="start" x="495.2797" y="-652.5" font-family="Helvetica,sans-Serif" font-size="10.00" fill="#000000">/nlohmann/detail/iterators</text>
<text text-anchor="middle" x="559.2797" y="-641.5" font-family="Helvetica,sans-Serif" font-size="10.00" fill="#000000">/iteration_proxy.hpp</text>
</a>
</g>
</g>
<!-- Node17&#45;&gt;Node22 -->
<g id="edge29" class="edge">
<title>Node17&#45;&gt;Node22</title>
<path fill="none" stroke="#191970" d="M506.9331,-824.6261C519.3945,-786.8642 537.5458,-731.8604 548.8707,-697.5423"/>
<polygon fill="#191970" stroke="#191970" points="503.5477,-823.7163 503.7376,-834.3094 510.1951,-825.91 503.5477,-823.7163"/>
</g>
<!-- Node23 -->
<g id="node21" class="node">
<title>Node23</title>
<g id="a_node21"><a xlink:href="json__ref_8hpp.html" target="_top" xlink:title="/home/bdn_jz/bdn_jz\l/camera&#45;tracker&#45;cpp\l/CameraTrackerLinux/include\l/nlohmann/detail/json_ref.hpp">
<polygon fill="#ffffff" stroke="#000000" points="664.2797,-740 664.2797,-792 808.2797,-792 808.2797,-740 664.2797,-740"/>
<text text-anchor="start" x="672.2797" y="-780" font-family="Helvetica,sans-Serif" font-size="10.00" fill="#000000">/home/bdn_jz/bdn_jz</text>
<text text-anchor="start" x="672.2797" y="-769" font-family="Helvetica,sans-Serif" font-size="10.00" fill="#000000">/camera&#45;tracker&#45;cpp</text>
<text text-anchor="start" x="672.2797" y="-758" font-family="Helvetica,sans-Serif" font-size="10.00" fill="#000000">/CameraTrackerLinux/include</text>
<text text-anchor="middle" x="736.2797" y="-747" font-family="Helvetica,sans-Serif" font-size="10.00" fill="#000000">/nlohmann/detail/json_ref.hpp</text>
</a>
</g>
</g>
<!-- Node17&#45;&gt;Node23 -->
<g id="edge32" class="edge">
<title>Node17&#45;&gt;Node23</title>
<path fill="none" stroke="#191970" d="M574.8718,-832.423C606.8613,-819.2586 643.0029,-804.3855 672.9647,-792.0556"/>
<polygon fill="#191970" stroke="#191970" points="573.4454,-829.2252 565.5298,-836.2675 576.1093,-835.6985 573.4454,-829.2252"/>
</g>
<!-- Node18&#45;&gt;Node6 -->
<g id="edge21" class="edge">
<title>Node18&#45;&gt;Node6</title>
<path fill="none" stroke="#191970" d="M429.7653,-524.5115C436.2811,-499.751 447.1376,-468.6332 464.2797,-445 474.3958,-431.0533 488.4749,-418.7025 502.0615,-408.7405"/>
<polygon fill="#191970" stroke="#191970" points="426.3362,-523.798 427.3142,-534.3476 433.1285,-525.4907 426.3362,-523.798"/>
</g>
<!-- Node19 -->
<g id="node17" class="node">
<title>Node19</title>
<g id="a_node17"><a xlink:href="adl__serializer_8hpp.html" target="_top" xlink:title="/home/bdn_jz/bdn_jz\l/camera&#45;tracker&#45;cpp\l/CameraTrackerLinux/include\l/nlohmann/adl_serializer.hpp">
<polygon fill="#ffffff" stroke="#000000" points="473.2797,-445.5 473.2797,-497.5 617.2797,-497.5 617.2797,-445.5 473.2797,-445.5"/>
<text text-anchor="start" x="481.2797" y="-485.5" font-family="Helvetica,sans-Serif" font-size="10.00" fill="#000000">/home/bdn_jz/bdn_jz</text>
<text text-anchor="start" x="481.2797" y="-474.5" font-family="Helvetica,sans-Serif" font-size="10.00" fill="#000000">/camera&#45;tracker&#45;cpp</text>
<text text-anchor="start" x="481.2797" y="-463.5" font-family="Helvetica,sans-Serif" font-size="10.00" fill="#000000">/CameraTrackerLinux/include</text>
<text text-anchor="middle" x="545.2797" y="-452.5" font-family="Helvetica,sans-Serif" font-size="10.00" fill="#000000">/nlohmann/adl_serializer.hpp</text>
</a>
</g>
</g>
<!-- Node18&#45;&gt;Node19 -->
<g id="edge22" class="edge">
<title>Node18&#45;&gt;Node19</title>
<path fill="none" stroke="#191970" d="M471.1171,-528.0191C484.4912,-517.8267 498.6512,-507.0354 510.9741,-497.6442"/>
<polygon fill="#191970" stroke="#191970" points="468.7469,-525.4248 462.9148,-534.27 472.9899,-530.9923 468.7469,-525.4248"/>
</g>
<!-- Node19&#45;&gt;Node6 -->
<g id="edge23" class="edge">
<title>Node19&#45;&gt;Node6</title>
<path fill="none" stroke="#191970" d="M545.2797,-435.1155C545.2797,-426.2061 545.2797,-416.8475 545.2797,-408.5341"/>
<polygon fill="#191970" stroke="#191970" points="541.7798,-435.2784 545.2797,-445.2784 548.7798,-435.2785 541.7798,-435.2784"/>
</g>
<!-- Node20&#45;&gt;Node6 -->
<g id="edge25" class="edge">
<title>Node20&#45;&gt;Node6</title>
<path fill="none" stroke="#191970" d="M613.556,-525.8382C627.7695,-501.8216 639.0663,-471.0168 626.2797,-445 619.0719,-430.3344 606.5835,-418.1378 593.5409,-408.5297"/>
<polygon fill="#191970" stroke="#191970" points="610.5626,-524.0237 608.2266,-534.3579 616.4972,-527.736 610.5626,-524.0237"/>
</g>
<!-- Node20&#45;&gt;Node19 -->
<g id="edge26" class="edge">
<title>Node20&#45;&gt;Node19</title>
<path fill="none" stroke="#191970" d="M566.7241,-524.8289C563.0138,-515.6021 559.1771,-506.0608 555.7927,-497.6442"/>
<polygon fill="#191970" stroke="#191970" points="563.5423,-526.2978 570.5205,-534.27 570.0369,-523.6862 563.5423,-526.2978"/>
</g>
<!-- Node21&#45;&gt;Node6 -->
<g id="edge28" class="edge">
<title>Node21&#45;&gt;Node6</title>
<path fill="none" stroke="#191970" d="M721.1099,-624.2081C718.8306,-576.1275 708.4466,-497.1217 667.2797,-445 654.373,-428.6588 636.0367,-416.1868 617.4901,-406.8481"/>
<polygon fill="#191970" stroke="#191970" points="717.6149,-624.4087 721.4897,-634.2696 724.6099,-624.1446 717.6149,-624.4087"/>
</g>
<!-- Node22&#45;&gt;Node6 -->
<g id="edge30" class="edge">
<title>Node22&#45;&gt;Node6</title>
<path fill="none" stroke="#191970" d="M637.8294,-628.3141C648.4457,-619.8386 657.8723,-609.7832 664.2797,-598 677.8679,-573.0111 667.5678,-562.2538 664.2797,-534 659.5815,-493.6307 666.8078,-478.1388 643.2797,-445 632.7657,-430.1913 617.532,-418.0702 602.1965,-408.5773"/>
<polygon fill="#191970" stroke="#191970" points="635.453,-625.7192 629.5095,-634.4899 639.6252,-631.34 635.453,-625.7192"/>
</g>
<!-- Node22&#45;&gt;Node20 -->
<g id="edge31" class="edge">
<title>Node22&#45;&gt;Node20</title>
<path fill="none" stroke="#191970" d="M569.2398,-624.4993C571.3829,-615.5699 573.6154,-606.268 575.6529,-597.778"/>
<polygon fill="#191970" stroke="#191970" points="565.8039,-623.8187 566.8734,-634.3594 572.6106,-625.4523 565.8039,-623.8187"/>
</g>
<!-- Node23&#45;&gt;Node6 -->
<g id="edge33" class="edge">
<title>Node23&#45;&gt;Node6</title>
<path fill="none" stroke="#191970" d="M778.147,-732.9634C787.9201,-722.8921 797.0064,-711.0045 802.2797,-698 812.9685,-671.6403 809.4702,-661.5206 802.2797,-634 777.9334,-540.8189 768.2999,-508.9417 696.2797,-445 674.0021,-425.2213 644.5966,-411.153 617.6581,-401.4382"/>
<polygon fill="#191970" stroke="#191970" points="775.678,-730.4824 770.9541,-739.9659 780.5609,-735.4981 775.678,-730.4824"/>
</g>
</g>
</svg>
