<?xml version="1.0" encoding="UTF-8" standalone="no"?>
<!DOCTYPE svg PUBLIC "-//W3C//DTD SVG 1.1//EN"
 "http://www.w3.org/Graphics/SVG/1.1/DTD/svg11.dtd">
<!-- Generated by graphviz version 2.40.1 (20161225.0304)
 -->
<!-- Title: /home/bdn_jz/bdn_jz/camera&#45;tracker&#45;cpp/CameraTrackerLinux/include/nlohmann/detail Pages: 1 -->
<svg width="218pt" height="327pt"
 viewBox="0.00 0.00 218.00 327.00" xmlns="http://www.w3.org/2000/svg" xmlns:xlink="http://www.w3.org/1999/xlink">
<g id="graph0" class="graph" transform="scale(1 1) rotate(0) translate(4 323)">
<title>/home/bdn_jz/bdn_jz/camera&#45;tracker&#45;cpp/CameraTrackerLinux/include/nlohmann/detail</title>
<polygon fill="#ffffff" stroke="transparent" points="-4,4 -4,-323 214,-323 214,4 -4,4"/>
<g id="clust1" class="cluster">
<title>clusterdir_fa316d1ecd71465cbeab17f4208e6946</title>
<g id="a_clust1"><a xlink:href="dir_fa316d1ecd71465cbeab17f4208e6946.html" target="_top" xlink:title="nlohmann">
<polygon fill="#ddddee" stroke="#000000" points="8,-8 8,-311 202,-311 202,-8 8,-8"/>
<text text-anchor="middle" x="105" y="-299" font-family="Helvetica,sans-Serif" font-size="10.00" fill="#000000">nlohmann</text>
</a>
</g>
</g>
<g id="clust2" class="cluster">
<title>clusterdir_2b6972d6a6c3e784631d329d2725fa49</title>
<g id="a_clust2"><a xlink:href="dir_2b6972d6a6c3e784631d329d2725fa49.html" target="_top">
<polygon fill="#eeeeff" stroke="#000000" points="16,-16 16,-284 194,-284 194,-16 16,-16"/>
</a>
</g>
</g>
<!-- dir_2b6972d6a6c3e784631d329d2725fa49 -->
<g id="node1" class="node">
<title>dir_2b6972d6a6c3e784631d329d2725fa49</title>
<text text-anchor="middle" x="159" y="-255.5" font-family="Helvetica,sans-Serif" font-size="10.00" fill="#000000">detail</text>
</g>
<!-- dir_a9a007a32e58d75fcc663c8040a6eae9 -->
<g id="node3" class="node">
<title>dir_a9a007a32e58d75fcc663c8040a6eae9</title>
<g id="a_node3"><a xlink:href="dir_a9a007a32e58d75fcc663c8040a6eae9.html" target="_top" xlink:title="input">
<polygon fill="#ffffff" stroke="#000000" points="186,-204 132,-204 132,-168 186,-168 186,-204"/>
<text text-anchor="middle" x="159" y="-183.5" font-family="Helvetica,sans-Serif" font-size="10.00" fill="#000000">input</text>
</a>
</g>
</g>
<!-- dir_2b6972d6a6c3e784631d329d2725fa49&#45;&gt;dir_a9a007a32e58d75fcc663c8040a6eae9 -->
<g id="edge1" class="edge">
<title>dir_2b6972d6a6c3e784631d329d2725fa49&#45;&gt;dir_a9a007a32e58d75fcc663c8040a6eae9</title>
<path fill="none" stroke="#000000" d="M159,-239.8314C159,-232.131 159,-222.9743 159,-214.4166"/>
<polygon fill="#000000" stroke="#000000" points="162.5001,-214.4132 159,-204.4133 155.5001,-214.4133 162.5001,-214.4132"/>
<g id="a_edge1&#45;headlabel"><a xlink:href="dir_000007_000009.html" target="_top" xlink:title="2">
<text text-anchor="middle" x="165.3393" y="-215.5079" font-family="Helvetica,sans-Serif" font-size="10.00" fill="#000000">2</text>
</a>
</g>
</g>
<!-- dir_f1efdb67a2e01ba560d7abb4eb7f4eb3 -->
<g id="node2" class="node">
<title>dir_f1efdb67a2e01ba560d7abb4eb7f4eb3</title>
<g id="a_node2"><a xlink:href="dir_f1efdb67a2e01ba560d7abb4eb7f4eb3.html" target="_top" xlink:title="conversions">
<polygon fill="#ffffff" stroke="#000000" points="113.5,-204 44.5,-204 44.5,-168 113.5,-168 113.5,-204"/>
<text text-anchor="middle" x="79" y="-183.5" font-family="Helvetica,sans-Serif" font-size="10.00" fill="#000000">conversions</text>
</a>
</g>
</g>
<!-- dir_b22bbbc741cd35750d003b17c98d5bba -->
<g id="node4" class="node">
<title>dir_b22bbbc741cd35750d003b17c98d5bba</title>
<g id="a_node4"><a xlink:href="dir_b22bbbc741cd35750d003b17c98d5bba.html" target="_top" xlink:title="iterators">
<polygon fill="#ffffff" stroke="#000000" points="140,-132 86,-132 86,-96 140,-96 140,-132"/>
<text text-anchor="middle" x="113" y="-111.5" font-family="Helvetica,sans-Serif" font-size="10.00" fill="#000000">iterators</text>
</a>
</g>
</g>
<!-- dir_f1efdb67a2e01ba560d7abb4eb7f4eb3&#45;&gt;dir_b22bbbc741cd35750d003b17c98d5bba -->
<g id="edge8" class="edge">
<title>dir_f1efdb67a2e01ba560d7abb4eb7f4eb3&#45;&gt;dir_b22bbbc741cd35750d003b17c98d5bba</title>
<path fill="none" stroke="#000000" d="M87.5796,-167.8314C91.3358,-159.8771 95.8257,-150.369 99.9798,-141.5723"/>
<polygon fill="#000000" stroke="#000000" points="103.1996,-142.9503 104.3048,-132.4133 96.8699,-139.9612 103.1996,-142.9503"/>
<g id="a_edge8&#45;headlabel"><a xlink:href="dir_000008_000010.html" target="_top" xlink:title="1">
<text text-anchor="middle" x="104.2321" y="-144.9131" font-family="Helvetica,sans-Serif" font-size="10.00" fill="#000000">1</text>
</a>
</g>
</g>
<!-- dir_c4932de8b1acb55fc5bb0ab19ac830b2 -->
<g id="node5" class="node">
<title>dir_c4932de8b1acb55fc5bb0ab19ac830b2</title>
<g id="a_node5"><a xlink:href="dir_c4932de8b1acb55fc5bb0ab19ac830b2.html" target="_top" xlink:title="meta">
<polygon fill="#ffffff" stroke="#000000" points="140,-60 86,-60 86,-24 140,-24 140,-60"/>
<text text-anchor="middle" x="113" y="-39.5" font-family="Helvetica,sans-Serif" font-size="10.00" fill="#000000">meta</text>
</a>
</g>
</g>
<!-- dir_f1efdb67a2e01ba560d7abb4eb7f4eb3&#45;&gt;dir_c4932de8b1acb55fc5bb0ab19ac830b2 -->
<g id="edge7" class="edge">
<title>dir_f1efdb67a2e01ba560d7abb4eb7f4eb3&#45;&gt;dir_c4932de8b1acb55fc5bb0ab19ac830b2</title>
<path fill="none" stroke="#000000" d="M75.3657,-167.9661C72.3793,-149.471 69.7083,-120.0828 77,-96 79.9564,-86.2355 85.3252,-76.6229 91.03,-68.2762"/>
<polygon fill="#000000" stroke="#000000" points="93.9414,-70.2239 97.0095,-60.0831 88.2871,-66.0973 93.9414,-70.2239"/>
<g id="a_edge7&#45;headlabel"><a xlink:href="dir_000008_000011.html" target="_top" xlink:title="4">
<text text-anchor="middle" x="94.1158" y="-72.3013" font-family="Helvetica,sans-Serif" font-size="10.00" fill="#000000">4</text>
</a>
</g>
</g>
<!-- dir_a9a007a32e58d75fcc663c8040a6eae9&#45;&gt;dir_b22bbbc741cd35750d003b17c98d5bba -->
<g id="edge3" class="edge">
<title>dir_a9a007a32e58d75fcc663c8040a6eae9&#45;&gt;dir_b22bbbc741cd35750d003b17c98d5bba</title>
<path fill="none" stroke="#000000" d="M147.3923,-167.8314C142.2022,-159.7079 135.9768,-149.9637 130.2575,-141.0118"/>
<polygon fill="#000000" stroke="#000000" points="133.0974,-138.9559 124.764,-132.4133 127.1985,-142.7246 133.0974,-138.9559"/>
<g id="a_edge3&#45;headlabel"><a xlink:href="dir_000009_000010.html" target="_top" xlink:title="1">
<text text-anchor="middle" x="137.4253" y="-137.9564" font-family="Helvetica,sans-Serif" font-size="10.00" fill="#000000">1</text>
</a>
</g>
</g>
<!-- dir_a9a007a32e58d75fcc663c8040a6eae9&#45;&gt;dir_c4932de8b1acb55fc5bb0ab19ac830b2 -->
<g id="edge2" class="edge">
<title>dir_a9a007a32e58d75fcc663c8040a6eae9&#45;&gt;dir_c4932de8b1acb55fc5bb0ab19ac830b2</title>
<path fill="none" stroke="#000000" d="M159.4698,-167.842C159.3849,-149.248 157.6632,-119.7823 149,-96 145.5081,-86.414 139.9827,-76.8535 134.299,-68.4998"/>
<polygon fill="#000000" stroke="#000000" points="137.073,-66.3622 128.3975,-60.2807 131.387,-70.445 137.073,-66.3622"/>
<g id="a_edge2&#45;headlabel"><a xlink:href="dir_000009_000011.html" target="_top" xlink:title="2">
<text text-anchor="middle" x="141.4759" y="-65.1261" font-family="Helvetica,sans-Serif" font-size="10.00" fill="#000000">2</text>
</a>
</g>
</g>
<!-- dir_b22bbbc741cd35750d003b17c98d5bba&#45;&gt;dir_c4932de8b1acb55fc5bb0ab19ac830b2 -->
<g id="edge10" class="edge">
<title>dir_b22bbbc741cd35750d003b17c98d5bba&#45;&gt;dir_c4932de8b1acb55fc5bb0ab19ac830b2</title>
<path fill="none" stroke="#000000" d="M107.0476,-95.8314C106.2972,-88.131 106.0763,-78.9743 106.3849,-70.4166"/>
<polygon fill="#000000" stroke="#000000" points="109.8792,-70.6161 107.024,-60.4133 102.8935,-70.1697 109.8792,-70.6161"/>
<g id="a_edge10&#45;headlabel"><a xlink:href="dir_000010_000011.html" target="_top" xlink:title="5">
<text text-anchor="middle" x="112.4836" y="-71.8844" font-family="Helvetica,sans-Serif" font-size="10.00" fill="#000000">5</text>
</a>
</g>
</g>
<!-- dir_c4932de8b1acb55fc5bb0ab19ac830b2&#45;&gt;dir_b22bbbc741cd35750d003b17c98d5bba -->
<g id="edge9" class="edge">
<title>dir_c4932de8b1acb55fc5bb0ab19ac830b2&#45;&gt;dir_b22bbbc741cd35750d003b17c98d5bba</title>
<path fill="none" stroke="#000000" d="M118.976,-60.4133C119.7071,-68.0593 119.9203,-77.1084 119.6155,-85.5726"/>
<polygon fill="#000000" stroke="#000000" points="116.1048,-85.6264 118.9524,-95.8314 123.0902,-86.078 116.1048,-85.6264"/>
<g id="a_edge9&#45;headlabel"><a xlink:href="dir_000011_000010.html" target="_top" xlink:title="1">
<text text-anchor="middle" x="113.5032" y="-79.3562" font-family="Helvetica,sans-Serif" font-size="10.00" fill="#000000">1</text>
</a>
</g>
</g>
<!-- dir_b7bbd8672caccc6988c002584921cdff -->
<g id="node6" class="node">
<title>dir_b7bbd8672caccc6988c002584921cdff</title>
<g id="a_node6"><a xlink:href="dir_b7bbd8672caccc6988c002584921cdff.html" target="_top" xlink:title="output">
<polygon fill="#ffffff" stroke="#000000" points="106,-276 52,-276 52,-240 106,-240 106,-276"/>
<text text-anchor="middle" x="79" y="-255.5" font-family="Helvetica,sans-Serif" font-size="10.00" fill="#000000">output</text>
</a>
</g>
</g>
<!-- dir_b7bbd8672caccc6988c002584921cdff&#45;&gt;dir_f1efdb67a2e01ba560d7abb4eb7f4eb3 -->
<g id="edge5" class="edge">
<title>dir_b7bbd8672caccc6988c002584921cdff&#45;&gt;dir_f1efdb67a2e01ba560d7abb4eb7f4eb3</title>
<path fill="none" stroke="#000000" d="M79,-239.8314C79,-232.131 79,-222.9743 79,-214.4166"/>
<polygon fill="#000000" stroke="#000000" points="82.5001,-214.4132 79,-204.4133 75.5001,-214.4133 82.5001,-214.4132"/>
<g id="a_edge5&#45;headlabel"><a xlink:href="dir_000012_000008.html" target="_top" xlink:title="1">
<text text-anchor="middle" x="85.3393" y="-215.5079" font-family="Helvetica,sans-Serif" font-size="10.00" fill="#000000">1</text>
</a>
</g>
</g>
<!-- dir_b7bbd8672caccc6988c002584921cdff&#45;&gt;dir_a9a007a32e58d75fcc663c8040a6eae9 -->
<g id="edge4" class="edge">
<title>dir_b7bbd8672caccc6988c002584921cdff&#45;&gt;dir_a9a007a32e58d75fcc663c8040a6eae9</title>
<path fill="none" stroke="#000000" d="M99.1874,-239.8314C108.8514,-231.1337 120.5796,-220.5783 131.0816,-211.1265"/>
<polygon fill="#000000" stroke="#000000" points="133.7275,-213.454 138.8191,-204.1628 129.0447,-208.251 133.7275,-213.454"/>
<g id="a_edge4&#45;headlabel"><a xlink:href="dir_000012_000009.html" target="_top" xlink:title="1">
<text text-anchor="middle" x="132.955" y="-215.4691" font-family="Helvetica,sans-Serif" font-size="10.00" fill="#000000">1</text>
</a>
</g>
</g>
<!-- dir_b7bbd8672caccc6988c002584921cdff&#45;&gt;dir_c4932de8b1acb55fc5bb0ab19ac830b2 -->
<g id="edge6" class="edge">
<title>dir_b7bbd8672caccc6988c002584921cdff&#45;&gt;dir_c4932de8b1acb55fc5bb0ab19ac830b2</title>
<path fill="none" stroke="#000000" d="M59.5044,-239.9663C50.4897,-230.2894 40.7449,-217.5757 36,-204 30.721,-188.896 32.6785,-183.6514 36,-168 43.2695,-133.7447 49.5033,-125.7346 68,-96 74.0571,-86.2627 81.7307,-76.3981 89.0179,-67.8116"/>
<polygon fill="#000000" stroke="#000000" points="91.8824,-69.8522 95.8209,-60.0166 86.6085,-65.2495 91.8824,-69.8522"/>
<g id="a_edge6&#45;headlabel"><a xlink:href="dir_000012_000011.html" target="_top" xlink:title="1">
<text text-anchor="middle" x="91.658" y="-71.9274" font-family="Helvetica,sans-Serif" font-size="10.00" fill="#000000">1</text>
</a>
</g>
</g>
</g>
</svg>
