<?xml version="1.0" encoding="UTF-8" standalone="no"?>
<!DOCTYPE svg PUBLIC "-//W3C//DTD SVG 1.1//EN"
 "http://www.w3.org/Graphics/SVG/1.1/DTD/svg11.dtd">
<!-- Generated by graphviz version 2.40.1 (20161225.0304)
 -->
<!-- Title: /home/bdn_jz/bdn_jz/camera&#45;tracker&#45;cpp/CameraTrackerLinux/include/nlohmann/detail/meta Pages: 1 -->
<svg width="94pt" height="151pt"
 viewBox="0.00 0.00 94.00 151.00" xmlns="http://www.w3.org/2000/svg" xmlns:xlink="http://www.w3.org/1999/xlink">
<g id="graph0" class="graph" transform="scale(1 1) rotate(0) translate(4 147)">
<title>/home/bdn_jz/bdn_jz/camera&#45;tracker&#45;cpp/CameraTrackerLinux/include/nlohmann/detail/meta</title>
<polygon fill="#ffffff" stroke="transparent" points="-4,4 -4,-147 90,-147 90,4 -4,4"/>
<g id="clust1" class="cluster">
<title>clusterdir_2b6972d6a6c3e784631d329d2725fa49</title>
<g id="a_clust1"><a xlink:href="dir_2b6972d6a6c3e784631d329d2725fa49.html" target="_top" xlink:title="detail">
<polygon fill="#ddddee" stroke="#000000" points="8,-64 8,-135 78,-135 78,-64 8,-64"/>
<text text-anchor="middle" x="43" y="-123" font-family="Helvetica,sans-Serif" font-size="10.00" fill="#000000">detail</text>
</a>
</g>
</g>
<!-- dir_c4932de8b1acb55fc5bb0ab19ac830b2 -->
<g id="node1" class="node">
<title>dir_c4932de8b1acb55fc5bb0ab19ac830b2</title>
<g id="a_node1"><a xlink:href="dir_c4932de8b1acb55fc5bb0ab19ac830b2.html" target="_top" xlink:title="meta">
<polygon fill="#eeeeff" stroke="#000000" points="70,-108 16,-108 16,-72 70,-72 70,-108"/>
<text text-anchor="middle" x="43" y="-87.5" font-family="Helvetica,sans-Serif" font-size="10.00" fill="#000000">meta</text>
</a>
</g>
</g>
<!-- dir_b22bbbc741cd35750d003b17c98d5bba -->
<g id="node2" class="node">
<title>dir_b22bbbc741cd35750d003b17c98d5bba</title>
<g id="a_node2"><a xlink:href="dir_b22bbbc741cd35750d003b17c98d5bba.html" target="_top" xlink:title="iterators">
<polygon fill="none" stroke="#000000" points="70,-36 16,-36 16,0 70,0 70,-36"/>
<text text-anchor="middle" x="43" y="-15.5" font-family="Helvetica,sans-Serif" font-size="10.00" fill="#000000">iterators</text>
</a>
</g>
</g>
<!-- dir_c4932de8b1acb55fc5bb0ab19ac830b2&#45;&gt;dir_b22bbbc741cd35750d003b17c98d5bba -->
<g id="edge1" class="edge">
<title>dir_c4932de8b1acb55fc5bb0ab19ac830b2&#45;&gt;dir_b22bbbc741cd35750d003b17c98d5bba</title>
<path fill="none" stroke="#000000" d="M37.0476,-71.8314C36.2972,-64.131 36.0763,-54.9743 36.3849,-46.4166"/>
<polygon fill="#000000" stroke="#000000" points="39.8792,-46.6161 37.024,-36.4133 32.8935,-46.1697 39.8792,-46.6161"/>
<g id="a_edge1&#45;headlabel"><a xlink:href="dir_000011_000010.html" target="_top" xlink:title="1">
<text text-anchor="middle" x="42.4836" y="-47.8844" font-family="Helvetica,sans-Serif" font-size="10.00" fill="#000000">1</text>
</a>
</g>
</g>
<!-- dir_b22bbbc741cd35750d003b17c98d5bba&#45;&gt;dir_c4932de8b1acb55fc5bb0ab19ac830b2 -->
<g id="edge2" class="edge">
<title>dir_b22bbbc741cd35750d003b17c98d5bba&#45;&gt;dir_c4932de8b1acb55fc5bb0ab19ac830b2</title>
<path fill="none" stroke="#000000" d="M48.976,-36.4133C49.7071,-44.0593 49.9203,-53.1084 49.6155,-61.5726"/>
<polygon fill="#000000" stroke="#000000" points="46.1048,-61.6264 48.9524,-71.8314 53.0902,-62.078 46.1048,-61.6264"/>
<g id="a_edge2&#45;headlabel"><a xlink:href="dir_000010_000011.html" target="_top" xlink:title="5">
<text text-anchor="middle" x="43.5032" y="-55.3562" font-family="Helvetica,sans-Serif" font-size="10.00" fill="#000000">5</text>
</a>
</g>
</g>
</g>
</svg>
