<?xml version="1.0" encoding="UTF-8" standalone="no"?>
<!DOCTYPE svg PUBLIC "-//W3C//DTD SVG 1.1//EN"
 "http://www.w3.org/Graphics/SVG/1.1/DTD/svg11.dtd">
<!-- Generated by graphviz version 2.40.1 (20161225.0304)
 -->
<!-- Title: /home/bdn_jz/bdn_jz/camera&#45;tracker&#45;cpp/CameraTrackerLinux/include/nlohmann/detail/exceptions.hpp Pages: 1 -->
<!--zoomable 806 -->
<svg id="main" version="1.1" xmlns="http://www.w3.org/2000/svg" xmlns:xlink="http://www.w3.org/1999/xlink" xml:space="preserve" onload="init(evt)">
<style type="text/css"><![CDATA[
.edge:hover path { stroke: red; }
.edge:hover polygon { stroke: red; fill: red; }
]]></style>
<script type="text/javascript"><![CDATA[
var edges = document.getElementsByTagName('g');
if (edges && edges.length) {
  for (var i=0;i<edges.length;i++) {
    if (edges[i].id.substr(0,4)=='edge') {
      edges[i].setAttribute('class','edge');
    }
  }
}
]]></script>
        <defs>
                <circle id="rim" cx="0" cy="0" r="7"/>
                <circle id="rim2" cx="0" cy="0" r="3.5"/>
                <g id="zoomPlus">
                        <use xlink:href="#rim" target="_top" fill="#404040">
                                <set attributeName="fill" to="#808080" begin="zoomplus.mouseover" end="zoomplus.mouseout"/>
                        </use>
                        <path d="M-4,0h8M0,-4v8" fill="none" stroke="white" stroke-width="1.5" pointer-events="none"/>
                </g>
                <g id="zoomMin">
                        <use xlink:href="#rim" target="_top" fill="#404040">
                                <set attributeName="fill" to="#808080" begin="zoomminus.mouseover" end="zoomminus.mouseout"/>
                        </use>
                        <path d="M-4,0h8" fill="none" stroke="white" stroke-width="1.5" pointer-events="none"/>
                </g>
                <g id="dirArrow">
                        <path fill="none" stroke="white" stroke-width="1.5" d="M0,-3.0v7 M-2.5,-0.5L0,-3.0L2.5,-0.5"/>
                </g>
               <g id="resetDef">
                       <use xlink:href="#rim2" target="_top" fill="#404040">
                               <set attributeName="fill" to="#808080" begin="reset.mouseover" end="reset.mouseout"/>
                       </use>
               </g>
        </defs>

<script type="text/javascript">
var viewWidth = 867;
var viewHeight = 806;
var sectionId = 'dynsection-1';
</script>
<script xlink:href="svgpan.js" target="_top"/>
<svg id="graph" class="graph">
<g id="viewport">
<title>/home/bdn_jz/bdn_jz/camera&#45;tracker&#45;cpp/CameraTrackerLinux/include/nlohmann/detail/exceptions.hpp</title>
<polygon fill="#ffffff" stroke="transparent" points="-4,4 -4,-802 863.4666,-802 863.4666,4 -4,4"/>
<!-- Node10 -->
<g id="node1" class="node">
<title>Node10</title>
<polygon fill="#bfbfbf" stroke="#000000" points="378.9666,-745.5 378.9666,-797.5 535.9666,-797.5 535.9666,-745.5 378.9666,-745.5"/>
<text text-anchor="start" x="386.9666" y="-785.5" font-family="Helvetica,sans-Serif" font-size="10.00" fill="#000000">/home/bdn_jz/bdn_jz</text>
<text text-anchor="start" x="386.9666" y="-774.5" font-family="Helvetica,sans-Serif" font-size="10.00" fill="#000000">/camera&#45;tracker&#45;cpp</text>
<text text-anchor="start" x="386.9666" y="-763.5" font-family="Helvetica,sans-Serif" font-size="10.00" fill="#000000">/CameraTrackerLinux/include</text>
<text text-anchor="middle" x="457.4666" y="-752.5" font-family="Helvetica,sans-Serif" font-size="10.00" fill="#000000">/nlohmann/detail/exceptions.hpp</text>
</g>
<!-- Node11 -->
<g id="node2" class="node">
<title>Node11</title>
<g id="a_node2"><a xlink:href="json_8hpp.html" target="_top" target="_top" xlink:title="/home/bdn_jz/bdn_jz\l/camera&#45;tracker&#45;cpp\l/CameraTrackerLinux/include\l/nlohmann/json.hpp">
<polygon fill="#ffffff" stroke="#000000" points="208.4666,-267.5 208.4666,-319.5 352.4666,-319.5 352.4666,-267.5 208.4666,-267.5"/>
<text text-anchor="start" x="216.4666" y="-307.5" font-family="Helvetica,sans-Serif" font-size="10.00" fill="#000000">/home/bdn_jz/bdn_jz</text>
<text text-anchor="start" x="216.4666" y="-296.5" font-family="Helvetica,sans-Serif" font-size="10.00" fill="#000000">/camera&#45;tracker&#45;cpp</text>
<text text-anchor="start" x="216.4666" y="-285.5" font-family="Helvetica,sans-Serif" font-size="10.00" fill="#000000">/CameraTrackerLinux/include</text>
<text text-anchor="middle" x="280.4666" y="-274.5" font-family="Helvetica,sans-Serif" font-size="10.00" fill="#000000">/nlohmann/json.hpp</text>
</a>
</g>
</g>
<!-- Node10&#45;&gt;Node11 -->
<g id="edge1" class="edge">
<title>Node10&#45;&gt;Node11</title>
<path fill="none" stroke="#191970" d="M368.7213,-752.3544C236.8325,-721.3033 4.4666,-655.4626 4.4666,-577 4.4666,-577 4.4666,-577 4.4666,-477 4.4666,-422.5633 -13.3997,-396.0529 23.4666,-356 48.1891,-329.1406 141.3413,-311.5358 208.3838,-302.0508"/>
<polygon fill="#191970" stroke="#191970" points="368.285,-755.8466 378.8187,-754.71 369.8754,-749.0296 368.285,-755.8466"/>
</g>
<!-- Node17 -->
<g id="node8" class="node">
<title>Node17</title>
<g id="a_node8"><a xlink:href="from__json_8hpp.html" target="_top" target="_top" xlink:title="/home/bdn_jz/bdn_jz\l/camera&#45;tracker&#45;cpp\l/CameraTrackerLinux/include\l/nlohmann/detail/conversions\l/from_json.hpp">
<polygon fill="#ffffff" stroke="#000000" points="52.4666,-445.5 52.4666,-508.5 196.4666,-508.5 196.4666,-445.5 52.4666,-445.5"/>
<text text-anchor="start" x="60.4666" y="-496.5" font-family="Helvetica,sans-Serif" font-size="10.00" fill="#000000">/home/bdn_jz/bdn_jz</text>
<text text-anchor="start" x="60.4666" y="-485.5" font-family="Helvetica,sans-Serif" font-size="10.00" fill="#000000">/camera&#45;tracker&#45;cpp</text>
<text text-anchor="start" x="60.4666" y="-474.5" font-family="Helvetica,sans-Serif" font-size="10.00" fill="#000000">/CameraTrackerLinux/include</text>
<text text-anchor="start" x="60.4666" y="-463.5" font-family="Helvetica,sans-Serif" font-size="10.00" fill="#000000">/nlohmann/detail/conversions</text>
<text text-anchor="middle" x="124.4666" y="-452.5" font-family="Helvetica,sans-Serif" font-size="10.00" fill="#000000">/from_json.hpp</text>
</a>
</g>
</g>
<!-- Node10&#45;&gt;Node17 -->
<g id="edge8" class="edge">
<title>Node10&#45;&gt;Node17</title>
<path fill="none" stroke="#191970" d="M396.4022,-740.6013C379.1871,-731.1277 360.7285,-720.224 344.4666,-709 287.8901,-669.951 273.9668,-658.6936 226.4666,-609 195.949,-577.0732 165.5943,-536.3424 146.038,-508.6263"/>
<polygon fill="#191970" stroke="#191970" points="394.8149,-743.7221 405.273,-745.4191 398.1558,-737.5708 394.8149,-743.7221"/>
</g>
<!-- Node19 -->
<g id="node10" class="node">
<title>Node19</title>
<g id="a_node10"><a xlink:href="binary__reader_8hpp.html" target="_top" target="_top" xlink:title="/home/bdn_jz/bdn_jz\l/camera&#45;tracker&#45;cpp\l/CameraTrackerLinux/include\l/nlohmann/detail/input/binary\l_reader.hpp">
<polygon fill="#ffffff" stroke="#000000" points="235.4666,-545.5 235.4666,-608.5 379.4666,-608.5 379.4666,-545.5 235.4666,-545.5"/>
<text text-anchor="start" x="243.4666" y="-596.5" font-family="Helvetica,sans-Serif" font-size="10.00" fill="#000000">/home/bdn_jz/bdn_jz</text>
<text text-anchor="start" x="243.4666" y="-585.5" font-family="Helvetica,sans-Serif" font-size="10.00" fill="#000000">/camera&#45;tracker&#45;cpp</text>
<text text-anchor="start" x="243.4666" y="-574.5" font-family="Helvetica,sans-Serif" font-size="10.00" fill="#000000">/CameraTrackerLinux/include</text>
<text text-anchor="start" x="243.4666" y="-563.5" font-family="Helvetica,sans-Serif" font-size="10.00" fill="#000000">/nlohmann/detail/input/binary</text>
<text text-anchor="middle" x="307.4666" y="-552.5" font-family="Helvetica,sans-Serif" font-size="10.00" fill="#000000">_reader.hpp</text>
</a>
</g>
</g>
<!-- Node10&#45;&gt;Node19 -->
<g id="edge12" class="edge">
<title>Node10&#45;&gt;Node19</title>
<path fill="none" stroke="#191970" d="M420.706,-738.3092C411.3965,-729.1914 401.7084,-719.0402 393.4666,-709 367.0883,-676.8661 341.7159,-636.3561 325.4542,-608.745"/>
<polygon fill="#191970" stroke="#191970" points="418.4222,-740.9689 428.056,-745.3782 423.2746,-735.9236 418.4222,-740.9689"/>
</g>
<!-- Node21 -->
<g id="node12" class="node">
<title>Node21</title>
<g id="a_node12"><a xlink:href="serializer_8hpp.html" target="_top" target="_top" xlink:title="/home/bdn_jz/bdn_jz\l/camera&#45;tracker&#45;cpp\l/CameraTrackerLinux/include\l/nlohmann/detail/output/serializer.hpp">
<polygon fill="#ffffff" stroke="#000000" points="308.9666,-356.5 308.9666,-408.5 487.9666,-408.5 487.9666,-356.5 308.9666,-356.5"/>
<text text-anchor="start" x="316.9666" y="-396.5" font-family="Helvetica,sans-Serif" font-size="10.00" fill="#000000">/home/bdn_jz/bdn_jz</text>
<text text-anchor="start" x="316.9666" y="-385.5" font-family="Helvetica,sans-Serif" font-size="10.00" fill="#000000">/camera&#45;tracker&#45;cpp</text>
<text text-anchor="start" x="316.9666" y="-374.5" font-family="Helvetica,sans-Serif" font-size="10.00" fill="#000000">/CameraTrackerLinux/include</text>
<text text-anchor="middle" x="398.4666" y="-363.5" font-family="Helvetica,sans-Serif" font-size="10.00" fill="#000000">/nlohmann/detail/output/serializer.hpp</text>
</a>
</g>
</g>
<!-- Node10&#45;&gt;Node21 -->
<g id="edge27" class="edge">
<title>Node10&#45;&gt;Node21</title>
<path fill="none" stroke="#191970" d="M437.0178,-736.2889C432.833,-727.6228 428.9525,-718.1871 426.4666,-709 395.7486,-595.4768 421.7705,-561.8508 408.4666,-445 407.0992,-432.99 405.0606,-419.7617 403.1801,-408.5794"/>
<polygon fill="#191970" stroke="#191970" points="433.9707,-738.0184 441.6265,-745.3423 440.209,-734.8427 433.9707,-738.0184"/>
</g>
<!-- Node22 -->
<g id="node13" class="node">
<title>Node22</title>
<g id="a_node13"><a xlink:href="json__sax_8hpp.html" target="_top" target="_top" xlink:title="/home/bdn_jz/bdn_jz\l/camera&#45;tracker&#45;cpp\l/CameraTrackerLinux/include\l/nlohmann/detail/input/json\l_sax.hpp">
<polygon fill="#ffffff" stroke="#000000" points="435.4666,-645.5 435.4666,-708.5 579.4666,-708.5 579.4666,-645.5 435.4666,-645.5"/>
<text text-anchor="start" x="443.4666" y="-696.5" font-family="Helvetica,sans-Serif" font-size="10.00" fill="#000000">/home/bdn_jz/bdn_jz</text>
<text text-anchor="start" x="443.4666" y="-685.5" font-family="Helvetica,sans-Serif" font-size="10.00" fill="#000000">/camera&#45;tracker&#45;cpp</text>
<text text-anchor="start" x="443.4666" y="-674.5" font-family="Helvetica,sans-Serif" font-size="10.00" fill="#000000">/CameraTrackerLinux/include</text>
<text text-anchor="start" x="443.4666" y="-663.5" font-family="Helvetica,sans-Serif" font-size="10.00" fill="#000000">/nlohmann/detail/input/json</text>
<text text-anchor="middle" x="507.4666" y="-652.5" font-family="Helvetica,sans-Serif" font-size="10.00" fill="#000000">_sax.hpp</text>
</a>
</g>
</g>
<!-- Node10&#45;&gt;Node22 -->
<g id="edge18" class="edge">
<title>Node10&#45;&gt;Node22</title>
<path fill="none" stroke="#191970" d="M475.946,-736.5739C480.7761,-727.4451 485.9553,-717.6564 490.6913,-708.7054"/>
<polygon fill="#191970" stroke="#191970" points="472.8448,-734.9514 471.2617,-745.4273 479.0321,-738.2251 472.8448,-734.9514"/>
</g>
<!-- Node23 -->
<g id="node14" class="node">
<title>Node23</title>
<g id="a_node14"><a xlink:href="parser_8hpp.html" target="_top" target="_top" xlink:title="/home/bdn_jz/bdn_jz\l/camera&#45;tracker&#45;cpp\l/CameraTrackerLinux/include\l/nlohmann/detail/input/parser.hpp">
<polygon fill="#ffffff" stroke="#000000" points="435.9666,-551 435.9666,-603 596.9666,-603 596.9666,-551 435.9666,-551"/>
<text text-anchor="start" x="443.9666" y="-591" font-family="Helvetica,sans-Serif" font-size="10.00" fill="#000000">/home/bdn_jz/bdn_jz</text>
<text text-anchor="start" x="443.9666" y="-580" font-family="Helvetica,sans-Serif" font-size="10.00" fill="#000000">/camera&#45;tracker&#45;cpp</text>
<text text-anchor="start" x="443.9666" y="-569" font-family="Helvetica,sans-Serif" font-size="10.00" fill="#000000">/CameraTrackerLinux/include</text>
<text text-anchor="middle" x="516.4666" y="-558" font-family="Helvetica,sans-Serif" font-size="10.00" fill="#000000">/nlohmann/detail/input/parser.hpp</text>
</a>
</g>
</g>
<!-- Node10&#45;&gt;Node23 -->
<g id="edge22" class="edge">
<title>Node10&#45;&gt;Node23</title>
<path fill="none" stroke="#191970" d="M545.0985,-746.5043C562.2861,-737.4892 578.1619,-725.3337 588.4666,-709 603.6437,-684.943 599.726,-671.1211 588.4666,-645 581.3884,-628.5792 568.1785,-614.2776 554.987,-603.0835"/>
<polygon fill="#191970" stroke="#191970" points="543.4654,-743.4066 536.0134,-750.9378 546.5354,-749.6975 543.4654,-743.4066"/>
</g>
<!-- Node24 -->
<g id="node15" class="node">
<title>Node24</title>
<g id="a_node15"><a xlink:href="iter__impl_8hpp.html" target="_top" target="_top" xlink:title="/home/bdn_jz/bdn_jz\l/camera&#45;tracker&#45;cpp\l/CameraTrackerLinux/include\l/nlohmann/detail/iterators\l/iter_impl.hpp">
<polygon fill="#ffffff" stroke="#000000" points="615.4666,-545.5 615.4666,-608.5 759.4666,-608.5 759.4666,-545.5 615.4666,-545.5"/>
<text text-anchor="start" x="623.4666" y="-596.5" font-family="Helvetica,sans-Serif" font-size="10.00" fill="#000000">/home/bdn_jz/bdn_jz</text>
<text text-anchor="start" x="623.4666" y="-585.5" font-family="Helvetica,sans-Serif" font-size="10.00" fill="#000000">/camera&#45;tracker&#45;cpp</text>
<text text-anchor="start" x="623.4666" y="-574.5" font-family="Helvetica,sans-Serif" font-size="10.00" fill="#000000">/CameraTrackerLinux/include</text>
<text text-anchor="start" x="623.4666" y="-563.5" font-family="Helvetica,sans-Serif" font-size="10.00" fill="#000000">/nlohmann/detail/iterators</text>
<text text-anchor="middle" x="687.4666" y="-552.5" font-family="Helvetica,sans-Serif" font-size="10.00" fill="#000000">/iter_impl.hpp</text>
</a>
</g>
</g>
<!-- Node10&#45;&gt;Node24 -->
<g id="edge23" class="edge">
<title>Node10&#45;&gt;Node24</title>
<path fill="none" stroke="#191970" d="M545.6269,-745.5553C567.4073,-736.3694 589.5941,-724.3731 607.4666,-709 639.3618,-681.5651 662.2247,-638.1338 675.1377,-608.6453"/>
<polygon fill="#191970" stroke="#191970" points="544.2849,-742.3227 536.3311,-749.3218 546.9136,-748.8104 544.2849,-742.3227"/>
</g>
<!-- Node25 -->
<g id="node16" class="node">
<title>Node25</title>
<g id="a_node16"><a xlink:href="json__pointer_8hpp.html" target="_top" target="_top" xlink:title="/home/bdn_jz/bdn_jz\l/camera&#45;tracker&#45;cpp\l/CameraTrackerLinux/include\l/nlohmann/detail/json_pointer.hpp">
<polygon fill="#ffffff" stroke="#000000" points="697.4666,-651 697.4666,-703 859.4666,-703 859.4666,-651 697.4666,-651"/>
<text text-anchor="start" x="705.4666" y="-691" font-family="Helvetica,sans-Serif" font-size="10.00" fill="#000000">/home/bdn_jz/bdn_jz</text>
<text text-anchor="start" x="705.4666" y="-680" font-family="Helvetica,sans-Serif" font-size="10.00" fill="#000000">/camera&#45;tracker&#45;cpp</text>
<text text-anchor="start" x="705.4666" y="-669" font-family="Helvetica,sans-Serif" font-size="10.00" fill="#000000">/CameraTrackerLinux/include</text>
<text text-anchor="middle" x="778.4666" y="-658" font-family="Helvetica,sans-Serif" font-size="10.00" fill="#000000">/nlohmann/detail/json_pointer.hpp</text>
</a>
</g>
</g>
<!-- Node10&#45;&gt;Node25 -->
<g id="edge25" class="edge">
<title>Node10&#45;&gt;Node25</title>
<path fill="none" stroke="#191970" d="M545.6995,-746.6809C585.4182,-735.3858 632.8602,-721.7244 675.4666,-709 682.5537,-706.8834 689.9059,-704.6582 697.2728,-702.4082"/>
<polygon fill="#191970" stroke="#191970" points="544.7025,-743.3256 536.0394,-749.4248 546.6152,-750.0592 544.7025,-743.3256"/>
</g>
<!-- Node12 -->
<g id="node3" class="node">
<title>Node12</title>
<g id="a_node3"><a xlink:href="_json_utilization_8h.html" target="_top" target="_top" xlink:title="This file contains the declaration of the namespace jsonUtilization. ">
<polygon fill="#ffffff" stroke="#000000" points="208.4666,-178.5 208.4666,-230.5 352.4666,-230.5 352.4666,-178.5 208.4666,-178.5"/>
<text text-anchor="start" x="216.4666" y="-218.5" font-family="Helvetica,sans-Serif" font-size="10.00" fill="#000000">/home/bdn_jz/bdn_jz</text>
<text text-anchor="start" x="216.4666" y="-207.5" font-family="Helvetica,sans-Serif" font-size="10.00" fill="#000000">/camera&#45;tracker&#45;cpp</text>
<text text-anchor="start" x="216.4666" y="-196.5" font-family="Helvetica,sans-Serif" font-size="10.00" fill="#000000">/CameraTrackerLinux/include</text>
<text text-anchor="middle" x="280.4666" y="-185.5" font-family="Helvetica,sans-Serif" font-size="10.00" fill="#000000">/JsonUtilization.h</text>
</a>
</g>
</g>
<!-- Node11&#45;&gt;Node12 -->
<g id="edge2" class="edge">
<title>Node11&#45;&gt;Node12</title>
<path fill="none" stroke="#191970" d="M280.4666,-257.1155C280.4666,-248.2061 280.4666,-238.8475 280.4666,-230.5341"/>
<polygon fill="#191970" stroke="#191970" points="276.9667,-257.2784 280.4666,-267.2784 283.9667,-257.2785 276.9667,-257.2784"/>
</g>
<!-- Node13 -->
<g id="node4" class="node">
<title>Node13</title>
<g id="a_node4"><a xlink:href="_pose_estimation_8h.html" target="_top" target="_top" xlink:title="This file contains the declaration of the PoseEstimation class. ">
<polygon fill="#ffffff" stroke="#000000" points="208.4666,-89.5 208.4666,-141.5 352.4666,-141.5 352.4666,-89.5 208.4666,-89.5"/>
<text text-anchor="start" x="216.4666" y="-129.5" font-family="Helvetica,sans-Serif" font-size="10.00" fill="#000000">/home/bdn_jz/bdn_jz</text>
<text text-anchor="start" x="216.4666" y="-118.5" font-family="Helvetica,sans-Serif" font-size="10.00" fill="#000000">/camera&#45;tracker&#45;cpp</text>
<text text-anchor="start" x="216.4666" y="-107.5" font-family="Helvetica,sans-Serif" font-size="10.00" fill="#000000">/CameraTrackerLinux/include</text>
<text text-anchor="middle" x="280.4666" y="-96.5" font-family="Helvetica,sans-Serif" font-size="10.00" fill="#000000">/PoseEstimation.h</text>
</a>
</g>
</g>
<!-- Node12&#45;&gt;Node13 -->
<g id="edge3" class="edge">
<title>Node12&#45;&gt;Node13</title>
<path fill="none" stroke="#191970" d="M280.4666,-168.1155C280.4666,-159.2061 280.4666,-149.8475 280.4666,-141.5341"/>
<polygon fill="#191970" stroke="#191970" points="276.9667,-168.2784 280.4666,-178.2784 283.9667,-168.2785 276.9667,-168.2784"/>
</g>
<!-- Node14 -->
<g id="node5" class="node">
<title>Node14</title>
<g id="a_node5"><a xlink:href="main_8cpp.html" target="_top" target="_top" xlink:title="/home/bdn_jz/bdn_jz\l/camera&#45;tracker&#45;cpp\l/CameraTrackerLinux/main.cpp">
<polygon fill="#ffffff" stroke="#000000" points="103.9666,-6 103.9666,-47 256.9666,-47 256.9666,-6 103.9666,-6"/>
<text text-anchor="start" x="111.9666" y="-35" font-family="Helvetica,sans-Serif" font-size="10.00" fill="#000000">/home/bdn_jz/bdn_jz</text>
<text text-anchor="start" x="111.9666" y="-24" font-family="Helvetica,sans-Serif" font-size="10.00" fill="#000000">/camera&#45;tracker&#45;cpp</text>
<text text-anchor="middle" x="180.4666" y="-13" font-family="Helvetica,sans-Serif" font-size="10.00" fill="#000000">/CameraTrackerLinux/main.cpp</text>
</a>
</g>
</g>
<!-- Node12&#45;&gt;Node14 -->
<g id="edge6" class="edge">
<title>Node12&#45;&gt;Node14</title>
<path fill="none" stroke="#191970" d="M226.4535,-172.0704C216.0524,-163.5125 206.288,-153.4232 199.4666,-142 181.8587,-112.5138 179.2184,-71.623 179.4574,-47.2355"/>
<polygon fill="#191970" stroke="#191970" points="224.4481,-174.9445 234.4932,-178.313 228.7412,-169.4155 224.4481,-174.9445"/>
</g>
<!-- Node16 -->
<g id="node7" class="node">
<title>Node16</title>
<g id="a_node7"><a xlink:href="_json_utilization_8cpp.html" target="_top" target="_top" xlink:title="/home/bdn_jz/bdn_jz\l/camera&#45;tracker&#45;cpp\l/CameraTrackerLinux/src\l/JsonUtilization.cpp">
<polygon fill="#ffffff" stroke="#000000" points="370.9666,-89.5 370.9666,-141.5 497.9666,-141.5 497.9666,-89.5 370.9666,-89.5"/>
<text text-anchor="start" x="378.9666" y="-129.5" font-family="Helvetica,sans-Serif" font-size="10.00" fill="#000000">/home/bdn_jz/bdn_jz</text>
<text text-anchor="start" x="378.9666" y="-118.5" font-family="Helvetica,sans-Serif" font-size="10.00" fill="#000000">/camera&#45;tracker&#45;cpp</text>
<text text-anchor="start" x="378.9666" y="-107.5" font-family="Helvetica,sans-Serif" font-size="10.00" fill="#000000">/CameraTrackerLinux/src</text>
<text text-anchor="middle" x="434.4666" y="-96.5" font-family="Helvetica,sans-Serif" font-size="10.00" fill="#000000">/JsonUtilization.cpp</text>
</a>
</g>
</g>
<!-- Node12&#45;&gt;Node16 -->
<g id="edge7" class="edge">
<title>Node12&#45;&gt;Node16</title>
<path fill="none" stroke="#191970" d="M334.974,-172.9989C352.7939,-162.7004 372.3757,-151.3837 389.4187,-141.5341"/>
<polygon fill="#191970" stroke="#191970" points="332.7455,-170.2443 325.8387,-178.2784 336.2482,-176.305 332.7455,-170.2443"/>
</g>
<!-- Node13&#45;&gt;Node14 -->
<g id="edge4" class="edge">
<title>Node13&#45;&gt;Node14</title>
<path fill="none" stroke="#191970" d="M243.3619,-82.4768C230.0734,-70.6501 215.4806,-57.6625 203.6993,-47.1771"/>
<polygon fill="#191970" stroke="#191970" points="241.2072,-85.2446 251.0041,-89.2784 245.8611,-80.0156 241.2072,-85.2446"/>
</g>
<!-- Node15 -->
<g id="node6" class="node">
<title>Node15</title>
<g id="a_node6"><a xlink:href="_pose_estimation_8cpp.html" target="_top" target="_top" xlink:title="/home/bdn_jz/bdn_jz\l/camera&#45;tracker&#45;cpp\l/CameraTrackerLinux/src\l/PoseEstimation.cpp">
<polygon fill="#ffffff" stroke="#000000" points="274.9666,-.5 274.9666,-52.5 401.9666,-52.5 401.9666,-.5 274.9666,-.5"/>
<text text-anchor="start" x="282.9666" y="-40.5" font-family="Helvetica,sans-Serif" font-size="10.00" fill="#000000">/home/bdn_jz/bdn_jz</text>
<text text-anchor="start" x="282.9666" y="-29.5" font-family="Helvetica,sans-Serif" font-size="10.00" fill="#000000">/camera&#45;tracker&#45;cpp</text>
<text text-anchor="start" x="282.9666" y="-18.5" font-family="Helvetica,sans-Serif" font-size="10.00" fill="#000000">/CameraTrackerLinux/src</text>
<text text-anchor="middle" x="338.4666" y="-7.5" font-family="Helvetica,sans-Serif" font-size="10.00" fill="#000000">/PoseEstimation.cpp</text>
</a>
</g>
</g>
<!-- Node13&#45;&gt;Node15 -->
<g id="edge5" class="edge">
<title>Node13&#45;&gt;Node15</title>
<path fill="none" stroke="#191970" d="M303.0459,-80.8525C309.1855,-71.4313 315.7295,-61.3897 321.5005,-52.5341"/>
<polygon fill="#191970" stroke="#191970" points="300.0823,-78.9895 297.5548,-89.2784 305.9469,-82.8114 300.0823,-78.9895"/>
</g>
<!-- Node17&#45;&gt;Node11 -->
<g id="edge9" class="edge">
<title>Node17&#45;&gt;Node11</title>
<path fill="none" stroke="#191970" d="M160.2426,-437.7848C168.6093,-428.4309 177.4241,-418.4253 185.4666,-409 205.1557,-385.9254 209.2104,-379.4371 228.4666,-356 238.3233,-344.0032 249.3102,-330.7767 258.6362,-319.5922"/>
<polygon fill="#191970" stroke="#191970" points="157.4254,-435.6834 153.3467,-445.4617 162.633,-440.3612 157.4254,-435.6834"/>
</g>
<!-- Node18 -->
<g id="node9" class="node">
<title>Node18</title>
<g id="a_node9"><a xlink:href="adl__serializer_8hpp.html" target="_top" target="_top" xlink:title="/home/bdn_jz/bdn_jz\l/camera&#45;tracker&#45;cpp\l/CameraTrackerLinux/include\l/nlohmann/adl_serializer.hpp">
<polygon fill="#ffffff" stroke="#000000" points="32.4666,-356.5 32.4666,-408.5 176.4666,-408.5 176.4666,-356.5 32.4666,-356.5"/>
<text text-anchor="start" x="40.4666" y="-396.5" font-family="Helvetica,sans-Serif" font-size="10.00" fill="#000000">/home/bdn_jz/bdn_jz</text>
<text text-anchor="start" x="40.4666" y="-385.5" font-family="Helvetica,sans-Serif" font-size="10.00" fill="#000000">/camera&#45;tracker&#45;cpp</text>
<text text-anchor="start" x="40.4666" y="-374.5" font-family="Helvetica,sans-Serif" font-size="10.00" fill="#000000">/CameraTrackerLinux/include</text>
<text text-anchor="middle" x="104.4666" y="-363.5" font-family="Helvetica,sans-Serif" font-size="10.00" fill="#000000">/nlohmann/adl_serializer.hpp</text>
</a>
</g>
</g>
<!-- Node17&#45;&gt;Node18 -->
<g id="edge10" class="edge">
<title>Node17&#45;&gt;Node18</title>
<path fill="none" stroke="#191970" d="M115.6297,-435.2457C113.7154,-426.2008 111.7435,-416.8836 109.9997,-408.6442"/>
<polygon fill="#191970" stroke="#191970" points="112.2565,-436.2114 117.7512,-445.27 119.1048,-434.762 112.2565,-436.2114"/>
</g>
<!-- Node18&#45;&gt;Node11 -->
<g id="edge11" class="edge">
<title>Node18&#45;&gt;Node11</title>
<path fill="none" stroke="#191970" d="M165.3627,-351.7059C186.0983,-341.2203 209.0588,-329.6096 228.9833,-319.5341"/>
<polygon fill="#191970" stroke="#191970" points="163.6649,-348.6424 156.3205,-356.2784 166.8238,-354.8891 163.6649,-348.6424"/>
</g>
<!-- Node19&#45;&gt;Node11 -->
<g id="edge13" class="edge">
<title>Node19&#45;&gt;Node11</title>
<path fill="none" stroke="#191970" d="M261.4796,-537.767C254.1228,-529.105 247.5848,-519.3843 243.4666,-509 217.7175,-444.0718 248.097,-361.1503 267.2222,-319.6428"/>
<polygon fill="#191970" stroke="#191970" points="259.1073,-540.361 268.4202,-545.4129 264.2904,-535.6561 259.1073,-540.361"/>
</g>
<!-- Node20 -->
<g id="node11" class="node">
<title>Node20</title>
<g id="a_node11"><a xlink:href="binary__writer_8hpp.html" target="_top" target="_top" xlink:title="/home/bdn_jz/bdn_jz\l/camera&#45;tracker&#45;cpp\l/CameraTrackerLinux/include\l/nlohmann/detail/output/binary\l_writer.hpp">
<polygon fill="#ffffff" stroke="#000000" points="252.9666,-445.5 252.9666,-508.5 399.9666,-508.5 399.9666,-445.5 252.9666,-445.5"/>
<text text-anchor="start" x="260.9666" y="-496.5" font-family="Helvetica,sans-Serif" font-size="10.00" fill="#000000">/home/bdn_jz/bdn_jz</text>
<text text-anchor="start" x="260.9666" y="-485.5" font-family="Helvetica,sans-Serif" font-size="10.00" fill="#000000">/camera&#45;tracker&#45;cpp</text>
<text text-anchor="start" x="260.9666" y="-474.5" font-family="Helvetica,sans-Serif" font-size="10.00" fill="#000000">/CameraTrackerLinux/include</text>
<text text-anchor="start" x="260.9666" y="-463.5" font-family="Helvetica,sans-Serif" font-size="10.00" fill="#000000">/nlohmann/detail/output/binary</text>
<text text-anchor="middle" x="326.4666" y="-452.5" font-family="Helvetica,sans-Serif" font-size="10.00" fill="#000000">_writer.hpp</text>
</a>
</g>
</g>
<!-- Node19&#45;&gt;Node20 -->
<g id="edge14" class="edge">
<title>Node19&#45;&gt;Node20</title>
<path fill="none" stroke="#191970" d="M315.3517,-535.4993C317.0483,-526.5699 318.8157,-517.268 320.4288,-508.778"/>
<polygon fill="#191970" stroke="#191970" points="311.9065,-534.8818 313.4783,-545.3594 318.7835,-536.1885 311.9065,-534.8818"/>
</g>
<!-- Node20&#45;&gt;Node11 -->
<g id="edge15" class="edge">
<title>Node20&#45;&gt;Node11</title>
<path fill="none" stroke="#191970" d="M308.4501,-435.7439C305.1091,-427.0295 301.908,-417.8044 299.4666,-409 291.1039,-378.8428 285.9269,-343.1716 283.1291,-319.5337"/>
<polygon fill="#191970" stroke="#191970" points="305.3069,-437.3122 312.2488,-445.3161 311.8133,-434.7302 305.3069,-437.3122"/>
</g>
<!-- Node20&#45;&gt;Node21 -->
<g id="edge16" class="edge">
<title>Node20&#45;&gt;Node21</title>
<path fill="none" stroke="#191970" d="M356.7272,-437.2829C364.0974,-427.6095 371.797,-417.5038 378.5472,-408.6442"/>
<polygon fill="#191970" stroke="#191970" points="353.9183,-435.1945 350.6418,-445.27 359.4863,-439.4368 353.9183,-435.1945"/>
</g>
<!-- Node21&#45;&gt;Node11 -->
<g id="edge17" class="edge">
<title>Node21&#45;&gt;Node11</title>
<path fill="none" stroke="#191970" d="M355.5707,-350.1463C342.2225,-340.0786 327.6833,-329.1126 314.9838,-319.5341"/>
<polygon fill="#191970" stroke="#191970" points="353.6096,-353.0511 363.7009,-356.2784 357.8247,-347.4625 353.6096,-353.0511"/>
</g>
<!-- Node22&#45;&gt;Node19 -->
<g id="edge19" class="edge">
<title>Node22&#45;&gt;Node19</title>
<path fill="none" stroke="#191970" d="M435.4774,-641.0054C414.2269,-630.3802 391.1408,-618.8371 370.5001,-608.5168"/>
<polygon fill="#191970" stroke="#191970" points="433.9503,-644.1549 444.4598,-645.4966 437.0808,-637.8939 433.9503,-644.1549"/>
</g>
<!-- Node22&#45;&gt;Node23 -->
<g id="edge20" class="edge">
<title>Node22&#45;&gt;Node23</title>
<path fill="none" stroke="#191970" d="M511.2319,-635.1631C512.2108,-624.2863 513.2374,-612.8798 514.1196,-603.078"/>
<polygon fill="#191970" stroke="#191970" points="507.7248,-635.0859 510.3142,-645.3594 514.6966,-635.7134 507.7248,-635.0859"/>
</g>
<!-- Node23&#45;&gt;Node11 -->
<g id="edge21" class="edge">
<title>Node23&#45;&gt;Node11</title>
<path fill="none" stroke="#191970" d="M524.523,-540.7513C532.9137,-492.7769 539.5156,-408.1919 496.4666,-356 477.9917,-333.6014 408.0598,-316.1309 352.7071,-305.4238"/>
<polygon fill="#191970" stroke="#191970" points="521.0617,-540.2204 522.666,-550.6931 527.9426,-541.5057 521.0617,-540.2204"/>
</g>
<!-- Node24&#45;&gt;Node11 -->
<g id="edge24" class="edge">
<title>Node24&#45;&gt;Node11</title>
<path fill="none" stroke="#191970" d="M668.4223,-536.2775C642.834,-486.109 592.5758,-401.9025 524.4666,-356 496.5448,-337.182 413.9183,-318.387 352.508,-306.3972"/>
<polygon fill="#191970" stroke="#191970" points="665.3011,-537.8614 672.9119,-545.232 671.5586,-534.724 665.3011,-537.8614"/>
</g>
<!-- Node25&#45;&gt;Node11 -->
<g id="edge26" class="edge">
<title>Node25&#45;&gt;Node11</title>
<path fill="none" stroke="#191970" d="M782.5986,-640.7529C784.1613,-613.1595 782.829,-574.9521 768.4666,-545 715.3074,-434.1391 675.312,-413.1728 566.4666,-356 499.0865,-320.6075 412.6726,-305.2353 352.549,-298.5717"/>
<polygon fill="#191970" stroke="#191970" points="779.1046,-640.5441 781.8791,-650.7692 786.0867,-641.0458 779.1046,-640.5441"/>
</g>
</g>
</svg>
        <g id="navigator" transform="translate(0 0)" fill="#404254">
                <rect fill="#f2f5e9" fill-opacity="0.5" stroke="#606060" stroke-width=".5" x="0" y="0" width="60" height="60"/>
                <use id="zoomplus" xlink:href="#zoomPlus" target="_top" x="17" y="9" onmousedown="handleZoom(evt,'in')"/>
                <use id="zoomminus" xlink:href="#zoomMin" target="_top" x="42" y="9" onmousedown="handleZoom(evt,'out')"/>
                <use id="reset" xlink:href="#resetDef" target="_top" x="30" y="36" onmousedown="handleReset()"/>
                <g id="arrowUp" xlink:href="#dirArrow" target="_top" transform="translate(30 24)" onmousedown="handlePan(0,-1)">
                  <use xlink:href="#rim" target="_top" fill="#404040">
                        <set attributeName="fill" to="#808080" begin="arrowUp.mouseover" end="arrowUp.mouseout"/>
                  </use>
                  <path fill="none" stroke="white" stroke-width="1.5" d="M0,-3.0v7 M-2.5,-0.5L0,-3.0L2.5,-0.5"/>
                </g>
                <g id="arrowRight" xlink:href="#dirArrow" target="_top" transform="rotate(90) translate(36 -43)" onmousedown="handlePan(1,0)">
                  <use xlink:href="#rim" target="_top" fill="#404040">
                        <set attributeName="fill" to="#808080" begin="arrowRight.mouseover" end="arrowRight.mouseout"/>
                  </use>
                  <path fill="none" stroke="white" stroke-width="1.5" d="M0,-3.0v7 M-2.5,-0.5L0,-3.0L2.5,-0.5"/>
                </g>
                <g id="arrowDown" xlink:href="#dirArrow" target="_top" transform="rotate(180) translate(-30 -48)" onmousedown="handlePan(0,1)">
                  <use xlink:href="#rim" target="_top" fill="#404040">
                        <set attributeName="fill" to="#808080" begin="arrowDown.mouseover" end="arrowDown.mouseout"/>
                  </use>
                  <path fill="none" stroke="white" stroke-width="1.5" d="M0,-3.0v7 M-2.5,-0.5L0,-3.0L2.5,-0.5"/>
                </g>
                <g id="arrowLeft" xlink:href="#dirArrow" target="_top" transform="rotate(270) translate(-36 17)" onmousedown="handlePan(-1,0)">
                  <use xlink:href="#rim" target="_top" fill="#404040">
                        <set attributeName="fill" to="#808080" begin="arrowLeft.mouseover" end="arrowLeft.mouseout"/>
                  </use>
                  <path fill="none" stroke="white" stroke-width="1.5" d="M0,-3.0v7 M-2.5,-0.5L0,-3.0L2.5,-0.5"/>
                </g>
        </g>
        <svg viewBox="0 0 15 15" width="100%" height="30px" preserveAspectRatio="xMaxYMin meet">
         <g id="arrow_out" transform="scale(0.3 0.3)">
          <a xlink:href="exceptions_8hpp__dep__incl_org.svg" target="_top" target="_base">
           <rect id="button" ry="5" rx="5" y="6" x="6" height="38" width="38"
                fill="#f2f5e9" fill-opacity="0.5" stroke="#606060" stroke-width="1.0"/>
           <path id="arrow"
             d="M 11.500037,31.436501 C 11.940474,20.09759 22.043105,11.32322 32.158766,21.979434 L 37.068811,17.246167 C 37.068811,17.246167 37.088388,32 37.088388,32 L 22.160133,31.978069 C 22.160133,31.978069 26.997745,27.140456 26.997745,27.140456 C 18.528582,18.264221 13.291696,25.230495 11.500037,31.436501 z"
             style="fill:#404040;"/>
          </a>
         </g>
        </svg>
</svg>
