<?xml version="1.0" encoding="UTF-8" standalone="no"?>
<!DOCTYPE svg PUBLIC "-//W3C//DTD SVG 1.1//EN"
 "http://www.w3.org/Graphics/SVG/1.1/DTD/svg11.dtd">
<!-- Generated by graphviz version 2.40.1 (20161225.0304)
 -->
<!-- Title: /home/bdn_jz/bdn_jz/camera&#45;tracker&#45;cpp/CameraTrackerLinux/include/nlohmann/detail/exceptions.hpp Pages: 1 -->
<svg width="867pt" height="895pt"
 viewBox="0.00 0.00 867.47 895.00" xmlns="http://www.w3.org/2000/svg" xmlns:xlink="http://www.w3.org/1999/xlink">
<g id="graph0" class="graph" transform="scale(1 1) rotate(0) translate(4 891)">
<title>/home/bdn_jz/bdn_jz/camera&#45;tracker&#45;cpp/CameraTrackerLinux/include/nlohmann/detail/exceptions.hpp</title>
<polygon fill="#ffffff" stroke="transparent" points="-4,4 -4,-891 863.4666,-891 863.4666,4 -4,4"/>
<!-- Node10 -->
<g id="node1" class="node">
<title>Node10</title>
<polygon fill="#bfbfbf" stroke="#000000" points="378.9666,-834.5 378.9666,-886.5 535.9666,-886.5 535.9666,-834.5 378.9666,-834.5"/>
<text text-anchor="start" x="386.9666" y="-874.5" font-family="Helvetica,sans-Serif" font-size="10.00" fill="#000000">/home/bdn_jz/bdn_jz</text>
<text text-anchor="start" x="386.9666" y="-863.5" font-family="Helvetica,sans-Serif" font-size="10.00" fill="#000000">/camera&#45;tracker&#45;cpp</text>
<text text-anchor="start" x="386.9666" y="-852.5" font-family="Helvetica,sans-Serif" font-size="10.00" fill="#000000">/CameraTrackerLinux/include</text>
<text text-anchor="middle" x="457.4666" y="-841.5" font-family="Helvetica,sans-Serif" font-size="10.00" fill="#000000">/nlohmann/detail/exceptions.hpp</text>
</g>
<!-- Node11 -->
<g id="node2" class="node">
<title>Node11</title>
<g id="a_node2"><a xlink:href="json_8hpp.html" target="_top" xlink:title="/home/bdn_jz/bdn_jz\l/camera&#45;tracker&#45;cpp\l/CameraTrackerLinux/include\l/nlohmann/json.hpp">
<polygon fill="#ffffff" stroke="#000000" points="208.4666,-356.5 208.4666,-408.5 352.4666,-408.5 352.4666,-356.5 208.4666,-356.5"/>
<text text-anchor="start" x="216.4666" y="-396.5" font-family="Helvetica,sans-Serif" font-size="10.00" fill="#000000">/home/bdn_jz/bdn_jz</text>
<text text-anchor="start" x="216.4666" y="-385.5" font-family="Helvetica,sans-Serif" font-size="10.00" fill="#000000">/camera&#45;tracker&#45;cpp</text>
<text text-anchor="start" x="216.4666" y="-374.5" font-family="Helvetica,sans-Serif" font-size="10.00" fill="#000000">/CameraTrackerLinux/include</text>
<text text-anchor="middle" x="280.4666" y="-363.5" font-family="Helvetica,sans-Serif" font-size="10.00" fill="#000000">/nlohmann/json.hpp</text>
</a>
</g>
</g>
<!-- Node10&#45;&gt;Node11 -->
<g id="edge1" class="edge">
<title>Node10&#45;&gt;Node11</title>
<path fill="none" stroke="#191970" d="M368.7213,-841.3544C236.8325,-810.3033 4.4666,-744.4626 4.4666,-666 4.4666,-666 4.4666,-666 4.4666,-566 4.4666,-511.5633 -13.3997,-485.0529 23.4666,-445 48.1891,-418.1406 141.3413,-400.5358 208.3838,-391.0508"/>
<polygon fill="#191970" stroke="#191970" points="368.285,-844.8466 378.8187,-843.71 369.8754,-838.0296 368.285,-844.8466"/>
</g>
<!-- Node19 -->
<g id="node10" class="node">
<title>Node19</title>
<g id="a_node10"><a xlink:href="from__json_8hpp.html" target="_top" xlink:title="/home/bdn_jz/bdn_jz\l/camera&#45;tracker&#45;cpp\l/CameraTrackerLinux/include\l/nlohmann/detail/conversions\l/from_json.hpp">
<polygon fill="#ffffff" stroke="#000000" points="52.4666,-534.5 52.4666,-597.5 196.4666,-597.5 196.4666,-534.5 52.4666,-534.5"/>
<text text-anchor="start" x="60.4666" y="-585.5" font-family="Helvetica,sans-Serif" font-size="10.00" fill="#000000">/home/bdn_jz/bdn_jz</text>
<text text-anchor="start" x="60.4666" y="-574.5" font-family="Helvetica,sans-Serif" font-size="10.00" fill="#000000">/camera&#45;tracker&#45;cpp</text>
<text text-anchor="start" x="60.4666" y="-563.5" font-family="Helvetica,sans-Serif" font-size="10.00" fill="#000000">/CameraTrackerLinux/include</text>
<text text-anchor="start" x="60.4666" y="-552.5" font-family="Helvetica,sans-Serif" font-size="10.00" fill="#000000">/nlohmann/detail/conversions</text>
<text text-anchor="middle" x="124.4666" y="-541.5" font-family="Helvetica,sans-Serif" font-size="10.00" fill="#000000">/from_json.hpp</text>
</a>
</g>
</g>
<!-- Node10&#45;&gt;Node19 -->
<g id="edge10" class="edge">
<title>Node10&#45;&gt;Node19</title>
<path fill="none" stroke="#191970" d="M396.4022,-829.6013C379.1871,-820.1277 360.7285,-809.224 344.4666,-798 287.8901,-758.951 273.9668,-747.6936 226.4666,-698 195.949,-666.0732 165.5943,-625.3424 146.038,-597.6263"/>
<polygon fill="#191970" stroke="#191970" points="394.8149,-832.7221 405.273,-834.4191 398.1558,-826.5708 394.8149,-832.7221"/>
</g>
<!-- Node21 -->
<g id="node12" class="node">
<title>Node21</title>
<g id="a_node12"><a xlink:href="binary__reader_8hpp.html" target="_top" xlink:title="/home/bdn_jz/bdn_jz\l/camera&#45;tracker&#45;cpp\l/CameraTrackerLinux/include\l/nlohmann/detail/input/binary\l_reader.hpp">
<polygon fill="#ffffff" stroke="#000000" points="235.4666,-634.5 235.4666,-697.5 379.4666,-697.5 379.4666,-634.5 235.4666,-634.5"/>
<text text-anchor="start" x="243.4666" y="-685.5" font-family="Helvetica,sans-Serif" font-size="10.00" fill="#000000">/home/bdn_jz/bdn_jz</text>
<text text-anchor="start" x="243.4666" y="-674.5" font-family="Helvetica,sans-Serif" font-size="10.00" fill="#000000">/camera&#45;tracker&#45;cpp</text>
<text text-anchor="start" x="243.4666" y="-663.5" font-family="Helvetica,sans-Serif" font-size="10.00" fill="#000000">/CameraTrackerLinux/include</text>
<text text-anchor="start" x="243.4666" y="-652.5" font-family="Helvetica,sans-Serif" font-size="10.00" fill="#000000">/nlohmann/detail/input/binary</text>
<text text-anchor="middle" x="307.4666" y="-641.5" font-family="Helvetica,sans-Serif" font-size="10.00" fill="#000000">_reader.hpp</text>
</a>
</g>
</g>
<!-- Node10&#45;&gt;Node21 -->
<g id="edge14" class="edge">
<title>Node10&#45;&gt;Node21</title>
<path fill="none" stroke="#191970" d="M420.706,-827.3092C411.3965,-818.1914 401.7084,-808.0402 393.4666,-798 367.0883,-765.8661 341.7159,-725.3561 325.4542,-697.745"/>
<polygon fill="#191970" stroke="#191970" points="418.4222,-829.9689 428.056,-834.3782 423.2746,-824.9236 418.4222,-829.9689"/>
</g>
<!-- Node23 -->
<g id="node14" class="node">
<title>Node23</title>
<g id="a_node14"><a xlink:href="serializer_8hpp.html" target="_top" xlink:title="/home/bdn_jz/bdn_jz\l/camera&#45;tracker&#45;cpp\l/CameraTrackerLinux/include\l/nlohmann/detail/output/serializer.hpp">
<polygon fill="#ffffff" stroke="#000000" points="308.9666,-445.5 308.9666,-497.5 487.9666,-497.5 487.9666,-445.5 308.9666,-445.5"/>
<text text-anchor="start" x="316.9666" y="-485.5" font-family="Helvetica,sans-Serif" font-size="10.00" fill="#000000">/home/bdn_jz/bdn_jz</text>
<text text-anchor="start" x="316.9666" y="-474.5" font-family="Helvetica,sans-Serif" font-size="10.00" fill="#000000">/camera&#45;tracker&#45;cpp</text>
<text text-anchor="start" x="316.9666" y="-463.5" font-family="Helvetica,sans-Serif" font-size="10.00" fill="#000000">/CameraTrackerLinux/include</text>
<text text-anchor="middle" x="398.4666" y="-452.5" font-family="Helvetica,sans-Serif" font-size="10.00" fill="#000000">/nlohmann/detail/output/serializer.hpp</text>
</a>
</g>
</g>
<!-- Node10&#45;&gt;Node23 -->
<g id="edge29" class="edge">
<title>Node10&#45;&gt;Node23</title>
<path fill="none" stroke="#191970" d="M437.0178,-825.2889C432.833,-816.6228 428.9525,-807.1871 426.4666,-798 395.7486,-684.4768 421.7705,-650.8508 408.4666,-534 407.0992,-521.99 405.0606,-508.7617 403.1801,-497.5794"/>
<polygon fill="#191970" stroke="#191970" points="433.9707,-827.0184 441.6265,-834.3423 440.209,-823.8427 433.9707,-827.0184"/>
</g>
<!-- Node24 -->
<g id="node15" class="node">
<title>Node24</title>
<g id="a_node15"><a xlink:href="json__sax_8hpp.html" target="_top" xlink:title="/home/bdn_jz/bdn_jz\l/camera&#45;tracker&#45;cpp\l/CameraTrackerLinux/include\l/nlohmann/detail/input/json\l_sax.hpp">
<polygon fill="#ffffff" stroke="#000000" points="435.4666,-734.5 435.4666,-797.5 579.4666,-797.5 579.4666,-734.5 435.4666,-734.5"/>
<text text-anchor="start" x="443.4666" y="-785.5" font-family="Helvetica,sans-Serif" font-size="10.00" fill="#000000">/home/bdn_jz/bdn_jz</text>
<text text-anchor="start" x="443.4666" y="-774.5" font-family="Helvetica,sans-Serif" font-size="10.00" fill="#000000">/camera&#45;tracker&#45;cpp</text>
<text text-anchor="start" x="443.4666" y="-763.5" font-family="Helvetica,sans-Serif" font-size="10.00" fill="#000000">/CameraTrackerLinux/include</text>
<text text-anchor="start" x="443.4666" y="-752.5" font-family="Helvetica,sans-Serif" font-size="10.00" fill="#000000">/nlohmann/detail/input/json</text>
<text text-anchor="middle" x="507.4666" y="-741.5" font-family="Helvetica,sans-Serif" font-size="10.00" fill="#000000">_sax.hpp</text>
</a>
</g>
</g>
<!-- Node10&#45;&gt;Node24 -->
<g id="edge20" class="edge">
<title>Node10&#45;&gt;Node24</title>
<path fill="none" stroke="#191970" d="M475.946,-825.5739C480.7761,-816.4451 485.9553,-806.6564 490.6913,-797.7054"/>
<polygon fill="#191970" stroke="#191970" points="472.8448,-823.9514 471.2617,-834.4273 479.0321,-827.2251 472.8448,-823.9514"/>
</g>
<!-- Node25 -->
<g id="node16" class="node">
<title>Node25</title>
<g id="a_node16"><a xlink:href="parser_8hpp.html" target="_top" xlink:title="/home/bdn_jz/bdn_jz\l/camera&#45;tracker&#45;cpp\l/CameraTrackerLinux/include\l/nlohmann/detail/input/parser.hpp">
<polygon fill="#ffffff" stroke="#000000" points="435.9666,-640 435.9666,-692 596.9666,-692 596.9666,-640 435.9666,-640"/>
<text text-anchor="start" x="443.9666" y="-680" font-family="Helvetica,sans-Serif" font-size="10.00" fill="#000000">/home/bdn_jz/bdn_jz</text>
<text text-anchor="start" x="443.9666" y="-669" font-family="Helvetica,sans-Serif" font-size="10.00" fill="#000000">/camera&#45;tracker&#45;cpp</text>
<text text-anchor="start" x="443.9666" y="-658" font-family="Helvetica,sans-Serif" font-size="10.00" fill="#000000">/CameraTrackerLinux/include</text>
<text text-anchor="middle" x="516.4666" y="-647" font-family="Helvetica,sans-Serif" font-size="10.00" fill="#000000">/nlohmann/detail/input/parser.hpp</text>
</a>
</g>
</g>
<!-- Node10&#45;&gt;Node25 -->
<g id="edge24" class="edge">
<title>Node10&#45;&gt;Node25</title>
<path fill="none" stroke="#191970" d="M545.0985,-835.5043C562.2861,-826.4892 578.1619,-814.3337 588.4666,-798 603.6437,-773.943 599.726,-760.1211 588.4666,-734 581.3884,-717.5792 568.1785,-703.2776 554.987,-692.0835"/>
<polygon fill="#191970" stroke="#191970" points="543.4654,-832.4066 536.0134,-839.9378 546.5354,-838.6975 543.4654,-832.4066"/>
</g>
<!-- Node26 -->
<g id="node17" class="node">
<title>Node26</title>
<g id="a_node17"><a xlink:href="iter__impl_8hpp.html" target="_top" xlink:title="/home/bdn_jz/bdn_jz\l/camera&#45;tracker&#45;cpp\l/CameraTrackerLinux/include\l/nlohmann/detail/iterators\l/iter_impl.hpp">
<polygon fill="#ffffff" stroke="#000000" points="615.4666,-634.5 615.4666,-697.5 759.4666,-697.5 759.4666,-634.5 615.4666,-634.5"/>
<text text-anchor="start" x="623.4666" y="-685.5" font-family="Helvetica,sans-Serif" font-size="10.00" fill="#000000">/home/bdn_jz/bdn_jz</text>
<text text-anchor="start" x="623.4666" y="-674.5" font-family="Helvetica,sans-Serif" font-size="10.00" fill="#000000">/camera&#45;tracker&#45;cpp</text>
<text text-anchor="start" x="623.4666" y="-663.5" font-family="Helvetica,sans-Serif" font-size="10.00" fill="#000000">/CameraTrackerLinux/include</text>
<text text-anchor="start" x="623.4666" y="-652.5" font-family="Helvetica,sans-Serif" font-size="10.00" fill="#000000">/nlohmann/detail/iterators</text>
<text text-anchor="middle" x="687.4666" y="-641.5" font-family="Helvetica,sans-Serif" font-size="10.00" fill="#000000">/iter_impl.hpp</text>
</a>
</g>
</g>
<!-- Node10&#45;&gt;Node26 -->
<g id="edge25" class="edge">
<title>Node10&#45;&gt;Node26</title>
<path fill="none" stroke="#191970" d="M545.6269,-834.5553C567.4073,-825.3694 589.5941,-813.3731 607.4666,-798 639.3618,-770.5651 662.2247,-727.1338 675.1377,-697.6453"/>
<polygon fill="#191970" stroke="#191970" points="544.2849,-831.3227 536.3311,-838.3218 546.9136,-837.8104 544.2849,-831.3227"/>
</g>
<!-- Node27 -->
<g id="node18" class="node">
<title>Node27</title>
<g id="a_node18"><a xlink:href="json__pointer_8hpp.html" target="_top" xlink:title="/home/bdn_jz/bdn_jz\l/camera&#45;tracker&#45;cpp\l/CameraTrackerLinux/include\l/nlohmann/detail/json_pointer.hpp">
<polygon fill="#ffffff" stroke="#000000" points="697.4666,-740 697.4666,-792 859.4666,-792 859.4666,-740 697.4666,-740"/>
<text text-anchor="start" x="705.4666" y="-780" font-family="Helvetica,sans-Serif" font-size="10.00" fill="#000000">/home/bdn_jz/bdn_jz</text>
<text text-anchor="start" x="705.4666" y="-769" font-family="Helvetica,sans-Serif" font-size="10.00" fill="#000000">/camera&#45;tracker&#45;cpp</text>
<text text-anchor="start" x="705.4666" y="-758" font-family="Helvetica,sans-Serif" font-size="10.00" fill="#000000">/CameraTrackerLinux/include</text>
<text text-anchor="middle" x="778.4666" y="-747" font-family="Helvetica,sans-Serif" font-size="10.00" fill="#000000">/nlohmann/detail/json_pointer.hpp</text>
</a>
</g>
</g>
<!-- Node10&#45;&gt;Node27 -->
<g id="edge27" class="edge">
<title>Node10&#45;&gt;Node27</title>
<path fill="none" stroke="#191970" d="M545.6995,-835.6809C585.4182,-824.3858 632.8602,-810.7244 675.4666,-798 682.5537,-795.8834 689.9059,-793.6582 697.2728,-791.4082"/>
<polygon fill="#191970" stroke="#191970" points="544.7025,-832.3256 536.0394,-838.4248 546.6152,-839.0592 544.7025,-832.3256"/>
</g>
<!-- Node12 -->
<g id="node3" class="node">
<title>Node12</title>
<g id="a_node3"><a xlink:href="_json_utilization_8h.html" target="_top" xlink:title="This file contains the declaration of the namespace jsonUtilization. ">
<polygon fill="#ffffff" stroke="#000000" points="208.4666,-267.5 208.4666,-319.5 352.4666,-319.5 352.4666,-267.5 208.4666,-267.5"/>
<text text-anchor="start" x="216.4666" y="-307.5" font-family="Helvetica,sans-Serif" font-size="10.00" fill="#000000">/home/bdn_jz/bdn_jz</text>
<text text-anchor="start" x="216.4666" y="-296.5" font-family="Helvetica,sans-Serif" font-size="10.00" fill="#000000">/camera&#45;tracker&#45;cpp</text>
<text text-anchor="start" x="216.4666" y="-285.5" font-family="Helvetica,sans-Serif" font-size="10.00" fill="#000000">/CameraTrackerLinux/include</text>
<text text-anchor="middle" x="280.4666" y="-274.5" font-family="Helvetica,sans-Serif" font-size="10.00" fill="#000000">/JsonUtilization.h</text>
</a>
</g>
</g>
<!-- Node11&#45;&gt;Node12 -->
<g id="edge2" class="edge">
<title>Node11&#45;&gt;Node12</title>
<path fill="none" stroke="#191970" d="M280.4666,-346.1155C280.4666,-337.2061 280.4666,-327.8475 280.4666,-319.5341"/>
<polygon fill="#191970" stroke="#191970" points="276.9667,-346.2784 280.4666,-356.2784 283.9667,-346.2785 276.9667,-346.2784"/>
</g>
<!-- Node13 -->
<g id="node4" class="node">
<title>Node13</title>
<g id="a_node4"><a xlink:href="_pose_estimation_8h.html" target="_top" xlink:title="This file contains the declaration of the PoseEstimation class. ">
<polygon fill="#ffffff" stroke="#000000" points="131.4666,-178.5 131.4666,-230.5 275.4666,-230.5 275.4666,-178.5 131.4666,-178.5"/>
<text text-anchor="start" x="139.4666" y="-218.5" font-family="Helvetica,sans-Serif" font-size="10.00" fill="#000000">/home/bdn_jz/bdn_jz</text>
<text text-anchor="start" x="139.4666" y="-207.5" font-family="Helvetica,sans-Serif" font-size="10.00" fill="#000000">/camera&#45;tracker&#45;cpp</text>
<text text-anchor="start" x="139.4666" y="-196.5" font-family="Helvetica,sans-Serif" font-size="10.00" fill="#000000">/CameraTrackerLinux/include</text>
<text text-anchor="middle" x="203.4666" y="-185.5" font-family="Helvetica,sans-Serif" font-size="10.00" fill="#000000">/PoseEstimation.h</text>
</a>
</g>
</g>
<!-- Node12&#45;&gt;Node13 -->
<g id="edge3" class="edge">
<title>Node12&#45;&gt;Node13</title>
<path fill="none" stroke="#191970" d="M251.2376,-259.7159C242.8725,-250.0472 233.8866,-239.6608 225.9905,-230.5341"/>
<polygon fill="#191970" stroke="#191970" points="248.5908,-262.0059 257.7805,-267.2784 253.8845,-257.4259 248.5908,-262.0059"/>
</g>
<!-- Node18 -->
<g id="node9" class="node">
<title>Node18</title>
<g id="a_node9"><a xlink:href="_json_utilization_8cpp.html" target="_top" xlink:title="/home/bdn_jz/bdn_jz\l/camera&#45;tracker&#45;cpp\l/CameraTrackerLinux/src\l/JsonUtilization.cpp">
<polygon fill="#ffffff" stroke="#000000" points="293.9666,-178.5 293.9666,-230.5 420.9666,-230.5 420.9666,-178.5 293.9666,-178.5"/>
<text text-anchor="start" x="301.9666" y="-218.5" font-family="Helvetica,sans-Serif" font-size="10.00" fill="#000000">/home/bdn_jz/bdn_jz</text>
<text text-anchor="start" x="301.9666" y="-207.5" font-family="Helvetica,sans-Serif" font-size="10.00" fill="#000000">/camera&#45;tracker&#45;cpp</text>
<text text-anchor="start" x="301.9666" y="-196.5" font-family="Helvetica,sans-Serif" font-size="10.00" fill="#000000">/CameraTrackerLinux/src</text>
<text text-anchor="middle" x="357.4666" y="-185.5" font-family="Helvetica,sans-Serif" font-size="10.00" fill="#000000">/JsonUtilization.cpp</text>
</a>
</g>
</g>
<!-- Node12&#45;&gt;Node18 -->
<g id="edge9" class="edge">
<title>Node12&#45;&gt;Node18</title>
<path fill="none" stroke="#191970" d="M309.6955,-259.7159C318.0606,-250.0472 327.0466,-239.6608 334.9427,-230.5341"/>
<polygon fill="#191970" stroke="#191970" points="307.0486,-257.4259 303.1527,-267.2784 312.3424,-262.0059 307.0486,-257.4259"/>
</g>
<!-- Node14 -->
<g id="node5" class="node">
<title>Node14</title>
<g id="a_node5"><a xlink:href="_tracker_8h.html" target="_top" xlink:title="This file contains declarations of the Tracker class. ">
<polygon fill="#ffffff" stroke="#000000" points="131.4666,-89.5 131.4666,-141.5 275.4666,-141.5 275.4666,-89.5 131.4666,-89.5"/>
<text text-anchor="start" x="139.4666" y="-129.5" font-family="Helvetica,sans-Serif" font-size="10.00" fill="#000000">/home/bdn_jz/bdn_jz</text>
<text text-anchor="start" x="139.4666" y="-118.5" font-family="Helvetica,sans-Serif" font-size="10.00" fill="#000000">/camera&#45;tracker&#45;cpp</text>
<text text-anchor="start" x="139.4666" y="-107.5" font-family="Helvetica,sans-Serif" font-size="10.00" fill="#000000">/CameraTrackerLinux/include</text>
<text text-anchor="middle" x="203.4666" y="-96.5" font-family="Helvetica,sans-Serif" font-size="10.00" fill="#000000">/Tracker.h</text>
</a>
</g>
</g>
<!-- Node13&#45;&gt;Node14 -->
<g id="edge4" class="edge">
<title>Node13&#45;&gt;Node14</title>
<path fill="none" stroke="#191970" d="M203.4666,-168.1155C203.4666,-159.2061 203.4666,-149.8475 203.4666,-141.5341"/>
<polygon fill="#191970" stroke="#191970" points="199.9667,-168.2784 203.4666,-178.2784 206.9667,-168.2785 199.9667,-168.2784"/>
</g>
<!-- Node15 -->
<g id="node6" class="node">
<title>Node15</title>
<g id="a_node6"><a xlink:href="main_8cpp.html" target="_top" xlink:title="/home/bdn_jz/bdn_jz\l/camera&#45;tracker&#45;cpp\l/CameraTrackerLinux/main.cpp">
<polygon fill="#ffffff" stroke="#000000" points="26.9666,-6 26.9666,-47 179.9666,-47 179.9666,-6 26.9666,-6"/>
<text text-anchor="start" x="34.9666" y="-35" font-family="Helvetica,sans-Serif" font-size="10.00" fill="#000000">/home/bdn_jz/bdn_jz</text>
<text text-anchor="start" x="34.9666" y="-24" font-family="Helvetica,sans-Serif" font-size="10.00" fill="#000000">/camera&#45;tracker&#45;cpp</text>
<text text-anchor="middle" x="103.4666" y="-13" font-family="Helvetica,sans-Serif" font-size="10.00" fill="#000000">/CameraTrackerLinux/main.cpp</text>
</a>
</g>
</g>
<!-- Node13&#45;&gt;Node15 -->
<g id="edge7" class="edge">
<title>Node13&#45;&gt;Node15</title>
<path fill="none" stroke="#191970" d="M149.4535,-172.0704C139.0524,-163.5125 129.288,-153.4232 122.4666,-142 104.8587,-112.5138 102.2184,-71.623 102.4574,-47.2355"/>
<polygon fill="#191970" stroke="#191970" points="147.4481,-174.9445 157.4932,-178.313 151.7412,-169.4155 147.4481,-174.9445"/>
</g>
<!-- Node17 -->
<g id="node8" class="node">
<title>Node17</title>
<g id="a_node8"><a xlink:href="_pose_estimation_8cpp.html" target="_top" xlink:title="/home/bdn_jz/bdn_jz\l/camera&#45;tracker&#45;cpp\l/CameraTrackerLinux/src\l/PoseEstimation.cpp">
<polygon fill="#ffffff" stroke="#000000" points="293.9666,-89.5 293.9666,-141.5 420.9666,-141.5 420.9666,-89.5 293.9666,-89.5"/>
<text text-anchor="start" x="301.9666" y="-129.5" font-family="Helvetica,sans-Serif" font-size="10.00" fill="#000000">/home/bdn_jz/bdn_jz</text>
<text text-anchor="start" x="301.9666" y="-118.5" font-family="Helvetica,sans-Serif" font-size="10.00" fill="#000000">/camera&#45;tracker&#45;cpp</text>
<text text-anchor="start" x="301.9666" y="-107.5" font-family="Helvetica,sans-Serif" font-size="10.00" fill="#000000">/CameraTrackerLinux/src</text>
<text text-anchor="middle" x="357.4666" y="-96.5" font-family="Helvetica,sans-Serif" font-size="10.00" fill="#000000">/PoseEstimation.cpp</text>
</a>
</g>
</g>
<!-- Node13&#45;&gt;Node17 -->
<g id="edge8" class="edge">
<title>Node13&#45;&gt;Node17</title>
<path fill="none" stroke="#191970" d="M257.974,-172.9989C275.7939,-162.7004 295.3757,-151.3837 312.4187,-141.5341"/>
<polygon fill="#191970" stroke="#191970" points="255.7455,-170.2443 248.8387,-178.2784 259.2482,-176.305 255.7455,-170.2443"/>
</g>
<!-- Node14&#45;&gt;Node15 -->
<g id="edge5" class="edge">
<title>Node14&#45;&gt;Node15</title>
<path fill="none" stroke="#191970" d="M166.3619,-82.4768C153.0734,-70.6501 138.4806,-57.6625 126.6993,-47.1771"/>
<polygon fill="#191970" stroke="#191970" points="164.2072,-85.2446 174.0041,-89.2784 168.8611,-80.0156 164.2072,-85.2446"/>
</g>
<!-- Node16 -->
<g id="node7" class="node">
<title>Node16</title>
<g id="a_node7"><a xlink:href="_tracker_8cpp.html" target="_top" xlink:title="/home/bdn_jz/bdn_jz\l/camera&#45;tracker&#45;cpp\l/CameraTrackerLinux/src\l/Tracker.cpp">
<polygon fill="#ffffff" stroke="#000000" points="197.9666,-.5 197.9666,-52.5 324.9666,-52.5 324.9666,-.5 197.9666,-.5"/>
<text text-anchor="start" x="205.9666" y="-40.5" font-family="Helvetica,sans-Serif" font-size="10.00" fill="#000000">/home/bdn_jz/bdn_jz</text>
<text text-anchor="start" x="205.9666" y="-29.5" font-family="Helvetica,sans-Serif" font-size="10.00" fill="#000000">/camera&#45;tracker&#45;cpp</text>
<text text-anchor="start" x="205.9666" y="-18.5" font-family="Helvetica,sans-Serif" font-size="10.00" fill="#000000">/CameraTrackerLinux/src</text>
<text text-anchor="middle" x="261.4666" y="-7.5" font-family="Helvetica,sans-Serif" font-size="10.00" fill="#000000">/Tracker.cpp</text>
</a>
</g>
</g>
<!-- Node14&#45;&gt;Node16 -->
<g id="edge6" class="edge">
<title>Node14&#45;&gt;Node16</title>
<path fill="none" stroke="#191970" d="M226.0459,-80.8525C232.1855,-71.4313 238.7295,-61.3897 244.5005,-52.5341"/>
<polygon fill="#191970" stroke="#191970" points="223.0823,-78.9895 220.5548,-89.2784 228.9469,-82.8114 223.0823,-78.9895"/>
</g>
<!-- Node19&#45;&gt;Node11 -->
<g id="edge11" class="edge">
<title>Node19&#45;&gt;Node11</title>
<path fill="none" stroke="#191970" d="M160.2426,-526.7848C168.6093,-517.4309 177.4241,-507.4253 185.4666,-498 205.1557,-474.9254 209.2104,-468.4371 228.4666,-445 238.3233,-433.0032 249.3102,-419.7767 258.6362,-408.5922"/>
<polygon fill="#191970" stroke="#191970" points="157.4254,-524.6834 153.3467,-534.4617 162.633,-529.3612 157.4254,-524.6834"/>
</g>
<!-- Node20 -->
<g id="node11" class="node">
<title>Node20</title>
<g id="a_node11"><a xlink:href="adl__serializer_8hpp.html" target="_top" xlink:title="/home/bdn_jz/bdn_jz\l/camera&#45;tracker&#45;cpp\l/CameraTrackerLinux/include\l/nlohmann/adl_serializer.hpp">
<polygon fill="#ffffff" stroke="#000000" points="32.4666,-445.5 32.4666,-497.5 176.4666,-497.5 176.4666,-445.5 32.4666,-445.5"/>
<text text-anchor="start" x="40.4666" y="-485.5" font-family="Helvetica,sans-Serif" font-size="10.00" fill="#000000">/home/bdn_jz/bdn_jz</text>
<text text-anchor="start" x="40.4666" y="-474.5" font-family="Helvetica,sans-Serif" font-size="10.00" fill="#000000">/camera&#45;tracker&#45;cpp</text>
<text text-anchor="start" x="40.4666" y="-463.5" font-family="Helvetica,sans-Serif" font-size="10.00" fill="#000000">/CameraTrackerLinux/include</text>
<text text-anchor="middle" x="104.4666" y="-452.5" font-family="Helvetica,sans-Serif" font-size="10.00" fill="#000000">/nlohmann/adl_serializer.hpp</text>
</a>
</g>
</g>
<!-- Node19&#45;&gt;Node20 -->
<g id="edge12" class="edge">
<title>Node19&#45;&gt;Node20</title>
<path fill="none" stroke="#191970" d="M115.6297,-524.2457C113.7154,-515.2008 111.7435,-505.8836 109.9997,-497.6442"/>
<polygon fill="#191970" stroke="#191970" points="112.2565,-525.2114 117.7512,-534.27 119.1048,-523.762 112.2565,-525.2114"/>
</g>
<!-- Node20&#45;&gt;Node11 -->
<g id="edge13" class="edge">
<title>Node20&#45;&gt;Node11</title>
<path fill="none" stroke="#191970" d="M165.3627,-440.7059C186.0983,-430.2203 209.0588,-418.6096 228.9833,-408.5341"/>
<polygon fill="#191970" stroke="#191970" points="163.6649,-437.6424 156.3205,-445.2784 166.8238,-443.8891 163.6649,-437.6424"/>
</g>
<!-- Node21&#45;&gt;Node11 -->
<g id="edge15" class="edge">
<title>Node21&#45;&gt;Node11</title>
<path fill="none" stroke="#191970" d="M261.4796,-626.767C254.1228,-618.105 247.5848,-608.3843 243.4666,-598 217.7175,-533.0718 248.097,-450.1503 267.2222,-408.6428"/>
<polygon fill="#191970" stroke="#191970" points="259.1073,-629.361 268.4202,-634.4129 264.2904,-624.6561 259.1073,-629.361"/>
</g>
<!-- Node22 -->
<g id="node13" class="node">
<title>Node22</title>
<g id="a_node13"><a xlink:href="binary__writer_8hpp.html" target="_top" xlink:title="/home/bdn_jz/bdn_jz\l/camera&#45;tracker&#45;cpp\l/CameraTrackerLinux/include\l/nlohmann/detail/output/binary\l_writer.hpp">
<polygon fill="#ffffff" stroke="#000000" points="252.9666,-534.5 252.9666,-597.5 399.9666,-597.5 399.9666,-534.5 252.9666,-534.5"/>
<text text-anchor="start" x="260.9666" y="-585.5" font-family="Helvetica,sans-Serif" font-size="10.00" fill="#000000">/home/bdn_jz/bdn_jz</text>
<text text-anchor="start" x="260.9666" y="-574.5" font-family="Helvetica,sans-Serif" font-size="10.00" fill="#000000">/camera&#45;tracker&#45;cpp</text>
<text text-anchor="start" x="260.9666" y="-563.5" font-family="Helvetica,sans-Serif" font-size="10.00" fill="#000000">/CameraTrackerLinux/include</text>
<text text-anchor="start" x="260.9666" y="-552.5" font-family="Helvetica,sans-Serif" font-size="10.00" fill="#000000">/nlohmann/detail/output/binary</text>
<text text-anchor="middle" x="326.4666" y="-541.5" font-family="Helvetica,sans-Serif" font-size="10.00" fill="#000000">_writer.hpp</text>
</a>
</g>
</g>
<!-- Node21&#45;&gt;Node22 -->
<g id="edge16" class="edge">
<title>Node21&#45;&gt;Node22</title>
<path fill="none" stroke="#191970" d="M315.3517,-624.4993C317.0483,-615.5699 318.8157,-606.268 320.4288,-597.778"/>
<polygon fill="#191970" stroke="#191970" points="311.9065,-623.8818 313.4783,-634.3594 318.7835,-625.1885 311.9065,-623.8818"/>
</g>
<!-- Node22&#45;&gt;Node11 -->
<g id="edge17" class="edge">
<title>Node22&#45;&gt;Node11</title>
<path fill="none" stroke="#191970" d="M308.4501,-524.7439C305.1091,-516.0295 301.908,-506.8044 299.4666,-498 291.1039,-467.8428 285.9269,-432.1716 283.1291,-408.5337"/>
<polygon fill="#191970" stroke="#191970" points="305.3069,-526.3122 312.2488,-534.3161 311.8133,-523.7302 305.3069,-526.3122"/>
</g>
<!-- Node22&#45;&gt;Node23 -->
<g id="edge18" class="edge">
<title>Node22&#45;&gt;Node23</title>
<path fill="none" stroke="#191970" d="M356.7272,-526.2829C364.0974,-516.6095 371.797,-506.5038 378.5472,-497.6442"/>
<polygon fill="#191970" stroke="#191970" points="353.9183,-524.1945 350.6418,-534.27 359.4863,-528.4368 353.9183,-524.1945"/>
</g>
<!-- Node23&#45;&gt;Node11 -->
<g id="edge19" class="edge">
<title>Node23&#45;&gt;Node11</title>
<path fill="none" stroke="#191970" d="M355.5707,-439.1463C342.2225,-429.0786 327.6833,-418.1126 314.9838,-408.5341"/>
<polygon fill="#191970" stroke="#191970" points="353.6096,-442.0511 363.7009,-445.2784 357.8247,-436.4625 353.6096,-442.0511"/>
</g>
<!-- Node24&#45;&gt;Node21 -->
<g id="edge21" class="edge">
<title>Node24&#45;&gt;Node21</title>
<path fill="none" stroke="#191970" d="M435.4774,-730.0054C414.2269,-719.3802 391.1408,-707.8371 370.5001,-697.5168"/>
<polygon fill="#191970" stroke="#191970" points="433.9503,-733.1549 444.4598,-734.4966 437.0808,-726.8939 433.9503,-733.1549"/>
</g>
<!-- Node24&#45;&gt;Node25 -->
<g id="edge22" class="edge">
<title>Node24&#45;&gt;Node25</title>
<path fill="none" stroke="#191970" d="M511.2319,-724.1631C512.2108,-713.2863 513.2374,-701.8798 514.1196,-692.078"/>
<polygon fill="#191970" stroke="#191970" points="507.7248,-724.0859 510.3142,-734.3594 514.6966,-724.7134 507.7248,-724.0859"/>
</g>
<!-- Node25&#45;&gt;Node11 -->
<g id="edge23" class="edge">
<title>Node25&#45;&gt;Node11</title>
<path fill="none" stroke="#191970" d="M524.523,-629.7513C532.9137,-581.7769 539.5156,-497.1919 496.4666,-445 477.9917,-422.6014 408.0598,-405.1309 352.7071,-394.4238"/>
<polygon fill="#191970" stroke="#191970" points="521.0617,-629.2204 522.666,-639.6931 527.9426,-630.5057 521.0617,-629.2204"/>
</g>
<!-- Node26&#45;&gt;Node11 -->
<g id="edge26" class="edge">
<title>Node26&#45;&gt;Node11</title>
<path fill="none" stroke="#191970" d="M668.4223,-625.2775C642.834,-575.109 592.5758,-490.9025 524.4666,-445 496.5448,-426.182 413.9183,-407.387 352.508,-395.3972"/>
<polygon fill="#191970" stroke="#191970" points="665.3011,-626.8614 672.9119,-634.232 671.5586,-623.724 665.3011,-626.8614"/>
</g>
<!-- Node27&#45;&gt;Node11 -->
<g id="edge28" class="edge">
<title>Node27&#45;&gt;Node11</title>
<path fill="none" stroke="#191970" d="M782.5986,-729.7529C784.1613,-702.1595 782.829,-663.9521 768.4666,-634 715.3074,-523.1391 675.312,-502.1728 566.4666,-445 499.0865,-409.6075 412.6726,-394.2353 352.549,-387.5717"/>
<polygon fill="#191970" stroke="#191970" points="779.1046,-729.5441 781.8791,-739.7692 786.0867,-730.0458 779.1046,-729.5441"/>
</g>
</g>
</svg>
