<?xml version="1.0" encoding="UTF-8" standalone="no"?>
<!DOCTYPE svg PUBLIC "-//W3C//DTD SVG 1.1//EN"
 "http://www.w3.org/Graphics/SVG/1.1/DTD/svg11.dtd">
<!-- Generated by graphviz version 2.40.1 (20161225.0304)
 -->
<!-- Title: /home/bdn_jz/bdn_jz/camera&#45;tracker&#45;cpp/CameraTrackerLinux/include/nlohmann/detail/exceptions.hpp Pages: 1 -->
<svg width="536pt" height="195pt"
 viewBox="0.00 0.00 536.00 195.00" xmlns="http://www.w3.org/2000/svg" xmlns:xlink="http://www.w3.org/1999/xlink">
<g id="graph0" class="graph" transform="scale(1 1) rotate(0) translate(4 191)">
<title>/home/bdn_jz/bdn_jz/camera&#45;tracker&#45;cpp/CameraTrackerLinux/include/nlohmann/detail/exceptions.hpp</title>
<polygon fill="#ffffff" stroke="transparent" points="-4,4 -4,-191 532,-191 532,4 -4,4"/>
<!-- Node0 -->
<g id="node1" class="node">
<title>Node0</title>
<polygon fill="#bfbfbf" stroke="#000000" points="96,-134.5 96,-186.5 253,-186.5 253,-134.5 96,-134.5"/>
<text text-anchor="start" x="104" y="-174.5" font-family="Helvetica,sans-Serif" font-size="10.00" fill="#000000">/home/bdn_jz/bdn_jz</text>
<text text-anchor="start" x="104" y="-163.5" font-family="Helvetica,sans-Serif" font-size="10.00" fill="#000000">/camera&#45;tracker&#45;cpp</text>
<text text-anchor="start" x="104" y="-152.5" font-family="Helvetica,sans-Serif" font-size="10.00" fill="#000000">/CameraTrackerLinux/include</text>
<text text-anchor="middle" x="174.5" y="-141.5" font-family="Helvetica,sans-Serif" font-size="10.00" fill="#000000">/nlohmann/detail/exceptions.hpp</text>
</g>
<!-- Node1 -->
<g id="node2" class="node">
<title>Node1</title>
<polygon fill="#ffffff" stroke="#bfbfbf" points="0,-73 0,-92 59,-92 59,-73 0,-73"/>
<text text-anchor="middle" x="29.5" y="-80" font-family="Helvetica,sans-Serif" font-size="10.00" fill="#000000">exception</text>
</g>
<!-- Node0&#45;&gt;Node1 -->
<g id="edge1" class="edge">
<title>Node0&#45;&gt;Node1</title>
<path fill="none" stroke="#191970" d="M125.8137,-134.3101C102.6229,-121.8351 75.775,-107.3928 56.3258,-96.9304"/>
<polygon fill="#191970" stroke="#191970" points="57.8855,-93.7952 47.4207,-92.1401 54.5693,-99.9599 57.8855,-93.7952"/>
</g>
<!-- Node2 -->
<g id="node3" class="node">
<title>Node2</title>
<polygon fill="#ffffff" stroke="#bfbfbf" points="77,-73 77,-92 136,-92 136,-73 77,-73"/>
<text text-anchor="middle" x="106.5" y="-80" font-family="Helvetica,sans-Serif" font-size="10.00" fill="#000000">stdexcept</text>
</g>
<!-- Node0&#45;&gt;Node2 -->
<g id="edge2" class="edge">
<title>Node0&#45;&gt;Node2</title>
<path fill="none" stroke="#191970" d="M151.4783,-134.0928C141.605,-122.7675 130.3481,-109.8552 121.5657,-99.7812"/>
<polygon fill="#191970" stroke="#191970" points="124.0648,-97.3216 114.8552,-92.0839 118.7883,-101.9216 124.0648,-97.3216"/>
</g>
<!-- Node3 -->
<g id="node4" class="node">
<title>Node3</title>
<polygon fill="#ffffff" stroke="#bfbfbf" points="154,-73 154,-92 195,-92 195,-73 154,-73"/>
<text text-anchor="middle" x="174.5" y="-80" font-family="Helvetica,sans-Serif" font-size="10.00" fill="#000000">string</text>
</g>
<!-- Node0&#45;&gt;Node3 -->
<g id="edge3" class="edge">
<title>Node0&#45;&gt;Node3</title>
<path fill="none" stroke="#191970" d="M174.5,-134.0928C174.5,-123.6735 174.5,-111.911 174.5,-102.2512"/>
<polygon fill="#191970" stroke="#191970" points="178.0001,-102.0838 174.5,-92.0839 171.0001,-102.0839 178.0001,-102.0838"/>
</g>
<!-- Node4 -->
<g id="node5" class="node">
<title>Node4</title>
<g id="a_node5"><a xlink:href="position__t_8hpp.html" target="_top" xlink:title="nlohmann/detail/input\l/position_t.hpp">
<polygon fill="#ffffff" stroke="#000000" points="213,-67.5 213,-97.5 322,-97.5 322,-67.5 213,-67.5"/>
<text text-anchor="start" x="221" y="-85.5" font-family="Helvetica,sans-Serif" font-size="10.00" fill="#000000">nlohmann/detail/input</text>
<text text-anchor="middle" x="267.5" y="-74.5" font-family="Helvetica,sans-Serif" font-size="10.00" fill="#000000">/position_t.hpp</text>
</a>
</g>
</g>
<!-- Node0&#45;&gt;Node4 -->
<g id="edge4" class="edge">
<title>Node0&#45;&gt;Node4</title>
<path fill="none" stroke="#191970" d="M205.7264,-134.3101C217.4459,-124.4808 230.6216,-113.4303 241.785,-104.0674"/>
<polygon fill="#191970" stroke="#191970" points="244.0956,-106.6976 249.5084,-97.5897 239.5973,-101.3342 244.0956,-106.6976"/>
</g>
<!-- Node6 -->
<g id="node7" class="node">
<title>Node6</title>
<g id="a_node7"><a xlink:href="macro__scope_8hpp.html" target="_top" xlink:title="nlohmann/detail/macro\l_scope.hpp">
<polygon fill="#ffffff" stroke="#000000" points="351,-67.5 351,-97.5 466,-97.5 466,-67.5 351,-67.5"/>
<text text-anchor="start" x="359" y="-85.5" font-family="Helvetica,sans-Serif" font-size="10.00" fill="#000000">nlohmann/detail/macro</text>
<text text-anchor="middle" x="408.5" y="-74.5" font-family="Helvetica,sans-Serif" font-size="10.00" fill="#000000">_scope.hpp</text>
</a>
</g>
</g>
<!-- Node0&#45;&gt;Node6 -->
<g id="edge6" class="edge">
<title>Node0&#45;&gt;Node6</title>
<path fill="none" stroke="#191970" d="M252.7439,-134.4187C285.809,-123.397 323.5296,-110.8235 353.568,-100.8107"/>
<polygon fill="#191970" stroke="#191970" points="355.0625,-104.0019 363.4425,-97.5192 352.8489,-97.3611 355.0625,-104.0019"/>
</g>
<!-- Node5 -->
<g id="node6" class="node">
<title>Node5</title>
<polygon fill="#ffffff" stroke="#bfbfbf" points="237,-6 237,-25 286,-25 286,-6 237,-6"/>
<text text-anchor="middle" x="261.5" y="-13" font-family="Helvetica,sans-Serif" font-size="10.00" fill="#000000">cstddef</text>
</g>
<!-- Node4&#45;&gt;Node5 -->
<g id="edge5" class="edge">
<title>Node4&#45;&gt;Node5</title>
<path fill="none" stroke="#191970" d="M266.1385,-67.2967C265.2854,-57.7699 264.1772,-45.3954 263.258,-35.1306"/>
<polygon fill="#191970" stroke="#191970" points="266.7338,-34.7029 262.3557,-25.055 259.7617,-35.3273 266.7338,-34.7029"/>
</g>
<!-- Node7 -->
<g id="node8" class="node">
<title>Node7</title>
<polygon fill="#ffffff" stroke="#bfbfbf" points="304.5,-6 304.5,-25 344.5,-25 344.5,-6 304.5,-6"/>
<text text-anchor="middle" x="324.5" y="-13" font-family="Helvetica,sans-Serif" font-size="10.00" fill="#000000">utility</text>
</g>
<!-- Node6&#45;&gt;Node7 -->
<g id="edge7" class="edge">
<title>Node6&#45;&gt;Node7</title>
<path fill="none" stroke="#191970" d="M389.4391,-67.2967C375.9703,-56.5537 357.9615,-42.1895 344.3252,-31.3129"/>
<polygon fill="#191970" stroke="#191970" points="346.4796,-28.5544 336.4794,-25.055 342.1147,-34.0268 346.4796,-28.5544"/>
</g>
<!-- Node8 -->
<g id="node9" class="node">
<title>Node8</title>
<polygon fill="#ffffff" stroke="#bfbfbf" points="362.5,-.5 362.5,-30.5 464.5,-30.5 464.5,-.5 362.5,-.5"/>
<text text-anchor="start" x="370.5" y="-18.5" font-family="Helvetica,sans-Serif" font-size="10.00" fill="#000000">nlohmann/thirdparty</text>
<text text-anchor="middle" x="413.5" y="-7.5" font-family="Helvetica,sans-Serif" font-size="10.00" fill="#000000">/hedley/hedley.hpp</text>
</g>
<!-- Node6&#45;&gt;Node8 -->
<g id="edge8" class="edge">
<title>Node6&#45;&gt;Node8</title>
<path fill="none" stroke="#191970" d="M409.6346,-67.2967C410.2163,-59.5013 410.9404,-49.7991 411.604,-40.9064"/>
<polygon fill="#191970" stroke="#191970" points="415.1159,-40.8759 412.3699,-30.6432 408.1353,-40.3549 415.1159,-40.8759"/>
</g>
<!-- Node9 -->
<g id="node10" class="node">
<title>Node9</title>
<polygon fill="#ffffff" stroke="#bfbfbf" points="483,-6 483,-25 528,-25 528,-6 483,-6"/>
<text text-anchor="middle" x="505.5" y="-13" font-family="Helvetica,sans-Serif" font-size="10.00" fill="#000000">cstdlib</text>
</g>
<!-- Node6&#45;&gt;Node9 -->
<g id="edge9" class="edge">
<title>Node6&#45;&gt;Node9</title>
<path fill="none" stroke="#191970" d="M430.5108,-67.2967C446.2108,-56.4524 467.2528,-41.9182 483.051,-31.006"/>
<polygon fill="#191970" stroke="#191970" points="485.4278,-33.6181 491.6667,-25.055 481.4495,-27.8585 485.4278,-33.6181"/>
</g>
</g>
</svg>
