<?xml version="1.0" encoding="UTF-8" standalone="no"?>
<!DOCTYPE svg PUBLIC "-//W3C//DTD SVG 1.1//EN"
 "http://www.w3.org/Graphics/SVG/1.1/DTD/svg11.dtd">
<!-- Generated by graphviz version 2.40.1 (20161225.0304)
 -->
<!-- Title: /home/bdn_jz/bdn_jz/camera&#45;tracker&#45;cpp/CameraTrackerLinux/include/nlohmann/detail/conversions/from_json.hpp Pages: 1 -->
<svg width="1677pt" height="329pt"
 viewBox="0.00 0.00 1676.50 329.00" xmlns="http://www.w3.org/2000/svg" xmlns:xlink="http://www.w3.org/1999/xlink">
<g id="graph0" class="graph" transform="scale(1 1) rotate(0) translate(4 325)">
<title>/home/bdn_jz/bdn_jz/camera&#45;tracker&#45;cpp/CameraTrackerLinux/include/nlohmann/detail/conversions/from_json.hpp</title>
<polygon fill="#ffffff" stroke="transparent" points="-4,4 -4,-325 1672.5,-325 1672.5,4 -4,4"/>
<!-- Node0 -->
<g id="node1" class="node">
<title>Node0</title>
<polygon fill="#bfbfbf" stroke="#000000" points="988,-257.5 988,-320.5 1132,-320.5 1132,-257.5 988,-257.5"/>
<text text-anchor="start" x="996" y="-308.5" font-family="Helvetica,sans-Serif" font-size="10.00" fill="#000000">/home/bdn_jz/bdn_jz</text>
<text text-anchor="start" x="996" y="-297.5" font-family="Helvetica,sans-Serif" font-size="10.00" fill="#000000">/camera&#45;tracker&#45;cpp</text>
<text text-anchor="start" x="996" y="-286.5" font-family="Helvetica,sans-Serif" font-size="10.00" fill="#000000">/CameraTrackerLinux/include</text>
<text text-anchor="start" x="996" y="-275.5" font-family="Helvetica,sans-Serif" font-size="10.00" fill="#000000">/nlohmann/detail/conversions</text>
<text text-anchor="middle" x="1060" y="-264.5" font-family="Helvetica,sans-Serif" font-size="10.00" fill="#000000">/from_json.hpp</text>
</g>
<!-- Node1 -->
<g id="node2" class="node">
<title>Node1</title>
<polygon fill="#ffffff" stroke="#bfbfbf" points="0,-196 0,-215 56,-215 56,-196 0,-196"/>
<text text-anchor="middle" x="28" y="-203" font-family="Helvetica,sans-Serif" font-size="10.00" fill="#000000">algorithm</text>
</g>
<!-- Node0&#45;&gt;Node1 -->
<g id="edge1" class="edge">
<title>Node0&#45;&gt;Node1</title>
<path fill="none" stroke="#191970" d="M987.8273,-286.7076C790.5613,-280.0181 245.4058,-258.5809 70,-221 66.732,-220.2998 63.377,-219.3976 60.0562,-218.3809"/>
<polygon fill="#191970" stroke="#191970" points="60.9128,-214.9755 50.3184,-215.075 58.6625,-221.604 60.9128,-214.9755"/>
</g>
<!-- Node2 -->
<g id="node3" class="node">
<title>Node2</title>
<polygon fill="#ffffff" stroke="#bfbfbf" points="216,-62 216,-81 254,-81 254,-62 216,-62"/>
<text text-anchor="middle" x="235" y="-69" font-family="Helvetica,sans-Serif" font-size="10.00" fill="#000000">array</text>
</g>
<!-- Node0&#45;&gt;Node2 -->
<g id="edge2" class="edge">
<title>Node0&#45;&gt;Node2</title>
<path fill="none" stroke="#191970" d="M987.7937,-287.1291C825.3575,-282.1651 435.7849,-265.8274 313,-221 264.125,-203.1563 241.0605,-200.133 217,-154 206.4594,-133.7898 215.3627,-107.6961 223.9792,-90.3211"/>
<polygon fill="#191970" stroke="#191970" points="227.2247,-91.6751 228.8702,-81.2088 221.057,-88.3646 227.2247,-91.6751"/>
</g>
<!-- Node3 -->
<g id="node4" class="node">
<title>Node3</title>
<polygon fill="#ffffff" stroke="#bfbfbf" points="210,-.5 210,-19.5 260,-19.5 260,-.5 210,-.5"/>
<text text-anchor="middle" x="235" y="-7.5" font-family="Helvetica,sans-Serif" font-size="10.00" fill="#000000">ciso646</text>
</g>
<!-- Node0&#45;&gt;Node3 -->
<g id="edge3" class="edge">
<title>Node0&#45;&gt;Node3</title>
<path fill="none" stroke="#191970" d="M987.788,-287.8886C793.9472,-284.2576 272.8496,-269.9948 214,-221 156.9986,-173.5439 160.6163,-124.5244 189,-56 193.8312,-44.3363 203.2137,-34.0881 212.2518,-26.243"/>
<polygon fill="#191970" stroke="#191970" points="214.7266,-28.7436 220.3148,-19.7423 210.333,-23.2942 214.7266,-28.7436"/>
</g>
<!-- Node4 -->
<g id="node5" class="node">
<title>Node4</title>
<polygon fill="#ffffff" stroke="#bfbfbf" points="1374.5,-196 1374.5,-215 1441.5,-215 1441.5,-196 1374.5,-196"/>
<text text-anchor="middle" x="1408" y="-203" font-family="Helvetica,sans-Serif" font-size="10.00" fill="#000000">forward_list</text>
</g>
<!-- Node0&#45;&gt;Node4 -->
<g id="edge4" class="edge">
<title>Node0&#45;&gt;Node4</title>
<path fill="none" stroke="#191970" d="M1132.2788,-274.5114C1193.3253,-261.8228 1282.8736,-242.1481 1360,-221 1363.3531,-220.0806 1366.8206,-219.0735 1370.2865,-218.0282"/>
<polygon fill="#191970" stroke="#191970" points="1371.444,-221.3336 1379.9532,-215.0214 1369.3649,-214.6495 1371.444,-221.3336"/>
</g>
<!-- Node5 -->
<g id="node6" class="node">
<title>Node5</title>
<polygon fill="#ffffff" stroke="#bfbfbf" points="1354.5,-62 1354.5,-81 1401.5,-81 1401.5,-62 1354.5,-62"/>
<text text-anchor="middle" x="1378" y="-69" font-family="Helvetica,sans-Serif" font-size="10.00" fill="#000000">iterator</text>
</g>
<!-- Node0&#45;&gt;Node5 -->
<g id="edge5" class="edge">
<title>Node0&#45;&gt;Node5</title>
<path fill="none" stroke="#191970" d="M1132.0163,-279.1178C1187.4601,-269.5444 1264.8658,-251.8225 1327,-221 1346.8356,-211.1603 1345.9913,-199.4829 1366,-190 1434.2189,-157.6683 1484.6118,-212.7667 1532,-154 1567.9519,-109.4156 1467.078,-85.7171 1411.6679,-76.3504"/>
<polygon fill="#191970" stroke="#191970" points="1412.0005,-72.8587 1401.5698,-74.7162 1410.8822,-79.7688 1412.0005,-72.8587"/>
</g>
<!-- Node6 -->
<g id="node7" class="node">
<title>Node6</title>
<polygon fill="#ffffff" stroke="#bfbfbf" points="604.5,-62 604.5,-81 639.5,-81 639.5,-62 604.5,-62"/>
<text text-anchor="middle" x="622" y="-69" font-family="Helvetica,sans-Serif" font-size="10.00" fill="#000000">map</text>
</g>
<!-- Node0&#45;&gt;Node6 -->
<g id="edge6" class="edge">
<title>Node0&#45;&gt;Node6</title>
<path fill="none" stroke="#191970" d="M987.5813,-280.4701C861.6796,-263.9518 611.0545,-223.0192 561,-154 543.8624,-130.3693 573.6619,-103.1859 597.3287,-86.6815"/>
<polygon fill="#191970" stroke="#191970" points="599.2993,-89.5743 605.6723,-81.1105 595.4122,-83.7527 599.2993,-89.5743"/>
</g>
<!-- Node7 -->
<g id="node8" class="node">
<title>Node7</title>
<polygon fill="#ffffff" stroke="#bfbfbf" points="412.5,-62 412.5,-81 453.5,-81 453.5,-62 412.5,-62"/>
<text text-anchor="middle" x="433" y="-69" font-family="Helvetica,sans-Serif" font-size="10.00" fill="#000000">string</text>
</g>
<!-- Node0&#45;&gt;Node7 -->
<g id="edge7" class="edge">
<title>Node0&#45;&gt;Node7</title>
<path fill="none" stroke="#191970" d="M987.7425,-286.2464C828.5754,-278.4456 456.1828,-250.089 385,-154 368.8748,-132.2328 392.9178,-104.6236 412.4033,-87.5098"/>
<polygon fill="#191970" stroke="#191970" points="414.6639,-90.182 420.0808,-81.0766 410.168,-84.8166 414.6639,-90.182"/>
</g>
<!-- Node8 -->
<g id="node9" class="node">
<title>Node8</title>
<polygon fill="#ffffff" stroke="#bfbfbf" points="1460,-196 1460,-215 1498,-215 1498,-196 1460,-196"/>
<text text-anchor="middle" x="1479" y="-203" font-family="Helvetica,sans-Serif" font-size="10.00" fill="#000000">tuple</text>
</g>
<!-- Node0&#45;&gt;Node8 -->
<g id="edge8" class="edge">
<title>Node0&#45;&gt;Node8</title>
<path fill="none" stroke="#191970" d="M1132.0861,-283.6923C1211.9451,-276.1699 1343.617,-258.8508 1451,-221 1452.2085,-220.574 1453.4266,-220.099 1454.6425,-219.5872"/>
<polygon fill="#191970" stroke="#191970" points="1456.2828,-222.6813 1463.7333,-215.1487 1453.2116,-216.391 1456.2828,-222.6813"/>
</g>
<!-- Node9 -->
<g id="node10" class="node">
<title>Node9</title>
<polygon fill="#ffffff" stroke="#bfbfbf" points="701,-.5 701,-19.5 763,-19.5 763,-.5 701,-.5"/>
<text text-anchor="middle" x="732" y="-7.5" font-family="Helvetica,sans-Serif" font-size="10.00" fill="#000000">type_traits</text>
</g>
<!-- Node0&#45;&gt;Node9 -->
<g id="edge9" class="edge">
<title>Node0&#45;&gt;Node9</title>
<path fill="none" stroke="#191970" d="M987.8084,-287.0789C799.1441,-281.4911 301.7337,-262.9103 241,-221 213.8394,-202.2573 216.7707,-186.0719 209,-154 198.7415,-111.6604 177.5702,-88.1211 207,-56 239.4739,-20.5563 572.4387,-12.3056 690.6476,-10.4872"/>
<polygon fill="#191970" stroke="#191970" points="690.8019,-13.9855 700.7496,-10.3396 690.6995,-6.9862 690.8019,-13.9855"/>
</g>
<!-- Node10 -->
<g id="node11" class="node">
<title>Node10</title>
<polygon fill="#ffffff" stroke="#bfbfbf" points="1516.5,-196 1516.5,-215 1599.5,-215 1599.5,-196 1516.5,-196"/>
<text text-anchor="middle" x="1558" y="-203" font-family="Helvetica,sans-Serif" font-size="10.00" fill="#000000">unordered_map</text>
</g>
<!-- Node0&#45;&gt;Node10 -->
<g id="edge10" class="edge">
<title>Node0&#45;&gt;Node10</title>
<path fill="none" stroke="#191970" d="M1132.2085,-281.2618C1221.0814,-270.9948 1376.2856,-250.6436 1507,-221 1511.112,-220.0675 1515.3757,-218.9759 1519.607,-217.8115"/>
<polygon fill="#191970" stroke="#191970" points="1520.6979,-221.1395 1529.3344,-215.0026 1518.7559,-214.4143 1520.6979,-221.1395"/>
</g>
<!-- Node11 -->
<g id="node12" class="node">
<title>Node11</title>
<polygon fill="#ffffff" stroke="#bfbfbf" points="1075,-62 1075,-81 1115,-81 1115,-62 1075,-62"/>
<text text-anchor="middle" x="1095" y="-69" font-family="Helvetica,sans-Serif" font-size="10.00" fill="#000000">utility</text>
</g>
<!-- Node0&#45;&gt;Node11 -->
<g id="edge11" class="edge">
<title>Node0&#45;&gt;Node11</title>
<path fill="none" stroke="#191970" d="M1066.9714,-257.2526C1069.3597,-245.8508 1071.9454,-232.8768 1074,-221 1082.0068,-174.7169 1089.0946,-119.9701 1092.6263,-91.2911"/>
<polygon fill="#191970" stroke="#191970" points="1096.1049,-91.6786 1093.8386,-81.329 1089.1562,-90.8329 1096.1049,-91.6786"/>
</g>
<!-- Node12 -->
<g id="node13" class="node">
<title>Node12</title>
<polygon fill="#ffffff" stroke="#bfbfbf" points="1617.5,-196 1617.5,-215 1668.5,-215 1668.5,-196 1617.5,-196"/>
<text text-anchor="middle" x="1643" y="-203" font-family="Helvetica,sans-Serif" font-size="10.00" fill="#000000">valarray</text>
</g>
<!-- Node0&#45;&gt;Node12 -->
<g id="edge12" class="edge">
<title>Node0&#45;&gt;Node12</title>
<path fill="none" stroke="#191970" d="M1132.0012,-287.0308C1238.2432,-282.5788 1442.4139,-268.0892 1609,-221 1610.9664,-220.4441 1612.9637,-219.7904 1614.9545,-219.0713"/>
<polygon fill="#191970" stroke="#191970" points="1616.7575,-222.1147 1624.681,-215.0813 1614.1009,-215.6385 1616.7575,-222.1147"/>
</g>
<!-- Node13 -->
<g id="node14" class="node">
<title>Node13</title>
<g id="a_node14"><a xlink:href="exceptions_8hpp.html" target="_top" xlink:title="nlohmann/detail/exceptions.hpp">
<polygon fill="#ffffff" stroke="#000000" points="1164,-196 1164,-215 1318,-215 1318,-196 1164,-196"/>
<text text-anchor="middle" x="1241" y="-203" font-family="Helvetica,sans-Serif" font-size="10.00" fill="#000000">nlohmann/detail/exceptions.hpp</text>
</a>
</g>
</g>
<!-- Node0&#45;&gt;Node13 -->
<g id="edge13" class="edge">
<title>Node0&#45;&gt;Node13</title>
<path fill="none" stroke="#191970" d="M1128.4283,-257.4322C1156.8571,-244.3173 1188.3804,-229.7748 1210.8201,-219.4228"/>
<polygon fill="#191970" stroke="#191970" points="1212.5317,-222.4877 1220.1459,-215.1205 1209.5994,-216.1315 1212.5317,-222.4877"/>
</g>
<!-- Node18 -->
<g id="node19" class="node">
<title>Node18</title>
<g id="a_node19"><a xlink:href="macro__scope_8hpp.html" target="_top" xlink:title="nlohmann/detail/macro\l_scope.hpp">
<polygon fill="#ffffff" stroke="#000000" points="1126.5,-123.5 1126.5,-153.5 1241.5,-153.5 1241.5,-123.5 1126.5,-123.5"/>
<text text-anchor="start" x="1134.5" y="-141.5" font-family="Helvetica,sans-Serif" font-size="10.00" fill="#000000">nlohmann/detail/macro</text>
<text text-anchor="middle" x="1184" y="-130.5" font-family="Helvetica,sans-Serif" font-size="10.00" fill="#000000">_scope.hpp</text>
</a>
</g>
</g>
<!-- Node0&#45;&gt;Node18 -->
<g id="edge23" class="edge">
<title>Node0&#45;&gt;Node18</title>
<path fill="none" stroke="#191970" d="M1085.9945,-257.4503C1109.6021,-228.7974 1143.868,-187.2086 1165.0006,-161.5598"/>
<polygon fill="#191970" stroke="#191970" points="1167.9717,-163.4578 1171.6294,-153.5143 1162.5693,-159.0065 1167.9717,-163.4578"/>
</g>
<!-- Node21 -->
<g id="node22" class="node">
<title>Node21</title>
<g id="a_node22"><a xlink:href="cpp__future_8hpp.html" target="_top" xlink:title="nlohmann/detail/meta\l/cpp_future.hpp">
<polygon fill="#ffffff" stroke="#000000" points="922,-56.5 922,-86.5 1032,-86.5 1032,-56.5 922,-56.5"/>
<text text-anchor="start" x="930" y="-74.5" font-family="Helvetica,sans-Serif" font-size="10.00" fill="#000000">nlohmann/detail/meta</text>
<text text-anchor="middle" x="977" y="-63.5" font-family="Helvetica,sans-Serif" font-size="10.00" fill="#000000">/cpp_future.hpp</text>
</a>
</g>
</g>
<!-- Node0&#45;&gt;Node21 -->
<g id="edge24" class="edge">
<title>Node0&#45;&gt;Node21</title>
<path fill="none" stroke="#191970" d="M1047.9311,-257.3736C1031.2629,-213.6949 1001.5444,-135.8181 986.4135,-96.1678"/>
<polygon fill="#191970" stroke="#191970" points="989.6473,-94.825 982.8119,-86.73 983.1073,-97.3207 989.6473,-94.825"/>
</g>
<!-- Node22 -->
<g id="node23" class="node">
<title>Node22</title>
<g id="a_node23"><a xlink:href="type__traits_8hpp.html" target="_top" xlink:title="nlohmann/detail/meta\l/type_traits.hpp">
<polygon fill="#ffffff" stroke="#000000" points="775,-190.5 775,-220.5 885,-220.5 885,-190.5 775,-190.5"/>
<text text-anchor="start" x="783" y="-208.5" font-family="Helvetica,sans-Serif" font-size="10.00" fill="#000000">nlohmann/detail/meta</text>
<text text-anchor="middle" x="830" y="-197.5" font-family="Helvetica,sans-Serif" font-size="10.00" fill="#000000">/type_traits.hpp</text>
</a>
</g>
</g>
<!-- Node0&#45;&gt;Node22 -->
<g id="edge28" class="edge">
<title>Node0&#45;&gt;Node22</title>
<path fill="none" stroke="#191970" d="M987.8576,-262.8092C953.115,-250.1961 912.2825,-235.3721 880.8508,-223.9611"/>
<polygon fill="#191970" stroke="#191970" points="882.0093,-220.6582 871.4152,-220.5355 879.6205,-227.238 882.0093,-220.6582"/>
</g>
<!-- Node31 -->
<g id="node32" class="node">
<title>Node31</title>
<g id="a_node32"><a xlink:href="value__t_8hpp.html" target="_top" xlink:title="nlohmann/detail/value\l_t.hpp">
<polygon fill="#ffffff" stroke="#000000" points="226.5,-123.5 226.5,-153.5 337.5,-153.5 337.5,-123.5 226.5,-123.5"/>
<text text-anchor="start" x="234.5" y="-141.5" font-family="Helvetica,sans-Serif" font-size="10.00" fill="#000000">nlohmann/detail/value</text>
<text text-anchor="middle" x="282" y="-130.5" font-family="Helvetica,sans-Serif" font-size="10.00" fill="#000000">_t.hpp</text>
</a>
</g>
</g>
<!-- Node0&#45;&gt;Node31 -->
<g id="edge48" class="edge">
<title>Node0&#45;&gt;Node31</title>
<path fill="none" stroke="#191970" d="M987.7323,-285.1422C818.665,-275.6793 407.4404,-249.9663 352,-221 326.9921,-207.934 307.2313,-181.7974 295.17,-162.4273"/>
<polygon fill="#191970" stroke="#191970" points="298.1588,-160.6057 290.0286,-153.8123 292.1479,-164.193 298.1588,-160.6057"/>
</g>
<!-- Node13&#45;&gt;Node7 -->
<g id="edge16" class="edge">
<title>Node13&#45;&gt;Node7</title>
<path fill="none" stroke="#191970" d="M1163.7921,-201.9686C1079.2338,-196.7202 940.1816,-184.0142 824,-154 788.2811,-144.7724 782.704,-132.2849 747,-123 623.8633,-90.9782 584.4935,-124.7808 463,-87 461.5305,-86.543 460.047,-86.0168 458.5677,-85.4403"/>
<polygon fill="#191970" stroke="#191970" points="459.6127,-82.0703 449.0616,-81.1084 456.7099,-88.4401 459.6127,-82.0703"/>
</g>
<!-- Node14 -->
<g id="node15" class="node">
<title>Node14</title>
<polygon fill="#ffffff" stroke="#bfbfbf" points="1336.5,-129 1336.5,-148 1395.5,-148 1395.5,-129 1336.5,-129"/>
<text text-anchor="middle" x="1366" y="-136" font-family="Helvetica,sans-Serif" font-size="10.00" fill="#000000">exception</text>
</g>
<!-- Node13&#45;&gt;Node14 -->
<g id="edge14" class="edge">
<title>Node13&#45;&gt;Node14</title>
<path fill="none" stroke="#191970" d="M1258.9095,-195.9005C1279.8873,-184.6564 1314.8496,-165.9166 1339.0935,-152.9219"/>
<polygon fill="#191970" stroke="#191970" points="1340.9635,-155.8907 1348.1238,-148.0817 1337.6565,-149.7211 1340.9635,-155.8907"/>
</g>
<!-- Node15 -->
<g id="node16" class="node">
<title>Node15</title>
<polygon fill="#ffffff" stroke="#bfbfbf" points="1259.5,-129 1259.5,-148 1318.5,-148 1318.5,-129 1259.5,-129"/>
<text text-anchor="middle" x="1289" y="-136" font-family="Helvetica,sans-Serif" font-size="10.00" fill="#000000">stdexcept</text>
</g>
<!-- Node13&#45;&gt;Node15 -->
<g id="edge15" class="edge">
<title>Node13&#45;&gt;Node15</title>
<path fill="none" stroke="#191970" d="M1247.8772,-195.9005C1255.2198,-185.6515 1267.0241,-169.1747 1276.1062,-156.4976"/>
<polygon fill="#191970" stroke="#191970" points="1279.1568,-158.2492 1282.1355,-148.0817 1273.4664,-154.1724 1279.1568,-158.2492"/>
</g>
<!-- Node16 -->
<g id="node17" class="node">
<title>Node16</title>
<g id="a_node17"><a xlink:href="position__t_8hpp.html" target="_top" xlink:title="nlohmann/detail/input\l/position_t.hpp">
<polygon fill="#ffffff" stroke="#000000" points="1413.5,-123.5 1413.5,-153.5 1522.5,-153.5 1522.5,-123.5 1413.5,-123.5"/>
<text text-anchor="start" x="1421.5" y="-141.5" font-family="Helvetica,sans-Serif" font-size="10.00" fill="#000000">nlohmann/detail/input</text>
<text text-anchor="middle" x="1468" y="-130.5" font-family="Helvetica,sans-Serif" font-size="10.00" fill="#000000">/position_t.hpp</text>
</a>
</g>
</g>
<!-- Node13&#45;&gt;Node16 -->
<g id="edge17" class="edge">
<title>Node13&#45;&gt;Node16</title>
<path fill="none" stroke="#191970" d="M1273.5236,-195.9005C1308.326,-185.6284 1364.3234,-169.1006 1407.3124,-156.4122"/>
<polygon fill="#191970" stroke="#191970" points="1408.5052,-159.7095 1417.1054,-153.5218 1406.5236,-152.9958 1408.5052,-159.7095"/>
</g>
<!-- Node13&#45;&gt;Node18 -->
<g id="edge19" class="edge">
<title>Node13&#45;&gt;Node18</title>
<path fill="none" stroke="#191970" d="M1232.8333,-195.9005C1225.1798,-186.9043 1213.4443,-173.1099 1203.3959,-161.2986"/>
<polygon fill="#191970" stroke="#191970" points="1205.9253,-158.8704 1196.7797,-153.5218 1200.5937,-163.4063 1205.9253,-158.8704"/>
</g>
<!-- Node17 -->
<g id="node18" class="node">
<title>Node17</title>
<polygon fill="#ffffff" stroke="#bfbfbf" points="952.5,-.5 952.5,-19.5 1001.5,-19.5 1001.5,-.5 952.5,-.5"/>
<text text-anchor="middle" x="977" y="-7.5" font-family="Helvetica,sans-Serif" font-size="10.00" fill="#000000">cstddef</text>
</g>
<!-- Node16&#45;&gt;Node17 -->
<g id="edge18" class="edge">
<title>Node16&#45;&gt;Node17</title>
<path fill="none" stroke="#191970" d="M1462.2186,-123.2899C1454.0177,-104.0217 1437.0451,-71.4673 1411,-56 1376.9346,-35.7697 1108.8239,-17.8903 1011.8508,-12.0247"/>
<polygon fill="#191970" stroke="#191970" points="1011.8792,-8.5202 1001.6879,-11.4162 1011.4608,-15.5077 1011.8792,-8.5202"/>
</g>
<!-- Node18&#45;&gt;Node11 -->
<g id="edge20" class="edge">
<title>Node18&#45;&gt;Node11</title>
<path fill="none" stroke="#191970" d="M1163.8045,-123.2967C1149.534,-112.5537 1130.4532,-98.1895 1116.0052,-87.3129"/>
<polygon fill="#191970" stroke="#191970" points="1117.7867,-84.2731 1107.6924,-81.055 1113.5766,-89.8656 1117.7867,-84.2731"/>
</g>
<!-- Node19 -->
<g id="node20" class="node">
<title>Node19</title>
<polygon fill="#ffffff" stroke="#bfbfbf" points="1133,-56.5 1133,-86.5 1235,-86.5 1235,-56.5 1133,-56.5"/>
<text text-anchor="start" x="1141" y="-74.5" font-family="Helvetica,sans-Serif" font-size="10.00" fill="#000000">nlohmann/thirdparty</text>
<text text-anchor="middle" x="1184" y="-63.5" font-family="Helvetica,sans-Serif" font-size="10.00" fill="#000000">/hedley/hedley.hpp</text>
</g>
<!-- Node18&#45;&gt;Node19 -->
<g id="edge21" class="edge">
<title>Node18&#45;&gt;Node19</title>
<path fill="none" stroke="#191970" d="M1184,-123.2967C1184,-115.5013 1184,-105.7991 1184,-96.9064"/>
<polygon fill="#191970" stroke="#191970" points="1187.5001,-96.6431 1184,-86.6432 1180.5001,-96.6432 1187.5001,-96.6431"/>
</g>
<!-- Node20 -->
<g id="node21" class="node">
<title>Node20</title>
<polygon fill="#ffffff" stroke="#bfbfbf" points="1253.5,-62 1253.5,-81 1298.5,-81 1298.5,-62 1253.5,-62"/>
<text text-anchor="middle" x="1276" y="-69" font-family="Helvetica,sans-Serif" font-size="10.00" fill="#000000">cstdlib</text>
</g>
<!-- Node18&#45;&gt;Node20 -->
<g id="edge22" class="edge">
<title>Node18&#45;&gt;Node20</title>
<path fill="none" stroke="#191970" d="M1204.8762,-123.2967C1219.7669,-112.4524 1239.7243,-97.9182 1254.7081,-87.006"/>
<polygon fill="#191970" stroke="#191970" points="1256.8566,-89.7712 1262.8797,-81.055 1252.7357,-84.1127 1256.8566,-89.7712"/>
</g>
<!-- Node21&#45;&gt;Node3 -->
<g id="edge25" class="edge">
<title>Node21&#45;&gt;Node3</title>
<path fill="none" stroke="#191970" d="M921.9605,-57.5419C918.9391,-56.9722 915.9378,-56.4521 913,-56 669.1409,-18.4762 371.2436,-11.5618 270.336,-10.2878"/>
<polygon fill="#191970" stroke="#191970" points="270.1421,-6.7854 260.1024,-10.1698 270.0613,-13.7849 270.1421,-6.7854"/>
</g>
<!-- Node21&#45;&gt;Node9 -->
<g id="edge27" class="edge">
<title>Node21&#45;&gt;Node9</title>
<path fill="none" stroke="#191970" d="M921.7117,-57.6215C876.5645,-46.2886 813.7766,-30.5276 773.0148,-20.2956"/>
<polygon fill="#191970" stroke="#191970" points="773.7016,-16.8594 763.1503,-17.8194 771.9973,-23.6488 773.7016,-16.8594"/>
</g>
<!-- Node21&#45;&gt;Node17 -->
<g id="edge26" class="edge">
<title>Node21&#45;&gt;Node17</title>
<path fill="none" stroke="#191970" d="M977,-56.2977C977,-48.3834 977,-38.6043 977,-30.0759"/>
<polygon fill="#191970" stroke="#191970" points="980.5001,-29.8469 977,-19.8469 973.5001,-29.847 980.5001,-29.8469"/>
</g>
<!-- Node22&#45;&gt;Node3 -->
<g id="edge29" class="edge">
<title>Node22&#45;&gt;Node3</title>
<path fill="none" stroke="#191970" d="M774.8779,-204.7028C631.8671,-202.1059 257.2444,-191.7348 217,-154 185.0618,-124.0535 195.1789,-98.1557 207,-56 209.7878,-46.0584 215.3812,-36.1336 220.8407,-28.0613"/>
<polygon fill="#191970" stroke="#191970" points="223.7676,-29.9866 226.7911,-19.8323 218.0952,-25.8849 223.7676,-29.9866"/>
</g>
<!-- Node22&#45;&gt;Node9 -->
<g id="edge31" class="edge">
<title>Node22&#45;&gt;Node9</title>
<path fill="none" stroke="#191970" d="M822.4728,-190.4841C804.8634,-155.3551 761.0049,-67.8618 741.5518,-29.0549"/>
<polygon fill="#191970" stroke="#191970" points="744.5678,-27.2611 736.9576,-19.8898 738.31,-30.398 744.5678,-27.2611"/>
</g>
<!-- Node22&#45;&gt;Node11 -->
<g id="edge32" class="edge">
<title>Node22&#45;&gt;Node11</title>
<path fill="none" stroke="#191970" d="M885.1898,-191.8595C915.6028,-183.2002 953.4698,-170.5009 985,-154 1020.1334,-135.6134 1055.9871,-106.352 1076.8335,-88.0702"/>
<polygon fill="#191970" stroke="#191970" points="1079.4129,-90.4599 1084.5543,-81.1962 1074.7581,-85.2318 1079.4129,-90.4599"/>
</g>
<!-- Node22&#45;&gt;Node18 -->
<g id="edge37" class="edge">
<title>Node22&#45;&gt;Node18</title>
<path fill="none" stroke="#191970" d="M885.3125,-195.0313C947.7375,-183.2163 1049.3026,-163.9936 1116.386,-151.297"/>
<polygon fill="#191970" stroke="#191970" points="1117.26,-154.6938 1126.4346,-149.3951 1115.9581,-147.8159 1117.26,-154.6938"/>
</g>
<!-- Node22&#45;&gt;Node21 -->
<g id="edge38" class="edge">
<title>Node22&#45;&gt;Node21</title>
<path fill="none" stroke="#191970" d="M885.1517,-197.9064C913.2713,-191.118 945.5526,-178.2765 965,-154 977.7994,-138.0222 980.1183,-114.515 979.6307,-96.6764"/>
<polygon fill="#191970" stroke="#191970" points="983.1239,-96.4569 979.0554,-86.6744 976.1355,-96.8589 983.1239,-96.4569"/>
</g>
<!-- Node23 -->
<g id="node24" class="node">
<title>Node23</title>
<polygon fill="#ffffff" stroke="#bfbfbf" points="698,-129 698,-148 738,-148 738,-129 698,-129"/>
<text text-anchor="middle" x="718" y="-136" font-family="Helvetica,sans-Serif" font-size="10.00" fill="#000000">limits</text>
</g>
<!-- Node22&#45;&gt;Node23 -->
<g id="edge30" class="edge">
<title>Node22&#45;&gt;Node23</title>
<path fill="none" stroke="#191970" d="M804.865,-190.4639C786.3268,-179.3741 761.226,-164.3584 742.7738,-153.32"/>
<polygon fill="#191970" stroke="#191970" points="744.4328,-150.2341 734.0543,-148.1039 740.8392,-156.2412 744.4328,-150.2341"/>
</g>
<!-- Node24 -->
<g id="node25" class="node">
<title>Node24</title>
<g id="a_node25"><a xlink:href="iterator__traits_8hpp.html" target="_top" xlink:title="nlohmann/detail/iterators\l/iterator_traits.hpp">
<polygon fill="#ffffff" stroke="#000000" points="832.5,-123.5 832.5,-153.5 955.5,-153.5 955.5,-123.5 832.5,-123.5"/>
<text text-anchor="start" x="840.5" y="-141.5" font-family="Helvetica,sans-Serif" font-size="10.00" fill="#000000">nlohmann/detail/iterators</text>
<text text-anchor="middle" x="894" y="-130.5" font-family="Helvetica,sans-Serif" font-size="10.00" fill="#000000">/iterator_traits.hpp</text>
</a>
</g>
</g>
<!-- Node22&#45;&gt;Node24 -->
<g id="edge33" class="edge">
<title>Node22&#45;&gt;Node24</title>
<path fill="none" stroke="#191970" d="M844.5226,-190.2967C852.7872,-181.6446 863.2955,-170.6438 872.5002,-161.0076"/>
<polygon fill="#191970" stroke="#191970" points="875.1584,-163.2919 879.5349,-153.6432 870.0966,-158.4567 875.1584,-163.2919"/>
</g>
<!-- Node26 -->
<g id="node27" class="node">
<title>Node26</title>
<g id="a_node27"><a xlink:href="detected_8hpp.html" target="_top" xlink:title="nlohmann/detail/meta\l/detected.hpp">
<polygon fill="#ffffff" stroke="#000000" points="570,-123.5 570,-153.5 680,-153.5 680,-123.5 570,-123.5"/>
<text text-anchor="start" x="578" y="-141.5" font-family="Helvetica,sans-Serif" font-size="10.00" fill="#000000">nlohmann/detail/meta</text>
<text text-anchor="middle" x="625" y="-130.5" font-family="Helvetica,sans-Serif" font-size="10.00" fill="#000000">/detected.hpp</text>
</a>
</g>
</g>
<!-- Node22&#45;&gt;Node26 -->
<g id="edge39" class="edge">
<title>Node22&#45;&gt;Node26</title>
<path fill="none" stroke="#191970" d="M783.994,-190.4639C753.5043,-180.499 713.3159,-167.3642 680.9729,-156.7936"/>
<polygon fill="#191970" stroke="#191970" points="681.7992,-153.3815 671.2067,-153.6017 679.6246,-160.0352 681.7992,-153.3815"/>
</g>
<!-- Node27 -->
<g id="node28" class="node">
<title>Node27</title>
<g id="a_node28"><a xlink:href="json__fwd_8hpp.html" target="_top" xlink:title="nlohmann/json_fwd.hpp">
<polygon fill="#ffffff" stroke="#000000" points="394.5,-129 394.5,-148 513.5,-148 513.5,-129 394.5,-129"/>
<text text-anchor="middle" x="454" y="-136" font-family="Helvetica,sans-Serif" font-size="10.00" fill="#000000">nlohmann/json_fwd.hpp</text>
</a>
</g>
</g>
<!-- Node22&#45;&gt;Node27 -->
<g id="edge42" class="edge">
<title>Node22&#45;&gt;Node27</title>
<path fill="none" stroke="#191970" d="M774.9237,-195.6859C706.3483,-183.4663 589.4637,-162.6385 517.2771,-149.7754"/>
<polygon fill="#191970" stroke="#191970" points="517.8565,-146.3236 507.3976,-148.015 516.6285,-153.2151 517.8565,-146.3236"/>
</g>
<!-- Node24&#45;&gt;Node5 -->
<g id="edge34" class="edge">
<title>Node24&#45;&gt;Node5</title>
<path fill="none" stroke="#191970" d="M955.642,-132.6629C1036.7605,-124.5636 1183.6297,-108.4561 1308,-87 1319.9267,-84.9424 1332.8919,-82.2118 1344.3861,-79.6162"/>
<polygon fill="#191970" stroke="#191970" points="1345.4988,-82.9515 1354.4564,-77.2936 1343.9256,-76.1306 1345.4988,-82.9515"/>
</g>
<!-- Node24&#45;&gt;Node21 -->
<g id="edge36" class="edge">
<title>Node24&#45;&gt;Node21</title>
<path fill="none" stroke="#191970" d="M912.834,-123.2967C923.8705,-114.3876 937.9922,-102.9882 950.1765,-93.1527"/>
<polygon fill="#191970" stroke="#191970" points="952.6578,-95.6478 958.2405,-86.6432 948.2609,-90.201 952.6578,-95.6478"/>
</g>
<!-- Node25 -->
<g id="node26" class="node">
<title>Node25</title>
<g id="a_node26"><a xlink:href="void__t_8hpp.html" target="_top" xlink:title="nlohmann/detail/meta\l/void_t.hpp">
<polygon fill="#ffffff" stroke="#000000" points="794,-56.5 794,-86.5 904,-86.5 904,-56.5 794,-56.5"/>
<text text-anchor="start" x="802" y="-74.5" font-family="Helvetica,sans-Serif" font-size="10.00" fill="#000000">nlohmann/detail/meta</text>
<text text-anchor="middle" x="849" y="-63.5" font-family="Helvetica,sans-Serif" font-size="10.00" fill="#000000">/void_t.hpp</text>
</a>
</g>
</g>
<!-- Node24&#45;&gt;Node25 -->
<g id="edge35" class="edge">
<title>Node24&#45;&gt;Node25</title>
<path fill="none" stroke="#191970" d="M883.7888,-123.2967C878.2079,-114.9873 871.1719,-104.5115 864.8902,-95.1587"/>
<polygon fill="#191970" stroke="#191970" points="867.6519,-92.9931 859.1708,-86.6432 861.8409,-96.896 867.6519,-92.9931"/>
</g>
<!-- Node26&#45;&gt;Node9 -->
<g id="edge40" class="edge">
<title>Node26&#45;&gt;Node9</title>
<path fill="none" stroke="#191970" d="M637.6945,-123.2548C657.6882,-99.2437 696.4014,-52.7515 717.4752,-27.4434"/>
<polygon fill="#191970" stroke="#191970" points="720.1839,-29.6601 723.8932,-19.7358 714.8046,-25.1808 720.1839,-29.6601"/>
</g>
<!-- Node26&#45;&gt;Node25 -->
<g id="edge41" class="edge">
<title>Node26&#45;&gt;Node25</title>
<path fill="none" stroke="#191970" d="M675.27,-123.4639C708.8728,-113.4131 753.2566,-100.1375 788.7515,-89.5208"/>
<polygon fill="#191970" stroke="#191970" points="789.9332,-92.8206 798.5108,-86.6017 787.9272,-86.1142 789.9332,-92.8206"/>
</g>
<!-- Node27&#45;&gt;Node6 -->
<g id="edge44" class="edge">
<title>Node27&#45;&gt;Node6</title>
<path fill="none" stroke="#191970" d="M484.8642,-128.9183C513.8465,-119.5278 558.1426,-104.157 595,-87 595.6983,-86.675 596.4025,-86.3381 597.1097,-85.9917"/>
<polygon fill="#191970" stroke="#191970" points="599.0566,-88.9209 606.2494,-81.1417 595.7754,-82.7375 599.0566,-88.9209"/>
</g>
<!-- Node27&#45;&gt;Node7 -->
<g id="edge46" class="edge">
<title>Node27&#45;&gt;Node7</title>
<path fill="none" stroke="#191970" d="M450.9912,-128.9005C447.9036,-119.0495 443.0126,-103.4451 439.1092,-90.9912"/>
<polygon fill="#191970" stroke="#191970" points="442.3339,-89.5771 436.0032,-81.0817 435.6543,-91.6707 442.3339,-89.5771"/>
</g>
<!-- Node28 -->
<g id="node29" class="node">
<title>Node28</title>
<polygon fill="#ffffff" stroke="#bfbfbf" points="348,-62 348,-81 394,-81 394,-62 348,-62"/>
<text text-anchor="middle" x="371" y="-69" font-family="Helvetica,sans-Serif" font-size="10.00" fill="#000000">cstdint</text>
</g>
<!-- Node27&#45;&gt;Node28 -->
<g id="edge43" class="edge">
<title>Node27&#45;&gt;Node28</title>
<path fill="none" stroke="#191970" d="M442.1081,-128.9005C428.7952,-118.1539 407.0001,-100.5603 391.0432,-87.6794"/>
<polygon fill="#191970" stroke="#191970" points="392.8494,-84.6395 382.8698,-81.0817 388.4526,-90.0863 392.8494,-84.6395"/>
</g>
<!-- Node29 -->
<g id="node30" class="node">
<title>Node29</title>
<polygon fill="#ffffff" stroke="#bfbfbf" points="534,-62 534,-81 586,-81 586,-62 534,-62"/>
<text text-anchor="middle" x="560" y="-69" font-family="Helvetica,sans-Serif" font-size="10.00" fill="#000000">memory</text>
</g>
<!-- Node27&#45;&gt;Node29 -->
<g id="edge45" class="edge">
<title>Node27&#45;&gt;Node29</title>
<path fill="none" stroke="#191970" d="M469.1872,-128.9005C486.7403,-117.8057 515.8394,-99.4128 536.3598,-86.4424"/>
<polygon fill="#191970" stroke="#191970" points="538.258,-89.3832 544.841,-81.0817 534.5179,-83.4661 538.258,-89.3832"/>
</g>
<!-- Node30 -->
<g id="node31" class="node">
<title>Node30</title>
<polygon fill="#ffffff" stroke="#bfbfbf" points="472,-62 472,-81 516,-81 516,-62 472,-62"/>
<text text-anchor="middle" x="494" y="-69" font-family="Helvetica,sans-Serif" font-size="10.00" fill="#000000">vector</text>
</g>
<!-- Node27&#45;&gt;Node30 -->
<g id="edge47" class="edge">
<title>Node27&#45;&gt;Node30</title>
<path fill="none" stroke="#191970" d="M459.731,-128.9005C465.7905,-118.751 475.4961,-102.4941 483.0341,-89.8679"/>
<polygon fill="#191970" stroke="#191970" points="486.1586,-91.462 488.2796,-81.0817 480.1483,-87.8737 486.1586,-91.462"/>
</g>
<!-- Node31&#45;&gt;Node2 -->
<g id="edge49" class="edge">
<title>Node31&#45;&gt;Node2</title>
<path fill="none" stroke="#191970" d="M271.335,-123.2967C264.2965,-113.2631 255.0423,-100.0709 247.6348,-89.5113"/>
<polygon fill="#191970" stroke="#191970" points="250.3109,-87.2316 241.7027,-81.055 244.5803,-91.2516 250.3109,-87.2316"/>
</g>
<!-- Node31&#45;&gt;Node3 -->
<g id="edge50" class="edge">
<title>Node31&#45;&gt;Node3</title>
<path fill="none" stroke="#191970" d="M280.0169,-123.4586C277.4567,-106.5781 272.1986,-78.598 263,-56 259.0561,-46.311 253.2108,-36.3041 247.8796,-28.1081"/>
<polygon fill="#191970" stroke="#191970" points="250.7148,-26.0527 242.2078,-19.7375 244.9198,-29.9794 250.7148,-26.0527"/>
</g>
<!-- Node31&#45;&gt;Node7 -->
<g id="edge53" class="edge">
<title>Node31&#45;&gt;Node7</title>
<path fill="none" stroke="#191970" d="M319.3874,-123.4308C343.4616,-113.5208 375.3164,-100.0209 403,-87 403.9814,-86.5384 404.9776,-86.0626 405.9814,-85.577"/>
<polygon fill="#191970" stroke="#191970" points="407.6392,-88.6613 415.0234,-81.0636 404.5129,-82.3982 407.6392,-88.6613"/>
</g>
<!-- Node31&#45;&gt;Node17 -->
<g id="edge51" class="edge">
<title>Node31&#45;&gt;Node17</title>
<path fill="none" stroke="#191970" d="M287.5635,-123.4879C295.6244,-104.1164 312.5474,-71.1137 339,-56 365.3774,-40.9293 812.9122,-18.0085 942.2549,-11.6731"/>
<polygon fill="#191970" stroke="#191970" points="942.5749,-15.1617 952.3924,-11.1786 942.2338,-8.17 942.5749,-15.1617"/>
</g>
<!-- Node31&#45;&gt;Node28 -->
<g id="edge52" class="edge">
<title>Node31&#45;&gt;Node28</title>
<path fill="none" stroke="#191970" d="M302.1955,-123.2967C316.466,-112.5537 335.5468,-98.1895 349.9948,-87.3129"/>
<polygon fill="#191970" stroke="#191970" points="352.4234,-89.8656 358.3076,-81.055 348.2133,-84.2731 352.4234,-89.8656"/>
</g>
</g>
</svg>
