<?xml version="1.0" encoding="UTF-8" standalone="no"?>
<!DOCTYPE svg PUBLIC "-//W3C//DTD SVG 1.1//EN"
 "http://www.w3.org/Graphics/SVG/1.1/DTD/svg11.dtd">
<!-- Generated by graphviz version 2.40.1 (20161225.0304)
 -->
<!-- Title: Graphical Class Hierarchy Pages: 1 -->
<svg width="209pt" height="66pt"
 viewBox="0.00 0.00 209.00 66.00" xmlns="http://www.w3.org/2000/svg" xmlns:xlink="http://www.w3.org/1999/xlink">
<g id="graph0" class="graph" transform="scale(1 1) rotate(0) translate(4 62)">
<title>Graphical Class Hierarchy</title>
<polygon fill="#ffffff" stroke="transparent" points="-4,4 -4,-62 205,-62 205,4 -4,4"/>
<!-- Node0 -->
<g id="node1" class="node">
<title>Node0</title>
<g id="a_node1"><a xlink:href="class_code_scanner.html" target="_top" xlink:title="Class that contains the precedures of finding the position of code and decoding the code...">
<polygon fill="#ffffff" stroke="#000000" points="0,-19.5 0,-38.5 76,-38.5 76,-19.5 0,-19.5"/>
<text text-anchor="middle" x="38" y="-26.5" font-family="Helvetica,sans-Serif" font-size="10.00" fill="#000000">CodeScanner</text>
</a>
</g>
</g>
<!-- Node1 -->
<g id="node2" class="node">
<title>Node1</title>
<g id="a_node2"><a xlink:href="class_barcode_scanner.html" target="_top" xlink:title="Class that contains the precedures of finding the position of barcode and decoding the barcode...">
<polygon fill="#ffffff" stroke="#000000" points="112,-38.5 112,-57.5 201,-57.5 201,-38.5 112,-38.5"/>
<text text-anchor="middle" x="156.5" y="-45.5" font-family="Helvetica,sans-Serif" font-size="10.00" fill="#000000">BarcodeScanner</text>
</a>
</g>
</g>
<!-- Node0&#45;&gt;Node1 -->
<g id="edge1" class="edge">
<title>Node0&#45;&gt;Node1</title>
<path fill="none" stroke="#191970" d="M86.2538,-36.7369C94.7056,-38.092 103.4667,-39.4968 111.8163,-40.8355"/>
<polygon fill="#191970" stroke="#191970" points="86.5744,-33.2437 76.1464,-35.1163 85.4662,-40.1554 86.5744,-33.2437"/>
</g>
<!-- Node2 -->
<g id="node3" class="node">
<title>Node2</title>
<g id="a_node3"><a xlink:href="class_qrcode_scanner.html" target="_top" xlink:title="Class that contains the precedures of finding the position of QR&#45;code and decoding the QR&#45;code...">
<polygon fill="#ffffff" stroke="#000000" points="114.5,-.5 114.5,-19.5 198.5,-19.5 198.5,-.5 114.5,-.5"/>
<text text-anchor="middle" x="156.5" y="-7.5" font-family="Helvetica,sans-Serif" font-size="10.00" fill="#000000">QrcodeScanner</text>
</a>
</g>
</g>
<!-- Node0&#45;&gt;Node2 -->
<g id="edge2" class="edge">
<title>Node0&#45;&gt;Node2</title>
<path fill="none" stroke="#191970" d="M86.0946,-21.2886C95.4443,-19.7895 105.1784,-18.2288 114.3198,-16.7631"/>
<polygon fill="#191970" stroke="#191970" points="85.4662,-17.8446 76.1464,-22.8837 86.5744,-24.7563 85.4662,-17.8446"/>
</g>
</g>
</svg>
