<?xml version="1.0" encoding="UTF-8" standalone="no"?>
<!DOCTYPE svg PUBLIC "-//W3C//DTD SVG 1.1//EN"
 "http://www.w3.org/Graphics/SVG/1.1/DTD/svg11.dtd">
<!-- Generated by graphviz version 2.40.1 (20161225.0304)
 -->
<!-- Title: Graphical Class Hierarchy Pages: 1 -->
<svg width="410pt" height="235pt"
 viewBox="0.00 0.00 410.00 235.00" xmlns="http://www.w3.org/2000/svg" xmlns:xlink="http://www.w3.org/1999/xlink">
<g id="graph0" class="graph" transform="scale(1 1) rotate(0) translate(4 231)">
<title>Graphical Class Hierarchy</title>
<polygon fill="#ffffff" stroke="transparent" points="-4,4 -4,-231 406,-231 406,4 -4,4"/>
<!-- Node124 -->
<g id="node1" class="node">
<title>Node124</title>
<polygon fill="#ffffff" stroke="#bfbfbf" points="0,-126 0,-145 59,-145 59,-126 0,-126"/>
<text text-anchor="middle" x="29.5" y="-133" font-family="Helvetica,sans-Serif" font-size="10.00" fill="#000000">exception</text>
</g>
<!-- Node0 -->
<g id="node2" class="node">
<title>Node0</title>
<g id="a_node2"><a xlink:href="class_generic_camera_1_1disconnected__exception.html" target="_top" xlink:title="Exception if device is is disconnected Exception specificly for device disconnection, inherits from std exeception. ">
<polygon fill="#ffffff" stroke="#000000" points="95,-142.5 95,-172.5 244,-172.5 244,-142.5 95,-142.5"/>
<text text-anchor="start" x="103" y="-160.5" font-family="Helvetica,sans-Serif" font-size="10.00" fill="#000000">GenericCamera::disconnected</text>
<text text-anchor="middle" x="169.5" y="-149.5" font-family="Helvetica,sans-Serif" font-size="10.00" fill="#000000">_exception</text>
</a>
</g>
</g>
<!-- Node124&#45;&gt;Node0 -->
<g id="edge1" class="edge">
<title>Node124&#45;&gt;Node0</title>
<path fill="none" stroke="#191970" d="M69.0771,-141.7193C77.2036,-142.9963 86.0092,-144.38 94.9143,-145.7794"/>
<polygon fill="#191970" stroke="#191970" points="69.6125,-138.2605 59.1904,-140.1656 68.5258,-145.1757 69.6125,-138.2605"/>
</g>
<!-- Node126 -->
<g id="node3" class="node">
<title>Node126</title>
<g id="a_node3"><a xlink:href="classnlohmann_1_1detail_1_1exception.html" target="_top" xlink:title="general exception of the basic_json class ">
<polygon fill="#ffffff" stroke="#000000" points="101.5,-104 101.5,-123 237.5,-123 237.5,-104 101.5,-104"/>
<text text-anchor="middle" x="169.5" y="-111" font-family="Helvetica,sans-Serif" font-size="10.00" fill="#000000">nlohmann::detail::exception</text>
</a>
</g>
</g>
<!-- Node124&#45;&gt;Node126 -->
<g id="edge2" class="edge">
<title>Node124&#45;&gt;Node126</title>
<path fill="none" stroke="#191970" d="M69.1838,-129.264C81.5741,-127.3169 95.5351,-125.1231 109.0163,-123.0046"/>
<polygon fill="#191970" stroke="#191970" points="68.5258,-125.8243 59.1904,-130.8344 69.6125,-132.7395 68.5258,-125.8243"/>
</g>
<!-- Node127 -->
<g id="node4" class="node">
<title>Node127</title>
<g id="a_node4"><a xlink:href="classnlohmann_1_1detail_1_1invalid__iterator.html" target="_top" xlink:title="exception indicating errors with iterators ">
<polygon fill="#ffffff" stroke="#000000" points="280,-196.5 280,-226.5 402,-226.5 402,-196.5 280,-196.5"/>
<text text-anchor="start" x="288" y="-214.5" font-family="Helvetica,sans-Serif" font-size="10.00" fill="#000000">nlohmann::detail::invalid</text>
<text text-anchor="middle" x="341" y="-203.5" font-family="Helvetica,sans-Serif" font-size="10.00" fill="#000000">_iterator</text>
</a>
</g>
</g>
<!-- Node126&#45;&gt;Node127 -->
<g id="edge3" class="edge">
<title>Node126&#45;&gt;Node127</title>
<path fill="none" stroke="#191970" d="M232.9869,-126.991C236.8612,-128.883 240.5729,-131.0402 244,-133.5 267.4333,-150.319 257.5499,-169.3894 280,-187.5 284.1631,-190.8584 288.8536,-193.7926 293.7376,-196.3451"/>
<polygon fill="#191970" stroke="#191970" points="234.2808,-123.738 223.7089,-123.0405 231.5384,-130.1784 234.2808,-123.738"/>
</g>
<!-- Node128 -->
<g id="node5" class="node">
<title>Node128</title>
<g id="a_node5"><a xlink:href="classnlohmann_1_1detail_1_1other__error.html" target="_top" xlink:title="exception indicating other library errors ">
<polygon fill="#ffffff" stroke="#000000" points="283,-147.5 283,-177.5 399,-177.5 399,-147.5 283,-147.5"/>
<text text-anchor="start" x="291" y="-165.5" font-family="Helvetica,sans-Serif" font-size="10.00" fill="#000000">nlohmann::detail::other</text>
<text text-anchor="middle" x="341" y="-154.5" font-family="Helvetica,sans-Serif" font-size="10.00" fill="#000000">_error</text>
</a>
</g>
</g>
<!-- Node126&#45;&gt;Node128 -->
<g id="edge4" class="edge">
<title>Node126&#45;&gt;Node128</title>
<path fill="none" stroke="#191970" d="M215.8544,-125.7267C225.1866,-128.2494 234.917,-130.9236 244,-133.5 259.5569,-137.9127 276.4599,-142.8992 291.7322,-147.4771"/>
<polygon fill="#191970" stroke="#191970" points="216.4993,-122.2759 205.9336,-123.0606 214.6825,-129.0361 216.4993,-122.2759"/>
</g>
<!-- Node129 -->
<g id="node6" class="node">
<title>Node129</title>
<g id="a_node6"><a xlink:href="classnlohmann_1_1detail_1_1out__of__range.html" target="_top" xlink:title="exception indicating access out of the defined range ">
<polygon fill="#ffffff" stroke="#000000" points="287.5,-98.5 287.5,-128.5 394.5,-128.5 394.5,-98.5 287.5,-98.5"/>
<text text-anchor="start" x="295.5" y="-116.5" font-family="Helvetica,sans-Serif" font-size="10.00" fill="#000000">nlohmann::detail::out</text>
<text text-anchor="middle" x="341" y="-105.5" font-family="Helvetica,sans-Serif" font-size="10.00" fill="#000000">_of_range</text>
</a>
</g>
</g>
<!-- Node126&#45;&gt;Node129 -->
<g id="edge5" class="edge">
<title>Node126&#45;&gt;Node129</title>
<path fill="none" stroke="#191970" d="M247.9395,-113.5C261.3221,-113.5 274.944,-113.5 287.4885,-113.5"/>
<polygon fill="#191970" stroke="#191970" points="247.7742,-110.0001 237.7741,-113.5 247.7741,-117.0001 247.7742,-110.0001"/>
</g>
<!-- Node130 -->
<g id="node7" class="node">
<title>Node130</title>
<g id="a_node7"><a xlink:href="classnlohmann_1_1detail_1_1parse__error.html" target="_top" xlink:title="exception indicating a parse error ">
<polygon fill="#ffffff" stroke="#000000" points="282,-49.5 282,-79.5 400,-79.5 400,-49.5 282,-49.5"/>
<text text-anchor="start" x="290" y="-67.5" font-family="Helvetica,sans-Serif" font-size="10.00" fill="#000000">nlohmann::detail::parse</text>
<text text-anchor="middle" x="341" y="-56.5" font-family="Helvetica,sans-Serif" font-size="10.00" fill="#000000">_error</text>
</a>
</g>
</g>
<!-- Node126&#45;&gt;Node130 -->
<g id="edge6" class="edge">
<title>Node126&#45;&gt;Node130</title>
<path fill="none" stroke="#191970" d="M212.78,-101.1343C235.7427,-94.5735 264.141,-86.4597 288.3706,-79.537"/>
<polygon fill="#191970" stroke="#191970" points="211.6277,-97.8234 202.9741,-103.936 213.5508,-104.554 211.6277,-97.8234"/>
</g>
<!-- Node131 -->
<g id="node8" class="node">
<title>Node131</title>
<g id="a_node8"><a xlink:href="classnlohmann_1_1detail_1_1type__error.html" target="_top" xlink:title="exception indicating executing a member function with a wrong type ">
<polygon fill="#ffffff" stroke="#000000" points="284.5,-.5 284.5,-30.5 397.5,-30.5 397.5,-.5 284.5,-.5"/>
<text text-anchor="start" x="292.5" y="-18.5" font-family="Helvetica,sans-Serif" font-size="10.00" fill="#000000">nlohmann::detail::type</text>
<text text-anchor="middle" x="341" y="-7.5" font-family="Helvetica,sans-Serif" font-size="10.00" fill="#000000">_error</text>
</a>
</g>
</g>
<!-- Node126&#45;&gt;Node131 -->
<g id="edge7" class="edge">
<title>Node126&#45;&gt;Node131</title>
<path fill="none" stroke="#191970" d="M190.4023,-97.9041C212.077,-82.1669 247.3079,-57.7861 280,-40.5 286.6778,-36.9691 293.9668,-33.5971 301.1081,-30.5368"/>
<polygon fill="#191970" stroke="#191970" points="188.2529,-95.14 182.2575,-103.8753 192.3917,-100.7854 188.2529,-95.14"/>
</g>
</g>
</svg>
