<?xml version="1.0" encoding="UTF-8" standalone="no"?>
<!DOCTYPE svg PUBLIC "-//W3C//DTD SVG 1.1//EN"
 "http://www.w3.org/Graphics/SVG/1.1/DTD/svg11.dtd">
<!-- Generated by graphviz version 2.40.1 (20161225.0304)
 -->
<!-- Title: /home/bdn_jz/bdn_jz/camera&#45;tracker&#45;cpp/CameraTrackerLinux/include/nlohmann/detail/input/input_adapters.hpp Pages: 1 -->
<!--zoomable 717 -->
<svg id="main" version="1.1" xmlns="http://www.w3.org/2000/svg" xmlns:xlink="http://www.w3.org/1999/xlink" xml:space="preserve" onload="init(evt)">
<style type="text/css"><![CDATA[
.edge:hover path { stroke: red; }
.edge:hover polygon { stroke: red; fill: red; }
]]></style>
<script type="text/javascript"><![CDATA[
var edges = document.getElementsByTagName('g');
if (edges && edges.length) {
  for (var i=0;i<edges.length;i++) {
    if (edges[i].id.substr(0,4)=='edge') {
      edges[i].setAttribute('class','edge');
    }
  }
}
]]></script>
        <defs>
                <circle id="rim" cx="0" cy="0" r="7"/>
                <circle id="rim2" cx="0" cy="0" r="3.5"/>
                <g id="zoomPlus">
                        <use xlink:href="#rim" target="_top" fill="#404040">
                                <set attributeName="fill" to="#808080" begin="zoomplus.mouseover" end="zoomplus.mouseout"/>
                        </use>
                        <path d="M-4,0h8M0,-4v8" fill="none" stroke="white" stroke-width="1.5" pointer-events="none"/>
                </g>
                <g id="zoomMin">
                        <use xlink:href="#rim" target="_top" fill="#404040">
                                <set attributeName="fill" to="#808080" begin="zoomminus.mouseover" end="zoomminus.mouseout"/>
                        </use>
                        <path d="M-4,0h8" fill="none" stroke="white" stroke-width="1.5" pointer-events="none"/>
                </g>
                <g id="dirArrow">
                        <path fill="none" stroke="white" stroke-width="1.5" d="M0,-3.0v7 M-2.5,-0.5L0,-3.0L2.5,-0.5"/>
                </g>
               <g id="resetDef">
                       <use xlink:href="#rim2" target="_top" fill="#404040">
                               <set attributeName="fill" to="#808080" begin="reset.mouseover" end="reset.mouseout"/>
                       </use>
               </g>
        </defs>

<script type="text/javascript">
var viewWidth = 551;
var viewHeight = 717;
var sectionId = 'dynsection-1';
</script>
<script xlink:href="svgpan.js" target="_top"/>
<svg id="graph" class="graph">
<g id="viewport">
<title>/home/bdn_jz/bdn_jz/camera&#45;tracker&#45;cpp/CameraTrackerLinux/include/nlohmann/detail/input/input_adapters.hpp</title>
<polygon fill="#ffffff" stroke="transparent" points="-4,4 -4,-713 547,-713 547,4 -4,4"/>
<!-- Node20 -->
<g id="node1" class="node">
<title>Node20</title>
<polygon fill="#bfbfbf" stroke="#000000" points="197.5,-645.5 197.5,-708.5 341.5,-708.5 341.5,-645.5 197.5,-645.5"/>
<text text-anchor="start" x="205.5" y="-696.5" font-family="Helvetica,sans-Serif" font-size="10.00" fill="#000000">/home/bdn_jz/bdn_jz</text>
<text text-anchor="start" x="205.5" y="-685.5" font-family="Helvetica,sans-Serif" font-size="10.00" fill="#000000">/camera&#45;tracker&#45;cpp</text>
<text text-anchor="start" x="205.5" y="-674.5" font-family="Helvetica,sans-Serif" font-size="10.00" fill="#000000">/CameraTrackerLinux/include</text>
<text text-anchor="start" x="205.5" y="-663.5" font-family="Helvetica,sans-Serif" font-size="10.00" fill="#000000">/nlohmann/detail/input/input</text>
<text text-anchor="middle" x="269.5" y="-652.5" font-family="Helvetica,sans-Serif" font-size="10.00" fill="#000000">_adapters.hpp</text>
</g>
<!-- Node21 -->
<g id="node2" class="node">
<title>Node21</title>
<g id="a_node2"><a xlink:href="json_8hpp.html" target="_top" target="_top" xlink:title="/home/bdn_jz/bdn_jz\l/camera&#45;tracker&#45;cpp\l/CameraTrackerLinux/include\l/nlohmann/json.hpp">
<polygon fill="#ffffff" stroke="#000000" points="104.5,-267.5 104.5,-319.5 248.5,-319.5 248.5,-267.5 104.5,-267.5"/>
<text text-anchor="start" x="112.5" y="-307.5" font-family="Helvetica,sans-Serif" font-size="10.00" fill="#000000">/home/bdn_jz/bdn_jz</text>
<text text-anchor="start" x="112.5" y="-296.5" font-family="Helvetica,sans-Serif" font-size="10.00" fill="#000000">/camera&#45;tracker&#45;cpp</text>
<text text-anchor="start" x="112.5" y="-285.5" font-family="Helvetica,sans-Serif" font-size="10.00" fill="#000000">/CameraTrackerLinux/include</text>
<text text-anchor="middle" x="176.5" y="-274.5" font-family="Helvetica,sans-Serif" font-size="10.00" fill="#000000">/nlohmann/json.hpp</text>
</a>
</g>
</g>
<!-- Node20&#45;&gt;Node21 -->
<g id="edge1" class="edge">
<title>Node20&#45;&gt;Node21</title>
<path fill="none" stroke="#191970" d="M187.5245,-661.1558C156.6029,-651.166 123.7913,-635.0117 102.5,-609 31.2579,-521.9631 39.9974,-453.2539 96.5,-356 104.8227,-341.6747 117.8196,-329.4429 130.9359,-319.6986"/>
<polygon fill="#191970" stroke="#191970" points="186.8947,-664.6226 197.4806,-664.1873 188.9337,-657.9261 186.8947,-664.6226"/>
</g>
<!-- Node27 -->
<g id="node8" class="node">
<title>Node27</title>
<g id="a_node8"><a xlink:href="binary__reader_8hpp.html" target="_top" target="_top" xlink:title="/home/bdn_jz/bdn_jz\l/camera&#45;tracker&#45;cpp\l/CameraTrackerLinux/include\l/nlohmann/detail/input/binary\l_reader.hpp">
<polygon fill="#ffffff" stroke="#000000" points="111.5,-545.5 111.5,-608.5 255.5,-608.5 255.5,-545.5 111.5,-545.5"/>
<text text-anchor="start" x="119.5" y="-596.5" font-family="Helvetica,sans-Serif" font-size="10.00" fill="#000000">/home/bdn_jz/bdn_jz</text>
<text text-anchor="start" x="119.5" y="-585.5" font-family="Helvetica,sans-Serif" font-size="10.00" fill="#000000">/camera&#45;tracker&#45;cpp</text>
<text text-anchor="start" x="119.5" y="-574.5" font-family="Helvetica,sans-Serif" font-size="10.00" fill="#000000">/CameraTrackerLinux/include</text>
<text text-anchor="start" x="119.5" y="-563.5" font-family="Helvetica,sans-Serif" font-size="10.00" fill="#000000">/nlohmann/detail/input/binary</text>
<text text-anchor="middle" x="183.5" y="-552.5" font-family="Helvetica,sans-Serif" font-size="10.00" fill="#000000">_reader.hpp</text>
</a>
</g>
</g>
<!-- Node20&#45;&gt;Node27 -->
<g id="edge8" class="edge">
<title>Node20&#45;&gt;Node27</title>
<path fill="none" stroke="#191970" d="M235.5375,-637.5088C227.3383,-627.9748 218.68,-617.907 210.8291,-608.778"/>
<polygon fill="#191970" stroke="#191970" points="233.115,-640.0596 242.2891,-645.3594 238.4223,-635.4954 233.115,-640.0596"/>
</g>
<!-- Node30 -->
<g id="node11" class="node">
<title>Node30</title>
<g id="a_node11"><a xlink:href="lexer_8hpp.html" target="_top" target="_top" xlink:title="/home/bdn_jz/bdn_jz\l/camera&#45;tracker&#45;cpp\l/CameraTrackerLinux/include\l/nlohmann/detail/input/lexer.hpp">
<polygon fill="#ffffff" stroke="#000000" points="276,-551 276,-603 431,-603 431,-551 276,-551"/>
<text text-anchor="start" x="284" y="-591" font-family="Helvetica,sans-Serif" font-size="10.00" fill="#000000">/home/bdn_jz/bdn_jz</text>
<text text-anchor="start" x="284" y="-580" font-family="Helvetica,sans-Serif" font-size="10.00" fill="#000000">/camera&#45;tracker&#45;cpp</text>
<text text-anchor="start" x="284" y="-569" font-family="Helvetica,sans-Serif" font-size="10.00" fill="#000000">/CameraTrackerLinux/include</text>
<text text-anchor="middle" x="353.5" y="-558" font-family="Helvetica,sans-Serif" font-size="10.00" fill="#000000">/nlohmann/detail/input/lexer.hpp</text>
</a>
</g>
</g>
<!-- Node20&#45;&gt;Node30 -->
<g id="edge14" class="edge">
<title>Node20&#45;&gt;Node30</title>
<path fill="none" stroke="#191970" d="M302.6726,-637.5088C312.3896,-625.9409 322.7668,-613.5871 331.5945,-603.078"/>
<polygon fill="#191970" stroke="#191970" points="299.8301,-635.4511 296.0781,-645.3594 305.1901,-639.9535 299.8301,-635.4511"/>
</g>
<!-- Node31 -->
<g id="node12" class="node">
<title>Node31</title>
<g id="a_node12"><a xlink:href="parser_8hpp.html" target="_top" target="_top" xlink:title="/home/bdn_jz/bdn_jz\l/camera&#45;tracker&#45;cpp\l/CameraTrackerLinux/include\l/nlohmann/detail/input/parser.hpp">
<polygon fill="#ffffff" stroke="#000000" points="382,-451 382,-503 543,-503 543,-451 382,-451"/>
<text text-anchor="start" x="390" y="-491" font-family="Helvetica,sans-Serif" font-size="10.00" fill="#000000">/home/bdn_jz/bdn_jz</text>
<text text-anchor="start" x="390" y="-480" font-family="Helvetica,sans-Serif" font-size="10.00" fill="#000000">/camera&#45;tracker&#45;cpp</text>
<text text-anchor="start" x="390" y="-469" font-family="Helvetica,sans-Serif" font-size="10.00" fill="#000000">/CameraTrackerLinux/include</text>
<text text-anchor="middle" x="462.5" y="-458" font-family="Helvetica,sans-Serif" font-size="10.00" fill="#000000">/nlohmann/detail/input/parser.hpp</text>
</a>
</g>
</g>
<!-- Node20&#45;&gt;Node31 -->
<g id="edge18" class="edge">
<title>Node20&#45;&gt;Node31</title>
<path fill="none" stroke="#191970" d="M351.6912,-662.4751C383.9787,-652.6538 418.5057,-636.2693 440.5,-609 464.7851,-578.8906 466.7867,-532.1099 465.2181,-503.0801"/>
<polygon fill="#191970" stroke="#191970" points="350.4104,-659.2011 341.7592,-665.3172 352.3362,-665.931 350.4104,-659.2011"/>
</g>
<!-- Node22 -->
<g id="node3" class="node">
<title>Node22</title>
<g id="a_node3"><a xlink:href="_json_utilization_8h.html" target="_top" target="_top" xlink:title="This file contains the declaration of the namespace jsonUtilization. ">
<polygon fill="#ffffff" stroke="#000000" points="104.5,-178.5 104.5,-230.5 248.5,-230.5 248.5,-178.5 104.5,-178.5"/>
<text text-anchor="start" x="112.5" y="-218.5" font-family="Helvetica,sans-Serif" font-size="10.00" fill="#000000">/home/bdn_jz/bdn_jz</text>
<text text-anchor="start" x="112.5" y="-207.5" font-family="Helvetica,sans-Serif" font-size="10.00" fill="#000000">/camera&#45;tracker&#45;cpp</text>
<text text-anchor="start" x="112.5" y="-196.5" font-family="Helvetica,sans-Serif" font-size="10.00" fill="#000000">/CameraTrackerLinux/include</text>
<text text-anchor="middle" x="176.5" y="-185.5" font-family="Helvetica,sans-Serif" font-size="10.00" fill="#000000">/JsonUtilization.h</text>
</a>
</g>
</g>
<!-- Node21&#45;&gt;Node22 -->
<g id="edge2" class="edge">
<title>Node21&#45;&gt;Node22</title>
<path fill="none" stroke="#191970" d="M176.5,-257.1155C176.5,-248.2061 176.5,-238.8475 176.5,-230.5341"/>
<polygon fill="#191970" stroke="#191970" points="173.0001,-257.2784 176.5,-267.2784 180.0001,-257.2785 173.0001,-257.2784"/>
</g>
<!-- Node23 -->
<g id="node4" class="node">
<title>Node23</title>
<g id="a_node4"><a xlink:href="_pose_estimation_8h.html" target="_top" target="_top" xlink:title="This file contains the declaration of the PoseEstimation class. ">
<polygon fill="#ffffff" stroke="#000000" points="104.5,-89.5 104.5,-141.5 248.5,-141.5 248.5,-89.5 104.5,-89.5"/>
<text text-anchor="start" x="112.5" y="-129.5" font-family="Helvetica,sans-Serif" font-size="10.00" fill="#000000">/home/bdn_jz/bdn_jz</text>
<text text-anchor="start" x="112.5" y="-118.5" font-family="Helvetica,sans-Serif" font-size="10.00" fill="#000000">/camera&#45;tracker&#45;cpp</text>
<text text-anchor="start" x="112.5" y="-107.5" font-family="Helvetica,sans-Serif" font-size="10.00" fill="#000000">/CameraTrackerLinux/include</text>
<text text-anchor="middle" x="176.5" y="-96.5" font-family="Helvetica,sans-Serif" font-size="10.00" fill="#000000">/PoseEstimation.h</text>
</a>
</g>
</g>
<!-- Node22&#45;&gt;Node23 -->
<g id="edge3" class="edge">
<title>Node22&#45;&gt;Node23</title>
<path fill="none" stroke="#191970" d="M176.5,-168.1155C176.5,-159.2061 176.5,-149.8475 176.5,-141.5341"/>
<polygon fill="#191970" stroke="#191970" points="173.0001,-168.2784 176.5,-178.2784 180.0001,-168.2785 173.0001,-168.2784"/>
</g>
<!-- Node24 -->
<g id="node5" class="node">
<title>Node24</title>
<g id="a_node5"><a xlink:href="main_8cpp.html" target="_top" target="_top" xlink:title="/home/bdn_jz/bdn_jz\l/camera&#45;tracker&#45;cpp\l/CameraTrackerLinux/main.cpp">
<polygon fill="#ffffff" stroke="#000000" points="0,-6 0,-47 153,-47 153,-6 0,-6"/>
<text text-anchor="start" x="8" y="-35" font-family="Helvetica,sans-Serif" font-size="10.00" fill="#000000">/home/bdn_jz/bdn_jz</text>
<text text-anchor="start" x="8" y="-24" font-family="Helvetica,sans-Serif" font-size="10.00" fill="#000000">/camera&#45;tracker&#45;cpp</text>
<text text-anchor="middle" x="76.5" y="-13" font-family="Helvetica,sans-Serif" font-size="10.00" fill="#000000">/CameraTrackerLinux/main.cpp</text>
</a>
</g>
</g>
<!-- Node22&#45;&gt;Node24 -->
<g id="edge6" class="edge">
<title>Node22&#45;&gt;Node24</title>
<path fill="none" stroke="#191970" d="M122.4869,-172.0704C112.0858,-163.5125 102.3214,-153.4232 95.5,-142 77.8921,-112.5138 75.2518,-71.623 75.4908,-47.2355"/>
<polygon fill="#191970" stroke="#191970" points="120.4816,-174.9445 130.5267,-178.313 124.7747,-169.4155 120.4816,-174.9445"/>
</g>
<!-- Node26 -->
<g id="node7" class="node">
<title>Node26</title>
<g id="a_node7"><a xlink:href="_json_utilization_8cpp.html" target="_top" target="_top" xlink:title="/home/bdn_jz/bdn_jz\l/camera&#45;tracker&#45;cpp\l/CameraTrackerLinux/src\l/JsonUtilization.cpp">
<polygon fill="#ffffff" stroke="#000000" points="267,-89.5 267,-141.5 394,-141.5 394,-89.5 267,-89.5"/>
<text text-anchor="start" x="275" y="-129.5" font-family="Helvetica,sans-Serif" font-size="10.00" fill="#000000">/home/bdn_jz/bdn_jz</text>
<text text-anchor="start" x="275" y="-118.5" font-family="Helvetica,sans-Serif" font-size="10.00" fill="#000000">/camera&#45;tracker&#45;cpp</text>
<text text-anchor="start" x="275" y="-107.5" font-family="Helvetica,sans-Serif" font-size="10.00" fill="#000000">/CameraTrackerLinux/src</text>
<text text-anchor="middle" x="330.5" y="-96.5" font-family="Helvetica,sans-Serif" font-size="10.00" fill="#000000">/JsonUtilization.cpp</text>
</a>
</g>
</g>
<!-- Node22&#45;&gt;Node26 -->
<g id="edge7" class="edge">
<title>Node22&#45;&gt;Node26</title>
<path fill="none" stroke="#191970" d="M231.0074,-172.9989C248.8274,-162.7004 268.4091,-151.3837 285.4521,-141.5341"/>
<polygon fill="#191970" stroke="#191970" points="228.779,-170.2443 221.8721,-178.2784 232.2816,-176.305 228.779,-170.2443"/>
</g>
<!-- Node23&#45;&gt;Node24 -->
<g id="edge4" class="edge">
<title>Node23&#45;&gt;Node24</title>
<path fill="none" stroke="#191970" d="M139.3953,-82.4768C126.1068,-70.6501 111.514,-57.6625 99.7327,-47.1771"/>
<polygon fill="#191970" stroke="#191970" points="137.2407,-85.2446 147.0376,-89.2784 141.8945,-80.0156 137.2407,-85.2446"/>
</g>
<!-- Node25 -->
<g id="node6" class="node">
<title>Node25</title>
<g id="a_node6"><a xlink:href="_pose_estimation_8cpp.html" target="_top" target="_top" xlink:title="/home/bdn_jz/bdn_jz\l/camera&#45;tracker&#45;cpp\l/CameraTrackerLinux/src\l/PoseEstimation.cpp">
<polygon fill="#ffffff" stroke="#000000" points="171,-.5 171,-52.5 298,-52.5 298,-.5 171,-.5"/>
<text text-anchor="start" x="179" y="-40.5" font-family="Helvetica,sans-Serif" font-size="10.00" fill="#000000">/home/bdn_jz/bdn_jz</text>
<text text-anchor="start" x="179" y="-29.5" font-family="Helvetica,sans-Serif" font-size="10.00" fill="#000000">/camera&#45;tracker&#45;cpp</text>
<text text-anchor="start" x="179" y="-18.5" font-family="Helvetica,sans-Serif" font-size="10.00" fill="#000000">/CameraTrackerLinux/src</text>
<text text-anchor="middle" x="234.5" y="-7.5" font-family="Helvetica,sans-Serif" font-size="10.00" fill="#000000">/PoseEstimation.cpp</text>
</a>
</g>
</g>
<!-- Node23&#45;&gt;Node25 -->
<g id="edge5" class="edge">
<title>Node23&#45;&gt;Node25</title>
<path fill="none" stroke="#191970" d="M199.0793,-80.8525C205.219,-71.4313 211.7629,-61.3897 217.5339,-52.5341"/>
<polygon fill="#191970" stroke="#191970" points="196.1158,-78.9895 193.5882,-89.2784 201.9804,-82.8114 196.1158,-78.9895"/>
</g>
<!-- Node27&#45;&gt;Node21 -->
<g id="edge9" class="edge">
<title>Node27&#45;&gt;Node21</title>
<path fill="none" stroke="#191970" d="M122.7456,-538.4454C113.735,-529.9016 105.7314,-520.0489 100.5,-509 70.9509,-446.5913 95.6305,-417.2563 127.5,-356 134.1818,-343.1569 143.6256,-330.3349 152.4417,-319.6773"/>
<polygon fill="#191970" stroke="#191970" points="120.7024,-541.3107 130.5127,-545.3118 125.3388,-536.0662 120.7024,-541.3107"/>
</g>
<!-- Node28 -->
<g id="node9" class="node">
<title>Node28</title>
<g id="a_node9"><a xlink:href="binary__writer_8hpp.html" target="_top" target="_top" xlink:title="/home/bdn_jz/bdn_jz\l/camera&#45;tracker&#45;cpp\l/CameraTrackerLinux/include\l/nlohmann/detail/output/binary\l_writer.hpp">
<polygon fill="#ffffff" stroke="#000000" points="110,-445.5 110,-508.5 257,-508.5 257,-445.5 110,-445.5"/>
<text text-anchor="start" x="118" y="-496.5" font-family="Helvetica,sans-Serif" font-size="10.00" fill="#000000">/home/bdn_jz/bdn_jz</text>
<text text-anchor="start" x="118" y="-485.5" font-family="Helvetica,sans-Serif" font-size="10.00" fill="#000000">/camera&#45;tracker&#45;cpp</text>
<text text-anchor="start" x="118" y="-474.5" font-family="Helvetica,sans-Serif" font-size="10.00" fill="#000000">/CameraTrackerLinux/include</text>
<text text-anchor="start" x="118" y="-463.5" font-family="Helvetica,sans-Serif" font-size="10.00" fill="#000000">/nlohmann/detail/output/binary</text>
<text text-anchor="middle" x="183.5" y="-452.5" font-family="Helvetica,sans-Serif" font-size="10.00" fill="#000000">_writer.hpp</text>
</a>
</g>
</g>
<!-- Node27&#45;&gt;Node28 -->
<g id="edge10" class="edge">
<title>Node27&#45;&gt;Node28</title>
<path fill="none" stroke="#191970" d="M183.5,-535.2111C183.5,-526.37 183.5,-517.1767 183.5,-508.778"/>
<polygon fill="#191970" stroke="#191970" points="180.0001,-535.3593 183.5,-545.3594 187.0001,-535.3594 180.0001,-535.3593"/>
</g>
<!-- Node28&#45;&gt;Node21 -->
<g id="edge11" class="edge">
<title>Node28&#45;&gt;Node21</title>
<path fill="none" stroke="#191970" d="M150.6823,-436.7642C145.2556,-428.0803 140.4443,-418.6073 137.5,-409 130.5978,-386.4784 131.0143,-378.6451 137.5,-356 141.1976,-343.0897 148.4229,-330.2556 155.6601,-319.6071"/>
<polygon fill="#191970" stroke="#191970" points="147.815,-438.7732 156.2677,-445.1608 153.6433,-434.8962 147.815,-438.7732"/>
</g>
<!-- Node29 -->
<g id="node10" class="node">
<title>Node29</title>
<g id="a_node10"><a xlink:href="serializer_8hpp.html" target="_top" target="_top" xlink:title="/home/bdn_jz/bdn_jz\l/camera&#45;tracker&#45;cpp\l/CameraTrackerLinux/include\l/nlohmann/detail/output/serializer.hpp">
<polygon fill="#ffffff" stroke="#000000" points="146,-356.5 146,-408.5 325,-408.5 325,-356.5 146,-356.5"/>
<text text-anchor="start" x="154" y="-396.5" font-family="Helvetica,sans-Serif" font-size="10.00" fill="#000000">/home/bdn_jz/bdn_jz</text>
<text text-anchor="start" x="154" y="-385.5" font-family="Helvetica,sans-Serif" font-size="10.00" fill="#000000">/camera&#45;tracker&#45;cpp</text>
<text text-anchor="start" x="154" y="-374.5" font-family="Helvetica,sans-Serif" font-size="10.00" fill="#000000">/CameraTrackerLinux/include</text>
<text text-anchor="middle" x="235.5" y="-363.5" font-family="Helvetica,sans-Serif" font-size="10.00" fill="#000000">/nlohmann/detail/output/serializer.hpp</text>
</a>
</g>
</g>
<!-- Node28&#45;&gt;Node29 -->
<g id="edge12" class="edge">
<title>Node28&#45;&gt;Node29</title>
<path fill="none" stroke="#191970" d="M205.8346,-436.4112C211.0109,-427.0043 216.3849,-417.238 221.1138,-408.6442"/>
<polygon fill="#191970" stroke="#191970" points="202.7145,-434.8214 200.9599,-445.27 208.8473,-438.1961 202.7145,-434.8214"/>
</g>
<!-- Node29&#45;&gt;Node21 -->
<g id="edge13" class="edge">
<title>Node29&#45;&gt;Node21</title>
<path fill="none" stroke="#191970" d="M212.5314,-347.8525C206.2859,-338.4313 199.6291,-328.3897 193.7586,-319.5341"/>
<polygon fill="#191970" stroke="#191970" points="209.6745,-349.8774 218.1172,-356.2784 215.509,-346.0096 209.6745,-349.8774"/>
</g>
<!-- Node30&#45;&gt;Node21 -->
<g id="edge15" class="edge">
<title>Node30&#45;&gt;Node21</title>
<path fill="none" stroke="#191970" d="M361.1128,-540.6837C368.8595,-493.2729 374.6924,-409.9896 334.5,-356 314.1546,-328.6706 280.0059,-313.2794 248.6507,-304.6172"/>
<polygon fill="#191970" stroke="#191970" points="357.6193,-540.3431 359.3414,-550.797 364.5143,-541.5508 357.6193,-540.3431"/>
</g>
<!-- Node30&#45;&gt;Node31 -->
<g id="edge16" class="edge">
<title>Node30&#45;&gt;Node31</title>
<path fill="none" stroke="#191970" d="M389.2241,-544.2256C403.7191,-530.9274 420.2328,-515.7773 433.9094,-503.2299"/>
<polygon fill="#191970" stroke="#191970" points="386.8566,-541.6478 381.8539,-550.9872 391.5888,-546.806 386.8566,-541.6478"/>
</g>
<!-- Node31&#45;&gt;Node21 -->
<g id="edge17" class="edge">
<title>Node31&#45;&gt;Node21</title>
<path fill="none" stroke="#191970" d="M442.9552,-442.0583C426.1754,-415.0168 399.6407,-378.4981 367.5,-356 332.1999,-331.2904 286.5073,-315.876 248.6647,-306.5391"/>
<polygon fill="#191970" stroke="#191970" points="440.0933,-444.0892 448.2658,-450.8317 446.0816,-440.4644 440.0933,-444.0892"/>
</g>
</g>
</svg>
        <g id="navigator" transform="translate(0 0)" fill="#404254">
                <rect fill="#f2f5e9" fill-opacity="0.5" stroke="#606060" stroke-width=".5" x="0" y="0" width="60" height="60"/>
                <use id="zoomplus" xlink:href="#zoomPlus" target="_top" x="17" y="9" onmousedown="handleZoom(evt,'in')"/>
                <use id="zoomminus" xlink:href="#zoomMin" target="_top" x="42" y="9" onmousedown="handleZoom(evt,'out')"/>
                <use id="reset" xlink:href="#resetDef" target="_top" x="30" y="36" onmousedown="handleReset()"/>
                <g id="arrowUp" xlink:href="#dirArrow" target="_top" transform="translate(30 24)" onmousedown="handlePan(0,-1)">
                  <use xlink:href="#rim" target="_top" fill="#404040">
                        <set attributeName="fill" to="#808080" begin="arrowUp.mouseover" end="arrowUp.mouseout"/>
                  </use>
                  <path fill="none" stroke="white" stroke-width="1.5" d="M0,-3.0v7 M-2.5,-0.5L0,-3.0L2.5,-0.5"/>
                </g>
                <g id="arrowRight" xlink:href="#dirArrow" target="_top" transform="rotate(90) translate(36 -43)" onmousedown="handlePan(1,0)">
                  <use xlink:href="#rim" target="_top" fill="#404040">
                        <set attributeName="fill" to="#808080" begin="arrowRight.mouseover" end="arrowRight.mouseout"/>
                  </use>
                  <path fill="none" stroke="white" stroke-width="1.5" d="M0,-3.0v7 M-2.5,-0.5L0,-3.0L2.5,-0.5"/>
                </g>
                <g id="arrowDown" xlink:href="#dirArrow" target="_top" transform="rotate(180) translate(-30 -48)" onmousedown="handlePan(0,1)">
                  <use xlink:href="#rim" target="_top" fill="#404040">
                        <set attributeName="fill" to="#808080" begin="arrowDown.mouseover" end="arrowDown.mouseout"/>
                  </use>
                  <path fill="none" stroke="white" stroke-width="1.5" d="M0,-3.0v7 M-2.5,-0.5L0,-3.0L2.5,-0.5"/>
                </g>
                <g id="arrowLeft" xlink:href="#dirArrow" target="_top" transform="rotate(270) translate(-36 17)" onmousedown="handlePan(-1,0)">
                  <use xlink:href="#rim" target="_top" fill="#404040">
                        <set attributeName="fill" to="#808080" begin="arrowLeft.mouseover" end="arrowLeft.mouseout"/>
                  </use>
                  <path fill="none" stroke="white" stroke-width="1.5" d="M0,-3.0v7 M-2.5,-0.5L0,-3.0L2.5,-0.5"/>
                </g>
        </g>
        <svg viewBox="0 0 15 15" width="100%" height="30px" preserveAspectRatio="xMaxYMin meet">
         <g id="arrow_out" transform="scale(0.3 0.3)">
          <a xlink:href="input__adapters_8hpp__dep__incl_org.svg" target="_top" target="_base">
           <rect id="button" ry="5" rx="5" y="6" x="6" height="38" width="38"
                fill="#f2f5e9" fill-opacity="0.5" stroke="#606060" stroke-width="1.0"/>
           <path id="arrow"
             d="M 11.500037,31.436501 C 11.940474,20.09759 22.043105,11.32322 32.158766,21.979434 L 37.068811,17.246167 C 37.068811,17.246167 37.088388,32 37.088388,32 L 22.160133,31.978069 C 22.160133,31.978069 26.997745,27.140456 26.997745,27.140456 C 18.528582,18.264221 13.291696,25.230495 11.500037,31.436501 z"
             style="fill:#404040;"/>
          </a>
         </g>
        </svg>
</svg>
