<?xml version="1.0" encoding="UTF-8" standalone="no"?>
<!DOCTYPE svg PUBLIC "-//W3C//DTD SVG 1.1//EN"
 "http://www.w3.org/Graphics/SVG/1.1/DTD/svg11.dtd">
<!-- Generated by graphviz version 2.40.1 (20161225.0304)
 -->
<!-- Title: /home/bdn_jz/bdn_jz/camera&#45;tracker&#45;cpp/CameraTrackerLinux/include/nlohmann/detail/input/input_adapters.hpp Pages: 1 -->
<!--zoomable 262 -->
<svg id="main" version="1.1" xmlns="http://www.w3.org/2000/svg" xmlns:xlink="http://www.w3.org/1999/xlink" xml:space="preserve" onload="init(evt)">
<style type="text/css"><![CDATA[
.edge:hover path { stroke: red; }
.edge:hover polygon { stroke: red; fill: red; }
]]></style>
<script type="text/javascript"><![CDATA[
var edges = document.getElementsByTagName('g');
if (edges && edges.length) {
  for (var i=0;i<edges.length;i++) {
    if (edges[i].id.substr(0,4)=='edge') {
      edges[i].setAttribute('class','edge');
    }
  }
}
]]></script>
        <defs>
                <circle id="rim" cx="0" cy="0" r="7"/>
                <circle id="rim2" cx="0" cy="0" r="3.5"/>
                <g id="zoomPlus">
                        <use xlink:href="#rim" fill="#404040">
                                <set attributeName="fill" to="#808080" begin="zoomplus.mouseover" end="zoomplus.mouseout"/>
                        </use>
                        <path d="M-4,0h8M0,-4v8" fill="none" stroke="white" stroke-width="1.5" pointer-events="none"/>
                </g>
                <g id="zoomMin">
                        <use xlink:href="#rim" fill="#404040">
                                <set attributeName="fill" to="#808080" begin="zoomminus.mouseover" end="zoomminus.mouseout"/>
                        </use>
                        <path d="M-4,0h8" fill="none" stroke="white" stroke-width="1.5" pointer-events="none"/>
                </g>
                <g id="dirArrow">
                        <path fill="none" stroke="white" stroke-width="1.5" d="M0,-3.0v7 M-2.5,-0.5L0,-3.0L2.5,-0.5"/>
                </g>
               <g id="resetDef">
                       <use xlink:href="#rim2" fill="#404040">
                               <set attributeName="fill" to="#808080" begin="reset.mouseover" end="reset.mouseout"/>
                       </use>
               </g>
        </defs>

<script type="text/javascript">
var viewWidth = 994;
var viewHeight = 262;
var sectionId = 'dynsection-0';
</script>
<script xlink:href="svgpan.js"/>
<svg id="graph" class="graph">
<g id="viewport">
<title>/home/bdn_jz/bdn_jz/camera&#45;tracker&#45;cpp/CameraTrackerLinux/include/nlohmann/detail/input/input_adapters.hpp</title>
<polygon fill="#ffffff" stroke="transparent" points="-4,4 -4,-258 989.5,-258 989.5,4 -4,4"/>
<!-- Node0 -->
<g id="node1" class="node">
<title>Node0</title>
<polygon fill="#bfbfbf" stroke="#000000" points="361,-190.5 361,-253.5 505,-253.5 505,-190.5 361,-190.5"/>
<text text-anchor="start" x="369" y="-241.5" font-family="Helvetica,sans-Serif" font-size="10.00" fill="#000000">/home/bdn_jz/bdn_jz</text>
<text text-anchor="start" x="369" y="-230.5" font-family="Helvetica,sans-Serif" font-size="10.00" fill="#000000">/camera&#45;tracker&#45;cpp</text>
<text text-anchor="start" x="369" y="-219.5" font-family="Helvetica,sans-Serif" font-size="10.00" fill="#000000">/CameraTrackerLinux/include</text>
<text text-anchor="start" x="369" y="-208.5" font-family="Helvetica,sans-Serif" font-size="10.00" fill="#000000">/nlohmann/detail/input/input</text>
<text text-anchor="middle" x="433" y="-197.5" font-family="Helvetica,sans-Serif" font-size="10.00" fill="#000000">_adapters.hpp</text>
</g>
<!-- Node1 -->
<g id="node2" class="node">
<title>Node1</title>
<polygon fill="#ffffff" stroke="#bfbfbf" points="0,-129 0,-148 38,-148 38,-129 0,-129"/>
<text text-anchor="middle" x="19" y="-136" font-family="Helvetica,sans-Serif" font-size="10.00" fill="#000000">array</text>
</g>
<!-- Node0&#45;&gt;Node1 -->
<g id="edge1" class="edge">
<title>Node0&#45;&gt;Node1</title>
<path fill="none" stroke="#191970" d="M360.759,-216.4543C281.8183,-208.7605 152.5284,-191.3268 47,-154 45.7919,-153.5727 44.5743,-153.0966 43.3586,-152.5839"/>
<polygon fill="#191970" stroke="#191970" points="44.7903,-149.3881 34.269,-148.1422 41.717,-155.6773 44.7903,-149.3881"/>
</g>
<!-- Node2 -->
<g id="node3" class="node">
<title>Node2</title>
<polygon fill="#ffffff" stroke="#bfbfbf" points="56.5,-129 56.5,-148 105.5,-148 105.5,-129 56.5,-129"/>
<text text-anchor="middle" x="81" y="-136" font-family="Helvetica,sans-Serif" font-size="10.00" fill="#000000">cassert</text>
</g>
<!-- Node0&#45;&gt;Node2 -->
<g id="edge2" class="edge">
<title>Node0&#45;&gt;Node2</title>
<path fill="none" stroke="#191970" d="M360.9728,-209.8341C296.9713,-198.2032 201.2443,-178.786 120,-154 117.7068,-153.3004 115.3588,-152.5245 113.0079,-151.7036"/>
<polygon fill="#191970" stroke="#191970" points="114.0537,-148.3584 103.4608,-148.1548 111.6147,-154.9198 114.0537,-148.3584"/>
</g>
<!-- Node3 -->
<g id="node4" class="node">
<title>Node3</title>
<polygon fill="#ffffff" stroke="#bfbfbf" points="109.5,-.5 109.5,-19.5 158.5,-19.5 158.5,-.5 109.5,-.5"/>
<text text-anchor="middle" x="134" y="-7.5" font-family="Helvetica,sans-Serif" font-size="10.00" fill="#000000">cstddef</text>
</g>
<!-- Node0&#45;&gt;Node3 -->
<g id="edge3" class="edge">
<title>Node0&#45;&gt;Node3</title>
<path fill="none" stroke="#191970" d="M360.9569,-211.1606C294.1589,-199.7066 201.2531,-179.7415 175,-154 140.9326,-120.5965 134.6402,-61.0655 133.8071,-30.0457"/>
<polygon fill="#191970" stroke="#191970" points="137.3034,-29.6332 133.7086,-19.6669 130.3038,-29.6997 137.3034,-29.6332"/>
</g>
<!-- Node4 -->
<g id="node5" class="node">
<title>Node4</title>
<polygon fill="#ffffff" stroke="#bfbfbf" points="380.5,-129 380.5,-148 423.5,-148 423.5,-129 380.5,-129"/>
<text text-anchor="middle" x="402" y="-136" font-family="Helvetica,sans-Serif" font-size="10.00" fill="#000000">cstdio</text>
</g>
<!-- Node0&#45;&gt;Node4 -->
<g id="edge4" class="edge">
<title>Node0&#45;&gt;Node4</title>
<path fill="none" stroke="#191970" d="M421.2802,-190.4322C417.2006,-179.4435 412.7489,-167.4526 409.152,-157.7641"/>
<polygon fill="#191970" stroke="#191970" points="412.4042,-156.4678 405.6425,-148.3112 405.8418,-158.9042 412.4042,-156.4678"/>
</g>
<!-- Node5 -->
<g id="node6" class="node">
<title>Node5</title>
<polygon fill="#ffffff" stroke="#bfbfbf" points="442,-129 442,-148 488,-148 488,-129 442,-129"/>
<text text-anchor="middle" x="465" y="-136" font-family="Helvetica,sans-Serif" font-size="10.00" fill="#000000">cstring</text>
</g>
<!-- Node0&#45;&gt;Node5 -->
<g id="edge5" class="edge">
<title>Node0&#45;&gt;Node5</title>
<path fill="none" stroke="#191970" d="M445.0978,-190.4322C449.3091,-179.4435 453.9044,-167.4526 457.6173,-157.7641"/>
<polygon fill="#191970" stroke="#191970" points="460.9296,-158.9015 461.24,-148.3112 454.3932,-156.3965 460.9296,-158.9015"/>
</g>
<!-- Node6 -->
<g id="node7" class="node">
<title>Node6</title>
<polygon fill="#ffffff" stroke="#bfbfbf" points="506.5,-129 506.5,-148 555.5,-148 555.5,-129 506.5,-129"/>
<text text-anchor="middle" x="531" y="-136" font-family="Helvetica,sans-Serif" font-size="10.00" fill="#000000">istream</text>
</g>
<!-- Node0&#45;&gt;Node6 -->
<g id="edge6" class="edge">
<title>Node0&#45;&gt;Node6</title>
<path fill="none" stroke="#191970" d="M470.0496,-190.4322C484.1813,-178.3914 499.7253,-165.1473 511.579,-155.0475"/>
<polygon fill="#191970" stroke="#191970" points="514.1432,-157.4608 519.4851,-148.3112 509.6034,-152.1326 514.1432,-157.4608"/>
</g>
<!-- Node7 -->
<g id="node8" class="node">
<title>Node7</title>
<polygon fill="#ffffff" stroke="#bfbfbf" points="456.5,-62 456.5,-81 503.5,-81 503.5,-62 456.5,-62"/>
<text text-anchor="middle" x="480" y="-69" font-family="Helvetica,sans-Serif" font-size="10.00" fill="#000000">iterator</text>
</g>
<!-- Node0&#45;&gt;Node7 -->
<g id="edge7" class="edge">
<title>Node0&#45;&gt;Node7</title>
<path fill="none" stroke="#191970" d="M392.9205,-190.2917C373.3508,-170.8398 356.7825,-145.442 371,-123 371.1471,-122.7678 418.1045,-100.6325 450.3303,-85.4607"/>
<polygon fill="#191970" stroke="#191970" points="452.2332,-88.4334 459.7903,-81.0078 449.2519,-82.1 452.2332,-88.4334"/>
</g>
<!-- Node8 -->
<g id="node9" class="node">
<title>Node8</title>
<polygon fill="#ffffff" stroke="#bfbfbf" points="574,-129 574,-148 626,-148 626,-129 574,-129"/>
<text text-anchor="middle" x="600" y="-136" font-family="Helvetica,sans-Serif" font-size="10.00" fill="#000000">memory</text>
</g>
<!-- Node0&#45;&gt;Node8 -->
<g id="edge8" class="edge">
<title>Node0&#45;&gt;Node8</title>
<path fill="none" stroke="#191970" d="M496.1355,-190.4322C522.1301,-177.4349 550.929,-163.0355 571.5954,-152.7023"/>
<polygon fill="#191970" stroke="#191970" points="573.3799,-155.7232 580.7589,-148.1205 570.2494,-149.4622 573.3799,-155.7232"/>
</g>
<!-- Node9 -->
<g id="node10" class="node">
<title>Node9</title>
<polygon fill="#ffffff" stroke="#bfbfbf" points="644.5,-129 644.5,-148 695.5,-148 695.5,-129 644.5,-129"/>
<text text-anchor="middle" x="670" y="-136" font-family="Helvetica,sans-Serif" font-size="10.00" fill="#000000">numeric</text>
</g>
<!-- Node0&#45;&gt;Node9 -->
<g id="edge9" class="edge">
<title>Node0&#45;&gt;Node9</title>
<path fill="none" stroke="#191970" d="M505.0936,-199.5163C543.8979,-186.9677 592.407,-170.5599 635,-154 636.5756,-153.3874 638.1836,-152.7436 639.8021,-152.0806"/>
<polygon fill="#191970" stroke="#191970" points="641.196,-155.2913 649.0327,-148.1613 638.4602,-148.848 641.196,-155.2913"/>
</g>
<!-- Node10 -->
<g id="node11" class="node">
<title>Node10</title>
<polygon fill="#ffffff" stroke="#bfbfbf" points="713.5,-129 713.5,-148 754.5,-148 754.5,-129 713.5,-129"/>
<text text-anchor="middle" x="734" y="-136" font-family="Helvetica,sans-Serif" font-size="10.00" fill="#000000">string</text>
</g>
<!-- Node0&#45;&gt;Node10 -->
<g id="edge10" class="edge">
<title>Node0&#45;&gt;Node10</title>
<path fill="none" stroke="#191970" d="M505.1312,-208.6411C560.5435,-197.2525 638.4342,-178.7817 704,-154 705.2339,-153.5336 706.4826,-153.0295 707.734,-152.4979"/>
<polygon fill="#191970" stroke="#191970" points="709.6205,-155.4784 717.1787,-148.0538 706.6401,-149.1445 709.6205,-155.4784"/>
</g>
<!-- Node11 -->
<g id="node12" class="node">
<title>Node11</title>
<polygon fill="#ffffff" stroke="#bfbfbf" points="177,-.5 177,-19.5 239,-19.5 239,-.5 177,-.5"/>
<text text-anchor="middle" x="208" y="-7.5" font-family="Helvetica,sans-Serif" font-size="10.00" fill="#000000">type_traits</text>
</g>
<!-- Node0&#45;&gt;Node11 -->
<g id="edge11" class="edge">
<title>Node0&#45;&gt;Node11</title>
<path fill="none" stroke="#191970" d="M360.786,-211.4504C297.1985,-200.5089 211.591,-181.1744 191,-154 162.9843,-117.0271 184.1094,-58.6699 198.1464,-28.871"/>
<polygon fill="#191970" stroke="#191970" points="201.4333,-30.1196 202.7237,-19.6036 195.1571,-27.0197 201.4333,-30.1196"/>
</g>
<!-- Node12 -->
<g id="node13" class="node">
<title>Node12</title>
<polygon fill="#ffffff" stroke="#bfbfbf" points="762,-62 762,-81 802,-81 802,-62 762,-62"/>
<text text-anchor="middle" x="782" y="-69" font-family="Helvetica,sans-Serif" font-size="10.00" fill="#000000">utility</text>
</g>
<!-- Node0&#45;&gt;Node12 -->
<g id="edge12" class="edge">
<title>Node0&#45;&gt;Node12</title>
<path fill="none" stroke="#191970" d="M505.0255,-216.1598C590.8171,-207.7144 727.0714,-189.1067 763,-154 779.6188,-137.7614 782.958,-110.1181 783.0811,-91.3478"/>
<polygon fill="#191970" stroke="#191970" points="786.5775,-91.1472 782.8453,-81.2315 779.5794,-91.3104 786.5775,-91.1472"/>
</g>
<!-- Node13 -->
<g id="node14" class="node">
<title>Node13</title>
<g id="a_node14"><a xlink:href="iterator__traits_8hpp.html" target="_top" xlink:title="nlohmann/detail/iterators\l/iterator_traits.hpp">
<polygon fill="#ffffff" stroke="#000000" points="200.5,-123.5 200.5,-153.5 323.5,-153.5 323.5,-123.5 200.5,-123.5"/>
<text text-anchor="start" x="208.5" y="-141.5" font-family="Helvetica,sans-Serif" font-size="10.00" fill="#000000">nlohmann/detail/iterators</text>
<text text-anchor="middle" x="262" y="-130.5" font-family="Helvetica,sans-Serif" font-size="10.00" fill="#000000">/iterator_traits.hpp</text>
</a>
</g>
</g>
<!-- Node0&#45;&gt;Node13 -->
<g id="edge13" class="edge">
<title>Node0&#45;&gt;Node13</title>
<path fill="none" stroke="#191970" d="M368.3522,-190.4322C345.9807,-179.5081 321.5808,-167.5935 301.8015,-157.9352"/>
<polygon fill="#191970" stroke="#191970" points="303.2998,-154.7719 292.7781,-153.5291 300.2283,-161.0621 303.2998,-154.7719"/>
</g>
<!-- Node17 -->
<g id="node18" class="node">
<title>Node17</title>
<g id="a_node18"><a xlink:href="macro__scope_8hpp.html" target="_top" xlink:title="nlohmann/detail/macro\l_scope.hpp">
<polygon fill="#ffffff" stroke="#000000" points="812.5,-123.5 812.5,-153.5 927.5,-153.5 927.5,-123.5 812.5,-123.5"/>
<text text-anchor="start" x="820.5" y="-141.5" font-family="Helvetica,sans-Serif" font-size="10.00" fill="#000000">nlohmann/detail/macro</text>
<text text-anchor="middle" x="870" y="-130.5" font-family="Helvetica,sans-Serif" font-size="10.00" fill="#000000">_scope.hpp</text>
</a>
</g>
</g>
<!-- Node0&#45;&gt;Node17 -->
<g id="edge20" class="edge">
<title>Node0&#45;&gt;Node17</title>
<path fill="none" stroke="#191970" d="M505.2722,-209.0382C578.7931,-195.7257 695.9706,-174.1594 797,-154 798.7034,-153.6601 800.4285,-153.3133 802.1685,-152.9613"/>
<polygon fill="#191970" stroke="#191970" points="803.1523,-156.3326 812.2477,-150.8991 801.7491,-149.4746 803.1523,-156.3326"/>
</g>
<!-- Node13&#45;&gt;Node7 -->
<g id="edge14" class="edge">
<title>Node13&#45;&gt;Node7</title>
<path fill="none" stroke="#191970" d="M323.6456,-124.0982C360.0181,-114.9216 406.6786,-101.9615 447,-87 448.5911,-86.4096 450.211,-85.7728 451.836,-85.1059"/>
<polygon fill="#191970" stroke="#191970" points="453.286,-88.2919 461.0372,-81.069 450.4736,-81.8817 453.286,-88.2919"/>
</g>
<!-- Node14 -->
<g id="node15" class="node">
<title>Node14</title>
<g id="a_node15"><a xlink:href="void__t_8hpp.html" target="_top" xlink:title="nlohmann/detail/meta\l/void_t.hpp">
<polygon fill="#ffffff" stroke="#000000" points="328,-56.5 328,-86.5 438,-86.5 438,-56.5 328,-56.5"/>
<text text-anchor="start" x="336" y="-74.5" font-family="Helvetica,sans-Serif" font-size="10.00" fill="#000000">nlohmann/detail/meta</text>
<text text-anchor="middle" x="383" y="-63.5" font-family="Helvetica,sans-Serif" font-size="10.00" fill="#000000">/void_t.hpp</text>
</a>
</g>
</g>
<!-- Node13&#45;&gt;Node14 -->
<g id="edge15" class="edge">
<title>Node13&#45;&gt;Node14</title>
<path fill="none" stroke="#191970" d="M289.1548,-123.4639C306.0831,-114.0903 328.0767,-101.9121 346.5168,-91.7015"/>
<polygon fill="#191970" stroke="#191970" points="348.4643,-94.6239 355.5172,-86.7177 345.0734,-88.5 348.4643,-94.6239"/>
</g>
<!-- Node15 -->
<g id="node16" class="node">
<title>Node15</title>
<g id="a_node16"><a xlink:href="cpp__future_8hpp.html" target="_top" xlink:title="nlohmann/detail/meta\l/cpp_future.hpp">
<polygon fill="#ffffff" stroke="#000000" points="200,-56.5 200,-86.5 310,-86.5 310,-56.5 200,-56.5"/>
<text text-anchor="start" x="208" y="-74.5" font-family="Helvetica,sans-Serif" font-size="10.00" fill="#000000">nlohmann/detail/meta</text>
<text text-anchor="middle" x="255" y="-63.5" font-family="Helvetica,sans-Serif" font-size="10.00" fill="#000000">/cpp_future.hpp</text>
</a>
</g>
</g>
<!-- Node13&#45;&gt;Node15 -->
<g id="edge16" class="edge">
<title>Node13&#45;&gt;Node15</title>
<path fill="none" stroke="#191970" d="M260.4116,-123.2967C259.5882,-115.4156 258.5612,-105.5857 257.6238,-96.6135"/>
<polygon fill="#191970" stroke="#191970" points="261.1024,-96.2253 256.5821,-86.6432 254.1403,-96.9528 261.1024,-96.2253"/>
</g>
<!-- Node15&#45;&gt;Node3 -->
<g id="edge18" class="edge">
<title>Node15&#45;&gt;Node3</title>
<path fill="none" stroke="#191970" d="M225.4001,-56.4554C206.0078,-46.599 180.8258,-33.7999 161.8057,-24.1327"/>
<polygon fill="#191970" stroke="#191970" points="163.2512,-20.9412 152.7507,-19.5303 160.0795,-27.1815 163.2512,-20.9412"/>
</g>
<!-- Node15&#45;&gt;Node11 -->
<g id="edge19" class="edge">
<title>Node15&#45;&gt;Node11</title>
<path fill="none" stroke="#191970" d="M243.382,-56.2977C236.79,-47.672 228.5052,-36.8312 221.6099,-27.8087"/>
<polygon fill="#191970" stroke="#191970" points="224.3783,-25.6671 215.5253,-19.8469 218.8165,-29.9176 224.3783,-25.6671"/>
</g>
<!-- Node16 -->
<g id="node17" class="node">
<title>Node16</title>
<polygon fill="#ffffff" stroke="#bfbfbf" points="257,-.5 257,-19.5 307,-19.5 307,-.5 257,-.5"/>
<text text-anchor="middle" x="282" y="-7.5" font-family="Helvetica,sans-Serif" font-size="10.00" fill="#000000">ciso646</text>
</g>
<!-- Node15&#45;&gt;Node16 -->
<g id="edge17" class="edge">
<title>Node15&#45;&gt;Node16</title>
<path fill="none" stroke="#191970" d="M261.6742,-56.2977C265.2659,-48.1166 269.7324,-37.943 273.5629,-29.2179"/>
<polygon fill="#191970" stroke="#191970" points="276.8618,-30.4104 277.677,-19.8469 270.4522,-27.5964 276.8618,-30.4104"/>
</g>
<!-- Node17&#45;&gt;Node12 -->
<g id="edge21" class="edge">
<title>Node17&#45;&gt;Node12</title>
<path fill="none" stroke="#191970" d="M850.0314,-123.2967C835.9213,-112.5537 817.0549,-98.1895 802.7692,-87.3129"/>
<polygon fill="#191970" stroke="#191970" points="804.6264,-84.328 794.5498,-81.055 800.386,-89.8975 804.6264,-84.328"/>
</g>
<!-- Node18 -->
<g id="node19" class="node">
<title>Node18</title>
<polygon fill="#ffffff" stroke="#bfbfbf" points="820,-56.5 820,-86.5 922,-86.5 922,-56.5 820,-56.5"/>
<text text-anchor="start" x="828" y="-74.5" font-family="Helvetica,sans-Serif" font-size="10.00" fill="#000000">nlohmann/thirdparty</text>
<text text-anchor="middle" x="871" y="-63.5" font-family="Helvetica,sans-Serif" font-size="10.00" fill="#000000">/hedley/hedley.hpp</text>
</g>
<!-- Node17&#45;&gt;Node18 -->
<g id="edge22" class="edge">
<title>Node17&#45;&gt;Node18</title>
<path fill="none" stroke="#191970" d="M870.2269,-123.2967C870.3433,-115.5013 870.4881,-105.7991 870.6208,-96.9064"/>
<polygon fill="#191970" stroke="#191970" points="874.1243,-96.6943 870.774,-86.6432 867.125,-96.5898 874.1243,-96.6943"/>
</g>
<!-- Node19 -->
<g id="node20" class="node">
<title>Node19</title>
<polygon fill="#ffffff" stroke="#bfbfbf" points="940.5,-62 940.5,-81 985.5,-81 985.5,-62 940.5,-62"/>
<text text-anchor="middle" x="963" y="-69" font-family="Helvetica,sans-Serif" font-size="10.00" fill="#000000">cstdlib</text>
</g>
<!-- Node17&#45;&gt;Node19 -->
<g id="edge23" class="edge">
<title>Node17&#45;&gt;Node19</title>
<path fill="none" stroke="#191970" d="M891.1031,-123.2967C906.1557,-112.4524 926.33,-97.9182 941.4767,-87.006"/>
<polygon fill="#191970" stroke="#191970" points="943.6693,-89.7402 949.7371,-81.055 939.5775,-84.0606 943.6693,-89.7402"/>
</g>
</g>
</svg>
        <g id="navigator" transform="translate(0 0)" fill="#404254">
                <rect fill="#f2f5e9" fill-opacity="0.5" stroke="#606060" stroke-width=".5" x="0" y="0" width="60" height="60"/>
                <use id="zoomplus" xlink:href="#zoomPlus" x="17" y="9" onmousedown="handleZoom(evt,'in')"/>
                <use id="zoomminus" xlink:href="#zoomMin" x="42" y="9" onmousedown="handleZoom(evt,'out')"/>
                <use id="reset" xlink:href="#resetDef" x="30" y="36" onmousedown="handleReset()"/>
                <g id="arrowUp" xlink:href="#dirArrow" transform="translate(30 24)" onmousedown="handlePan(0,-1)">
                  <use xlink:href="#rim" fill="#404040">
                        <set attributeName="fill" to="#808080" begin="arrowUp.mouseover" end="arrowUp.mouseout"/>
                  </use>
                  <path fill="none" stroke="white" stroke-width="1.5" d="M0,-3.0v7 M-2.5,-0.5L0,-3.0L2.5,-0.5"/>
                </g>
                <g id="arrowRight" xlink:href="#dirArrow" transform="rotate(90) translate(36 -43)" onmousedown="handlePan(1,0)">
                  <use xlink:href="#rim" fill="#404040">
                        <set attributeName="fill" to="#808080" begin="arrowRight.mouseover" end="arrowRight.mouseout"/>
                  </use>
                  <path fill="none" stroke="white" stroke-width="1.5" d="M0,-3.0v7 M-2.5,-0.5L0,-3.0L2.5,-0.5"/>
                </g>
                <g id="arrowDown" xlink:href="#dirArrow" transform="rotate(180) translate(-30 -48)" onmousedown="handlePan(0,1)">
                  <use xlink:href="#rim" fill="#404040">
                        <set attributeName="fill" to="#808080" begin="arrowDown.mouseover" end="arrowDown.mouseout"/>
                  </use>
                  <path fill="none" stroke="white" stroke-width="1.5" d="M0,-3.0v7 M-2.5,-0.5L0,-3.0L2.5,-0.5"/>
                </g>
                <g id="arrowLeft" xlink:href="#dirArrow" transform="rotate(270) translate(-36 17)" onmousedown="handlePan(-1,0)">
                  <use xlink:href="#rim" fill="#404040">
                        <set attributeName="fill" to="#808080" begin="arrowLeft.mouseover" end="arrowLeft.mouseout"/>
                  </use>
                  <path fill="none" stroke="white" stroke-width="1.5" d="M0,-3.0v7 M-2.5,-0.5L0,-3.0L2.5,-0.5"/>
                </g>
        </g>
        <svg viewBox="0 0 15 15" width="100%" height="30px" preserveAspectRatio="xMaxYMin meet">
         <g id="arrow_out" transform="scale(0.3 0.3)">
          <a xlink:href="input__adapters_8hpp__incl_org.svg" target="_base">
           <rect id="button" ry="5" rx="5" y="6" x="6" height="38" width="38"
                fill="#f2f5e9" fill-opacity="0.5" stroke="#606060" stroke-width="1.0"/>
           <path id="arrow"
             d="M 11.500037,31.436501 C 11.940474,20.09759 22.043105,11.32322 32.158766,21.979434 L 37.068811,17.246167 C 37.068811,17.246167 37.088388,32 37.088388,32 L 22.160133,31.978069 C 22.160133,31.978069 26.997745,27.140456 26.997745,27.140456 C 18.528582,18.264221 13.291696,25.230495 11.500037,31.436501 z"
             style="fill:#404040;"/>
          </a>
         </g>
        </svg>
</svg>
