<?xml version="1.0" encoding="UTF-8" standalone="no"?>
<!DOCTYPE svg PUBLIC "-//W3C//DTD SVG 1.1//EN"
 "http://www.w3.org/Graphics/SVG/1.1/DTD/svg11.dtd">
<!-- Generated by graphviz version 2.40.1 (20161225.0304)
 -->
<!-- Title: /home/bdn_jz/bdn_jz/camera&#45;tracker&#45;cpp/CameraTrackerLinux/include/nlohmann/detail/iterators/internal_iterator.hpp Pages: 1 -->
<svg width="152pt" height="195pt"
 viewBox="0.00 0.00 152.00 195.00" xmlns="http://www.w3.org/2000/svg" xmlns:xlink="http://www.w3.org/1999/xlink">
<g id="graph0" class="graph" transform="scale(1 1) rotate(0) translate(4 191)">
<title>/home/bdn_jz/bdn_jz/camera&#45;tracker&#45;cpp/CameraTrackerLinux/include/nlohmann/detail/iterators/internal_iterator.hpp</title>
<polygon fill="#ffffff" stroke="transparent" points="-4,4 -4,-191 148,-191 148,4 -4,4"/>
<!-- Node0 -->
<g id="node1" class="node">
<title>Node0</title>
<polygon fill="#bfbfbf" stroke="#000000" points="0,-123.5 0,-186.5 144,-186.5 144,-123.5 0,-123.5"/>
<text text-anchor="start" x="8" y="-174.5" font-family="Helvetica,sans-Serif" font-size="10.00" fill="#000000">/home/bdn_jz/bdn_jz</text>
<text text-anchor="start" x="8" y="-163.5" font-family="Helvetica,sans-Serif" font-size="10.00" fill="#000000">/camera&#45;tracker&#45;cpp</text>
<text text-anchor="start" x="8" y="-152.5" font-family="Helvetica,sans-Serif" font-size="10.00" fill="#000000">/CameraTrackerLinux/include</text>
<text text-anchor="start" x="8" y="-141.5" font-family="Helvetica,sans-Serif" font-size="10.00" fill="#000000">/nlohmann/detail/iterators</text>
<text text-anchor="middle" x="72" y="-130.5" font-family="Helvetica,sans-Serif" font-size="10.00" fill="#000000">/internal_iterator.hpp</text>
</g>
<!-- Node1 -->
<g id="node2" class="node">
<title>Node1</title>
<g id="a_node2"><a xlink:href="primitive__iterator_8hpp.html" target="_top" xlink:title="nlohmann/detail/iterators\l/primitive_iterator.hpp">
<polygon fill="#ffffff" stroke="#000000" points="10.5,-56.5 10.5,-86.5 133.5,-86.5 133.5,-56.5 10.5,-56.5"/>
<text text-anchor="start" x="18.5" y="-74.5" font-family="Helvetica,sans-Serif" font-size="10.00" fill="#000000">nlohmann/detail/iterators</text>
<text text-anchor="middle" x="72" y="-63.5" font-family="Helvetica,sans-Serif" font-size="10.00" fill="#000000">/primitive_iterator.hpp</text>
</a>
</g>
</g>
<!-- Node0&#45;&gt;Node1 -->
<g id="edge1" class="edge">
<title>Node0&#45;&gt;Node1</title>
<path fill="none" stroke="#191970" d="M72,-123.4322C72,-114.6979 72,-105.3303 72,-96.989"/>
<polygon fill="#191970" stroke="#191970" points="75.5001,-96.7544 72,-86.7545 68.5001,-96.7545 75.5001,-96.7544"/>
</g>
<!-- Node2 -->
<g id="node3" class="node">
<title>Node2</title>
<polygon fill="#ffffff" stroke="#bfbfbf" points="16.5,-.5 16.5,-19.5 65.5,-19.5 65.5,-.5 16.5,-.5"/>
<text text-anchor="middle" x="41" y="-7.5" font-family="Helvetica,sans-Serif" font-size="10.00" fill="#000000">cstddef</text>
</g>
<!-- Node1&#45;&gt;Node2 -->
<g id="edge2" class="edge">
<title>Node1&#45;&gt;Node2</title>
<path fill="none" stroke="#191970" d="M64.3371,-56.2977C60.1684,-48.0277 54.9735,-37.7215 50.5439,-28.9339"/>
<polygon fill="#191970" stroke="#191970" points="53.5901,-27.2012 45.9635,-19.8469 47.3393,-30.3521 53.5901,-27.2012"/>
</g>
<!-- Node3 -->
<g id="node4" class="node">
<title>Node3</title>
<polygon fill="#ffffff" stroke="#bfbfbf" points="84,-.5 84,-19.5 124,-19.5 124,-.5 84,-.5"/>
<text text-anchor="middle" x="104" y="-7.5" font-family="Helvetica,sans-Serif" font-size="10.00" fill="#000000">limits</text>
</g>
<!-- Node1&#45;&gt;Node3 -->
<g id="edge3" class="edge">
<title>Node1&#45;&gt;Node3</title>
<path fill="none" stroke="#191970" d="M79.9101,-56.2977C84.2132,-48.0277 89.5758,-37.7215 94.1482,-28.9339"/>
<polygon fill="#191970" stroke="#191970" points="97.3654,-30.3335 98.8764,-19.8469 91.1557,-27.1024 97.3654,-30.3335"/>
</g>
</g>
</svg>
