<?xml version="1.0" encoding="UTF-8" standalone="no"?>
<!DOCTYPE svg PUBLIC "-//W3C//DTD SVG 1.1//EN"
 "http://www.w3.org/Graphics/SVG/1.1/DTD/svg11.dtd">
<!-- Generated by graphviz version 2.40.1 (20161225.0304)
 -->
<!-- Title: /home/bdn_jz/bdn_jz/camera&#45;tracker&#45;cpp/CameraTrackerLinux/include/nlohmann/detail/meta/is_sax.hpp Pages: 1 -->
<!--zoomable 329 -->
<svg id="main" version="1.1" xmlns="http://www.w3.org/2000/svg" xmlns:xlink="http://www.w3.org/1999/xlink" xml:space="preserve" onload="init(evt)">
<style type="text/css"><![CDATA[
.edge:hover path { stroke: red; }
.edge:hover polygon { stroke: red; fill: red; }
]]></style>
<script type="text/javascript"><![CDATA[
var edges = document.getElementsByTagName('g');
if (edges && edges.length) {
  for (var i=0;i<edges.length;i++) {
    if (edges[i].id.substr(0,4)=='edge') {
      edges[i].setAttribute('class','edge');
    }
  }
}
]]></script>
        <defs>
                <circle id="rim" cx="0" cy="0" r="7"/>
                <circle id="rim2" cx="0" cy="0" r="3.5"/>
                <g id="zoomPlus">
                        <use xlink:href="#rim" target="_top" fill="#404040">
                                <set attributeName="fill" to="#808080" begin="zoomplus.mouseover" end="zoomplus.mouseout"/>
                        </use>
                        <path d="M-4,0h8M0,-4v8" fill="none" stroke="white" stroke-width="1.5" pointer-events="none"/>
                </g>
                <g id="zoomMin">
                        <use xlink:href="#rim" target="_top" fill="#404040">
                                <set attributeName="fill" to="#808080" begin="zoomminus.mouseover" end="zoomminus.mouseout"/>
                        </use>
                        <path d="M-4,0h8" fill="none" stroke="white" stroke-width="1.5" pointer-events="none"/>
                </g>
                <g id="dirArrow">
                        <path fill="none" stroke="white" stroke-width="1.5" d="M0,-3.0v7 M-2.5,-0.5L0,-3.0L2.5,-0.5"/>
                </g>
               <g id="resetDef">
                       <use xlink:href="#rim2" target="_top" fill="#404040">
                               <set attributeName="fill" to="#808080" begin="reset.mouseover" end="reset.mouseout"/>
                       </use>
               </g>
        </defs>

<script type="text/javascript">
var viewWidth = 935;
var viewHeight = 329;
var sectionId = 'dynsection-0';
</script>
<script xlink:href="svgpan.js" target="_top"/>
<svg id="graph" class="graph">
<g id="viewport">
<title>/home/bdn_jz/bdn_jz/camera&#45;tracker&#45;cpp/CameraTrackerLinux/include/nlohmann/detail/meta/is_sax.hpp</title>
<polygon fill="#ffffff" stroke="transparent" points="-4,4 -4,-325 931.1245,-325 931.1245,4 -4,4"/>
<!-- Node0 -->
<g id="node1" class="node">
<title>Node0</title>
<polygon fill="#bfbfbf" stroke="#000000" points="573.6245,-257.5 573.6245,-320.5 717.6245,-320.5 717.6245,-257.5 573.6245,-257.5"/>
<text text-anchor="start" x="581.6245" y="-308.5" font-family="Helvetica,sans-Serif" font-size="10.00" fill="#000000">/home/bdn_jz/bdn_jz</text>
<text text-anchor="start" x="581.6245" y="-297.5" font-family="Helvetica,sans-Serif" font-size="10.00" fill="#000000">/camera&#45;tracker&#45;cpp</text>
<text text-anchor="start" x="581.6245" y="-286.5" font-family="Helvetica,sans-Serif" font-size="10.00" fill="#000000">/CameraTrackerLinux/include</text>
<text text-anchor="start" x="581.6245" y="-275.5" font-family="Helvetica,sans-Serif" font-size="10.00" fill="#000000">/nlohmann/detail/meta/is</text>
<text text-anchor="middle" x="645.6245" y="-264.5" font-family="Helvetica,sans-Serif" font-size="10.00" fill="#000000">_sax.hpp</text>
</g>
<!-- Node1 -->
<g id="node2" class="node">
<title>Node1</title>
<polygon fill="#ffffff" stroke="#bfbfbf" points="821.6245,-62 821.6245,-81 867.6245,-81 867.6245,-62 821.6245,-62"/>
<text text-anchor="middle" x="844.6245" y="-69" font-family="Helvetica,sans-Serif" font-size="10.00" fill="#000000">cstdint</text>
</g>
<!-- Node0&#45;&gt;Node1 -->
<g id="edge1" class="edge">
<title>Node0&#45;&gt;Node1</title>
<path fill="none" stroke="#191970" d="M698.5323,-257.3595C735.202,-233.087 782.795,-196.5817 813.6245,-154 827.52,-134.8076 835.9479,-108.6459 840.4384,-90.9696"/>
<polygon fill="#191970" stroke="#191970" points="843.854,-91.7344 842.7392,-81.1984 837.0403,-90.13 843.854,-91.7344"/>
</g>
<!-- Node2 -->
<g id="node3" class="node">
<title>Node2</title>
<polygon fill="#ffffff" stroke="#bfbfbf" points="539.6245,-62 539.6245,-81 579.6245,-81 579.6245,-62 539.6245,-62"/>
<text text-anchor="middle" x="559.6245" y="-69" font-family="Helvetica,sans-Serif" font-size="10.00" fill="#000000">utility</text>
</g>
<!-- Node0&#45;&gt;Node2 -->
<g id="edge2" class="edge">
<title>Node0&#45;&gt;Node2</title>
<path fill="none" stroke="#191970" d="M633.1194,-257.3736C615.0568,-211.6922 582.2039,-128.6048 567.3198,-90.9619"/>
<polygon fill="#191970" stroke="#191970" points="570.4007,-89.235 563.4688,-81.2226 563.8911,-91.809 570.4007,-89.235"/>
</g>
<!-- Node3 -->
<g id="node4" class="node">
<title>Node3</title>
<polygon fill="#ffffff" stroke="#bfbfbf" points="886.1245,-62 886.1245,-81 927.1245,-81 927.1245,-62 886.1245,-62"/>
<text text-anchor="middle" x="906.6245" y="-69" font-family="Helvetica,sans-Serif" font-size="10.00" fill="#000000">string</text>
</g>
<!-- Node0&#45;&gt;Node3 -->
<g id="edge3" class="edge">
<title>Node0&#45;&gt;Node3</title>
<path fill="none" stroke="#191970" d="M717.7486,-258.5331C738.4171,-248.1459 760.2965,-235.4512 778.6245,-221 828.9582,-181.313 874.2572,-119.5121 894.8722,-89.3179"/>
<polygon fill="#191970" stroke="#191970" points="897.776,-91.2719 900.4557,-81.0215 891.9687,-87.3635 897.776,-91.2719"/>
</g>
<!-- Node4 -->
<g id="node5" class="node">
<title>Node4</title>
<g id="a_node5"><a xlink:href="detected_8hpp.html" target="_top" target="_top" xlink:title="nlohmann/detail/meta\l/detected.hpp">
<polygon fill="#ffffff" stroke="#000000" points="36.6245,-123.5 36.6245,-153.5 146.6245,-153.5 146.6245,-123.5 36.6245,-123.5"/>
<text text-anchor="start" x="44.6245" y="-141.5" font-family="Helvetica,sans-Serif" font-size="10.00" fill="#000000">nlohmann/detail/meta</text>
<text text-anchor="middle" x="91.6245" y="-130.5" font-family="Helvetica,sans-Serif" font-size="10.00" fill="#000000">/detected.hpp</text>
</a>
</g>
</g>
<!-- Node0&#45;&gt;Node4 -->
<g id="edge4" class="edge">
<title>Node0&#45;&gt;Node4</title>
<path fill="none" stroke="#191970" d="M573.4697,-272.8131C516.3199,-259.7007 434.5751,-240.2969 363.6245,-221 288.6084,-200.5974 202.9121,-174.0624 148.09,-156.6695"/>
<polygon fill="#191970" stroke="#191970" points="149.1485,-153.3335 138.5581,-153.6388 147.0274,-160.0044 149.1485,-153.3335"/>
</g>
<!-- Node7 -->
<g id="node8" class="node">
<title>Node7</title>
<g id="a_node8"><a xlink:href="type__traits_8hpp.html" target="_top" target="_top" xlink:title="nlohmann/detail/meta\l/type_traits.hpp">
<polygon fill="#ffffff" stroke="#000000" points="372.6245,-190.5 372.6245,-220.5 482.6245,-220.5 482.6245,-190.5 372.6245,-190.5"/>
<text text-anchor="start" x="380.6245" y="-208.5" font-family="Helvetica,sans-Serif" font-size="10.00" fill="#000000">nlohmann/detail/meta</text>
<text text-anchor="middle" x="427.6245" y="-197.5" font-family="Helvetica,sans-Serif" font-size="10.00" fill="#000000">/type_traits.hpp</text>
</a>
</g>
</g>
<!-- Node0&#45;&gt;Node7 -->
<g id="edge7" class="edge">
<title>Node0&#45;&gt;Node7</title>
<path fill="none" stroke="#191970" d="M573.3365,-261.3117C541.4894,-249.1134 504.9082,-235.1018 476.3658,-224.1693"/>
<polygon fill="#191970" stroke="#191970" points="477.6032,-220.8953 467.0129,-220.5868 475.0994,-227.4322 477.6032,-220.8953"/>
</g>
<!-- Node5 -->
<g id="node6" class="node">
<title>Node5</title>
<polygon fill="#ffffff" stroke="#bfbfbf" points="288.6245,-.5 288.6245,-19.5 350.6245,-19.5 350.6245,-.5 288.6245,-.5"/>
<text text-anchor="middle" x="319.6245" y="-7.5" font-family="Helvetica,sans-Serif" font-size="10.00" fill="#000000">type_traits</text>
</g>
<!-- Node4&#45;&gt;Node5 -->
<g id="edge5" class="edge">
<title>Node4&#45;&gt;Node5</title>
<path fill="none" stroke="#191970" d="M64.679,-123.3519C38.2674,-106.6155 4.6645,-78.9884 24.6245,-56 60.1753,-15.0552 207.2482,-29.1728 278.0753,-19.63"/>
<polygon fill="#191970" stroke="#191970" points="279.0442,-23.0186 288.3548,-17.9626 277.9234,-16.1089 279.0442,-23.0186"/>
</g>
<!-- Node6 -->
<g id="node7" class="node">
<title>Node6</title>
<g id="a_node7"><a xlink:href="void__t_8hpp.html" target="_top" target="_top" xlink:title="nlohmann/detail/meta\l/void_t.hpp">
<polygon fill="#ffffff" stroke="#000000" points="33.6245,-56.5 33.6245,-86.5 143.6245,-86.5 143.6245,-56.5 33.6245,-56.5"/>
<text text-anchor="start" x="41.6245" y="-74.5" font-family="Helvetica,sans-Serif" font-size="10.00" fill="#000000">nlohmann/detail/meta</text>
<text text-anchor="middle" x="88.6245" y="-63.5" font-family="Helvetica,sans-Serif" font-size="10.00" fill="#000000">/void_t.hpp</text>
</a>
</g>
</g>
<!-- Node4&#45;&gt;Node6 -->
<g id="edge6" class="edge">
<title>Node4&#45;&gt;Node6</title>
<path fill="none" stroke="#191970" d="M90.9437,-123.2967C90.5947,-115.5013 90.1603,-105.7991 89.7621,-96.9064"/>
<polygon fill="#191970" stroke="#191970" points="93.2465,-96.4766 89.3025,-86.6432 86.2535,-96.7898 93.2465,-96.4766"/>
</g>
<!-- Node7&#45;&gt;Node2 -->
<g id="edge11" class="edge">
<title>Node7&#45;&gt;Node2</title>
<path fill="none" stroke="#191970" d="M482.7432,-190.4942C502.558,-182.5836 523.4834,-170.8995 537.6245,-154 552.5135,-136.2066 557.4201,-109.3324 558.9851,-91.1323"/>
<polygon fill="#191970" stroke="#191970" points="562.4829,-91.2711 559.587,-81.0798 555.4954,-90.8526 562.4829,-91.2711"/>
</g>
<!-- Node7&#45;&gt;Node4 -->
<g id="edge24" class="edge">
<title>Node7&#45;&gt;Node4</title>
<path fill="none" stroke="#191970" d="M372.5939,-195.4951C318.3393,-185.4971 233.1174,-169.4327 159.6245,-154 158.7172,-153.8095 157.8034,-153.6165 156.8843,-153.4214"/>
<polygon fill="#191970" stroke="#191970" points="157.3995,-149.952 146.8861,-151.2629 155.9223,-156.7944 157.3995,-149.952"/>
</g>
<!-- Node7&#45;&gt;Node5 -->
<g id="edge10" class="edge">
<title>Node7&#45;&gt;Node5</title>
<path fill="none" stroke="#191970" d="M482.9283,-193.9988C508.5538,-186.3029 537.8549,-173.8272 558.6245,-154 591.5725,-122.547 617.994,-90.8181 588.6245,-56 574.0844,-38.7625 432.3908,-21.722 360.7133,-14.1193"/>
<polygon fill="#191970" stroke="#191970" points="360.9797,-10.6281 350.6694,-13.0672 360.2503,-17.5901 360.9797,-10.6281"/>
</g>
<!-- Node8 -->
<g id="node9" class="node">
<title>Node8</title>
<polygon fill="#ffffff" stroke="#bfbfbf" points="66.6245,-.5 66.6245,-19.5 116.6245,-19.5 116.6245,-.5 66.6245,-.5"/>
<text text-anchor="middle" x="91.6245" y="-7.5" font-family="Helvetica,sans-Serif" font-size="10.00" fill="#000000">ciso646</text>
</g>
<!-- Node7&#45;&gt;Node8 -->
<g id="edge8" class="edge">
<title>Node7&#45;&gt;Node8</title>
<path fill="none" stroke="#191970" d="M372.5595,-201.9621C268.7725,-194.7853 52.3563,-177.2067 27.6245,-154 -4.4159,-123.9353 -7.0598,-94.2134 14.6245,-56 23.7254,-39.9618 40.8833,-28.9183 56.6966,-21.6806"/>
<polygon fill="#191970" stroke="#191970" points="58.4193,-24.7534 66.2848,-17.6552 55.7096,-18.2991 58.4193,-24.7534"/>
</g>
<!-- Node9 -->
<g id="node10" class="node">
<title>Node9</title>
<polygon fill="#ffffff" stroke="#bfbfbf" points="316.6245,-129 316.6245,-148 356.6245,-148 356.6245,-129 316.6245,-129"/>
<text text-anchor="middle" x="336.6245" y="-136" font-family="Helvetica,sans-Serif" font-size="10.00" fill="#000000">limits</text>
</g>
<!-- Node7&#45;&gt;Node9 -->
<g id="edge9" class="edge">
<title>Node7&#45;&gt;Node9</title>
<path fill="none" stroke="#191970" d="M406.9752,-190.2967C392.2464,-179.4524 372.5059,-164.9182 357.6849,-154.006"/>
<polygon fill="#191970" stroke="#191970" points="359.7301,-151.1655 349.6021,-148.055 355.5798,-156.8025 359.7301,-151.1655"/>
</g>
<!-- Node10 -->
<g id="node11" class="node">
<title>Node10</title>
<g id="a_node11"><a xlink:href="iterator__traits_8hpp.html" target="_top" target="_top" xlink:title="nlohmann/detail/iterators\l/iterator_traits.hpp">
<polygon fill="#ffffff" stroke="#000000" points="169.1245,-123.5 169.1245,-153.5 292.1245,-153.5 292.1245,-123.5 169.1245,-123.5"/>
<text text-anchor="start" x="177.1245" y="-141.5" font-family="Helvetica,sans-Serif" font-size="10.00" fill="#000000">nlohmann/detail/iterators</text>
<text text-anchor="middle" x="230.6245" y="-130.5" font-family="Helvetica,sans-Serif" font-size="10.00" fill="#000000">/iterator_traits.hpp</text>
</a>
</g>
</g>
<!-- Node7&#45;&gt;Node10 -->
<g id="edge12" class="edge">
<title>Node7&#45;&gt;Node10</title>
<path fill="none" stroke="#191970" d="M383.4139,-190.4639C354.2403,-180.5419 315.8267,-167.4774 284.8154,-156.9304"/>
<polygon fill="#191970" stroke="#191970" points="285.6224,-153.508 275.028,-153.6017 283.3684,-160.1352 285.6224,-153.508"/>
</g>
<!-- Node12 -->
<g id="node13" class="node">
<title>Node12</title>
<g id="a_node13"><a xlink:href="cpp__future_8hpp.html" target="_top" target="_top" xlink:title="nlohmann/detail/meta\l/cpp_future.hpp">
<polygon fill="#ffffff" stroke="#000000" points="227.6245,-56.5 227.6245,-86.5 337.6245,-86.5 337.6245,-56.5 227.6245,-56.5"/>
<text text-anchor="start" x="235.6245" y="-74.5" font-family="Helvetica,sans-Serif" font-size="10.00" fill="#000000">nlohmann/detail/meta</text>
<text text-anchor="middle" x="282.6245" y="-63.5" font-family="Helvetica,sans-Serif" font-size="10.00" fill="#000000">/cpp_future.hpp</text>
</a>
</g>
</g>
<!-- Node7&#45;&gt;Node12 -->
<g id="edge23" class="edge">
<title>Node7&#45;&gt;Node12</title>
<path fill="none" stroke="#191970" d="M418.7511,-190.4721C407.8309,-172.8438 387.9677,-143.4355 365.6245,-123 352.5674,-111.0577 336.3653,-100.2948 321.7512,-91.7338"/>
<polygon fill="#191970" stroke="#191970" points="323.3218,-88.6006 312.8993,-86.6971 319.8599,-94.6847 323.3218,-88.6006"/>
</g>
<!-- Node14 -->
<g id="node15" class="node">
<title>Node14</title>
<g id="a_node15"><a xlink:href="macro__scope_8hpp.html" target="_top" target="_top" xlink:title="nlohmann/detail/macro\l_scope.hpp">
<polygon fill="#ffffff" stroke="#000000" points="413.1245,-123.5 413.1245,-153.5 528.1245,-153.5 528.1245,-123.5 413.1245,-123.5"/>
<text text-anchor="start" x="421.1245" y="-141.5" font-family="Helvetica,sans-Serif" font-size="10.00" fill="#000000">nlohmann/detail/macro</text>
<text text-anchor="middle" x="470.6245" y="-130.5" font-family="Helvetica,sans-Serif" font-size="10.00" fill="#000000">_scope.hpp</text>
</a>
</g>
</g>
<!-- Node7&#45;&gt;Node14 -->
<g id="edge19" class="edge">
<title>Node7&#45;&gt;Node14</title>
<path fill="none" stroke="#191970" d="M437.3819,-190.2967C442.7147,-181.9873 449.438,-171.5115 455.4405,-162.1587"/>
<polygon fill="#191970" stroke="#191970" points="458.45,-163.9495 460.9057,-153.6432 452.5589,-160.1686 458.45,-163.9495"/>
</g>
<!-- Node17 -->
<g id="node18" class="node">
<title>Node17</title>
<g id="a_node18"><a xlink:href="json__fwd_8hpp.html" target="_top" target="_top" xlink:title="nlohmann/json_fwd.hpp">
<polygon fill="#ffffff" stroke="#000000" points="685.1245,-129 685.1245,-148 804.1245,-148 804.1245,-129 685.1245,-129"/>
<text text-anchor="middle" x="744.6245" y="-136" font-family="Helvetica,sans-Serif" font-size="10.00" fill="#000000">nlohmann/json_fwd.hpp</text>
</a>
</g>
</g>
<!-- Node7&#45;&gt;Node17 -->
<g id="edge25" class="edge">
<title>Node7&#45;&gt;Node17</title>
<path fill="none" stroke="#191970" d="M482.8417,-193.8295C540.7415,-181.592 631.2102,-162.4708 689.191,-150.2162"/>
<polygon fill="#191970" stroke="#191970" points="690.2092,-153.5784 699.2693,-148.0861 688.7617,-146.7297 690.2092,-153.5784"/>
</g>
<!-- Node10&#45;&gt;Node6 -->
<g id="edge14" class="edge">
<title>Node10&#45;&gt;Node6</title>
<path fill="none" stroke="#191970" d="M198.7569,-123.4639C178.437,-113.8763 151.8983,-101.3545 129.964,-91.0052"/>
<polygon fill="#191970" stroke="#191970" points="131.4144,-87.8196 120.877,-86.7177 128.4273,-94.1503 131.4144,-87.8196"/>
</g>
<!-- Node11 -->
<g id="node12" class="node">
<title>Node11</title>
<polygon fill="#ffffff" stroke="#bfbfbf" points="162.1245,-62 162.1245,-81 209.1245,-81 209.1245,-62 162.1245,-62"/>
<text text-anchor="middle" x="185.6245" y="-69" font-family="Helvetica,sans-Serif" font-size="10.00" fill="#000000">iterator</text>
</g>
<!-- Node10&#45;&gt;Node11 -->
<g id="edge13" class="edge">
<title>Node10&#45;&gt;Node11</title>
<path fill="none" stroke="#191970" d="M220.4133,-123.2967C213.6744,-113.2631 204.8139,-100.0709 197.7216,-89.5113"/>
<polygon fill="#191970" stroke="#191970" points="200.5231,-87.4049 192.042,-81.055 194.7121,-91.3078 200.5231,-87.4049"/>
</g>
<!-- Node10&#45;&gt;Node12 -->
<g id="edge15" class="edge">
<title>Node10&#45;&gt;Node12</title>
<path fill="none" stroke="#191970" d="M242.4241,-123.2967C249.0061,-114.816 257.3397,-104.0785 264.7104,-94.5817"/>
<polygon fill="#191970" stroke="#191970" points="267.5053,-96.689 270.8716,-86.6432 261.9753,-92.3971 267.5053,-96.689"/>
</g>
<!-- Node12&#45;&gt;Node5 -->
<g id="edge18" class="edge">
<title>Node12&#45;&gt;Node5</title>
<path fill="none" stroke="#191970" d="M291.7706,-56.2977C296.7995,-47.9388 303.08,-37.4997 308.4036,-28.6509"/>
<polygon fill="#191970" stroke="#191970" points="311.5442,-30.2201 313.7003,-19.8469 305.546,-26.6114 311.5442,-30.2201"/>
</g>
<!-- Node12&#45;&gt;Node8 -->
<g id="edge16" class="edge">
<title>Node12&#45;&gt;Node8</title>
<path fill="none" stroke="#191970" d="M235.9006,-56.4554C202.1647,-45.5928 157.3281,-31.1559 126.645,-21.2762"/>
<polygon fill="#191970" stroke="#191970" points="127.41,-17.8456 116.8185,-18.1122 125.2645,-24.5088 127.41,-17.8456"/>
</g>
<!-- Node13 -->
<g id="node14" class="node">
<title>Node13</title>
<polygon fill="#ffffff" stroke="#bfbfbf" points="221.1245,-.5 221.1245,-19.5 270.1245,-19.5 270.1245,-.5 221.1245,-.5"/>
<text text-anchor="middle" x="245.6245" y="-7.5" font-family="Helvetica,sans-Serif" font-size="10.00" fill="#000000">cstddef</text>
</g>
<!-- Node12&#45;&gt;Node13 -->
<g id="edge17" class="edge">
<title>Node12&#45;&gt;Node13</title>
<path fill="none" stroke="#191970" d="M273.4784,-56.2977C268.4494,-47.9388 262.169,-37.4997 256.8454,-28.6509"/>
<polygon fill="#191970" stroke="#191970" points="259.703,-26.6114 251.5487,-19.8469 253.7048,-30.2201 259.703,-26.6114"/>
</g>
<!-- Node14&#45;&gt;Node2 -->
<g id="edge20" class="edge">
<title>Node14&#45;&gt;Node2</title>
<path fill="none" stroke="#191970" d="M490.82,-123.2967C505.0905,-112.5537 524.1713,-98.1895 538.6193,-87.3129"/>
<polygon fill="#191970" stroke="#191970" points="541.0479,-89.8656 546.9321,-81.055 536.8378,-84.2731 541.0479,-89.8656"/>
</g>
<!-- Node15 -->
<g id="node16" class="node">
<title>Node15</title>
<polygon fill="#ffffff" stroke="#bfbfbf" points="419.6245,-56.5 419.6245,-86.5 521.6245,-86.5 521.6245,-56.5 419.6245,-56.5"/>
<text text-anchor="start" x="427.6245" y="-74.5" font-family="Helvetica,sans-Serif" font-size="10.00" fill="#000000">nlohmann/thirdparty</text>
<text text-anchor="middle" x="470.6245" y="-63.5" font-family="Helvetica,sans-Serif" font-size="10.00" fill="#000000">/hedley/hedley.hpp</text>
</g>
<!-- Node14&#45;&gt;Node15 -->
<g id="edge21" class="edge">
<title>Node14&#45;&gt;Node15</title>
<path fill="none" stroke="#191970" d="M470.6245,-123.2967C470.6245,-115.5013 470.6245,-105.7991 470.6245,-96.9064"/>
<polygon fill="#191970" stroke="#191970" points="474.1246,-96.6431 470.6245,-86.6432 467.1246,-96.6432 474.1246,-96.6431"/>
</g>
<!-- Node16 -->
<g id="node17" class="node">
<title>Node16</title>
<polygon fill="#ffffff" stroke="#bfbfbf" points="356.1245,-62 356.1245,-81 401.1245,-81 401.1245,-62 356.1245,-62"/>
<text text-anchor="middle" x="378.6245" y="-69" font-family="Helvetica,sans-Serif" font-size="10.00" fill="#000000">cstdlib</text>
</g>
<!-- Node14&#45;&gt;Node16 -->
<g id="edge22" class="edge">
<title>Node14&#45;&gt;Node16</title>
<path fill="none" stroke="#191970" d="M449.7483,-123.2967C434.8576,-112.4524 414.9002,-97.9182 399.9164,-87.006"/>
<polygon fill="#191970" stroke="#191970" points="401.8888,-84.1127 391.7448,-81.055 397.7679,-89.7712 401.8888,-84.1127"/>
</g>
<!-- Node17&#45;&gt;Node1 -->
<g id="edge26" class="edge">
<title>Node17&#45;&gt;Node1</title>
<path fill="none" stroke="#191970" d="M758.9521,-128.9005C775.363,-117.9052 802.472,-99.7422 821.7996,-86.7927"/>
<polygon fill="#191970" stroke="#191970" points="823.964,-89.5556 830.3235,-81.0817 820.0676,-83.7402 823.964,-89.5556"/>
</g>
<!-- Node17&#45;&gt;Node3 -->
<g id="edge29" class="edge">
<title>Node17&#45;&gt;Node3</title>
<path fill="none" stroke="#191970" d="M771.5117,-128.9512C798.4285,-119.173 840.8704,-103.1576 876.6245,-87 877.6128,-86.5534 878.615,-86.0903 879.6238,-85.6156"/>
<polygon fill="#191970" stroke="#191970" points="881.2626,-88.7101 888.6898,-81.1545 878.1719,-82.4293 881.2626,-88.7101"/>
</g>
<!-- Node18 -->
<g id="node19" class="node">
<title>Node18</title>
<polygon fill="#ffffff" stroke="#bfbfbf" points="768.1245,-62 768.1245,-81 803.1245,-81 803.1245,-62 768.1245,-62"/>
<text text-anchor="middle" x="785.6245" y="-69" font-family="Helvetica,sans-Serif" font-size="10.00" fill="#000000">map</text>
</g>
<!-- Node17&#45;&gt;Node18 -->
<g id="edge27" class="edge">
<title>Node17&#45;&gt;Node18</title>
<path fill="none" stroke="#191970" d="M750.4988,-128.9005C756.7097,-118.751 766.658,-102.4941 774.3844,-89.8679"/>
<polygon fill="#191970" stroke="#191970" points="777.5268,-91.4382 779.7611,-81.0817 771.556,-87.7844 777.5268,-91.4382"/>
</g>
<!-- Node19 -->
<g id="node20" class="node">
<title>Node19</title>
<polygon fill="#ffffff" stroke="#bfbfbf" points="635.6245,-62 635.6245,-81 687.6245,-81 687.6245,-62 635.6245,-62"/>
<text text-anchor="middle" x="661.6245" y="-69" font-family="Helvetica,sans-Serif" font-size="10.00" fill="#000000">memory</text>
</g>
<!-- Node17&#45;&gt;Node19 -->
<g id="edge28" class="edge">
<title>Node17&#45;&gt;Node19</title>
<path fill="none" stroke="#191970" d="M732.7326,-128.9005C719.4197,-118.1539 697.6246,-100.5603 681.6677,-87.6794"/>
<polygon fill="#191970" stroke="#191970" points="683.4739,-84.6395 673.4943,-81.0817 679.0771,-90.0863 683.4739,-84.6395"/>
</g>
<!-- Node20 -->
<g id="node21" class="node">
<title>Node20</title>
<polygon fill="#ffffff" stroke="#bfbfbf" points="705.6245,-62 705.6245,-81 749.6245,-81 749.6245,-62 705.6245,-62"/>
<text text-anchor="middle" x="727.6245" y="-69" font-family="Helvetica,sans-Serif" font-size="10.00" fill="#000000">vector</text>
</g>
<!-- Node17&#45;&gt;Node20 -->
<g id="edge30" class="edge">
<title>Node17&#45;&gt;Node20</title>
<path fill="none" stroke="#191970" d="M742.1888,-128.9005C739.6893,-119.0495 735.73,-103.4451 732.57,-90.9912"/>
<polygon fill="#191970" stroke="#191970" points="735.9076,-89.9137 730.0557,-81.0817 729.1226,-91.6353 735.9076,-89.9137"/>
</g>
</g>
</svg>
        <g id="navigator" transform="translate(0 0)" fill="#404254">
                <rect fill="#f2f5e9" fill-opacity="0.5" stroke="#606060" stroke-width=".5" x="0" y="0" width="60" height="60"/>
                <use id="zoomplus" xlink:href="#zoomPlus" target="_top" x="17" y="9" onmousedown="handleZoom(evt,'in')"/>
                <use id="zoomminus" xlink:href="#zoomMin" target="_top" x="42" y="9" onmousedown="handleZoom(evt,'out')"/>
                <use id="reset" xlink:href="#resetDef" target="_top" x="30" y="36" onmousedown="handleReset()"/>
                <g id="arrowUp" xlink:href="#dirArrow" target="_top" transform="translate(30 24)" onmousedown="handlePan(0,-1)">
                  <use xlink:href="#rim" target="_top" fill="#404040">
                        <set attributeName="fill" to="#808080" begin="arrowUp.mouseover" end="arrowUp.mouseout"/>
                  </use>
                  <path fill="none" stroke="white" stroke-width="1.5" d="M0,-3.0v7 M-2.5,-0.5L0,-3.0L2.5,-0.5"/>
                </g>
                <g id="arrowRight" xlink:href="#dirArrow" target="_top" transform="rotate(90) translate(36 -43)" onmousedown="handlePan(1,0)">
                  <use xlink:href="#rim" target="_top" fill="#404040">
                        <set attributeName="fill" to="#808080" begin="arrowRight.mouseover" end="arrowRight.mouseout"/>
                  </use>
                  <path fill="none" stroke="white" stroke-width="1.5" d="M0,-3.0v7 M-2.5,-0.5L0,-3.0L2.5,-0.5"/>
                </g>
                <g id="arrowDown" xlink:href="#dirArrow" target="_top" transform="rotate(180) translate(-30 -48)" onmousedown="handlePan(0,1)">
                  <use xlink:href="#rim" target="_top" fill="#404040">
                        <set attributeName="fill" to="#808080" begin="arrowDown.mouseover" end="arrowDown.mouseout"/>
                  </use>
                  <path fill="none" stroke="white" stroke-width="1.5" d="M0,-3.0v7 M-2.5,-0.5L0,-3.0L2.5,-0.5"/>
                </g>
                <g id="arrowLeft" xlink:href="#dirArrow" target="_top" transform="rotate(270) translate(-36 17)" onmousedown="handlePan(-1,0)">
                  <use xlink:href="#rim" target="_top" fill="#404040">
                        <set attributeName="fill" to="#808080" begin="arrowLeft.mouseover" end="arrowLeft.mouseout"/>
                  </use>
                  <path fill="none" stroke="white" stroke-width="1.5" d="M0,-3.0v7 M-2.5,-0.5L0,-3.0L2.5,-0.5"/>
                </g>
        </g>
        <svg viewBox="0 0 15 15" width="100%" height="30px" preserveAspectRatio="xMaxYMin meet">
         <g id="arrow_out" transform="scale(0.3 0.3)">
          <a xlink:href="is__sax_8hpp__incl_org.svg" target="_top" target="_base">
           <rect id="button" ry="5" rx="5" y="6" x="6" height="38" width="38"
                fill="#f2f5e9" fill-opacity="0.5" stroke="#606060" stroke-width="1.0"/>
           <path id="arrow"
             d="M 11.500037,31.436501 C 11.940474,20.09759 22.043105,11.32322 32.158766,21.979434 L 37.068811,17.246167 C 37.068811,17.246167 37.088388,32 37.088388,32 L 22.160133,31.978069 C 22.160133,31.978069 26.997745,27.140456 26.997745,27.140456 C 18.528582,18.264221 13.291696,25.230495 11.500037,31.436501 z"
             style="fill:#404040;"/>
          </a>
         </g>
        </svg>
</svg>
