<?xml version="1.0" encoding="UTF-8" standalone="no"?>
<!DOCTYPE svg PUBLIC "-//W3C//DTD SVG 1.1//EN"
 "http://www.w3.org/Graphics/SVG/1.1/DTD/svg11.dtd">
<!-- Generated by graphviz version 2.40.1 (20161225.0304)
 -->
<!-- Title: /home/bdn_jz/bdn_jz/camera&#45;tracker&#45;cpp/CameraTrackerLinux/include/nlohmann/detail/meta/is_sax.hpp Pages: 1 -->
<svg width="421pt" height="628pt"
 viewBox="0.00 0.00 421.00 628.00" xmlns="http://www.w3.org/2000/svg" xmlns:xlink="http://www.w3.org/1999/xlink">
<g id="graph0" class="graph" transform="scale(1 1) rotate(0) translate(4 624)">
<title>/home/bdn_jz/bdn_jz/camera&#45;tracker&#45;cpp/CameraTrackerLinux/include/nlohmann/detail/meta/is_sax.hpp</title>
<polygon fill="#ffffff" stroke="transparent" points="-4,4 -4,-624 417,-624 417,4 -4,4"/>
<!-- Node21 -->
<g id="node1" class="node">
<title>Node21</title>
<polygon fill="#bfbfbf" stroke="#000000" points="138.5,-556.5 138.5,-619.5 282.5,-619.5 282.5,-556.5 138.5,-556.5"/>
<text text-anchor="start" x="146.5" y="-607.5" font-family="Helvetica,sans-Serif" font-size="10.00" fill="#000000">/home/bdn_jz/bdn_jz</text>
<text text-anchor="start" x="146.5" y="-596.5" font-family="Helvetica,sans-Serif" font-size="10.00" fill="#000000">/camera&#45;tracker&#45;cpp</text>
<text text-anchor="start" x="146.5" y="-585.5" font-family="Helvetica,sans-Serif" font-size="10.00" fill="#000000">/CameraTrackerLinux/include</text>
<text text-anchor="start" x="146.5" y="-574.5" font-family="Helvetica,sans-Serif" font-size="10.00" fill="#000000">/nlohmann/detail/meta/is</text>
<text text-anchor="middle" x="210.5" y="-563.5" font-family="Helvetica,sans-Serif" font-size="10.00" fill="#000000">_sax.hpp</text>
</g>
<!-- Node22 -->
<g id="node2" class="node">
<title>Node22</title>
<g id="a_node2"><a xlink:href="binary__reader_8hpp.html" target="_top" xlink:title="/home/bdn_jz/bdn_jz\l/camera&#45;tracker&#45;cpp\l/CameraTrackerLinux/include\l/nlohmann/detail/input/binary\l_reader.hpp">
<polygon fill="#ffffff" stroke="#000000" points="88.5,-456.5 88.5,-519.5 232.5,-519.5 232.5,-456.5 88.5,-456.5"/>
<text text-anchor="start" x="96.5" y="-507.5" font-family="Helvetica,sans-Serif" font-size="10.00" fill="#000000">/home/bdn_jz/bdn_jz</text>
<text text-anchor="start" x="96.5" y="-496.5" font-family="Helvetica,sans-Serif" font-size="10.00" fill="#000000">/camera&#45;tracker&#45;cpp</text>
<text text-anchor="start" x="96.5" y="-485.5" font-family="Helvetica,sans-Serif" font-size="10.00" fill="#000000">/CameraTrackerLinux/include</text>
<text text-anchor="start" x="96.5" y="-474.5" font-family="Helvetica,sans-Serif" font-size="10.00" fill="#000000">/nlohmann/detail/input/binary</text>
<text text-anchor="middle" x="160.5" y="-463.5" font-family="Helvetica,sans-Serif" font-size="10.00" fill="#000000">_reader.hpp</text>
</a>
</g>
</g>
<!-- Node21&#45;&gt;Node22 -->
<g id="edge1" class="edge">
<title>Node21&#45;&gt;Node22</title>
<path fill="none" stroke="#191970" d="M190.1811,-547.3622C185.5854,-538.1709 180.7709,-528.5418 176.389,-519.778"/>
<polygon fill="#191970" stroke="#191970" points="187.077,-548.9804 194.6797,-556.3594 193.338,-545.8498 187.077,-548.9804"/>
</g>
<!-- Node29 -->
<g id="node9" class="node">
<title>Node29</title>
<g id="a_node9"><a xlink:href="parser_8hpp.html" target="_top" xlink:title="/home/bdn_jz/bdn_jz\l/camera&#45;tracker&#45;cpp\l/CameraTrackerLinux/include\l/nlohmann/detail/input/parser.hpp">
<polygon fill="#ffffff" stroke="#000000" points="252,-362 252,-414 413,-414 413,-362 252,-362"/>
<text text-anchor="start" x="260" y="-402" font-family="Helvetica,sans-Serif" font-size="10.00" fill="#000000">/home/bdn_jz/bdn_jz</text>
<text text-anchor="start" x="260" y="-391" font-family="Helvetica,sans-Serif" font-size="10.00" fill="#000000">/camera&#45;tracker&#45;cpp</text>
<text text-anchor="start" x="260" y="-380" font-family="Helvetica,sans-Serif" font-size="10.00" fill="#000000">/CameraTrackerLinux/include</text>
<text text-anchor="middle" x="332.5" y="-369" font-family="Helvetica,sans-Serif" font-size="10.00" fill="#000000">/nlohmann/detail/input/parser.hpp</text>
</a>
</g>
</g>
<!-- Node21&#45;&gt;Node29 -->
<g id="edge10" class="edge">
<title>Node21&#45;&gt;Node29</title>
<path fill="none" stroke="#191970" d="M235.1231,-547.6343C259.4165,-507.809 295.8373,-448.1028 316.5638,-414.1249"/>
<polygon fill="#191970" stroke="#191970" points="232.0509,-545.9497 229.8313,-556.3094 238.0269,-549.595 232.0509,-545.9497"/>
</g>
<!-- Node23 -->
<g id="node3" class="node">
<title>Node23</title>
<g id="a_node3"><a xlink:href="json_8hpp.html" target="_top" xlink:title="/home/bdn_jz/bdn_jz\l/camera&#45;tracker&#45;cpp\l/CameraTrackerLinux/include\l/nlohmann/json.hpp">
<polygon fill="#ffffff" stroke="#000000" points="83.5,-178.5 83.5,-230.5 227.5,-230.5 227.5,-178.5 83.5,-178.5"/>
<text text-anchor="start" x="91.5" y="-218.5" font-family="Helvetica,sans-Serif" font-size="10.00" fill="#000000">/home/bdn_jz/bdn_jz</text>
<text text-anchor="start" x="91.5" y="-207.5" font-family="Helvetica,sans-Serif" font-size="10.00" fill="#000000">/camera&#45;tracker&#45;cpp</text>
<text text-anchor="start" x="91.5" y="-196.5" font-family="Helvetica,sans-Serif" font-size="10.00" fill="#000000">/CameraTrackerLinux/include</text>
<text text-anchor="middle" x="155.5" y="-185.5" font-family="Helvetica,sans-Serif" font-size="10.00" fill="#000000">/nlohmann/json.hpp</text>
</a>
</g>
</g>
<!-- Node22&#45;&gt;Node23 -->
<g id="edge2" class="edge">
<title>Node22&#45;&gt;Node23</title>
<path fill="none" stroke="#191970" d="M99.7456,-449.4454C90.735,-440.9016 82.7314,-431.0489 77.5,-420 47.8824,-357.4467 73.9306,-328.0685 106.5,-267 113.3128,-254.2259 122.7801,-241.4163 131.5783,-230.7493"/>
<polygon fill="#191970" stroke="#191970" points="97.7024,-452.3107 107.5127,-456.3118 102.3388,-447.0662 97.7024,-452.3107"/>
</g>
<!-- Node27 -->
<g id="node7" class="node">
<title>Node27</title>
<g id="a_node7"><a xlink:href="binary__writer_8hpp.html" target="_top" xlink:title="/home/bdn_jz/bdn_jz\l/camera&#45;tracker&#45;cpp\l/CameraTrackerLinux/include\l/nlohmann/detail/output/binary\l_writer.hpp">
<polygon fill="#ffffff" stroke="#000000" points="87,-356.5 87,-419.5 234,-419.5 234,-356.5 87,-356.5"/>
<text text-anchor="start" x="95" y="-407.5" font-family="Helvetica,sans-Serif" font-size="10.00" fill="#000000">/home/bdn_jz/bdn_jz</text>
<text text-anchor="start" x="95" y="-396.5" font-family="Helvetica,sans-Serif" font-size="10.00" fill="#000000">/camera&#45;tracker&#45;cpp</text>
<text text-anchor="start" x="95" y="-385.5" font-family="Helvetica,sans-Serif" font-size="10.00" fill="#000000">/CameraTrackerLinux/include</text>
<text text-anchor="start" x="95" y="-374.5" font-family="Helvetica,sans-Serif" font-size="10.00" fill="#000000">/nlohmann/detail/output/binary</text>
<text text-anchor="middle" x="160.5" y="-363.5" font-family="Helvetica,sans-Serif" font-size="10.00" fill="#000000">_writer.hpp</text>
</a>
</g>
</g>
<!-- Node22&#45;&gt;Node27 -->
<g id="edge6" class="edge">
<title>Node22&#45;&gt;Node27</title>
<path fill="none" stroke="#191970" d="M160.5,-446.2111C160.5,-437.37 160.5,-428.1767 160.5,-419.778"/>
<polygon fill="#191970" stroke="#191970" points="157.0001,-446.3593 160.5,-456.3594 164.0001,-446.3594 157.0001,-446.3593"/>
</g>
<!-- Node24 -->
<g id="node4" class="node">
<title>Node24</title>
<g id="a_node4"><a xlink:href="_json_utilization_8h.html" target="_top" xlink:title="This file contains the declaration of the namespace jsonUtilization. ">
<polygon fill="#ffffff" stroke="#000000" points="83.5,-89.5 83.5,-141.5 227.5,-141.5 227.5,-89.5 83.5,-89.5"/>
<text text-anchor="start" x="91.5" y="-129.5" font-family="Helvetica,sans-Serif" font-size="10.00" fill="#000000">/home/bdn_jz/bdn_jz</text>
<text text-anchor="start" x="91.5" y="-118.5" font-family="Helvetica,sans-Serif" font-size="10.00" fill="#000000">/camera&#45;tracker&#45;cpp</text>
<text text-anchor="start" x="91.5" y="-107.5" font-family="Helvetica,sans-Serif" font-size="10.00" fill="#000000">/CameraTrackerLinux/include</text>
<text text-anchor="middle" x="155.5" y="-96.5" font-family="Helvetica,sans-Serif" font-size="10.00" fill="#000000">/JsonUtilization.h</text>
</a>
</g>
</g>
<!-- Node23&#45;&gt;Node24 -->
<g id="edge3" class="edge">
<title>Node23&#45;&gt;Node24</title>
<path fill="none" stroke="#191970" d="M155.5,-168.1155C155.5,-159.2061 155.5,-149.8475 155.5,-141.5341"/>
<polygon fill="#191970" stroke="#191970" points="152.0001,-168.2784 155.5,-178.2784 159.0001,-168.2785 152.0001,-168.2784"/>
</g>
<!-- Node25 -->
<g id="node5" class="node">
<title>Node25</title>
<g id="a_node5"><a xlink:href="main_8cpp.html" target="_top" xlink:title="/home/bdn_jz/bdn_jz\l/camera&#45;tracker&#45;cpp\l/CameraTrackerLinux/main.cpp">
<polygon fill="#ffffff" stroke="#000000" points="0,-6 0,-47 153,-47 153,-6 0,-6"/>
<text text-anchor="start" x="8" y="-35" font-family="Helvetica,sans-Serif" font-size="10.00" fill="#000000">/home/bdn_jz/bdn_jz</text>
<text text-anchor="start" x="8" y="-24" font-family="Helvetica,sans-Serif" font-size="10.00" fill="#000000">/camera&#45;tracker&#45;cpp</text>
<text text-anchor="middle" x="76.5" y="-13" font-family="Helvetica,sans-Serif" font-size="10.00" fill="#000000">/CameraTrackerLinux/main.cpp</text>
</a>
</g>
</g>
<!-- Node24&#45;&gt;Node25 -->
<g id="edge4" class="edge">
<title>Node24&#45;&gt;Node25</title>
<path fill="none" stroke="#191970" d="M125.3019,-81.4794C115.0447,-69.9238 103.9001,-57.3685 94.8538,-47.1771"/>
<polygon fill="#191970" stroke="#191970" points="122.9687,-84.1231 132.2247,-89.2784 128.2038,-79.4762 122.9687,-84.1231"/>
</g>
<!-- Node26 -->
<g id="node6" class="node">
<title>Node26</title>
<g id="a_node6"><a xlink:href="_json_utilization_8cpp.html" target="_top" xlink:title="/home/bdn_jz/bdn_jz\l/camera&#45;tracker&#45;cpp\l/CameraTrackerLinux/src\l/JsonUtilization.cpp">
<polygon fill="#ffffff" stroke="#000000" points="171,-.5 171,-52.5 298,-52.5 298,-.5 171,-.5"/>
<text text-anchor="start" x="179" y="-40.5" font-family="Helvetica,sans-Serif" font-size="10.00" fill="#000000">/home/bdn_jz/bdn_jz</text>
<text text-anchor="start" x="179" y="-29.5" font-family="Helvetica,sans-Serif" font-size="10.00" fill="#000000">/camera&#45;tracker&#45;cpp</text>
<text text-anchor="start" x="179" y="-18.5" font-family="Helvetica,sans-Serif" font-size="10.00" fill="#000000">/CameraTrackerLinux/src</text>
<text text-anchor="middle" x="234.5" y="-7.5" font-family="Helvetica,sans-Serif" font-size="10.00" fill="#000000">/JsonUtilization.cpp</text>
</a>
</g>
</g>
<!-- Node24&#45;&gt;Node26 -->
<g id="edge5" class="edge">
<title>Node24&#45;&gt;Node26</title>
<path fill="none" stroke="#191970" d="M185.4881,-81.7159C194.0705,-72.0472 203.2899,-61.6608 211.391,-52.5341"/>
<polygon fill="#191970" stroke="#191970" points="182.7962,-79.4762 178.7753,-89.2784 188.0313,-84.1231 182.7962,-79.4762"/>
</g>
<!-- Node27&#45;&gt;Node23 -->
<g id="edge7" class="edge">
<title>Node27&#45;&gt;Node23</title>
<path fill="none" stroke="#191970" d="M128.5583,-347.9615C123.1809,-339.2084 118.4065,-329.6587 115.5,-320 108.7123,-297.4436 108.8849,-289.6076 115.5,-267 119.2987,-254.0176 126.7104,-241.1705 134.1323,-230.5318"/>
<polygon fill="#191970" stroke="#191970" points="125.6887,-349.9685 134.0899,-356.4238 131.548,-346.1384 125.6887,-349.9685"/>
</g>
<!-- Node28 -->
<g id="node8" class="node">
<title>Node28</title>
<g id="a_node8"><a xlink:href="serializer_8hpp.html" target="_top" xlink:title="/home/bdn_jz/bdn_jz\l/camera&#45;tracker&#45;cpp\l/CameraTrackerLinux/include\l/nlohmann/detail/output/serializer.hpp">
<polygon fill="#ffffff" stroke="#000000" points="125,-267.5 125,-319.5 304,-319.5 304,-267.5 125,-267.5"/>
<text text-anchor="start" x="133" y="-307.5" font-family="Helvetica,sans-Serif" font-size="10.00" fill="#000000">/home/bdn_jz/bdn_jz</text>
<text text-anchor="start" x="133" y="-296.5" font-family="Helvetica,sans-Serif" font-size="10.00" fill="#000000">/camera&#45;tracker&#45;cpp</text>
<text text-anchor="start" x="133" y="-285.5" font-family="Helvetica,sans-Serif" font-size="10.00" fill="#000000">/CameraTrackerLinux/include</text>
<text text-anchor="middle" x="214.5" y="-274.5" font-family="Helvetica,sans-Serif" font-size="10.00" fill="#000000">/nlohmann/detail/output/serializer.hpp</text>
</a>
</g>
</g>
<!-- Node27&#45;&gt;Node28 -->
<g id="edge8" class="edge">
<title>Node27&#45;&gt;Node28</title>
<path fill="none" stroke="#191970" d="M183.6936,-347.4112C189.069,-338.0043 194.6497,-328.238 199.5605,-319.6442"/>
<polygon fill="#191970" stroke="#191970" points="180.554,-345.851 178.6314,-356.27 186.6317,-349.324 180.554,-345.851"/>
</g>
<!-- Node28&#45;&gt;Node23 -->
<g id="edge9" class="edge">
<title>Node28&#45;&gt;Node23</title>
<path fill="none" stroke="#191970" d="M191.5314,-258.8525C185.2859,-249.4313 178.6291,-239.3897 172.7586,-230.5341"/>
<polygon fill="#191970" stroke="#191970" points="188.6745,-260.8774 197.1172,-267.2784 194.509,-257.0096 188.6745,-260.8774"/>
</g>
<!-- Node29&#45;&gt;Node23 -->
<g id="edge11" class="edge">
<title>Node29&#45;&gt;Node23</title>
<path fill="none" stroke="#191970" d="M335.4132,-351.608C335.5628,-325.3902 331.5124,-290.6135 312.5,-267 291.6176,-241.064 258.391,-225.8405 227.8707,-216.9286"/>
<polygon fill="#191970" stroke="#191970" points="331.9065,-351.8164 335.1403,-361.9056 338.9041,-352.0019 331.9065,-351.8164"/>
</g>
</g>
</svg>
