<?xml version="1.0" encoding="UTF-8" standalone="no"?>
<!DOCTYPE svg PUBLIC "-//W3C//DTD SVG 1.1//EN"
 "http://www.w3.org/Graphics/SVG/1.1/DTD/svg11.dtd">
<!-- Generated by graphviz version 2.40.1 (20161225.0304)
 -->
<!-- Title: /home/bdn_jz/bdn_jz/camera&#45;tracker&#45;cpp/CameraTrackerLinux/include/nlohmann/detail/iterators/iteration_proxy.hpp Pages: 1 -->
<svg width="1103pt" height="329pt"
 viewBox="0.00 0.00 1103.41 329.00" xmlns="http://www.w3.org/2000/svg" xmlns:xlink="http://www.w3.org/1999/xlink">
<g id="graph0" class="graph" transform="scale(1 1) rotate(0) translate(4 325)">
<title>/home/bdn_jz/bdn_jz/camera&#45;tracker&#45;cpp/CameraTrackerLinux/include/nlohmann/detail/iterators/iteration_proxy.hpp</title>
<polygon fill="#ffffff" stroke="transparent" points="-4,4 -4,-325 1099.4063,-325 1099.4063,4 -4,4"/>
<!-- Node0 -->
<g id="node1" class="node">
<title>Node0</title>
<polygon fill="#bfbfbf" stroke="#000000" points="501.4514,-257.5 501.4514,-320.5 645.4514,-320.5 645.4514,-257.5 501.4514,-257.5"/>
<text text-anchor="start" x="509.4514" y="-308.5" font-family="Helvetica,sans-Serif" font-size="10.00" fill="#000000">/home/bdn_jz/bdn_jz</text>
<text text-anchor="start" x="509.4514" y="-297.5" font-family="Helvetica,sans-Serif" font-size="10.00" fill="#000000">/camera&#45;tracker&#45;cpp</text>
<text text-anchor="start" x="509.4514" y="-286.5" font-family="Helvetica,sans-Serif" font-size="10.00" fill="#000000">/CameraTrackerLinux/include</text>
<text text-anchor="start" x="509.4514" y="-275.5" font-family="Helvetica,sans-Serif" font-size="10.00" fill="#000000">/nlohmann/detail/iterators</text>
<text text-anchor="middle" x="573.4514" y="-264.5" font-family="Helvetica,sans-Serif" font-size="10.00" fill="#000000">/iteration_proxy.hpp</text>
</g>
<!-- Node1 -->
<g id="node2" class="node">
<title>Node1</title>
<polygon fill="#ffffff" stroke="#bfbfbf" points="314.9514,-.5 314.9514,-19.5 363.9514,-19.5 363.9514,-.5 314.9514,-.5"/>
<text text-anchor="middle" x="339.4514" y="-7.5" font-family="Helvetica,sans-Serif" font-size="10.00" fill="#000000">cstddef</text>
</g>
<!-- Node0&#45;&gt;Node1 -->
<g id="edge1" class="edge">
<title>Node0&#45;&gt;Node1</title>
<path fill="none" stroke="#191970" d="M501.3199,-276.6375C391.2407,-256.1367 189.6151,-211.592 147.4514,-154 121.7222,-118.8561 120.4784,-90.1986 147.4514,-56 166.6741,-31.6279 254.8009,-18.7169 304.7123,-13.249"/>
<polygon fill="#191970" stroke="#191970" points="305.1653,-16.7208 314.7442,-12.1938 304.4329,-9.7592 305.1653,-16.7208"/>
</g>
<!-- Node2 -->
<g id="node3" class="node">
<title>Node2</title>
<polygon fill="#ffffff" stroke="#bfbfbf" points="14.9514,-62 14.9514,-81 61.9514,-81 61.9514,-62 14.9514,-62"/>
<text text-anchor="middle" x="38.4514" y="-69" font-family="Helvetica,sans-Serif" font-size="10.00" fill="#000000">iterator</text>
</g>
<!-- Node0&#45;&gt;Node2 -->
<g id="edge2" class="edge">
<title>Node0&#45;&gt;Node2</title>
<path fill="none" stroke="#191970" d="M501.0738,-286.2535C387.7047,-280.6546 174.9338,-264.525 114.4514,-221 70.2681,-189.2043 50.0852,-124.1152 42.4124,-91.319"/>
<polygon fill="#191970" stroke="#191970" points="45.7504,-90.1983 40.2013,-81.1729 38.9109,-91.6888 45.7504,-90.1983"/>
</g>
<!-- Node3 -->
<g id="node4" class="node">
<title>Node3</title>
<polygon fill="#ffffff" stroke="#bfbfbf" points="840.9514,-62 840.9514,-81 881.9514,-81 881.9514,-62 840.9514,-62"/>
<text text-anchor="middle" x="861.4514" y="-69" font-family="Helvetica,sans-Serif" font-size="10.00" fill="#000000">string</text>
</g>
<!-- Node0&#45;&gt;Node3 -->
<g id="edge3" class="edge">
<title>Node0&#45;&gt;Node3</title>
<path fill="none" stroke="#191970" d="M645.6641,-271.3677C707.1833,-252.5696 793.2176,-216.656 842.4514,-154 856.5977,-135.9971 860.5631,-109.3559 861.4998,-91.2554"/>
<polygon fill="#191970" stroke="#191970" points="865.0049,-91.0907 861.7552,-81.0066 858.0071,-90.9163 865.0049,-91.0907"/>
</g>
<!-- Node4 -->
<g id="node5" class="node">
<title>Node4</title>
<polygon fill="#ffffff" stroke="#bfbfbf" points="600.4514,-196 600.4514,-215 638.4514,-215 638.4514,-196 600.4514,-196"/>
<text text-anchor="middle" x="619.4514" y="-203" font-family="Helvetica,sans-Serif" font-size="10.00" fill="#000000">tuple</text>
</g>
<!-- Node0&#45;&gt;Node4 -->
<g id="edge4" class="edge">
<title>Node0&#45;&gt;Node4</title>
<path fill="none" stroke="#191970" d="M590.842,-257.4322C597.0245,-246.2097 603.7828,-233.9419 609.1778,-224.1489"/>
<polygon fill="#191970" stroke="#191970" points="612.2867,-225.7589 614.0464,-215.3112 606.1555,-222.3812 612.2867,-225.7589"/>
</g>
<!-- Node5 -->
<g id="node6" class="node">
<title>Node5</title>
<g id="a_node6"><a xlink:href="type__traits_8hpp.html" target="_top" xlink:title="nlohmann/detail/meta\l/type_traits.hpp">
<polygon fill="#ffffff" stroke="#000000" points="472.4514,-190.5 472.4514,-220.5 582.4514,-220.5 582.4514,-190.5 472.4514,-190.5"/>
<text text-anchor="start" x="480.4514" y="-208.5" font-family="Helvetica,sans-Serif" font-size="10.00" fill="#000000">nlohmann/detail/meta</text>
<text text-anchor="middle" x="527.4514" y="-197.5" font-family="Helvetica,sans-Serif" font-size="10.00" fill="#000000">/type_traits.hpp</text>
</a>
</g>
</g>
<!-- Node0&#45;&gt;Node5 -->
<g id="edge5" class="edge">
<title>Node0&#45;&gt;Node5</title>
<path fill="none" stroke="#191970" d="M556.0608,-257.4322C550.9787,-248.2072 545.5075,-238.2757 540.7243,-229.5932"/>
<polygon fill="#191970" stroke="#191970" points="543.7459,-227.8245 535.8551,-220.7545 537.6147,-231.2022 543.7459,-227.8245"/>
</g>
<!-- Node22 -->
<g id="node23" class="node">
<title>Node22</title>
<g id="a_node23"><a xlink:href="value__t_8hpp.html" target="_top" xlink:title="nlohmann/detail/value\l_t.hpp">
<polygon fill="#ffffff" stroke="#000000" points="904.9514,-123.5 904.9514,-153.5 1015.9514,-153.5 1015.9514,-123.5 904.9514,-123.5"/>
<text text-anchor="start" x="912.9514" y="-141.5" font-family="Helvetica,sans-Serif" font-size="10.00" fill="#000000">nlohmann/detail/value</text>
<text text-anchor="middle" x="960.4514" y="-130.5" font-family="Helvetica,sans-Serif" font-size="10.00" fill="#000000">_t.hpp</text>
</a>
</g>
</g>
<!-- Node0&#45;&gt;Node22 -->
<g id="edge31" class="edge">
<title>Node0&#45;&gt;Node22</title>
<path fill="none" stroke="#191970" d="M645.6544,-283.8379C709.3847,-276.7772 803.1321,-260.1309 875.4514,-221 902.7082,-206.2517 927.3297,-180.2783 942.9732,-161.4063"/>
<polygon fill="#191970" stroke="#191970" points="945.753,-163.5348 949.3077,-153.5541 940.3048,-159.1397 945.753,-163.5348"/>
</g>
<!-- Node6 -->
<g id="node7" class="node">
<title>Node6</title>
<polygon fill="#ffffff" stroke="#bfbfbf" points="987.4514,-.5 987.4514,-19.5 1037.4514,-19.5 1037.4514,-.5 987.4514,-.5"/>
<text text-anchor="middle" x="1012.4514" y="-7.5" font-family="Helvetica,sans-Serif" font-size="10.00" fill="#000000">ciso646</text>
</g>
<!-- Node5&#45;&gt;Node6 -->
<g id="edge6" class="edge">
<title>Node5&#45;&gt;Node6</title>
<path fill="none" stroke="#191970" d="M582.4993,-191.5952C585.5186,-191.0118 588.517,-190.4741 591.4514,-190 686.9881,-174.5641 938.4557,-196.3944 1025.4514,-154 1071.783,-131.4218 1112.6263,-100.9735 1087.4514,-56 1078.6777,-40.3263 1062.1392,-29.3459 1046.8207,-22.0543"/>
<polygon fill="#191970" stroke="#191970" points="1048.0849,-18.7871 1037.5207,-17.9819 1045.277,-25.1993 1048.0849,-18.7871"/>
</g>
<!-- Node7 -->
<g id="node8" class="node">
<title>Node7</title>
<polygon fill="#ffffff" stroke="#bfbfbf" points="793.4514,-129 793.4514,-148 833.4514,-148 833.4514,-129 793.4514,-129"/>
<text text-anchor="middle" x="813.4514" y="-136" font-family="Helvetica,sans-Serif" font-size="10.00" fill="#000000">limits</text>
</g>
<!-- Node5&#45;&gt;Node7 -->
<g id="edge7" class="edge">
<title>Node5&#45;&gt;Node7</title>
<path fill="none" stroke="#191970" d="M582.5675,-191.9581C585.5692,-191.281 588.5452,-190.6239 591.4514,-190 676.3375,-171.7758 701.3472,-182.2255 783.4514,-154 784.872,-153.5116 786.3089,-152.9657 787.7444,-152.3787"/>
<polygon fill="#191970" stroke="#191970" points="789.4133,-155.4629 797.0141,-148.0819 786.4694,-149.112 789.4133,-155.4629"/>
</g>
<!-- Node8 -->
<g id="node9" class="node">
<title>Node8</title>
<polygon fill="#ffffff" stroke="#bfbfbf" points="59.4514,-.5 59.4514,-19.5 121.4514,-19.5 121.4514,-.5 59.4514,-.5"/>
<text text-anchor="middle" x="90.4514" y="-7.5" font-family="Helvetica,sans-Serif" font-size="10.00" fill="#000000">type_traits</text>
</g>
<!-- Node5&#45;&gt;Node8 -->
<g id="edge8" class="edge">
<title>Node5&#45;&gt;Node8</title>
<path fill="none" stroke="#191970" d="M472.4454,-202.3643C348.7345,-193.9465 55.4543,-165.8823 5.4514,-87 -1.9251,-75.3632 -1.6012,-67.8359 5.4514,-56 15.1443,-39.7332 32.8093,-28.869 49.5342,-21.8052"/>
<polygon fill="#191970" stroke="#191970" points="51.136,-24.9387 59.2055,-18.0733 48.616,-18.4081 51.136,-24.9387"/>
</g>
<!-- Node9 -->
<g id="node10" class="node">
<title>Node9</title>
<polygon fill="#ffffff" stroke="#bfbfbf" points="596.4514,-62 596.4514,-81 636.4514,-81 636.4514,-62 596.4514,-62"/>
<text text-anchor="middle" x="616.4514" y="-69" font-family="Helvetica,sans-Serif" font-size="10.00" fill="#000000">utility</text>
</g>
<!-- Node5&#45;&gt;Node9 -->
<g id="edge9" class="edge">
<title>Node5&#45;&gt;Node9</title>
<path fill="none" stroke="#191970" d="M553.9999,-190.4875C567.6259,-181.5258 583.4241,-168.9749 593.4514,-154 606.2025,-134.9573 611.9367,-108.9396 614.4812,-91.2484"/>
<polygon fill="#191970" stroke="#191970" points="617.9685,-91.5656 615.7111,-81.214 611.0204,-90.7139 617.9685,-91.5656"/>
</g>
<!-- Node10 -->
<g id="node11" class="node">
<title>Node10</title>
<g id="a_node11"><a xlink:href="iterator__traits_8hpp.html" target="_top" xlink:title="nlohmann/detail/iterators\l/iterator_traits.hpp">
<polygon fill="#ffffff" stroke="#000000" points="284.9514,-123.5 284.9514,-153.5 407.9514,-153.5 407.9514,-123.5 284.9514,-123.5"/>
<text text-anchor="start" x="292.9514" y="-141.5" font-family="Helvetica,sans-Serif" font-size="10.00" fill="#000000">nlohmann/detail/iterators</text>
<text text-anchor="middle" x="346.4514" y="-130.5" font-family="Helvetica,sans-Serif" font-size="10.00" fill="#000000">/iterator_traits.hpp</text>
</a>
</g>
</g>
<!-- Node5&#45;&gt;Node10 -->
<g id="edge10" class="edge">
<title>Node5&#45;&gt;Node10</title>
<path fill="none" stroke="#191970" d="M486.8315,-190.4639C460.2594,-180.6278 425.3441,-167.7034 396.9826,-157.2049"/>
<polygon fill="#191970" stroke="#191970" points="397.8416,-153.7909 387.2485,-153.6017 395.4116,-160.3555 397.8416,-153.7909"/>
</g>
<!-- Node12 -->
<g id="node13" class="node">
<title>Node12</title>
<g id="a_node13"><a xlink:href="cpp__future_8hpp.html" target="_top" xlink:title="nlohmann/detail/meta\l/cpp_future.hpp">
<polygon fill="#ffffff" stroke="#000000" points="284.4514,-56.5 284.4514,-86.5 394.4514,-86.5 394.4514,-56.5 284.4514,-56.5"/>
<text text-anchor="start" x="292.4514" y="-74.5" font-family="Helvetica,sans-Serif" font-size="10.00" fill="#000000">nlohmann/detail/meta</text>
<text text-anchor="middle" x="339.4514" y="-63.5" font-family="Helvetica,sans-Serif" font-size="10.00" fill="#000000">/cpp_future.hpp</text>
</a>
</g>
</g>
<!-- Node5&#45;&gt;Node12 -->
<g id="edge21" class="edge">
<title>Node5&#45;&gt;Node12</title>
<path fill="none" stroke="#191970" d="M507.6177,-190.2941C485.5789,-173.5072 448.8252,-145.836 416.4514,-123 401.6503,-112.5595 384.9692,-101.3377 370.927,-92.0427"/>
<polygon fill="#191970" stroke="#191970" points="372.8402,-89.1119 362.5652,-86.5286 368.9866,-94.9557 372.8402,-89.1119"/>
</g>
<!-- Node13 -->
<g id="node14" class="node">
<title>Node13</title>
<g id="a_node14"><a xlink:href="macro__scope_8hpp.html" target="_top" xlink:title="nlohmann/detail/macro\l_scope.hpp">
<polygon fill="#ffffff" stroke="#000000" points="469.9514,-123.5 469.9514,-153.5 584.9514,-153.5 584.9514,-123.5 469.9514,-123.5"/>
<text text-anchor="start" x="477.9514" y="-141.5" font-family="Helvetica,sans-Serif" font-size="10.00" fill="#000000">nlohmann/detail/macro</text>
<text text-anchor="middle" x="527.4514" y="-130.5" font-family="Helvetica,sans-Serif" font-size="10.00" fill="#000000">_scope.hpp</text>
</a>
</g>
</g>
<!-- Node5&#45;&gt;Node13 -->
<g id="edge17" class="edge">
<title>Node5&#45;&gt;Node13</title>
<path fill="none" stroke="#191970" d="M527.4514,-190.2967C527.4514,-182.5013 527.4514,-172.7991 527.4514,-163.9064"/>
<polygon fill="#191970" stroke="#191970" points="530.9515,-163.6431 527.4514,-153.6432 523.9515,-163.6432 530.9515,-163.6431"/>
</g>
<!-- Node16 -->
<g id="node17" class="node">
<title>Node16</title>
<g id="a_node17"><a xlink:href="detected_8hpp.html" target="_top" xlink:title="nlohmann/detail/meta\l/detected.hpp">
<polygon fill="#ffffff" stroke="#000000" points="156.4514,-123.5 156.4514,-153.5 266.4514,-153.5 266.4514,-123.5 156.4514,-123.5"/>
<text text-anchor="start" x="164.4514" y="-141.5" font-family="Helvetica,sans-Serif" font-size="10.00" fill="#000000">nlohmann/detail/meta</text>
<text text-anchor="middle" x="211.4514" y="-130.5" font-family="Helvetica,sans-Serif" font-size="10.00" fill="#000000">/detected.hpp</text>
</a>
</g>
</g>
<!-- Node5&#45;&gt;Node16 -->
<g id="edge22" class="edge">
<title>Node5&#45;&gt;Node16</title>
<path fill="none" stroke="#191970" d="M472.2716,-194.8173C423.3326,-185.2081 349.6679,-170.4163 276.4386,-154.1801"/>
<polygon fill="#191970" stroke="#191970" points="277.1017,-150.7421 266.58,-151.9848 275.5802,-157.5748 277.1017,-150.7421"/>
</g>
<!-- Node17 -->
<g id="node18" class="node">
<title>Node17</title>
<g id="a_node18"><a xlink:href="json__fwd_8hpp.html" target="_top" xlink:title="nlohmann/json_fwd.hpp">
<polygon fill="#ffffff" stroke="#000000" points="655.9514,-129 655.9514,-148 774.9514,-148 774.9514,-129 655.9514,-129"/>
<text text-anchor="middle" x="715.4514" y="-136" font-family="Helvetica,sans-Serif" font-size="10.00" fill="#000000">nlohmann/json_fwd.hpp</text>
</a>
</g>
</g>
<!-- Node5&#45;&gt;Node17 -->
<g id="edge25" class="edge">
<title>Node5&#45;&gt;Node17</title>
<path fill="none" stroke="#191970" d="M569.6423,-190.4639C602.5628,-178.7316 647.8124,-162.6054 679.1334,-151.4431"/>
<polygon fill="#191970" stroke="#191970" points="680.5351,-154.6593 688.7798,-148.0053 678.1852,-148.0655 680.5351,-154.6593"/>
</g>
<!-- Node10&#45;&gt;Node2 -->
<g id="edge11" class="edge">
<title>Node10&#45;&gt;Node2</title>
<path fill="none" stroke="#191970" d="M284.8786,-125.0542C281.6904,-124.3592 278.5333,-123.6713 275.4514,-123 202.9314,-107.2048 117.9162,-88.7449 71.9951,-78.7784"/>
<polygon fill="#191970" stroke="#191970" points="72.5149,-75.3098 62.0001,-76.6093 71.0303,-82.1505 72.5149,-75.3098"/>
</g>
<!-- Node11 -->
<g id="node12" class="node">
<title>Node11</title>
<g id="a_node12"><a xlink:href="void__t_8hpp.html" target="_top" xlink:title="nlohmann/detail/meta\l/void_t.hpp">
<polygon fill="#ffffff" stroke="#000000" points="156.4514,-56.5 156.4514,-86.5 266.4514,-86.5 266.4514,-56.5 156.4514,-56.5"/>
<text text-anchor="start" x="164.4514" y="-74.5" font-family="Helvetica,sans-Serif" font-size="10.00" fill="#000000">nlohmann/detail/meta</text>
<text text-anchor="middle" x="211.4514" y="-63.5" font-family="Helvetica,sans-Serif" font-size="10.00" fill="#000000">/void_t.hpp</text>
</a>
</g>
</g>
<!-- Node10&#45;&gt;Node11 -->
<g id="edge12" class="edge">
<title>Node10&#45;&gt;Node11</title>
<path fill="none" stroke="#191970" d="M316.1548,-123.4639C297.009,-113.9619 272.0561,-101.5779 251.3126,-91.283"/>
<polygon fill="#191970" stroke="#191970" points="252.6275,-88.0282 242.114,-86.7177 249.5155,-94.2985 252.6275,-88.0282"/>
</g>
<!-- Node10&#45;&gt;Node12 -->
<g id="edge13" class="edge">
<title>Node10&#45;&gt;Node12</title>
<path fill="none" stroke="#191970" d="M344.863,-123.2967C344.0396,-115.4156 343.0126,-105.5857 342.0752,-96.6135"/>
<polygon fill="#191970" stroke="#191970" points="345.5538,-96.2253 341.0335,-86.6432 338.5917,-96.9528 345.5538,-96.2253"/>
</g>
<!-- Node12&#45;&gt;Node1 -->
<g id="edge15" class="edge">
<title>Node12&#45;&gt;Node1</title>
<path fill="none" stroke="#191970" d="M339.4514,-56.2977C339.4514,-48.3834 339.4514,-38.6043 339.4514,-30.0759"/>
<polygon fill="#191970" stroke="#191970" points="342.9515,-29.8469 339.4514,-19.8469 335.9515,-29.847 342.9515,-29.8469"/>
</g>
<!-- Node12&#45;&gt;Node6 -->
<g id="edge14" class="edge">
<title>Node12&#45;&gt;Node6</title>
<path fill="none" stroke="#191970" d="M394.4951,-57.5691C397.5155,-56.9924 400.5153,-56.4633 403.4514,-56 619.7701,-21.8667 883.4494,-12.8683 977.262,-10.6654"/>
<polygon fill="#191970" stroke="#191970" points="977.42,-14.1628 987.3392,-10.4399 977.2633,-7.1646 977.42,-14.1628"/>
</g>
<!-- Node12&#45;&gt;Node8 -->
<g id="edge16" class="edge">
<title>Node12&#45;&gt;Node8</title>
<path fill="none" stroke="#191970" d="M284.1902,-57.8512C237.9957,-46.4417 173.154,-30.4265 131.4683,-20.1307"/>
<polygon fill="#191970" stroke="#191970" points="132.2003,-16.7064 121.6527,-17.7064 130.5217,-23.5021 132.2003,-16.7064"/>
</g>
<!-- Node13&#45;&gt;Node9 -->
<g id="edge18" class="edge">
<title>Node13&#45;&gt;Node9</title>
<path fill="none" stroke="#191970" d="M547.6469,-123.2967C561.9174,-112.5537 580.9982,-98.1895 595.4462,-87.3129"/>
<polygon fill="#191970" stroke="#191970" points="597.8748,-89.8656 603.759,-81.055 593.6647,-84.2731 597.8748,-89.8656"/>
</g>
<!-- Node14 -->
<g id="node15" class="node">
<title>Node14</title>
<polygon fill="#ffffff" stroke="#bfbfbf" points="476.4514,-56.5 476.4514,-86.5 578.4514,-86.5 578.4514,-56.5 476.4514,-56.5"/>
<text text-anchor="start" x="484.4514" y="-74.5" font-family="Helvetica,sans-Serif" font-size="10.00" fill="#000000">nlohmann/thirdparty</text>
<text text-anchor="middle" x="527.4514" y="-63.5" font-family="Helvetica,sans-Serif" font-size="10.00" fill="#000000">/hedley/hedley.hpp</text>
</g>
<!-- Node13&#45;&gt;Node14 -->
<g id="edge19" class="edge">
<title>Node13&#45;&gt;Node14</title>
<path fill="none" stroke="#191970" d="M527.4514,-123.2967C527.4514,-115.5013 527.4514,-105.7991 527.4514,-96.9064"/>
<polygon fill="#191970" stroke="#191970" points="530.9515,-96.6431 527.4514,-86.6432 523.9515,-96.6432 530.9515,-96.6431"/>
</g>
<!-- Node15 -->
<g id="node16" class="node">
<title>Node15</title>
<polygon fill="#ffffff" stroke="#bfbfbf" points="412.9514,-62 412.9514,-81 457.9514,-81 457.9514,-62 412.9514,-62"/>
<text text-anchor="middle" x="435.4514" y="-69" font-family="Helvetica,sans-Serif" font-size="10.00" fill="#000000">cstdlib</text>
</g>
<!-- Node13&#45;&gt;Node15 -->
<g id="edge20" class="edge">
<title>Node13&#45;&gt;Node15</title>
<path fill="none" stroke="#191970" d="M506.5752,-123.2967C491.6845,-112.4524 471.7271,-97.9182 456.7433,-87.006"/>
<polygon fill="#191970" stroke="#191970" points="458.7157,-84.1127 448.5717,-81.055 454.5948,-89.7712 458.7157,-84.1127"/>
</g>
<!-- Node16&#45;&gt;Node8 -->
<g id="edge23" class="edge">
<title>Node16&#45;&gt;Node8</title>
<path fill="none" stroke="#191970" d="M189.8327,-123.2929C176.8484,-113.6444 160.393,-100.4747 147.4514,-87 129.7305,-68.5491 112.7273,-44.4732 101.9765,-28.1923"/>
<polygon fill="#191970" stroke="#191970" points="104.7881,-26.0951 96.411,-19.6086 98.9146,-29.9034 104.7881,-26.0951"/>
</g>
<!-- Node16&#45;&gt;Node11 -->
<g id="edge24" class="edge">
<title>Node16&#45;&gt;Node11</title>
<path fill="none" stroke="#191970" d="M211.4514,-123.2967C211.4514,-115.5013 211.4514,-105.7991 211.4514,-96.9064"/>
<polygon fill="#191970" stroke="#191970" points="214.9515,-96.6431 211.4514,-86.6432 207.9515,-96.6432 214.9515,-96.6431"/>
</g>
<!-- Node17&#45;&gt;Node3 -->
<g id="edge29" class="edge">
<title>Node17&#45;&gt;Node3</title>
<path fill="none" stroke="#191970" d="M738.3049,-128.8274C761.8323,-118.7592 799.467,-102.3461 831.4514,-87 832.4292,-86.5308 833.4224,-86.0485 834.4236,-85.5575"/>
<polygon fill="#191970" stroke="#191970" points="836.0908,-88.6368 843.453,-81.0178 832.9464,-82.3827 836.0908,-88.6368"/>
</g>
<!-- Node18 -->
<g id="node19" class="node">
<title>Node18</title>
<polygon fill="#ffffff" stroke="#bfbfbf" points="900.4514,-62 900.4514,-81 946.4514,-81 946.4514,-62 900.4514,-62"/>
<text text-anchor="middle" x="923.4514" y="-69" font-family="Helvetica,sans-Serif" font-size="10.00" fill="#000000">cstdint</text>
</g>
<!-- Node17&#45;&gt;Node18 -->
<g id="edge26" class="edge">
<title>Node17&#45;&gt;Node18</title>
<path fill="none" stroke="#191970" d="M754.8687,-128.9746C790.9518,-119.785 845.5544,-104.6893 891.4514,-87 892.8554,-86.4589 894.2821,-85.8803 895.7145,-85.2763"/>
<polygon fill="#191970" stroke="#191970" points="897.3982,-88.3563 905.0695,-81.0486 894.5154,-81.9774 897.3982,-88.3563"/>
</g>
<!-- Node19 -->
<g id="node20" class="node">
<title>Node19</title>
<polygon fill="#ffffff" stroke="#bfbfbf" points="716.9514,-62 716.9514,-81 751.9514,-81 751.9514,-62 716.9514,-62"/>
<text text-anchor="middle" x="734.4514" y="-69" font-family="Helvetica,sans-Serif" font-size="10.00" fill="#000000">map</text>
</g>
<!-- Node17&#45;&gt;Node19 -->
<g id="edge27" class="edge">
<title>Node17&#45;&gt;Node19</title>
<path fill="none" stroke="#191970" d="M718.1736,-128.9005C720.9672,-119.0495 725.3923,-103.4451 728.924,-90.9912"/>
<polygon fill="#191970" stroke="#191970" points="732.3731,-91.6572 731.7342,-81.0817 725.6387,-89.7474 732.3731,-91.6572"/>
</g>
<!-- Node20 -->
<g id="node21" class="node">
<title>Node20</title>
<polygon fill="#ffffff" stroke="#bfbfbf" points="770.4514,-62 770.4514,-81 822.4514,-81 822.4514,-62 770.4514,-62"/>
<text text-anchor="middle" x="796.4514" y="-69" font-family="Helvetica,sans-Serif" font-size="10.00" fill="#000000">memory</text>
</g>
<!-- Node17&#45;&gt;Node20 -->
<g id="edge28" class="edge">
<title>Node17&#45;&gt;Node20</title>
<path fill="none" stroke="#191970" d="M727.0567,-128.9005C740.0489,-118.1539 761.3187,-100.5603 776.8912,-87.6794"/>
<polygon fill="#191970" stroke="#191970" points="779.3928,-90.1524 784.8676,-81.0817 774.9312,-84.7585 779.3928,-90.1524"/>
</g>
<!-- Node21 -->
<g id="node22" class="node">
<title>Node21</title>
<polygon fill="#ffffff" stroke="#bfbfbf" points="654.4514,-62 654.4514,-81 698.4514,-81 698.4514,-62 654.4514,-62"/>
<text text-anchor="middle" x="676.4514" y="-69" font-family="Helvetica,sans-Serif" font-size="10.00" fill="#000000">vector</text>
</g>
<!-- Node17&#45;&gt;Node21 -->
<g id="edge30" class="edge">
<title>Node17&#45;&gt;Node21</title>
<path fill="none" stroke="#191970" d="M709.8636,-128.9005C703.9557,-118.751 694.4927,-102.4941 687.1432,-89.8679"/>
<polygon fill="#191970" stroke="#191970" points="690.0844,-87.9634 682.0288,-81.0817 684.0346,-91.4849 690.0844,-87.9634"/>
</g>
<!-- Node22&#45;&gt;Node1 -->
<g id="edge34" class="edge">
<title>Node22&#45;&gt;Node1</title>
<path fill="none" stroke="#191970" d="M964.787,-123.358C969.0808,-104.7745 972.7806,-73.5736 955.4514,-56 934.9191,-35.1781 502.0984,-16.4408 374.5343,-11.3543"/>
<polygon fill="#191970" stroke="#191970" points="374.3066,-7.8427 364.1761,-10.9447 374.0299,-14.8372 374.3066,-7.8427"/>
</g>
<!-- Node22&#45;&gt;Node3 -->
<g id="edge36" class="edge">
<title>Node22&#45;&gt;Node3</title>
<path fill="none" stroke="#191970" d="M937.9868,-123.2967C921.8133,-112.351 900.0853,-97.6462 883.9126,-86.701"/>
<polygon fill="#191970" stroke="#191970" points="885.8133,-83.7612 875.5699,-81.055 881.89,-89.5584 885.8133,-83.7612"/>
</g>
<!-- Node22&#45;&gt;Node6 -->
<g id="edge33" class="edge">
<title>Node22&#45;&gt;Node6</title>
<path fill="none" stroke="#191970" d="M969.8489,-123.117C975.7173,-113.0819 983.14,-99.5603 988.4514,-87 996.5159,-67.929 1003.2717,-45.1981 1007.5398,-29.3988"/>
<polygon fill="#191970" stroke="#191970" points="1010.9324,-30.2591 1010.0827,-19.6984 1004.1612,-28.484 1010.9324,-30.2591"/>
</g>
<!-- Node22&#45;&gt;Node18 -->
<g id="edge35" class="edge">
<title>Node22&#45;&gt;Node18</title>
<path fill="none" stroke="#191970" d="M952.0555,-123.2967C946.5706,-113.3645 939.3763,-100.3371 933.5751,-89.8321"/>
<polygon fill="#191970" stroke="#191970" points="936.6262,-88.1169 928.728,-81.055 930.4984,-91.5009 936.6262,-88.1169"/>
</g>
<!-- Node23 -->
<g id="node24" class="node">
<title>Node23</title>
<polygon fill="#ffffff" stroke="#bfbfbf" points="1040.4514,-62 1040.4514,-81 1078.4514,-81 1078.4514,-62 1040.4514,-62"/>
<text text-anchor="middle" x="1059.4514" y="-69" font-family="Helvetica,sans-Serif" font-size="10.00" fill="#000000">array</text>
</g>
<!-- Node22&#45;&gt;Node23 -->
<g id="edge32" class="edge">
<title>Node22&#45;&gt;Node23</title>
<path fill="none" stroke="#191970" d="M982.916,-123.2967C999.0894,-112.351 1020.8175,-97.6462 1036.9901,-86.701"/>
<polygon fill="#191970" stroke="#191970" points="1039.0128,-89.5584 1045.3329,-81.055 1035.0895,-83.7612 1039.0128,-89.5584"/>
</g>
</g>
</svg>
