<?xml version="1.0" encoding="UTF-8" standalone="no"?>
<!DOCTYPE svg PUBLIC "-//W3C//DTD SVG 1.1//EN"
 "http://www.w3.org/Graphics/SVG/1.1/DTD/svg11.dtd">
<!-- Generated by graphviz version 2.40.1 (20161225.0304)
 -->
<!-- Title: /home/bdn_jz/bdn_jz/camera&#45;tracker&#45;cpp/CameraTrackerLinux/include/nlohmann/detail/iterators/iter_impl.hpp Pages: 1 -->
<svg width="1402pt" height="329pt"
 viewBox="0.00 0.00 1402.25 329.00" xmlns="http://www.w3.org/2000/svg" xmlns:xlink="http://www.w3.org/1999/xlink">
<g id="graph0" class="graph" transform="scale(1 1) rotate(0) translate(4 325)">
<title>/home/bdn_jz/bdn_jz/camera&#45;tracker&#45;cpp/CameraTrackerLinux/include/nlohmann/detail/iterators/iter_impl.hpp</title>
<polygon fill="#ffffff" stroke="transparent" points="-4,4 -4,-325 1398.2546,-325 1398.2546,4 -4,4"/>
<!-- Node0 -->
<g id="node1" class="node">
<title>Node0</title>
<polygon fill="#bfbfbf" stroke="#000000" points="416.7546,-257.5 416.7546,-320.5 560.7546,-320.5 560.7546,-257.5 416.7546,-257.5"/>
<text text-anchor="start" x="424.7546" y="-308.5" font-family="Helvetica,sans-Serif" font-size="10.00" fill="#000000">/home/bdn_jz/bdn_jz</text>
<text text-anchor="start" x="424.7546" y="-297.5" font-family="Helvetica,sans-Serif" font-size="10.00" fill="#000000">/camera&#45;tracker&#45;cpp</text>
<text text-anchor="start" x="424.7546" y="-286.5" font-family="Helvetica,sans-Serif" font-size="10.00" fill="#000000">/CameraTrackerLinux/include</text>
<text text-anchor="start" x="424.7546" y="-275.5" font-family="Helvetica,sans-Serif" font-size="10.00" fill="#000000">/nlohmann/detail/iterators</text>
<text text-anchor="middle" x="488.7546" y="-264.5" font-family="Helvetica,sans-Serif" font-size="10.00" fill="#000000">/iter_impl.hpp</text>
</g>
<!-- Node1 -->
<g id="node2" class="node">
<title>Node1</title>
<polygon fill="#ffffff" stroke="#bfbfbf" points="28.7546,-.5 28.7546,-19.5 78.7546,-19.5 78.7546,-.5 28.7546,-.5"/>
<text text-anchor="middle" x="53.7546" y="-7.5" font-family="Helvetica,sans-Serif" font-size="10.00" fill="#000000">ciso646</text>
</g>
<!-- Node0&#45;&gt;Node1 -->
<g id="edge1" class="edge">
<title>Node0&#45;&gt;Node1</title>
<path fill="none" stroke="#191970" d="M416.4697,-281.7341C317.3527,-270.922 145.1182,-248.8492 88.7546,-221 49.5656,-201.6367 35.9774,-193.2581 16.7546,-154 -2.4354,-114.8089 -5.2631,-96.591 10.7546,-56 15.3015,-44.4774 24.2478,-34.143 32.808,-26.2024"/>
<polygon fill="#191970" stroke="#191970" points="35.1483,-28.8057 40.4236,-19.6175 30.5699,-23.5106 35.1483,-28.8057"/>
</g>
<!-- Node2 -->
<g id="node3" class="node">
<title>Node2</title>
<polygon fill="#ffffff" stroke="#bfbfbf" points="370.2546,-62 370.2546,-81 417.2546,-81 417.2546,-62 370.2546,-62"/>
<text text-anchor="middle" x="393.7546" y="-69" font-family="Helvetica,sans-Serif" font-size="10.00" fill="#000000">iterator</text>
</g>
<!-- Node0&#45;&gt;Node2 -->
<g id="edge2" class="edge">
<title>Node0&#45;&gt;Node2</title>
<path fill="none" stroke="#191970" d="M479.4844,-257.1935C468.996,-223.0913 450.3925,-167.8064 427.7546,-123 421.8966,-111.4054 413.9605,-99.2411 407.2289,-89.6477"/>
<polygon fill="#191970" stroke="#191970" points="409.9329,-87.413 401.2512,-81.3402 404.251,-91.5015 409.9329,-87.413"/>
</g>
<!-- Node3 -->
<g id="node4" class="node">
<title>Node3</title>
<polygon fill="#ffffff" stroke="#bfbfbf" points="100.7546,-.5 100.7546,-19.5 162.7546,-19.5 162.7546,-.5 100.7546,-.5"/>
<text text-anchor="middle" x="131.7546" y="-7.5" font-family="Helvetica,sans-Serif" font-size="10.00" fill="#000000">type_traits</text>
</g>
<!-- Node0&#45;&gt;Node3 -->
<g id="edge3" class="edge">
<title>Node0&#45;&gt;Node3</title>
<path fill="none" stroke="#191970" d="M416.5419,-280.021C330.089,-268.3561 191.2549,-246.4466 145.7546,-221 67.2927,-177.1193 -20.1646,-131.4234 28.7546,-56 36.1726,-44.5629 65.9825,-31.9616 91.6369,-22.8444"/>
<polygon fill="#191970" stroke="#191970" points="92.9054,-26.1092 101.2104,-19.5305 90.6156,-19.4943 92.9054,-26.1092"/>
</g>
<!-- Node4 -->
<g id="node5" class="node">
<title>Node4</title>
<g id="a_node5"><a xlink:href="exceptions_8hpp.html" target="_top" xlink:title="nlohmann/detail/exceptions.hpp">
<polygon fill="#ffffff" stroke="#000000" points="801.7546,-196 801.7546,-215 955.7546,-215 955.7546,-196 801.7546,-196"/>
<text text-anchor="middle" x="878.7546" y="-203" font-family="Helvetica,sans-Serif" font-size="10.00" fill="#000000">nlohmann/detail/exceptions.hpp</text>
</a>
</g>
</g>
<!-- Node0&#45;&gt;Node4 -->
<g id="edge4" class="edge">
<title>Node0&#45;&gt;Node4</title>
<path fill="none" stroke="#191970" d="M561.1966,-273.49C637.3598,-257.1832 755.4715,-231.8952 824.1444,-217.1922"/>
<polygon fill="#191970" stroke="#191970" points="825.2715,-220.5303 834.3171,-215.0142 823.8059,-213.6854 825.2715,-220.5303"/>
</g>
<!-- Node10 -->
<g id="node11" class="node">
<title>Node10</title>
<g id="a_node11"><a xlink:href="macro__scope_8hpp.html" target="_top" xlink:title="nlohmann/detail/macro\l_scope.hpp">
<polygon fill="#ffffff" stroke="#000000" points="945.2546,-123.5 945.2546,-153.5 1060.2546,-153.5 1060.2546,-123.5 945.2546,-123.5"/>
<text text-anchor="start" x="953.2546" y="-141.5" font-family="Helvetica,sans-Serif" font-size="10.00" fill="#000000">nlohmann/detail/macro</text>
<text text-anchor="middle" x="1002.7546" y="-130.5" font-family="Helvetica,sans-Serif" font-size="10.00" fill="#000000">_scope.hpp</text>
</a>
</g>
</g>
<!-- Node0&#45;&gt;Node10 -->
<g id="edge19" class="edge">
<title>Node0&#45;&gt;Node10</title>
<path fill="none" stroke="#191970" d="M561.1543,-286.9719C678.2363,-282.3491 902.3415,-267.5205 964.7546,-221 983.2101,-207.2439 992.9738,-182.3528 997.9574,-163.4972"/>
<polygon fill="#191970" stroke="#191970" points="1001.3667,-164.2887 1000.2591,-153.7519 994.5541,-162.6796 1001.3667,-164.2887"/>
</g>
<!-- Node14 -->
<g id="node15" class="node">
<title>Node14</title>
<g id="a_node15"><a xlink:href="internal__iterator_8hpp.html" target="_top" xlink:title="nlohmann/detail/iterators\l/internal_iterator.hpp">
<polygon fill="#ffffff" stroke="#000000" points="1105.2546,-190.5 1105.2546,-220.5 1228.2546,-220.5 1228.2546,-190.5 1105.2546,-190.5"/>
<text text-anchor="start" x="1113.2546" y="-208.5" font-family="Helvetica,sans-Serif" font-size="10.00" fill="#000000">nlohmann/detail/iterators</text>
<text text-anchor="middle" x="1166.7546" y="-197.5" font-family="Helvetica,sans-Serif" font-size="10.00" fill="#000000">/internal_iterator.hpp</text>
</a>
</g>
</g>
<!-- Node0&#45;&gt;Node14 -->
<g id="edge14" class="edge">
<title>Node0&#45;&gt;Node14</title>
<path fill="none" stroke="#191970" d="M560.9912,-280.1036C691.3845,-264.0448 964.5979,-230.3969 1094.7913,-214.3627"/>
<polygon fill="#191970" stroke="#191970" points="1095.5511,-217.7957 1105.0483,-213.0995 1094.6955,-210.8482 1095.5511,-217.7957"/>
</g>
<!-- Node15 -->
<g id="node16" class="node">
<title>Node15</title>
<g id="a_node16"><a xlink:href="primitive__iterator_8hpp.html" target="_top" xlink:title="nlohmann/detail/iterators\l/primitive_iterator.hpp">
<polygon fill="#ffffff" stroke="#000000" points="1271.2546,-123.5 1271.2546,-153.5 1394.2546,-153.5 1394.2546,-123.5 1271.2546,-123.5"/>
<text text-anchor="start" x="1279.2546" y="-141.5" font-family="Helvetica,sans-Serif" font-size="10.00" fill="#000000">nlohmann/detail/iterators</text>
<text text-anchor="middle" x="1332.7546" y="-130.5" font-family="Helvetica,sans-Serif" font-size="10.00" fill="#000000">/primitive_iterator.hpp</text>
</a>
</g>
</g>
<!-- Node0&#45;&gt;Node15 -->
<g id="edge18" class="edge">
<title>Node0&#45;&gt;Node15</title>
<path fill="none" stroke="#191970" d="M560.8995,-288.0556C724.1467,-285.0233 1117.0351,-272.4405 1237.7546,-221 1268.6636,-207.8292 1296.7244,-180.7041 1314.202,-161.147"/>
<polygon fill="#191970" stroke="#191970" points="1316.8856,-163.3946 1320.8031,-153.5506 1311.6019,-158.8031 1316.8856,-163.3946"/>
</g>
<!-- Node17 -->
<g id="node18" class="node">
<title>Node17</title>
<g id="a_node18"><a xlink:href="cpp__future_8hpp.html" target="_top" xlink:title="nlohmann/detail/meta\l/cpp_future.hpp">
<polygon fill="#ffffff" stroke="#000000" points="37.7546,-56.5 37.7546,-86.5 147.7546,-86.5 147.7546,-56.5 37.7546,-56.5"/>
<text text-anchor="start" x="45.7546" y="-74.5" font-family="Helvetica,sans-Serif" font-size="10.00" fill="#000000">nlohmann/detail/meta</text>
<text text-anchor="middle" x="92.7546" y="-63.5" font-family="Helvetica,sans-Serif" font-size="10.00" fill="#000000">/cpp_future.hpp</text>
</a>
</g>
</g>
<!-- Node0&#45;&gt;Node17 -->
<g id="edge20" class="edge">
<title>Node0&#45;&gt;Node17</title>
<path fill="none" stroke="#191970" d="M416.6969,-273.8013C315.5127,-250.9035 139.2366,-204.7984 99.7546,-154 87.2775,-137.9467 86.4511,-114.4474 88.21,-96.631"/>
<polygon fill="#191970" stroke="#191970" points="91.6897,-97.0132 89.5167,-86.6437 84.7489,-96.1051 91.6897,-97.0132"/>
</g>
<!-- Node18 -->
<g id="node19" class="node">
<title>Node18</title>
<g id="a_node19"><a xlink:href="type__traits_8hpp.html" target="_top" xlink:title="nlohmann/detail/meta\l/type_traits.hpp">
<polygon fill="#ffffff" stroke="#000000" points="304.7546,-190.5 304.7546,-220.5 414.7546,-220.5 414.7546,-190.5 304.7546,-190.5"/>
<text text-anchor="start" x="312.7546" y="-208.5" font-family="Helvetica,sans-Serif" font-size="10.00" fill="#000000">nlohmann/detail/meta</text>
<text text-anchor="middle" x="359.7546" y="-197.5" font-family="Helvetica,sans-Serif" font-size="10.00" fill="#000000">/type_traits.hpp</text>
</a>
</g>
</g>
<!-- Node0&#45;&gt;Node18 -->
<g id="edge24" class="edge">
<title>Node0&#45;&gt;Node18</title>
<path fill="none" stroke="#191970" d="M439.9852,-257.4322C423.7957,-246.953 406.1981,-235.5623 391.6202,-226.1262"/>
<polygon fill="#191970" stroke="#191970" points="393.2699,-223.0248 382.9732,-220.5291 389.4662,-228.9012 393.2699,-223.0248"/>
</g>
<!-- Node27 -->
<g id="node28" class="node">
<title>Node27</title>
<g id="a_node28"><a xlink:href="value__t_8hpp.html" target="_top" xlink:title="nlohmann/detail/value\l_t.hpp">
<polygon fill="#ffffff" stroke="#000000" points="475.2546,-123.5 475.2546,-153.5 586.2546,-153.5 586.2546,-123.5 475.2546,-123.5"/>
<text text-anchor="start" x="483.2546" y="-141.5" font-family="Helvetica,sans-Serif" font-size="10.00" fill="#000000">nlohmann/detail/value</text>
<text text-anchor="middle" x="530.7546" y="-130.5" font-family="Helvetica,sans-Serif" font-size="10.00" fill="#000000">_t.hpp</text>
</a>
</g>
</g>
<!-- Node0&#45;&gt;Node27 -->
<g id="edge44" class="edge">
<title>Node0&#45;&gt;Node27</title>
<path fill="none" stroke="#191970" d="M497.5592,-257.4503C505.3815,-229.4203 516.6586,-189.0107 523.8462,-163.2549"/>
<polygon fill="#191970" stroke="#191970" points="527.2477,-164.0871 526.5645,-153.5143 520.5053,-162.2055 527.2477,-164.0871"/>
</g>
<!-- Node5 -->
<g id="node6" class="node">
<title>Node5</title>
<polygon fill="#ffffff" stroke="#bfbfbf" points="1117.2546,-129 1117.2546,-148 1176.2546,-148 1176.2546,-129 1117.2546,-129"/>
<text text-anchor="middle" x="1146.7546" y="-136" font-family="Helvetica,sans-Serif" font-size="10.00" fill="#000000">exception</text>
</g>
<!-- Node4&#45;&gt;Node5 -->
<g id="edge5" class="edge">
<title>Node4&#45;&gt;Node5</title>
<path fill="none" stroke="#191970" d="M927.6631,-195.9135C973.3174,-186.5748 1043.1615,-171.2874 1102.7546,-154 1105.6933,-153.1475 1108.723,-152.209 1111.7528,-151.2285"/>
<polygon fill="#191970" stroke="#191970" points="1112.9589,-154.5156 1121.3192,-148.0074 1110.7251,-147.8815 1112.9589,-154.5156"/>
</g>
<!-- Node6 -->
<g id="node7" class="node">
<title>Node6</title>
<polygon fill="#ffffff" stroke="#bfbfbf" points="1194.2546,-129 1194.2546,-148 1253.2546,-148 1253.2546,-129 1194.2546,-129"/>
<text text-anchor="middle" x="1223.7546" y="-136" font-family="Helvetica,sans-Serif" font-size="10.00" fill="#000000">stdexcept</text>
</g>
<!-- Node4&#45;&gt;Node6 -->
<g id="edge6" class="edge">
<title>Node4&#45;&gt;Node6</title>
<path fill="none" stroke="#191970" d="M955.8076,-197.3654C1018.5337,-189.6055 1108.9439,-175.8172 1185.7546,-154 1188.2134,-153.3016 1190.7293,-152.4946 1193.2381,-151.623"/>
<polygon fill="#191970" stroke="#191970" points="1194.6227,-154.8415 1202.7424,-148.0355 1192.1507,-148.2925 1194.6227,-154.8415"/>
</g>
<!-- Node7 -->
<g id="node8" class="node">
<title>Node7</title>
<polygon fill="#ffffff" stroke="#bfbfbf" points="685.2546,-62 685.2546,-81 726.2546,-81 726.2546,-62 685.2546,-62"/>
<text text-anchor="middle" x="705.7546" y="-69" font-family="Helvetica,sans-Serif" font-size="10.00" fill="#000000">string</text>
</g>
<!-- Node4&#45;&gt;Node7 -->
<g id="edge7" class="edge">
<title>Node4&#45;&gt;Node7</title>
<path fill="none" stroke="#191970" d="M865.6973,-195.9315C851.7574,-185.6751 829.064,-168.8597 809.7546,-154 780.057,-131.146 746.1292,-104.0418 725.3252,-87.306"/>
<polygon fill="#191970" stroke="#191970" points="727.5021,-84.5653 717.519,-81.0173 723.1106,-90.0164 727.5021,-84.5653"/>
</g>
<!-- Node8 -->
<g id="node9" class="node">
<title>Node8</title>
<g id="a_node9"><a xlink:href="position__t_8hpp.html" target="_top" xlink:title="nlohmann/detail/input\l/position_t.hpp">
<polygon fill="#ffffff" stroke="#000000" points="818.2546,-123.5 818.2546,-153.5 927.2546,-153.5 927.2546,-123.5 818.2546,-123.5"/>
<text text-anchor="start" x="826.2546" y="-141.5" font-family="Helvetica,sans-Serif" font-size="10.00" fill="#000000">nlohmann/detail/input</text>
<text text-anchor="middle" x="872.7546" y="-130.5" font-family="Helvetica,sans-Serif" font-size="10.00" fill="#000000">/position_t.hpp</text>
</a>
</g>
</g>
<!-- Node4&#45;&gt;Node8 -->
<g id="edge8" class="edge">
<title>Node4&#45;&gt;Node8</title>
<path fill="none" stroke="#191970" d="M877.8949,-195.9005C877.1435,-187.5099 876.0183,-174.9451 875.0121,-163.7085"/>
<polygon fill="#191970" stroke="#191970" points="878.4779,-163.1697 874.0998,-153.5218 871.5058,-163.7941 878.4779,-163.1697"/>
</g>
<!-- Node4&#45;&gt;Node10 -->
<g id="edge10" class="edge">
<title>Node4&#45;&gt;Node10</title>
<path fill="none" stroke="#191970" d="M896.5208,-195.9005C914.6113,-186.1258 943.1855,-170.6865 966.1446,-158.2812"/>
<polygon fill="#191970" stroke="#191970" points="967.819,-161.3548 974.9531,-153.5218 964.4914,-155.1962 967.819,-161.3548"/>
</g>
<!-- Node9 -->
<g id="node10" class="node">
<title>Node9</title>
<polygon fill="#ffffff" stroke="#bfbfbf" points="688.2546,-.5 688.2546,-19.5 737.2546,-19.5 737.2546,-.5 688.2546,-.5"/>
<text text-anchor="middle" x="712.7546" y="-7.5" font-family="Helvetica,sans-Serif" font-size="10.00" fill="#000000">cstddef</text>
</g>
<!-- Node8&#45;&gt;Node9 -->
<g id="edge9" class="edge">
<title>Node8&#45;&gt;Node9</title>
<path fill="none" stroke="#191970" d="M876.5786,-123.2902C880.1553,-105.2128 882.9298,-75.0988 867.7546,-56 852.7836,-37.1582 788.3298,-22.9198 747.3968,-15.5711"/>
<polygon fill="#191970" stroke="#191970" points="747.9939,-12.1225 737.5413,-13.8527 746.7914,-19.0185 747.9939,-12.1225"/>
</g>
<!-- Node11 -->
<g id="node12" class="node">
<title>Node11</title>
<polygon fill="#ffffff" stroke="#bfbfbf" points="914.7546,-62 914.7546,-81 954.7546,-81 954.7546,-62 914.7546,-62"/>
<text text-anchor="middle" x="934.7546" y="-69" font-family="Helvetica,sans-Serif" font-size="10.00" fill="#000000">utility</text>
</g>
<!-- Node10&#45;&gt;Node11 -->
<g id="edge11" class="edge">
<title>Node10&#45;&gt;Node11</title>
<path fill="none" stroke="#191970" d="M987.3243,-123.2967C976.7296,-112.8578 962.6647,-98.9997 951.7491,-88.2446"/>
<polygon fill="#191970" stroke="#191970" points="954.0319,-85.5804 944.4522,-81.055 949.119,-90.5666 954.0319,-85.5804"/>
</g>
<!-- Node12 -->
<g id="node13" class="node">
<title>Node12</title>
<polygon fill="#ffffff" stroke="#bfbfbf" points="972.7546,-56.5 972.7546,-86.5 1074.7546,-86.5 1074.7546,-56.5 972.7546,-56.5"/>
<text text-anchor="start" x="980.7546" y="-74.5" font-family="Helvetica,sans-Serif" font-size="10.00" fill="#000000">nlohmann/thirdparty</text>
<text text-anchor="middle" x="1023.7546" y="-63.5" font-family="Helvetica,sans-Serif" font-size="10.00" fill="#000000">/hedley/hedley.hpp</text>
</g>
<!-- Node10&#45;&gt;Node12 -->
<g id="edge12" class="edge">
<title>Node10&#45;&gt;Node12</title>
<path fill="none" stroke="#191970" d="M1007.5198,-123.2967C1010.0168,-115.3299 1013.1381,-105.3718 1015.9748,-96.3213"/>
<polygon fill="#191970" stroke="#191970" points="1019.3571,-97.2323 1019.0082,-86.6432 1012.6775,-95.1386 1019.3571,-97.2323"/>
</g>
<!-- Node13 -->
<g id="node14" class="node">
<title>Node13</title>
<polygon fill="#ffffff" stroke="#bfbfbf" points="1093.2546,-62 1093.2546,-81 1138.2546,-81 1138.2546,-62 1093.2546,-62"/>
<text text-anchor="middle" x="1115.7546" y="-69" font-family="Helvetica,sans-Serif" font-size="10.00" fill="#000000">cstdlib</text>
</g>
<!-- Node10&#45;&gt;Node13 -->
<g id="edge13" class="edge">
<title>Node10&#45;&gt;Node13</title>
<path fill="none" stroke="#191970" d="M1028.114,-123.4639C1046.8177,-112.3741 1072.1427,-97.3584 1090.7596,-86.32"/>
<polygon fill="#191970" stroke="#191970" points="1092.7403,-89.2147 1099.5569,-81.1039 1089.1702,-83.1935 1092.7403,-89.2147"/>
</g>
<!-- Node14&#45;&gt;Node15 -->
<g id="edge15" class="edge">
<title>Node14&#45;&gt;Node15</title>
<path fill="none" stroke="#191970" d="M1204.0082,-190.4639C1228.1654,-180.7137 1259.8412,-167.9289 1285.7282,-157.4805"/>
<polygon fill="#191970" stroke="#191970" points="1287.3753,-160.5901 1295.3385,-153.6017 1284.7553,-154.0989 1287.3753,-160.5901"/>
</g>
<!-- Node15&#45;&gt;Node9 -->
<g id="edge16" class="edge">
<title>Node15&#45;&gt;Node9</title>
<path fill="none" stroke="#191970" d="M1323.7692,-123.448C1311.2528,-104.0324 1286.5948,-70.9809 1255.7546,-56 1210.1548,-33.8495 860.2758,-16.5446 747.5979,-11.4986"/>
<polygon fill="#191970" stroke="#191970" points="747.5974,-7.9952 737.4522,-11.0487 747.2873,-14.9883 747.5974,-7.9952"/>
</g>
<!-- Node16 -->
<g id="node17" class="node">
<title>Node16</title>
<polygon fill="#ffffff" stroke="#bfbfbf" points="1206.7546,-62 1206.7546,-81 1246.7546,-81 1246.7546,-62 1206.7546,-62"/>
<text text-anchor="middle" x="1226.7546" y="-69" font-family="Helvetica,sans-Serif" font-size="10.00" fill="#000000">limits</text>
</g>
<!-- Node15&#45;&gt;Node16 -->
<g id="edge17" class="edge">
<title>Node15&#45;&gt;Node16</title>
<path fill="none" stroke="#191970" d="M1308.9661,-123.4639C1291.5011,-112.4247 1267.8817,-97.4954 1250.4408,-86.4715"/>
<polygon fill="#191970" stroke="#191970" points="1252.2719,-83.4883 1241.9488,-81.1039 1248.5318,-89.4054 1252.2719,-83.4883"/>
</g>
<!-- Node17&#45;&gt;Node1 -->
<g id="edge21" class="edge">
<title>Node17&#45;&gt;Node1</title>
<path fill="none" stroke="#191970" d="M83.1141,-56.2977C77.7569,-47.8498 71.0524,-37.2773 65.4032,-28.369"/>
<polygon fill="#191970" stroke="#191970" points="68.3102,-26.4176 59.999,-19.8469 62.3987,-30.1664 68.3102,-26.4176"/>
</g>
<!-- Node17&#45;&gt;Node3 -->
<g id="edge23" class="edge">
<title>Node17&#45;&gt;Node3</title>
<path fill="none" stroke="#191970" d="M102.395,-56.2977C107.7522,-47.8498 114.4568,-37.2773 120.1059,-28.369"/>
<polygon fill="#191970" stroke="#191970" points="123.1105,-30.1664 125.5102,-19.8469 117.1989,-26.4176 123.1105,-30.1664"/>
</g>
<!-- Node17&#45;&gt;Node9 -->
<g id="edge22" class="edge">
<title>Node17&#45;&gt;Node9</title>
<path fill="none" stroke="#191970" d="M147.9239,-65.2024C173.6885,-62.31 204.7812,-58.8888 232.7546,-56 399.1743,-38.8141 598.2879,-20.427 677.6271,-13.1878"/>
<polygon fill="#191970" stroke="#191970" points="678.3703,-16.6347 688.0114,-12.2416 677.735,-9.6636 678.3703,-16.6347"/>
</g>
<!-- Node18&#45;&gt;Node1 -->
<g id="edge25" class="edge">
<title>Node18&#45;&gt;Node1</title>
<path fill="none" stroke="#191970" d="M304.6505,-198.2404C239.2894,-188.9994 134.7759,-172.0541 99.7546,-154 61.19,-134.1193 45.9372,-126.84 28.7546,-87 20.2862,-67.365 30.7131,-43.8724 40.5673,-28.0422"/>
<polygon fill="#191970" stroke="#191970" points="43.5013,-29.951 46.156,-19.6942 37.6845,-26.0569 43.5013,-29.951"/>
</g>
<!-- Node18&#45;&gt;Node3 -->
<g id="edge27" class="edge">
<title>Node18&#45;&gt;Node3</title>
<path fill="none" stroke="#191970" d="M304.3813,-198.9538C251.0045,-191.3757 175.7476,-176.9137 157.7546,-154 130.8534,-119.742 167.7002,-98.1601 156.7546,-56 154.2264,-46.2621 149.2108,-36.3454 144.3314,-28.2251"/>
<polygon fill="#191970" stroke="#191970" points="147.1677,-26.1643 138.8232,-19.636 141.2753,-29.9432 147.1677,-26.1643"/>
</g>
<!-- Node18&#45;&gt;Node10 -->
<g id="edge33" class="edge">
<title>Node18&#45;&gt;Node10</title>
<path fill="none" stroke="#191970" d="M414.9715,-203.1775C516.3561,-198.3465 739.0608,-185.1037 934.9991,-154.1587"/>
<polygon fill="#191970" stroke="#191970" points="935.5767,-157.6109 944.8989,-152.5763 934.4718,-150.6987 935.5767,-157.6109"/>
</g>
<!-- Node18&#45;&gt;Node11 -->
<g id="edge28" class="edge">
<title>Node18&#45;&gt;Node11</title>
<path fill="none" stroke="#191970" d="M414.9684,-202.2102C488.5373,-196.8498 622.2729,-183.6831 732.7546,-154 737.1764,-152.812 850.1921,-106.3389 905.2093,-83.6776"/>
<polygon fill="#191970" stroke="#191970" points="906.5431,-86.9136 914.456,-79.8683 903.8766,-80.4413 906.5431,-86.9136"/>
</g>
<!-- Node18&#45;&gt;Node16 -->
<g id="edge26" class="edge">
<title>Node18&#45;&gt;Node16</title>
<path fill="none" stroke="#191970" d="M414.9916,-203.3712C571.3088,-197.0841 1009.381,-177.5562 1069.7546,-154 1090.3821,-145.9517 1089.781,-134.4137 1108.7546,-123 1137.2046,-105.8857 1172.365,-91.2939 1196.8712,-82.0589"/>
<polygon fill="#191970" stroke="#191970" points="1198.183,-85.3055 1206.3483,-78.5543 1195.7551,-78.7401 1198.183,-85.3055"/>
</g>
<!-- Node18&#45;&gt;Node17 -->
<g id="edge34" class="edge">
<title>Node18&#45;&gt;Node17</title>
<path fill="none" stroke="#191970" d="M304.7144,-199.4837C244.0036,-191.825 151.3611,-176.7887 124.7546,-154 107.9,-139.5639 99.8777,-115.1515 96.0866,-96.6179"/>
<polygon fill="#191970" stroke="#191970" points="99.5327,-96.0055 94.3474,-86.7662 92.6393,-97.2224 99.5327,-96.0055"/>
</g>
<!-- Node19 -->
<g id="node20" class="node">
<title>Node19</title>
<g id="a_node20"><a xlink:href="iterator__traits_8hpp.html" target="_top" xlink:title="nlohmann/detail/iterators\l/iterator_traits.hpp">
<polygon fill="#ffffff" stroke="#000000" points="295.2546,-123.5 295.2546,-153.5 418.2546,-153.5 418.2546,-123.5 295.2546,-123.5"/>
<text text-anchor="start" x="303.2546" y="-141.5" font-family="Helvetica,sans-Serif" font-size="10.00" fill="#000000">nlohmann/detail/iterators</text>
<text text-anchor="middle" x="356.7546" y="-130.5" font-family="Helvetica,sans-Serif" font-size="10.00" fill="#000000">/iterator_traits.hpp</text>
</a>
</g>
</g>
<!-- Node18&#45;&gt;Node19 -->
<g id="edge29" class="edge">
<title>Node18&#45;&gt;Node19</title>
<path fill="none" stroke="#191970" d="M359.0738,-190.2967C358.7248,-182.5013 358.2904,-172.7991 357.8922,-163.9064"/>
<polygon fill="#191970" stroke="#191970" points="361.3765,-163.4766 357.4326,-153.6432 354.3835,-163.7898 361.3765,-163.4766"/>
</g>
<!-- Node21 -->
<g id="node22" class="node">
<title>Node21</title>
<g id="a_node22"><a xlink:href="detected_8hpp.html" target="_top" xlink:title="nlohmann/detail/meta\l/detected.hpp">
<polygon fill="#ffffff" stroke="#000000" points="166.7546,-123.5 166.7546,-153.5 276.7546,-153.5 276.7546,-123.5 166.7546,-123.5"/>
<text text-anchor="start" x="174.7546" y="-141.5" font-family="Helvetica,sans-Serif" font-size="10.00" fill="#000000">nlohmann/detail/meta</text>
<text text-anchor="middle" x="221.7546" y="-130.5" font-family="Helvetica,sans-Serif" font-size="10.00" fill="#000000">/detected.hpp</text>
</a>
</g>
</g>
<!-- Node18&#45;&gt;Node21 -->
<g id="edge35" class="edge">
<title>Node18&#45;&gt;Node21</title>
<path fill="none" stroke="#191970" d="M328.7847,-190.4639C309.1254,-180.9191 283.4761,-168.4663 262.2153,-158.144"/>
<polygon fill="#191970" stroke="#191970" points="263.6231,-154.9368 253.0986,-153.7177 260.5657,-161.2339 263.6231,-154.9368"/>
</g>
<!-- Node22 -->
<g id="node23" class="node">
<title>Node22</title>
<g id="a_node23"><a xlink:href="json__fwd_8hpp.html" target="_top" xlink:title="nlohmann/json_fwd.hpp">
<polygon fill="#ffffff" stroke="#000000" points="604.2546,-129 604.2546,-148 723.2546,-148 723.2546,-129 604.2546,-129"/>
<text text-anchor="middle" x="663.7546" y="-136" font-family="Helvetica,sans-Serif" font-size="10.00" fill="#000000">nlohmann/json_fwd.hpp</text>
</a>
</g>
</g>
<!-- Node18&#45;&gt;Node22 -->
<g id="edge38" class="edge">
<title>Node18&#45;&gt;Node22</title>
<path fill="none" stroke="#191970" d="M415.1002,-193.5739C462.9472,-183.2274 533.9497,-167.7872 595.7546,-154 601.0726,-152.8137 606.6222,-151.5655 612.1575,-150.3138"/>
<polygon fill="#191970" stroke="#191970" points="613.0745,-153.6948 622.0528,-148.0697 611.5263,-146.8682 613.0745,-153.6948"/>
</g>
<!-- Node19&#45;&gt;Node2 -->
<g id="edge30" class="edge">
<title>Node19&#45;&gt;Node2</title>
<path fill="none" stroke="#191970" d="M365.1505,-123.2967C370.6354,-113.3645 377.8296,-100.3371 383.6309,-89.8321"/>
<polygon fill="#191970" stroke="#191970" points="386.7075,-91.5009 388.478,-81.055 380.5798,-88.1169 386.7075,-91.5009"/>
</g>
<!-- Node19&#45;&gt;Node17 -->
<g id="edge32" class="edge">
<title>Node19&#45;&gt;Node17</title>
<path fill="none" stroke="#191970" d="M297.5078,-123.4639C256.0429,-112.9406 200.6489,-98.8823 157.9341,-88.0418"/>
<polygon fill="#191970" stroke="#191970" points="158.7494,-84.6378 148.1957,-85.5703 157.0274,-91.4227 158.7494,-84.6378"/>
</g>
<!-- Node20 -->
<g id="node21" class="node">
<title>Node20</title>
<g id="a_node21"><a xlink:href="void__t_8hpp.html" target="_top" xlink:title="nlohmann/detail/meta\l/void_t.hpp">
<polygon fill="#ffffff" stroke="#000000" points="241.7546,-56.5 241.7546,-86.5 351.7546,-86.5 351.7546,-56.5 241.7546,-56.5"/>
<text text-anchor="start" x="249.7546" y="-74.5" font-family="Helvetica,sans-Serif" font-size="10.00" fill="#000000">nlohmann/detail/meta</text>
<text text-anchor="middle" x="296.7546" y="-63.5" font-family="Helvetica,sans-Serif" font-size="10.00" fill="#000000">/void_t.hpp</text>
</a>
</g>
</g>
<!-- Node19&#45;&gt;Node20 -->
<g id="edge31" class="edge">
<title>Node19&#45;&gt;Node20</title>
<path fill="none" stroke="#191970" d="M343.1397,-123.2967C335.4683,-114.7303 325.7349,-103.8614 317.1674,-94.2943"/>
<polygon fill="#191970" stroke="#191970" points="319.5942,-91.7578 310.3156,-86.6432 314.3795,-96.4276 319.5942,-91.7578"/>
</g>
<!-- Node21&#45;&gt;Node3 -->
<g id="edge36" class="edge">
<title>Node21&#45;&gt;Node3</title>
<path fill="none" stroke="#191970" d="M218.4386,-123.3215C214.0631,-105.8133 205.067,-76.7761 189.7546,-56 180.8227,-43.8811 167.9208,-33.2215 156.5524,-25.2231"/>
<polygon fill="#191970" stroke="#191970" points="158.5016,-22.3161 148.2489,-19.6453 154.5983,-28.1268 158.5016,-22.3161"/>
</g>
<!-- Node21&#45;&gt;Node20 -->
<g id="edge37" class="edge">
<title>Node21&#45;&gt;Node20</title>
<path fill="none" stroke="#191970" d="M238.7732,-123.2967C248.6501,-114.4733 261.2615,-103.2072 272.1984,-93.4368"/>
<polygon fill="#191970" stroke="#191970" points="274.6774,-95.9155 279.8033,-86.6432 270.0139,-90.6952 274.6774,-95.9155"/>
</g>
<!-- Node22&#45;&gt;Node7 -->
<g id="edge42" class="edge">
<title>Node22&#45;&gt;Node7</title>
<path fill="none" stroke="#191970" d="M669.7722,-128.9005C676.1346,-118.751 686.3255,-102.4941 694.2404,-89.8679"/>
<polygon fill="#191970" stroke="#191970" points="697.4023,-91.4135 699.7482,-81.0817 691.4713,-87.6956 697.4023,-91.4135"/>
</g>
<!-- Node23 -->
<g id="node24" class="node">
<title>Node23</title>
<polygon fill="#ffffff" stroke="#bfbfbf" points="567.7546,-62 567.7546,-81 613.7546,-81 613.7546,-62 567.7546,-62"/>
<text text-anchor="middle" x="590.7546" y="-69" font-family="Helvetica,sans-Serif" font-size="10.00" fill="#000000">cstdint</text>
</g>
<!-- Node22&#45;&gt;Node23 -->
<g id="edge39" class="edge">
<title>Node22&#45;&gt;Node23</title>
<path fill="none" stroke="#191970" d="M653.2955,-128.9005C641.6949,-118.2535 622.7717,-100.8856 608.7741,-88.0385"/>
<polygon fill="#191970" stroke="#191970" points="610.9283,-85.2649 601.1943,-81.0817 606.195,-90.4221 610.9283,-85.2649"/>
</g>
<!-- Node24 -->
<g id="node25" class="node">
<title>Node24</title>
<polygon fill="#ffffff" stroke="#bfbfbf" points="632.2546,-62 632.2546,-81 667.2546,-81 667.2546,-62 632.2546,-62"/>
<text text-anchor="middle" x="649.7546" y="-69" font-family="Helvetica,sans-Serif" font-size="10.00" fill="#000000">map</text>
</g>
<!-- Node22&#45;&gt;Node24 -->
<g id="edge40" class="edge">
<title>Node22&#45;&gt;Node24</title>
<path fill="none" stroke="#191970" d="M661.7487,-128.9005C659.6903,-119.0495 656.4297,-103.4451 653.8274,-90.9912"/>
<polygon fill="#191970" stroke="#191970" points="657.2282,-90.1543 651.7567,-81.0817 650.3762,-91.5862 657.2282,-90.1543"/>
</g>
<!-- Node25 -->
<g id="node26" class="node">
<title>Node25</title>
<polygon fill="#ffffff" stroke="#bfbfbf" points="744.7546,-62 744.7546,-81 796.7546,-81 796.7546,-62 744.7546,-62"/>
<text text-anchor="middle" x="770.7546" y="-69" font-family="Helvetica,sans-Serif" font-size="10.00" fill="#000000">memory</text>
</g>
<!-- Node22&#45;&gt;Node25 -->
<g id="edge41" class="edge">
<title>Node22&#45;&gt;Node25</title>
<path fill="none" stroke="#191970" d="M679.0851,-128.9005C696.8037,-117.8057 726.1774,-99.4128 746.8914,-86.4424"/>
<polygon fill="#191970" stroke="#191970" points="748.8345,-89.3553 755.4525,-81.0817 745.1195,-83.4224 748.8345,-89.3553"/>
</g>
<!-- Node26 -->
<g id="node27" class="node">
<title>Node26</title>
<polygon fill="#ffffff" stroke="#bfbfbf" points="814.7546,-62 814.7546,-81 858.7546,-81 858.7546,-62 814.7546,-62"/>
<text text-anchor="middle" x="836.7546" y="-69" font-family="Helvetica,sans-Serif" font-size="10.00" fill="#000000">vector</text>
</g>
<!-- Node22&#45;&gt;Node26 -->
<g id="edge43" class="edge">
<title>Node22&#45;&gt;Node26</title>
<path fill="none" stroke="#191970" d="M693.2392,-128.9193C722.2312,-119.2396 767.5649,-103.4074 805.7546,-87 806.9363,-86.4923 808.1368,-85.9613 809.3447,-85.4145"/>
<polygon fill="#191970" stroke="#191970" points="811.0305,-88.4885 818.5607,-81.0355 808.0263,-82.166 811.0305,-88.4885"/>
</g>
<!-- Node27&#45;&gt;Node1 -->
<g id="edge46" class="edge">
<title>Node27&#45;&gt;Node1</title>
<path fill="none" stroke="#191970" d="M511.029,-123.2872C497.8665,-113.0921 480.2052,-99.3279 464.7546,-87 447.7173,-73.4061 446.8665,-64.4008 426.7546,-56 288.5783,1.7166 239.0224,-47.1312 91.7546,-20 90.8447,-19.8324 89.9245,-19.6544 88.9978,-19.4678"/>
<polygon fill="#191970" stroke="#191970" points="89.5069,-15.9946 78.9813,-17.2042 87.9639,-22.8224 89.5069,-15.9946"/>
</g>
<!-- Node27&#45;&gt;Node7 -->
<g id="edge49" class="edge">
<title>Node27&#45;&gt;Node7</title>
<path fill="none" stroke="#191970" d="M579.1386,-123.4823C607.9148,-114.0473 644.902,-101.0332 676.7546,-87 677.7472,-86.5627 678.7522,-86.1049 679.7623,-85.6321"/>
<polygon fill="#191970" stroke="#191970" points="681.4131,-88.7199 688.7934,-81.1185 678.2837,-82.4584 681.4131,-88.7199"/>
</g>
<!-- Node27&#45;&gt;Node9 -->
<g id="edge47" class="edge">
<title>Node27&#45;&gt;Node9</title>
<path fill="none" stroke="#191970" d="M531.8059,-123.1902C533.8944,-104.7287 540.1312,-73.9481 558.7546,-56 575.8511,-39.5235 638.2756,-24.6244 678.2055,-16.4871"/>
<polygon fill="#191970" stroke="#191970" points="678.9542,-19.9068 688.0769,-14.5192 677.5856,-13.0419 678.9542,-19.9068"/>
</g>
<!-- Node27&#45;&gt;Node23 -->
<g id="edge48" class="edge">
<title>Node27&#45;&gt;Node23</title>
<path fill="none" stroke="#191970" d="M544.3695,-123.2967C553.627,-112.9591 565.8873,-99.2684 575.4781,-88.5588"/>
<polygon fill="#191970" stroke="#191970" points="578.134,-90.8394 582.1979,-81.055 572.9193,-86.1696 578.134,-90.8394"/>
</g>
<!-- Node28 -->
<g id="node29" class="node">
<title>Node28</title>
<polygon fill="#ffffff" stroke="#bfbfbf" points="473.7546,-62 473.7546,-81 511.7546,-81 511.7546,-62 473.7546,-62"/>
<text text-anchor="middle" x="492.7546" y="-69" font-family="Helvetica,sans-Serif" font-size="10.00" fill="#000000">array</text>
</g>
<!-- Node27&#45;&gt;Node28 -->
<g id="edge45" class="edge">
<title>Node27&#45;&gt;Node28</title>
<path fill="none" stroke="#191970" d="M522.1318,-123.2967C516.4986,-113.3645 509.1099,-100.3371 503.1519,-89.8321"/>
<polygon fill="#191970" stroke="#191970" points="506.1517,-88.0266 498.1738,-81.055 500.0628,-91.4801 506.1517,-88.0266"/>
</g>
</g>
</svg>
