<?xml version="1.0" encoding="UTF-8" standalone="no"?>
<!DOCTYPE svg PUBLIC "-//W3C//DTD SVG 1.1//EN"
 "http://www.w3.org/Graphics/SVG/1.1/DTD/svg11.dtd">
<!-- Generated by graphviz version 2.40.1 (20161225.0304)
 -->
<!-- Title: /home/bdn_jz/bdn_jz/camera&#45;tracker&#45;cpp/CameraTrackerLinux/include/nlohmann/detail/iterators/iterator_traits.hpp Pages: 1 -->
<!--zoomable 1017 -->
<svg id="main" version="1.1" xmlns="http://www.w3.org/2000/svg" xmlns:xlink="http://www.w3.org/1999/xlink" xml:space="preserve" onload="init(evt)">
<style type="text/css"><![CDATA[
.edge:hover path { stroke: red; }
.edge:hover polygon { stroke: red; fill: red; }
]]></style>
<script type="text/javascript"><![CDATA[
var edges = document.getElementsByTagName('g');
if (edges && edges.length) {
  for (var i=0;i<edges.length;i++) {
    if (edges[i].id.substr(0,4)=='edge') {
      edges[i].setAttribute('class','edge');
    }
  }
}
]]></script>
        <defs>
                <circle id="rim" cx="0" cy="0" r="7"/>
                <circle id="rim2" cx="0" cy="0" r="3.5"/>
                <g id="zoomPlus">
                        <use xlink:href="#rim" fill="#404040">
                                <set attributeName="fill" to="#808080" begin="zoomplus.mouseover" end="zoomplus.mouseout"/>
                        </use>
                        <path d="M-4,0h8M0,-4v8" fill="none" stroke="white" stroke-width="1.5" pointer-events="none"/>
                </g>
                <g id="zoomMin">
                        <use xlink:href="#rim" fill="#404040">
                                <set attributeName="fill" to="#808080" begin="zoomminus.mouseover" end="zoomminus.mouseout"/>
                        </use>
                        <path d="M-4,0h8" fill="none" stroke="white" stroke-width="1.5" pointer-events="none"/>
                </g>
                <g id="dirArrow">
                        <path fill="none" stroke="white" stroke-width="1.5" d="M0,-3.0v7 M-2.5,-0.5L0,-3.0L2.5,-0.5"/>
                </g>
               <g id="resetDef">
                       <use xlink:href="#rim2" fill="#404040">
                               <set attributeName="fill" to="#808080" begin="reset.mouseover" end="reset.mouseout"/>
                       </use>
               </g>
        </defs>

<script type="text/javascript">
var viewWidth = 1034;
var viewHeight = 1017;
var sectionId = 'dynsection-1';
</script>
<script xlink:href="svgpan.js"/>
<svg id="graph" class="graph">
<g id="viewport">
<title>/home/bdn_jz/bdn_jz/camera&#45;tracker&#45;cpp/CameraTrackerLinux/include/nlohmann/detail/iterators/iterator_traits.hpp</title>
<polygon fill="#ffffff" stroke="transparent" points="-4,4 -4,-1013 1029.7341,-1013 1029.7341,4 -4,4"/>
<!-- Node7 -->
<g id="node1" class="node">
<title>Node7</title>
<polygon fill="#bfbfbf" stroke="#000000" points="378.831,-945.5 378.831,-1008.5 522.831,-1008.5 522.831,-945.5 378.831,-945.5"/>
<text text-anchor="start" x="386.831" y="-996.5" font-family="Helvetica,sans-Serif" font-size="10.00" fill="#000000">/home/bdn_jz/bdn_jz</text>
<text text-anchor="start" x="386.831" y="-985.5" font-family="Helvetica,sans-Serif" font-size="10.00" fill="#000000">/camera&#45;tracker&#45;cpp</text>
<text text-anchor="start" x="386.831" y="-974.5" font-family="Helvetica,sans-Serif" font-size="10.00" fill="#000000">/CameraTrackerLinux/include</text>
<text text-anchor="start" x="386.831" y="-963.5" font-family="Helvetica,sans-Serif" font-size="10.00" fill="#000000">/nlohmann/detail/iterators</text>
<text text-anchor="middle" x="450.831" y="-952.5" font-family="Helvetica,sans-Serif" font-size="10.00" fill="#000000">/iterator_traits.hpp</text>
</g>
<!-- Node8 -->
<g id="node2" class="node">
<title>Node8</title>
<g id="a_node2"><a xlink:href="input__adapters_8hpp.html" target="_top" xlink:title="/home/bdn_jz/bdn_jz\l/camera&#45;tracker&#45;cpp\l/CameraTrackerLinux/include\l/nlohmann/detail/input/input\l_adapters.hpp">
<polygon fill="#ffffff" stroke="#000000" points="132.831,-745.5 132.831,-808.5 276.831,-808.5 276.831,-745.5 132.831,-745.5"/>
<text text-anchor="start" x="140.831" y="-796.5" font-family="Helvetica,sans-Serif" font-size="10.00" fill="#000000">/home/bdn_jz/bdn_jz</text>
<text text-anchor="start" x="140.831" y="-785.5" font-family="Helvetica,sans-Serif" font-size="10.00" fill="#000000">/camera&#45;tracker&#45;cpp</text>
<text text-anchor="start" x="140.831" y="-774.5" font-family="Helvetica,sans-Serif" font-size="10.00" fill="#000000">/CameraTrackerLinux/include</text>
<text text-anchor="start" x="140.831" y="-763.5" font-family="Helvetica,sans-Serif" font-size="10.00" fill="#000000">/nlohmann/detail/input/input</text>
<text text-anchor="middle" x="204.831" y="-752.5" font-family="Helvetica,sans-Serif" font-size="10.00" fill="#000000">_adapters.hpp</text>
</a>
</g>
</g>
<!-- Node7&#45;&gt;Node8 -->
<g id="edge1" class="edge">
<title>Node7&#45;&gt;Node8</title>
<path fill="none" stroke="#191970" d="M404.034,-938.9537C357.547,-901.1594 287.0966,-843.8826 243.628,-808.5423"/>
<polygon fill="#191970" stroke="#191970" points="401.8844,-941.7168 411.8516,-945.3094 406.3002,-936.2853 401.8844,-941.7168"/>
</g>
<!-- Node22 -->
<g id="node16" class="node">
<title>Node22</title>
<g id="a_node16"><a xlink:href="type__traits_8hpp.html" target="_top" xlink:title="/home/bdn_jz/bdn_jz\l/camera&#45;tracker&#45;cpp\l/CameraTrackerLinux/include\l/nlohmann/detail/meta/type\l_traits.hpp">
<polygon fill="#ffffff" stroke="#000000" points="581.831,-845.5 581.831,-908.5 725.831,-908.5 725.831,-845.5 581.831,-845.5"/>
<text text-anchor="start" x="589.831" y="-896.5" font-family="Helvetica,sans-Serif" font-size="10.00" fill="#000000">/home/bdn_jz/bdn_jz</text>
<text text-anchor="start" x="589.831" y="-885.5" font-family="Helvetica,sans-Serif" font-size="10.00" fill="#000000">/camera&#45;tracker&#45;cpp</text>
<text text-anchor="start" x="589.831" y="-874.5" font-family="Helvetica,sans-Serif" font-size="10.00" fill="#000000">/CameraTrackerLinux/include</text>
<text text-anchor="start" x="589.831" y="-863.5" font-family="Helvetica,sans-Serif" font-size="10.00" fill="#000000">/nlohmann/detail/meta/type</text>
<text text-anchor="middle" x="653.831" y="-852.5" font-family="Helvetica,sans-Serif" font-size="10.00" fill="#000000">_traits.hpp</text>
</a>
</g>
</g>
<!-- Node7&#45;&gt;Node22 -->
<g id="edge22" class="edge">
<title>Node7&#45;&gt;Node22</title>
<path fill="none" stroke="#191970" d="M523.9,-941.0054C545.4692,-930.3802 568.9016,-918.8371 589.8519,-908.5168"/>
<polygon fill="#191970" stroke="#191970" points="522.2068,-937.9378 514.7828,-945.4966 525.3001,-944.2173 522.2068,-937.9378"/>
</g>
<!-- Node9 -->
<g id="node3" class="node">
<title>Node9</title>
<g id="a_node3"><a xlink:href="json_8hpp.html" target="_top" xlink:title="/home/bdn_jz/bdn_jz\l/camera&#45;tracker&#45;cpp\l/CameraTrackerLinux/include\l/nlohmann/json.hpp">
<polygon fill="#ffffff" stroke="#000000" points="439.831,-356.5 439.831,-408.5 583.831,-408.5 583.831,-356.5 439.831,-356.5"/>
<text text-anchor="start" x="447.831" y="-396.5" font-family="Helvetica,sans-Serif" font-size="10.00" fill="#000000">/home/bdn_jz/bdn_jz</text>
<text text-anchor="start" x="447.831" y="-385.5" font-family="Helvetica,sans-Serif" font-size="10.00" fill="#000000">/camera&#45;tracker&#45;cpp</text>
<text text-anchor="start" x="447.831" y="-374.5" font-family="Helvetica,sans-Serif" font-size="10.00" fill="#000000">/CameraTrackerLinux/include</text>
<text text-anchor="middle" x="511.831" y="-363.5" font-family="Helvetica,sans-Serif" font-size="10.00" fill="#000000">/nlohmann/json.hpp</text>
</a>
</g>
</g>
<!-- Node8&#45;&gt;Node9 -->
<g id="edge2" class="edge">
<title>Node8&#45;&gt;Node9</title>
<path fill="none" stroke="#191970" d="M134.8153,-740.1459C64.7252,-697.8768 -27.8384,-624.1419 8.831,-545 37.7312,-482.6261 64.4018,-473.7807 126.831,-445 181.1772,-419.9457 344.0058,-399.6945 439.6114,-389.5573"/>
<polygon fill="#191970" stroke="#191970" points="133.286,-743.308 143.6734,-745.3947 136.8545,-737.2858 133.286,-743.308"/>
</g>
<!-- Node17 -->
<g id="node11" class="node">
<title>Node17</title>
<g id="a_node11"><a xlink:href="binary__reader_8hpp.html" target="_top" xlink:title="/home/bdn_jz/bdn_jz\l/camera&#45;tracker&#45;cpp\l/CameraTrackerLinux/include\l/nlohmann/detail/input/binary\l_reader.hpp">
<polygon fill="#ffffff" stroke="#000000" points="338.831,-645.5 338.831,-708.5 482.831,-708.5 482.831,-645.5 338.831,-645.5"/>
<text text-anchor="start" x="346.831" y="-696.5" font-family="Helvetica,sans-Serif" font-size="10.00" fill="#000000">/home/bdn_jz/bdn_jz</text>
<text text-anchor="start" x="346.831" y="-685.5" font-family="Helvetica,sans-Serif" font-size="10.00" fill="#000000">/camera&#45;tracker&#45;cpp</text>
<text text-anchor="start" x="346.831" y="-674.5" font-family="Helvetica,sans-Serif" font-size="10.00" fill="#000000">/CameraTrackerLinux/include</text>
<text text-anchor="start" x="346.831" y="-663.5" font-family="Helvetica,sans-Serif" font-size="10.00" fill="#000000">/nlohmann/detail/input/binary</text>
<text text-anchor="middle" x="410.831" y="-652.5" font-family="Helvetica,sans-Serif" font-size="10.00" fill="#000000">_reader.hpp</text>
</a>
</g>
</g>
<!-- Node8&#45;&gt;Node17 -->
<g id="edge11" class="edge">
<title>Node8&#45;&gt;Node17</title>
<path fill="none" stroke="#191970" d="M278.9799,-741.0054C300.8678,-730.3802 324.6465,-718.8371 345.9064,-708.5168"/>
<polygon fill="#191970" stroke="#191970" points="277.1955,-737.9809 269.7279,-745.4966 280.2525,-744.2782 277.1955,-737.9809"/>
</g>
<!-- Node20 -->
<g id="node14" class="node">
<title>Node20</title>
<g id="a_node14"><a xlink:href="lexer_8hpp.html" target="_top" xlink:title="/home/bdn_jz/bdn_jz\l/camera&#45;tracker&#45;cpp\l/CameraTrackerLinux/include\l/nlohmann/detail/input/lexer.hpp">
<polygon fill="#ffffff" stroke="#000000" points="127.331,-651 127.331,-703 282.331,-703 282.331,-651 127.331,-651"/>
<text text-anchor="start" x="135.331" y="-691" font-family="Helvetica,sans-Serif" font-size="10.00" fill="#000000">/home/bdn_jz/bdn_jz</text>
<text text-anchor="start" x="135.331" y="-680" font-family="Helvetica,sans-Serif" font-size="10.00" fill="#000000">/camera&#45;tracker&#45;cpp</text>
<text text-anchor="start" x="135.331" y="-669" font-family="Helvetica,sans-Serif" font-size="10.00" fill="#000000">/CameraTrackerLinux/include</text>
<text text-anchor="middle" x="204.831" y="-658" font-family="Helvetica,sans-Serif" font-size="10.00" fill="#000000">/nlohmann/detail/input/lexer.hpp</text>
</a>
</g>
</g>
<!-- Node8&#45;&gt;Node20 -->
<g id="edge17" class="edge">
<title>Node8&#45;&gt;Node20</title>
<path fill="none" stroke="#191970" d="M204.831,-735.1631C204.831,-724.2863 204.831,-712.8798 204.831,-703.078"/>
<polygon fill="#191970" stroke="#191970" points="201.3311,-735.3593 204.831,-745.3594 208.3311,-735.3594 201.3311,-735.3593"/>
</g>
<!-- Node21 -->
<g id="node15" class="node">
<title>Node21</title>
<g id="a_node15"><a xlink:href="parser_8hpp.html" target="_top" xlink:title="/home/bdn_jz/bdn_jz\l/camera&#45;tracker&#45;cpp\l/CameraTrackerLinux/include\l/nlohmann/detail/input/parser.hpp">
<polygon fill="#ffffff" stroke="#000000" points="18.331,-551 18.331,-603 179.331,-603 179.331,-551 18.331,-551"/>
<text text-anchor="start" x="26.331" y="-591" font-family="Helvetica,sans-Serif" font-size="10.00" fill="#000000">/home/bdn_jz/bdn_jz</text>
<text text-anchor="start" x="26.331" y="-580" font-family="Helvetica,sans-Serif" font-size="10.00" fill="#000000">/camera&#45;tracker&#45;cpp</text>
<text text-anchor="start" x="26.331" y="-569" font-family="Helvetica,sans-Serif" font-size="10.00" fill="#000000">/CameraTrackerLinux/include</text>
<text text-anchor="middle" x="98.831" y="-558" font-family="Helvetica,sans-Serif" font-size="10.00" fill="#000000">/nlohmann/detail/input/parser.hpp</text>
</a>
</g>
</g>
<!-- Node8&#45;&gt;Node21 -->
<g id="edge21" class="edge">
<title>Node8&#45;&gt;Node21</title>
<path fill="none" stroke="#191970" d="M143.4423,-738.9912C133.4968,-730.2854 124.3411,-720.2352 117.831,-709 98.7942,-676.1462 96.3507,-631.2135 97.053,-603.1612"/>
<polygon fill="#191970" stroke="#191970" points="141.2345,-741.7072 151.1709,-745.3839 145.6961,-736.3132 141.2345,-741.7072"/>
</g>
<!-- Node10 -->
<g id="node4" class="node">
<title>Node10</title>
<g id="a_node4"><a xlink:href="_json_utilization_8h.html" target="_top" xlink:title="This file contains the declaration of the namespace jsonUtilization. ">
<polygon fill="#ffffff" stroke="#000000" points="439.831,-267.5 439.831,-319.5 583.831,-319.5 583.831,-267.5 439.831,-267.5"/>
<text text-anchor="start" x="447.831" y="-307.5" font-family="Helvetica,sans-Serif" font-size="10.00" fill="#000000">/home/bdn_jz/bdn_jz</text>
<text text-anchor="start" x="447.831" y="-296.5" font-family="Helvetica,sans-Serif" font-size="10.00" fill="#000000">/camera&#45;tracker&#45;cpp</text>
<text text-anchor="start" x="447.831" y="-285.5" font-family="Helvetica,sans-Serif" font-size="10.00" fill="#000000">/CameraTrackerLinux/include</text>
<text text-anchor="middle" x="511.831" y="-274.5" font-family="Helvetica,sans-Serif" font-size="10.00" fill="#000000">/JsonUtilization.h</text>
</a>
</g>
</g>
<!-- Node9&#45;&gt;Node10 -->
<g id="edge3" class="edge">
<title>Node9&#45;&gt;Node10</title>
<path fill="none" stroke="#191970" d="M511.831,-346.1155C511.831,-337.2061 511.831,-327.8475 511.831,-319.5341"/>
<polygon fill="#191970" stroke="#191970" points="508.3311,-346.2784 511.831,-356.2784 515.3311,-346.2785 508.3311,-346.2784"/>
</g>
<!-- Node11 -->
<g id="node5" class="node">
<title>Node11</title>
<g id="a_node5"><a xlink:href="_pose_estimation_8h.html" target="_top" xlink:title="This file contains the declaration of the PoseEstimation class. ">
<polygon fill="#ffffff" stroke="#000000" points="362.831,-178.5 362.831,-230.5 506.831,-230.5 506.831,-178.5 362.831,-178.5"/>
<text text-anchor="start" x="370.831" y="-218.5" font-family="Helvetica,sans-Serif" font-size="10.00" fill="#000000">/home/bdn_jz/bdn_jz</text>
<text text-anchor="start" x="370.831" y="-207.5" font-family="Helvetica,sans-Serif" font-size="10.00" fill="#000000">/camera&#45;tracker&#45;cpp</text>
<text text-anchor="start" x="370.831" y="-196.5" font-family="Helvetica,sans-Serif" font-size="10.00" fill="#000000">/CameraTrackerLinux/include</text>
<text text-anchor="middle" x="434.831" y="-185.5" font-family="Helvetica,sans-Serif" font-size="10.00" fill="#000000">/PoseEstimation.h</text>
</a>
</g>
</g>
<!-- Node10&#45;&gt;Node11 -->
<g id="edge4" class="edge">
<title>Node10&#45;&gt;Node11</title>
<path fill="none" stroke="#191970" d="M482.6021,-259.7159C474.2369,-250.0472 465.251,-239.6608 457.3549,-230.5341"/>
<polygon fill="#191970" stroke="#191970" points="479.9552,-262.0059 489.1449,-267.2784 485.2489,-257.4259 479.9552,-262.0059"/>
</g>
<!-- Node16 -->
<g id="node10" class="node">
<title>Node16</title>
<g id="a_node10"><a xlink:href="_json_utilization_8cpp.html" target="_top" xlink:title="/home/bdn_jz/bdn_jz\l/camera&#45;tracker&#45;cpp\l/CameraTrackerLinux/src\l/JsonUtilization.cpp">
<polygon fill="#ffffff" stroke="#000000" points="525.331,-178.5 525.331,-230.5 652.331,-230.5 652.331,-178.5 525.331,-178.5"/>
<text text-anchor="start" x="533.331" y="-218.5" font-family="Helvetica,sans-Serif" font-size="10.00" fill="#000000">/home/bdn_jz/bdn_jz</text>
<text text-anchor="start" x="533.331" y="-207.5" font-family="Helvetica,sans-Serif" font-size="10.00" fill="#000000">/camera&#45;tracker&#45;cpp</text>
<text text-anchor="start" x="533.331" y="-196.5" font-family="Helvetica,sans-Serif" font-size="10.00" fill="#000000">/CameraTrackerLinux/src</text>
<text text-anchor="middle" x="588.831" y="-185.5" font-family="Helvetica,sans-Serif" font-size="10.00" fill="#000000">/JsonUtilization.cpp</text>
</a>
</g>
</g>
<!-- Node10&#45;&gt;Node16 -->
<g id="edge10" class="edge">
<title>Node10&#45;&gt;Node16</title>
<path fill="none" stroke="#191970" d="M541.0599,-259.7159C549.425,-250.0472 558.411,-239.6608 566.3071,-230.5341"/>
<polygon fill="#191970" stroke="#191970" points="538.413,-257.4259 534.5171,-267.2784 543.7068,-262.0059 538.413,-257.4259"/>
</g>
<!-- Node12 -->
<g id="node6" class="node">
<title>Node12</title>
<g id="a_node6"><a xlink:href="_tracker_8h.html" target="_top" xlink:title="This file contains declarations of the Tracker class. ">
<polygon fill="#ffffff" stroke="#000000" points="362.831,-89.5 362.831,-141.5 506.831,-141.5 506.831,-89.5 362.831,-89.5"/>
<text text-anchor="start" x="370.831" y="-129.5" font-family="Helvetica,sans-Serif" font-size="10.00" fill="#000000">/home/bdn_jz/bdn_jz</text>
<text text-anchor="start" x="370.831" y="-118.5" font-family="Helvetica,sans-Serif" font-size="10.00" fill="#000000">/camera&#45;tracker&#45;cpp</text>
<text text-anchor="start" x="370.831" y="-107.5" font-family="Helvetica,sans-Serif" font-size="10.00" fill="#000000">/CameraTrackerLinux/include</text>
<text text-anchor="middle" x="434.831" y="-96.5" font-family="Helvetica,sans-Serif" font-size="10.00" fill="#000000">/Tracker.h</text>
</a>
</g>
</g>
<!-- Node11&#45;&gt;Node12 -->
<g id="edge5" class="edge">
<title>Node11&#45;&gt;Node12</title>
<path fill="none" stroke="#191970" d="M434.831,-168.1155C434.831,-159.2061 434.831,-149.8475 434.831,-141.5341"/>
<polygon fill="#191970" stroke="#191970" points="431.3311,-168.2784 434.831,-178.2784 438.3311,-168.2785 431.3311,-168.2784"/>
</g>
<!-- Node13 -->
<g id="node7" class="node">
<title>Node13</title>
<g id="a_node7"><a xlink:href="main_8cpp.html" target="_top" xlink:title="/home/bdn_jz/bdn_jz\l/camera&#45;tracker&#45;cpp\l/CameraTrackerLinux/main.cpp">
<polygon fill="#ffffff" stroke="#000000" points="258.331,-6 258.331,-47 411.331,-47 411.331,-6 258.331,-6"/>
<text text-anchor="start" x="266.331" y="-35" font-family="Helvetica,sans-Serif" font-size="10.00" fill="#000000">/home/bdn_jz/bdn_jz</text>
<text text-anchor="start" x="266.331" y="-24" font-family="Helvetica,sans-Serif" font-size="10.00" fill="#000000">/camera&#45;tracker&#45;cpp</text>
<text text-anchor="middle" x="334.831" y="-13" font-family="Helvetica,sans-Serif" font-size="10.00" fill="#000000">/CameraTrackerLinux/main.cpp</text>
</a>
</g>
</g>
<!-- Node11&#45;&gt;Node13 -->
<g id="edge8" class="edge">
<title>Node11&#45;&gt;Node13</title>
<path fill="none" stroke="#191970" d="M380.8179,-172.0704C370.4168,-163.5125 360.6524,-153.4232 353.831,-142 336.2231,-112.5138 333.5828,-71.623 333.8218,-47.2355"/>
<polygon fill="#191970" stroke="#191970" points="378.8125,-174.9445 388.8576,-178.313 383.1056,-169.4155 378.8125,-174.9445"/>
</g>
<!-- Node15 -->
<g id="node9" class="node">
<title>Node15</title>
<g id="a_node9"><a xlink:href="_pose_estimation_8cpp.html" target="_top" xlink:title="/home/bdn_jz/bdn_jz\l/camera&#45;tracker&#45;cpp\l/CameraTrackerLinux/src\l/PoseEstimation.cpp">
<polygon fill="#ffffff" stroke="#000000" points="525.331,-89.5 525.331,-141.5 652.331,-141.5 652.331,-89.5 525.331,-89.5"/>
<text text-anchor="start" x="533.331" y="-129.5" font-family="Helvetica,sans-Serif" font-size="10.00" fill="#000000">/home/bdn_jz/bdn_jz</text>
<text text-anchor="start" x="533.331" y="-118.5" font-family="Helvetica,sans-Serif" font-size="10.00" fill="#000000">/camera&#45;tracker&#45;cpp</text>
<text text-anchor="start" x="533.331" y="-107.5" font-family="Helvetica,sans-Serif" font-size="10.00" fill="#000000">/CameraTrackerLinux/src</text>
<text text-anchor="middle" x="588.831" y="-96.5" font-family="Helvetica,sans-Serif" font-size="10.00" fill="#000000">/PoseEstimation.cpp</text>
</a>
</g>
</g>
<!-- Node11&#45;&gt;Node15 -->
<g id="edge9" class="edge">
<title>Node11&#45;&gt;Node15</title>
<path fill="none" stroke="#191970" d="M489.3384,-172.9989C507.1583,-162.7004 526.7401,-151.3837 543.7831,-141.5341"/>
<polygon fill="#191970" stroke="#191970" points="487.1099,-170.2443 480.2031,-178.2784 490.6126,-176.305 487.1099,-170.2443"/>
</g>
<!-- Node12&#45;&gt;Node13 -->
<g id="edge6" class="edge">
<title>Node12&#45;&gt;Node13</title>
<path fill="none" stroke="#191970" d="M397.7263,-82.4768C384.4378,-70.6501 369.845,-57.6625 358.0637,-47.1771"/>
<polygon fill="#191970" stroke="#191970" points="395.5716,-85.2446 405.3686,-89.2784 400.2255,-80.0156 395.5716,-85.2446"/>
</g>
<!-- Node14 -->
<g id="node8" class="node">
<title>Node14</title>
<g id="a_node8"><a xlink:href="_tracker_8cpp.html" target="_top" xlink:title="/home/bdn_jz/bdn_jz\l/camera&#45;tracker&#45;cpp\l/CameraTrackerLinux/src\l/Tracker.cpp">
<polygon fill="#ffffff" stroke="#000000" points="429.331,-.5 429.331,-52.5 556.331,-52.5 556.331,-.5 429.331,-.5"/>
<text text-anchor="start" x="437.331" y="-40.5" font-family="Helvetica,sans-Serif" font-size="10.00" fill="#000000">/home/bdn_jz/bdn_jz</text>
<text text-anchor="start" x="437.331" y="-29.5" font-family="Helvetica,sans-Serif" font-size="10.00" fill="#000000">/camera&#45;tracker&#45;cpp</text>
<text text-anchor="start" x="437.331" y="-18.5" font-family="Helvetica,sans-Serif" font-size="10.00" fill="#000000">/CameraTrackerLinux/src</text>
<text text-anchor="middle" x="492.831" y="-7.5" font-family="Helvetica,sans-Serif" font-size="10.00" fill="#000000">/Tracker.cpp</text>
</a>
</g>
</g>
<!-- Node12&#45;&gt;Node14 -->
<g id="edge7" class="edge">
<title>Node12&#45;&gt;Node14</title>
<path fill="none" stroke="#191970" d="M457.4103,-80.8525C463.5499,-71.4313 470.0939,-61.3897 475.8649,-52.5341"/>
<polygon fill="#191970" stroke="#191970" points="454.4467,-78.9895 451.9192,-89.2784 460.3113,-82.8114 454.4467,-78.9895"/>
</g>
<!-- Node17&#45;&gt;Node9 -->
<g id="edge12" class="edge">
<title>Node17&#45;&gt;Node9</title>
<path fill="none" stroke="#191970" d="M417.3276,-635.2963C421.9946,-609.019 429.1695,-574.5879 438.831,-545 455.1032,-495.1669 481.8298,-440.0855 498.0334,-408.552"/>
<polygon fill="#191970" stroke="#191970" points="413.853,-634.8498 415.6016,-645.2993 420.751,-636.04 413.853,-634.8498"/>
</g>
<!-- Node18 -->
<g id="node12" class="node">
<title>Node18</title>
<g id="a_node12"><a xlink:href="binary__writer_8hpp.html" target="_top" xlink:title="/home/bdn_jz/bdn_jz\l/camera&#45;tracker&#45;cpp\l/CameraTrackerLinux/include\l/nlohmann/detail/output/binary\l_writer.hpp">
<polygon fill="#ffffff" stroke="#000000" points="244.331,-545.5 244.331,-608.5 391.331,-608.5 391.331,-545.5 244.331,-545.5"/>
<text text-anchor="start" x="252.331" y="-596.5" font-family="Helvetica,sans-Serif" font-size="10.00" fill="#000000">/home/bdn_jz/bdn_jz</text>
<text text-anchor="start" x="252.331" y="-585.5" font-family="Helvetica,sans-Serif" font-size="10.00" fill="#000000">/camera&#45;tracker&#45;cpp</text>
<text text-anchor="start" x="252.331" y="-574.5" font-family="Helvetica,sans-Serif" font-size="10.00" fill="#000000">/CameraTrackerLinux/include</text>
<text text-anchor="start" x="252.331" y="-563.5" font-family="Helvetica,sans-Serif" font-size="10.00" fill="#000000">/nlohmann/detail/output/binary</text>
<text text-anchor="middle" x="317.831" y="-552.5" font-family="Helvetica,sans-Serif" font-size="10.00" fill="#000000">_writer.hpp</text>
</a>
</g>
</g>
<!-- Node17&#45;&gt;Node18 -->
<g id="edge13" class="edge">
<title>Node17&#45;&gt;Node18</title>
<path fill="none" stroke="#191970" d="M374.37,-637.7946C365.4249,-628.1763 355.9594,-617.9983 347.3845,-608.778"/>
<polygon fill="#191970" stroke="#191970" points="372.0321,-640.4202 381.4052,-645.3594 377.158,-635.6531 372.0321,-640.4202"/>
</g>
<!-- Node18&#45;&gt;Node9 -->
<g id="edge14" class="edge">
<title>Node18&#45;&gt;Node9</title>
<path fill="none" stroke="#191970" d="M379.0608,-539.6167C391.9032,-530.416 404.8638,-520.0146 415.831,-509 440.1863,-484.5393 438.9928,-472.5186 459.831,-445 469.1191,-432.7343 479.9248,-419.583 489.272,-408.5239"/>
<polygon fill="#191970" stroke="#191970" points="376.8548,-536.8883 370.6608,-545.484 380.8632,-542.6271 376.8548,-536.8883"/>
</g>
<!-- Node19 -->
<g id="node13" class="node">
<title>Node19</title>
<g id="a_node13"><a xlink:href="serializer_8hpp.html" target="_top" xlink:title="/home/bdn_jz/bdn_jz\l/camera&#45;tracker&#45;cpp\l/CameraTrackerLinux/include\l/nlohmann/detail/output/serializer.hpp">
<polygon fill="#ffffff" stroke="#000000" points="228.331,-451 228.331,-503 407.331,-503 407.331,-451 228.331,-451"/>
<text text-anchor="start" x="236.331" y="-491" font-family="Helvetica,sans-Serif" font-size="10.00" fill="#000000">/home/bdn_jz/bdn_jz</text>
<text text-anchor="start" x="236.331" y="-480" font-family="Helvetica,sans-Serif" font-size="10.00" fill="#000000">/camera&#45;tracker&#45;cpp</text>
<text text-anchor="start" x="236.331" y="-469" font-family="Helvetica,sans-Serif" font-size="10.00" fill="#000000">/CameraTrackerLinux/include</text>
<text text-anchor="middle" x="317.831" y="-458" font-family="Helvetica,sans-Serif" font-size="10.00" fill="#000000">/nlohmann/detail/output/serializer.hpp</text>
</a>
</g>
</g>
<!-- Node18&#45;&gt;Node19 -->
<g id="edge15" class="edge">
<title>Node18&#45;&gt;Node19</title>
<path fill="none" stroke="#191970" d="M317.831,-535.1631C317.831,-524.2863 317.831,-512.8798 317.831,-503.078"/>
<polygon fill="#191970" stroke="#191970" points="314.3311,-535.3593 317.831,-545.3594 321.3311,-535.3594 314.3311,-535.3593"/>
</g>
<!-- Node19&#45;&gt;Node9 -->
<g id="edge16" class="edge">
<title>Node19&#45;&gt;Node9</title>
<path fill="none" stroke="#191970" d="M380.4138,-446.5151C405.4721,-434.3088 434.0514,-420.3875 458.1443,-408.6515"/>
<polygon fill="#191970" stroke="#191970" points="378.8133,-443.4015 371.3559,-450.9273 381.8788,-449.6946 378.8133,-443.4015"/>
</g>
<!-- Node20&#45;&gt;Node9 -->
<g id="edge18" class="edge">
<title>Node20&#45;&gt;Node9</title>
<path fill="none" stroke="#191970" d="M201.9047,-640.7611C198.0534,-582.9433 194.3666,-473.4365 218.831,-445 247.0705,-412.1755 362.5179,-395.6105 439.7893,-388.0399"/>
<polygon fill="#191970" stroke="#191970" points="198.4264,-641.1943 202.619,-650.9243 205.4092,-640.7035 198.4264,-641.1943"/>
</g>
<!-- Node20&#45;&gt;Node21 -->
<g id="edge19" class="edge">
<title>Node20&#45;&gt;Node21</title>
<path fill="none" stroke="#191970" d="M169.7016,-643.8591C155.6996,-630.6496 139.8129,-615.6622 126.6347,-603.2299"/>
<polygon fill="#191970" stroke="#191970" points="167.5817,-646.6709 177.2574,-650.9872 172.3853,-641.5791 167.5817,-646.6709"/>
</g>
<!-- Node21&#45;&gt;Node9 -->
<g id="edge20" class="edge">
<title>Node21&#45;&gt;Node9</title>
<path fill="none" stroke="#191970" d="M112.8031,-541.3833C126.6696,-510.8849 150.9198,-468.3112 185.831,-445 226.508,-417.8387 356.577,-399.2178 439.6038,-389.7536"/>
<polygon fill="#191970" stroke="#191970" points="109.4751,-540.2576 108.6654,-550.8214 115.8861,-543.0682 109.4751,-540.2576"/>
</g>
<!-- Node22&#45;&gt;Node9 -->
<g id="edge23" class="edge">
<title>Node22&#45;&gt;Node9</title>
<path fill="none" stroke="#191970" d="M736.1301,-871.6608C827.0397,-863.9695 965.3109,-846.3628 1000.831,-809 1041.6694,-766.0429 1019.831,-736.2713 1019.831,-677 1019.831,-677 1019.831,-677 1019.831,-577 1019.831,-512.9198 1012.9448,-483.6478 961.831,-445 903.792,-401.116 695.6749,-388.0234 583.9495,-384.1331"/>
<polygon fill="#191970" stroke="#191970" points="735.7933,-868.1766 726.1138,-872.4845 736.3671,-875.1531 735.7933,-868.1766"/>
</g>
<!-- Node23 -->
<g id="node17" class="node">
<title>Node23</title>
<g id="a_node17"><a xlink:href="from__json_8hpp.html" target="_top" xlink:title="/home/bdn_jz/bdn_jz\l/camera&#45;tracker&#45;cpp\l/CameraTrackerLinux/include\l/nlohmann/detail/conversions\l/from_json.hpp">
<polygon fill="#ffffff" stroke="#000000" points="447.831,-545.5 447.831,-608.5 591.831,-608.5 591.831,-545.5 447.831,-545.5"/>
<text text-anchor="start" x="455.831" y="-596.5" font-family="Helvetica,sans-Serif" font-size="10.00" fill="#000000">/home/bdn_jz/bdn_jz</text>
<text text-anchor="start" x="455.831" y="-585.5" font-family="Helvetica,sans-Serif" font-size="10.00" fill="#000000">/camera&#45;tracker&#45;cpp</text>
<text text-anchor="start" x="455.831" y="-574.5" font-family="Helvetica,sans-Serif" font-size="10.00" fill="#000000">/CameraTrackerLinux/include</text>
<text text-anchor="start" x="455.831" y="-563.5" font-family="Helvetica,sans-Serif" font-size="10.00" fill="#000000">/nlohmann/detail/conversions</text>
<text text-anchor="middle" x="519.831" y="-552.5" font-family="Helvetica,sans-Serif" font-size="10.00" fill="#000000">/from_json.hpp</text>
</a>
</g>
</g>
<!-- Node22&#45;&gt;Node23 -->
<g id="edge24" class="edge">
<title>Node22&#45;&gt;Node23</title>
<path fill="none" stroke="#191970" d="M635.6095,-836.2056C608.5637,-775.6552 558.3679,-663.2768 533.9304,-608.5658"/>
<polygon fill="#191970" stroke="#191970" points="632.4698,-837.7586 639.7439,-845.4618 638.8612,-834.9037 632.4698,-837.7586"/>
</g>
<!-- Node25 -->
<g id="node19" class="node">
<title>Node25</title>
<g id="a_node19"><a xlink:href="to__json_8hpp.html" target="_top" xlink:title="/home/bdn_jz/bdn_jz\l/camera&#45;tracker&#45;cpp\l/CameraTrackerLinux/include\l/nlohmann/detail/conversions\l/to_json.hpp">
<polygon fill="#ffffff" stroke="#000000" points="609.831,-545.5 609.831,-608.5 753.831,-608.5 753.831,-545.5 609.831,-545.5"/>
<text text-anchor="start" x="617.831" y="-596.5" font-family="Helvetica,sans-Serif" font-size="10.00" fill="#000000">/home/bdn_jz/bdn_jz</text>
<text text-anchor="start" x="617.831" y="-585.5" font-family="Helvetica,sans-Serif" font-size="10.00" fill="#000000">/camera&#45;tracker&#45;cpp</text>
<text text-anchor="start" x="617.831" y="-574.5" font-family="Helvetica,sans-Serif" font-size="10.00" fill="#000000">/CameraTrackerLinux/include</text>
<text text-anchor="start" x="617.831" y="-563.5" font-family="Helvetica,sans-Serif" font-size="10.00" fill="#000000">/nlohmann/detail/conversions</text>
<text text-anchor="middle" x="681.831" y="-552.5" font-family="Helvetica,sans-Serif" font-size="10.00" fill="#000000">/to_json.hpp</text>
</a>
</g>
</g>
<!-- Node22&#45;&gt;Node25 -->
<g id="edge28" class="edge">
<title>Node22&#45;&gt;Node25</title>
<path fill="none" stroke="#191970" d="M642.8076,-835.6504C632.141,-788.5213 620.1047,-709.6515 638.831,-645 642.5227,-632.2544 649.3961,-619.6041 656.5813,-608.7336"/>
<polygon fill="#191970" stroke="#191970" points="639.4259,-836.5598 645.1208,-845.4939 646.2403,-834.9584 639.4259,-836.5598"/>
</g>
<!-- Node26 -->
<g id="node20" class="node">
<title>Node26</title>
<g id="a_node20"><a xlink:href="iter__impl_8hpp.html" target="_top" xlink:title="/home/bdn_jz/bdn_jz\l/camera&#45;tracker&#45;cpp\l/CameraTrackerLinux/include\l/nlohmann/detail/iterators\l/iter_impl.hpp">
<polygon fill="#ffffff" stroke="#000000" points="777.831,-445.5 777.831,-508.5 921.831,-508.5 921.831,-445.5 777.831,-445.5"/>
<text text-anchor="start" x="785.831" y="-496.5" font-family="Helvetica,sans-Serif" font-size="10.00" fill="#000000">/home/bdn_jz/bdn_jz</text>
<text text-anchor="start" x="785.831" y="-485.5" font-family="Helvetica,sans-Serif" font-size="10.00" fill="#000000">/camera&#45;tracker&#45;cpp</text>
<text text-anchor="start" x="785.831" y="-474.5" font-family="Helvetica,sans-Serif" font-size="10.00" fill="#000000">/CameraTrackerLinux/include</text>
<text text-anchor="start" x="785.831" y="-463.5" font-family="Helvetica,sans-Serif" font-size="10.00" fill="#000000">/nlohmann/detail/iterators</text>
<text text-anchor="middle" x="849.831" y="-452.5" font-family="Helvetica,sans-Serif" font-size="10.00" fill="#000000">/iter_impl.hpp</text>
</a>
</g>
</g>
<!-- Node22&#45;&gt;Node26 -->
<g id="edge31" class="edge">
<title>Node22&#45;&gt;Node26</title>
<path fill="none" stroke="#191970" d="M697.9443,-838.6113C731.3025,-807.1138 775.5409,-759.6002 800.831,-709 833.9587,-642.7182 844.7254,-554.9479 848.1985,-508.676"/>
<polygon fill="#191970" stroke="#191970" points="695.5057,-836.0997 690.5752,-845.4774 700.2776,-841.2211 695.5057,-836.0997"/>
</g>
<!-- Node27 -->
<g id="node21" class="node">
<title>Node27</title>
<g id="a_node21"><a xlink:href="iteration__proxy_8hpp.html" target="_top" xlink:title="/home/bdn_jz/bdn_jz\l/camera&#45;tracker&#45;cpp\l/CameraTrackerLinux/include\l/nlohmann/detail/iterators\l/iteration_proxy.hpp">
<polygon fill="#ffffff" stroke="#000000" points="647.831,-645.5 647.831,-708.5 791.831,-708.5 791.831,-645.5 647.831,-645.5"/>
<text text-anchor="start" x="655.831" y="-696.5" font-family="Helvetica,sans-Serif" font-size="10.00" fill="#000000">/home/bdn_jz/bdn_jz</text>
<text text-anchor="start" x="655.831" y="-685.5" font-family="Helvetica,sans-Serif" font-size="10.00" fill="#000000">/camera&#45;tracker&#45;cpp</text>
<text text-anchor="start" x="655.831" y="-674.5" font-family="Helvetica,sans-Serif" font-size="10.00" fill="#000000">/CameraTrackerLinux/include</text>
<text text-anchor="start" x="655.831" y="-663.5" font-family="Helvetica,sans-Serif" font-size="10.00" fill="#000000">/nlohmann/detail/iterators</text>
<text text-anchor="middle" x="719.831" y="-652.5" font-family="Helvetica,sans-Serif" font-size="10.00" fill="#000000">/iteration_proxy.hpp</text>
</a>
</g>
</g>
<!-- Node22&#45;&gt;Node27 -->
<g id="edge33" class="edge">
<title>Node22&#45;&gt;Node27</title>
<path fill="none" stroke="#191970" d="M667.4844,-835.6261C679.9458,-797.8642 698.0971,-742.8604 709.422,-708.5423"/>
<polygon fill="#191970" stroke="#191970" points="664.099,-834.7163 664.2889,-845.3094 670.7464,-836.91 664.099,-834.7163"/>
</g>
<!-- Node28 -->
<g id="node22" class="node">
<title>Node28</title>
<g id="a_node22"><a xlink:href="json__ref_8hpp.html" target="_top" xlink:title="/home/bdn_jz/bdn_jz\l/camera&#45;tracker&#45;cpp\l/CameraTrackerLinux/include\l/nlohmann/detail/json_ref.hpp">
<polygon fill="#ffffff" stroke="#000000" points="847.831,-751 847.831,-803 991.831,-803 991.831,-751 847.831,-751"/>
<text text-anchor="start" x="855.831" y="-791" font-family="Helvetica,sans-Serif" font-size="10.00" fill="#000000">/home/bdn_jz/bdn_jz</text>
<text text-anchor="start" x="855.831" y="-780" font-family="Helvetica,sans-Serif" font-size="10.00" fill="#000000">/camera&#45;tracker&#45;cpp</text>
<text text-anchor="start" x="855.831" y="-769" font-family="Helvetica,sans-Serif" font-size="10.00" fill="#000000">/CameraTrackerLinux/include</text>
<text text-anchor="middle" x="919.831" y="-758" font-family="Helvetica,sans-Serif" font-size="10.00" fill="#000000">/nlohmann/detail/json_ref.hpp</text>
</a>
</g>
</g>
<!-- Node22&#45;&gt;Node28 -->
<g id="edge36" class="edge">
<title>Node22&#45;&gt;Node28</title>
<path fill="none" stroke="#191970" d="M735.8336,-846.1719C772.4785,-832.3957 815.2104,-816.3311 850.265,-803.1526"/>
<polygon fill="#191970" stroke="#191970" points="734.294,-843.0115 726.1653,-849.8067 736.7573,-849.5638 734.294,-843.0115"/>
</g>
<!-- Node29 -->
<g id="node23" class="node">
<title>Node29</title>
<g id="a_node23"><a xlink:href="is__sax_8hpp.html" target="_top" xlink:title="/home/bdn_jz/bdn_jz\l/camera&#45;tracker&#45;cpp\l/CameraTrackerLinux/include\l/nlohmann/detail/meta/is\l_sax.hpp">
<polygon fill="#ffffff" stroke="#000000" points="338.831,-745.5 338.831,-808.5 482.831,-808.5 482.831,-745.5 338.831,-745.5"/>
<text text-anchor="start" x="346.831" y="-796.5" font-family="Helvetica,sans-Serif" font-size="10.00" fill="#000000">/home/bdn_jz/bdn_jz</text>
<text text-anchor="start" x="346.831" y="-785.5" font-family="Helvetica,sans-Serif" font-size="10.00" fill="#000000">/camera&#45;tracker&#45;cpp</text>
<text text-anchor="start" x="346.831" y="-774.5" font-family="Helvetica,sans-Serif" font-size="10.00" fill="#000000">/CameraTrackerLinux/include</text>
<text text-anchor="start" x="346.831" y="-763.5" font-family="Helvetica,sans-Serif" font-size="10.00" fill="#000000">/nlohmann/detail/meta/is</text>
<text text-anchor="middle" x="410.831" y="-752.5" font-family="Helvetica,sans-Serif" font-size="10.00" fill="#000000">_sax.hpp</text>
</a>
</g>
</g>
<!-- Node22&#45;&gt;Node29 -->
<g id="edge38" class="edge">
<title>Node22&#45;&gt;Node29</title>
<path fill="none" stroke="#191970" d="M571.9687,-843.3118C543.2173,-831.48 511.1402,-818.2795 483.2223,-806.7907"/>
<polygon fill="#191970" stroke="#191970" points="571.0013,-846.6985 581.5809,-847.2675 573.6653,-840.2252 571.0013,-846.6985"/>
</g>
<!-- Node23&#45;&gt;Node9 -->
<g id="edge25" class="edge">
<title>Node23&#45;&gt;Node9</title>
<path fill="none" stroke="#191970" d="M518.1022,-534.9697C516.5218,-496.5464 514.234,-440.9224 512.9028,-408.5592"/>
<polygon fill="#191970" stroke="#191970" points="514.6197,-535.4697 518.5278,-545.3173 521.6138,-535.1819 514.6197,-535.4697"/>
</g>
<!-- Node24 -->
<g id="node18" class="node">
<title>Node24</title>
<g id="a_node18"><a xlink:href="adl__serializer_8hpp.html" target="_top" xlink:title="/home/bdn_jz/bdn_jz\l/camera&#45;tracker&#45;cpp\l/CameraTrackerLinux/include\l/nlohmann/adl_serializer.hpp">
<polygon fill="#ffffff" stroke="#000000" points="539.831,-451 539.831,-503 683.831,-503 683.831,-451 539.831,-451"/>
<text text-anchor="start" x="547.831" y="-491" font-family="Helvetica,sans-Serif" font-size="10.00" fill="#000000">/home/bdn_jz/bdn_jz</text>
<text text-anchor="start" x="547.831" y="-480" font-family="Helvetica,sans-Serif" font-size="10.00" fill="#000000">/camera&#45;tracker&#45;cpp</text>
<text text-anchor="start" x="547.831" y="-469" font-family="Helvetica,sans-Serif" font-size="10.00" fill="#000000">/CameraTrackerLinux/include</text>
<text text-anchor="middle" x="611.831" y="-458" font-family="Helvetica,sans-Serif" font-size="10.00" fill="#000000">/nlohmann/adl_serializer.hpp</text>
</a>
</g>
</g>
<!-- Node23&#45;&gt;Node24 -->
<g id="edge26" class="edge">
<title>Node23&#45;&gt;Node24</title>
<path fill="none" stroke="#191970" d="M555.8561,-537.8422C566.5866,-526.1787 578.0779,-513.6881 587.8393,-503.078"/>
<polygon fill="#191970" stroke="#191970" points="553.1352,-535.6303 548.9404,-545.3594 558.2867,-540.3697 553.1352,-535.6303"/>
</g>
<!-- Node24&#45;&gt;Node9 -->
<g id="edge27" class="edge">
<title>Node24&#45;&gt;Node9</title>
<path fill="none" stroke="#191970" d="M576.8587,-443.9512C564.6835,-432.4457 551.1977,-419.7016 539.6783,-408.8157"/>
<polygon fill="#191970" stroke="#191970" points="574.5687,-446.6028 584.2408,-450.9273 579.3766,-441.5151 574.5687,-446.6028"/>
</g>
<!-- Node25&#45;&gt;Node9 -->
<g id="edge29" class="edge">
<title>Node25&#45;&gt;Node9</title>
<path fill="none" stroke="#191970" d="M698.2303,-535.8591C706.5375,-507.7621 711.3948,-471.0496 692.831,-445 679.6151,-426.4549 628.7074,-409.8594 584.2348,-398.4379"/>
<polygon fill="#191970" stroke="#191970" points="694.8895,-534.8156 695.1808,-545.4064 701.5576,-536.9455 694.8895,-534.8156"/>
</g>
<!-- Node25&#45;&gt;Node24 -->
<g id="edge30" class="edge">
<title>Node25&#45;&gt;Node24</title>
<path fill="none" stroke="#191970" d="M653.7194,-536.8405C645.7575,-525.4664 637.3005,-513.385 630.0856,-503.078"/>
<polygon fill="#191970" stroke="#191970" points="651.0806,-539.1742 659.6825,-545.3594 656.8152,-535.1599 651.0806,-539.1742"/>
</g>
<!-- Node26&#45;&gt;Node9 -->
<g id="edge32" class="edge">
<title>Node26&#45;&gt;Node9</title>
<path fill="none" stroke="#191970" d="M768.1416,-446.3531C766.6957,-445.8924 765.2579,-445.4409 763.831,-445 703.8606,-426.471 634.5705,-409.6072 583.8434,-398.0794"/>
<polygon fill="#191970" stroke="#191970" points="767.1806,-449.7214 777.7734,-449.514 769.3633,-443.0703 767.1806,-449.7214"/>
</g>
<!-- Node27&#45;&gt;Node9 -->
<g id="edge34" class="edge">
<title>Node27&#45;&gt;Node9</title>
<path fill="none" stroke="#191970" d="M750.5266,-636.5327C755.5985,-627.8667 760.091,-618.4596 762.831,-609 783.9955,-535.9307 771.6394,-494.4495 713.831,-445 677.5661,-413.9789 626.0423,-398.3465 584.1086,-390.4732"/>
<polygon fill="#191970" stroke="#191970" points="747.402,-634.929 745.0807,-645.2664 753.3418,-638.6328 747.402,-634.929"/>
</g>
<!-- Node27&#45;&gt;Node25 -->
<g id="edge35" class="edge">
<title>Node27&#45;&gt;Node25</title>
<path fill="none" stroke="#191970" d="M704.1701,-635.7872C700.7436,-626.7701 697.1675,-617.3593 693.9066,-608.778"/>
<polygon fill="#191970" stroke="#191970" points="700.9836,-637.2548 707.8075,-645.3594 707.5271,-634.7682 700.9836,-637.2548"/>
</g>
<!-- Node28&#45;&gt;Node9 -->
<g id="edge37" class="edge">
<title>Node28&#45;&gt;Node9</title>
<path fill="none" stroke="#191970" d="M935.0493,-740.9946C960.7282,-673.8928 1003.1726,-528.9328 930.831,-445 908.5331,-419.1294 698.0003,-397.8968 584.133,-388.1919"/>
<polygon fill="#191970" stroke="#191970" points="931.638,-740.1066 931.245,-750.6942 938.1547,-742.6626 931.638,-740.1066"/>
</g>
<!-- Node29&#45;&gt;Node17 -->
<g id="edge39" class="edge">
<title>Node29&#45;&gt;Node17</title>
<path fill="none" stroke="#191970" d="M410.831,-735.2111C410.831,-726.37 410.831,-717.1767 410.831,-708.778"/>
<polygon fill="#191970" stroke="#191970" points="407.3311,-735.3593 410.831,-745.3594 414.3311,-735.3594 407.3311,-735.3593"/>
</g>
<!-- Node29&#45;&gt;Node21 -->
<g id="edge40" class="edge">
<title>Node29&#45;&gt;Node21</title>
<path fill="none" stroke="#191970" d="M360.345,-738.9872C349.6564,-729.7792 338.8824,-719.5337 329.831,-709 308.1223,-683.7361 316.6908,-665.9952 290.831,-645 258.9851,-619.1448 216.5777,-602.759 179.7188,-592.5695"/>
<polygon fill="#191970" stroke="#191970" points="358.1809,-741.7404 368.087,-745.498 362.6863,-736.383 358.1809,-741.7404"/>
</g>
</g>
</svg>
        <g id="navigator" transform="translate(0 0)" fill="#404254">
                <rect fill="#f2f5e9" fill-opacity="0.5" stroke="#606060" stroke-width=".5" x="0" y="0" width="60" height="60"/>
                <use id="zoomplus" xlink:href="#zoomPlus" x="17" y="9" onmousedown="handleZoom(evt,'in')"/>
                <use id="zoomminus" xlink:href="#zoomMin" x="42" y="9" onmousedown="handleZoom(evt,'out')"/>
                <use id="reset" xlink:href="#resetDef" x="30" y="36" onmousedown="handleReset()"/>
                <g id="arrowUp" xlink:href="#dirArrow" transform="translate(30 24)" onmousedown="handlePan(0,-1)">
                  <use xlink:href="#rim" fill="#404040">
                        <set attributeName="fill" to="#808080" begin="arrowUp.mouseover" end="arrowUp.mouseout"/>
                  </use>
                  <path fill="none" stroke="white" stroke-width="1.5" d="M0,-3.0v7 M-2.5,-0.5L0,-3.0L2.5,-0.5"/>
                </g>
                <g id="arrowRight" xlink:href="#dirArrow" transform="rotate(90) translate(36 -43)" onmousedown="handlePan(1,0)">
                  <use xlink:href="#rim" fill="#404040">
                        <set attributeName="fill" to="#808080" begin="arrowRight.mouseover" end="arrowRight.mouseout"/>
                  </use>
                  <path fill="none" stroke="white" stroke-width="1.5" d="M0,-3.0v7 M-2.5,-0.5L0,-3.0L2.5,-0.5"/>
                </g>
                <g id="arrowDown" xlink:href="#dirArrow" transform="rotate(180) translate(-30 -48)" onmousedown="handlePan(0,1)">
                  <use xlink:href="#rim" fill="#404040">
                        <set attributeName="fill" to="#808080" begin="arrowDown.mouseover" end="arrowDown.mouseout"/>
                  </use>
                  <path fill="none" stroke="white" stroke-width="1.5" d="M0,-3.0v7 M-2.5,-0.5L0,-3.0L2.5,-0.5"/>
                </g>
                <g id="arrowLeft" xlink:href="#dirArrow" transform="rotate(270) translate(-36 17)" onmousedown="handlePan(-1,0)">
                  <use xlink:href="#rim" fill="#404040">
                        <set attributeName="fill" to="#808080" begin="arrowLeft.mouseover" end="arrowLeft.mouseout"/>
                  </use>
                  <path fill="none" stroke="white" stroke-width="1.5" d="M0,-3.0v7 M-2.5,-0.5L0,-3.0L2.5,-0.5"/>
                </g>
        </g>
        <svg viewBox="0 0 15 15" width="100%" height="30px" preserveAspectRatio="xMaxYMin meet">
         <g id="arrow_out" transform="scale(0.3 0.3)">
          <a xlink:href="iterator__traits_8hpp__dep__incl_org.svg" target="_base">
           <rect id="button" ry="5" rx="5" y="6" x="6" height="38" width="38"
                fill="#f2f5e9" fill-opacity="0.5" stroke="#606060" stroke-width="1.0"/>
           <path id="arrow"
             d="M 11.500037,31.436501 C 11.940474,20.09759 22.043105,11.32322 32.158766,21.979434 L 37.068811,17.246167 C 37.068811,17.246167 37.088388,32 37.088388,32 L 22.160133,31.978069 C 22.160133,31.978069 26.997745,27.140456 26.997745,27.140456 C 18.528582,18.264221 13.291696,25.230495 11.500037,31.436501 z"
             style="fill:#404040;"/>
          </a>
         </g>
        </svg>
</svg>
