<?xml version="1.0" encoding="UTF-8" standalone="no"?>
<!DOCTYPE svg PUBLIC "-//W3C//DTD SVG 1.1//EN"
 "http://www.w3.org/Graphics/SVG/1.1/DTD/svg11.dtd">
<!-- Generated by graphviz version 2.40.1 (20161225.0304)
 -->
<!-- Title: /home/bdn_jz/bdn_jz/camera&#45;tracker&#45;cpp/CameraTrackerLinux/include/nlohmann/detail/iterators/iterator_traits.hpp Pages: 1 -->
<svg width="362pt" height="195pt"
 viewBox="0.00 0.00 361.50 195.00" xmlns="http://www.w3.org/2000/svg" xmlns:xlink="http://www.w3.org/1999/xlink">
<g id="graph0" class="graph" transform="scale(1 1) rotate(0) translate(4 191)">
<title>/home/bdn_jz/bdn_jz/camera&#45;tracker&#45;cpp/CameraTrackerLinux/include/nlohmann/detail/iterators/iterator_traits.hpp</title>
<polygon fill="#ffffff" stroke="transparent" points="-4,4 -4,-191 357.5,-191 357.5,4 -4,4"/>
<!-- Node0 -->
<g id="node1" class="node">
<title>Node0</title>
<polygon fill="#bfbfbf" stroke="#000000" points="48.5,-123.5 48.5,-186.5 192.5,-186.5 192.5,-123.5 48.5,-123.5"/>
<text text-anchor="start" x="56.5" y="-174.5" font-family="Helvetica,sans-Serif" font-size="10.00" fill="#000000">/home/bdn_jz/bdn_jz</text>
<text text-anchor="start" x="56.5" y="-163.5" font-family="Helvetica,sans-Serif" font-size="10.00" fill="#000000">/camera&#45;tracker&#45;cpp</text>
<text text-anchor="start" x="56.5" y="-152.5" font-family="Helvetica,sans-Serif" font-size="10.00" fill="#000000">/CameraTrackerLinux/include</text>
<text text-anchor="start" x="56.5" y="-141.5" font-family="Helvetica,sans-Serif" font-size="10.00" fill="#000000">/nlohmann/detail/iterators</text>
<text text-anchor="middle" x="120.5" y="-130.5" font-family="Helvetica,sans-Serif" font-size="10.00" fill="#000000">/iterator_traits.hpp</text>
</g>
<!-- Node1 -->
<g id="node2" class="node">
<title>Node1</title>
<polygon fill="#ffffff" stroke="#bfbfbf" points="0,-62 0,-81 47,-81 47,-62 0,-62"/>
<text text-anchor="middle" x="23.5" y="-69" font-family="Helvetica,sans-Serif" font-size="10.00" fill="#000000">iterator</text>
</g>
<!-- Node0&#45;&gt;Node1 -->
<g id="edge1" class="edge">
<title>Node0&#45;&gt;Node1</title>
<path fill="none" stroke="#191970" d="M83.8285,-123.4322C69.8409,-111.3914 54.4555,-98.1473 42.7229,-88.0475"/>
<polygon fill="#191970" stroke="#191970" points="44.7596,-85.1826 34.8974,-81.3112 40.1928,-90.4878 44.7596,-85.1826"/>
</g>
<!-- Node2 -->
<g id="node3" class="node">
<title>Node2</title>
<g id="a_node3"><a xlink:href="void__t_8hpp.html" target="_top" target="_top" xlink:title="nlohmann/detail/meta\l/void_t.hpp">
<polygon fill="#ffffff" stroke="#000000" points="65.5,-56.5 65.5,-86.5 175.5,-86.5 175.5,-56.5 65.5,-56.5"/>
<text text-anchor="start" x="73.5" y="-74.5" font-family="Helvetica,sans-Serif" font-size="10.00" fill="#000000">nlohmann/detail/meta</text>
<text text-anchor="middle" x="120.5" y="-63.5" font-family="Helvetica,sans-Serif" font-size="10.00" fill="#000000">/void_t.hpp</text>
</a>
</g>
</g>
<!-- Node0&#45;&gt;Node2 -->
<g id="edge2" class="edge">
<title>Node0&#45;&gt;Node2</title>
<path fill="none" stroke="#191970" d="M120.5,-123.4322C120.5,-114.6979 120.5,-105.3303 120.5,-96.989"/>
<polygon fill="#191970" stroke="#191970" points="124.0001,-96.7544 120.5,-86.7545 117.0001,-96.7545 124.0001,-96.7544"/>
</g>
<!-- Node3 -->
<g id="node4" class="node">
<title>Node3</title>
<g id="a_node4"><a xlink:href="cpp__future_8hpp.html" target="_top" target="_top" xlink:title="nlohmann/detail/meta\l/cpp_future.hpp">
<polygon fill="#ffffff" stroke="#000000" points="193.5,-56.5 193.5,-86.5 303.5,-86.5 303.5,-56.5 193.5,-56.5"/>
<text text-anchor="start" x="201.5" y="-74.5" font-family="Helvetica,sans-Serif" font-size="10.00" fill="#000000">nlohmann/detail/meta</text>
<text text-anchor="middle" x="248.5" y="-63.5" font-family="Helvetica,sans-Serif" font-size="10.00" fill="#000000">/cpp_future.hpp</text>
</a>
</g>
</g>
<!-- Node0&#45;&gt;Node3 -->
<g id="edge3" class="edge">
<title>Node0&#45;&gt;Node3</title>
<path fill="none" stroke="#191970" d="M168.8913,-123.4322C184.9553,-112.953 202.4165,-101.5623 216.8814,-92.1262"/>
<polygon fill="#191970" stroke="#191970" points="218.9982,-94.9242 225.4614,-86.5291 215.1736,-89.0614 218.9982,-94.9242"/>
</g>
<!-- Node4 -->
<g id="node5" class="node">
<title>Node4</title>
<polygon fill="#ffffff" stroke="#bfbfbf" points="155.5,-.5 155.5,-19.5 205.5,-19.5 205.5,-.5 155.5,-.5"/>
<text text-anchor="middle" x="180.5" y="-7.5" font-family="Helvetica,sans-Serif" font-size="10.00" fill="#000000">ciso646</text>
</g>
<!-- Node3&#45;&gt;Node4 -->
<g id="edge4" class="edge">
<title>Node3&#45;&gt;Node4</title>
<path fill="none" stroke="#191970" d="M231.691,-56.2977C221.7603,-47.3163 209.1743,-35.9334 198.9673,-26.702"/>
<polygon fill="#191970" stroke="#191970" points="201.152,-23.9588 191.3877,-19.8469 196.4566,-29.1505 201.152,-23.9588"/>
</g>
<!-- Node5 -->
<g id="node6" class="node">
<title>Node5</title>
<polygon fill="#ffffff" stroke="#bfbfbf" points="224,-.5 224,-19.5 273,-19.5 273,-.5 224,-.5"/>
<text text-anchor="middle" x="248.5" y="-7.5" font-family="Helvetica,sans-Serif" font-size="10.00" fill="#000000">cstddef</text>
</g>
<!-- Node3&#45;&gt;Node5 -->
<g id="edge5" class="edge">
<title>Node3&#45;&gt;Node5</title>
<path fill="none" stroke="#191970" d="M248.5,-56.2977C248.5,-48.3834 248.5,-38.6043 248.5,-30.0759"/>
<polygon fill="#191970" stroke="#191970" points="252.0001,-29.8469 248.5,-19.8469 245.0001,-29.847 252.0001,-29.8469"/>
</g>
<!-- Node6 -->
<g id="node7" class="node">
<title>Node6</title>
<polygon fill="#ffffff" stroke="#bfbfbf" points="291.5,-.5 291.5,-19.5 353.5,-19.5 353.5,-.5 291.5,-.5"/>
<text text-anchor="middle" x="322.5" y="-7.5" font-family="Helvetica,sans-Serif" font-size="10.00" fill="#000000">type_traits</text>
</g>
<!-- Node3&#45;&gt;Node6 -->
<g id="edge6" class="edge">
<title>Node3&#45;&gt;Node6</title>
<path fill="none" stroke="#191970" d="M266.7921,-56.2977C277.7061,-47.2274 291.5671,-35.7077 302.7324,-26.4285"/>
<polygon fill="#191970" stroke="#191970" points="305.198,-28.9303 310.6517,-19.8469 300.7238,-23.5468 305.198,-28.9303"/>
</g>
</g>
</svg>
