<?xml version="1.0" encoding="UTF-8" standalone="no"?>
<!DOCTYPE svg PUBLIC "-//W3C//DTD SVG 1.1//EN"
 "http://www.w3.org/Graphics/SVG/1.1/DTD/svg11.dtd">
<!-- Generated by graphviz version 2.40.1 (20161225.0304)
 -->
<!-- Title: /home/bdn_jz/bdn_jz/camera&#45;tracker&#45;cpp/CameraTrackerLinux/include/nlohmann/detail/iterators/iteration_proxy.hpp Pages: 1 -->
<svg width="434pt" height="706pt"
 viewBox="0.00 0.00 433.50 706.00" xmlns="http://www.w3.org/2000/svg" xmlns:xlink="http://www.w3.org/1999/xlink">
<g id="graph0" class="graph" transform="scale(1 1) rotate(0) translate(4 702)">
<title>/home/bdn_jz/bdn_jz/camera&#45;tracker&#45;cpp/CameraTrackerLinux/include/nlohmann/detail/iterators/iteration_proxy.hpp</title>
<polygon fill="#ffffff" stroke="transparent" points="-4,4 -4,-702 429.5,-702 429.5,4 -4,4"/>
<!-- Node24 -->
<g id="node1" class="node">
<title>Node24</title>
<polygon fill="#bfbfbf" stroke="#000000" points="193.5,-634.5 193.5,-697.5 337.5,-697.5 337.5,-634.5 193.5,-634.5"/>
<text text-anchor="start" x="201.5" y="-685.5" font-family="Helvetica,sans-Serif" font-size="10.00" fill="#000000">/home/bdn_jz/bdn_jz</text>
<text text-anchor="start" x="201.5" y="-674.5" font-family="Helvetica,sans-Serif" font-size="10.00" fill="#000000">/camera&#45;tracker&#45;cpp</text>
<text text-anchor="start" x="201.5" y="-663.5" font-family="Helvetica,sans-Serif" font-size="10.00" fill="#000000">/CameraTrackerLinux/include</text>
<text text-anchor="start" x="201.5" y="-652.5" font-family="Helvetica,sans-Serif" font-size="10.00" fill="#000000">/nlohmann/detail/iterators</text>
<text text-anchor="middle" x="265.5" y="-641.5" font-family="Helvetica,sans-Serif" font-size="10.00" fill="#000000">/iteration_proxy.hpp</text>
</g>
<!-- Node25 -->
<g id="node2" class="node">
<title>Node25</title>
<g id="a_node2"><a xlink:href="json_8hpp.html" target="_top" xlink:title="/home/bdn_jz/bdn_jz\l/camera&#45;tracker&#45;cpp\l/CameraTrackerLinux/include\l/nlohmann/json.hpp">
<polygon fill="#ffffff" stroke="#000000" points="181.5,-356.5 181.5,-408.5 325.5,-408.5 325.5,-356.5 181.5,-356.5"/>
<text text-anchor="start" x="189.5" y="-396.5" font-family="Helvetica,sans-Serif" font-size="10.00" fill="#000000">/home/bdn_jz/bdn_jz</text>
<text text-anchor="start" x="189.5" y="-385.5" font-family="Helvetica,sans-Serif" font-size="10.00" fill="#000000">/camera&#45;tracker&#45;cpp</text>
<text text-anchor="start" x="189.5" y="-374.5" font-family="Helvetica,sans-Serif" font-size="10.00" fill="#000000">/CameraTrackerLinux/include</text>
<text text-anchor="middle" x="253.5" y="-363.5" font-family="Helvetica,sans-Serif" font-size="10.00" fill="#000000">/nlohmann/json.hpp</text>
</a>
</g>
</g>
<!-- Node24&#45;&gt;Node25 -->
<g id="edge1" class="edge">
<title>Node24&#45;&gt;Node25</title>
<path fill="none" stroke="#191970" d="M243.545,-625.2475C239.7994,-616.4934 236.4818,-607.1248 234.5,-598 219.9123,-530.8341 235.8895,-449.5736 246.1877,-408.6913"/>
<polygon fill="#191970" stroke="#191970" points="240.4102,-626.8094 247.7345,-634.4649 246.7829,-623.9129 240.4102,-626.8094"/>
</g>
<!-- Node33 -->
<g id="node10" class="node">
<title>Node33</title>
<g id="a_node10"><a xlink:href="to__json_8hpp.html" target="_top" xlink:title="/home/bdn_jz/bdn_jz\l/camera&#45;tracker&#45;cpp\l/CameraTrackerLinux/include\l/nlohmann/detail/conversions\l/to_json.hpp">
<polygon fill="#ffffff" stroke="#000000" points="243.5,-534.5 243.5,-597.5 387.5,-597.5 387.5,-534.5 243.5,-534.5"/>
<text text-anchor="start" x="251.5" y="-585.5" font-family="Helvetica,sans-Serif" font-size="10.00" fill="#000000">/home/bdn_jz/bdn_jz</text>
<text text-anchor="start" x="251.5" y="-574.5" font-family="Helvetica,sans-Serif" font-size="10.00" fill="#000000">/camera&#45;tracker&#45;cpp</text>
<text text-anchor="start" x="251.5" y="-563.5" font-family="Helvetica,sans-Serif" font-size="10.00" fill="#000000">/CameraTrackerLinux/include</text>
<text text-anchor="start" x="251.5" y="-552.5" font-family="Helvetica,sans-Serif" font-size="10.00" fill="#000000">/nlohmann/detail/conversions</text>
<text text-anchor="middle" x="315.5" y="-541.5" font-family="Helvetica,sans-Serif" font-size="10.00" fill="#000000">/to_json.hpp</text>
</a>
</g>
</g>
<!-- Node24&#45;&gt;Node33 -->
<g id="edge10" class="edge">
<title>Node24&#45;&gt;Node33</title>
<path fill="none" stroke="#191970" d="M285.8189,-625.3622C290.4146,-616.1709 295.2291,-606.5418 299.611,-597.778"/>
<polygon fill="#191970" stroke="#191970" points="282.662,-623.8498 281.3203,-634.3594 288.923,-626.9804 282.662,-623.8498"/>
</g>
<!-- Node26 -->
<g id="node3" class="node">
<title>Node26</title>
<g id="a_node3"><a xlink:href="_json_utilization_8h.html" target="_top" xlink:title="This file contains the declaration of the namespace jsonUtilization. ">
<polygon fill="#ffffff" stroke="#000000" points="181.5,-267.5 181.5,-319.5 325.5,-319.5 325.5,-267.5 181.5,-267.5"/>
<text text-anchor="start" x="189.5" y="-307.5" font-family="Helvetica,sans-Serif" font-size="10.00" fill="#000000">/home/bdn_jz/bdn_jz</text>
<text text-anchor="start" x="189.5" y="-296.5" font-family="Helvetica,sans-Serif" font-size="10.00" fill="#000000">/camera&#45;tracker&#45;cpp</text>
<text text-anchor="start" x="189.5" y="-285.5" font-family="Helvetica,sans-Serif" font-size="10.00" fill="#000000">/CameraTrackerLinux/include</text>
<text text-anchor="middle" x="253.5" y="-274.5" font-family="Helvetica,sans-Serif" font-size="10.00" fill="#000000">/JsonUtilization.h</text>
</a>
</g>
</g>
<!-- Node25&#45;&gt;Node26 -->
<g id="edge2" class="edge">
<title>Node25&#45;&gt;Node26</title>
<path fill="none" stroke="#191970" d="M253.5,-346.1155C253.5,-337.2061 253.5,-327.8475 253.5,-319.5341"/>
<polygon fill="#191970" stroke="#191970" points="250.0001,-346.2784 253.5,-356.2784 257.0001,-346.2785 250.0001,-346.2784"/>
</g>
<!-- Node27 -->
<g id="node4" class="node">
<title>Node27</title>
<g id="a_node4"><a xlink:href="_pose_estimation_8h.html" target="_top" xlink:title="This file contains the declaration of the PoseEstimation class. ">
<polygon fill="#ffffff" stroke="#000000" points="104.5,-178.5 104.5,-230.5 248.5,-230.5 248.5,-178.5 104.5,-178.5"/>
<text text-anchor="start" x="112.5" y="-218.5" font-family="Helvetica,sans-Serif" font-size="10.00" fill="#000000">/home/bdn_jz/bdn_jz</text>
<text text-anchor="start" x="112.5" y="-207.5" font-family="Helvetica,sans-Serif" font-size="10.00" fill="#000000">/camera&#45;tracker&#45;cpp</text>
<text text-anchor="start" x="112.5" y="-196.5" font-family="Helvetica,sans-Serif" font-size="10.00" fill="#000000">/CameraTrackerLinux/include</text>
<text text-anchor="middle" x="176.5" y="-185.5" font-family="Helvetica,sans-Serif" font-size="10.00" fill="#000000">/PoseEstimation.h</text>
</a>
</g>
</g>
<!-- Node26&#45;&gt;Node27 -->
<g id="edge3" class="edge">
<title>Node26&#45;&gt;Node27</title>
<path fill="none" stroke="#191970" d="M224.2711,-259.7159C215.906,-250.0472 206.92,-239.6608 199.0239,-230.5341"/>
<polygon fill="#191970" stroke="#191970" points="221.6242,-262.0059 230.8139,-267.2784 226.9179,-257.4259 221.6242,-262.0059"/>
</g>
<!-- Node32 -->
<g id="node9" class="node">
<title>Node32</title>
<g id="a_node9"><a xlink:href="_json_utilization_8cpp.html" target="_top" xlink:title="/home/bdn_jz/bdn_jz\l/camera&#45;tracker&#45;cpp\l/CameraTrackerLinux/src\l/JsonUtilization.cpp">
<polygon fill="#ffffff" stroke="#000000" points="267,-178.5 267,-230.5 394,-230.5 394,-178.5 267,-178.5"/>
<text text-anchor="start" x="275" y="-218.5" font-family="Helvetica,sans-Serif" font-size="10.00" fill="#000000">/home/bdn_jz/bdn_jz</text>
<text text-anchor="start" x="275" y="-207.5" font-family="Helvetica,sans-Serif" font-size="10.00" fill="#000000">/camera&#45;tracker&#45;cpp</text>
<text text-anchor="start" x="275" y="-196.5" font-family="Helvetica,sans-Serif" font-size="10.00" fill="#000000">/CameraTrackerLinux/src</text>
<text text-anchor="middle" x="330.5" y="-185.5" font-family="Helvetica,sans-Serif" font-size="10.00" fill="#000000">/JsonUtilization.cpp</text>
</a>
</g>
</g>
<!-- Node26&#45;&gt;Node32 -->
<g id="edge9" class="edge">
<title>Node26&#45;&gt;Node32</title>
<path fill="none" stroke="#191970" d="M282.7289,-259.7159C291.094,-250.0472 300.08,-239.6608 307.9761,-230.5341"/>
<polygon fill="#191970" stroke="#191970" points="280.0821,-257.4259 276.1861,-267.2784 285.3758,-262.0059 280.0821,-257.4259"/>
</g>
<!-- Node28 -->
<g id="node5" class="node">
<title>Node28</title>
<g id="a_node5"><a xlink:href="_tracker_8h.html" target="_top" xlink:title="This file contains declarations of the Tracker class. ">
<polygon fill="#ffffff" stroke="#000000" points="104.5,-89.5 104.5,-141.5 248.5,-141.5 248.5,-89.5 104.5,-89.5"/>
<text text-anchor="start" x="112.5" y="-129.5" font-family="Helvetica,sans-Serif" font-size="10.00" fill="#000000">/home/bdn_jz/bdn_jz</text>
<text text-anchor="start" x="112.5" y="-118.5" font-family="Helvetica,sans-Serif" font-size="10.00" fill="#000000">/camera&#45;tracker&#45;cpp</text>
<text text-anchor="start" x="112.5" y="-107.5" font-family="Helvetica,sans-Serif" font-size="10.00" fill="#000000">/CameraTrackerLinux/include</text>
<text text-anchor="middle" x="176.5" y="-96.5" font-family="Helvetica,sans-Serif" font-size="10.00" fill="#000000">/Tracker.h</text>
</a>
</g>
</g>
<!-- Node27&#45;&gt;Node28 -->
<g id="edge4" class="edge">
<title>Node27&#45;&gt;Node28</title>
<path fill="none" stroke="#191970" d="M176.5,-168.1155C176.5,-159.2061 176.5,-149.8475 176.5,-141.5341"/>
<polygon fill="#191970" stroke="#191970" points="173.0001,-168.2784 176.5,-178.2784 180.0001,-168.2785 173.0001,-168.2784"/>
</g>
<!-- Node29 -->
<g id="node6" class="node">
<title>Node29</title>
<g id="a_node6"><a xlink:href="main_8cpp.html" target="_top" xlink:title="/home/bdn_jz/bdn_jz\l/camera&#45;tracker&#45;cpp\l/CameraTrackerLinux/main.cpp">
<polygon fill="#ffffff" stroke="#000000" points="0,-6 0,-47 153,-47 153,-6 0,-6"/>
<text text-anchor="start" x="8" y="-35" font-family="Helvetica,sans-Serif" font-size="10.00" fill="#000000">/home/bdn_jz/bdn_jz</text>
<text text-anchor="start" x="8" y="-24" font-family="Helvetica,sans-Serif" font-size="10.00" fill="#000000">/camera&#45;tracker&#45;cpp</text>
<text text-anchor="middle" x="76.5" y="-13" font-family="Helvetica,sans-Serif" font-size="10.00" fill="#000000">/CameraTrackerLinux/main.cpp</text>
</a>
</g>
</g>
<!-- Node27&#45;&gt;Node29 -->
<g id="edge7" class="edge">
<title>Node27&#45;&gt;Node29</title>
<path fill="none" stroke="#191970" d="M122.4869,-172.0704C112.0858,-163.5125 102.3214,-153.4232 95.5,-142 77.8921,-112.5138 75.2518,-71.623 75.4908,-47.2355"/>
<polygon fill="#191970" stroke="#191970" points="120.4816,-174.9445 130.5267,-178.313 124.7747,-169.4155 120.4816,-174.9445"/>
</g>
<!-- Node31 -->
<g id="node8" class="node">
<title>Node31</title>
<g id="a_node8"><a xlink:href="_pose_estimation_8cpp.html" target="_top" xlink:title="/home/bdn_jz/bdn_jz\l/camera&#45;tracker&#45;cpp\l/CameraTrackerLinux/src\l/PoseEstimation.cpp">
<polygon fill="#ffffff" stroke="#000000" points="267,-89.5 267,-141.5 394,-141.5 394,-89.5 267,-89.5"/>
<text text-anchor="start" x="275" y="-129.5" font-family="Helvetica,sans-Serif" font-size="10.00" fill="#000000">/home/bdn_jz/bdn_jz</text>
<text text-anchor="start" x="275" y="-118.5" font-family="Helvetica,sans-Serif" font-size="10.00" fill="#000000">/camera&#45;tracker&#45;cpp</text>
<text text-anchor="start" x="275" y="-107.5" font-family="Helvetica,sans-Serif" font-size="10.00" fill="#000000">/CameraTrackerLinux/src</text>
<text text-anchor="middle" x="330.5" y="-96.5" font-family="Helvetica,sans-Serif" font-size="10.00" fill="#000000">/PoseEstimation.cpp</text>
</a>
</g>
</g>
<!-- Node27&#45;&gt;Node31 -->
<g id="edge8" class="edge">
<title>Node27&#45;&gt;Node31</title>
<path fill="none" stroke="#191970" d="M231.0074,-172.9989C248.8274,-162.7004 268.4091,-151.3837 285.4521,-141.5341"/>
<polygon fill="#191970" stroke="#191970" points="228.779,-170.2443 221.8721,-178.2784 232.2816,-176.305 228.779,-170.2443"/>
</g>
<!-- Node28&#45;&gt;Node29 -->
<g id="edge5" class="edge">
<title>Node28&#45;&gt;Node29</title>
<path fill="none" stroke="#191970" d="M139.3953,-82.4768C126.1068,-70.6501 111.514,-57.6625 99.7327,-47.1771"/>
<polygon fill="#191970" stroke="#191970" points="137.2407,-85.2446 147.0376,-89.2784 141.8945,-80.0156 137.2407,-85.2446"/>
</g>
<!-- Node30 -->
<g id="node7" class="node">
<title>Node30</title>
<g id="a_node7"><a xlink:href="_tracker_8cpp.html" target="_top" xlink:title="/home/bdn_jz/bdn_jz\l/camera&#45;tracker&#45;cpp\l/CameraTrackerLinux/src\l/Tracker.cpp">
<polygon fill="#ffffff" stroke="#000000" points="171,-.5 171,-52.5 298,-52.5 298,-.5 171,-.5"/>
<text text-anchor="start" x="179" y="-40.5" font-family="Helvetica,sans-Serif" font-size="10.00" fill="#000000">/home/bdn_jz/bdn_jz</text>
<text text-anchor="start" x="179" y="-29.5" font-family="Helvetica,sans-Serif" font-size="10.00" fill="#000000">/camera&#45;tracker&#45;cpp</text>
<text text-anchor="start" x="179" y="-18.5" font-family="Helvetica,sans-Serif" font-size="10.00" fill="#000000">/CameraTrackerLinux/src</text>
<text text-anchor="middle" x="234.5" y="-7.5" font-family="Helvetica,sans-Serif" font-size="10.00" fill="#000000">/Tracker.cpp</text>
</a>
</g>
</g>
<!-- Node28&#45;&gt;Node30 -->
<g id="edge6" class="edge">
<title>Node28&#45;&gt;Node30</title>
<path fill="none" stroke="#191970" d="M199.0793,-80.8525C205.219,-71.4313 211.7629,-61.3897 217.5339,-52.5341"/>
<polygon fill="#191970" stroke="#191970" points="196.1158,-78.9895 193.5882,-89.2784 201.9804,-82.8114 196.1158,-78.9895"/>
</g>
<!-- Node33&#45;&gt;Node25 -->
<g id="edge11" class="edge">
<title>Node33&#45;&gt;Node25</title>
<path fill="none" stroke="#191970" d="M286.3318,-525.6791C281.0408,-516.8913 276.0753,-507.3999 272.5,-498 261.3021,-468.5592 256.6989,-432.428 254.8097,-408.5007"/>
<polygon fill="#191970" stroke="#191970" points="283.4056,-527.6007 291.6918,-534.203 289.3314,-523.8744 283.4056,-527.6007"/>
</g>
<!-- Node34 -->
<g id="node11" class="node">
<title>Node34</title>
<g id="a_node11"><a xlink:href="adl__serializer_8hpp.html" target="_top" xlink:title="/home/bdn_jz/bdn_jz\l/camera&#45;tracker&#45;cpp\l/CameraTrackerLinux/include\l/nlohmann/adl_serializer.hpp">
<polygon fill="#ffffff" stroke="#000000" points="281.5,-445.5 281.5,-497.5 425.5,-497.5 425.5,-445.5 281.5,-445.5"/>
<text text-anchor="start" x="289.5" y="-485.5" font-family="Helvetica,sans-Serif" font-size="10.00" fill="#000000">/home/bdn_jz/bdn_jz</text>
<text text-anchor="start" x="289.5" y="-474.5" font-family="Helvetica,sans-Serif" font-size="10.00" fill="#000000">/camera&#45;tracker&#45;cpp</text>
<text text-anchor="start" x="289.5" y="-463.5" font-family="Helvetica,sans-Serif" font-size="10.00" fill="#000000">/CameraTrackerLinux/include</text>
<text text-anchor="middle" x="353.5" y="-452.5" font-family="Helvetica,sans-Serif" font-size="10.00" fill="#000000">/nlohmann/adl_serializer.hpp</text>
</a>
</g>
</g>
<!-- Node33&#45;&gt;Node34 -->
<g id="edge12" class="edge">
<title>Node33&#45;&gt;Node34</title>
<path fill="none" stroke="#191970" d="M332.0556,-524.8289C335.7658,-515.6021 339.6025,-506.0608 342.987,-497.6442"/>
<polygon fill="#191970" stroke="#191970" points="328.7428,-523.6862 328.2592,-534.27 335.2373,-526.2978 328.7428,-523.6862"/>
</g>
<!-- Node34&#45;&gt;Node25 -->
<g id="edge13" class="edge">
<title>Node34&#45;&gt;Node25</title>
<path fill="none" stroke="#191970" d="M316.5062,-438.5755C305.3711,-428.6653 293.3111,-417.9319 282.7519,-408.5341"/>
<polygon fill="#191970" stroke="#191970" points="314.2407,-441.2446 324.0376,-445.2784 318.8945,-436.0156 314.2407,-441.2446"/>
</g>
</g>
</svg>
