<?xml version="1.0" encoding="UTF-8" standalone="no"?>
<!DOCTYPE svg PUBLIC "-//W3C//DTD SVG 1.1//EN"
 "http://www.w3.org/Graphics/SVG/1.1/DTD/svg11.dtd">
<!-- Generated by graphviz version 2.40.1 (20161225.0304)
 -->
<!-- Title: /home/bdn_jz/bdn_jz/camera&#45;tracker&#45;cpp/CameraTrackerLinux/include/nlohmann/detail/iterators/iterator_traits.hpp Pages: 1 -->
<svg width="1034pt" height="839pt"
 viewBox="0.00 0.00 1033.73 839.00" xmlns="http://www.w3.org/2000/svg" xmlns:xlink="http://www.w3.org/1999/xlink">
<g id="graph0" class="graph" transform="scale(1 1) rotate(0) translate(4 835)">
<title>/home/bdn_jz/bdn_jz/camera&#45;tracker&#45;cpp/CameraTrackerLinux/include/nlohmann/detail/iterators/iterator_traits.hpp</title>
<polygon fill="#ffffff" stroke="transparent" points="-4,4 -4,-835 1029.7341,-835 1029.7341,4 -4,4"/>
<!-- Node7 -->
<g id="node1" class="node">
<title>Node7</title>
<polygon fill="#bfbfbf" stroke="#000000" points="378.831,-767.5 378.831,-830.5 522.831,-830.5 522.831,-767.5 378.831,-767.5"/>
<text text-anchor="start" x="386.831" y="-818.5" font-family="Helvetica,sans-Serif" font-size="10.00" fill="#000000">/home/bdn_jz/bdn_jz</text>
<text text-anchor="start" x="386.831" y="-807.5" font-family="Helvetica,sans-Serif" font-size="10.00" fill="#000000">/camera&#45;tracker&#45;cpp</text>
<text text-anchor="start" x="386.831" y="-796.5" font-family="Helvetica,sans-Serif" font-size="10.00" fill="#000000">/CameraTrackerLinux/include</text>
<text text-anchor="start" x="386.831" y="-785.5" font-family="Helvetica,sans-Serif" font-size="10.00" fill="#000000">/nlohmann/detail/iterators</text>
<text text-anchor="middle" x="450.831" y="-774.5" font-family="Helvetica,sans-Serif" font-size="10.00" fill="#000000">/iterator_traits.hpp</text>
</g>
<!-- Node8 -->
<g id="node2" class="node">
<title>Node8</title>
<g id="a_node2"><a xlink:href="input__adapters_8hpp.html" target="_top" xlink:title="/home/bdn_jz/bdn_jz\l/camera&#45;tracker&#45;cpp\l/CameraTrackerLinux/include\l/nlohmann/detail/input/input\l_adapters.hpp">
<polygon fill="#ffffff" stroke="#000000" points="132.831,-567.5 132.831,-630.5 276.831,-630.5 276.831,-567.5 132.831,-567.5"/>
<text text-anchor="start" x="140.831" y="-618.5" font-family="Helvetica,sans-Serif" font-size="10.00" fill="#000000">/home/bdn_jz/bdn_jz</text>
<text text-anchor="start" x="140.831" y="-607.5" font-family="Helvetica,sans-Serif" font-size="10.00" fill="#000000">/camera&#45;tracker&#45;cpp</text>
<text text-anchor="start" x="140.831" y="-596.5" font-family="Helvetica,sans-Serif" font-size="10.00" fill="#000000">/CameraTrackerLinux/include</text>
<text text-anchor="start" x="140.831" y="-585.5" font-family="Helvetica,sans-Serif" font-size="10.00" fill="#000000">/nlohmann/detail/input/input</text>
<text text-anchor="middle" x="204.831" y="-574.5" font-family="Helvetica,sans-Serif" font-size="10.00" fill="#000000">_adapters.hpp</text>
</a>
</g>
</g>
<!-- Node7&#45;&gt;Node8 -->
<g id="edge1" class="edge">
<title>Node7&#45;&gt;Node8</title>
<path fill="none" stroke="#191970" d="M404.034,-760.9537C357.547,-723.1594 287.0966,-665.8826 243.628,-630.5423"/>
<polygon fill="#191970" stroke="#191970" points="401.8844,-763.7168 411.8516,-767.3094 406.3002,-758.2853 401.8844,-763.7168"/>
</g>
<!-- Node18 -->
<g id="node12" class="node">
<title>Node18</title>
<g id="a_node12"><a xlink:href="type__traits_8hpp.html" target="_top" xlink:title="/home/bdn_jz/bdn_jz\l/camera&#45;tracker&#45;cpp\l/CameraTrackerLinux/include\l/nlohmann/detail/meta/type\l_traits.hpp">
<polygon fill="#ffffff" stroke="#000000" points="581.831,-667.5 581.831,-730.5 725.831,-730.5 725.831,-667.5 581.831,-667.5"/>
<text text-anchor="start" x="589.831" y="-718.5" font-family="Helvetica,sans-Serif" font-size="10.00" fill="#000000">/home/bdn_jz/bdn_jz</text>
<text text-anchor="start" x="589.831" y="-707.5" font-family="Helvetica,sans-Serif" font-size="10.00" fill="#000000">/camera&#45;tracker&#45;cpp</text>
<text text-anchor="start" x="589.831" y="-696.5" font-family="Helvetica,sans-Serif" font-size="10.00" fill="#000000">/CameraTrackerLinux/include</text>
<text text-anchor="start" x="589.831" y="-685.5" font-family="Helvetica,sans-Serif" font-size="10.00" fill="#000000">/nlohmann/detail/meta/type</text>
<text text-anchor="middle" x="653.831" y="-674.5" font-family="Helvetica,sans-Serif" font-size="10.00" fill="#000000">_traits.hpp</text>
</a>
</g>
</g>
<!-- Node7&#45;&gt;Node18 -->
<g id="edge17" class="edge">
<title>Node7&#45;&gt;Node18</title>
<path fill="none" stroke="#191970" d="M523.9,-763.0054C545.4692,-752.3802 568.9016,-740.8371 589.8519,-730.5168"/>
<polygon fill="#191970" stroke="#191970" points="522.2068,-759.9378 514.7828,-767.4966 525.3001,-766.2173 522.2068,-759.9378"/>
</g>
<!-- Node9 -->
<g id="node3" class="node">
<title>Node9</title>
<g id="a_node3"><a xlink:href="json_8hpp.html" target="_top" xlink:title="/home/bdn_jz/bdn_jz\l/camera&#45;tracker&#45;cpp\l/CameraTrackerLinux/include\l/nlohmann/json.hpp">
<polygon fill="#ffffff" stroke="#000000" points="439.831,-178.5 439.831,-230.5 583.831,-230.5 583.831,-178.5 439.831,-178.5"/>
<text text-anchor="start" x="447.831" y="-218.5" font-family="Helvetica,sans-Serif" font-size="10.00" fill="#000000">/home/bdn_jz/bdn_jz</text>
<text text-anchor="start" x="447.831" y="-207.5" font-family="Helvetica,sans-Serif" font-size="10.00" fill="#000000">/camera&#45;tracker&#45;cpp</text>
<text text-anchor="start" x="447.831" y="-196.5" font-family="Helvetica,sans-Serif" font-size="10.00" fill="#000000">/CameraTrackerLinux/include</text>
<text text-anchor="middle" x="511.831" y="-185.5" font-family="Helvetica,sans-Serif" font-size="10.00" fill="#000000">/nlohmann/json.hpp</text>
</a>
</g>
</g>
<!-- Node8&#45;&gt;Node9 -->
<g id="edge2" class="edge">
<title>Node8&#45;&gt;Node9</title>
<path fill="none" stroke="#191970" d="M134.8153,-562.1459C64.7252,-519.8768 -27.8384,-446.1419 8.831,-367 37.7312,-304.6261 64.4018,-295.7807 126.831,-267 181.1772,-241.9457 344.0058,-221.6945 439.6114,-211.5573"/>
<polygon fill="#191970" stroke="#191970" points="133.286,-565.308 143.6734,-567.3947 136.8545,-559.2858 133.286,-565.308"/>
</g>
<!-- Node13 -->
<g id="node7" class="node">
<title>Node13</title>
<g id="a_node7"><a xlink:href="binary__reader_8hpp.html" target="_top" xlink:title="/home/bdn_jz/bdn_jz\l/camera&#45;tracker&#45;cpp\l/CameraTrackerLinux/include\l/nlohmann/detail/input/binary\l_reader.hpp">
<polygon fill="#ffffff" stroke="#000000" points="338.831,-467.5 338.831,-530.5 482.831,-530.5 482.831,-467.5 338.831,-467.5"/>
<text text-anchor="start" x="346.831" y="-518.5" font-family="Helvetica,sans-Serif" font-size="10.00" fill="#000000">/home/bdn_jz/bdn_jz</text>
<text text-anchor="start" x="346.831" y="-507.5" font-family="Helvetica,sans-Serif" font-size="10.00" fill="#000000">/camera&#45;tracker&#45;cpp</text>
<text text-anchor="start" x="346.831" y="-496.5" font-family="Helvetica,sans-Serif" font-size="10.00" fill="#000000">/CameraTrackerLinux/include</text>
<text text-anchor="start" x="346.831" y="-485.5" font-family="Helvetica,sans-Serif" font-size="10.00" fill="#000000">/nlohmann/detail/input/binary</text>
<text text-anchor="middle" x="410.831" y="-474.5" font-family="Helvetica,sans-Serif" font-size="10.00" fill="#000000">_reader.hpp</text>
</a>
</g>
</g>
<!-- Node8&#45;&gt;Node13 -->
<g id="edge6" class="edge">
<title>Node8&#45;&gt;Node13</title>
<path fill="none" stroke="#191970" d="M278.9799,-563.0054C300.8678,-552.3802 324.6465,-540.8371 345.9064,-530.5168"/>
<polygon fill="#191970" stroke="#191970" points="277.1955,-559.9809 269.7279,-567.4966 280.2525,-566.2782 277.1955,-559.9809"/>
</g>
<!-- Node16 -->
<g id="node10" class="node">
<title>Node16</title>
<g id="a_node10"><a xlink:href="lexer_8hpp.html" target="_top" xlink:title="/home/bdn_jz/bdn_jz\l/camera&#45;tracker&#45;cpp\l/CameraTrackerLinux/include\l/nlohmann/detail/input/lexer.hpp">
<polygon fill="#ffffff" stroke="#000000" points="127.331,-473 127.331,-525 282.331,-525 282.331,-473 127.331,-473"/>
<text text-anchor="start" x="135.331" y="-513" font-family="Helvetica,sans-Serif" font-size="10.00" fill="#000000">/home/bdn_jz/bdn_jz</text>
<text text-anchor="start" x="135.331" y="-502" font-family="Helvetica,sans-Serif" font-size="10.00" fill="#000000">/camera&#45;tracker&#45;cpp</text>
<text text-anchor="start" x="135.331" y="-491" font-family="Helvetica,sans-Serif" font-size="10.00" fill="#000000">/CameraTrackerLinux/include</text>
<text text-anchor="middle" x="204.831" y="-480" font-family="Helvetica,sans-Serif" font-size="10.00" fill="#000000">/nlohmann/detail/input/lexer.hpp</text>
</a>
</g>
</g>
<!-- Node8&#45;&gt;Node16 -->
<g id="edge12" class="edge">
<title>Node8&#45;&gt;Node16</title>
<path fill="none" stroke="#191970" d="M204.831,-557.1631C204.831,-546.2863 204.831,-534.8798 204.831,-525.078"/>
<polygon fill="#191970" stroke="#191970" points="201.3311,-557.3593 204.831,-567.3594 208.3311,-557.3594 201.3311,-557.3593"/>
</g>
<!-- Node17 -->
<g id="node11" class="node">
<title>Node17</title>
<g id="a_node11"><a xlink:href="parser_8hpp.html" target="_top" xlink:title="/home/bdn_jz/bdn_jz\l/camera&#45;tracker&#45;cpp\l/CameraTrackerLinux/include\l/nlohmann/detail/input/parser.hpp">
<polygon fill="#ffffff" stroke="#000000" points="18.331,-373 18.331,-425 179.331,-425 179.331,-373 18.331,-373"/>
<text text-anchor="start" x="26.331" y="-413" font-family="Helvetica,sans-Serif" font-size="10.00" fill="#000000">/home/bdn_jz/bdn_jz</text>
<text text-anchor="start" x="26.331" y="-402" font-family="Helvetica,sans-Serif" font-size="10.00" fill="#000000">/camera&#45;tracker&#45;cpp</text>
<text text-anchor="start" x="26.331" y="-391" font-family="Helvetica,sans-Serif" font-size="10.00" fill="#000000">/CameraTrackerLinux/include</text>
<text text-anchor="middle" x="98.831" y="-380" font-family="Helvetica,sans-Serif" font-size="10.00" fill="#000000">/nlohmann/detail/input/parser.hpp</text>
</a>
</g>
</g>
<!-- Node8&#45;&gt;Node17 -->
<g id="edge16" class="edge">
<title>Node8&#45;&gt;Node17</title>
<path fill="none" stroke="#191970" d="M143.4423,-560.9912C133.4968,-552.2854 124.3411,-542.2352 117.831,-531 98.7942,-498.1462 96.3507,-453.2135 97.053,-425.1612"/>
<polygon fill="#191970" stroke="#191970" points="141.2345,-563.7072 151.1709,-567.3839 145.6961,-558.3132 141.2345,-563.7072"/>
</g>
<!-- Node10 -->
<g id="node4" class="node">
<title>Node10</title>
<g id="a_node4"><a xlink:href="_json_utilization_8h.html" target="_top" xlink:title="This file contains the declaration of the namespace jsonUtilization. ">
<polygon fill="#ffffff" stroke="#000000" points="439.831,-89.5 439.831,-141.5 583.831,-141.5 583.831,-89.5 439.831,-89.5"/>
<text text-anchor="start" x="447.831" y="-129.5" font-family="Helvetica,sans-Serif" font-size="10.00" fill="#000000">/home/bdn_jz/bdn_jz</text>
<text text-anchor="start" x="447.831" y="-118.5" font-family="Helvetica,sans-Serif" font-size="10.00" fill="#000000">/camera&#45;tracker&#45;cpp</text>
<text text-anchor="start" x="447.831" y="-107.5" font-family="Helvetica,sans-Serif" font-size="10.00" fill="#000000">/CameraTrackerLinux/include</text>
<text text-anchor="middle" x="511.831" y="-96.5" font-family="Helvetica,sans-Serif" font-size="10.00" fill="#000000">/JsonUtilization.h</text>
</a>
</g>
</g>
<!-- Node9&#45;&gt;Node10 -->
<g id="edge3" class="edge">
<title>Node9&#45;&gt;Node10</title>
<path fill="none" stroke="#191970" d="M511.831,-168.1155C511.831,-159.2061 511.831,-149.8475 511.831,-141.5341"/>
<polygon fill="#191970" stroke="#191970" points="508.3311,-168.2784 511.831,-178.2784 515.3311,-168.2785 508.3311,-168.2784"/>
</g>
<!-- Node11 -->
<g id="node5" class="node">
<title>Node11</title>
<g id="a_node5"><a xlink:href="main_8cpp.html" target="_top" xlink:title="/home/bdn_jz/bdn_jz\l/camera&#45;tracker&#45;cpp\l/CameraTrackerLinux/main.cpp">
<polygon fill="#ffffff" stroke="#000000" points="356.331,-6 356.331,-47 509.331,-47 509.331,-6 356.331,-6"/>
<text text-anchor="start" x="364.331" y="-35" font-family="Helvetica,sans-Serif" font-size="10.00" fill="#000000">/home/bdn_jz/bdn_jz</text>
<text text-anchor="start" x="364.331" y="-24" font-family="Helvetica,sans-Serif" font-size="10.00" fill="#000000">/camera&#45;tracker&#45;cpp</text>
<text text-anchor="middle" x="432.831" y="-13" font-family="Helvetica,sans-Serif" font-size="10.00" fill="#000000">/CameraTrackerLinux/main.cpp</text>
</a>
</g>
</g>
<!-- Node10&#45;&gt;Node11 -->
<g id="edge4" class="edge">
<title>Node10&#45;&gt;Node11</title>
<path fill="none" stroke="#191970" d="M481.6329,-81.4794C471.3757,-69.9238 460.2311,-57.3685 451.1848,-47.1771"/>
<polygon fill="#191970" stroke="#191970" points="479.2996,-84.1231 488.5557,-89.2784 484.5348,-79.4762 479.2996,-84.1231"/>
</g>
<!-- Node12 -->
<g id="node6" class="node">
<title>Node12</title>
<g id="a_node6"><a xlink:href="_json_utilization_8cpp.html" target="_top" xlink:title="/home/bdn_jz/bdn_jz\l/camera&#45;tracker&#45;cpp\l/CameraTrackerLinux/src\l/JsonUtilization.cpp">
<polygon fill="#ffffff" stroke="#000000" points="527.331,-.5 527.331,-52.5 654.331,-52.5 654.331,-.5 527.331,-.5"/>
<text text-anchor="start" x="535.331" y="-40.5" font-family="Helvetica,sans-Serif" font-size="10.00" fill="#000000">/home/bdn_jz/bdn_jz</text>
<text text-anchor="start" x="535.331" y="-29.5" font-family="Helvetica,sans-Serif" font-size="10.00" fill="#000000">/camera&#45;tracker&#45;cpp</text>
<text text-anchor="start" x="535.331" y="-18.5" font-family="Helvetica,sans-Serif" font-size="10.00" fill="#000000">/CameraTrackerLinux/src</text>
<text text-anchor="middle" x="590.831" y="-7.5" font-family="Helvetica,sans-Serif" font-size="10.00" fill="#000000">/JsonUtilization.cpp</text>
</a>
</g>
</g>
<!-- Node10&#45;&gt;Node12 -->
<g id="edge5" class="edge">
<title>Node10&#45;&gt;Node12</title>
<path fill="none" stroke="#191970" d="M541.8191,-81.7159C550.4015,-72.0472 559.6208,-61.6608 567.722,-52.5341"/>
<polygon fill="#191970" stroke="#191970" points="539.1272,-79.4762 535.1063,-89.2784 544.3623,-84.1231 539.1272,-79.4762"/>
</g>
<!-- Node13&#45;&gt;Node9 -->
<g id="edge7" class="edge">
<title>Node13&#45;&gt;Node9</title>
<path fill="none" stroke="#191970" d="M417.3276,-457.2963C421.9946,-431.019 429.1695,-396.5879 438.831,-367 455.1032,-317.1669 481.8298,-262.0855 498.0334,-230.552"/>
<polygon fill="#191970" stroke="#191970" points="413.853,-456.8498 415.6016,-467.2993 420.751,-458.04 413.853,-456.8498"/>
</g>
<!-- Node14 -->
<g id="node8" class="node">
<title>Node14</title>
<g id="a_node8"><a xlink:href="binary__writer_8hpp.html" target="_top" xlink:title="/home/bdn_jz/bdn_jz\l/camera&#45;tracker&#45;cpp\l/CameraTrackerLinux/include\l/nlohmann/detail/output/binary\l_writer.hpp">
<polygon fill="#ffffff" stroke="#000000" points="244.331,-367.5 244.331,-430.5 391.331,-430.5 391.331,-367.5 244.331,-367.5"/>
<text text-anchor="start" x="252.331" y="-418.5" font-family="Helvetica,sans-Serif" font-size="10.00" fill="#000000">/home/bdn_jz/bdn_jz</text>
<text text-anchor="start" x="252.331" y="-407.5" font-family="Helvetica,sans-Serif" font-size="10.00" fill="#000000">/camera&#45;tracker&#45;cpp</text>
<text text-anchor="start" x="252.331" y="-396.5" font-family="Helvetica,sans-Serif" font-size="10.00" fill="#000000">/CameraTrackerLinux/include</text>
<text text-anchor="start" x="252.331" y="-385.5" font-family="Helvetica,sans-Serif" font-size="10.00" fill="#000000">/nlohmann/detail/output/binary</text>
<text text-anchor="middle" x="317.831" y="-374.5" font-family="Helvetica,sans-Serif" font-size="10.00" fill="#000000">_writer.hpp</text>
</a>
</g>
</g>
<!-- Node13&#45;&gt;Node14 -->
<g id="edge8" class="edge">
<title>Node13&#45;&gt;Node14</title>
<path fill="none" stroke="#191970" d="M374.37,-459.7946C365.4249,-450.1763 355.9594,-439.9983 347.3845,-430.778"/>
<polygon fill="#191970" stroke="#191970" points="372.0321,-462.4202 381.4052,-467.3594 377.158,-457.6531 372.0321,-462.4202"/>
</g>
<!-- Node14&#45;&gt;Node9 -->
<g id="edge9" class="edge">
<title>Node14&#45;&gt;Node9</title>
<path fill="none" stroke="#191970" d="M379.0608,-361.6167C391.9032,-352.416 404.8638,-342.0146 415.831,-331 440.1863,-306.5393 438.9928,-294.5186 459.831,-267 469.1191,-254.7343 479.9248,-241.583 489.272,-230.5239"/>
<polygon fill="#191970" stroke="#191970" points="376.8548,-358.8883 370.6608,-367.484 380.8632,-364.6271 376.8548,-358.8883"/>
</g>
<!-- Node15 -->
<g id="node9" class="node">
<title>Node15</title>
<g id="a_node9"><a xlink:href="serializer_8hpp.html" target="_top" xlink:title="/home/bdn_jz/bdn_jz\l/camera&#45;tracker&#45;cpp\l/CameraTrackerLinux/include\l/nlohmann/detail/output/serializer.hpp">
<polygon fill="#ffffff" stroke="#000000" points="228.331,-273 228.331,-325 407.331,-325 407.331,-273 228.331,-273"/>
<text text-anchor="start" x="236.331" y="-313" font-family="Helvetica,sans-Serif" font-size="10.00" fill="#000000">/home/bdn_jz/bdn_jz</text>
<text text-anchor="start" x="236.331" y="-302" font-family="Helvetica,sans-Serif" font-size="10.00" fill="#000000">/camera&#45;tracker&#45;cpp</text>
<text text-anchor="start" x="236.331" y="-291" font-family="Helvetica,sans-Serif" font-size="10.00" fill="#000000">/CameraTrackerLinux/include</text>
<text text-anchor="middle" x="317.831" y="-280" font-family="Helvetica,sans-Serif" font-size="10.00" fill="#000000">/nlohmann/detail/output/serializer.hpp</text>
</a>
</g>
</g>
<!-- Node14&#45;&gt;Node15 -->
<g id="edge10" class="edge">
<title>Node14&#45;&gt;Node15</title>
<path fill="none" stroke="#191970" d="M317.831,-357.1631C317.831,-346.2863 317.831,-334.8798 317.831,-325.078"/>
<polygon fill="#191970" stroke="#191970" points="314.3311,-357.3593 317.831,-367.3594 321.3311,-357.3594 314.3311,-357.3593"/>
</g>
<!-- Node15&#45;&gt;Node9 -->
<g id="edge11" class="edge">
<title>Node15&#45;&gt;Node9</title>
<path fill="none" stroke="#191970" d="M380.4138,-268.5151C405.4721,-256.3088 434.0514,-242.3875 458.1443,-230.6515"/>
<polygon fill="#191970" stroke="#191970" points="378.8133,-265.4015 371.3559,-272.9273 381.8788,-271.6946 378.8133,-265.4015"/>
</g>
<!-- Node16&#45;&gt;Node9 -->
<g id="edge13" class="edge">
<title>Node16&#45;&gt;Node9</title>
<path fill="none" stroke="#191970" d="M201.9047,-462.7611C198.0534,-404.9433 194.3666,-295.4365 218.831,-267 247.0705,-234.1755 362.5179,-217.6105 439.7893,-210.0399"/>
<polygon fill="#191970" stroke="#191970" points="198.4264,-463.1943 202.619,-472.9243 205.4092,-462.7035 198.4264,-463.1943"/>
</g>
<!-- Node16&#45;&gt;Node17 -->
<g id="edge14" class="edge">
<title>Node16&#45;&gt;Node17</title>
<path fill="none" stroke="#191970" d="M169.7016,-465.8591C155.6996,-452.6496 139.8129,-437.6622 126.6347,-425.2299"/>
<polygon fill="#191970" stroke="#191970" points="167.5817,-468.6709 177.2574,-472.9872 172.3853,-463.5791 167.5817,-468.6709"/>
</g>
<!-- Node17&#45;&gt;Node9 -->
<g id="edge15" class="edge">
<title>Node17&#45;&gt;Node9</title>
<path fill="none" stroke="#191970" d="M112.8031,-363.3833C126.6696,-332.8849 150.9198,-290.3112 185.831,-267 226.508,-239.8387 356.577,-221.2178 439.6038,-211.7536"/>
<polygon fill="#191970" stroke="#191970" points="109.4751,-362.2576 108.6654,-372.8214 115.8861,-365.0682 109.4751,-362.2576"/>
</g>
<!-- Node18&#45;&gt;Node9 -->
<g id="edge18" class="edge">
<title>Node18&#45;&gt;Node9</title>
<path fill="none" stroke="#191970" d="M736.1301,-693.6608C827.0397,-685.9695 965.3109,-668.3628 1000.831,-631 1041.6694,-588.0429 1019.831,-558.2713 1019.831,-499 1019.831,-499 1019.831,-499 1019.831,-399 1019.831,-334.9198 1012.9448,-305.6478 961.831,-267 903.792,-223.116 695.6749,-210.0234 583.9495,-206.1331"/>
<polygon fill="#191970" stroke="#191970" points="735.7933,-690.1766 726.1138,-694.4845 736.3671,-697.1531 735.7933,-690.1766"/>
</g>
<!-- Node19 -->
<g id="node13" class="node">
<title>Node19</title>
<g id="a_node13"><a xlink:href="from__json_8hpp.html" target="_top" xlink:title="/home/bdn_jz/bdn_jz\l/camera&#45;tracker&#45;cpp\l/CameraTrackerLinux/include\l/nlohmann/detail/conversions\l/from_json.hpp">
<polygon fill="#ffffff" stroke="#000000" points="447.831,-367.5 447.831,-430.5 591.831,-430.5 591.831,-367.5 447.831,-367.5"/>
<text text-anchor="start" x="455.831" y="-418.5" font-family="Helvetica,sans-Serif" font-size="10.00" fill="#000000">/home/bdn_jz/bdn_jz</text>
<text text-anchor="start" x="455.831" y="-407.5" font-family="Helvetica,sans-Serif" font-size="10.00" fill="#000000">/camera&#45;tracker&#45;cpp</text>
<text text-anchor="start" x="455.831" y="-396.5" font-family="Helvetica,sans-Serif" font-size="10.00" fill="#000000">/CameraTrackerLinux/include</text>
<text text-anchor="start" x="455.831" y="-385.5" font-family="Helvetica,sans-Serif" font-size="10.00" fill="#000000">/nlohmann/detail/conversions</text>
<text text-anchor="middle" x="519.831" y="-374.5" font-family="Helvetica,sans-Serif" font-size="10.00" fill="#000000">/from_json.hpp</text>
</a>
</g>
</g>
<!-- Node18&#45;&gt;Node19 -->
<g id="edge19" class="edge">
<title>Node18&#45;&gt;Node19</title>
<path fill="none" stroke="#191970" d="M635.6095,-658.2056C608.5637,-597.6552 558.3679,-485.2768 533.9304,-430.5658"/>
<polygon fill="#191970" stroke="#191970" points="632.4698,-659.7586 639.7439,-667.4618 638.8612,-656.9037 632.4698,-659.7586"/>
</g>
<!-- Node21 -->
<g id="node15" class="node">
<title>Node21</title>
<g id="a_node15"><a xlink:href="to__json_8hpp.html" target="_top" xlink:title="/home/bdn_jz/bdn_jz\l/camera&#45;tracker&#45;cpp\l/CameraTrackerLinux/include\l/nlohmann/detail/conversions\l/to_json.hpp">
<polygon fill="#ffffff" stroke="#000000" points="609.831,-367.5 609.831,-430.5 753.831,-430.5 753.831,-367.5 609.831,-367.5"/>
<text text-anchor="start" x="617.831" y="-418.5" font-family="Helvetica,sans-Serif" font-size="10.00" fill="#000000">/home/bdn_jz/bdn_jz</text>
<text text-anchor="start" x="617.831" y="-407.5" font-family="Helvetica,sans-Serif" font-size="10.00" fill="#000000">/camera&#45;tracker&#45;cpp</text>
<text text-anchor="start" x="617.831" y="-396.5" font-family="Helvetica,sans-Serif" font-size="10.00" fill="#000000">/CameraTrackerLinux/include</text>
<text text-anchor="start" x="617.831" y="-385.5" font-family="Helvetica,sans-Serif" font-size="10.00" fill="#000000">/nlohmann/detail/conversions</text>
<text text-anchor="middle" x="681.831" y="-374.5" font-family="Helvetica,sans-Serif" font-size="10.00" fill="#000000">/to_json.hpp</text>
</a>
</g>
</g>
<!-- Node18&#45;&gt;Node21 -->
<g id="edge23" class="edge">
<title>Node18&#45;&gt;Node21</title>
<path fill="none" stroke="#191970" d="M642.8076,-657.6504C632.141,-610.5213 620.1047,-531.6515 638.831,-467 642.5227,-454.2544 649.3961,-441.6041 656.5813,-430.7336"/>
<polygon fill="#191970" stroke="#191970" points="639.4259,-658.5598 645.1208,-667.4939 646.2403,-656.9584 639.4259,-658.5598"/>
</g>
<!-- Node22 -->
<g id="node16" class="node">
<title>Node22</title>
<g id="a_node16"><a xlink:href="iter__impl_8hpp.html" target="_top" xlink:title="/home/bdn_jz/bdn_jz\l/camera&#45;tracker&#45;cpp\l/CameraTrackerLinux/include\l/nlohmann/detail/iterators\l/iter_impl.hpp">
<polygon fill="#ffffff" stroke="#000000" points="777.831,-267.5 777.831,-330.5 921.831,-330.5 921.831,-267.5 777.831,-267.5"/>
<text text-anchor="start" x="785.831" y="-318.5" font-family="Helvetica,sans-Serif" font-size="10.00" fill="#000000">/home/bdn_jz/bdn_jz</text>
<text text-anchor="start" x="785.831" y="-307.5" font-family="Helvetica,sans-Serif" font-size="10.00" fill="#000000">/camera&#45;tracker&#45;cpp</text>
<text text-anchor="start" x="785.831" y="-296.5" font-family="Helvetica,sans-Serif" font-size="10.00" fill="#000000">/CameraTrackerLinux/include</text>
<text text-anchor="start" x="785.831" y="-285.5" font-family="Helvetica,sans-Serif" font-size="10.00" fill="#000000">/nlohmann/detail/iterators</text>
<text text-anchor="middle" x="849.831" y="-274.5" font-family="Helvetica,sans-Serif" font-size="10.00" fill="#000000">/iter_impl.hpp</text>
</a>
</g>
</g>
<!-- Node18&#45;&gt;Node22 -->
<g id="edge26" class="edge">
<title>Node18&#45;&gt;Node22</title>
<path fill="none" stroke="#191970" d="M697.9443,-660.6113C731.3025,-629.1138 775.5409,-581.6002 800.831,-531 833.9587,-464.7182 844.7254,-376.9479 848.1985,-330.676"/>
<polygon fill="#191970" stroke="#191970" points="695.5057,-658.0997 690.5752,-667.4774 700.2776,-663.2211 695.5057,-658.0997"/>
</g>
<!-- Node23 -->
<g id="node17" class="node">
<title>Node23</title>
<g id="a_node17"><a xlink:href="iteration__proxy_8hpp.html" target="_top" xlink:title="/home/bdn_jz/bdn_jz\l/camera&#45;tracker&#45;cpp\l/CameraTrackerLinux/include\l/nlohmann/detail/iterators\l/iteration_proxy.hpp">
<polygon fill="#ffffff" stroke="#000000" points="647.831,-467.5 647.831,-530.5 791.831,-530.5 791.831,-467.5 647.831,-467.5"/>
<text text-anchor="start" x="655.831" y="-518.5" font-family="Helvetica,sans-Serif" font-size="10.00" fill="#000000">/home/bdn_jz/bdn_jz</text>
<text text-anchor="start" x="655.831" y="-507.5" font-family="Helvetica,sans-Serif" font-size="10.00" fill="#000000">/camera&#45;tracker&#45;cpp</text>
<text text-anchor="start" x="655.831" y="-496.5" font-family="Helvetica,sans-Serif" font-size="10.00" fill="#000000">/CameraTrackerLinux/include</text>
<text text-anchor="start" x="655.831" y="-485.5" font-family="Helvetica,sans-Serif" font-size="10.00" fill="#000000">/nlohmann/detail/iterators</text>
<text text-anchor="middle" x="719.831" y="-474.5" font-family="Helvetica,sans-Serif" font-size="10.00" fill="#000000">/iteration_proxy.hpp</text>
</a>
</g>
</g>
<!-- Node18&#45;&gt;Node23 -->
<g id="edge28" class="edge">
<title>Node18&#45;&gt;Node23</title>
<path fill="none" stroke="#191970" d="M667.4844,-657.6261C679.9458,-619.8642 698.0971,-564.8604 709.422,-530.5423"/>
<polygon fill="#191970" stroke="#191970" points="664.099,-656.7163 664.2889,-667.3094 670.7464,-658.91 664.099,-656.7163"/>
</g>
<!-- Node24 -->
<g id="node18" class="node">
<title>Node24</title>
<g id="a_node18"><a xlink:href="json__ref_8hpp.html" target="_top" xlink:title="/home/bdn_jz/bdn_jz\l/camera&#45;tracker&#45;cpp\l/CameraTrackerLinux/include\l/nlohmann/detail/json_ref.hpp">
<polygon fill="#ffffff" stroke="#000000" points="847.831,-573 847.831,-625 991.831,-625 991.831,-573 847.831,-573"/>
<text text-anchor="start" x="855.831" y="-613" font-family="Helvetica,sans-Serif" font-size="10.00" fill="#000000">/home/bdn_jz/bdn_jz</text>
<text text-anchor="start" x="855.831" y="-602" font-family="Helvetica,sans-Serif" font-size="10.00" fill="#000000">/camera&#45;tracker&#45;cpp</text>
<text text-anchor="start" x="855.831" y="-591" font-family="Helvetica,sans-Serif" font-size="10.00" fill="#000000">/CameraTrackerLinux/include</text>
<text text-anchor="middle" x="919.831" y="-580" font-family="Helvetica,sans-Serif" font-size="10.00" fill="#000000">/nlohmann/detail/json_ref.hpp</text>
</a>
</g>
</g>
<!-- Node18&#45;&gt;Node24 -->
<g id="edge31" class="edge">
<title>Node18&#45;&gt;Node24</title>
<path fill="none" stroke="#191970" d="M735.8336,-668.1719C772.4785,-654.3957 815.2104,-638.3311 850.265,-625.1526"/>
<polygon fill="#191970" stroke="#191970" points="734.294,-665.0115 726.1653,-671.8067 736.7573,-671.5638 734.294,-665.0115"/>
</g>
<!-- Node25 -->
<g id="node19" class="node">
<title>Node25</title>
<g id="a_node19"><a xlink:href="is__sax_8hpp.html" target="_top" xlink:title="/home/bdn_jz/bdn_jz\l/camera&#45;tracker&#45;cpp\l/CameraTrackerLinux/include\l/nlohmann/detail/meta/is\l_sax.hpp">
<polygon fill="#ffffff" stroke="#000000" points="338.831,-567.5 338.831,-630.5 482.831,-630.5 482.831,-567.5 338.831,-567.5"/>
<text text-anchor="start" x="346.831" y="-618.5" font-family="Helvetica,sans-Serif" font-size="10.00" fill="#000000">/home/bdn_jz/bdn_jz</text>
<text text-anchor="start" x="346.831" y="-607.5" font-family="Helvetica,sans-Serif" font-size="10.00" fill="#000000">/camera&#45;tracker&#45;cpp</text>
<text text-anchor="start" x="346.831" y="-596.5" font-family="Helvetica,sans-Serif" font-size="10.00" fill="#000000">/CameraTrackerLinux/include</text>
<text text-anchor="start" x="346.831" y="-585.5" font-family="Helvetica,sans-Serif" font-size="10.00" fill="#000000">/nlohmann/detail/meta/is</text>
<text text-anchor="middle" x="410.831" y="-574.5" font-family="Helvetica,sans-Serif" font-size="10.00" fill="#000000">_sax.hpp</text>
</a>
</g>
</g>
<!-- Node18&#45;&gt;Node25 -->
<g id="edge33" class="edge">
<title>Node18&#45;&gt;Node25</title>
<path fill="none" stroke="#191970" d="M571.9687,-665.3118C543.2173,-653.48 511.1402,-640.2795 483.2223,-628.7907"/>
<polygon fill="#191970" stroke="#191970" points="571.0013,-668.6985 581.5809,-669.2675 573.6653,-662.2252 571.0013,-668.6985"/>
</g>
<!-- Node19&#45;&gt;Node9 -->
<g id="edge20" class="edge">
<title>Node19&#45;&gt;Node9</title>
<path fill="none" stroke="#191970" d="M518.1022,-356.9697C516.5218,-318.5464 514.234,-262.9224 512.9028,-230.5592"/>
<polygon fill="#191970" stroke="#191970" points="514.6197,-357.4697 518.5278,-367.3173 521.6138,-357.1819 514.6197,-357.4697"/>
</g>
<!-- Node20 -->
<g id="node14" class="node">
<title>Node20</title>
<g id="a_node14"><a xlink:href="adl__serializer_8hpp.html" target="_top" xlink:title="/home/bdn_jz/bdn_jz\l/camera&#45;tracker&#45;cpp\l/CameraTrackerLinux/include\l/nlohmann/adl_serializer.hpp">
<polygon fill="#ffffff" stroke="#000000" points="539.831,-273 539.831,-325 683.831,-325 683.831,-273 539.831,-273"/>
<text text-anchor="start" x="547.831" y="-313" font-family="Helvetica,sans-Serif" font-size="10.00" fill="#000000">/home/bdn_jz/bdn_jz</text>
<text text-anchor="start" x="547.831" y="-302" font-family="Helvetica,sans-Serif" font-size="10.00" fill="#000000">/camera&#45;tracker&#45;cpp</text>
<text text-anchor="start" x="547.831" y="-291" font-family="Helvetica,sans-Serif" font-size="10.00" fill="#000000">/CameraTrackerLinux/include</text>
<text text-anchor="middle" x="611.831" y="-280" font-family="Helvetica,sans-Serif" font-size="10.00" fill="#000000">/nlohmann/adl_serializer.hpp</text>
</a>
</g>
</g>
<!-- Node19&#45;&gt;Node20 -->
<g id="edge21" class="edge">
<title>Node19&#45;&gt;Node20</title>
<path fill="none" stroke="#191970" d="M555.8561,-359.8422C566.5866,-348.1787 578.0779,-335.6881 587.8393,-325.078"/>
<polygon fill="#191970" stroke="#191970" points="553.1352,-357.6303 548.9404,-367.3594 558.2867,-362.3697 553.1352,-357.6303"/>
</g>
<!-- Node20&#45;&gt;Node9 -->
<g id="edge22" class="edge">
<title>Node20&#45;&gt;Node9</title>
<path fill="none" stroke="#191970" d="M576.8587,-265.9512C564.6835,-254.4457 551.1977,-241.7016 539.6783,-230.8157"/>
<polygon fill="#191970" stroke="#191970" points="574.5687,-268.6028 584.2408,-272.9273 579.3766,-263.5151 574.5687,-268.6028"/>
</g>
<!-- Node21&#45;&gt;Node9 -->
<g id="edge24" class="edge">
<title>Node21&#45;&gt;Node9</title>
<path fill="none" stroke="#191970" d="M698.2303,-357.8591C706.5375,-329.7621 711.3948,-293.0496 692.831,-267 679.6151,-248.4549 628.7074,-231.8594 584.2348,-220.4379"/>
<polygon fill="#191970" stroke="#191970" points="694.8895,-356.8156 695.1808,-367.4064 701.5576,-358.9455 694.8895,-356.8156"/>
</g>
<!-- Node21&#45;&gt;Node20 -->
<g id="edge25" class="edge">
<title>Node21&#45;&gt;Node20</title>
<path fill="none" stroke="#191970" d="M653.7194,-358.8405C645.7575,-347.4664 637.3005,-335.385 630.0856,-325.078"/>
<polygon fill="#191970" stroke="#191970" points="651.0806,-361.1742 659.6825,-367.3594 656.8152,-357.1599 651.0806,-361.1742"/>
</g>
<!-- Node22&#45;&gt;Node9 -->
<g id="edge27" class="edge">
<title>Node22&#45;&gt;Node9</title>
<path fill="none" stroke="#191970" d="M768.1416,-268.3531C766.6957,-267.8924 765.2579,-267.4409 763.831,-267 703.8606,-248.471 634.5705,-231.6072 583.8434,-220.0794"/>
<polygon fill="#191970" stroke="#191970" points="767.1806,-271.7214 777.7734,-271.514 769.3633,-265.0703 767.1806,-271.7214"/>
</g>
<!-- Node23&#45;&gt;Node9 -->
<g id="edge29" class="edge">
<title>Node23&#45;&gt;Node9</title>
<path fill="none" stroke="#191970" d="M750.5266,-458.5327C755.5985,-449.8667 760.091,-440.4596 762.831,-431 783.9955,-357.9307 771.6394,-316.4495 713.831,-267 677.5661,-235.9789 626.0423,-220.3465 584.1086,-212.4732"/>
<polygon fill="#191970" stroke="#191970" points="747.402,-456.929 745.0807,-467.2664 753.3418,-460.6328 747.402,-456.929"/>
</g>
<!-- Node23&#45;&gt;Node21 -->
<g id="edge30" class="edge">
<title>Node23&#45;&gt;Node21</title>
<path fill="none" stroke="#191970" d="M704.1701,-457.7872C700.7436,-448.7701 697.1675,-439.3593 693.9066,-430.778"/>
<polygon fill="#191970" stroke="#191970" points="700.9836,-459.2548 707.8075,-467.3594 707.5271,-456.7682 700.9836,-459.2548"/>
</g>
<!-- Node24&#45;&gt;Node9 -->
<g id="edge32" class="edge">
<title>Node24&#45;&gt;Node9</title>
<path fill="none" stroke="#191970" d="M935.0493,-562.9946C960.7282,-495.8928 1003.1726,-350.9328 930.831,-267 908.5331,-241.1294 698.0003,-219.8968 584.133,-210.1919"/>
<polygon fill="#191970" stroke="#191970" points="931.638,-562.1066 931.245,-572.6942 938.1547,-564.6626 931.638,-562.1066"/>
</g>
<!-- Node25&#45;&gt;Node13 -->
<g id="edge34" class="edge">
<title>Node25&#45;&gt;Node13</title>
<path fill="none" stroke="#191970" d="M410.831,-557.2111C410.831,-548.37 410.831,-539.1767 410.831,-530.778"/>
<polygon fill="#191970" stroke="#191970" points="407.3311,-557.3593 410.831,-567.3594 414.3311,-557.3594 407.3311,-557.3593"/>
</g>
<!-- Node25&#45;&gt;Node17 -->
<g id="edge35" class="edge">
<title>Node25&#45;&gt;Node17</title>
<path fill="none" stroke="#191970" d="M360.345,-560.9872C349.6564,-551.7792 338.8824,-541.5337 329.831,-531 308.1223,-505.7361 316.6908,-487.9952 290.831,-467 258.9851,-441.1448 216.5777,-424.759 179.7188,-414.5695"/>
<polygon fill="#191970" stroke="#191970" points="358.1809,-563.7404 368.087,-567.498 362.6863,-558.383 358.1809,-563.7404"/>
</g>
</g>
</svg>
