<?xml version="1.0" encoding="UTF-8" standalone="no"?>
<!DOCTYPE svg PUBLIC "-//W3C//DTD SVG 1.1//EN"
 "http://www.w3.org/Graphics/SVG/1.1/DTD/svg11.dtd">
<!-- Generated by graphviz version 2.40.1 (20161225.0304)
 -->
<!-- Title: /home/bdn_jz/bdn_jz/camera&#45;tracker&#45;cpp/CameraTrackerLinux/include/nlohmann/detail/json_pointer.hpp Pages: 1 -->
<!--zoomable 262 -->
<svg id="main" version="1.1" xmlns="http://www.w3.org/2000/svg" xmlns:xlink="http://www.w3.org/1999/xlink" xml:space="preserve" onload="init(evt)">
<style type="text/css"><![CDATA[
.edge:hover path { stroke: red; }
.edge:hover polygon { stroke: red; fill: red; }
]]></style>
<script type="text/javascript"><![CDATA[
var edges = document.getElementsByTagName('g');
if (edges && edges.length) {
  for (var i=0;i<edges.length;i++) {
    if (edges[i].id.substr(0,4)=='edge') {
      edges[i].setAttribute('class','edge');
    }
  }
}
]]></script>
        <defs>
                <circle id="rim" cx="0" cy="0" r="7"/>
                <circle id="rim2" cx="0" cy="0" r="3.5"/>
                <g id="zoomPlus">
                        <use xlink:href="#rim" target="_top" fill="#404040">
                                <set attributeName="fill" to="#808080" begin="zoomplus.mouseover" end="zoomplus.mouseout"/>
                        </use>
                        <path d="M-4,0h8M0,-4v8" fill="none" stroke="white" stroke-width="1.5" pointer-events="none"/>
                </g>
                <g id="zoomMin">
                        <use xlink:href="#rim" target="_top" fill="#404040">
                                <set attributeName="fill" to="#808080" begin="zoomminus.mouseover" end="zoomminus.mouseout"/>
                        </use>
                        <path d="M-4,0h8" fill="none" stroke="white" stroke-width="1.5" pointer-events="none"/>
                </g>
                <g id="dirArrow">
                        <path fill="none" stroke="white" stroke-width="1.5" d="M0,-3.0v7 M-2.5,-0.5L0,-3.0L2.5,-0.5"/>
                </g>
               <g id="resetDef">
                       <use xlink:href="#rim2" target="_top" fill="#404040">
                               <set attributeName="fill" to="#808080" begin="reset.mouseover" end="reset.mouseout"/>
                       </use>
               </g>
        </defs>

<script type="text/javascript">
var viewWidth = 980;
var viewHeight = 262;
var sectionId = 'dynsection-0';
</script>
<script xlink:href="svgpan.js" target="_top"/>
<svg id="graph" class="graph">
<g id="viewport">
<title>/home/bdn_jz/bdn_jz/camera&#45;tracker&#45;cpp/CameraTrackerLinux/include/nlohmann/detail/json_pointer.hpp</title>
<polygon fill="#ffffff" stroke="transparent" points="-4,4 -4,-258 976,-258 976,4 -4,4"/>
<!-- Node0 -->
<g id="node1" class="node">
<title>Node0</title>
<polygon fill="#bfbfbf" stroke="#000000" points="224,-201.5 224,-253.5 386,-253.5 386,-201.5 224,-201.5"/>
<text text-anchor="start" x="232" y="-241.5" font-family="Helvetica,sans-Serif" font-size="10.00" fill="#000000">/home/bdn_jz/bdn_jz</text>
<text text-anchor="start" x="232" y="-230.5" font-family="Helvetica,sans-Serif" font-size="10.00" fill="#000000">/camera&#45;tracker&#45;cpp</text>
<text text-anchor="start" x="232" y="-219.5" font-family="Helvetica,sans-Serif" font-size="10.00" fill="#000000">/CameraTrackerLinux/include</text>
<text text-anchor="middle" x="305" y="-208.5" font-family="Helvetica,sans-Serif" font-size="10.00" fill="#000000">/nlohmann/detail/json_pointer.hpp</text>
</g>
<!-- Node1 -->
<g id="node2" class="node">
<title>Node1</title>
<polygon fill="#ffffff" stroke="#bfbfbf" points="0,-140 0,-159 56,-159 56,-140 0,-140"/>
<text text-anchor="middle" x="28" y="-147" font-family="Helvetica,sans-Serif" font-size="10.00" fill="#000000">algorithm</text>
</g>
<!-- Node0&#45;&gt;Node1 -->
<g id="edge1" class="edge">
<title>Node0&#45;&gt;Node1</title>
<path fill="none" stroke="#191970" d="M223.8854,-209.4113C176.9798,-198.2 117.1121,-182.6016 65,-165 62.9092,-164.2938 60.7691,-163.5249 58.6239,-162.7197"/>
<polygon fill="#191970" stroke="#191970" points="59.9102,-159.4647 49.3239,-159.0388 57.334,-165.9734 59.9102,-159.4647"/>
</g>
<!-- Node2 -->
<g id="node3" class="node">
<title>Node2</title>
<polygon fill="#ffffff" stroke="#bfbfbf" points="74.5,-140 74.5,-159 123.5,-159 123.5,-140 74.5,-140"/>
<text text-anchor="middle" x="99" y="-147" font-family="Helvetica,sans-Serif" font-size="10.00" fill="#000000">cassert</text>
</g>
<!-- Node0&#45;&gt;Node2 -->
<g id="edge2" class="edge">
<title>Node0&#45;&gt;Node2</title>
<path fill="none" stroke="#191970" d="M229.1533,-201.4005C199.0194,-190.652 164.1726,-177.7458 133,-165 131.6114,-164.4322 130.1963,-163.8406 128.7707,-163.234"/>
<polygon fill="#191970" stroke="#191970" points="129.9452,-159.9271 119.382,-159.1085 127.1291,-166.3357 129.9452,-159.9271"/>
</g>
<!-- Node3 -->
<g id="node4" class="node">
<title>Node3</title>
<polygon fill="#ffffff" stroke="#bfbfbf" points="142,-140 142,-159 188,-159 188,-140 142,-140"/>
<text text-anchor="middle" x="165" y="-147" font-family="Helvetica,sans-Serif" font-size="10.00" fill="#000000">cctype</text>
</g>
<!-- Node0&#45;&gt;Node3 -->
<g id="edge3" class="edge">
<title>Node0&#45;&gt;Node3</title>
<path fill="none" stroke="#191970" d="M257.9926,-201.3101C235.7032,-188.8918 209.9149,-174.524 191.1573,-164.0733"/>
<polygon fill="#191970" stroke="#191970" points="192.7419,-160.9497 182.3028,-159.1401 189.335,-167.0647 192.7419,-160.9497"/>
</g>
<!-- Node4 -->
<g id="node5" class="node">
<title>Node4</title>
<polygon fill="#ffffff" stroke="#bfbfbf" points="206.5,-140 206.5,-159 257.5,-159 257.5,-140 206.5,-140"/>
<text text-anchor="middle" x="232" y="-147" font-family="Helvetica,sans-Serif" font-size="10.00" fill="#000000">numeric</text>
</g>
<!-- Node0&#45;&gt;Node4 -->
<g id="edge4" class="edge">
<title>Node0&#45;&gt;Node4</title>
<path fill="none" stroke="#191970" d="M280.2855,-201.0928C269.5803,-189.6543 257.3598,-176.5968 247.8914,-166.4799"/>
<polygon fill="#191970" stroke="#191970" points="250.3582,-163.9935 240.9695,-159.0839 245.2473,-168.7767 250.3582,-163.9935"/>
</g>
<!-- Node5 -->
<g id="node6" class="node">
<title>Node5</title>
<polygon fill="#ffffff" stroke="#bfbfbf" points="704.5,-73 704.5,-92 745.5,-92 745.5,-73 704.5,-73"/>
<text text-anchor="middle" x="725" y="-80" font-family="Helvetica,sans-Serif" font-size="10.00" fill="#000000">string</text>
</g>
<!-- Node0&#45;&gt;Node5 -->
<g id="edge5" class="edge">
<title>Node0&#45;&gt;Node5</title>
<path fill="none" stroke="#191970" d="M386.0321,-218.1682C445.9782,-209.373 528.7191,-193.2022 597,-165 638.5676,-147.8312 681.4107,-117.0518 705.4801,-98.3308"/>
<polygon fill="#191970" stroke="#191970" points="707.7834,-100.9717 713.4613,-92.0267 703.4445,-95.4786 707.7834,-100.9717"/>
</g>
<!-- Node6 -->
<g id="node7" class="node">
<title>Node6</title>
<polygon fill="#ffffff" stroke="#bfbfbf" points="241,-6 241,-25 281,-25 281,-6 241,-6"/>
<text text-anchor="middle" x="261" y="-13" font-family="Helvetica,sans-Serif" font-size="10.00" fill="#000000">utility</text>
</g>
<!-- Node0&#45;&gt;Node6 -->
<g id="edge6" class="edge">
<title>Node0&#45;&gt;Node6</title>
<path fill="none" stroke="#191970" d="M299.5163,-201.0787C290.5423,-157.8403 272.9279,-72.9708 265.0157,-34.8482"/>
<polygon fill="#191970" stroke="#191970" points="268.433,-34.0903 262.9738,-25.0102 261.5791,-35.5129 268.433,-34.0903"/>
</g>
<!-- Node7 -->
<g id="node8" class="node">
<title>Node7</title>
<polygon fill="#ffffff" stroke="#bfbfbf" points="352,-140 352,-159 396,-159 396,-140 352,-140"/>
<text text-anchor="middle" x="374" y="-147" font-family="Helvetica,sans-Serif" font-size="10.00" fill="#000000">vector</text>
</g>
<!-- Node0&#45;&gt;Node7 -->
<g id="edge7" class="edge">
<title>Node0&#45;&gt;Node7</title>
<path fill="none" stroke="#191970" d="M328.3603,-201.0928C338.3787,-189.7675 349.8012,-176.8552 358.7128,-166.7812"/>
<polygon fill="#191970" stroke="#191970" points="361.5177,-168.8929 365.522,-159.0839 356.2747,-164.2548 361.5177,-168.8929"/>
</g>
<!-- Node8 -->
<g id="node9" class="node">
<title>Node8</title>
<g id="a_node9"><a xlink:href="exceptions_8hpp.html" target="_top" target="_top" xlink:title="nlohmann/detail/exceptions.hpp">
<polygon fill="#ffffff" stroke="#000000" points="434,-140 434,-159 588,-159 588,-140 434,-140"/>
<text text-anchor="middle" x="511" y="-147" font-family="Helvetica,sans-Serif" font-size="10.00" fill="#000000">nlohmann/detail/exceptions.hpp</text>
</a>
</g>
</g>
<!-- Node0&#45;&gt;Node8 -->
<g id="edge8" class="edge">
<title>Node0&#45;&gt;Node8</title>
<path fill="none" stroke="#191970" d="M373.8814,-201.4187C408.1538,-188.4418 448.1077,-173.3136 476.0152,-162.7467"/>
<polygon fill="#191970" stroke="#191970" points="477.6063,-165.8868 485.719,-159.0724 475.1275,-159.3403 477.6063,-165.8868"/>
</g>
<!-- Node13 -->
<g id="node14" class="node">
<title>Node13</title>
<g id="a_node14"><a xlink:href="macro__scope_8hpp.html" target="_top" target="_top" xlink:title="nlohmann/detail/macro\l_scope.hpp">
<polygon fill="#ffffff" stroke="#000000" points="290.5,-67.5 290.5,-97.5 405.5,-97.5 405.5,-67.5 290.5,-67.5"/>
<text text-anchor="start" x="298.5" y="-85.5" font-family="Helvetica,sans-Serif" font-size="10.00" fill="#000000">nlohmann/detail/macro</text>
<text text-anchor="middle" x="348" y="-74.5" font-family="Helvetica,sans-Serif" font-size="10.00" fill="#000000">_scope.hpp</text>
</a>
</g>
</g>
<!-- Node0&#45;&gt;Node13 -->
<g id="edge18" class="edge">
<title>Node0&#45;&gt;Node13</title>
<path fill="none" stroke="#191970" d="M312.787,-201.2416C320.6573,-174.702 332.7354,-133.9737 340.5011,-107.787"/>
<polygon fill="#191970" stroke="#191970" points="343.9554,-108.4488 343.4431,-97.8663 337.2443,-106.4585 343.9554,-108.4488"/>
</g>
<!-- Node16 -->
<g id="node17" class="node">
<title>Node16</title>
<g id="a_node17"><a xlink:href="value__t_8hpp.html" target="_top" target="_top" xlink:title="nlohmann/detail/value\l_t.hpp">
<polygon fill="#ffffff" stroke="#000000" points="766.5,-134.5 766.5,-164.5 877.5,-164.5 877.5,-134.5 766.5,-134.5"/>
<text text-anchor="start" x="774.5" y="-152.5" font-family="Helvetica,sans-Serif" font-size="10.00" fill="#000000">nlohmann/detail/value</text>
<text text-anchor="middle" x="822" y="-141.5" font-family="Helvetica,sans-Serif" font-size="10.00" fill="#000000">_t.hpp</text>
</a>
</g>
</g>
<!-- Node0&#45;&gt;Node16 -->
<g id="edge19" class="edge">
<title>Node0&#45;&gt;Node16</title>
<path fill="none" stroke="#191970" d="M386.0654,-215.2696C488.3384,-199.8397 662.219,-173.6062 756.5104,-159.3804"/>
<polygon fill="#191970" stroke="#191970" points="757.1273,-162.8271 766.4932,-157.8743 756.083,-155.9054 757.1273,-162.8271"/>
</g>
<!-- Node8&#45;&gt;Node5 -->
<g id="edge11" class="edge">
<title>Node8&#45;&gt;Node5</title>
<path fill="none" stroke="#191970" d="M555.6318,-139.98C593.6736,-131.1841 649.4256,-116.6661 696,-98 697.0333,-97.5859 698.0775,-97.1449 699.1248,-96.6836"/>
<polygon fill="#191970" stroke="#191970" points="700.9688,-99.6788 708.4308,-92.1575 697.9072,-93.3838 700.9688,-99.6788"/>
</g>
<!-- Node9 -->
<g id="node10" class="node">
<title>Node9</title>
<polygon fill="#ffffff" stroke="#bfbfbf" points="500.5,-73 500.5,-92 559.5,-92 559.5,-73 500.5,-73"/>
<text text-anchor="middle" x="530" y="-80" font-family="Helvetica,sans-Serif" font-size="10.00" fill="#000000">exception</text>
</g>
<!-- Node8&#45;&gt;Node9 -->
<g id="edge9" class="edge">
<title>Node8&#45;&gt;Node9</title>
<path fill="none" stroke="#191970" d="M513.7222,-139.9005C516.5158,-130.0495 520.941,-114.4451 524.4727,-101.9912"/>
<polygon fill="#191970" stroke="#191970" points="527.9217,-102.6572 527.2828,-92.0817 521.1873,-100.7474 527.9217,-102.6572"/>
</g>
<!-- Node10 -->
<g id="node11" class="node">
<title>Node10</title>
<polygon fill="#ffffff" stroke="#bfbfbf" points="423.5,-73 423.5,-92 482.5,-92 482.5,-73 423.5,-73"/>
<text text-anchor="middle" x="453" y="-80" font-family="Helvetica,sans-Serif" font-size="10.00" fill="#000000">stdexcept</text>
</g>
<!-- Node8&#45;&gt;Node10 -->
<g id="edge10" class="edge">
<title>Node8&#45;&gt;Node10</title>
<path fill="none" stroke="#191970" d="M502.69,-139.9005C493.6454,-129.4525 478.9983,-112.5325 467.9445,-99.7635"/>
<polygon fill="#191970" stroke="#191970" points="470.4858,-97.3515 461.2946,-92.0817 465.1934,-101.9331 470.4858,-97.3515"/>
</g>
<!-- Node11 -->
<g id="node12" class="node">
<title>Node11</title>
<g id="a_node12"><a xlink:href="position__t_8hpp.html" target="_top" target="_top" xlink:title="nlohmann/detail/input\l/position_t.hpp">
<polygon fill="#ffffff" stroke="#000000" points="577.5,-67.5 577.5,-97.5 686.5,-97.5 686.5,-67.5 577.5,-67.5"/>
<text text-anchor="start" x="585.5" y="-85.5" font-family="Helvetica,sans-Serif" font-size="10.00" fill="#000000">nlohmann/detail/input</text>
<text text-anchor="middle" x="632" y="-74.5" font-family="Helvetica,sans-Serif" font-size="10.00" fill="#000000">/position_t.hpp</text>
</a>
</g>
</g>
<!-- Node8&#45;&gt;Node11 -->
<g id="edge12" class="edge">
<title>Node8&#45;&gt;Node11</title>
<path fill="none" stroke="#191970" d="M528.3363,-139.9005C545.9111,-130.1691 573.6256,-114.823 595.978,-102.4461"/>
<polygon fill="#191970" stroke="#191970" points="597.8182,-105.4279 604.8711,-97.5218 594.4273,-99.304 597.8182,-105.4279"/>
</g>
<!-- Node8&#45;&gt;Node13 -->
<g id="edge14" class="edge">
<title>Node8&#45;&gt;Node13</title>
<path fill="none" stroke="#191970" d="M487.6461,-139.9005C463.3397,-129.9096 424.6358,-114.0006 394.1324,-101.4624"/>
<polygon fill="#191970" stroke="#191970" points="395.1253,-98.0864 384.5455,-97.5218 392.464,-104.5608 395.1253,-98.0864"/>
</g>
<!-- Node12 -->
<g id="node13" class="node">
<title>Node12</title>
<polygon fill="#ffffff" stroke="#bfbfbf" points="744.5,-6 744.5,-25 793.5,-25 793.5,-6 744.5,-6"/>
<text text-anchor="middle" x="769" y="-13" font-family="Helvetica,sans-Serif" font-size="10.00" fill="#000000">cstddef</text>
</g>
<!-- Node11&#45;&gt;Node12 -->
<g id="edge13" class="edge">
<title>Node11&#45;&gt;Node12</title>
<path fill="none" stroke="#191970" d="M662.7455,-67.4639C685.9394,-56.1209 717.5316,-40.6707 740.2294,-29.5703"/>
<polygon fill="#191970" stroke="#191970" points="741.9165,-32.6414 749.3621,-25.1039 738.8412,-26.3531 741.9165,-32.6414"/>
</g>
<!-- Node13&#45;&gt;Node6 -->
<g id="edge15" class="edge">
<title>Node13&#45;&gt;Node6</title>
<path fill="none" stroke="#191970" d="M328.2584,-67.2967C314.3085,-56.5537 295.6565,-42.1895 281.5332,-31.3129"/>
<polygon fill="#191970" stroke="#191970" points="283.4656,-28.3835 273.4072,-25.055 279.1945,-33.9295 283.4656,-28.3835"/>
</g>
<!-- Node14 -->
<g id="node15" class="node">
<title>Node14</title>
<polygon fill="#ffffff" stroke="#bfbfbf" points="299,-.5 299,-30.5 401,-30.5 401,-.5 299,-.5"/>
<text text-anchor="start" x="307" y="-18.5" font-family="Helvetica,sans-Serif" font-size="10.00" fill="#000000">nlohmann/thirdparty</text>
<text text-anchor="middle" x="350" y="-7.5" font-family="Helvetica,sans-Serif" font-size="10.00" fill="#000000">/hedley/hedley.hpp</text>
</g>
<!-- Node13&#45;&gt;Node14 -->
<g id="edge16" class="edge">
<title>Node13&#45;&gt;Node14</title>
<path fill="none" stroke="#191970" d="M348.4538,-67.2967C348.6865,-59.5013 348.9761,-49.7991 349.2416,-40.9064"/>
<polygon fill="#191970" stroke="#191970" points="352.7479,-40.7432 349.548,-30.6432 345.7511,-40.5343 352.7479,-40.7432"/>
</g>
<!-- Node15 -->
<g id="node16" class="node">
<title>Node15</title>
<polygon fill="#ffffff" stroke="#bfbfbf" points="419.5,-6 419.5,-25 464.5,-25 464.5,-6 419.5,-6"/>
<text text-anchor="middle" x="442" y="-13" font-family="Helvetica,sans-Serif" font-size="10.00" fill="#000000">cstdlib</text>
</g>
<!-- Node13&#45;&gt;Node15 -->
<g id="edge17" class="edge">
<title>Node13&#45;&gt;Node15</title>
<path fill="none" stroke="#191970" d="M369.3301,-67.2967C384.5445,-56.4524 404.9357,-41.9182 420.2453,-31.006"/>
<polygon fill="#191970" stroke="#191970" points="422.4828,-33.7093 428.5945,-25.055 418.4198,-28.0091 422.4828,-33.7093"/>
</g>
<!-- Node16&#45;&gt;Node5 -->
<g id="edge24" class="edge">
<title>Node16&#45;&gt;Node5</title>
<path fill="none" stroke="#191970" d="M799.9892,-134.2967C784.2892,-123.4524 763.2472,-108.9182 747.449,-98.006"/>
<polygon fill="#191970" stroke="#191970" points="749.0505,-94.8585 738.8333,-92.055 745.0722,-100.6181 749.0505,-94.8585"/>
</g>
<!-- Node16&#45;&gt;Node12 -->
<g id="edge22" class="edge">
<title>Node16&#45;&gt;Node12</title>
<path fill="none" stroke="#191970" d="M851.5142,-134.291C864.9723,-125.6371 879.5419,-113.4245 887,-98 892.9976,-85.5961 894.5464,-78.5273 887,-67 868.7621,-39.141 831.7928,-26.266 804.0678,-20.3699"/>
<polygon fill="#191970" stroke="#191970" points="804.4324,-16.8762 793.9529,-18.4351 803.1172,-23.7516 804.4324,-16.8762"/>
</g>
<!-- Node17 -->
<g id="node18" class="node">
<title>Node17</title>
<polygon fill="#ffffff" stroke="#bfbfbf" points="934,-73 934,-92 972,-92 972,-73 934,-73"/>
<text text-anchor="middle" x="953" y="-80" font-family="Helvetica,sans-Serif" font-size="10.00" fill="#000000">array</text>
</g>
<!-- Node16&#45;&gt;Node17 -->
<g id="edge20" class="edge">
<title>Node16&#45;&gt;Node17</title>
<path fill="none" stroke="#191970" d="M851.399,-134.4639C873.4781,-123.1715 903.5161,-107.8086 925.1983,-96.7192"/>
<polygon fill="#191970" stroke="#191970" points="926.9128,-99.7736 934.2222,-92.1039 923.7253,-93.5414 926.9128,-99.7736"/>
</g>
<!-- Node18 -->
<g id="node19" class="node">
<title>Node18</title>
<polygon fill="#ffffff" stroke="#bfbfbf" points="764,-73 764,-92 814,-92 814,-73 764,-73"/>
<text text-anchor="middle" x="789" y="-80" font-family="Helvetica,sans-Serif" font-size="10.00" fill="#000000">ciso646</text>
</g>
<!-- Node16&#45;&gt;Node18 -->
<g id="edge21" class="edge">
<title>Node16&#45;&gt;Node18</title>
<path fill="none" stroke="#191970" d="M814.5118,-134.2967C809.6697,-124.4658 803.3341,-111.6026 798.188,-101.1545"/>
<polygon fill="#191970" stroke="#191970" points="801.2645,-99.4794 793.7062,-92.055 794.9849,-102.5724 801.2645,-99.4794"/>
</g>
<!-- Node19 -->
<g id="node20" class="node">
<title>Node19</title>
<polygon fill="#ffffff" stroke="#bfbfbf" points="832,-73 832,-92 878,-92 878,-73 832,-73"/>
<text text-anchor="middle" x="855" y="-80" font-family="Helvetica,sans-Serif" font-size="10.00" fill="#000000">cstdint</text>
</g>
<!-- Node16&#45;&gt;Node19 -->
<g id="edge23" class="edge">
<title>Node16&#45;&gt;Node19</title>
<path fill="none" stroke="#191970" d="M829.4882,-134.2967C834.3303,-124.4658 840.6659,-111.6026 845.812,-101.1545"/>
<polygon fill="#191970" stroke="#191970" points="849.0151,-102.5724 850.2938,-92.055 842.7355,-99.4794 849.0151,-102.5724"/>
</g>
</g>
</svg>
        <g id="navigator" transform="translate(0 0)" fill="#404254">
                <rect fill="#f2f5e9" fill-opacity="0.5" stroke="#606060" stroke-width=".5" x="0" y="0" width="60" height="60"/>
                <use id="zoomplus" xlink:href="#zoomPlus" target="_top" x="17" y="9" onmousedown="handleZoom(evt,'in')"/>
                <use id="zoomminus" xlink:href="#zoomMin" target="_top" x="42" y="9" onmousedown="handleZoom(evt,'out')"/>
                <use id="reset" xlink:href="#resetDef" target="_top" x="30" y="36" onmousedown="handleReset()"/>
                <g id="arrowUp" xlink:href="#dirArrow" target="_top" transform="translate(30 24)" onmousedown="handlePan(0,-1)">
                  <use xlink:href="#rim" target="_top" fill="#404040">
                        <set attributeName="fill" to="#808080" begin="arrowUp.mouseover" end="arrowUp.mouseout"/>
                  </use>
                  <path fill="none" stroke="white" stroke-width="1.5" d="M0,-3.0v7 M-2.5,-0.5L0,-3.0L2.5,-0.5"/>
                </g>
                <g id="arrowRight" xlink:href="#dirArrow" target="_top" transform="rotate(90) translate(36 -43)" onmousedown="handlePan(1,0)">
                  <use xlink:href="#rim" target="_top" fill="#404040">
                        <set attributeName="fill" to="#808080" begin="arrowRight.mouseover" end="arrowRight.mouseout"/>
                  </use>
                  <path fill="none" stroke="white" stroke-width="1.5" d="M0,-3.0v7 M-2.5,-0.5L0,-3.0L2.5,-0.5"/>
                </g>
                <g id="arrowDown" xlink:href="#dirArrow" target="_top" transform="rotate(180) translate(-30 -48)" onmousedown="handlePan(0,1)">
                  <use xlink:href="#rim" target="_top" fill="#404040">
                        <set attributeName="fill" to="#808080" begin="arrowDown.mouseover" end="arrowDown.mouseout"/>
                  </use>
                  <path fill="none" stroke="white" stroke-width="1.5" d="M0,-3.0v7 M-2.5,-0.5L0,-3.0L2.5,-0.5"/>
                </g>
                <g id="arrowLeft" xlink:href="#dirArrow" target="_top" transform="rotate(270) translate(-36 17)" onmousedown="handlePan(-1,0)">
                  <use xlink:href="#rim" target="_top" fill="#404040">
                        <set attributeName="fill" to="#808080" begin="arrowLeft.mouseover" end="arrowLeft.mouseout"/>
                  </use>
                  <path fill="none" stroke="white" stroke-width="1.5" d="M0,-3.0v7 M-2.5,-0.5L0,-3.0L2.5,-0.5"/>
                </g>
        </g>
        <svg viewBox="0 0 15 15" width="100%" height="30px" preserveAspectRatio="xMaxYMin meet">
         <g id="arrow_out" transform="scale(0.3 0.3)">
          <a xlink:href="json__pointer_8hpp__incl_org.svg" target="_top" target="_base">
           <rect id="button" ry="5" rx="5" y="6" x="6" height="38" width="38"
                fill="#f2f5e9" fill-opacity="0.5" stroke="#606060" stroke-width="1.0"/>
           <path id="arrow"
             d="M 11.500037,31.436501 C 11.940474,20.09759 22.043105,11.32322 32.158766,21.979434 L 37.068811,17.246167 C 37.068811,17.246167 37.088388,32 37.088388,32 L 22.160133,31.978069 C 22.160133,31.978069 26.997745,27.140456 26.997745,27.140456 C 18.528582,18.264221 13.291696,25.230495 11.500037,31.436501 z"
             style="fill:#404040;"/>
          </a>
         </g>
        </svg>
</svg>
