<?xml version="1.0" encoding="UTF-8" standalone="no"?>
<!DOCTYPE svg PUBLIC "-//W3C//DTD SVG 1.1//EN"
 "http://www.w3.org/Graphics/SVG/1.1/DTD/svg11.dtd">
<!-- Generated by graphviz version 2.40.1 (20161225.0304)
 -->
<!-- Title: /home/bdn_jz/bdn_jz/camera&#45;tracker&#45;cpp/CameraTrackerLinux/include/nlohmann/detail/iterators/json_reverse_iterator.hpp Pages: 1 -->
<svg width="181pt" height="128pt"
 viewBox="0.00 0.00 180.50 128.00" xmlns="http://www.w3.org/2000/svg" xmlns:xlink="http://www.w3.org/1999/xlink">
<g id="graph0" class="graph" transform="scale(1 1) rotate(0) translate(4 124)">
<title>/home/bdn_jz/bdn_jz/camera&#45;tracker&#45;cpp/CameraTrackerLinux/include/nlohmann/detail/iterators/json_reverse_iterator.hpp</title>
<polygon fill="#ffffff" stroke="transparent" points="-4,4 -4,-124 176.5,-124 176.5,4 -4,4"/>
<!-- Node0 -->
<g id="node1" class="node">
<title>Node0</title>
<polygon fill="#bfbfbf" stroke="#000000" points="18.5,-56.5 18.5,-119.5 162.5,-119.5 162.5,-56.5 18.5,-56.5"/>
<text text-anchor="start" x="26.5" y="-107.5" font-family="Helvetica,sans-Serif" font-size="10.00" fill="#000000">/home/bdn_jz/bdn_jz</text>
<text text-anchor="start" x="26.5" y="-96.5" font-family="Helvetica,sans-Serif" font-size="10.00" fill="#000000">/camera&#45;tracker&#45;cpp</text>
<text text-anchor="start" x="26.5" y="-85.5" font-family="Helvetica,sans-Serif" font-size="10.00" fill="#000000">/CameraTrackerLinux/include</text>
<text text-anchor="start" x="26.5" y="-74.5" font-family="Helvetica,sans-Serif" font-size="10.00" fill="#000000">/nlohmann/detail/iterators</text>
<text text-anchor="middle" x="90.5" y="-63.5" font-family="Helvetica,sans-Serif" font-size="10.00" fill="#000000">/json_reverse_iterator.hpp</text>
</g>
<!-- Node1 -->
<g id="node2" class="node">
<title>Node1</title>
<polygon fill="#ffffff" stroke="#bfbfbf" points="0,-.5 0,-19.5 49,-19.5 49,-.5 0,-.5"/>
<text text-anchor="middle" x="24.5" y="-7.5" font-family="Helvetica,sans-Serif" font-size="10.00" fill="#000000">cstddef</text>
</g>
<!-- Node0&#45;&gt;Node1 -->
<g id="edge1" class="edge">
<title>Node0&#45;&gt;Node1</title>
<path fill="none" stroke="#191970" d="M63.6553,-56.2744C55.3042,-46.4049 46.4079,-35.8911 39.209,-27.3834"/>
<polygon fill="#191970" stroke="#191970" points="41.7904,-25.0156 32.6591,-19.6426 36.4467,-29.5373 41.7904,-25.0156"/>
</g>
<!-- Node2 -->
<g id="node3" class="node">
<title>Node2</title>
<polygon fill="#ffffff" stroke="#bfbfbf" points="67,-.5 67,-19.5 114,-19.5 114,-.5 67,-.5"/>
<text text-anchor="middle" x="90.5" y="-7.5" font-family="Helvetica,sans-Serif" font-size="10.00" fill="#000000">iterator</text>
</g>
<!-- Node0&#45;&gt;Node2 -->
<g id="edge2" class="edge">
<title>Node0&#45;&gt;Node2</title>
<path fill="none" stroke="#191970" d="M90.5,-56.2744C90.5,-47.3302 90.5,-37.8568 90.5,-29.8269"/>
<polygon fill="#191970" stroke="#191970" points="94.0001,-29.6425 90.5,-19.6426 87.0001,-29.6426 94.0001,-29.6425"/>
</g>
<!-- Node3 -->
<g id="node4" class="node">
<title>Node3</title>
<polygon fill="#ffffff" stroke="#bfbfbf" points="132.5,-.5 132.5,-19.5 172.5,-19.5 172.5,-.5 132.5,-.5"/>
<text text-anchor="middle" x="152.5" y="-7.5" font-family="Helvetica,sans-Serif" font-size="10.00" fill="#000000">utility</text>
</g>
<!-- Node0&#45;&gt;Node3 -->
<g id="edge3" class="edge">
<title>Node0&#45;&gt;Node3</title>
<path fill="none" stroke="#191970" d="M115.7178,-56.2744C123.481,-46.5078 131.7458,-36.1101 138.4706,-27.6499"/>
<polygon fill="#191970" stroke="#191970" points="141.3528,-29.6487 144.8354,-19.6426 135.873,-25.2929 141.3528,-29.6487"/>
</g>
</g>
</svg>
