<?xml version="1.0" encoding="UTF-8" standalone="no"?>
<!DOCTYPE svg PUBLIC "-//W3C//DTD SVG 1.1//EN"
 "http://www.w3.org/Graphics/SVG/1.1/DTD/svg11.dtd">
<!-- Generated by graphviz version 2.40.1 (20161225.0304)
 -->
<!-- Title: /home/bdn_jz/bdn_jz/camera&#45;tracker&#45;cpp/CameraTrackerLinux/include/nlohmann/json_fwd.hpp Pages: 1 -->
<svg width="965pt" height="1006pt"
 viewBox="0.00 0.00 965.00 1006.00" xmlns="http://www.w3.org/2000/svg" xmlns:xlink="http://www.w3.org/1999/xlink">
<g id="graph0" class="graph" transform="scale(1 1) rotate(0) translate(4 1002)">
<title>/home/bdn_jz/bdn_jz/camera&#45;tracker&#45;cpp/CameraTrackerLinux/include/nlohmann/json_fwd.hpp</title>
<polygon fill="#ffffff" stroke="transparent" points="-4,4 -4,-1002 961,-1002 961,4 -4,4"/>
<!-- Node6 -->
<g id="node1" class="node">
<title>Node6</title>
<polygon fill="#bfbfbf" stroke="#000000" points="97,-945.5 97,-997.5 241,-997.5 241,-945.5 97,-945.5"/>
<text text-anchor="start" x="105" y="-985.5" font-family="Helvetica,sans-Serif" font-size="10.00" fill="#000000">/home/bdn_jz/bdn_jz</text>
<text text-anchor="start" x="105" y="-974.5" font-family="Helvetica,sans-Serif" font-size="10.00" fill="#000000">/camera&#45;tracker&#45;cpp</text>
<text text-anchor="start" x="105" y="-963.5" font-family="Helvetica,sans-Serif" font-size="10.00" fill="#000000">/CameraTrackerLinux/include</text>
<text text-anchor="middle" x="169" y="-952.5" font-family="Helvetica,sans-Serif" font-size="10.00" fill="#000000">/nlohmann/json_fwd.hpp</text>
</g>
<!-- Node7 -->
<g id="node2" class="node">
<title>Node7</title>
<g id="a_node2"><a xlink:href="json_8hpp.html" target="_top" xlink:title="/home/bdn_jz/bdn_jz\l/camera&#45;tracker&#45;cpp\l/CameraTrackerLinux/include\l/nlohmann/json.hpp">
<polygon fill="#ffffff" stroke="#000000" points="434,-356.5 434,-408.5 578,-408.5 578,-356.5 434,-356.5"/>
<text text-anchor="start" x="442" y="-396.5" font-family="Helvetica,sans-Serif" font-size="10.00" fill="#000000">/home/bdn_jz/bdn_jz</text>
<text text-anchor="start" x="442" y="-385.5" font-family="Helvetica,sans-Serif" font-size="10.00" fill="#000000">/camera&#45;tracker&#45;cpp</text>
<text text-anchor="start" x="442" y="-374.5" font-family="Helvetica,sans-Serif" font-size="10.00" fill="#000000">/CameraTrackerLinux/include</text>
<text text-anchor="middle" x="506" y="-363.5" font-family="Helvetica,sans-Serif" font-size="10.00" fill="#000000">/nlohmann/json.hpp</text>
</a>
</g>
</g>
<!-- Node6&#45;&gt;Node7 -->
<g id="edge1" class="edge">
<title>Node6&#45;&gt;Node7</title>
<path fill="none" stroke="#191970" d="M114.8627,-939.7037C65.4271,-906.1375 0,-848.2538 0,-777 0,-777 0,-777 0,-577 0,-537.8944 31.7924,-484.8036 102,-445 157.3354,-413.6281 333.2501,-395.547 433.7565,-387.5252"/>
<polygon fill="#191970" stroke="#191970" points="112.9992,-942.6675 123.2662,-945.2829 116.8711,-936.8358 112.9992,-942.6675"/>
</g>
<!-- Node15 -->
<g id="node10" class="node">
<title>Node15</title>
<g id="a_node10"><a xlink:href="type__traits_8hpp.html" target="_top" xlink:title="/home/bdn_jz/bdn_jz\l/camera&#45;tracker&#45;cpp\l/CameraTrackerLinux/include\l/nlohmann/detail/meta/type\l_traits.hpp">
<polygon fill="#ffffff" stroke="#000000" points="359,-845.5 359,-908.5 503,-908.5 503,-845.5 359,-845.5"/>
<text text-anchor="start" x="367" y="-896.5" font-family="Helvetica,sans-Serif" font-size="10.00" fill="#000000">/home/bdn_jz/bdn_jz</text>
<text text-anchor="start" x="367" y="-885.5" font-family="Helvetica,sans-Serif" font-size="10.00" fill="#000000">/camera&#45;tracker&#45;cpp</text>
<text text-anchor="start" x="367" y="-874.5" font-family="Helvetica,sans-Serif" font-size="10.00" fill="#000000">/CameraTrackerLinux/include</text>
<text text-anchor="start" x="367" y="-863.5" font-family="Helvetica,sans-Serif" font-size="10.00" fill="#000000">/nlohmann/detail/meta/type</text>
<text text-anchor="middle" x="431" y="-852.5" font-family="Helvetica,sans-Serif" font-size="10.00" fill="#000000">_traits.hpp</text>
</a>
</g>
</g>
<!-- Node6&#45;&gt;Node15 -->
<g id="edge10" class="edge">
<title>Node6&#45;&gt;Node15</title>
<path fill="none" stroke="#191970" d="M250.8977,-941.9606C285.5126,-929.4754 325.4754,-915.0613 358.9497,-902.9876"/>
<polygon fill="#191970" stroke="#191970" points="249.5055,-938.7419 241.2862,-945.4273 251.8806,-945.3267 249.5055,-938.7419"/>
</g>
<!-- Node8 -->
<g id="node3" class="node">
<title>Node8</title>
<g id="a_node3"><a xlink:href="_json_utilization_8h.html" target="_top" xlink:title="This file contains the declaration of the namespace jsonUtilization. ">
<polygon fill="#ffffff" stroke="#000000" points="434,-267.5 434,-319.5 578,-319.5 578,-267.5 434,-267.5"/>
<text text-anchor="start" x="442" y="-307.5" font-family="Helvetica,sans-Serif" font-size="10.00" fill="#000000">/home/bdn_jz/bdn_jz</text>
<text text-anchor="start" x="442" y="-296.5" font-family="Helvetica,sans-Serif" font-size="10.00" fill="#000000">/camera&#45;tracker&#45;cpp</text>
<text text-anchor="start" x="442" y="-285.5" font-family="Helvetica,sans-Serif" font-size="10.00" fill="#000000">/CameraTrackerLinux/include</text>
<text text-anchor="middle" x="506" y="-274.5" font-family="Helvetica,sans-Serif" font-size="10.00" fill="#000000">/JsonUtilization.h</text>
</a>
</g>
</g>
<!-- Node7&#45;&gt;Node8 -->
<g id="edge2" class="edge">
<title>Node7&#45;&gt;Node8</title>
<path fill="none" stroke="#191970" d="M506,-346.1155C506,-337.2061 506,-327.8475 506,-319.5341"/>
<polygon fill="#191970" stroke="#191970" points="502.5001,-346.2784 506,-356.2784 509.5001,-346.2785 502.5001,-346.2784"/>
</g>
<!-- Node9 -->
<g id="node4" class="node">
<title>Node9</title>
<g id="a_node4"><a xlink:href="_pose_estimation_8h.html" target="_top" xlink:title="This file contains the declaration of the PoseEstimation class. ">
<polygon fill="#ffffff" stroke="#000000" points="357,-178.5 357,-230.5 501,-230.5 501,-178.5 357,-178.5"/>
<text text-anchor="start" x="365" y="-218.5" font-family="Helvetica,sans-Serif" font-size="10.00" fill="#000000">/home/bdn_jz/bdn_jz</text>
<text text-anchor="start" x="365" y="-207.5" font-family="Helvetica,sans-Serif" font-size="10.00" fill="#000000">/camera&#45;tracker&#45;cpp</text>
<text text-anchor="start" x="365" y="-196.5" font-family="Helvetica,sans-Serif" font-size="10.00" fill="#000000">/CameraTrackerLinux/include</text>
<text text-anchor="middle" x="429" y="-185.5" font-family="Helvetica,sans-Serif" font-size="10.00" fill="#000000">/PoseEstimation.h</text>
</a>
</g>
</g>
<!-- Node8&#45;&gt;Node9 -->
<g id="edge3" class="edge">
<title>Node8&#45;&gt;Node9</title>
<path fill="none" stroke="#191970" d="M476.7711,-259.7159C468.406,-250.0472 459.42,-239.6608 451.5239,-230.5341"/>
<polygon fill="#191970" stroke="#191970" points="474.1242,-262.0059 483.3139,-267.2784 479.4179,-257.4259 474.1242,-262.0059"/>
</g>
<!-- Node14 -->
<g id="node9" class="node">
<title>Node14</title>
<g id="a_node9"><a xlink:href="_json_utilization_8cpp.html" target="_top" xlink:title="/home/bdn_jz/bdn_jz\l/camera&#45;tracker&#45;cpp\l/CameraTrackerLinux/src\l/JsonUtilization.cpp">
<polygon fill="#ffffff" stroke="#000000" points="519.5,-178.5 519.5,-230.5 646.5,-230.5 646.5,-178.5 519.5,-178.5"/>
<text text-anchor="start" x="527.5" y="-218.5" font-family="Helvetica,sans-Serif" font-size="10.00" fill="#000000">/home/bdn_jz/bdn_jz</text>
<text text-anchor="start" x="527.5" y="-207.5" font-family="Helvetica,sans-Serif" font-size="10.00" fill="#000000">/camera&#45;tracker&#45;cpp</text>
<text text-anchor="start" x="527.5" y="-196.5" font-family="Helvetica,sans-Serif" font-size="10.00" fill="#000000">/CameraTrackerLinux/src</text>
<text text-anchor="middle" x="583" y="-185.5" font-family="Helvetica,sans-Serif" font-size="10.00" fill="#000000">/JsonUtilization.cpp</text>
</a>
</g>
</g>
<!-- Node8&#45;&gt;Node14 -->
<g id="edge9" class="edge">
<title>Node8&#45;&gt;Node14</title>
<path fill="none" stroke="#191970" d="M535.2289,-259.7159C543.594,-250.0472 552.58,-239.6608 560.4761,-230.5341"/>
<polygon fill="#191970" stroke="#191970" points="532.5821,-257.4259 528.6861,-267.2784 537.8758,-262.0059 532.5821,-257.4259"/>
</g>
<!-- Node10 -->
<g id="node5" class="node">
<title>Node10</title>
<g id="a_node5"><a xlink:href="_tracker_8h.html" target="_top" xlink:title="This file contains declarations of the Tracker class. ">
<polygon fill="#ffffff" stroke="#000000" points="357,-89.5 357,-141.5 501,-141.5 501,-89.5 357,-89.5"/>
<text text-anchor="start" x="365" y="-129.5" font-family="Helvetica,sans-Serif" font-size="10.00" fill="#000000">/home/bdn_jz/bdn_jz</text>
<text text-anchor="start" x="365" y="-118.5" font-family="Helvetica,sans-Serif" font-size="10.00" fill="#000000">/camera&#45;tracker&#45;cpp</text>
<text text-anchor="start" x="365" y="-107.5" font-family="Helvetica,sans-Serif" font-size="10.00" fill="#000000">/CameraTrackerLinux/include</text>
<text text-anchor="middle" x="429" y="-96.5" font-family="Helvetica,sans-Serif" font-size="10.00" fill="#000000">/Tracker.h</text>
</a>
</g>
</g>
<!-- Node9&#45;&gt;Node10 -->
<g id="edge4" class="edge">
<title>Node9&#45;&gt;Node10</title>
<path fill="none" stroke="#191970" d="M429,-168.1155C429,-159.2061 429,-149.8475 429,-141.5341"/>
<polygon fill="#191970" stroke="#191970" points="425.5001,-168.2784 429,-178.2784 432.5001,-168.2785 425.5001,-168.2784"/>
</g>
<!-- Node11 -->
<g id="node6" class="node">
<title>Node11</title>
<g id="a_node6"><a xlink:href="main_8cpp.html" target="_top" xlink:title="/home/bdn_jz/bdn_jz\l/camera&#45;tracker&#45;cpp\l/CameraTrackerLinux/main.cpp">
<polygon fill="#ffffff" stroke="#000000" points="252.5,-6 252.5,-47 405.5,-47 405.5,-6 252.5,-6"/>
<text text-anchor="start" x="260.5" y="-35" font-family="Helvetica,sans-Serif" font-size="10.00" fill="#000000">/home/bdn_jz/bdn_jz</text>
<text text-anchor="start" x="260.5" y="-24" font-family="Helvetica,sans-Serif" font-size="10.00" fill="#000000">/camera&#45;tracker&#45;cpp</text>
<text text-anchor="middle" x="329" y="-13" font-family="Helvetica,sans-Serif" font-size="10.00" fill="#000000">/CameraTrackerLinux/main.cpp</text>
</a>
</g>
</g>
<!-- Node9&#45;&gt;Node11 -->
<g id="edge7" class="edge">
<title>Node9&#45;&gt;Node11</title>
<path fill="none" stroke="#191970" d="M374.9869,-172.0704C364.5858,-163.5125 354.8214,-153.4232 348,-142 330.3921,-112.5138 327.7518,-71.623 327.9908,-47.2355"/>
<polygon fill="#191970" stroke="#191970" points="372.9816,-174.9445 383.0267,-178.313 377.2747,-169.4155 372.9816,-174.9445"/>
</g>
<!-- Node13 -->
<g id="node8" class="node">
<title>Node13</title>
<g id="a_node8"><a xlink:href="_pose_estimation_8cpp.html" target="_top" xlink:title="/home/bdn_jz/bdn_jz\l/camera&#45;tracker&#45;cpp\l/CameraTrackerLinux/src\l/PoseEstimation.cpp">
<polygon fill="#ffffff" stroke="#000000" points="519.5,-89.5 519.5,-141.5 646.5,-141.5 646.5,-89.5 519.5,-89.5"/>
<text text-anchor="start" x="527.5" y="-129.5" font-family="Helvetica,sans-Serif" font-size="10.00" fill="#000000">/home/bdn_jz/bdn_jz</text>
<text text-anchor="start" x="527.5" y="-118.5" font-family="Helvetica,sans-Serif" font-size="10.00" fill="#000000">/camera&#45;tracker&#45;cpp</text>
<text text-anchor="start" x="527.5" y="-107.5" font-family="Helvetica,sans-Serif" font-size="10.00" fill="#000000">/CameraTrackerLinux/src</text>
<text text-anchor="middle" x="583" y="-96.5" font-family="Helvetica,sans-Serif" font-size="10.00" fill="#000000">/PoseEstimation.cpp</text>
</a>
</g>
</g>
<!-- Node9&#45;&gt;Node13 -->
<g id="edge8" class="edge">
<title>Node9&#45;&gt;Node13</title>
<path fill="none" stroke="#191970" d="M483.5074,-172.9989C501.3274,-162.7004 520.9091,-151.3837 537.9521,-141.5341"/>
<polygon fill="#191970" stroke="#191970" points="481.279,-170.2443 474.3721,-178.2784 484.7816,-176.305 481.279,-170.2443"/>
</g>
<!-- Node10&#45;&gt;Node11 -->
<g id="edge5" class="edge">
<title>Node10&#45;&gt;Node11</title>
<path fill="none" stroke="#191970" d="M391.8953,-82.4768C378.6068,-70.6501 364.014,-57.6625 352.2327,-47.1771"/>
<polygon fill="#191970" stroke="#191970" points="389.7407,-85.2446 399.5376,-89.2784 394.3945,-80.0156 389.7407,-85.2446"/>
</g>
<!-- Node12 -->
<g id="node7" class="node">
<title>Node12</title>
<g id="a_node7"><a xlink:href="_tracker_8cpp.html" target="_top" xlink:title="/home/bdn_jz/bdn_jz\l/camera&#45;tracker&#45;cpp\l/CameraTrackerLinux/src\l/Tracker.cpp">
<polygon fill="#ffffff" stroke="#000000" points="423.5,-.5 423.5,-52.5 550.5,-52.5 550.5,-.5 423.5,-.5"/>
<text text-anchor="start" x="431.5" y="-40.5" font-family="Helvetica,sans-Serif" font-size="10.00" fill="#000000">/home/bdn_jz/bdn_jz</text>
<text text-anchor="start" x="431.5" y="-29.5" font-family="Helvetica,sans-Serif" font-size="10.00" fill="#000000">/camera&#45;tracker&#45;cpp</text>
<text text-anchor="start" x="431.5" y="-18.5" font-family="Helvetica,sans-Serif" font-size="10.00" fill="#000000">/CameraTrackerLinux/src</text>
<text text-anchor="middle" x="487" y="-7.5" font-family="Helvetica,sans-Serif" font-size="10.00" fill="#000000">/Tracker.cpp</text>
</a>
</g>
</g>
<!-- Node10&#45;&gt;Node12 -->
<g id="edge6" class="edge">
<title>Node10&#45;&gt;Node12</title>
<path fill="none" stroke="#191970" d="M451.5793,-80.8525C457.719,-71.4313 464.2629,-61.3897 470.0339,-52.5341"/>
<polygon fill="#191970" stroke="#191970" points="448.6158,-78.9895 446.0882,-89.2784 454.4804,-82.8114 448.6158,-78.9895"/>
</g>
<!-- Node15&#45;&gt;Node7 -->
<g id="edge11" class="edge">
<title>Node15&#45;&gt;Node7</title>
<path fill="none" stroke="#191970" d="M513.3019,-872.2229C589.9298,-865.3914 705.9864,-848.8634 799,-809 883.1051,-772.9545 957,-768.5038 957,-677 957,-677 957,-677 957,-577 957,-504.9781 923.9195,-483.4185 863,-445 816.6967,-415.7991 668.4119,-397.4197 578.1676,-388.6415"/>
<polygon fill="#191970" stroke="#191970" points="512.8897,-868.7453 503.2247,-873.0857 513.4868,-875.7198 512.8897,-868.7453"/>
</g>
<!-- Node16 -->
<g id="node11" class="node">
<title>Node16</title>
<g id="a_node11"><a xlink:href="from__json_8hpp.html" target="_top" xlink:title="/home/bdn_jz/bdn_jz\l/camera&#45;tracker&#45;cpp\l/CameraTrackerLinux/include\l/nlohmann/detail/conversions\l/from_json.hpp">
<polygon fill="#ffffff" stroke="#000000" points="28,-545.5 28,-608.5 172,-608.5 172,-545.5 28,-545.5"/>
<text text-anchor="start" x="36" y="-596.5" font-family="Helvetica,sans-Serif" font-size="10.00" fill="#000000">/home/bdn_jz/bdn_jz</text>
<text text-anchor="start" x="36" y="-585.5" font-family="Helvetica,sans-Serif" font-size="10.00" fill="#000000">/camera&#45;tracker&#45;cpp</text>
<text text-anchor="start" x="36" y="-574.5" font-family="Helvetica,sans-Serif" font-size="10.00" fill="#000000">/CameraTrackerLinux/include</text>
<text text-anchor="start" x="36" y="-563.5" font-family="Helvetica,sans-Serif" font-size="10.00" fill="#000000">/nlohmann/detail/conversions</text>
<text text-anchor="middle" x="100" y="-552.5" font-family="Helvetica,sans-Serif" font-size="10.00" fill="#000000">/from_json.hpp</text>
</a>
</g>
</g>
<!-- Node15&#45;&gt;Node16 -->
<g id="edge12" class="edge">
<title>Node15&#45;&gt;Node16</title>
<path fill="none" stroke="#191970" d="M349.6333,-843.9402C330.1213,-834.1572 310.0239,-822.4145 293,-809 217.8974,-749.8205 151.7896,-657.1126 120.02,-608.7562"/>
<polygon fill="#191970" stroke="#191970" points="348.3235,-847.1956 358.8451,-848.4396 351.3957,-840.9058 348.3235,-847.1956"/>
</g>
<!-- Node18 -->
<g id="node13" class="node">
<title>Node18</title>
<g id="a_node13"><a xlink:href="to__json_8hpp.html" target="_top" xlink:title="/home/bdn_jz/bdn_jz\l/camera&#45;tracker&#45;cpp\l/CameraTrackerLinux/include\l/nlohmann/detail/conversions\l/to_json.hpp">
<polygon fill="#ffffff" stroke="#000000" points="190,-545.5 190,-608.5 334,-608.5 334,-545.5 190,-545.5"/>
<text text-anchor="start" x="198" y="-596.5" font-family="Helvetica,sans-Serif" font-size="10.00" fill="#000000">/home/bdn_jz/bdn_jz</text>
<text text-anchor="start" x="198" y="-585.5" font-family="Helvetica,sans-Serif" font-size="10.00" fill="#000000">/camera&#45;tracker&#45;cpp</text>
<text text-anchor="start" x="198" y="-574.5" font-family="Helvetica,sans-Serif" font-size="10.00" fill="#000000">/CameraTrackerLinux/include</text>
<text text-anchor="start" x="198" y="-563.5" font-family="Helvetica,sans-Serif" font-size="10.00" fill="#000000">/nlohmann/detail/conversions</text>
<text text-anchor="middle" x="262" y="-552.5" font-family="Helvetica,sans-Serif" font-size="10.00" fill="#000000">/to_json.hpp</text>
</a>
</g>
</g>
<!-- Node15&#45;&gt;Node18 -->
<g id="edge16" class="edge">
<title>Node15&#45;&gt;Node18</title>
<path fill="none" stroke="#191970" d="M381.1434,-838.74C345.024,-807.9468 298.5585,-761.2937 275,-709 260.5758,-676.9821 258.7235,-636.2687 259.5834,-608.5816"/>
<polygon fill="#191970" stroke="#191970" points="379.2349,-841.7073 389.1467,-845.4501 383.7324,-836.3431 379.2349,-841.7073"/>
</g>
<!-- Node19 -->
<g id="node14" class="node">
<title>Node19</title>
<g id="a_node14"><a xlink:href="iter__impl_8hpp.html" target="_top" xlink:title="/home/bdn_jz/bdn_jz\l/camera&#45;tracker&#45;cpp\l/CameraTrackerLinux/include\l/nlohmann/detail/iterators\l/iter_impl.hpp">
<polygon fill="#ffffff" stroke="#000000" points="384,-445.5 384,-508.5 528,-508.5 528,-445.5 384,-445.5"/>
<text text-anchor="start" x="392" y="-496.5" font-family="Helvetica,sans-Serif" font-size="10.00" fill="#000000">/home/bdn_jz/bdn_jz</text>
<text text-anchor="start" x="392" y="-485.5" font-family="Helvetica,sans-Serif" font-size="10.00" fill="#000000">/camera&#45;tracker&#45;cpp</text>
<text text-anchor="start" x="392" y="-474.5" font-family="Helvetica,sans-Serif" font-size="10.00" fill="#000000">/CameraTrackerLinux/include</text>
<text text-anchor="start" x="392" y="-463.5" font-family="Helvetica,sans-Serif" font-size="10.00" fill="#000000">/nlohmann/detail/iterators</text>
<text text-anchor="middle" x="456" y="-452.5" font-family="Helvetica,sans-Serif" font-size="10.00" fill="#000000">/iter_impl.hpp</text>
</a>
</g>
</g>
<!-- Node15&#45;&gt;Node19 -->
<g id="edge19" class="edge">
<title>Node15&#45;&gt;Node19</title>
<path fill="none" stroke="#191970" d="M433.6232,-835.0286C438.6507,-754.5887 449.5407,-580.3492 454.0172,-508.7249"/>
<polygon fill="#191970" stroke="#191970" points="430.1133,-835.0794 432.9826,-845.2783 437.0997,-835.5162 430.1133,-835.0794"/>
</g>
<!-- Node20 -->
<g id="node15" class="node">
<title>Node20</title>
<g id="a_node15"><a xlink:href="iteration__proxy_8hpp.html" target="_top" xlink:title="/home/bdn_jz/bdn_jz\l/camera&#45;tracker&#45;cpp\l/CameraTrackerLinux/include\l/nlohmann/detail/iterators\l/iteration_proxy.hpp">
<polygon fill="#ffffff" stroke="#000000" points="284,-645.5 284,-708.5 428,-708.5 428,-645.5 284,-645.5"/>
<text text-anchor="start" x="292" y="-696.5" font-family="Helvetica,sans-Serif" font-size="10.00" fill="#000000">/home/bdn_jz/bdn_jz</text>
<text text-anchor="start" x="292" y="-685.5" font-family="Helvetica,sans-Serif" font-size="10.00" fill="#000000">/camera&#45;tracker&#45;cpp</text>
<text text-anchor="start" x="292" y="-674.5" font-family="Helvetica,sans-Serif" font-size="10.00" fill="#000000">/CameraTrackerLinux/include</text>
<text text-anchor="start" x="292" y="-663.5" font-family="Helvetica,sans-Serif" font-size="10.00" fill="#000000">/nlohmann/detail/iterators</text>
<text text-anchor="middle" x="356" y="-652.5" font-family="Helvetica,sans-Serif" font-size="10.00" fill="#000000">/iteration_proxy.hpp</text>
</a>
</g>
</g>
<!-- Node15&#45;&gt;Node20 -->
<g id="edge21" class="edge">
<title>Node15&#45;&gt;Node20</title>
<path fill="none" stroke="#191970" d="M415.4848,-835.6261C401.3241,-797.8642 380.6976,-742.8604 367.8284,-708.5423"/>
<polygon fill="#191970" stroke="#191970" points="412.3276,-837.1751 419.116,-845.3094 418.8819,-834.7172 412.3276,-837.1751"/>
</g>
<!-- Node21 -->
<g id="node16" class="node">
<title>Node21</title>
<g id="a_node16"><a xlink:href="json__ref_8hpp.html" target="_top" xlink:title="/home/bdn_jz/bdn_jz\l/camera&#45;tracker&#45;cpp\l/CameraTrackerLinux/include\l/nlohmann/detail/json_ref.hpp">
<polygon fill="#ffffff" stroke="#000000" points="484,-751 484,-803 628,-803 628,-751 484,-751"/>
<text text-anchor="start" x="492" y="-791" font-family="Helvetica,sans-Serif" font-size="10.00" fill="#000000">/home/bdn_jz/bdn_jz</text>
<text text-anchor="start" x="492" y="-780" font-family="Helvetica,sans-Serif" font-size="10.00" fill="#000000">/camera&#45;tracker&#45;cpp</text>
<text text-anchor="start" x="492" y="-769" font-family="Helvetica,sans-Serif" font-size="10.00" fill="#000000">/CameraTrackerLinux/include</text>
<text text-anchor="middle" x="556" y="-758" font-family="Helvetica,sans-Serif" font-size="10.00" fill="#000000">/nlohmann/detail/json_ref.hpp</text>
</a>
</g>
</g>
<!-- Node15&#45;&gt;Node21 -->
<g id="edge24" class="edge">
<title>Node15&#45;&gt;Node21</title>
<path fill="none" stroke="#191970" d="M478.7002,-838.8399C493.6326,-826.8939 509.7609,-813.9913 523.4025,-803.078"/>
<polygon fill="#191970" stroke="#191970" points="476.173,-836.3793 470.5508,-845.3594 480.5459,-841.8454 476.173,-836.3793"/>
</g>
<!-- Node22 -->
<g id="node17" class="node">
<title>Node22</title>
<g id="a_node17"><a xlink:href="is__sax_8hpp.html" target="_top" xlink:title="/home/bdn_jz/bdn_jz\l/camera&#45;tracker&#45;cpp\l/CameraTrackerLinux/include\l/nlohmann/detail/meta/is\l_sax.hpp">
<polygon fill="#ffffff" stroke="#000000" points="646,-745.5 646,-808.5 790,-808.5 790,-745.5 646,-745.5"/>
<text text-anchor="start" x="654" y="-796.5" font-family="Helvetica,sans-Serif" font-size="10.00" fill="#000000">/home/bdn_jz/bdn_jz</text>
<text text-anchor="start" x="654" y="-785.5" font-family="Helvetica,sans-Serif" font-size="10.00" fill="#000000">/camera&#45;tracker&#45;cpp</text>
<text text-anchor="start" x="654" y="-774.5" font-family="Helvetica,sans-Serif" font-size="10.00" fill="#000000">/CameraTrackerLinux/include</text>
<text text-anchor="start" x="654" y="-763.5" font-family="Helvetica,sans-Serif" font-size="10.00" fill="#000000">/nlohmann/detail/meta/is</text>
<text text-anchor="middle" x="718" y="-752.5" font-family="Helvetica,sans-Serif" font-size="10.00" fill="#000000">_sax.hpp</text>
</a>
</g>
</g>
<!-- Node15&#45;&gt;Node22 -->
<g id="edge26" class="edge">
<title>Node15&#45;&gt;Node22</title>
<path fill="none" stroke="#191970" d="M513.2848,-851.0339C551.1385,-838.7829 596.5305,-823.6597 637,-809 639.8432,-807.9701 642.7366,-806.9057 645.6549,-805.8187"/>
<polygon fill="#191970" stroke="#191970" points="511.7684,-847.8455 503.3262,-854.2471 513.9179,-854.5073 511.7684,-847.8455"/>
</g>
<!-- Node16&#45;&gt;Node7 -->
<g id="edge13" class="edge">
<title>Node16&#45;&gt;Node7</title>
<path fill="none" stroke="#191970" d="M100.5172,-535.3758C103.2117,-505.8691 111.8351,-467.6407 137,-445 179.6273,-406.6485 338.8781,-391.471 433.6768,-385.743"/>
<polygon fill="#191970" stroke="#191970" points="97.0221,-535.1833 99.794,-545.4091 104.004,-535.6866 97.0221,-535.1833"/>
</g>
<!-- Node17 -->
<g id="node12" class="node">
<title>Node17</title>
<g id="a_node12"><a xlink:href="adl__serializer_8hpp.html" target="_top" xlink:title="/home/bdn_jz/bdn_jz\l/camera&#45;tracker&#45;cpp\l/CameraTrackerLinux/include\l/nlohmann/adl_serializer.hpp">
<polygon fill="#ffffff" stroke="#000000" points="146,-451 146,-503 290,-503 290,-451 146,-451"/>
<text text-anchor="start" x="154" y="-491" font-family="Helvetica,sans-Serif" font-size="10.00" fill="#000000">/home/bdn_jz/bdn_jz</text>
<text text-anchor="start" x="154" y="-480" font-family="Helvetica,sans-Serif" font-size="10.00" fill="#000000">/camera&#45;tracker&#45;cpp</text>
<text text-anchor="start" x="154" y="-469" font-family="Helvetica,sans-Serif" font-size="10.00" fill="#000000">/CameraTrackerLinux/include</text>
<text text-anchor="middle" x="218" y="-458" font-family="Helvetica,sans-Serif" font-size="10.00" fill="#000000">/nlohmann/adl_serializer.hpp</text>
</a>
</g>
</g>
<!-- Node16&#45;&gt;Node17 -->
<g id="edge14" class="edge">
<title>Node16&#45;&gt;Node17</title>
<path fill="none" stroke="#191970" d="M145.0289,-538.8399C159.1252,-526.8939 174.3503,-513.9913 187.228,-503.078"/>
<polygon fill="#191970" stroke="#191970" points="142.7021,-536.224 137.3359,-545.3594 147.2278,-541.5643 142.7021,-536.224"/>
</g>
<!-- Node17&#45;&gt;Node7 -->
<g id="edge15" class="edge">
<title>Node17&#45;&gt;Node7</title>
<path fill="none" stroke="#191970" d="M296.3176,-447.6489C298.9056,-446.7461 301.4716,-445.8608 304,-445 346.7437,-430.4479 395.0451,-415.4513 433.6963,-403.7967"/>
<polygon fill="#191970" stroke="#191970" points="295.1428,-444.3519 286.8794,-450.9828 297.4742,-450.9523 295.1428,-444.3519"/>
</g>
<!-- Node18&#45;&gt;Node7 -->
<g id="edge17" class="edge">
<title>Node18&#45;&gt;Node7</title>
<path fill="none" stroke="#191970" d="M284.7622,-536.5105C305.432,-500.25 333.8889,-451.7631 342,-445 368.3273,-423.0481 403.1869,-408.3199 433.9954,-398.7058"/>
<polygon fill="#191970" stroke="#191970" points="281.5896,-535.0095 279.692,-545.4331 287.6756,-538.4679 281.5896,-535.0095"/>
</g>
<!-- Node18&#45;&gt;Node17 -->
<g id="edge18" class="edge">
<title>Node18&#45;&gt;Node17</title>
<path fill="none" stroke="#191970" d="M244.0351,-536.1707C239.1171,-524.9933 233.9205,-513.1829 229.4743,-503.078"/>
<polygon fill="#191970" stroke="#191970" points="240.8471,-537.6158 248.0781,-545.3594 247.2543,-534.7966 240.8471,-537.6158"/>
</g>
<!-- Node19&#45;&gt;Node7 -->
<g id="edge20" class="edge">
<title>Node19&#45;&gt;Node7</title>
<path fill="none" stroke="#191970" d="M477.4756,-436.4112C482.4527,-427.0043 487.6201,-417.238 492.1671,-408.6442"/>
<polygon fill="#191970" stroke="#191970" points="474.3715,-434.7941 472.7884,-445.27 480.5588,-438.0678 474.3715,-434.7941"/>
</g>
<!-- Node20&#45;&gt;Node7 -->
<g id="edge22" class="edge">
<title>Node20&#45;&gt;Node7</title>
<path fill="none" stroke="#191970" d="M354.5644,-635.4339C353.3508,-577.1456 354.3863,-474.8946 375,-445 389.0186,-424.6698 411.5017,-410.7458 433.9142,-401.3026"/>
<polygon fill="#191970" stroke="#191970" points="351.0653,-635.519 354.8035,-645.4324 358.0633,-635.3516 351.0653,-635.519"/>
</g>
<!-- Node20&#45;&gt;Node18 -->
<g id="edge23" class="edge">
<title>Node20&#45;&gt;Node18</title>
<path fill="none" stroke="#191970" d="M319.1469,-637.7946C310.1057,-628.1763 300.5384,-617.9983 291.8713,-608.778"/>
<polygon fill="#191970" stroke="#191970" points="316.8585,-640.4703 326.2578,-645.3594 321.9589,-635.6759 316.8585,-640.4703"/>
</g>
<!-- Node21&#45;&gt;Node7 -->
<g id="edge25" class="edge">
<title>Node21&#45;&gt;Node7</title>
<path fill="none" stroke="#191970" d="M558.6155,-740.5614C562.0276,-678.6469 564.6553,-549.4615 537,-445 533.6832,-432.4717 527.7234,-419.4976 521.9095,-408.6391"/>
<polygon fill="#191970" stroke="#191970" points="555.1176,-740.4244 558.0211,-750.6136 562.1054,-740.8377 555.1176,-740.4244"/>
</g>
<!-- Node23 -->
<g id="node18" class="node">
<title>Node23</title>
<g id="a_node18"><a xlink:href="binary__reader_8hpp.html" target="_top" xlink:title="/home/bdn_jz/bdn_jz\l/camera&#45;tracker&#45;cpp\l/CameraTrackerLinux/include\l/nlohmann/detail/input/binary\l_reader.hpp">
<polygon fill="#ffffff" stroke="#000000" points="605,-645.5 605,-708.5 749,-708.5 749,-645.5 605,-645.5"/>
<text text-anchor="start" x="613" y="-696.5" font-family="Helvetica,sans-Serif" font-size="10.00" fill="#000000">/home/bdn_jz/bdn_jz</text>
<text text-anchor="start" x="613" y="-685.5" font-family="Helvetica,sans-Serif" font-size="10.00" fill="#000000">/camera&#45;tracker&#45;cpp</text>
<text text-anchor="start" x="613" y="-674.5" font-family="Helvetica,sans-Serif" font-size="10.00" fill="#000000">/CameraTrackerLinux/include</text>
<text text-anchor="start" x="613" y="-663.5" font-family="Helvetica,sans-Serif" font-size="10.00" fill="#000000">/nlohmann/detail/input/binary</text>
<text text-anchor="middle" x="677" y="-652.5" font-family="Helvetica,sans-Serif" font-size="10.00" fill="#000000">_reader.hpp</text>
</a>
</g>
</g>
<!-- Node22&#45;&gt;Node23 -->
<g id="edge27" class="edge">
<title>Node22&#45;&gt;Node23</title>
<path fill="none" stroke="#191970" d="M701.2207,-736.0748C697.4879,-726.9704 693.5847,-717.4505 690.029,-708.778"/>
<polygon fill="#191970" stroke="#191970" points="697.9954,-737.4346 705.0273,-745.3594 704.4721,-734.7791 697.9954,-737.4346"/>
</g>
<!-- Node26 -->
<g id="node21" class="node">
<title>Node26</title>
<g id="a_node21"><a xlink:href="parser_8hpp.html" target="_top" xlink:title="/home/bdn_jz/bdn_jz\l/camera&#45;tracker&#45;cpp\l/CameraTrackerLinux/include\l/nlohmann/detail/input/parser.hpp">
<polygon fill="#ffffff" stroke="#000000" points="767.5,-651 767.5,-703 928.5,-703 928.5,-651 767.5,-651"/>
<text text-anchor="start" x="775.5" y="-691" font-family="Helvetica,sans-Serif" font-size="10.00" fill="#000000">/home/bdn_jz/bdn_jz</text>
<text text-anchor="start" x="775.5" y="-680" font-family="Helvetica,sans-Serif" font-size="10.00" fill="#000000">/camera&#45;tracker&#45;cpp</text>
<text text-anchor="start" x="775.5" y="-669" font-family="Helvetica,sans-Serif" font-size="10.00" fill="#000000">/CameraTrackerLinux/include</text>
<text text-anchor="middle" x="848" y="-658" font-family="Helvetica,sans-Serif" font-size="10.00" fill="#000000">/nlohmann/detail/input/parser.hpp</text>
</a>
</g>
</g>
<!-- Node22&#45;&gt;Node26 -->
<g id="edge33" class="edge">
<title>Node22&#45;&gt;Node26</title>
<path fill="none" stroke="#191970" d="M767.1771,-739.1715C782.827,-727.133 799.78,-714.0923 814.0986,-703.078"/>
<polygon fill="#191970" stroke="#191970" points="764.9251,-736.488 759.1328,-745.3594 769.1931,-742.0364 764.9251,-736.488"/>
</g>
<!-- Node23&#45;&gt;Node7 -->
<g id="edge28" class="edge">
<title>Node23&#45;&gt;Node7</title>
<path fill="none" stroke="#191970" d="M729.4244,-638.9728C739.9787,-629.8821 750.4438,-619.6887 759,-609 806.7019,-549.409 858.2349,-504.1605 810,-445 781.3143,-409.8167 658.6883,-393.872 578.2131,-387.0825"/>
<polygon fill="#191970" stroke="#191970" points="727.1771,-636.2896 721.7495,-645.3886 731.6666,-641.6603 727.1771,-636.2896"/>
</g>
<!-- Node24 -->
<g id="node19" class="node">
<title>Node24</title>
<g id="a_node19"><a xlink:href="binary__writer_8hpp.html" target="_top" xlink:title="/home/bdn_jz/bdn_jz\l/camera&#45;tracker&#45;cpp\l/CameraTrackerLinux/include\l/nlohmann/detail/output/binary\l_writer.hpp">
<polygon fill="#ffffff" stroke="#000000" points="603.5,-545.5 603.5,-608.5 750.5,-608.5 750.5,-545.5 603.5,-545.5"/>
<text text-anchor="start" x="611.5" y="-596.5" font-family="Helvetica,sans-Serif" font-size="10.00" fill="#000000">/home/bdn_jz/bdn_jz</text>
<text text-anchor="start" x="611.5" y="-585.5" font-family="Helvetica,sans-Serif" font-size="10.00" fill="#000000">/camera&#45;tracker&#45;cpp</text>
<text text-anchor="start" x="611.5" y="-574.5" font-family="Helvetica,sans-Serif" font-size="10.00" fill="#000000">/CameraTrackerLinux/include</text>
<text text-anchor="start" x="611.5" y="-563.5" font-family="Helvetica,sans-Serif" font-size="10.00" fill="#000000">/nlohmann/detail/output/binary</text>
<text text-anchor="middle" x="677" y="-552.5" font-family="Helvetica,sans-Serif" font-size="10.00" fill="#000000">_writer.hpp</text>
</a>
</g>
</g>
<!-- Node23&#45;&gt;Node24 -->
<g id="edge29" class="edge">
<title>Node23&#45;&gt;Node24</title>
<path fill="none" stroke="#191970" d="M677,-635.2111C677,-626.37 677,-617.1767 677,-608.778"/>
<polygon fill="#191970" stroke="#191970" points="673.5001,-635.3593 677,-645.3594 680.5001,-635.3594 673.5001,-635.3593"/>
</g>
<!-- Node24&#45;&gt;Node7 -->
<g id="edge30" class="edge">
<title>Node24&#45;&gt;Node7</title>
<path fill="none" stroke="#191970" d="M638.1579,-537.91C629.5754,-528.6846 620.7404,-518.7031 613,-509 591.6299,-482.2112 591.9299,-471.3325 570,-445 559.465,-432.3501 546.6817,-419.4604 535.3181,-408.6983"/>
<polygon fill="#191970" stroke="#191970" points="635.8705,-540.5859 645.2782,-545.4588 640.9627,-535.7827 635.8705,-540.5859"/>
</g>
<!-- Node25 -->
<g id="node20" class="node">
<title>Node25</title>
<g id="a_node20"><a xlink:href="serializer_8hpp.html" target="_top" xlink:title="/home/bdn_jz/bdn_jz\l/camera&#45;tracker&#45;cpp\l/CameraTrackerLinux/include\l/nlohmann/detail/output/serializer.hpp">
<polygon fill="#ffffff" stroke="#000000" points="622.5,-451 622.5,-503 801.5,-503 801.5,-451 622.5,-451"/>
<text text-anchor="start" x="630.5" y="-491" font-family="Helvetica,sans-Serif" font-size="10.00" fill="#000000">/home/bdn_jz/bdn_jz</text>
<text text-anchor="start" x="630.5" y="-480" font-family="Helvetica,sans-Serif" font-size="10.00" fill="#000000">/camera&#45;tracker&#45;cpp</text>
<text text-anchor="start" x="630.5" y="-469" font-family="Helvetica,sans-Serif" font-size="10.00" fill="#000000">/CameraTrackerLinux/include</text>
<text text-anchor="middle" x="712" y="-458" font-family="Helvetica,sans-Serif" font-size="10.00" fill="#000000">/nlohmann/detail/output/serializer.hpp</text>
</a>
</g>
</g>
<!-- Node24&#45;&gt;Node25 -->
<g id="edge31" class="edge">
<title>Node24&#45;&gt;Node25</title>
<path fill="none" stroke="#191970" d="M691.4077,-535.8352C695.2849,-524.7573 699.3714,-513.0819 702.8727,-503.078"/>
<polygon fill="#191970" stroke="#191970" points="688.0743,-534.7645 688.0742,-545.3594 694.6813,-537.077 688.0743,-534.7645"/>
</g>
<!-- Node25&#45;&gt;Node7 -->
<g id="edge32" class="edge">
<title>Node25&#45;&gt;Node7</title>
<path fill="none" stroke="#191970" d="M645.896,-446.6756C619.2041,-434.431 588.7029,-420.439 563.0075,-408.6515"/>
<polygon fill="#191970" stroke="#191970" points="644.6156,-449.9389 655.1643,-450.9273 647.5344,-443.5764 644.6156,-449.9389"/>
</g>
<!-- Node26&#45;&gt;Node7 -->
<g id="edge34" class="edge">
<title>Node26&#45;&gt;Node7</title>
<path fill="none" stroke="#191970" d="M857.9694,-641.1171C869.5822,-590.734 881.6189,-499.1414 834,-445 801.0755,-407.5656 664.3288,-392.2202 578.1337,-386.1802"/>
<polygon fill="#191970" stroke="#191970" points="854.548,-640.3748 855.5949,-650.9178 861.3512,-642.0231 854.548,-640.3748"/>
</g>
</g>
</svg>
