<?xml version="1.0" encoding="UTF-8" standalone="no"?>
<!DOCTYPE svg PUBLIC "-//W3C//DTD SVG 1.1//EN"
 "http://www.w3.org/Graphics/SVG/1.1/DTD/svg11.dtd">
<!-- Generated by graphviz version 2.40.1 (20161225.0304)
 -->
<!-- Title: /home/bdn_jz/bdn_jz/camera&#45;tracker&#45;cpp/CameraTrackerLinux/include/nlohmann/json_fwd.hpp Pages: 1 -->
<svg width="300pt" height="117pt"
 viewBox="0.00 0.00 300.00 117.00" xmlns="http://www.w3.org/2000/svg" xmlns:xlink="http://www.w3.org/1999/xlink">
<g id="graph0" class="graph" transform="scale(1 1) rotate(0) translate(4 113)">
<title>/home/bdn_jz/bdn_jz/camera&#45;tracker&#45;cpp/CameraTrackerLinux/include/nlohmann/json_fwd.hpp</title>
<polygon fill="#ffffff" stroke="transparent" points="-4,4 -4,-113 296,-113 296,4 -4,4"/>
<!-- Node0 -->
<g id="node1" class="node">
<title>Node0</title>
<polygon fill="#bfbfbf" stroke="#000000" points="72,-56.5 72,-108.5 216,-108.5 216,-56.5 72,-56.5"/>
<text text-anchor="start" x="80" y="-96.5" font-family="Helvetica,sans-Serif" font-size="10.00" fill="#000000">/home/bdn_jz/bdn_jz</text>
<text text-anchor="start" x="80" y="-85.5" font-family="Helvetica,sans-Serif" font-size="10.00" fill="#000000">/camera&#45;tracker&#45;cpp</text>
<text text-anchor="start" x="80" y="-74.5" font-family="Helvetica,sans-Serif" font-size="10.00" fill="#000000">/CameraTrackerLinux/include</text>
<text text-anchor="middle" x="144" y="-63.5" font-family="Helvetica,sans-Serif" font-size="10.00" fill="#000000">/nlohmann/json_fwd.hpp</text>
</g>
<!-- Node1 -->
<g id="node2" class="node">
<title>Node1</title>
<polygon fill="#ffffff" stroke="#bfbfbf" points="0,-.5 0,-19.5 46,-19.5 46,-.5 0,-.5"/>
<text text-anchor="middle" x="23" y="-7.5" font-family="Helvetica,sans-Serif" font-size="10.00" fill="#000000">cstdint</text>
</g>
<!-- Node0&#45;&gt;Node1 -->
<g id="edge1" class="edge">
<title>Node0&#45;&gt;Node1</title>
<path fill="none" stroke="#191970" d="M100.3162,-56.3258C82.6017,-45.7118 62.7978,-33.8458 47.6679,-24.7804"/>
<polygon fill="#191970" stroke="#191970" points="49.2889,-21.6715 38.9119,-19.534 45.6911,-27.6761 49.2889,-21.6715"/>
</g>
<!-- Node2 -->
<g id="node3" class="node">
<title>Node2</title>
<polygon fill="#ffffff" stroke="#bfbfbf" points="64.5,-.5 64.5,-19.5 99.5,-19.5 99.5,-.5 64.5,-.5"/>
<text text-anchor="middle" x="82" y="-7.5" font-family="Helvetica,sans-Serif" font-size="10.00" fill="#000000">map</text>
</g>
<!-- Node0&#45;&gt;Node2 -->
<g id="edge2" class="edge">
<title>Node0&#45;&gt;Node2</title>
<path fill="none" stroke="#191970" d="M121.6166,-56.3258C113.3104,-46.613 104.1077,-35.8518 96.6641,-27.1476"/>
<polygon fill="#191970" stroke="#191970" points="99.3125,-24.8592 90.1532,-19.534 93.9925,-29.4087 99.3125,-24.8592"/>
</g>
<!-- Node3 -->
<g id="node4" class="node">
<title>Node3</title>
<polygon fill="#ffffff" stroke="#bfbfbf" points="118,-.5 118,-19.5 170,-19.5 170,-.5 118,-.5"/>
<text text-anchor="middle" x="144" y="-7.5" font-family="Helvetica,sans-Serif" font-size="10.00" fill="#000000">memory</text>
</g>
<!-- Node0&#45;&gt;Node3 -->
<g id="edge3" class="edge">
<title>Node0&#45;&gt;Node3</title>
<path fill="none" stroke="#191970" d="M144,-56.3258C144,-47.5142 144,-37.8397 144,-29.621"/>
<polygon fill="#191970" stroke="#191970" points="147.5001,-29.534 144,-19.534 140.5001,-29.534 147.5001,-29.534"/>
</g>
<!-- Node4 -->
<g id="node5" class="node">
<title>Node4</title>
<polygon fill="#ffffff" stroke="#bfbfbf" points="188.5,-.5 188.5,-19.5 229.5,-19.5 229.5,-.5 188.5,-.5"/>
<text text-anchor="middle" x="209" y="-7.5" font-family="Helvetica,sans-Serif" font-size="10.00" fill="#000000">string</text>
</g>
<!-- Node0&#45;&gt;Node4 -->
<g id="edge4" class="edge">
<title>Node0&#45;&gt;Node4</title>
<path fill="none" stroke="#191970" d="M167.4665,-56.3258C176.1746,-46.613 185.8226,-35.8518 193.6263,-27.1476"/>
<polygon fill="#191970" stroke="#191970" points="196.3828,-29.3161 200.4523,-19.534 191.1708,-24.6433 196.3828,-29.3161"/>
</g>
<!-- Node5 -->
<g id="node6" class="node">
<title>Node5</title>
<polygon fill="#ffffff" stroke="#bfbfbf" points="248,-.5 248,-19.5 292,-19.5 292,-.5 248,-.5"/>
<text text-anchor="middle" x="270" y="-7.5" font-family="Helvetica,sans-Serif" font-size="10.00" fill="#000000">vector</text>
</g>
<!-- Node0&#45;&gt;Node5 -->
<g id="edge5" class="edge">
<title>Node0&#45;&gt;Node5</title>
<path fill="none" stroke="#191970" d="M189.4889,-56.3258C208.1094,-45.6116 228.9469,-33.6218 244.7573,-24.5246"/>
<polygon fill="#191970" stroke="#191970" points="246.5085,-27.555 253.4306,-19.534 243.0174,-21.4877 246.5085,-27.555"/>
</g>
</g>
</svg>
