<?xml version="1.0" encoding="UTF-8" standalone="no"?>
<!DOCTYPE svg PUBLIC "-//W3C//DTD SVG 1.1//EN"
 "http://www.w3.org/Graphics/SVG/1.1/DTD/svg11.dtd">
<!-- Generated by graphviz version 2.40.1 (20161225.0304)
 -->
<!-- Title: /home/bdn_jz/bdn_jz/camera&#45;tracker&#45;cpp/CameraTrackerLinux/include/nlohmann/json_fwd.hpp Pages: 1 -->
<svg width="965pt" height="828pt"
 viewBox="0.00 0.00 965.00 828.00" xmlns="http://www.w3.org/2000/svg" xmlns:xlink="http://www.w3.org/1999/xlink">
<g id="graph0" class="graph" transform="scale(1 1) rotate(0) translate(4 824)">
<title>/home/bdn_jz/bdn_jz/camera&#45;tracker&#45;cpp/CameraTrackerLinux/include/nlohmann/json_fwd.hpp</title>
<polygon fill="#ffffff" stroke="transparent" points="-4,4 -4,-824 961,-824 961,4 -4,4"/>
<!-- Node6 -->
<g id="node1" class="node">
<title>Node6</title>
<polygon fill="#bfbfbf" stroke="#000000" points="97,-767.5 97,-819.5 241,-819.5 241,-767.5 97,-767.5"/>
<text text-anchor="start" x="105" y="-807.5" font-family="Helvetica,sans-Serif" font-size="10.00" fill="#000000">/home/bdn_jz/bdn_jz</text>
<text text-anchor="start" x="105" y="-796.5" font-family="Helvetica,sans-Serif" font-size="10.00" fill="#000000">/camera&#45;tracker&#45;cpp</text>
<text text-anchor="start" x="105" y="-785.5" font-family="Helvetica,sans-Serif" font-size="10.00" fill="#000000">/CameraTrackerLinux/include</text>
<text text-anchor="middle" x="169" y="-774.5" font-family="Helvetica,sans-Serif" font-size="10.00" fill="#000000">/nlohmann/json_fwd.hpp</text>
</g>
<!-- Node7 -->
<g id="node2" class="node">
<title>Node7</title>
<g id="a_node2"><a xlink:href="json_8hpp.html" target="_top" xlink:title="/home/bdn_jz/bdn_jz\l/camera&#45;tracker&#45;cpp\l/CameraTrackerLinux/include\l/nlohmann/json.hpp">
<polygon fill="#ffffff" stroke="#000000" points="434,-178.5 434,-230.5 578,-230.5 578,-178.5 434,-178.5"/>
<text text-anchor="start" x="442" y="-218.5" font-family="Helvetica,sans-Serif" font-size="10.00" fill="#000000">/home/bdn_jz/bdn_jz</text>
<text text-anchor="start" x="442" y="-207.5" font-family="Helvetica,sans-Serif" font-size="10.00" fill="#000000">/camera&#45;tracker&#45;cpp</text>
<text text-anchor="start" x="442" y="-196.5" font-family="Helvetica,sans-Serif" font-size="10.00" fill="#000000">/CameraTrackerLinux/include</text>
<text text-anchor="middle" x="506" y="-185.5" font-family="Helvetica,sans-Serif" font-size="10.00" fill="#000000">/nlohmann/json.hpp</text>
</a>
</g>
</g>
<!-- Node6&#45;&gt;Node7 -->
<g id="edge1" class="edge">
<title>Node6&#45;&gt;Node7</title>
<path fill="none" stroke="#191970" d="M114.8627,-761.7037C65.4271,-728.1375 0,-670.2538 0,-599 0,-599 0,-599 0,-399 0,-359.8944 31.7924,-306.8036 102,-267 157.3354,-235.6281 333.2501,-217.547 433.7565,-209.5252"/>
<polygon fill="#191970" stroke="#191970" points="112.9992,-764.6675 123.2662,-767.2829 116.8711,-758.8358 112.9992,-764.6675"/>
</g>
<!-- Node11 -->
<g id="node6" class="node">
<title>Node11</title>
<g id="a_node6"><a xlink:href="type__traits_8hpp.html" target="_top" xlink:title="/home/bdn_jz/bdn_jz\l/camera&#45;tracker&#45;cpp\l/CameraTrackerLinux/include\l/nlohmann/detail/meta/type\l_traits.hpp">
<polygon fill="#ffffff" stroke="#000000" points="359,-667.5 359,-730.5 503,-730.5 503,-667.5 359,-667.5"/>
<text text-anchor="start" x="367" y="-718.5" font-family="Helvetica,sans-Serif" font-size="10.00" fill="#000000">/home/bdn_jz/bdn_jz</text>
<text text-anchor="start" x="367" y="-707.5" font-family="Helvetica,sans-Serif" font-size="10.00" fill="#000000">/camera&#45;tracker&#45;cpp</text>
<text text-anchor="start" x="367" y="-696.5" font-family="Helvetica,sans-Serif" font-size="10.00" fill="#000000">/CameraTrackerLinux/include</text>
<text text-anchor="start" x="367" y="-685.5" font-family="Helvetica,sans-Serif" font-size="10.00" fill="#000000">/nlohmann/detail/meta/type</text>
<text text-anchor="middle" x="431" y="-674.5" font-family="Helvetica,sans-Serif" font-size="10.00" fill="#000000">_traits.hpp</text>
</a>
</g>
</g>
<!-- Node6&#45;&gt;Node11 -->
<g id="edge5" class="edge">
<title>Node6&#45;&gt;Node11</title>
<path fill="none" stroke="#191970" d="M250.8977,-763.9606C285.5126,-751.4754 325.4754,-737.0613 358.9497,-724.9876"/>
<polygon fill="#191970" stroke="#191970" points="249.5055,-760.7419 241.2862,-767.4273 251.8806,-767.3267 249.5055,-760.7419"/>
</g>
<!-- Node8 -->
<g id="node3" class="node">
<title>Node8</title>
<g id="a_node3"><a xlink:href="_json_utilization_8h.html" target="_top" xlink:title="This file contains the declaration of the namespace jsonUtilization. ">
<polygon fill="#ffffff" stroke="#000000" points="434,-89.5 434,-141.5 578,-141.5 578,-89.5 434,-89.5"/>
<text text-anchor="start" x="442" y="-129.5" font-family="Helvetica,sans-Serif" font-size="10.00" fill="#000000">/home/bdn_jz/bdn_jz</text>
<text text-anchor="start" x="442" y="-118.5" font-family="Helvetica,sans-Serif" font-size="10.00" fill="#000000">/camera&#45;tracker&#45;cpp</text>
<text text-anchor="start" x="442" y="-107.5" font-family="Helvetica,sans-Serif" font-size="10.00" fill="#000000">/CameraTrackerLinux/include</text>
<text text-anchor="middle" x="506" y="-96.5" font-family="Helvetica,sans-Serif" font-size="10.00" fill="#000000">/JsonUtilization.h</text>
</a>
</g>
</g>
<!-- Node7&#45;&gt;Node8 -->
<g id="edge2" class="edge">
<title>Node7&#45;&gt;Node8</title>
<path fill="none" stroke="#191970" d="M506,-168.1155C506,-159.2061 506,-149.8475 506,-141.5341"/>
<polygon fill="#191970" stroke="#191970" points="502.5001,-168.2784 506,-178.2784 509.5001,-168.2785 502.5001,-168.2784"/>
</g>
<!-- Node9 -->
<g id="node4" class="node">
<title>Node9</title>
<g id="a_node4"><a xlink:href="main_8cpp.html" target="_top" xlink:title="/home/bdn_jz/bdn_jz\l/camera&#45;tracker&#45;cpp\l/CameraTrackerLinux/main.cpp">
<polygon fill="#ffffff" stroke="#000000" points="350.5,-6 350.5,-47 503.5,-47 503.5,-6 350.5,-6"/>
<text text-anchor="start" x="358.5" y="-35" font-family="Helvetica,sans-Serif" font-size="10.00" fill="#000000">/home/bdn_jz/bdn_jz</text>
<text text-anchor="start" x="358.5" y="-24" font-family="Helvetica,sans-Serif" font-size="10.00" fill="#000000">/camera&#45;tracker&#45;cpp</text>
<text text-anchor="middle" x="427" y="-13" font-family="Helvetica,sans-Serif" font-size="10.00" fill="#000000">/CameraTrackerLinux/main.cpp</text>
</a>
</g>
</g>
<!-- Node8&#45;&gt;Node9 -->
<g id="edge3" class="edge">
<title>Node8&#45;&gt;Node9</title>
<path fill="none" stroke="#191970" d="M475.8019,-81.4794C465.5447,-69.9238 454.4001,-57.3685 445.3538,-47.1771"/>
<polygon fill="#191970" stroke="#191970" points="473.4687,-84.1231 482.7247,-89.2784 478.7038,-79.4762 473.4687,-84.1231"/>
</g>
<!-- Node10 -->
<g id="node5" class="node">
<title>Node10</title>
<g id="a_node5"><a xlink:href="_json_utilization_8cpp.html" target="_top" xlink:title="/home/bdn_jz/bdn_jz\l/camera&#45;tracker&#45;cpp\l/CameraTrackerLinux/src\l/JsonUtilization.cpp">
<polygon fill="#ffffff" stroke="#000000" points="521.5,-.5 521.5,-52.5 648.5,-52.5 648.5,-.5 521.5,-.5"/>
<text text-anchor="start" x="529.5" y="-40.5" font-family="Helvetica,sans-Serif" font-size="10.00" fill="#000000">/home/bdn_jz/bdn_jz</text>
<text text-anchor="start" x="529.5" y="-29.5" font-family="Helvetica,sans-Serif" font-size="10.00" fill="#000000">/camera&#45;tracker&#45;cpp</text>
<text text-anchor="start" x="529.5" y="-18.5" font-family="Helvetica,sans-Serif" font-size="10.00" fill="#000000">/CameraTrackerLinux/src</text>
<text text-anchor="middle" x="585" y="-7.5" font-family="Helvetica,sans-Serif" font-size="10.00" fill="#000000">/JsonUtilization.cpp</text>
</a>
</g>
</g>
<!-- Node8&#45;&gt;Node10 -->
<g id="edge4" class="edge">
<title>Node8&#45;&gt;Node10</title>
<path fill="none" stroke="#191970" d="M535.9881,-81.7159C544.5705,-72.0472 553.7899,-61.6608 561.891,-52.5341"/>
<polygon fill="#191970" stroke="#191970" points="533.2962,-79.4762 529.2753,-89.2784 538.5313,-84.1231 533.2962,-79.4762"/>
</g>
<!-- Node11&#45;&gt;Node7 -->
<g id="edge6" class="edge">
<title>Node11&#45;&gt;Node7</title>
<path fill="none" stroke="#191970" d="M513.3019,-694.2229C589.9298,-687.3914 705.9864,-670.8634 799,-631 883.1051,-594.9545 957,-590.5038 957,-499 957,-499 957,-499 957,-399 957,-326.9781 923.9195,-305.4185 863,-267 816.6967,-237.7991 668.4119,-219.4197 578.1676,-210.6415"/>
<polygon fill="#191970" stroke="#191970" points="512.8897,-690.7453 503.2247,-695.0857 513.4868,-697.7198 512.8897,-690.7453"/>
</g>
<!-- Node12 -->
<g id="node7" class="node">
<title>Node12</title>
<g id="a_node7"><a xlink:href="from__json_8hpp.html" target="_top" xlink:title="/home/bdn_jz/bdn_jz\l/camera&#45;tracker&#45;cpp\l/CameraTrackerLinux/include\l/nlohmann/detail/conversions\l/from_json.hpp">
<polygon fill="#ffffff" stroke="#000000" points="28,-367.5 28,-430.5 172,-430.5 172,-367.5 28,-367.5"/>
<text text-anchor="start" x="36" y="-418.5" font-family="Helvetica,sans-Serif" font-size="10.00" fill="#000000">/home/bdn_jz/bdn_jz</text>
<text text-anchor="start" x="36" y="-407.5" font-family="Helvetica,sans-Serif" font-size="10.00" fill="#000000">/camera&#45;tracker&#45;cpp</text>
<text text-anchor="start" x="36" y="-396.5" font-family="Helvetica,sans-Serif" font-size="10.00" fill="#000000">/CameraTrackerLinux/include</text>
<text text-anchor="start" x="36" y="-385.5" font-family="Helvetica,sans-Serif" font-size="10.00" fill="#000000">/nlohmann/detail/conversions</text>
<text text-anchor="middle" x="100" y="-374.5" font-family="Helvetica,sans-Serif" font-size="10.00" fill="#000000">/from_json.hpp</text>
</a>
</g>
</g>
<!-- Node11&#45;&gt;Node12 -->
<g id="edge7" class="edge">
<title>Node11&#45;&gt;Node12</title>
<path fill="none" stroke="#191970" d="M349.6333,-665.9402C330.1213,-656.1572 310.0239,-644.4145 293,-631 217.8974,-571.8205 151.7896,-479.1126 120.02,-430.7562"/>
<polygon fill="#191970" stroke="#191970" points="348.3235,-669.1956 358.8451,-670.4396 351.3957,-662.9058 348.3235,-669.1956"/>
</g>
<!-- Node14 -->
<g id="node9" class="node">
<title>Node14</title>
<g id="a_node9"><a xlink:href="to__json_8hpp.html" target="_top" xlink:title="/home/bdn_jz/bdn_jz\l/camera&#45;tracker&#45;cpp\l/CameraTrackerLinux/include\l/nlohmann/detail/conversions\l/to_json.hpp">
<polygon fill="#ffffff" stroke="#000000" points="190,-367.5 190,-430.5 334,-430.5 334,-367.5 190,-367.5"/>
<text text-anchor="start" x="198" y="-418.5" font-family="Helvetica,sans-Serif" font-size="10.00" fill="#000000">/home/bdn_jz/bdn_jz</text>
<text text-anchor="start" x="198" y="-407.5" font-family="Helvetica,sans-Serif" font-size="10.00" fill="#000000">/camera&#45;tracker&#45;cpp</text>
<text text-anchor="start" x="198" y="-396.5" font-family="Helvetica,sans-Serif" font-size="10.00" fill="#000000">/CameraTrackerLinux/include</text>
<text text-anchor="start" x="198" y="-385.5" font-family="Helvetica,sans-Serif" font-size="10.00" fill="#000000">/nlohmann/detail/conversions</text>
<text text-anchor="middle" x="262" y="-374.5" font-family="Helvetica,sans-Serif" font-size="10.00" fill="#000000">/to_json.hpp</text>
</a>
</g>
</g>
<!-- Node11&#45;&gt;Node14 -->
<g id="edge11" class="edge">
<title>Node11&#45;&gt;Node14</title>
<path fill="none" stroke="#191970" d="M381.1434,-660.74C345.024,-629.9468 298.5585,-583.2937 275,-531 260.5758,-498.9821 258.7235,-458.2687 259.5834,-430.5816"/>
<polygon fill="#191970" stroke="#191970" points="379.2349,-663.7073 389.1467,-667.4501 383.7324,-658.3431 379.2349,-663.7073"/>
</g>
<!-- Node15 -->
<g id="node10" class="node">
<title>Node15</title>
<g id="a_node10"><a xlink:href="iter__impl_8hpp.html" target="_top" xlink:title="/home/bdn_jz/bdn_jz\l/camera&#45;tracker&#45;cpp\l/CameraTrackerLinux/include\l/nlohmann/detail/iterators\l/iter_impl.hpp">
<polygon fill="#ffffff" stroke="#000000" points="384,-267.5 384,-330.5 528,-330.5 528,-267.5 384,-267.5"/>
<text text-anchor="start" x="392" y="-318.5" font-family="Helvetica,sans-Serif" font-size="10.00" fill="#000000">/home/bdn_jz/bdn_jz</text>
<text text-anchor="start" x="392" y="-307.5" font-family="Helvetica,sans-Serif" font-size="10.00" fill="#000000">/camera&#45;tracker&#45;cpp</text>
<text text-anchor="start" x="392" y="-296.5" font-family="Helvetica,sans-Serif" font-size="10.00" fill="#000000">/CameraTrackerLinux/include</text>
<text text-anchor="start" x="392" y="-285.5" font-family="Helvetica,sans-Serif" font-size="10.00" fill="#000000">/nlohmann/detail/iterators</text>
<text text-anchor="middle" x="456" y="-274.5" font-family="Helvetica,sans-Serif" font-size="10.00" fill="#000000">/iter_impl.hpp</text>
</a>
</g>
</g>
<!-- Node11&#45;&gt;Node15 -->
<g id="edge14" class="edge">
<title>Node11&#45;&gt;Node15</title>
<path fill="none" stroke="#191970" d="M433.6232,-657.0286C438.6507,-576.5887 449.5407,-402.3492 454.0172,-330.7249"/>
<polygon fill="#191970" stroke="#191970" points="430.1133,-657.0794 432.9826,-667.2783 437.0997,-657.5162 430.1133,-657.0794"/>
</g>
<!-- Node16 -->
<g id="node11" class="node">
<title>Node16</title>
<g id="a_node11"><a xlink:href="iteration__proxy_8hpp.html" target="_top" xlink:title="/home/bdn_jz/bdn_jz\l/camera&#45;tracker&#45;cpp\l/CameraTrackerLinux/include\l/nlohmann/detail/iterators\l/iteration_proxy.hpp">
<polygon fill="#ffffff" stroke="#000000" points="284,-467.5 284,-530.5 428,-530.5 428,-467.5 284,-467.5"/>
<text text-anchor="start" x="292" y="-518.5" font-family="Helvetica,sans-Serif" font-size="10.00" fill="#000000">/home/bdn_jz/bdn_jz</text>
<text text-anchor="start" x="292" y="-507.5" font-family="Helvetica,sans-Serif" font-size="10.00" fill="#000000">/camera&#45;tracker&#45;cpp</text>
<text text-anchor="start" x="292" y="-496.5" font-family="Helvetica,sans-Serif" font-size="10.00" fill="#000000">/CameraTrackerLinux/include</text>
<text text-anchor="start" x="292" y="-485.5" font-family="Helvetica,sans-Serif" font-size="10.00" fill="#000000">/nlohmann/detail/iterators</text>
<text text-anchor="middle" x="356" y="-474.5" font-family="Helvetica,sans-Serif" font-size="10.00" fill="#000000">/iteration_proxy.hpp</text>
</a>
</g>
</g>
<!-- Node11&#45;&gt;Node16 -->
<g id="edge16" class="edge">
<title>Node11&#45;&gt;Node16</title>
<path fill="none" stroke="#191970" d="M415.4848,-657.6261C401.3241,-619.8642 380.6976,-564.8604 367.8284,-530.5423"/>
<polygon fill="#191970" stroke="#191970" points="412.3276,-659.1751 419.116,-667.3094 418.8819,-656.7172 412.3276,-659.1751"/>
</g>
<!-- Node17 -->
<g id="node12" class="node">
<title>Node17</title>
<g id="a_node12"><a xlink:href="json__ref_8hpp.html" target="_top" xlink:title="/home/bdn_jz/bdn_jz\l/camera&#45;tracker&#45;cpp\l/CameraTrackerLinux/include\l/nlohmann/detail/json_ref.hpp">
<polygon fill="#ffffff" stroke="#000000" points="484,-573 484,-625 628,-625 628,-573 484,-573"/>
<text text-anchor="start" x="492" y="-613" font-family="Helvetica,sans-Serif" font-size="10.00" fill="#000000">/home/bdn_jz/bdn_jz</text>
<text text-anchor="start" x="492" y="-602" font-family="Helvetica,sans-Serif" font-size="10.00" fill="#000000">/camera&#45;tracker&#45;cpp</text>
<text text-anchor="start" x="492" y="-591" font-family="Helvetica,sans-Serif" font-size="10.00" fill="#000000">/CameraTrackerLinux/include</text>
<text text-anchor="middle" x="556" y="-580" font-family="Helvetica,sans-Serif" font-size="10.00" fill="#000000">/nlohmann/detail/json_ref.hpp</text>
</a>
</g>
</g>
<!-- Node11&#45;&gt;Node17 -->
<g id="edge19" class="edge">
<title>Node11&#45;&gt;Node17</title>
<path fill="none" stroke="#191970" d="M478.7002,-660.8399C493.6326,-648.8939 509.7609,-635.9913 523.4025,-625.078"/>
<polygon fill="#191970" stroke="#191970" points="476.173,-658.3793 470.5508,-667.3594 480.5459,-663.8454 476.173,-658.3793"/>
</g>
<!-- Node18 -->
<g id="node13" class="node">
<title>Node18</title>
<g id="a_node13"><a xlink:href="is__sax_8hpp.html" target="_top" xlink:title="/home/bdn_jz/bdn_jz\l/camera&#45;tracker&#45;cpp\l/CameraTrackerLinux/include\l/nlohmann/detail/meta/is\l_sax.hpp">
<polygon fill="#ffffff" stroke="#000000" points="646,-567.5 646,-630.5 790,-630.5 790,-567.5 646,-567.5"/>
<text text-anchor="start" x="654" y="-618.5" font-family="Helvetica,sans-Serif" font-size="10.00" fill="#000000">/home/bdn_jz/bdn_jz</text>
<text text-anchor="start" x="654" y="-607.5" font-family="Helvetica,sans-Serif" font-size="10.00" fill="#000000">/camera&#45;tracker&#45;cpp</text>
<text text-anchor="start" x="654" y="-596.5" font-family="Helvetica,sans-Serif" font-size="10.00" fill="#000000">/CameraTrackerLinux/include</text>
<text text-anchor="start" x="654" y="-585.5" font-family="Helvetica,sans-Serif" font-size="10.00" fill="#000000">/nlohmann/detail/meta/is</text>
<text text-anchor="middle" x="718" y="-574.5" font-family="Helvetica,sans-Serif" font-size="10.00" fill="#000000">_sax.hpp</text>
</a>
</g>
</g>
<!-- Node11&#45;&gt;Node18 -->
<g id="edge21" class="edge">
<title>Node11&#45;&gt;Node18</title>
<path fill="none" stroke="#191970" d="M513.2848,-673.0339C551.1385,-660.7829 596.5305,-645.6597 637,-631 639.8432,-629.9701 642.7366,-628.9057 645.6549,-627.8187"/>
<polygon fill="#191970" stroke="#191970" points="511.7684,-669.8455 503.3262,-676.2471 513.9179,-676.5073 511.7684,-669.8455"/>
</g>
<!-- Node12&#45;&gt;Node7 -->
<g id="edge8" class="edge">
<title>Node12&#45;&gt;Node7</title>
<path fill="none" stroke="#191970" d="M100.5172,-357.3758C103.2117,-327.8691 111.8351,-289.6407 137,-267 179.6273,-228.6485 338.8781,-213.471 433.6768,-207.743"/>
<polygon fill="#191970" stroke="#191970" points="97.0221,-357.1833 99.794,-367.4091 104.004,-357.6866 97.0221,-357.1833"/>
</g>
<!-- Node13 -->
<g id="node8" class="node">
<title>Node13</title>
<g id="a_node8"><a xlink:href="adl__serializer_8hpp.html" target="_top" xlink:title="/home/bdn_jz/bdn_jz\l/camera&#45;tracker&#45;cpp\l/CameraTrackerLinux/include\l/nlohmann/adl_serializer.hpp">
<polygon fill="#ffffff" stroke="#000000" points="146,-273 146,-325 290,-325 290,-273 146,-273"/>
<text text-anchor="start" x="154" y="-313" font-family="Helvetica,sans-Serif" font-size="10.00" fill="#000000">/home/bdn_jz/bdn_jz</text>
<text text-anchor="start" x="154" y="-302" font-family="Helvetica,sans-Serif" font-size="10.00" fill="#000000">/camera&#45;tracker&#45;cpp</text>
<text text-anchor="start" x="154" y="-291" font-family="Helvetica,sans-Serif" font-size="10.00" fill="#000000">/CameraTrackerLinux/include</text>
<text text-anchor="middle" x="218" y="-280" font-family="Helvetica,sans-Serif" font-size="10.00" fill="#000000">/nlohmann/adl_serializer.hpp</text>
</a>
</g>
</g>
<!-- Node12&#45;&gt;Node13 -->
<g id="edge9" class="edge">
<title>Node12&#45;&gt;Node13</title>
<path fill="none" stroke="#191970" d="M145.0289,-360.8399C159.1252,-348.8939 174.3503,-335.9913 187.228,-325.078"/>
<polygon fill="#191970" stroke="#191970" points="142.7021,-358.224 137.3359,-367.3594 147.2278,-363.5643 142.7021,-358.224"/>
</g>
<!-- Node13&#45;&gt;Node7 -->
<g id="edge10" class="edge">
<title>Node13&#45;&gt;Node7</title>
<path fill="none" stroke="#191970" d="M296.3176,-269.6489C298.9056,-268.7461 301.4716,-267.8608 304,-267 346.7437,-252.4479 395.0451,-237.4513 433.6963,-225.7967"/>
<polygon fill="#191970" stroke="#191970" points="295.1428,-266.3519 286.8794,-272.9828 297.4742,-272.9523 295.1428,-266.3519"/>
</g>
<!-- Node14&#45;&gt;Node7 -->
<g id="edge12" class="edge">
<title>Node14&#45;&gt;Node7</title>
<path fill="none" stroke="#191970" d="M284.7622,-358.5105C305.432,-322.25 333.8889,-273.7631 342,-267 368.3273,-245.0481 403.1869,-230.3199 433.9954,-220.7058"/>
<polygon fill="#191970" stroke="#191970" points="281.5896,-357.0095 279.692,-367.4331 287.6756,-360.4679 281.5896,-357.0095"/>
</g>
<!-- Node14&#45;&gt;Node13 -->
<g id="edge13" class="edge">
<title>Node14&#45;&gt;Node13</title>
<path fill="none" stroke="#191970" d="M244.0351,-358.1707C239.1171,-346.9933 233.9205,-335.1829 229.4743,-325.078"/>
<polygon fill="#191970" stroke="#191970" points="240.8471,-359.6158 248.0781,-367.3594 247.2543,-356.7966 240.8471,-359.6158"/>
</g>
<!-- Node15&#45;&gt;Node7 -->
<g id="edge15" class="edge">
<title>Node15&#45;&gt;Node7</title>
<path fill="none" stroke="#191970" d="M477.4756,-258.4112C482.4527,-249.0043 487.6201,-239.238 492.1671,-230.6442"/>
<polygon fill="#191970" stroke="#191970" points="474.3715,-256.7941 472.7884,-267.27 480.5588,-260.0678 474.3715,-256.7941"/>
</g>
<!-- Node16&#45;&gt;Node7 -->
<g id="edge17" class="edge">
<title>Node16&#45;&gt;Node7</title>
<path fill="none" stroke="#191970" d="M354.5644,-457.4339C353.3508,-399.1456 354.3863,-296.8946 375,-267 389.0186,-246.6698 411.5017,-232.7458 433.9142,-223.3026"/>
<polygon fill="#191970" stroke="#191970" points="351.0653,-457.519 354.8035,-467.4324 358.0633,-457.3516 351.0653,-457.519"/>
</g>
<!-- Node16&#45;&gt;Node14 -->
<g id="edge18" class="edge">
<title>Node16&#45;&gt;Node14</title>
<path fill="none" stroke="#191970" d="M319.1469,-459.7946C310.1057,-450.1763 300.5384,-439.9983 291.8713,-430.778"/>
<polygon fill="#191970" stroke="#191970" points="316.8585,-462.4703 326.2578,-467.3594 321.9589,-457.6759 316.8585,-462.4703"/>
</g>
<!-- Node17&#45;&gt;Node7 -->
<g id="edge20" class="edge">
<title>Node17&#45;&gt;Node7</title>
<path fill="none" stroke="#191970" d="M558.6155,-562.5614C562.0276,-500.6469 564.6553,-371.4615 537,-267 533.6832,-254.4717 527.7234,-241.4976 521.9095,-230.6391"/>
<polygon fill="#191970" stroke="#191970" points="555.1176,-562.4244 558.0211,-572.6136 562.1054,-562.8377 555.1176,-562.4244"/>
</g>
<!-- Node19 -->
<g id="node14" class="node">
<title>Node19</title>
<g id="a_node14"><a xlink:href="binary__reader_8hpp.html" target="_top" xlink:title="/home/bdn_jz/bdn_jz\l/camera&#45;tracker&#45;cpp\l/CameraTrackerLinux/include\l/nlohmann/detail/input/binary\l_reader.hpp">
<polygon fill="#ffffff" stroke="#000000" points="605,-467.5 605,-530.5 749,-530.5 749,-467.5 605,-467.5"/>
<text text-anchor="start" x="613" y="-518.5" font-family="Helvetica,sans-Serif" font-size="10.00" fill="#000000">/home/bdn_jz/bdn_jz</text>
<text text-anchor="start" x="613" y="-507.5" font-family="Helvetica,sans-Serif" font-size="10.00" fill="#000000">/camera&#45;tracker&#45;cpp</text>
<text text-anchor="start" x="613" y="-496.5" font-family="Helvetica,sans-Serif" font-size="10.00" fill="#000000">/CameraTrackerLinux/include</text>
<text text-anchor="start" x="613" y="-485.5" font-family="Helvetica,sans-Serif" font-size="10.00" fill="#000000">/nlohmann/detail/input/binary</text>
<text text-anchor="middle" x="677" y="-474.5" font-family="Helvetica,sans-Serif" font-size="10.00" fill="#000000">_reader.hpp</text>
</a>
</g>
</g>
<!-- Node18&#45;&gt;Node19 -->
<g id="edge22" class="edge">
<title>Node18&#45;&gt;Node19</title>
<path fill="none" stroke="#191970" d="M701.2207,-558.0748C697.4879,-548.9704 693.5847,-539.4505 690.029,-530.778"/>
<polygon fill="#191970" stroke="#191970" points="697.9954,-559.4346 705.0273,-567.3594 704.4721,-556.7791 697.9954,-559.4346"/>
</g>
<!-- Node22 -->
<g id="node17" class="node">
<title>Node22</title>
<g id="a_node17"><a xlink:href="parser_8hpp.html" target="_top" xlink:title="/home/bdn_jz/bdn_jz\l/camera&#45;tracker&#45;cpp\l/CameraTrackerLinux/include\l/nlohmann/detail/input/parser.hpp">
<polygon fill="#ffffff" stroke="#000000" points="767.5,-473 767.5,-525 928.5,-525 928.5,-473 767.5,-473"/>
<text text-anchor="start" x="775.5" y="-513" font-family="Helvetica,sans-Serif" font-size="10.00" fill="#000000">/home/bdn_jz/bdn_jz</text>
<text text-anchor="start" x="775.5" y="-502" font-family="Helvetica,sans-Serif" font-size="10.00" fill="#000000">/camera&#45;tracker&#45;cpp</text>
<text text-anchor="start" x="775.5" y="-491" font-family="Helvetica,sans-Serif" font-size="10.00" fill="#000000">/CameraTrackerLinux/include</text>
<text text-anchor="middle" x="848" y="-480" font-family="Helvetica,sans-Serif" font-size="10.00" fill="#000000">/nlohmann/detail/input/parser.hpp</text>
</a>
</g>
</g>
<!-- Node18&#45;&gt;Node22 -->
<g id="edge28" class="edge">
<title>Node18&#45;&gt;Node22</title>
<path fill="none" stroke="#191970" d="M767.1771,-561.1715C782.827,-549.133 799.78,-536.0923 814.0986,-525.078"/>
<polygon fill="#191970" stroke="#191970" points="764.9251,-558.488 759.1328,-567.3594 769.1931,-564.0364 764.9251,-558.488"/>
</g>
<!-- Node19&#45;&gt;Node7 -->
<g id="edge23" class="edge">
<title>Node19&#45;&gt;Node7</title>
<path fill="none" stroke="#191970" d="M729.4244,-460.9728C739.9787,-451.8821 750.4438,-441.6887 759,-431 806.7019,-371.409 858.2349,-326.1605 810,-267 781.3143,-231.8167 658.6883,-215.872 578.2131,-209.0825"/>
<polygon fill="#191970" stroke="#191970" points="727.1771,-458.2896 721.7495,-467.3886 731.6666,-463.6603 727.1771,-458.2896"/>
</g>
<!-- Node20 -->
<g id="node15" class="node">
<title>Node20</title>
<g id="a_node15"><a xlink:href="binary__writer_8hpp.html" target="_top" xlink:title="/home/bdn_jz/bdn_jz\l/camera&#45;tracker&#45;cpp\l/CameraTrackerLinux/include\l/nlohmann/detail/output/binary\l_writer.hpp">
<polygon fill="#ffffff" stroke="#000000" points="603.5,-367.5 603.5,-430.5 750.5,-430.5 750.5,-367.5 603.5,-367.5"/>
<text text-anchor="start" x="611.5" y="-418.5" font-family="Helvetica,sans-Serif" font-size="10.00" fill="#000000">/home/bdn_jz/bdn_jz</text>
<text text-anchor="start" x="611.5" y="-407.5" font-family="Helvetica,sans-Serif" font-size="10.00" fill="#000000">/camera&#45;tracker&#45;cpp</text>
<text text-anchor="start" x="611.5" y="-396.5" font-family="Helvetica,sans-Serif" font-size="10.00" fill="#000000">/CameraTrackerLinux/include</text>
<text text-anchor="start" x="611.5" y="-385.5" font-family="Helvetica,sans-Serif" font-size="10.00" fill="#000000">/nlohmann/detail/output/binary</text>
<text text-anchor="middle" x="677" y="-374.5" font-family="Helvetica,sans-Serif" font-size="10.00" fill="#000000">_writer.hpp</text>
</a>
</g>
</g>
<!-- Node19&#45;&gt;Node20 -->
<g id="edge24" class="edge">
<title>Node19&#45;&gt;Node20</title>
<path fill="none" stroke="#191970" d="M677,-457.2111C677,-448.37 677,-439.1767 677,-430.778"/>
<polygon fill="#191970" stroke="#191970" points="673.5001,-457.3593 677,-467.3594 680.5001,-457.3594 673.5001,-457.3593"/>
</g>
<!-- Node20&#45;&gt;Node7 -->
<g id="edge25" class="edge">
<title>Node20&#45;&gt;Node7</title>
<path fill="none" stroke="#191970" d="M638.1579,-359.91C629.5754,-350.6846 620.7404,-340.7031 613,-331 591.6299,-304.2112 591.9299,-293.3325 570,-267 559.465,-254.3501 546.6817,-241.4604 535.3181,-230.6983"/>
<polygon fill="#191970" stroke="#191970" points="635.8705,-362.5859 645.2782,-367.4588 640.9627,-357.7827 635.8705,-362.5859"/>
</g>
<!-- Node21 -->
<g id="node16" class="node">
<title>Node21</title>
<g id="a_node16"><a xlink:href="serializer_8hpp.html" target="_top" xlink:title="/home/bdn_jz/bdn_jz\l/camera&#45;tracker&#45;cpp\l/CameraTrackerLinux/include\l/nlohmann/detail/output/serializer.hpp">
<polygon fill="#ffffff" stroke="#000000" points="622.5,-273 622.5,-325 801.5,-325 801.5,-273 622.5,-273"/>
<text text-anchor="start" x="630.5" y="-313" font-family="Helvetica,sans-Serif" font-size="10.00" fill="#000000">/home/bdn_jz/bdn_jz</text>
<text text-anchor="start" x="630.5" y="-302" font-family="Helvetica,sans-Serif" font-size="10.00" fill="#000000">/camera&#45;tracker&#45;cpp</text>
<text text-anchor="start" x="630.5" y="-291" font-family="Helvetica,sans-Serif" font-size="10.00" fill="#000000">/CameraTrackerLinux/include</text>
<text text-anchor="middle" x="712" y="-280" font-family="Helvetica,sans-Serif" font-size="10.00" fill="#000000">/nlohmann/detail/output/serializer.hpp</text>
</a>
</g>
</g>
<!-- Node20&#45;&gt;Node21 -->
<g id="edge26" class="edge">
<title>Node20&#45;&gt;Node21</title>
<path fill="none" stroke="#191970" d="M691.4077,-357.8352C695.2849,-346.7573 699.3714,-335.0819 702.8727,-325.078"/>
<polygon fill="#191970" stroke="#191970" points="688.0743,-356.7645 688.0742,-367.3594 694.6813,-359.077 688.0743,-356.7645"/>
</g>
<!-- Node21&#45;&gt;Node7 -->
<g id="edge27" class="edge">
<title>Node21&#45;&gt;Node7</title>
<path fill="none" stroke="#191970" d="M645.896,-268.6756C619.2041,-256.431 588.7029,-242.439 563.0075,-230.6515"/>
<polygon fill="#191970" stroke="#191970" points="644.6156,-271.9389 655.1643,-272.9273 647.5344,-265.5764 644.6156,-271.9389"/>
</g>
<!-- Node22&#45;&gt;Node7 -->
<g id="edge29" class="edge">
<title>Node22&#45;&gt;Node7</title>
<path fill="none" stroke="#191970" d="M857.9694,-463.1171C869.5822,-412.734 881.6189,-321.1414 834,-267 801.0755,-229.5656 664.3288,-214.2202 578.1337,-208.1802"/>
<polygon fill="#191970" stroke="#191970" points="854.548,-462.3748 855.5949,-472.9178 861.3512,-464.0231 854.548,-462.3748"/>
</g>
</g>
</svg>
