<?xml version="1.0" encoding="UTF-8" standalone="no"?>
<!DOCTYPE svg PUBLIC "-//W3C//DTD SVG 1.1//EN"
 "http://www.w3.org/Graphics/SVG/1.1/DTD/svg11.dtd">
<!-- Generated by graphviz version 2.40.1 (20161225.0304)
 -->
<!-- Title: /home/bdn_jz/bdn_jz/camera&#45;tracker&#45;cpp/CameraTrackerLinux/include/nlohmann/json_fwd.hpp Pages: 1 -->
<!--zoomable 917 -->
<svg id="main" version="1.1" xmlns="http://www.w3.org/2000/svg" xmlns:xlink="http://www.w3.org/1999/xlink" xml:space="preserve" onload="init(evt)">
<style type="text/css"><![CDATA[
.edge:hover path { stroke: red; }
.edge:hover polygon { stroke: red; fill: red; }
]]></style>
<script type="text/javascript"><![CDATA[
var edges = document.getElementsByTagName('g');
if (edges && edges.length) {
  for (var i=0;i<edges.length;i++) {
    if (edges[i].id.substr(0,4)=='edge') {
      edges[i].setAttribute('class','edge');
    }
  }
}
]]></script>
        <defs>
                <circle id="rim" cx="0" cy="0" r="7"/>
                <circle id="rim2" cx="0" cy="0" r="3.5"/>
                <g id="zoomPlus">
                        <use xlink:href="#rim" target="_top" fill="#404040">
                                <set attributeName="fill" to="#808080" begin="zoomplus.mouseover" end="zoomplus.mouseout"/>
                        </use>
                        <path d="M-4,0h8M0,-4v8" fill="none" stroke="white" stroke-width="1.5" pointer-events="none"/>
                </g>
                <g id="zoomMin">
                        <use xlink:href="#rim" target="_top" fill="#404040">
                                <set attributeName="fill" to="#808080" begin="zoomminus.mouseover" end="zoomminus.mouseout"/>
                        </use>
                        <path d="M-4,0h8" fill="none" stroke="white" stroke-width="1.5" pointer-events="none"/>
                </g>
                <g id="dirArrow">
                        <path fill="none" stroke="white" stroke-width="1.5" d="M0,-3.0v7 M-2.5,-0.5L0,-3.0L2.5,-0.5"/>
                </g>
               <g id="resetDef">
                       <use xlink:href="#rim2" target="_top" fill="#404040">
                               <set attributeName="fill" to="#808080" begin="reset.mouseover" end="reset.mouseout"/>
                       </use>
               </g>
        </defs>

<script type="text/javascript">
var viewWidth = 965;
var viewHeight = 917;
var sectionId = 'dynsection-1';
</script>
<script xlink:href="svgpan.js" target="_top"/>
<svg id="graph" class="graph">
<g id="viewport">
<title>/home/bdn_jz/bdn_jz/camera&#45;tracker&#45;cpp/CameraTrackerLinux/include/nlohmann/json_fwd.hpp</title>
<polygon fill="#ffffff" stroke="transparent" points="-4,4 -4,-913 961,-913 961,4 -4,4"/>
<!-- Node6 -->
<g id="node1" class="node">
<title>Node6</title>
<polygon fill="#bfbfbf" stroke="#000000" points="97,-856.5 97,-908.5 241,-908.5 241,-856.5 97,-856.5"/>
<text text-anchor="start" x="105" y="-896.5" font-family="Helvetica,sans-Serif" font-size="10.00" fill="#000000">/home/bdn_jz/bdn_jz</text>
<text text-anchor="start" x="105" y="-885.5" font-family="Helvetica,sans-Serif" font-size="10.00" fill="#000000">/camera&#45;tracker&#45;cpp</text>
<text text-anchor="start" x="105" y="-874.5" font-family="Helvetica,sans-Serif" font-size="10.00" fill="#000000">/CameraTrackerLinux/include</text>
<text text-anchor="middle" x="169" y="-863.5" font-family="Helvetica,sans-Serif" font-size="10.00" fill="#000000">/nlohmann/json_fwd.hpp</text>
</g>
<!-- Node7 -->
<g id="node2" class="node">
<title>Node7</title>
<g id="a_node2"><a xlink:href="json_8hpp.html" target="_top" target="_top" xlink:title="/home/bdn_jz/bdn_jz\l/camera&#45;tracker&#45;cpp\l/CameraTrackerLinux/include\l/nlohmann/json.hpp">
<polygon fill="#ffffff" stroke="#000000" points="434,-267.5 434,-319.5 578,-319.5 578,-267.5 434,-267.5"/>
<text text-anchor="start" x="442" y="-307.5" font-family="Helvetica,sans-Serif" font-size="10.00" fill="#000000">/home/bdn_jz/bdn_jz</text>
<text text-anchor="start" x="442" y="-296.5" font-family="Helvetica,sans-Serif" font-size="10.00" fill="#000000">/camera&#45;tracker&#45;cpp</text>
<text text-anchor="start" x="442" y="-285.5" font-family="Helvetica,sans-Serif" font-size="10.00" fill="#000000">/CameraTrackerLinux/include</text>
<text text-anchor="middle" x="506" y="-274.5" font-family="Helvetica,sans-Serif" font-size="10.00" fill="#000000">/nlohmann/json.hpp</text>
</a>
</g>
</g>
<!-- Node6&#45;&gt;Node7 -->
<g id="edge1" class="edge">
<title>Node6&#45;&gt;Node7</title>
<path fill="none" stroke="#191970" d="M114.8627,-850.7037C65.4271,-817.1375 0,-759.2538 0,-688 0,-688 0,-688 0,-488 0,-448.8944 31.7924,-395.8036 102,-356 157.3354,-324.6281 333.2501,-306.547 433.7565,-298.5252"/>
<polygon fill="#191970" stroke="#191970" points="112.9992,-853.6675 123.2662,-856.2829 116.8711,-847.8358 112.9992,-853.6675"/>
</g>
<!-- Node13 -->
<g id="node8" class="node">
<title>Node13</title>
<g id="a_node8"><a xlink:href="type__traits_8hpp.html" target="_top" target="_top" xlink:title="/home/bdn_jz/bdn_jz\l/camera&#45;tracker&#45;cpp\l/CameraTrackerLinux/include\l/nlohmann/detail/meta/type\l_traits.hpp">
<polygon fill="#ffffff" stroke="#000000" points="359,-756.5 359,-819.5 503,-819.5 503,-756.5 359,-756.5"/>
<text text-anchor="start" x="367" y="-807.5" font-family="Helvetica,sans-Serif" font-size="10.00" fill="#000000">/home/bdn_jz/bdn_jz</text>
<text text-anchor="start" x="367" y="-796.5" font-family="Helvetica,sans-Serif" font-size="10.00" fill="#000000">/camera&#45;tracker&#45;cpp</text>
<text text-anchor="start" x="367" y="-785.5" font-family="Helvetica,sans-Serif" font-size="10.00" fill="#000000">/CameraTrackerLinux/include</text>
<text text-anchor="start" x="367" y="-774.5" font-family="Helvetica,sans-Serif" font-size="10.00" fill="#000000">/nlohmann/detail/meta/type</text>
<text text-anchor="middle" x="431" y="-763.5" font-family="Helvetica,sans-Serif" font-size="10.00" fill="#000000">_traits.hpp</text>
</a>
</g>
</g>
<!-- Node6&#45;&gt;Node13 -->
<g id="edge8" class="edge">
<title>Node6&#45;&gt;Node13</title>
<path fill="none" stroke="#191970" d="M250.8977,-852.9606C285.5126,-840.4754 325.4754,-826.0613 358.9497,-813.9876"/>
<polygon fill="#191970" stroke="#191970" points="249.5055,-849.7419 241.2862,-856.4273 251.8806,-856.3267 249.5055,-849.7419"/>
</g>
<!-- Node8 -->
<g id="node3" class="node">
<title>Node8</title>
<g id="a_node3"><a xlink:href="_json_utilization_8h.html" target="_top" target="_top" xlink:title="This file contains the declaration of the namespace jsonUtilization. ">
<polygon fill="#ffffff" stroke="#000000" points="434,-178.5 434,-230.5 578,-230.5 578,-178.5 434,-178.5"/>
<text text-anchor="start" x="442" y="-218.5" font-family="Helvetica,sans-Serif" font-size="10.00" fill="#000000">/home/bdn_jz/bdn_jz</text>
<text text-anchor="start" x="442" y="-207.5" font-family="Helvetica,sans-Serif" font-size="10.00" fill="#000000">/camera&#45;tracker&#45;cpp</text>
<text text-anchor="start" x="442" y="-196.5" font-family="Helvetica,sans-Serif" font-size="10.00" fill="#000000">/CameraTrackerLinux/include</text>
<text text-anchor="middle" x="506" y="-185.5" font-family="Helvetica,sans-Serif" font-size="10.00" fill="#000000">/JsonUtilization.h</text>
</a>
</g>
</g>
<!-- Node7&#45;&gt;Node8 -->
<g id="edge2" class="edge">
<title>Node7&#45;&gt;Node8</title>
<path fill="none" stroke="#191970" d="M506,-257.1155C506,-248.2061 506,-238.8475 506,-230.5341"/>
<polygon fill="#191970" stroke="#191970" points="502.5001,-257.2784 506,-267.2784 509.5001,-257.2785 502.5001,-257.2784"/>
</g>
<!-- Node9 -->
<g id="node4" class="node">
<title>Node9</title>
<g id="a_node4"><a xlink:href="_pose_estimation_8h.html" target="_top" target="_top" xlink:title="This file contains the declaration of the PoseEstimation class. ">
<polygon fill="#ffffff" stroke="#000000" points="434,-89.5 434,-141.5 578,-141.5 578,-89.5 434,-89.5"/>
<text text-anchor="start" x="442" y="-129.5" font-family="Helvetica,sans-Serif" font-size="10.00" fill="#000000">/home/bdn_jz/bdn_jz</text>
<text text-anchor="start" x="442" y="-118.5" font-family="Helvetica,sans-Serif" font-size="10.00" fill="#000000">/camera&#45;tracker&#45;cpp</text>
<text text-anchor="start" x="442" y="-107.5" font-family="Helvetica,sans-Serif" font-size="10.00" fill="#000000">/CameraTrackerLinux/include</text>
<text text-anchor="middle" x="506" y="-96.5" font-family="Helvetica,sans-Serif" font-size="10.00" fill="#000000">/PoseEstimation.h</text>
</a>
</g>
</g>
<!-- Node8&#45;&gt;Node9 -->
<g id="edge3" class="edge">
<title>Node8&#45;&gt;Node9</title>
<path fill="none" stroke="#191970" d="M506,-168.1155C506,-159.2061 506,-149.8475 506,-141.5341"/>
<polygon fill="#191970" stroke="#191970" points="502.5001,-168.2784 506,-178.2784 509.5001,-168.2785 502.5001,-168.2784"/>
</g>
<!-- Node10 -->
<g id="node5" class="node">
<title>Node10</title>
<g id="a_node5"><a xlink:href="main_8cpp.html" target="_top" target="_top" xlink:title="/home/bdn_jz/bdn_jz\l/camera&#45;tracker&#45;cpp\l/CameraTrackerLinux/main.cpp">
<polygon fill="#ffffff" stroke="#000000" points="329.5,-6 329.5,-47 482.5,-47 482.5,-6 329.5,-6"/>
<text text-anchor="start" x="337.5" y="-35" font-family="Helvetica,sans-Serif" font-size="10.00" fill="#000000">/home/bdn_jz/bdn_jz</text>
<text text-anchor="start" x="337.5" y="-24" font-family="Helvetica,sans-Serif" font-size="10.00" fill="#000000">/camera&#45;tracker&#45;cpp</text>
<text text-anchor="middle" x="406" y="-13" font-family="Helvetica,sans-Serif" font-size="10.00" fill="#000000">/CameraTrackerLinux/main.cpp</text>
</a>
</g>
</g>
<!-- Node8&#45;&gt;Node10 -->
<g id="edge6" class="edge">
<title>Node8&#45;&gt;Node10</title>
<path fill="none" stroke="#191970" d="M451.9869,-172.0704C441.5858,-163.5125 431.8214,-153.4232 425,-142 407.3921,-112.5138 404.7518,-71.623 404.9908,-47.2355"/>
<polygon fill="#191970" stroke="#191970" points="449.9816,-174.9445 460.0267,-178.313 454.2747,-169.4155 449.9816,-174.9445"/>
</g>
<!-- Node12 -->
<g id="node7" class="node">
<title>Node12</title>
<g id="a_node7"><a xlink:href="_json_utilization_8cpp.html" target="_top" target="_top" xlink:title="/home/bdn_jz/bdn_jz\l/camera&#45;tracker&#45;cpp\l/CameraTrackerLinux/src\l/JsonUtilization.cpp">
<polygon fill="#ffffff" stroke="#000000" points="596.5,-89.5 596.5,-141.5 723.5,-141.5 723.5,-89.5 596.5,-89.5"/>
<text text-anchor="start" x="604.5" y="-129.5" font-family="Helvetica,sans-Serif" font-size="10.00" fill="#000000">/home/bdn_jz/bdn_jz</text>
<text text-anchor="start" x="604.5" y="-118.5" font-family="Helvetica,sans-Serif" font-size="10.00" fill="#000000">/camera&#45;tracker&#45;cpp</text>
<text text-anchor="start" x="604.5" y="-107.5" font-family="Helvetica,sans-Serif" font-size="10.00" fill="#000000">/CameraTrackerLinux/src</text>
<text text-anchor="middle" x="660" y="-96.5" font-family="Helvetica,sans-Serif" font-size="10.00" fill="#000000">/JsonUtilization.cpp</text>
</a>
</g>
</g>
<!-- Node8&#45;&gt;Node12 -->
<g id="edge7" class="edge">
<title>Node8&#45;&gt;Node12</title>
<path fill="none" stroke="#191970" d="M560.5074,-172.9989C578.3274,-162.7004 597.9091,-151.3837 614.9521,-141.5341"/>
<polygon fill="#191970" stroke="#191970" points="558.279,-170.2443 551.3721,-178.2784 561.7816,-176.305 558.279,-170.2443"/>
</g>
<!-- Node9&#45;&gt;Node10 -->
<g id="edge4" class="edge">
<title>Node9&#45;&gt;Node10</title>
<path fill="none" stroke="#191970" d="M468.8953,-82.4768C455.6068,-70.6501 441.014,-57.6625 429.2327,-47.1771"/>
<polygon fill="#191970" stroke="#191970" points="466.7407,-85.2446 476.5376,-89.2784 471.3945,-80.0156 466.7407,-85.2446"/>
</g>
<!-- Node11 -->
<g id="node6" class="node">
<title>Node11</title>
<g id="a_node6"><a xlink:href="_pose_estimation_8cpp.html" target="_top" target="_top" xlink:title="/home/bdn_jz/bdn_jz\l/camera&#45;tracker&#45;cpp\l/CameraTrackerLinux/src\l/PoseEstimation.cpp">
<polygon fill="#ffffff" stroke="#000000" points="500.5,-.5 500.5,-52.5 627.5,-52.5 627.5,-.5 500.5,-.5"/>
<text text-anchor="start" x="508.5" y="-40.5" font-family="Helvetica,sans-Serif" font-size="10.00" fill="#000000">/home/bdn_jz/bdn_jz</text>
<text text-anchor="start" x="508.5" y="-29.5" font-family="Helvetica,sans-Serif" font-size="10.00" fill="#000000">/camera&#45;tracker&#45;cpp</text>
<text text-anchor="start" x="508.5" y="-18.5" font-family="Helvetica,sans-Serif" font-size="10.00" fill="#000000">/CameraTrackerLinux/src</text>
<text text-anchor="middle" x="564" y="-7.5" font-family="Helvetica,sans-Serif" font-size="10.00" fill="#000000">/PoseEstimation.cpp</text>
</a>
</g>
</g>
<!-- Node9&#45;&gt;Node11 -->
<g id="edge5" class="edge">
<title>Node9&#45;&gt;Node11</title>
<path fill="none" stroke="#191970" d="M528.5793,-80.8525C534.719,-71.4313 541.2629,-61.3897 547.0339,-52.5341"/>
<polygon fill="#191970" stroke="#191970" points="525.6158,-78.9895 523.0882,-89.2784 531.4804,-82.8114 525.6158,-78.9895"/>
</g>
<!-- Node13&#45;&gt;Node7 -->
<g id="edge9" class="edge">
<title>Node13&#45;&gt;Node7</title>
<path fill="none" stroke="#191970" d="M513.3019,-783.2229C589.9298,-776.3914 705.9864,-759.8634 799,-720 883.1051,-683.9545 957,-679.5038 957,-588 957,-588 957,-588 957,-488 957,-415.9781 923.9195,-394.4185 863,-356 816.6967,-326.7991 668.4119,-308.4197 578.1676,-299.6415"/>
<polygon fill="#191970" stroke="#191970" points="512.8897,-779.7453 503.2247,-784.0857 513.4868,-786.7198 512.8897,-779.7453"/>
</g>
<!-- Node14 -->
<g id="node9" class="node">
<title>Node14</title>
<g id="a_node9"><a xlink:href="from__json_8hpp.html" target="_top" target="_top" xlink:title="/home/bdn_jz/bdn_jz\l/camera&#45;tracker&#45;cpp\l/CameraTrackerLinux/include\l/nlohmann/detail/conversions\l/from_json.hpp">
<polygon fill="#ffffff" stroke="#000000" points="28,-456.5 28,-519.5 172,-519.5 172,-456.5 28,-456.5"/>
<text text-anchor="start" x="36" y="-507.5" font-family="Helvetica,sans-Serif" font-size="10.00" fill="#000000">/home/bdn_jz/bdn_jz</text>
<text text-anchor="start" x="36" y="-496.5" font-family="Helvetica,sans-Serif" font-size="10.00" fill="#000000">/camera&#45;tracker&#45;cpp</text>
<text text-anchor="start" x="36" y="-485.5" font-family="Helvetica,sans-Serif" font-size="10.00" fill="#000000">/CameraTrackerLinux/include</text>
<text text-anchor="start" x="36" y="-474.5" font-family="Helvetica,sans-Serif" font-size="10.00" fill="#000000">/nlohmann/detail/conversions</text>
<text text-anchor="middle" x="100" y="-463.5" font-family="Helvetica,sans-Serif" font-size="10.00" fill="#000000">/from_json.hpp</text>
</a>
</g>
</g>
<!-- Node13&#45;&gt;Node14 -->
<g id="edge10" class="edge">
<title>Node13&#45;&gt;Node14</title>
<path fill="none" stroke="#191970" d="M349.6333,-754.9402C330.1213,-745.1572 310.0239,-733.4145 293,-720 217.8974,-660.8205 151.7896,-568.1126 120.02,-519.7562"/>
<polygon fill="#191970" stroke="#191970" points="348.3235,-758.1956 358.8451,-759.4396 351.3957,-751.9058 348.3235,-758.1956"/>
</g>
<!-- Node16 -->
<g id="node11" class="node">
<title>Node16</title>
<g id="a_node11"><a xlink:href="to__json_8hpp.html" target="_top" target="_top" xlink:title="/home/bdn_jz/bdn_jz\l/camera&#45;tracker&#45;cpp\l/CameraTrackerLinux/include\l/nlohmann/detail/conversions\l/to_json.hpp">
<polygon fill="#ffffff" stroke="#000000" points="190,-456.5 190,-519.5 334,-519.5 334,-456.5 190,-456.5"/>
<text text-anchor="start" x="198" y="-507.5" font-family="Helvetica,sans-Serif" font-size="10.00" fill="#000000">/home/bdn_jz/bdn_jz</text>
<text text-anchor="start" x="198" y="-496.5" font-family="Helvetica,sans-Serif" font-size="10.00" fill="#000000">/camera&#45;tracker&#45;cpp</text>
<text text-anchor="start" x="198" y="-485.5" font-family="Helvetica,sans-Serif" font-size="10.00" fill="#000000">/CameraTrackerLinux/include</text>
<text text-anchor="start" x="198" y="-474.5" font-family="Helvetica,sans-Serif" font-size="10.00" fill="#000000">/nlohmann/detail/conversions</text>
<text text-anchor="middle" x="262" y="-463.5" font-family="Helvetica,sans-Serif" font-size="10.00" fill="#000000">/to_json.hpp</text>
</a>
</g>
</g>
<!-- Node13&#45;&gt;Node16 -->
<g id="edge14" class="edge">
<title>Node13&#45;&gt;Node16</title>
<path fill="none" stroke="#191970" d="M381.1434,-749.74C345.024,-718.9468 298.5585,-672.2937 275,-620 260.5758,-587.9821 258.7235,-547.2687 259.5834,-519.5816"/>
<polygon fill="#191970" stroke="#191970" points="379.2349,-752.7073 389.1467,-756.4501 383.7324,-747.3431 379.2349,-752.7073"/>
</g>
<!-- Node17 -->
<g id="node12" class="node">
<title>Node17</title>
<g id="a_node12"><a xlink:href="iter__impl_8hpp.html" target="_top" target="_top" xlink:title="/home/bdn_jz/bdn_jz\l/camera&#45;tracker&#45;cpp\l/CameraTrackerLinux/include\l/nlohmann/detail/iterators\l/iter_impl.hpp">
<polygon fill="#ffffff" stroke="#000000" points="384,-356.5 384,-419.5 528,-419.5 528,-356.5 384,-356.5"/>
<text text-anchor="start" x="392" y="-407.5" font-family="Helvetica,sans-Serif" font-size="10.00" fill="#000000">/home/bdn_jz/bdn_jz</text>
<text text-anchor="start" x="392" y="-396.5" font-family="Helvetica,sans-Serif" font-size="10.00" fill="#000000">/camera&#45;tracker&#45;cpp</text>
<text text-anchor="start" x="392" y="-385.5" font-family="Helvetica,sans-Serif" font-size="10.00" fill="#000000">/CameraTrackerLinux/include</text>
<text text-anchor="start" x="392" y="-374.5" font-family="Helvetica,sans-Serif" font-size="10.00" fill="#000000">/nlohmann/detail/iterators</text>
<text text-anchor="middle" x="456" y="-363.5" font-family="Helvetica,sans-Serif" font-size="10.00" fill="#000000">/iter_impl.hpp</text>
</a>
</g>
</g>
<!-- Node13&#45;&gt;Node17 -->
<g id="edge17" class="edge">
<title>Node13&#45;&gt;Node17</title>
<path fill="none" stroke="#191970" d="M433.6232,-746.0286C438.6507,-665.5887 449.5407,-491.3492 454.0172,-419.7249"/>
<polygon fill="#191970" stroke="#191970" points="430.1133,-746.0794 432.9826,-756.2783 437.0997,-746.5162 430.1133,-746.0794"/>
</g>
<!-- Node18 -->
<g id="node13" class="node">
<title>Node18</title>
<g id="a_node13"><a xlink:href="iteration__proxy_8hpp.html" target="_top" target="_top" xlink:title="/home/bdn_jz/bdn_jz\l/camera&#45;tracker&#45;cpp\l/CameraTrackerLinux/include\l/nlohmann/detail/iterators\l/iteration_proxy.hpp">
<polygon fill="#ffffff" stroke="#000000" points="284,-556.5 284,-619.5 428,-619.5 428,-556.5 284,-556.5"/>
<text text-anchor="start" x="292" y="-607.5" font-family="Helvetica,sans-Serif" font-size="10.00" fill="#000000">/home/bdn_jz/bdn_jz</text>
<text text-anchor="start" x="292" y="-596.5" font-family="Helvetica,sans-Serif" font-size="10.00" fill="#000000">/camera&#45;tracker&#45;cpp</text>
<text text-anchor="start" x="292" y="-585.5" font-family="Helvetica,sans-Serif" font-size="10.00" fill="#000000">/CameraTrackerLinux/include</text>
<text text-anchor="start" x="292" y="-574.5" font-family="Helvetica,sans-Serif" font-size="10.00" fill="#000000">/nlohmann/detail/iterators</text>
<text text-anchor="middle" x="356" y="-563.5" font-family="Helvetica,sans-Serif" font-size="10.00" fill="#000000">/iteration_proxy.hpp</text>
</a>
</g>
</g>
<!-- Node13&#45;&gt;Node18 -->
<g id="edge19" class="edge">
<title>Node13&#45;&gt;Node18</title>
<path fill="none" stroke="#191970" d="M415.4848,-746.6261C401.3241,-708.8642 380.6976,-653.8604 367.8284,-619.5423"/>
<polygon fill="#191970" stroke="#191970" points="412.3276,-748.1751 419.116,-756.3094 418.8819,-745.7172 412.3276,-748.1751"/>
</g>
<!-- Node19 -->
<g id="node14" class="node">
<title>Node19</title>
<g id="a_node14"><a xlink:href="json__ref_8hpp.html" target="_top" target="_top" xlink:title="/home/bdn_jz/bdn_jz\l/camera&#45;tracker&#45;cpp\l/CameraTrackerLinux/include\l/nlohmann/detail/json_ref.hpp">
<polygon fill="#ffffff" stroke="#000000" points="484,-662 484,-714 628,-714 628,-662 484,-662"/>
<text text-anchor="start" x="492" y="-702" font-family="Helvetica,sans-Serif" font-size="10.00" fill="#000000">/home/bdn_jz/bdn_jz</text>
<text text-anchor="start" x="492" y="-691" font-family="Helvetica,sans-Serif" font-size="10.00" fill="#000000">/camera&#45;tracker&#45;cpp</text>
<text text-anchor="start" x="492" y="-680" font-family="Helvetica,sans-Serif" font-size="10.00" fill="#000000">/CameraTrackerLinux/include</text>
<text text-anchor="middle" x="556" y="-669" font-family="Helvetica,sans-Serif" font-size="10.00" fill="#000000">/nlohmann/detail/json_ref.hpp</text>
</a>
</g>
</g>
<!-- Node13&#45;&gt;Node19 -->
<g id="edge22" class="edge">
<title>Node13&#45;&gt;Node19</title>
<path fill="none" stroke="#191970" d="M478.7002,-749.8399C493.6326,-737.8939 509.7609,-724.9913 523.4025,-714.078"/>
<polygon fill="#191970" stroke="#191970" points="476.173,-747.3793 470.5508,-756.3594 480.5459,-752.8454 476.173,-747.3793"/>
</g>
<!-- Node20 -->
<g id="node15" class="node">
<title>Node20</title>
<g id="a_node15"><a xlink:href="is__sax_8hpp.html" target="_top" target="_top" xlink:title="/home/bdn_jz/bdn_jz\l/camera&#45;tracker&#45;cpp\l/CameraTrackerLinux/include\l/nlohmann/detail/meta/is\l_sax.hpp">
<polygon fill="#ffffff" stroke="#000000" points="646,-656.5 646,-719.5 790,-719.5 790,-656.5 646,-656.5"/>
<text text-anchor="start" x="654" y="-707.5" font-family="Helvetica,sans-Serif" font-size="10.00" fill="#000000">/home/bdn_jz/bdn_jz</text>
<text text-anchor="start" x="654" y="-696.5" font-family="Helvetica,sans-Serif" font-size="10.00" fill="#000000">/camera&#45;tracker&#45;cpp</text>
<text text-anchor="start" x="654" y="-685.5" font-family="Helvetica,sans-Serif" font-size="10.00" fill="#000000">/CameraTrackerLinux/include</text>
<text text-anchor="start" x="654" y="-674.5" font-family="Helvetica,sans-Serif" font-size="10.00" fill="#000000">/nlohmann/detail/meta/is</text>
<text text-anchor="middle" x="718" y="-663.5" font-family="Helvetica,sans-Serif" font-size="10.00" fill="#000000">_sax.hpp</text>
</a>
</g>
</g>
<!-- Node13&#45;&gt;Node20 -->
<g id="edge24" class="edge">
<title>Node13&#45;&gt;Node20</title>
<path fill="none" stroke="#191970" d="M513.2848,-762.0339C551.1385,-749.7829 596.5305,-734.6597 637,-720 639.8432,-718.9701 642.7366,-717.9057 645.6549,-716.8187"/>
<polygon fill="#191970" stroke="#191970" points="511.7684,-758.8455 503.3262,-765.2471 513.9179,-765.5073 511.7684,-758.8455"/>
</g>
<!-- Node14&#45;&gt;Node7 -->
<g id="edge11" class="edge">
<title>Node14&#45;&gt;Node7</title>
<path fill="none" stroke="#191970" d="M100.5172,-446.3758C103.2117,-416.8691 111.8351,-378.6407 137,-356 179.6273,-317.6485 338.8781,-302.471 433.6768,-296.743"/>
<polygon fill="#191970" stroke="#191970" points="97.0221,-446.1833 99.794,-456.4091 104.004,-446.6866 97.0221,-446.1833"/>
</g>
<!-- Node15 -->
<g id="node10" class="node">
<title>Node15</title>
<g id="a_node10"><a xlink:href="adl__serializer_8hpp.html" target="_top" target="_top" xlink:title="/home/bdn_jz/bdn_jz\l/camera&#45;tracker&#45;cpp\l/CameraTrackerLinux/include\l/nlohmann/adl_serializer.hpp">
<polygon fill="#ffffff" stroke="#000000" points="146,-362 146,-414 290,-414 290,-362 146,-362"/>
<text text-anchor="start" x="154" y="-402" font-family="Helvetica,sans-Serif" font-size="10.00" fill="#000000">/home/bdn_jz/bdn_jz</text>
<text text-anchor="start" x="154" y="-391" font-family="Helvetica,sans-Serif" font-size="10.00" fill="#000000">/camera&#45;tracker&#45;cpp</text>
<text text-anchor="start" x="154" y="-380" font-family="Helvetica,sans-Serif" font-size="10.00" fill="#000000">/CameraTrackerLinux/include</text>
<text text-anchor="middle" x="218" y="-369" font-family="Helvetica,sans-Serif" font-size="10.00" fill="#000000">/nlohmann/adl_serializer.hpp</text>
</a>
</g>
</g>
<!-- Node14&#45;&gt;Node15 -->
<g id="edge12" class="edge">
<title>Node14&#45;&gt;Node15</title>
<path fill="none" stroke="#191970" d="M145.0289,-449.8399C159.1252,-437.8939 174.3503,-424.9913 187.228,-414.078"/>
<polygon fill="#191970" stroke="#191970" points="142.7021,-447.224 137.3359,-456.3594 147.2278,-452.5643 142.7021,-447.224"/>
</g>
<!-- Node15&#45;&gt;Node7 -->
<g id="edge13" class="edge">
<title>Node15&#45;&gt;Node7</title>
<path fill="none" stroke="#191970" d="M296.3176,-358.6489C298.9056,-357.7461 301.4716,-356.8608 304,-356 346.7437,-341.4479 395.0451,-326.4513 433.6963,-314.7967"/>
<polygon fill="#191970" stroke="#191970" points="295.1428,-355.3519 286.8794,-361.9828 297.4742,-361.9523 295.1428,-355.3519"/>
</g>
<!-- Node16&#45;&gt;Node7 -->
<g id="edge15" class="edge">
<title>Node16&#45;&gt;Node7</title>
<path fill="none" stroke="#191970" d="M284.7622,-447.5105C305.432,-411.25 333.8889,-362.7631 342,-356 368.3273,-334.0481 403.1869,-319.3199 433.9954,-309.7058"/>
<polygon fill="#191970" stroke="#191970" points="281.5896,-446.0095 279.692,-456.4331 287.6756,-449.4679 281.5896,-446.0095"/>
</g>
<!-- Node16&#45;&gt;Node15 -->
<g id="edge16" class="edge">
<title>Node16&#45;&gt;Node15</title>
<path fill="none" stroke="#191970" d="M244.0351,-447.1707C239.1171,-435.9933 233.9205,-424.1829 229.4743,-414.078"/>
<polygon fill="#191970" stroke="#191970" points="240.8471,-448.6158 248.0781,-456.3594 247.2543,-445.7966 240.8471,-448.6158"/>
</g>
<!-- Node17&#45;&gt;Node7 -->
<g id="edge18" class="edge">
<title>Node17&#45;&gt;Node7</title>
<path fill="none" stroke="#191970" d="M477.4756,-347.4112C482.4527,-338.0043 487.6201,-328.238 492.1671,-319.6442"/>
<polygon fill="#191970" stroke="#191970" points="474.3715,-345.7941 472.7884,-356.27 480.5588,-349.0678 474.3715,-345.7941"/>
</g>
<!-- Node18&#45;&gt;Node7 -->
<g id="edge20" class="edge">
<title>Node18&#45;&gt;Node7</title>
<path fill="none" stroke="#191970" d="M354.5644,-546.4339C353.3508,-488.1456 354.3863,-385.8946 375,-356 389.0186,-335.6698 411.5017,-321.7458 433.9142,-312.3026"/>
<polygon fill="#191970" stroke="#191970" points="351.0653,-546.519 354.8035,-556.4324 358.0633,-546.3516 351.0653,-546.519"/>
</g>
<!-- Node18&#45;&gt;Node16 -->
<g id="edge21" class="edge">
<title>Node18&#45;&gt;Node16</title>
<path fill="none" stroke="#191970" d="M319.1469,-548.7946C310.1057,-539.1763 300.5384,-528.9983 291.8713,-519.778"/>
<polygon fill="#191970" stroke="#191970" points="316.8585,-551.4703 326.2578,-556.3594 321.9589,-546.6759 316.8585,-551.4703"/>
</g>
<!-- Node19&#45;&gt;Node7 -->
<g id="edge23" class="edge">
<title>Node19&#45;&gt;Node7</title>
<path fill="none" stroke="#191970" d="M558.6155,-651.5614C562.0276,-589.6469 564.6553,-460.4615 537,-356 533.6832,-343.4717 527.7234,-330.4976 521.9095,-319.6391"/>
<polygon fill="#191970" stroke="#191970" points="555.1176,-651.4244 558.0211,-661.6136 562.1054,-651.8377 555.1176,-651.4244"/>
</g>
<!-- Node21 -->
<g id="node16" class="node">
<title>Node21</title>
<g id="a_node16"><a xlink:href="binary__reader_8hpp.html" target="_top" target="_top" xlink:title="/home/bdn_jz/bdn_jz\l/camera&#45;tracker&#45;cpp\l/CameraTrackerLinux/include\l/nlohmann/detail/input/binary\l_reader.hpp">
<polygon fill="#ffffff" stroke="#000000" points="605,-556.5 605,-619.5 749,-619.5 749,-556.5 605,-556.5"/>
<text text-anchor="start" x="613" y="-607.5" font-family="Helvetica,sans-Serif" font-size="10.00" fill="#000000">/home/bdn_jz/bdn_jz</text>
<text text-anchor="start" x="613" y="-596.5" font-family="Helvetica,sans-Serif" font-size="10.00" fill="#000000">/camera&#45;tracker&#45;cpp</text>
<text text-anchor="start" x="613" y="-585.5" font-family="Helvetica,sans-Serif" font-size="10.00" fill="#000000">/CameraTrackerLinux/include</text>
<text text-anchor="start" x="613" y="-574.5" font-family="Helvetica,sans-Serif" font-size="10.00" fill="#000000">/nlohmann/detail/input/binary</text>
<text text-anchor="middle" x="677" y="-563.5" font-family="Helvetica,sans-Serif" font-size="10.00" fill="#000000">_reader.hpp</text>
</a>
</g>
</g>
<!-- Node20&#45;&gt;Node21 -->
<g id="edge25" class="edge">
<title>Node20&#45;&gt;Node21</title>
<path fill="none" stroke="#191970" d="M701.2207,-647.0748C697.4879,-637.9704 693.5847,-628.4505 690.029,-619.778"/>
<polygon fill="#191970" stroke="#191970" points="697.9954,-648.4346 705.0273,-656.3594 704.4721,-645.7791 697.9954,-648.4346"/>
</g>
<!-- Node24 -->
<g id="node19" class="node">
<title>Node24</title>
<g id="a_node19"><a xlink:href="parser_8hpp.html" target="_top" target="_top" xlink:title="/home/bdn_jz/bdn_jz\l/camera&#45;tracker&#45;cpp\l/CameraTrackerLinux/include\l/nlohmann/detail/input/parser.hpp">
<polygon fill="#ffffff" stroke="#000000" points="767.5,-562 767.5,-614 928.5,-614 928.5,-562 767.5,-562"/>
<text text-anchor="start" x="775.5" y="-602" font-family="Helvetica,sans-Serif" font-size="10.00" fill="#000000">/home/bdn_jz/bdn_jz</text>
<text text-anchor="start" x="775.5" y="-591" font-family="Helvetica,sans-Serif" font-size="10.00" fill="#000000">/camera&#45;tracker&#45;cpp</text>
<text text-anchor="start" x="775.5" y="-580" font-family="Helvetica,sans-Serif" font-size="10.00" fill="#000000">/CameraTrackerLinux/include</text>
<text text-anchor="middle" x="848" y="-569" font-family="Helvetica,sans-Serif" font-size="10.00" fill="#000000">/nlohmann/detail/input/parser.hpp</text>
</a>
</g>
</g>
<!-- Node20&#45;&gt;Node24 -->
<g id="edge31" class="edge">
<title>Node20&#45;&gt;Node24</title>
<path fill="none" stroke="#191970" d="M767.1771,-650.1715C782.827,-638.133 799.78,-625.0923 814.0986,-614.078"/>
<polygon fill="#191970" stroke="#191970" points="764.9251,-647.488 759.1328,-656.3594 769.1931,-653.0364 764.9251,-647.488"/>
</g>
<!-- Node21&#45;&gt;Node7 -->
<g id="edge26" class="edge">
<title>Node21&#45;&gt;Node7</title>
<path fill="none" stroke="#191970" d="M729.4244,-549.9728C739.9787,-540.8821 750.4438,-530.6887 759,-520 806.7019,-460.409 858.2349,-415.1605 810,-356 781.3143,-320.8167 658.6883,-304.872 578.2131,-298.0825"/>
<polygon fill="#191970" stroke="#191970" points="727.1771,-547.2896 721.7495,-556.3886 731.6666,-552.6603 727.1771,-547.2896"/>
</g>
<!-- Node22 -->
<g id="node17" class="node">
<title>Node22</title>
<g id="a_node17"><a xlink:href="binary__writer_8hpp.html" target="_top" target="_top" xlink:title="/home/bdn_jz/bdn_jz\l/camera&#45;tracker&#45;cpp\l/CameraTrackerLinux/include\l/nlohmann/detail/output/binary\l_writer.hpp">
<polygon fill="#ffffff" stroke="#000000" points="603.5,-456.5 603.5,-519.5 750.5,-519.5 750.5,-456.5 603.5,-456.5"/>
<text text-anchor="start" x="611.5" y="-507.5" font-family="Helvetica,sans-Serif" font-size="10.00" fill="#000000">/home/bdn_jz/bdn_jz</text>
<text text-anchor="start" x="611.5" y="-496.5" font-family="Helvetica,sans-Serif" font-size="10.00" fill="#000000">/camera&#45;tracker&#45;cpp</text>
<text text-anchor="start" x="611.5" y="-485.5" font-family="Helvetica,sans-Serif" font-size="10.00" fill="#000000">/CameraTrackerLinux/include</text>
<text text-anchor="start" x="611.5" y="-474.5" font-family="Helvetica,sans-Serif" font-size="10.00" fill="#000000">/nlohmann/detail/output/binary</text>
<text text-anchor="middle" x="677" y="-463.5" font-family="Helvetica,sans-Serif" font-size="10.00" fill="#000000">_writer.hpp</text>
</a>
</g>
</g>
<!-- Node21&#45;&gt;Node22 -->
<g id="edge27" class="edge">
<title>Node21&#45;&gt;Node22</title>
<path fill="none" stroke="#191970" d="M677,-546.2111C677,-537.37 677,-528.1767 677,-519.778"/>
<polygon fill="#191970" stroke="#191970" points="673.5001,-546.3593 677,-556.3594 680.5001,-546.3594 673.5001,-546.3593"/>
</g>
<!-- Node22&#45;&gt;Node7 -->
<g id="edge28" class="edge">
<title>Node22&#45;&gt;Node7</title>
<path fill="none" stroke="#191970" d="M638.1579,-448.91C629.5754,-439.6846 620.7404,-429.7031 613,-420 591.6299,-393.2112 591.9299,-382.3325 570,-356 559.465,-343.3501 546.6817,-330.4604 535.3181,-319.6983"/>
<polygon fill="#191970" stroke="#191970" points="635.8705,-451.5859 645.2782,-456.4588 640.9627,-446.7827 635.8705,-451.5859"/>
</g>
<!-- Node23 -->
<g id="node18" class="node">
<title>Node23</title>
<g id="a_node18"><a xlink:href="serializer_8hpp.html" target="_top" target="_top" xlink:title="/home/bdn_jz/bdn_jz\l/camera&#45;tracker&#45;cpp\l/CameraTrackerLinux/include\l/nlohmann/detail/output/serializer.hpp">
<polygon fill="#ffffff" stroke="#000000" points="622.5,-362 622.5,-414 801.5,-414 801.5,-362 622.5,-362"/>
<text text-anchor="start" x="630.5" y="-402" font-family="Helvetica,sans-Serif" font-size="10.00" fill="#000000">/home/bdn_jz/bdn_jz</text>
<text text-anchor="start" x="630.5" y="-391" font-family="Helvetica,sans-Serif" font-size="10.00" fill="#000000">/camera&#45;tracker&#45;cpp</text>
<text text-anchor="start" x="630.5" y="-380" font-family="Helvetica,sans-Serif" font-size="10.00" fill="#000000">/CameraTrackerLinux/include</text>
<text text-anchor="middle" x="712" y="-369" font-family="Helvetica,sans-Serif" font-size="10.00" fill="#000000">/nlohmann/detail/output/serializer.hpp</text>
</a>
</g>
</g>
<!-- Node22&#45;&gt;Node23 -->
<g id="edge29" class="edge">
<title>Node22&#45;&gt;Node23</title>
<path fill="none" stroke="#191970" d="M691.4077,-446.8352C695.2849,-435.7573 699.3714,-424.0819 702.8727,-414.078"/>
<polygon fill="#191970" stroke="#191970" points="688.0743,-445.7645 688.0742,-456.3594 694.6813,-448.077 688.0743,-445.7645"/>
</g>
<!-- Node23&#45;&gt;Node7 -->
<g id="edge30" class="edge">
<title>Node23&#45;&gt;Node7</title>
<path fill="none" stroke="#191970" d="M645.896,-357.6756C619.2041,-345.431 588.7029,-331.439 563.0075,-319.6515"/>
<polygon fill="#191970" stroke="#191970" points="644.6156,-360.9389 655.1643,-361.9273 647.5344,-354.5764 644.6156,-360.9389"/>
</g>
<!-- Node24&#45;&gt;Node7 -->
<g id="edge32" class="edge">
<title>Node24&#45;&gt;Node7</title>
<path fill="none" stroke="#191970" d="M857.9694,-552.1171C869.5822,-501.734 881.6189,-410.1414 834,-356 801.0755,-318.5656 664.3288,-303.2202 578.1337,-297.1802"/>
<polygon fill="#191970" stroke="#191970" points="854.548,-551.3748 855.5949,-561.9178 861.3512,-553.0231 854.548,-551.3748"/>
</g>
</g>
</svg>
        <g id="navigator" transform="translate(0 0)" fill="#404254">
                <rect fill="#f2f5e9" fill-opacity="0.5" stroke="#606060" stroke-width=".5" x="0" y="0" width="60" height="60"/>
                <use id="zoomplus" xlink:href="#zoomPlus" target="_top" x="17" y="9" onmousedown="handleZoom(evt,'in')"/>
                <use id="zoomminus" xlink:href="#zoomMin" target="_top" x="42" y="9" onmousedown="handleZoom(evt,'out')"/>
                <use id="reset" xlink:href="#resetDef" target="_top" x="30" y="36" onmousedown="handleReset()"/>
                <g id="arrowUp" xlink:href="#dirArrow" target="_top" transform="translate(30 24)" onmousedown="handlePan(0,-1)">
                  <use xlink:href="#rim" target="_top" fill="#404040">
                        <set attributeName="fill" to="#808080" begin="arrowUp.mouseover" end="arrowUp.mouseout"/>
                  </use>
                  <path fill="none" stroke="white" stroke-width="1.5" d="M0,-3.0v7 M-2.5,-0.5L0,-3.0L2.5,-0.5"/>
                </g>
                <g id="arrowRight" xlink:href="#dirArrow" target="_top" transform="rotate(90) translate(36 -43)" onmousedown="handlePan(1,0)">
                  <use xlink:href="#rim" target="_top" fill="#404040">
                        <set attributeName="fill" to="#808080" begin="arrowRight.mouseover" end="arrowRight.mouseout"/>
                  </use>
                  <path fill="none" stroke="white" stroke-width="1.5" d="M0,-3.0v7 M-2.5,-0.5L0,-3.0L2.5,-0.5"/>
                </g>
                <g id="arrowDown" xlink:href="#dirArrow" target="_top" transform="rotate(180) translate(-30 -48)" onmousedown="handlePan(0,1)">
                  <use xlink:href="#rim" target="_top" fill="#404040">
                        <set attributeName="fill" to="#808080" begin="arrowDown.mouseover" end="arrowDown.mouseout"/>
                  </use>
                  <path fill="none" stroke="white" stroke-width="1.5" d="M0,-3.0v7 M-2.5,-0.5L0,-3.0L2.5,-0.5"/>
                </g>
                <g id="arrowLeft" xlink:href="#dirArrow" target="_top" transform="rotate(270) translate(-36 17)" onmousedown="handlePan(-1,0)">
                  <use xlink:href="#rim" target="_top" fill="#404040">
                        <set attributeName="fill" to="#808080" begin="arrowLeft.mouseover" end="arrowLeft.mouseout"/>
                  </use>
                  <path fill="none" stroke="white" stroke-width="1.5" d="M0,-3.0v7 M-2.5,-0.5L0,-3.0L2.5,-0.5"/>
                </g>
        </g>
        <svg viewBox="0 0 15 15" width="100%" height="30px" preserveAspectRatio="xMaxYMin meet">
         <g id="arrow_out" transform="scale(0.3 0.3)">
          <a xlink:href="json__fwd_8hpp__dep__incl_org.svg" target="_top" target="_base">
           <rect id="button" ry="5" rx="5" y="6" x="6" height="38" width="38"
                fill="#f2f5e9" fill-opacity="0.5" stroke="#606060" stroke-width="1.0"/>
           <path id="arrow"
             d="M 11.500037,31.436501 C 11.940474,20.09759 22.043105,11.32322 32.158766,21.979434 L 37.068811,17.246167 C 37.068811,17.246167 37.088388,32 37.088388,32 L 22.160133,31.978069 C 22.160133,31.978069 26.997745,27.140456 26.997745,27.140456 C 18.528582,18.264221 13.291696,25.230495 11.500037,31.436501 z"
             style="fill:#404040;"/>
          </a>
         </g>
        </svg>
</svg>
