<?xml version="1.0" encoding="UTF-8" standalone="no"?>
<!DOCTYPE svg PUBLIC "-//W3C//DTD SVG 1.1//EN"
 "http://www.w3.org/Graphics/SVG/1.1/DTD/svg11.dtd">
<!-- Generated by graphviz version 2.40.1 (20161225.0304)
 -->
<!-- Title: /home/bdn_jz/bdn_jz/camera&#45;tracker&#45;cpp/CameraTrackerLinux/include/nlohmann/detail/json_ref.hpp Pages: 1 -->
<svg width="985pt" height="318pt"
 viewBox="0.00 0.00 984.50 318.00" xmlns="http://www.w3.org/2000/svg" xmlns:xlink="http://www.w3.org/1999/xlink">
<g id="graph0" class="graph" transform="scale(1 1) rotate(0) translate(4 314)">
<title>/home/bdn_jz/bdn_jz/camera&#45;tracker&#45;cpp/CameraTrackerLinux/include/nlohmann/detail/json_ref.hpp</title>
<polygon fill="#ffffff" stroke="transparent" points="-4,4 -4,-314 980.5,-314 980.5,4 -4,4"/>
<!-- Node0 -->
<g id="node1" class="node">
<title>Node0</title>
<polygon fill="#bfbfbf" stroke="#000000" points="307,-257.5 307,-309.5 451,-309.5 451,-257.5 307,-257.5"/>
<text text-anchor="start" x="315" y="-297.5" font-family="Helvetica,sans-Serif" font-size="10.00" fill="#000000">/home/bdn_jz/bdn_jz</text>
<text text-anchor="start" x="315" y="-286.5" font-family="Helvetica,sans-Serif" font-size="10.00" fill="#000000">/camera&#45;tracker&#45;cpp</text>
<text text-anchor="start" x="315" y="-275.5" font-family="Helvetica,sans-Serif" font-size="10.00" fill="#000000">/CameraTrackerLinux/include</text>
<text text-anchor="middle" x="379" y="-264.5" font-family="Helvetica,sans-Serif" font-size="10.00" fill="#000000">/nlohmann/detail/json_ref.hpp</text>
</g>
<!-- Node1 -->
<g id="node2" class="node">
<title>Node1</title>
<polygon fill="#ffffff" stroke="#bfbfbf" points="232.5,-196 232.5,-215 305.5,-215 305.5,-196 232.5,-196"/>
<text text-anchor="middle" x="269" y="-203" font-family="Helvetica,sans-Serif" font-size="10.00" fill="#000000">initializer_list</text>
</g>
<!-- Node0&#45;&gt;Node1 -->
<g id="edge1" class="edge">
<title>Node0&#45;&gt;Node1</title>
<path fill="none" stroke="#191970" d="M342.0656,-257.3101C325.1123,-245.2887 305.5828,-231.4405 290.982,-221.0873"/>
<polygon fill="#191970" stroke="#191970" points="292.7769,-218.0694 282.595,-215.1401 288.7279,-223.7795 292.7769,-218.0694"/>
</g>
<!-- Node2 -->
<g id="node3" class="node">
<title>Node2</title>
<polygon fill="#ffffff" stroke="#bfbfbf" points="627,-62 627,-81 667,-81 667,-62 627,-62"/>
<text text-anchor="middle" x="647" y="-69" font-family="Helvetica,sans-Serif" font-size="10.00" fill="#000000">utility</text>
</g>
<!-- Node0&#45;&gt;Node2 -->
<g id="edge2" class="edge">
<title>Node0&#45;&gt;Node2</title>
<path fill="none" stroke="#191970" d="M447.1186,-257.4254C496.3016,-235.8072 561.6086,-201.0068 606,-154 623.1774,-135.8106 634.6705,-109.0482 641.0127,-90.9804"/>
<polygon fill="#191970" stroke="#191970" points="644.4159,-91.8362 644.2283,-81.243 637.769,-89.6411 644.4159,-91.8362"/>
</g>
<!-- Node3 -->
<g id="node4" class="node">
<title>Node3</title>
<g id="a_node4"><a xlink:href="type__traits_8hpp.html" target="_top" xlink:title="nlohmann/detail/meta\l/type_traits.hpp">
<polygon fill="#ffffff" stroke="#000000" points="324,-190.5 324,-220.5 434,-220.5 434,-190.5 324,-190.5"/>
<text text-anchor="start" x="332" y="-208.5" font-family="Helvetica,sans-Serif" font-size="10.00" fill="#000000">nlohmann/detail/meta</text>
<text text-anchor="middle" x="379" y="-197.5" font-family="Helvetica,sans-Serif" font-size="10.00" fill="#000000">/type_traits.hpp</text>
</a>
</g>
</g>
<!-- Node0&#45;&gt;Node3 -->
<g id="edge3" class="edge">
<title>Node0&#45;&gt;Node3</title>
<path fill="none" stroke="#191970" d="M379,-257.0928C379,-248.516 379,-239.0289 379,-230.5538"/>
<polygon fill="#191970" stroke="#191970" points="382.5001,-230.5045 379,-220.5046 375.5001,-230.5046 382.5001,-230.5045"/>
</g>
<!-- Node3&#45;&gt;Node2 -->
<g id="edge7" class="edge">
<title>Node3&#45;&gt;Node2</title>
<path fill="none" stroke="#191970" d="M434.428,-199.8201C475.7035,-193.5682 532.0935,-180.6083 575,-154 601.3979,-137.6294 623.4294,-108.5477 635.9145,-89.6499"/>
<polygon fill="#191970" stroke="#191970" points="638.9709,-91.3666 641.4,-81.054 633.07,-87.6009 638.9709,-91.3666"/>
</g>
<!-- Node4 -->
<g id="node5" class="node">
<title>Node4</title>
<polygon fill="#ffffff" stroke="#bfbfbf" points="0,-.5 0,-19.5 50,-19.5 50,-.5 0,-.5"/>
<text text-anchor="middle" x="25" y="-7.5" font-family="Helvetica,sans-Serif" font-size="10.00" fill="#000000">ciso646</text>
</g>
<!-- Node3&#45;&gt;Node4 -->
<g id="edge4" class="edge">
<title>Node3&#45;&gt;Node4</title>
<path fill="none" stroke="#191970" d="M323.7555,-191.9646C320.4611,-191.27 317.1907,-190.6089 314,-190 258.8662,-179.4794 108.3762,-188.3682 64,-154 26.0655,-124.6207 22.6101,-62.3562 23.5977,-30.1845"/>
<polygon fill="#191970" stroke="#191970" points="27.1123,-29.9695 24.1069,-19.8099 20.1208,-29.6263 27.1123,-29.9695"/>
</g>
<!-- Node5 -->
<g id="node6" class="node">
<title>Node5</title>
<polygon fill="#ffffff" stroke="#bfbfbf" points="83,-129 83,-148 123,-148 123,-129 83,-129"/>
<text text-anchor="middle" x="103" y="-136" font-family="Helvetica,sans-Serif" font-size="10.00" fill="#000000">limits</text>
</g>
<!-- Node3&#45;&gt;Node5 -->
<g id="edge5" class="edge">
<title>Node3&#45;&gt;Node5</title>
<path fill="none" stroke="#191970" d="M323.715,-192.1625C320.4308,-191.4181 317.1737,-190.692 314,-190 233.4368,-172.4335 209.6512,-181.7363 132,-154 130.7601,-153.5571 129.5083,-153.0683 128.2567,-152.5453"/>
<polygon fill="#191970" stroke="#191970" points="129.4026,-149.214 118.8702,-148.0656 126.3876,-155.5315 129.4026,-149.214"/>
</g>
<!-- Node6 -->
<g id="node7" class="node">
<title>Node6</title>
<polygon fill="#ffffff" stroke="#bfbfbf" points="346,-.5 346,-19.5 408,-19.5 408,-.5 346,-.5"/>
<text text-anchor="middle" x="377" y="-7.5" font-family="Helvetica,sans-Serif" font-size="10.00" fill="#000000">type_traits</text>
</g>
<!-- Node3&#45;&gt;Node6 -->
<g id="edge6" class="edge">
<title>Node3&#45;&gt;Node6</title>
<path fill="none" stroke="#191970" d="M387.8282,-190.3029C393.0911,-180.3419 399.2646,-166.8331 402,-154 411.4749,-109.5495 395.4524,-56.8061 384.9739,-29.1352"/>
<polygon fill="#191970" stroke="#191970" points="388.2256,-27.84 381.2941,-19.8272 381.7158,-30.4136 388.2256,-27.84"/>
</g>
<!-- Node7 -->
<g id="node8" class="node">
<title>Node7</title>
<g id="a_node8"><a xlink:href="iterator__traits_8hpp.html" target="_top" xlink:title="nlohmann/detail/iterators\l/iterator_traits.hpp">
<polygon fill="#ffffff" stroke="#000000" points="141.5,-123.5 141.5,-153.5 264.5,-153.5 264.5,-123.5 141.5,-123.5"/>
<text text-anchor="start" x="149.5" y="-141.5" font-family="Helvetica,sans-Serif" font-size="10.00" fill="#000000">nlohmann/detail/iterators</text>
<text text-anchor="middle" x="203" y="-130.5" font-family="Helvetica,sans-Serif" font-size="10.00" fill="#000000">/iterator_traits.hpp</text>
</a>
</g>
</g>
<!-- Node3&#45;&gt;Node7 -->
<g id="edge8" class="edge">
<title>Node3&#45;&gt;Node7</title>
<path fill="none" stroke="#191970" d="M339.5022,-190.4639C313.6641,-180.6278 279.7134,-167.7034 252.1353,-157.2049"/>
<polygon fill="#191970" stroke="#191970" points="253.2611,-153.8885 242.6701,-153.6017 250.7706,-160.4305 253.2611,-153.8885"/>
</g>
<!-- Node10 -->
<g id="node11" class="node">
<title>Node10</title>
<g id="a_node11"><a xlink:href="cpp__future_8hpp.html" target="_top" xlink:title="nlohmann/detail/meta\l/cpp_future.hpp">
<polygon fill="#ffffff" stroke="#000000" points="45,-56.5 45,-86.5 155,-86.5 155,-56.5 45,-56.5"/>
<text text-anchor="start" x="53" y="-74.5" font-family="Helvetica,sans-Serif" font-size="10.00" fill="#000000">nlohmann/detail/meta</text>
<text text-anchor="middle" x="100" y="-63.5" font-family="Helvetica,sans-Serif" font-size="10.00" fill="#000000">/cpp_future.hpp</text>
</a>
</g>
</g>
<!-- Node3&#45;&gt;Node10 -->
<g id="edge19" class="edge">
<title>Node3&#45;&gt;Node10</title>
<path fill="none" stroke="#191970" d="M323.7512,-191.9869C320.4579,-191.2866 317.1889,-190.6182 314,-190 261.0557,-179.7359 109.1924,-194.8649 74,-154 59.6833,-137.3756 70.1746,-112.8575 81.8217,-94.8693"/>
<polygon fill="#191970" stroke="#191970" points="84.7138,-96.8406 87.5286,-86.6265 78.9586,-92.856 84.7138,-96.8406"/>
</g>
<!-- Node12 -->
<g id="node13" class="node">
<title>Node12</title>
<g id="a_node13"><a xlink:href="macro__scope_8hpp.html" target="_top" xlink:title="nlohmann/detail/macro\l_scope.hpp">
<polygon fill="#ffffff" stroke="#000000" points="451.5,-123.5 451.5,-153.5 566.5,-153.5 566.5,-123.5 451.5,-123.5"/>
<text text-anchor="start" x="459.5" y="-141.5" font-family="Helvetica,sans-Serif" font-size="10.00" fill="#000000">nlohmann/detail/macro</text>
<text text-anchor="middle" x="509" y="-130.5" font-family="Helvetica,sans-Serif" font-size="10.00" fill="#000000">_scope.hpp</text>
</a>
</g>
</g>
<!-- Node3&#45;&gt;Node12 -->
<g id="edge15" class="edge">
<title>Node3&#45;&gt;Node12</title>
<path fill="none" stroke="#191970" d="M408.1745,-190.4639C426.5281,-181.0047 450.4235,-168.6894 470.345,-158.4222"/>
<polygon fill="#191970" stroke="#191970" points="472.1876,-161.4101 479.473,-153.7177 468.9807,-155.1879 472.1876,-161.4101"/>
</g>
<!-- Node15 -->
<g id="node16" class="node">
<title>Node15</title>
<g id="a_node16"><a xlink:href="detected_8hpp.html" target="_top" xlink:title="nlohmann/detail/meta\l/detected.hpp">
<polygon fill="#ffffff" stroke="#000000" points="283,-123.5 283,-153.5 393,-153.5 393,-123.5 283,-123.5"/>
<text text-anchor="start" x="291" y="-141.5" font-family="Helvetica,sans-Serif" font-size="10.00" fill="#000000">nlohmann/detail/meta</text>
<text text-anchor="middle" x="338" y="-130.5" font-family="Helvetica,sans-Serif" font-size="10.00" fill="#000000">/detected.hpp</text>
</a>
</g>
</g>
<!-- Node3&#45;&gt;Node15 -->
<g id="edge20" class="edge">
<title>Node3&#45;&gt;Node15</title>
<path fill="none" stroke="#191970" d="M369.6965,-190.2967C364.664,-182.0729 358.3331,-171.7272 352.655,-162.4483"/>
<polygon fill="#191970" stroke="#191970" points="355.4718,-160.346 347.2667,-153.6432 349.501,-163.9997 355.4718,-160.346"/>
</g>
<!-- Node16 -->
<g id="node17" class="node">
<title>Node16</title>
<g id="a_node17"><a xlink:href="json__fwd_8hpp.html" target="_top" xlink:title="nlohmann/json_fwd.hpp">
<polygon fill="#ffffff" stroke="#000000" points="739.5,-129 739.5,-148 858.5,-148 858.5,-129 739.5,-129"/>
<text text-anchor="middle" x="799" y="-136" font-family="Helvetica,sans-Serif" font-size="10.00" fill="#000000">nlohmann/json_fwd.hpp</text>
</a>
</g>
</g>
<!-- Node3&#45;&gt;Node16 -->
<g id="edge23" class="edge">
<title>Node3&#45;&gt;Node16</title>
<path fill="none" stroke="#191970" d="M434.3396,-196.672C510.2498,-184.5625 646.6607,-162.8017 729.4043,-149.6022"/>
<polygon fill="#191970" stroke="#191970" points="730.1456,-153.0283 739.4694,-147.9966 729.0428,-146.1157 730.1456,-153.0283"/>
</g>
<!-- Node8 -->
<g id="node9" class="node">
<title>Node8</title>
<polygon fill="#ffffff" stroke="#bfbfbf" points="173.5,-62 173.5,-81 220.5,-81 220.5,-62 173.5,-62"/>
<text text-anchor="middle" x="197" y="-69" font-family="Helvetica,sans-Serif" font-size="10.00" fill="#000000">iterator</text>
</g>
<!-- Node7&#45;&gt;Node8 -->
<g id="edge9" class="edge">
<title>Node7&#45;&gt;Node8</title>
<path fill="none" stroke="#191970" d="M201.6385,-123.2967C200.7854,-113.7699 199.6772,-101.3954 198.758,-91.1306"/>
<polygon fill="#191970" stroke="#191970" points="202.2338,-90.7029 197.8557,-81.055 195.2617,-91.3273 202.2338,-90.7029"/>
</g>
<!-- Node9 -->
<g id="node10" class="node">
<title>Node9</title>
<g id="a_node10"><a xlink:href="void__t_8hpp.html" target="_top" xlink:title="nlohmann/detail/meta\l/void_t.hpp">
<polygon fill="#ffffff" stroke="#000000" points="239,-56.5 239,-86.5 349,-86.5 349,-56.5 239,-56.5"/>
<text text-anchor="start" x="247" y="-74.5" font-family="Helvetica,sans-Serif" font-size="10.00" fill="#000000">nlohmann/detail/meta</text>
<text text-anchor="middle" x="294" y="-63.5" font-family="Helvetica,sans-Serif" font-size="10.00" fill="#000000">/void_t.hpp</text>
</a>
</g>
</g>
<!-- Node7&#45;&gt;Node9 -->
<g id="edge10" class="edge">
<title>Node7&#45;&gt;Node9</title>
<path fill="none" stroke="#191970" d="M223.6493,-123.2967C235.9823,-114.2163 251.8292,-102.5488 265.3594,-92.587"/>
<polygon fill="#191970" stroke="#191970" points="267.4548,-95.3907 273.4324,-86.6432 263.3045,-89.7537 267.4548,-95.3907"/>
</g>
<!-- Node7&#45;&gt;Node10 -->
<g id="edge11" class="edge">
<title>Node7&#45;&gt;Node10</title>
<path fill="none" stroke="#191970" d="M179.8848,-123.4639C165.8037,-114.3044 147.6055,-102.4667 132.1358,-92.4038"/>
<polygon fill="#191970" stroke="#191970" points="133.6855,-89.2366 123.3944,-86.7177 129.8685,-95.1044 133.6855,-89.2366"/>
</g>
<!-- Node10&#45;&gt;Node4 -->
<g id="edge12" class="edge">
<title>Node10&#45;&gt;Node4</title>
<path fill="none" stroke="#191970" d="M81.4607,-56.2977C70.3992,-47.2274 56.3509,-35.7077 45.0347,-26.4285"/>
<polygon fill="#191970" stroke="#191970" points="46.9604,-23.4813 37.0084,-19.8469 42.5219,-28.8942 46.9604,-23.4813"/>
</g>
<!-- Node10&#45;&gt;Node6 -->
<g id="edge14" class="edge">
<title>Node10&#45;&gt;Node6</title>
<path fill="none" stroke="#191970" d="M155.1374,-58.0541C158.1336,-57.3523 161.1026,-56.6636 164,-56 223.7447,-42.3162 293.1781,-27.5288 336.1087,-18.5151"/>
<polygon fill="#191970" stroke="#191970" points="336.8348,-21.939 345.9042,-16.4621 335.3988,-15.0879 336.8348,-21.939"/>
</g>
<!-- Node11 -->
<g id="node12" class="node">
<title>Node11</title>
<polygon fill="#ffffff" stroke="#bfbfbf" points="75.5,-.5 75.5,-19.5 124.5,-19.5 124.5,-.5 75.5,-.5"/>
<text text-anchor="middle" x="100" y="-7.5" font-family="Helvetica,sans-Serif" font-size="10.00" fill="#000000">cstddef</text>
</g>
<!-- Node10&#45;&gt;Node11 -->
<g id="edge13" class="edge">
<title>Node10&#45;&gt;Node11</title>
<path fill="none" stroke="#191970" d="M100,-56.2977C100,-48.3834 100,-38.6043 100,-30.0759"/>
<polygon fill="#191970" stroke="#191970" points="103.5001,-29.8469 100,-19.8469 96.5001,-29.847 103.5001,-29.8469"/>
</g>
<!-- Node12&#45;&gt;Node2 -->
<g id="edge16" class="edge">
<title>Node12&#45;&gt;Node2</title>
<path fill="none" stroke="#191970" d="M542.1172,-123.3708C563.8278,-113.3256 592.7594,-99.6984 618,-87 618.6885,-86.6536 619.385,-86.3007 620.0867,-85.9428"/>
<polygon fill="#191970" stroke="#191970" points="622.0331,-88.8753 629.2821,-81.1485 618.7968,-82.6683 622.0331,-88.8753"/>
</g>
<!-- Node13 -->
<g id="node14" class="node">
<title>Node13</title>
<polygon fill="#ffffff" stroke="#bfbfbf" points="507,-56.5 507,-86.5 609,-86.5 609,-56.5 507,-56.5"/>
<text text-anchor="start" x="515" y="-74.5" font-family="Helvetica,sans-Serif" font-size="10.00" fill="#000000">nlohmann/thirdparty</text>
<text text-anchor="middle" x="558" y="-63.5" font-family="Helvetica,sans-Serif" font-size="10.00" fill="#000000">/hedley/hedley.hpp</text>
</g>
<!-- Node12&#45;&gt;Node13 -->
<g id="edge17" class="edge">
<title>Node12&#45;&gt;Node13</title>
<path fill="none" stroke="#191970" d="M520.1189,-123.2967C526.2585,-114.9016 534.0154,-104.2952 540.9086,-94.8698"/>
<polygon fill="#191970" stroke="#191970" points="543.847,-96.781 546.9251,-86.6432 538.1968,-92.6488 543.847,-96.781"/>
</g>
<!-- Node14 -->
<g id="node15" class="node">
<title>Node14</title>
<polygon fill="#ffffff" stroke="#bfbfbf" points="443.5,-62 443.5,-81 488.5,-81 488.5,-62 443.5,-62"/>
<text text-anchor="middle" x="466" y="-69" font-family="Helvetica,sans-Serif" font-size="10.00" fill="#000000">cstdlib</text>
</g>
<!-- Node12&#45;&gt;Node14 -->
<g id="edge18" class="edge">
<title>Node12&#45;&gt;Node14</title>
<path fill="none" stroke="#191970" d="M499.2426,-123.2967C492.8032,-113.2631 484.3365,-100.0709 477.5595,-89.5113"/>
<polygon fill="#191970" stroke="#191970" points="480.4791,-87.5804 472.1323,-81.055 474.588,-91.3613 480.4791,-87.5804"/>
</g>
<!-- Node15&#45;&gt;Node6 -->
<g id="edge21" class="edge">
<title>Node15&#45;&gt;Node6</title>
<path fill="none" stroke="#191970" d="M344.472,-123.3597C348.6695,-113.1951 354.0683,-99.4378 358,-87 364.078,-67.7726 369.42,-45.3441 372.879,-29.6698"/>
<polygon fill="#191970" stroke="#191970" points="376.3654,-30.1052 375.0484,-19.5925 369.5222,-28.6319 376.3654,-30.1052"/>
</g>
<!-- Node15&#45;&gt;Node9 -->
<g id="edge22" class="edge">
<title>Node15&#45;&gt;Node9</title>
<path fill="none" stroke="#191970" d="M328.0157,-123.2967C322.5588,-114.9873 315.6792,-104.5115 309.5371,-95.1587"/>
<polygon fill="#191970" stroke="#191970" points="312.3596,-93.0806 303.9448,-86.6432 306.5086,-96.9231 312.3596,-93.0806"/>
</g>
<!-- Node17 -->
<g id="node18" class="node">
<title>Node17</title>
<polygon fill="#ffffff" stroke="#bfbfbf" points="747,-62 747,-81 793,-81 793,-62 747,-62"/>
<text text-anchor="middle" x="770" y="-69" font-family="Helvetica,sans-Serif" font-size="10.00" fill="#000000">cstdint</text>
</g>
<!-- Node16&#45;&gt;Node17 -->
<g id="edge24" class="edge">
<title>Node16&#45;&gt;Node17</title>
<path fill="none" stroke="#191970" d="M794.845,-128.9005C790.5381,-118.95 783.6903,-103.1292 778.2735,-90.6147"/>
<polygon fill="#191970" stroke="#191970" points="781.3316,-88.8686 774.1473,-81.0817 774.9075,-91.6492 781.3316,-88.8686"/>
</g>
<!-- Node18 -->
<g id="node19" class="node">
<title>Node18</title>
<polygon fill="#ffffff" stroke="#bfbfbf" points="811.5,-62 811.5,-81 846.5,-81 846.5,-62 811.5,-62"/>
<text text-anchor="middle" x="829" y="-69" font-family="Helvetica,sans-Serif" font-size="10.00" fill="#000000">map</text>
</g>
<!-- Node16&#45;&gt;Node18 -->
<g id="edge25" class="edge">
<title>Node16&#45;&gt;Node18</title>
<path fill="none" stroke="#191970" d="M803.2983,-128.9005C807.7983,-118.8505 814.9796,-102.8122 820.6088,-90.2403"/>
<polygon fill="#191970" stroke="#191970" points="823.8174,-91.6389 824.7097,-81.0817 817.4286,-88.7782 823.8174,-91.6389"/>
</g>
<!-- Node19 -->
<g id="node20" class="node">
<title>Node19</title>
<polygon fill="#ffffff" stroke="#bfbfbf" points="865,-62 865,-81 917,-81 917,-62 865,-62"/>
<text text-anchor="middle" x="891" y="-69" font-family="Helvetica,sans-Serif" font-size="10.00" fill="#000000">memory</text>
</g>
<!-- Node16&#45;&gt;Node19 -->
<g id="edge26" class="edge">
<title>Node16&#45;&gt;Node19</title>
<path fill="none" stroke="#191970" d="M812.1814,-128.9005C827.2111,-117.9549 851.9942,-99.9064 869.7593,-86.9688"/>
<polygon fill="#191970" stroke="#191970" points="871.82,-89.7979 877.8431,-81.0817 867.6991,-84.1394 871.82,-89.7979"/>
</g>
<!-- Node20 -->
<g id="node21" class="node">
<title>Node20</title>
<polygon fill="#ffffff" stroke="#bfbfbf" points="935.5,-62 935.5,-81 976.5,-81 976.5,-62 935.5,-62"/>
<text text-anchor="middle" x="956" y="-69" font-family="Helvetica,sans-Serif" font-size="10.00" fill="#000000">string</text>
</g>
<!-- Node16&#45;&gt;Node20 -->
<g id="edge27" class="edge">
<title>Node16&#45;&gt;Node20</title>
<path fill="none" stroke="#191970" d="M824.5928,-128.9156C850.4515,-119.047 891.4145,-102.9065 926,-87 926.9853,-86.5468 927.9849,-86.0782 928.9916,-85.5987"/>
<polygon fill="#191970" stroke="#191970" points="930.6387,-88.6888 938.0472,-81.1148 927.5325,-82.4157 930.6387,-88.6888"/>
</g>
<!-- Node21 -->
<g id="node22" class="node">
<title>Node21</title>
<polygon fill="#ffffff" stroke="#bfbfbf" points="685,-62 685,-81 729,-81 729,-62 685,-62"/>
<text text-anchor="middle" x="707" y="-69" font-family="Helvetica,sans-Serif" font-size="10.00" fill="#000000">vector</text>
</g>
<!-- Node16&#45;&gt;Node21 -->
<g id="edge28" class="edge">
<title>Node16&#45;&gt;Node21</title>
<path fill="none" stroke="#191970" d="M785.8186,-128.9005C770.7889,-117.9549 746.0058,-99.9064 728.2407,-86.9688"/>
<polygon fill="#191970" stroke="#191970" points="730.3009,-84.1394 720.1569,-81.0817 726.18,-89.7979 730.3009,-84.1394"/>
</g>
</g>
</svg>
