<?xml version="1.0" encoding="UTF-8" standalone="no"?>
<!DOCTYPE svg PUBLIC "-//W3C//DTD SVG 1.1//EN"
 "http://www.w3.org/Graphics/SVG/1.1/DTD/svg11.dtd">
<!-- Generated by graphviz version 2.40.1 (20161225.0304)
 -->
<!-- Title: /home/bdn_jz/bdn_jz/camera&#45;tracker&#45;cpp/CameraTrackerLinux/include/nlohmann/detail/input/lexer.hpp Pages: 1 -->
<svg width="1251pt" height="318pt"
 viewBox="0.00 0.00 1251.16 318.00" xmlns="http://www.w3.org/2000/svg" xmlns:xlink="http://www.w3.org/1999/xlink">
<g id="graph0" class="graph" transform="scale(1 1) rotate(0) translate(4 314)">
<title>/home/bdn_jz/bdn_jz/camera&#45;tracker&#45;cpp/CameraTrackerLinux/include/nlohmann/detail/input/lexer.hpp</title>
<polygon fill="#ffffff" stroke="transparent" points="-4,4 -4,-314 1247.1584,-314 1247.1584,4 -4,4"/>
<!-- Node0 -->
<g id="node1" class="node">
<title>Node0</title>
<polygon fill="#bfbfbf" stroke="#000000" points="619.6584,-257.5 619.6584,-309.5 774.6584,-309.5 774.6584,-257.5 619.6584,-257.5"/>
<text text-anchor="start" x="627.6584" y="-297.5" font-family="Helvetica,sans-Serif" font-size="10.00" fill="#000000">/home/bdn_jz/bdn_jz</text>
<text text-anchor="start" x="627.6584" y="-286.5" font-family="Helvetica,sans-Serif" font-size="10.00" fill="#000000">/camera&#45;tracker&#45;cpp</text>
<text text-anchor="start" x="627.6584" y="-275.5" font-family="Helvetica,sans-Serif" font-size="10.00" fill="#000000">/CameraTrackerLinux/include</text>
<text text-anchor="middle" x="697.1584" y="-264.5" font-family="Helvetica,sans-Serif" font-size="10.00" fill="#000000">/nlohmann/detail/input/lexer.hpp</text>
</g>
<!-- Node1 -->
<g id="node2" class="node">
<title>Node1</title>
<polygon fill="#ffffff" stroke="#bfbfbf" points="57.1584,-129 57.1584,-148 95.1584,-148 95.1584,-129 57.1584,-129"/>
<text text-anchor="middle" x="76.1584" y="-136" font-family="Helvetica,sans-Serif" font-size="10.00" fill="#000000">array</text>
</g>
<!-- Node0&#45;&gt;Node1 -->
<g id="edge1" class="edge">
<title>Node0&#45;&gt;Node1</title>
<path fill="none" stroke="#191970" d="M619.321,-276.5532C535.5714,-267.9629 398.9427,-250.7085 284.1584,-221 201.5192,-199.6113 181.7157,-189.6593 104.1584,-154 103.3192,-153.6141 102.4708,-153.213 101.6181,-152.8002"/>
<polygon fill="#191970" stroke="#191970" points="103.0198,-149.5847 92.53,-148.0966 99.8022,-155.8015 103.0198,-149.5847"/>
</g>
<!-- Node2 -->
<g id="node3" class="node">
<title>Node2</title>
<polygon fill="#ffffff" stroke="#bfbfbf" points="1042.6584,-196 1042.6584,-215 1089.6584,-215 1089.6584,-196 1042.6584,-196"/>
<text text-anchor="middle" x="1066.1584" y="-203" font-family="Helvetica,sans-Serif" font-size="10.00" fill="#000000">clocale</text>
</g>
<!-- Node0&#45;&gt;Node2 -->
<g id="edge2" class="edge">
<title>Node0&#45;&gt;Node2</title>
<path fill="none" stroke="#191970" d="M774.7799,-273.3439C842.5288,-263.4187 943.0428,-246.118 1028.1584,-221 1030.4648,-220.3194 1032.8235,-219.5488 1035.1806,-218.7239"/>
<polygon fill="#191970" stroke="#191970" points="1036.6067,-221.9266 1044.7238,-215.1174 1034.1321,-215.3786 1036.6067,-221.9266"/>
</g>
<!-- Node3 -->
<g id="node4" class="node">
<title>Node3</title>
<polygon fill="#ffffff" stroke="#bfbfbf" points="234.6584,-.5 234.6584,-19.5 283.6584,-19.5 283.6584,-.5 234.6584,-.5"/>
<text text-anchor="middle" x="259.1584" y="-7.5" font-family="Helvetica,sans-Serif" font-size="10.00" fill="#000000">cstddef</text>
</g>
<!-- Node0&#45;&gt;Node3 -->
<g id="edge3" class="edge">
<title>Node0&#45;&gt;Node3</title>
<path fill="none" stroke="#191970" d="M619.5629,-282.0552C450.881,-278.1106 62.6925,-264.3697 23.1584,-221 -28.8225,-163.9758 16.0557,-103.1193 77.1584,-56 100.0124,-38.3762 178.3523,-23.1211 224.4675,-15.3923"/>
<polygon fill="#191970" stroke="#191970" points="225.0396,-18.8454 234.3397,-13.7701 223.9045,-11.938 225.0396,-18.8454"/>
</g>
<!-- Node4 -->
<g id="node5" class="node">
<title>Node4</title>
<polygon fill="#ffffff" stroke="#bfbfbf" points="113.6584,-129 113.6584,-148 156.6584,-148 156.6584,-129 113.6584,-129"/>
<text text-anchor="middle" x="135.1584" y="-136" font-family="Helvetica,sans-Serif" font-size="10.00" fill="#000000">cstdio</text>
</g>
<!-- Node0&#45;&gt;Node4 -->
<g id="edge4" class="edge">
<title>Node0&#45;&gt;Node4</title>
<path fill="none" stroke="#191970" d="M619.5919,-271.9163C553.2808,-261.2229 455.6282,-243.5934 372.1584,-221 332.1319,-210.1657 323.5692,-202.8957 284.1584,-190 231.6423,-172.816 216.3628,-174.7688 165.1584,-154 163.9667,-153.5166 162.7588,-153.0022 161.5465,-152.4658"/>
<polygon fill="#191970" stroke="#191970" points="162.8858,-149.2266 152.3546,-148.0673 159.8643,-155.5409 162.8858,-149.2266"/>
</g>
<!-- Node5 -->
<g id="node6" class="node">
<title>Node5</title>
<polygon fill="#ffffff" stroke="#bfbfbf" points="1059.6584,-62 1059.6584,-81 1104.6584,-81 1104.6584,-62 1059.6584,-62"/>
<text text-anchor="middle" x="1082.1584" y="-69" font-family="Helvetica,sans-Serif" font-size="10.00" fill="#000000">cstdlib</text>
</g>
<!-- Node0&#45;&gt;Node5 -->
<g id="edge5" class="edge">
<title>Node0&#45;&gt;Node5</title>
<path fill="none" stroke="#191970" d="M774.9762,-271.6632C849.4737,-256.519 960.5341,-223.4182 1030.1584,-154 1049.0887,-135.1257 1064.4486,-108.1508 1073.4412,-90.2472"/>
<polygon fill="#191970" stroke="#191970" points="1076.6564,-91.6383 1077.8718,-81.1134 1070.3583,-88.5832 1076.6564,-91.6383"/>
</g>
<!-- Node6 -->
<g id="node7" class="node">
<title>Node6</title>
<polygon fill="#ffffff" stroke="#bfbfbf" points="1107.6584,-196 1107.6584,-215 1180.6584,-215 1180.6584,-196 1107.6584,-196"/>
<text text-anchor="middle" x="1144.1584" y="-203" font-family="Helvetica,sans-Serif" font-size="10.00" fill="#000000">initializer_list</text>
</g>
<!-- Node0&#45;&gt;Node6 -->
<g id="edge6" class="edge">
<title>Node0&#45;&gt;Node6</title>
<path fill="none" stroke="#191970" d="M775.0346,-275.5432C856.6173,-266.2448 988.0986,-248.5289 1099.1584,-221 1102.3665,-220.2048 1105.6707,-219.2797 1108.9627,-218.2846"/>
<polygon fill="#191970" stroke="#191970" points="1110.2484,-221.5477 1118.6934,-215.1499 1108.1019,-214.8849 1110.2484,-221.5477"/>
</g>
<!-- Node7 -->
<g id="node8" class="node">
<title>Node7</title>
<polygon fill="#ffffff" stroke="#bfbfbf" points="174.6584,-129 174.6584,-148 215.6584,-148 215.6584,-129 174.6584,-129"/>
<text text-anchor="middle" x="195.1584" y="-136" font-family="Helvetica,sans-Serif" font-size="10.00" fill="#000000">string</text>
</g>
<!-- Node0&#45;&gt;Node7 -->
<g id="edge7" class="edge">
<title>Node0&#45;&gt;Node7</title>
<path fill="none" stroke="#191970" d="M619.5177,-266.2103C570.9988,-254.7871 507.4497,-238.6948 452.1584,-221 415.8412,-209.3774 408.531,-201.4481 372.1584,-190 307.9974,-169.8057 288.1453,-177.6029 225.1584,-154 223.9233,-153.5371 222.6735,-153.0359 221.4212,-152.5066"/>
<polygon fill="#191970" stroke="#191970" points="222.5126,-149.1526 211.9731,-148.0715 219.538,-155.4892 222.5126,-149.1526"/>
</g>
<!-- Node8 -->
<g id="node9" class="node">
<title>Node8</title>
<polygon fill="#ffffff" stroke="#bfbfbf" points="881.1584,-62 881.1584,-81 921.1584,-81 921.1584,-62 881.1584,-62"/>
<text text-anchor="middle" x="901.1584" y="-69" font-family="Helvetica,sans-Serif" font-size="10.00" fill="#000000">utility</text>
</g>
<!-- Node0&#45;&gt;Node8 -->
<g id="edge8" class="edge">
<title>Node0&#45;&gt;Node8</title>
<path fill="none" stroke="#191970" d="M738.5103,-257.386C773.6356,-233.6585 823.6942,-196.019 858.1584,-154 874.0207,-134.6607 886.427,-108.5298 893.7541,-90.9009"/>
<polygon fill="#191970" stroke="#191970" points="897.186,-91.7446 897.6454,-81.1597 890.6854,-89.1478 897.186,-91.7446"/>
</g>
<!-- Node9 -->
<g id="node10" class="node">
<title>Node9</title>
<polygon fill="#ffffff" stroke="#bfbfbf" points="1199.1584,-196 1199.1584,-215 1243.1584,-215 1243.1584,-196 1199.1584,-196"/>
<text text-anchor="middle" x="1221.1584" y="-203" font-family="Helvetica,sans-Serif" font-size="10.00" fill="#000000">vector</text>
</g>
<!-- Node0&#45;&gt;Node9 -->
<g id="edge9" class="edge">
<title>Node0&#45;&gt;Node9</title>
<path fill="none" stroke="#191970" d="M774.6749,-276.8799C893.3549,-266.2027 1114.3142,-244.0361 1190.1584,-221 1191.8209,-220.4951 1193.5027,-219.9068 1195.1784,-219.2605"/>
<polygon fill="#191970" stroke="#191970" points="1196.8169,-222.3624 1204.5306,-215.0994 1193.9713,-215.9668 1196.8169,-222.3624"/>
</g>
<!-- Node10 -->
<g id="node11" class="node">
<title>Node10</title>
<g id="a_node11"><a xlink:href="input__adapters_8hpp.html" target="_top" xlink:title="nlohmann/detail/input\l/input_adapters.hpp">
<polygon fill="#ffffff" stroke="#000000" points="461.6584,-190.5 461.6584,-220.5 570.6584,-220.5 570.6584,-190.5 461.6584,-190.5"/>
<text text-anchor="start" x="469.6584" y="-208.5" font-family="Helvetica,sans-Serif" font-size="10.00" fill="#000000">nlohmann/detail/input</text>
<text text-anchor="middle" x="516.1584" y="-197.5" font-family="Helvetica,sans-Serif" font-size="10.00" fill="#000000">/input_adapters.hpp</text>
</a>
</g>
</g>
<!-- Node0&#45;&gt;Node10 -->
<g id="edge10" class="edge">
<title>Node0&#45;&gt;Node10</title>
<path fill="none" stroke="#191970" d="M636.6364,-257.4187C611.7276,-246.6845 583.4032,-234.4784 560.4789,-224.5994"/>
<polygon fill="#191970" stroke="#191970" points="561.5793,-221.2625 551.0106,-220.5192 558.809,-227.691 561.5793,-221.2625"/>
</g>
<!-- Node22 -->
<g id="node23" class="node">
<title>Node22</title>
<g id="a_node23"><a xlink:href="macro__scope_8hpp.html" target="_top" xlink:title="nlohmann/detail/macro\l_scope.hpp">
<polygon fill="#ffffff" stroke="#000000" points="906.6584,-123.5 906.6584,-153.5 1021.6584,-153.5 1021.6584,-123.5 906.6584,-123.5"/>
<text text-anchor="start" x="914.6584" y="-141.5" font-family="Helvetica,sans-Serif" font-size="10.00" fill="#000000">nlohmann/detail/macro</text>
<text text-anchor="middle" x="964.1584" y="-130.5" font-family="Helvetica,sans-Serif" font-size="10.00" fill="#000000">_scope.hpp</text>
</a>
</g>
</g>
<!-- Node0&#45;&gt;Node22 -->
<g id="edge36" class="edge">
<title>Node0&#45;&gt;Node22</title>
<path fill="none" stroke="#191970" d="M775.0302,-268.8103C812.5654,-259.2568 856.96,-244.1471 892.1584,-221 915.6364,-205.5604 936.0059,-180.4462 949.0294,-161.9768"/>
<polygon fill="#191970" stroke="#191970" points="952.0597,-163.7458 954.8141,-153.5152 946.281,-159.7952 952.0597,-163.7458"/>
</g>
<!-- Node24 -->
<g id="node25" class="node">
<title>Node24</title>
<g id="a_node25"><a xlink:href="position__t_8hpp.html" target="_top" xlink:title="nlohmann/detail/input\l/position_t.hpp">
<polygon fill="#ffffff" stroke="#000000" points="32.6584,-190.5 32.6584,-220.5 141.6584,-220.5 141.6584,-190.5 32.6584,-190.5"/>
<text text-anchor="start" x="40.6584" y="-208.5" font-family="Helvetica,sans-Serif" font-size="10.00" fill="#000000">nlohmann/detail/input</text>
<text text-anchor="middle" x="87.1584" y="-197.5" font-family="Helvetica,sans-Serif" font-size="10.00" fill="#000000">/position_t.hpp</text>
</a>
</g>
</g>
<!-- Node0&#45;&gt;Node24 -->
<g id="edge34" class="edge">
<title>Node0&#45;&gt;Node24</title>
<path fill="none" stroke="#191970" d="M619.592,-273.5817C498.0778,-258.0438 265.0587,-228.2479 151.9444,-213.7841"/>
<polygon fill="#191970" stroke="#191970" points="152.0714,-210.2719 141.7082,-212.4752 151.1835,-217.2154 152.0714,-210.2719"/>
</g>
<!-- Node10&#45;&gt;Node1 -->
<g id="edge11" class="edge">
<title>Node10&#45;&gt;Node1</title>
<path fill="none" stroke="#191970" d="M461.4885,-201.2572C365.193,-193.3546 169.3555,-175.2421 104.1584,-154 102.9103,-153.5934 101.6542,-153.1298 100.402,-152.6232"/>
<polygon fill="#191970" stroke="#191970" points="101.611,-149.3206 91.0832,-148.1307 98.5711,-155.6261 101.611,-149.3206"/>
</g>
<!-- Node10&#45;&gt;Node3 -->
<g id="edge13" class="edge">
<title>Node10&#45;&gt;Node3</title>
<path fill="none" stroke="#191970" d="M516.2496,-190.4099C515.587,-172.4502 511.9486,-142.4521 496.1584,-123 443.7739,-58.4667 345.774,-28.5352 293.7175,-16.6537"/>
<polygon fill="#191970" stroke="#191970" points="294.4632,-13.2341 283.9459,-14.5131 292.9653,-20.072 294.4632,-13.2341"/>
</g>
<!-- Node10&#45;&gt;Node4 -->
<g id="edge14" class="edge">
<title>Node10&#45;&gt;Node4</title>
<path fill="none" stroke="#191970" d="M461.626,-199.7266C377.2554,-190.4188 219.1712,-171.3785 165.1584,-154 163.6935,-153.5287 162.2136,-152.991 160.7371,-152.4056"/>
<polygon fill="#191970" stroke="#191970" points="161.7882,-149.037 151.2398,-148.0461 158.8679,-155.3988 161.7882,-149.037"/>
</g>
<!-- Node10&#45;&gt;Node7 -->
<g id="edge20" class="edge">
<title>Node10&#45;&gt;Node7</title>
<path fill="none" stroke="#191970" d="M461.2856,-194.8513C452.5511,-193.199 443.6111,-191.5331 435.1584,-190 341.9838,-173.1004 314.9463,-184.0874 225.1584,-154 223.734,-153.5227 222.2942,-152.9856 220.8563,-152.4056"/>
<polygon fill="#191970" stroke="#191970" points="222.1261,-149.137 211.5791,-148.131 219.1967,-155.4946 222.1261,-149.137"/>
</g>
<!-- Node10&#45;&gt;Node8 -->
<g id="edge22" class="edge">
<title>Node10&#45;&gt;Node8</title>
<path fill="none" stroke="#191970" d="M570.7707,-200.2007C619.5944,-193.9245 692.173,-180.7347 750.1584,-154 770.9042,-144.435 771.5074,-134.6495 791.1584,-123 824.6976,-103.1173 836.0481,-103.9547 871.1584,-87 872.1351,-86.5284 873.1272,-86.044 874.1275,-85.5511"/>
<polygon fill="#191970" stroke="#191970" points="875.7978,-88.6288 883.1529,-81.0029 872.6476,-82.3776 875.7978,-88.6288"/>
</g>
<!-- Node11 -->
<g id="node12" class="node">
<title>Node11</title>
<polygon fill="#ffffff" stroke="#bfbfbf" points="800.6584,-129 800.6584,-148 849.6584,-148 849.6584,-129 800.6584,-129"/>
<text text-anchor="middle" x="825.1584" y="-136" font-family="Helvetica,sans-Serif" font-size="10.00" fill="#000000">cassert</text>
</g>
<!-- Node10&#45;&gt;Node11 -->
<g id="edge12" class="edge">
<title>Node10&#45;&gt;Node11</title>
<path fill="none" stroke="#191970" d="M570.6618,-198.2115C625.7096,-190.1287 712.8516,-175.3486 786.1584,-154 788.6068,-153.287 791.1147,-152.4792 793.6201,-151.6159"/>
<polygon fill="#191970" stroke="#191970" points="794.975,-154.8465 803.1392,-148.0941 792.546,-148.2814 794.975,-154.8465"/>
</g>
<!-- Node12 -->
<g id="node13" class="node">
<title>Node12</title>
<polygon fill="#ffffff" stroke="#bfbfbf" points="234.1584,-129 234.1584,-148 280.1584,-148 280.1584,-129 234.1584,-129"/>
<text text-anchor="middle" x="257.1584" y="-136" font-family="Helvetica,sans-Serif" font-size="10.00" fill="#000000">cstring</text>
</g>
<!-- Node10&#45;&gt;Node12 -->
<g id="edge15" class="edge">
<title>Node10&#45;&gt;Node12</title>
<path fill="none" stroke="#191970" d="M461.6539,-194.626C405.0537,-183.0679 320.4785,-164.9764 289.1584,-154 287.5564,-153.4386 285.9293,-152.8189 284.301,-152.1599"/>
<polygon fill="#191970" stroke="#191970" points="285.6883,-148.9465 275.1282,-148.0891 282.8487,-155.3447 285.6883,-148.9465"/>
</g>
<!-- Node13 -->
<g id="node14" class="node">
<title>Node13</title>
<polygon fill="#ffffff" stroke="#bfbfbf" points="298.6584,-129 298.6584,-148 347.6584,-148 347.6584,-129 298.6584,-129"/>
<text text-anchor="middle" x="323.1584" y="-136" font-family="Helvetica,sans-Serif" font-size="10.00" fill="#000000">istream</text>
</g>
<!-- Node10&#45;&gt;Node13 -->
<g id="edge16" class="edge">
<title>Node10&#45;&gt;Node13</title>
<path fill="none" stroke="#191970" d="M464.7958,-190.4989C433.3951,-180.9256 392.5905,-167.7626 357.1584,-154 355.5786,-153.3864 353.9672,-152.7366 352.347,-152.0643"/>
<polygon fill="#191970" stroke="#191970" points="353.6985,-148.8355 343.1317,-148.0653 350.9118,-155.2569 353.6985,-148.8355"/>
</g>
<!-- Node14 -->
<g id="node15" class="node">
<title>Node14</title>
<polygon fill="#ffffff" stroke="#bfbfbf" points="815.6584,-62 815.6584,-81 862.6584,-81 862.6584,-62 815.6584,-62"/>
<text text-anchor="middle" x="839.1584" y="-69" font-family="Helvetica,sans-Serif" font-size="10.00" fill="#000000">iterator</text>
</g>
<!-- Node10&#45;&gt;Node14 -->
<g id="edge17" class="edge">
<title>Node10&#45;&gt;Node14</title>
<path fill="none" stroke="#191970" d="M570.9009,-196.743C611.6967,-188.9293 668.078,-175.3635 714.1584,-154 735.8612,-143.9383 738.2816,-136.3101 758.1584,-123 776.9096,-110.4437 798.4887,-96.7604 814.6567,-86.6561"/>
<polygon fill="#191970" stroke="#191970" points="816.8503,-89.4133 823.4886,-81.156 813.1499,-83.4713 816.8503,-89.4133"/>
</g>
<!-- Node15 -->
<g id="node16" class="node">
<title>Node15</title>
<polygon fill="#ffffff" stroke="#bfbfbf" points="366.1584,-129 366.1584,-148 418.1584,-148 418.1584,-129 366.1584,-129"/>
<text text-anchor="middle" x="392.1584" y="-136" font-family="Helvetica,sans-Serif" font-size="10.00" fill="#000000">memory</text>
</g>
<!-- Node10&#45;&gt;Node15 -->
<g id="edge18" class="edge">
<title>Node10&#45;&gt;Node15</title>
<path fill="none" stroke="#191970" d="M488.3304,-190.4639C467.5248,-179.2222 439.253,-163.9463 418.7511,-152.8686"/>
<polygon fill="#191970" stroke="#191970" points="420.3945,-149.7784 409.9329,-148.1039 417.0669,-155.9369 420.3945,-149.7784"/>
</g>
<!-- Node16 -->
<g id="node17" class="node">
<title>Node16</title>
<polygon fill="#ffffff" stroke="#bfbfbf" points="436.6584,-129 436.6584,-148 487.6584,-148 487.6584,-129 436.6584,-129"/>
<text text-anchor="middle" x="462.1584" y="-136" font-family="Helvetica,sans-Serif" font-size="10.00" fill="#000000">numeric</text>
</g>
<!-- Node10&#45;&gt;Node16 -->
<g id="edge19" class="edge">
<title>Node10&#45;&gt;Node16</title>
<path fill="none" stroke="#191970" d="M503.905,-190.2967C495.6549,-180.0605 484.7551,-166.5366 476.1618,-155.8746"/>
<polygon fill="#191970" stroke="#191970" points="478.8598,-153.6446 469.8595,-148.055 473.4096,-158.0373 478.8598,-153.6446"/>
</g>
<!-- Node17 -->
<g id="node18" class="node">
<title>Node17</title>
<polygon fill="#ffffff" stroke="#bfbfbf" points="504.1584,-.5 504.1584,-19.5 566.1584,-19.5 566.1584,-.5 504.1584,-.5"/>
<text text-anchor="middle" x="535.1584" y="-7.5" font-family="Helvetica,sans-Serif" font-size="10.00" fill="#000000">type_traits</text>
</g>
<!-- Node10&#45;&gt;Node17 -->
<g id="edge21" class="edge">
<title>Node10&#45;&gt;Node17</title>
<path fill="none" stroke="#191970" d="M521.2612,-190.3739C524.4411,-180.2153 528.2745,-166.4594 530.1584,-154 536.8311,-109.8703 536.6315,-57.307 535.8976,-29.5009"/>
<polygon fill="#191970" stroke="#191970" points="539.3959,-29.3884 535.5805,-19.5044 532.3994,-29.6104 539.3959,-29.3884"/>
</g>
<!-- Node18 -->
<g id="node19" class="node">
<title>Node18</title>
<g id="a_node19"><a xlink:href="iterator__traits_8hpp.html" target="_top" xlink:title="nlohmann/detail/iterators\l/iterator_traits.hpp">
<polygon fill="#ffffff" stroke="#000000" points="582.6584,-123.5 582.6584,-153.5 705.6584,-153.5 705.6584,-123.5 582.6584,-123.5"/>
<text text-anchor="start" x="590.6584" y="-141.5" font-family="Helvetica,sans-Serif" font-size="10.00" fill="#000000">nlohmann/detail/iterators</text>
<text text-anchor="middle" x="644.1584" y="-130.5" font-family="Helvetica,sans-Serif" font-size="10.00" fill="#000000">/iterator_traits.hpp</text>
</a>
</g>
</g>
<!-- Node10&#45;&gt;Node18 -->
<g id="edge23" class="edge">
<title>Node10&#45;&gt;Node18</title>
<path fill="none" stroke="#191970" d="M544.8841,-190.4639C562.9553,-181.0047 586.4832,-168.6894 606.0981,-158.4222"/>
<polygon fill="#191970" stroke="#191970" points="607.8492,-161.4562 615.0857,-153.7177 604.6029,-155.2544 607.8492,-161.4562"/>
</g>
<!-- Node10&#45;&gt;Node22 -->
<g id="edge30" class="edge">
<title>Node10&#45;&gt;Node22</title>
<path fill="none" stroke="#191970" d="M571.092,-197.2845C653.2096,-185.0035 807.8008,-161.8838 896.6754,-148.5923"/>
<polygon fill="#191970" stroke="#191970" points="897.2779,-152.0412 906.6502,-147.1006 896.2425,-145.1182 897.2779,-152.0412"/>
</g>
<!-- Node18&#45;&gt;Node14 -->
<g id="edge24" class="edge">
<title>Node18&#45;&gt;Node14</title>
<path fill="none" stroke="#191970" d="M697.6687,-123.4164C729.5369,-113.9584 770.5747,-100.9433 806.1584,-87 807.5581,-86.4515 808.9821,-85.8714 810.4139,-85.2703"/>
<polygon fill="#191970" stroke="#191970" points="812.0761,-88.362 819.7999,-81.1098 809.2394,-81.9625 812.0761,-88.362"/>
</g>
<!-- Node19 -->
<g id="node20" class="node">
<title>Node19</title>
<g id="a_node20"><a xlink:href="void__t_8hpp.html" target="_top" xlink:title="nlohmann/detail/meta\l/void_t.hpp">
<polygon fill="#ffffff" stroke="#000000" points="687.1584,-56.5 687.1584,-86.5 797.1584,-86.5 797.1584,-56.5 687.1584,-56.5"/>
<text text-anchor="start" x="695.1584" y="-74.5" font-family="Helvetica,sans-Serif" font-size="10.00" fill="#000000">nlohmann/detail/meta</text>
<text text-anchor="middle" x="742.1584" y="-63.5" font-family="Helvetica,sans-Serif" font-size="10.00" fill="#000000">/void_t.hpp</text>
</a>
</g>
</g>
<!-- Node18&#45;&gt;Node19 -->
<g id="edge25" class="edge">
<title>Node18&#45;&gt;Node19</title>
<path fill="none" stroke="#191970" d="M666.3961,-123.2967C679.8032,-114.1306 697.066,-102.3285 711.7264,-92.3055"/>
<polygon fill="#191970" stroke="#191970" points="713.7289,-95.1763 720.0087,-86.6432 709.7782,-89.3977 713.7289,-95.1763"/>
</g>
<!-- Node20 -->
<g id="node21" class="node">
<title>Node20</title>
<g id="a_node21"><a xlink:href="cpp__future_8hpp.html" target="_top" xlink:title="nlohmann/detail/meta\l/cpp_future.hpp">
<polygon fill="#ffffff" stroke="#000000" points="559.1584,-56.5 559.1584,-86.5 669.1584,-86.5 669.1584,-56.5 559.1584,-56.5"/>
<text text-anchor="start" x="567.1584" y="-74.5" font-family="Helvetica,sans-Serif" font-size="10.00" fill="#000000">nlohmann/detail/meta</text>
<text text-anchor="middle" x="614.1584" y="-63.5" font-family="Helvetica,sans-Serif" font-size="10.00" fill="#000000">/cpp_future.hpp</text>
</a>
</g>
</g>
<!-- Node18&#45;&gt;Node20 -->
<g id="edge26" class="edge">
<title>Node18&#45;&gt;Node20</title>
<path fill="none" stroke="#191970" d="M637.351,-123.2967C633.7454,-115.2443 629.2289,-105.1574 625.1418,-96.0296"/>
<polygon fill="#191970" stroke="#191970" points="628.2201,-94.3397 620.939,-86.6432 621.8313,-97.2004 628.2201,-94.3397"/>
</g>
<!-- Node20&#45;&gt;Node3 -->
<g id="edge28" class="edge">
<title>Node20&#45;&gt;Node3</title>
<path fill="none" stroke="#191970" d="M559.0792,-61.9581C485.0705,-49.1369 355.7003,-26.7249 293.9198,-16.022"/>
<polygon fill="#191970" stroke="#191970" points="294.3506,-12.5446 283.8999,-14.2862 293.1557,-19.4419 294.3506,-12.5446"/>
</g>
<!-- Node20&#45;&gt;Node17 -->
<g id="edge29" class="edge">
<title>Node20&#45;&gt;Node17</title>
<path fill="none" stroke="#191970" d="M594.6303,-56.2977C582.8647,-47.1384 567.8909,-35.4816 555.9119,-26.1562"/>
<polygon fill="#191970" stroke="#191970" points="557.8482,-23.228 547.8073,-19.8469 553.5482,-28.7516 557.8482,-23.228"/>
</g>
<!-- Node21 -->
<g id="node22" class="node">
<title>Node21</title>
<polygon fill="#ffffff" stroke="#bfbfbf" points="589.1584,-.5 589.1584,-19.5 639.1584,-19.5 639.1584,-.5 589.1584,-.5"/>
<text text-anchor="middle" x="614.1584" y="-7.5" font-family="Helvetica,sans-Serif" font-size="10.00" fill="#000000">ciso646</text>
</g>
<!-- Node20&#45;&gt;Node21 -->
<g id="edge27" class="edge">
<title>Node20&#45;&gt;Node21</title>
<path fill="none" stroke="#191970" d="M614.1584,-56.2977C614.1584,-48.3834 614.1584,-38.6043 614.1584,-30.0759"/>
<polygon fill="#191970" stroke="#191970" points="617.6585,-29.8469 614.1584,-19.8469 610.6585,-29.847 617.6585,-29.8469"/>
</g>
<!-- Node22&#45;&gt;Node5 -->
<g id="edge33" class="edge">
<title>Node22&#45;&gt;Node5</title>
<path fill="none" stroke="#191970" d="M990.6399,-123.4639C1010.2605,-112.3234 1036.8584,-97.2212 1056.3234,-86.1691"/>
<polygon fill="#191970" stroke="#191970" points="1058.2762,-89.0851 1065.2441,-81.1039 1054.8199,-82.9979 1058.2762,-89.0851"/>
</g>
<!-- Node22&#45;&gt;Node8 -->
<g id="edge31" class="edge">
<title>Node22&#45;&gt;Node8</title>
<path fill="none" stroke="#191970" d="M949.8628,-123.2967C940.1424,-112.9591 927.2691,-99.2684 917.1988,-88.5588"/>
<polygon fill="#191970" stroke="#191970" points="919.5431,-85.9426 910.143,-81.055 914.4434,-90.7378 919.5431,-85.9426"/>
</g>
<!-- Node23 -->
<g id="node24" class="node">
<title>Node23</title>
<polygon fill="#ffffff" stroke="#bfbfbf" points="939.1584,-56.5 939.1584,-86.5 1041.1584,-86.5 1041.1584,-56.5 939.1584,-56.5"/>
<text text-anchor="start" x="947.1584" y="-74.5" font-family="Helvetica,sans-Serif" font-size="10.00" fill="#000000">nlohmann/thirdparty</text>
<text text-anchor="middle" x="990.1584" y="-63.5" font-family="Helvetica,sans-Serif" font-size="10.00" fill="#000000">/hedley/hedley.hpp</text>
</g>
<!-- Node22&#45;&gt;Node23 -->
<g id="edge32" class="edge">
<title>Node22&#45;&gt;Node23</title>
<path fill="none" stroke="#191970" d="M970.0582,-123.2967C973.183,-115.2443 977.0974,-105.1574 980.6395,-96.0296"/>
<polygon fill="#191970" stroke="#191970" points="983.9271,-97.2321 984.282,-86.6432 977.4012,-94.6996 983.9271,-97.2321"/>
</g>
<!-- Node24&#45;&gt;Node3 -->
<g id="edge35" class="edge">
<title>Node24&#45;&gt;Node3</title>
<path fill="none" stroke="#191970" d="M71.0771,-190.4455C55.0567,-173.5533 34.6472,-145.5627 48.1584,-123 86.6256,-58.7628 175.4713,-28.9718 224.722,-16.9603"/>
<polygon fill="#191970" stroke="#191970" points="225.6522,-20.3374 234.5982,-14.6611 224.065,-13.5198 225.6522,-20.3374"/>
</g>
</g>
</svg>
