<?xml version="1.0" encoding="UTF-8" standalone="no"?>
<!DOCTYPE svg PUBLIC "-//W3C//DTD SVG 1.1//EN"
 "http://www.w3.org/Graphics/SVG/1.1/DTD/svg11.dtd">
<!-- Generated by graphviz version 2.40.1 (20161225.0304)
 -->
<!-- Title: /home/bdn_jz/bdn_jz/CameraTrackerLinux/main.cpp Pages: 1 -->
<svg width="1088pt" height="285pt"
 viewBox="0.00 0.00 1088.00 285.00" xmlns="http://www.w3.org/2000/svg" xmlns:xlink="http://www.w3.org/1999/xlink">
<g id="graph0" class="graph" transform="scale(1 1) rotate(0) translate(4 281)">
<title>/home/bdn_jz/bdn_jz/CameraTrackerLinux/main.cpp</title>
<polygon fill="#ffffff" stroke="transparent" points="-4,4 -4,-281 1084,-281 1084,4 -4,4"/>
<!-- Node0 -->
<g id="node1" class="node">
<title>Node0</title>
<polygon fill="#bfbfbf" stroke="#000000" points="169.5,-235.5 169.5,-276.5 279.5,-276.5 279.5,-235.5 169.5,-235.5"/>
<text text-anchor="start" x="177.5" y="-264.5" font-family="Helvetica,sans-Serif" font-size="10.00" fill="#000000">/home/bdn_jz/bdn_jz</text>
<text text-anchor="start" x="177.5" y="-253.5" font-family="Helvetica,sans-Serif" font-size="10.00" fill="#000000">/CameraTrackerLinux</text>
<text text-anchor="middle" x="224.5" y="-242.5" font-family="Helvetica,sans-Serif" font-size="10.00" fill="#000000">/main.cpp</text>
</g>
<!-- Node1 -->
<g id="node2" class="node">
<title>Node1</title>
<g id="a_node2"><a xlink:href="_chessboard_detector_8h.html" target="_top" xlink:title="This file contains the declaration of the ChessboardDetector class. ">
<polygon fill="#ffffff" stroke="#000000" points="7,-118 7,-137 122,-137 122,-118 7,-118"/>
<text text-anchor="middle" x="64.5" y="-125" font-family="Helvetica,sans-Serif" font-size="10.00" fill="#000000">ChessboardDetector.h</text>
</a>
</g>
</g>
<!-- Node0&#45;&gt;Node1 -->
<g id="edge1" class="edge">
<title>Node0&#45;&gt;Node1</title>
<path fill="none" stroke="#191970" d="M179.9839,-235.4063C161.5126,-225.7471 140.4774,-213.223 123.5,-199 104.731,-183.2761 87.4325,-160.9884 76.4857,-145.4922"/>
<polygon fill="#191970" stroke="#191970" points="79.3663,-143.504 70.8113,-137.254 73.6015,-147.4748 79.3663,-143.504"/>
</g>
<!-- Node5 -->
<g id="node6" class="node">
<title>Node5</title>
<g id="a_node6"><a xlink:href="_basler_gig_e_camera_8h.html" target="_top" xlink:title="Header file for the Basler GigE Camera class. ">
<polygon fill="#ffffff" stroke="#000000" points="233,-179.5 233,-198.5 342,-198.5 342,-179.5 233,-179.5"/>
<text text-anchor="middle" x="287.5" y="-186.5" font-family="Helvetica,sans-Serif" font-size="10.00" fill="#000000">BaslerGigECamera.h</text>
</a>
</g>
</g>
<!-- Node0&#45;&gt;Node5 -->
<g id="edge5" class="edge">
<title>Node0&#45;&gt;Node5</title>
<path fill="none" stroke="#191970" d="M244.0883,-235.168C252.8272,-225.8742 263.0006,-215.0549 271.3015,-206.227"/>
<polygon fill="#191970" stroke="#191970" points="274.003,-208.4633 278.3034,-198.7805 268.9033,-203.6681 274.003,-208.4633"/>
</g>
<!-- Node14 -->
<g id="node15" class="node">
<title>Node14</title>
<g id="a_node15"><a xlink:href="_scanner_8h.html" target="_top" xlink:title="This file contains the declaration of the Scanner class. ">
<polygon fill="#ffffff" stroke="#000000" points="132,-179.5 132,-198.5 193,-198.5 193,-179.5 132,-179.5"/>
<text text-anchor="middle" x="162.5" y="-186.5" font-family="Helvetica,sans-Serif" font-size="10.00" fill="#000000">Scanner.h</text>
</a>
</g>
</g>
<!-- Node0&#45;&gt;Node14 -->
<g id="edge16" class="edge">
<title>Node0&#45;&gt;Node14</title>
<path fill="none" stroke="#191970" d="M205.2227,-235.168C196.6224,-225.8742 186.6105,-215.0549 178.4414,-206.227"/>
<polygon fill="#191970" stroke="#191970" points="180.9114,-203.743 171.5506,-198.7805 175.7736,-208.4973 180.9114,-203.743"/>
</g>
<!-- Node16 -->
<g id="node17" class="node">
<title>Node16</title>
<g id="a_node17"><a xlink:href="_rotation_stage_8h.html" target="_top" xlink:title="This file contains the declaration of the RotationStage class. ">
<polygon fill="#ffffff" stroke="#000000" points="771,-179.5 771,-198.5 858,-198.5 858,-179.5 771,-179.5"/>
<text text-anchor="middle" x="814.5" y="-186.5" font-family="Helvetica,sans-Serif" font-size="10.00" fill="#000000">RotationStage.h</text>
</a>
</g>
</g>
<!-- Node0&#45;&gt;Node16 -->
<g id="edge19" class="edge">
<title>Node0&#45;&gt;Node16</title>
<path fill="none" stroke="#191970" d="M279.7406,-249.7269C392.8025,-236.8877 649.3202,-207.7577 760.9423,-195.082"/>
<polygon fill="#191970" stroke="#191970" points="761.4227,-198.55 770.9639,-193.9439 760.6328,-191.5947 761.4227,-198.55"/>
</g>
<!-- Node2 -->
<g id="node3" class="node">
<title>Node2</title>
<g id="a_node3"><a xlink:href="_chessboard_8h.html" target="_top" xlink:title="This file contains the declaration of the Chessboard class. ">
<polygon fill="#ffffff" stroke="#000000" points="26,-56.5 26,-75.5 103,-75.5 103,-56.5 26,-56.5"/>
<text text-anchor="middle" x="64.5" y="-63.5" font-family="Helvetica,sans-Serif" font-size="10.00" fill="#000000">Chessboard.h</text>
</a>
</g>
</g>
<!-- Node1&#45;&gt;Node2 -->
<g id="edge2" class="edge">
<title>Node1&#45;&gt;Node2</title>
<path fill="none" stroke="#191970" d="M64.5,-117.8906C64.5,-109.3657 64.5,-96.6392 64.5,-85.9235"/>
<polygon fill="#191970" stroke="#191970" points="68.0001,-85.7448 64.5,-75.7449 61.0001,-85.7449 68.0001,-85.7448"/>
</g>
<!-- Node3 -->
<g id="node4" class="node">
<title>Node3</title>
<polygon fill="#ffffff" stroke="#bfbfbf" points="125.5,-.5 125.5,-19.5 219.5,-19.5 219.5,-.5 125.5,-.5"/>
<text text-anchor="middle" x="172.5" y="-7.5" font-family="Helvetica,sans-Serif" font-size="10.00" fill="#000000">opencv2/core.hpp</text>
</g>
<!-- Node2&#45;&gt;Node3 -->
<g id="edge3" class="edge">
<title>Node2&#45;&gt;Node3</title>
<path fill="none" stroke="#191970" d="M83.3122,-56.2455C100.3473,-47.4125 125.6575,-34.2887 144.9681,-24.2758"/>
<polygon fill="#191970" stroke="#191970" points="146.637,-27.353 153.9034,-19.6427 143.4147,-21.1388 146.637,-27.353"/>
</g>
<!-- Node4 -->
<g id="node5" class="node">
<title>Node4</title>
<polygon fill="#ffffff" stroke="#bfbfbf" points="0,-.5 0,-19.5 107,-19.5 107,-.5 0,-.5"/>
<text text-anchor="middle" x="53.5" y="-7.5" font-family="Helvetica,sans-Serif" font-size="10.00" fill="#000000">opencv2/opencv.hpp</text>
</g>
<!-- Node2&#45;&gt;Node4 -->
<g id="edge4" class="edge">
<title>Node2&#45;&gt;Node4</title>
<path fill="none" stroke="#191970" d="M62.5839,-56.2455C61.1486,-48.9382 59.1364,-38.6944 57.3705,-29.7046"/>
<polygon fill="#191970" stroke="#191970" points="60.756,-28.7805 55.3941,-19.6427 53.8873,-30.1298 60.756,-28.7805"/>
</g>
<!-- Node6 -->
<g id="node7" class="node">
<title>Node6</title>
<g id="a_node7"><a xlink:href="_generic_camera_8h.html" target="_top" xlink:title="Header of the camera base class. ">
<polygon fill="#ffffff" stroke="#000000" points="241,-118 241,-137 334,-137 334,-118 241,-118"/>
<text text-anchor="middle" x="287.5" y="-125" font-family="Helvetica,sans-Serif" font-size="10.00" fill="#000000">GenericCamera.h</text>
</a>
</g>
</g>
<!-- Node5&#45;&gt;Node6 -->
<g id="edge6" class="edge">
<title>Node5&#45;&gt;Node6</title>
<path fill="none" stroke="#191970" d="M287.5,-179.3906C287.5,-170.8657 287.5,-158.1392 287.5,-147.4235"/>
<polygon fill="#191970" stroke="#191970" points="291.0001,-147.2448 287.5,-137.2449 284.0001,-147.2449 291.0001,-147.2448"/>
</g>
<!-- Node11 -->
<g id="node12" class="node">
<title>Node11</title>
<g id="a_node12"><a xlink:href="_timed_frame_8h.html" target="_top" xlink:title="TimedFrame.h">
<polygon fill="#ffffff" stroke="#000000" points="126.5,-56.5 126.5,-75.5 206.5,-75.5 206.5,-56.5 126.5,-56.5"/>
<text text-anchor="middle" x="166.5" y="-63.5" font-family="Helvetica,sans-Serif" font-size="10.00" fill="#000000">TimedFrame.h</text>
</a>
</g>
</g>
<!-- Node5&#45;&gt;Node11 -->
<g id="edge12" class="edge">
<title>Node5&#45;&gt;Node11</title>
<path fill="none" stroke="#191970" d="M274.7584,-179.328C263.2703,-170.3826 246.137,-156.473 232.5,-143 213.1607,-123.8933 193.1403,-99.8232 180.2958,-83.7279"/>
<polygon fill="#191970" stroke="#191970" points="182.8921,-81.3681 173.9481,-75.6887 177.3982,-85.706 182.8921,-81.3681"/>
</g>
<!-- Node12 -->
<g id="node13" class="node">
<title>Node12</title>
<polygon fill="#ffffff" stroke="#bfbfbf" points="352,-118 352,-137 465,-137 465,-118 352,-118"/>
<text text-anchor="middle" x="408.5" y="-125" font-family="Helvetica,sans-Serif" font-size="10.00" fill="#000000">pylon/PylonIncludes.h</text>
</g>
<!-- Node5&#45;&gt;Node12 -->
<g id="edge14" class="edge">
<title>Node5&#45;&gt;Node12</title>
<path fill="none" stroke="#191970" d="M306.4063,-179.3906C326.2966,-169.2811 357.8123,-153.2628 380.5692,-141.6962"/>
<polygon fill="#191970" stroke="#191970" points="382.3978,-144.693 389.7265,-137.0419 379.226,-138.4528 382.3978,-144.693"/>
</g>
<!-- Node13 -->
<g id="node14" class="node">
<title>Node13</title>
<polygon fill="#ffffff" stroke="#bfbfbf" points="483,-112.5 483,-142.5 626,-142.5 626,-112.5 483,-112.5"/>
<text text-anchor="start" x="491" y="-130.5" font-family="Helvetica,sans-Serif" font-size="10.00" fill="#000000">pylon/gige/BaslerGigEInstant</text>
<text text-anchor="middle" x="554.5" y="-119.5" font-family="Helvetica,sans-Serif" font-size="10.00" fill="#000000">Camera.h</text>
</g>
<!-- Node5&#45;&gt;Node13 -->
<g id="edge15" class="edge">
<title>Node5&#45;&gt;Node13</title>
<path fill="none" stroke="#191970" d="M328.9258,-179.4581C369.0084,-170.2256 430.6818,-156.0199 479.4171,-144.7944"/>
<polygon fill="#191970" stroke="#191970" points="480.335,-148.1747 489.2942,-142.5193 478.7637,-141.3533 480.335,-148.1747"/>
</g>
<!-- Node6&#45;&gt;Node3 -->
<g id="edge9" class="edge">
<title>Node6&#45;&gt;Node3</title>
<path fill="none" stroke="#191970" d="M278.0891,-117.8845C258.6304,-98.0028 213.744,-52.1406 189.2272,-27.0908"/>
<polygon fill="#191970" stroke="#191970" points="191.537,-24.447 182.041,-19.7484 186.5343,-29.3432 191.537,-24.447"/>
</g>
<!-- Node7 -->
<g id="node8" class="node">
<title>Node7</title>
<polygon fill="#ffffff" stroke="#bfbfbf" points="263,-56.5 263,-75.5 322,-75.5 322,-56.5 263,-56.5"/>
<text text-anchor="middle" x="292.5" y="-63.5" font-family="Helvetica,sans-Serif" font-size="10.00" fill="#000000">exception</text>
</g>
<!-- Node6&#45;&gt;Node7 -->
<g id="edge7" class="edge">
<title>Node6&#45;&gt;Node7</title>
<path fill="none" stroke="#191970" d="M288.2813,-117.8906C288.9743,-109.3657 290.009,-96.6392 290.8802,-85.9235"/>
<polygon fill="#191970" stroke="#191970" points="294.3858,-85.9956 291.7077,-75.7449 287.4088,-85.4283 294.3858,-85.9956"/>
</g>
<!-- Node8 -->
<g id="node9" class="node">
<title>Node8</title>
<polygon fill="#ffffff" stroke="#bfbfbf" points="630,-56.5 630,-75.5 671,-75.5 671,-56.5 630,-56.5"/>
<text text-anchor="middle" x="650.5" y="-63.5" font-family="Helvetica,sans-Serif" font-size="10.00" fill="#000000">string</text>
</g>
<!-- Node6&#45;&gt;Node8 -->
<g id="edge8" class="edge">
<title>Node6&#45;&gt;Node8</title>
<path fill="none" stroke="#191970" d="M319.3183,-117.9735C327.1771,-115.8201 335.606,-113.6774 343.5,-112 443.5791,-90.7339 564.056,-75.7116 619.6405,-69.3676"/>
<polygon fill="#191970" stroke="#191970" points="620.3217,-72.8131 629.8669,-68.2153 619.5378,-65.8571 620.3217,-72.8131"/>
</g>
<!-- Node9 -->
<g id="node10" class="node">
<title>Node9</title>
<g id="a_node10"><a xlink:href="constants_8h.html" target="_top" xlink:title="header for constant definitions. ">
<polygon fill="#ffffff" stroke="#000000" points="340.5,-56.5 340.5,-75.5 408.5,-75.5 408.5,-56.5 340.5,-56.5"/>
<text text-anchor="middle" x="374.5" y="-63.5" font-family="Helvetica,sans-Serif" font-size="10.00" fill="#000000">constants.h</text>
</a>
</g>
</g>
<!-- Node6&#45;&gt;Node9 -->
<g id="edge10" class="edge">
<title>Node6&#45;&gt;Node9</title>
<path fill="none" stroke="#191970" d="M301.0938,-117.8906C314.8843,-108.1421 336.4472,-92.8994 352.641,-81.4521"/>
<polygon fill="#191970" stroke="#191970" points="354.8563,-84.1723 361.0017,-75.5419 350.8156,-78.4563 354.8563,-84.1723"/>
</g>
<!-- Node10 -->
<g id="node11" class="node">
<title>Node10</title>
<polygon fill="#ffffff" stroke="#bfbfbf" points="301,-.5 301,-19.5 448,-19.5 448,-.5 301,-.5"/>
<text text-anchor="middle" x="374.5" y="-7.5" font-family="Helvetica,sans-Serif" font-size="10.00" fill="#000000">opencv2/imgproc/imgproc.hpp</text>
</g>
<!-- Node9&#45;&gt;Node10 -->
<g id="edge11" class="edge">
<title>Node9&#45;&gt;Node10</title>
<path fill="none" stroke="#191970" d="M374.5,-56.2455C374.5,-48.9382 374.5,-38.6944 374.5,-29.7046"/>
<polygon fill="#191970" stroke="#191970" points="378.0001,-29.6426 374.5,-19.6427 371.0001,-29.6427 378.0001,-29.6426"/>
</g>
<!-- Node11&#45;&gt;Node3 -->
<g id="edge13" class="edge">
<title>Node11&#45;&gt;Node3</title>
<path fill="none" stroke="#191970" d="M167.5451,-56.2455C168.328,-48.9382 169.4256,-38.6944 170.3888,-29.7046"/>
<polygon fill="#191970" stroke="#191970" points="173.8815,-29.9587 171.4669,-19.6427 166.9214,-29.2129 173.8815,-29.9587"/>
</g>
<!-- Node14&#45;&gt;Node1 -->
<g id="edge18" class="edge">
<title>Node14&#45;&gt;Node1</title>
<path fill="none" stroke="#191970" d="M147.1875,-179.3906C131.4376,-169.5067 106.6877,-153.9749 88.3663,-142.4773"/>
<polygon fill="#191970" stroke="#191970" points="90.0357,-139.3929 79.705,-137.0419 86.3148,-145.3221 90.0357,-139.3929"/>
</g>
<!-- Node15 -->
<g id="node16" class="node">
<title>Node15</title>
<polygon fill="#ffffff" stroke="#bfbfbf" points="140.5,-118 140.5,-137 184.5,-137 184.5,-118 140.5,-118"/>
<text text-anchor="middle" x="162.5" y="-125" font-family="Helvetica,sans-Serif" font-size="10.00" fill="#000000">zbar.h</text>
</g>
<!-- Node14&#45;&gt;Node15 -->
<g id="edge17" class="edge">
<title>Node14&#45;&gt;Node15</title>
<path fill="none" stroke="#191970" d="M162.5,-179.3906C162.5,-170.8657 162.5,-158.1392 162.5,-147.4235"/>
<polygon fill="#191970" stroke="#191970" points="166.0001,-147.2448 162.5,-137.2449 159.0001,-147.2449 166.0001,-147.2448"/>
</g>
<!-- Node16&#45;&gt;Node8 -->
<g id="edge20" class="edge">
<title>Node16&#45;&gt;Node8</title>
<path fill="none" stroke="#191970" d="M771.4163,-179.4248C735.5577,-170.6521 688.2329,-156.9448 674.5,-143 659.4285,-127.6959 653.8017,-103.0853 651.7124,-85.8164"/>
<polygon fill="#191970" stroke="#191970" points="655.1835,-85.3394 650.7865,-75.7001 648.2126,-85.9775 655.1835,-85.3394"/>
</g>
<!-- Node17 -->
<g id="node18" class="node">
<title>Node17</title>
<polygon fill="#ffffff" stroke="#bfbfbf" points="754.5,-118 754.5,-137 808.5,-137 808.5,-118 754.5,-118"/>
<text text-anchor="middle" x="781.5" y="-125" font-family="Helvetica,sans-Serif" font-size="10.00" fill="#000000">iostream</text>
</g>
<!-- Node16&#45;&gt;Node17 -->
<g id="edge21" class="edge">
<title>Node16&#45;&gt;Node17</title>
<path fill="none" stroke="#191970" d="M809.3438,-179.3906C804.5768,-170.5068 797.3615,-157.0601 791.4703,-146.0811"/>
<polygon fill="#191970" stroke="#191970" points="794.5412,-144.4016 786.7289,-137.2449 788.3731,-147.7114 794.5412,-144.4016"/>
</g>
<!-- Node18 -->
<g id="node19" class="node">
<title>Node18</title>
<g id="a_node19"><a xlink:href="_conex_8h.html" target="_top" xlink:title="Conex.h">
<polygon fill="#ffffff" stroke="#000000" points="683,-118 683,-137 736,-137 736,-118 683,-118"/>
<text text-anchor="middle" x="709.5" y="-125" font-family="Helvetica,sans-Serif" font-size="10.00" fill="#000000">Conex.h</text>
</a>
</g>
</g>
<!-- Node16&#45;&gt;Node18 -->
<g id="edge22" class="edge">
<title>Node16&#45;&gt;Node18</title>
<path fill="none" stroke="#191970" d="M798.0938,-179.3906C781.0647,-169.4165 754.2159,-153.6908 734.5349,-142.1633"/>
<polygon fill="#191970" stroke="#191970" points="736.1888,-139.0759 725.791,-137.0419 732.651,-145.1161 736.1888,-139.0759"/>
</g>
<!-- Node20 -->
<g id="node21" class="node">
<title>Node20</title>
<polygon fill="#ffffff" stroke="#bfbfbf" points="826.5,-118 826.5,-137 870.5,-137 870.5,-118 826.5,-118"/>
<text text-anchor="middle" x="848.5" y="-125" font-family="Helvetica,sans-Serif" font-size="10.00" fill="#000000">fcntl.h</text>
</g>
<!-- Node16&#45;&gt;Node20 -->
<g id="edge25" class="edge">
<title>Node16&#45;&gt;Node20</title>
<path fill="none" stroke="#191970" d="M819.8125,-179.3906C824.7239,-170.5068 832.1579,-157.0601 838.2275,-146.0811"/>
<polygon fill="#191970" stroke="#191970" points="841.3373,-147.6899 843.1126,-137.2449 835.2112,-144.3031 841.3373,-147.6899"/>
</g>
<!-- Node21 -->
<g id="node22" class="node">
<title>Node21</title>
<polygon fill="#ffffff" stroke="#bfbfbf" points="889,-118 889,-137 936,-137 936,-118 889,-118"/>
<text text-anchor="middle" x="912.5" y="-125" font-family="Helvetica,sans-Serif" font-size="10.00" fill="#000000">errno.h</text>
</g>
<!-- Node16&#45;&gt;Node21 -->
<g id="edge26" class="edge">
<title>Node16&#45;&gt;Node21</title>
<path fill="none" stroke="#191970" d="M829.8125,-179.3906C845.5624,-169.5067 870.3123,-153.9749 888.6337,-142.4773"/>
<polygon fill="#191970" stroke="#191970" points="890.6852,-145.3221 897.295,-137.0419 886.9643,-139.3929 890.6852,-145.3221"/>
</g>
<!-- Node22 -->
<g id="node23" class="node">
<title>Node22</title>
<polygon fill="#ffffff" stroke="#bfbfbf" points="954,-118 954,-137 1011,-137 1011,-118 954,-118"/>
<text text-anchor="middle" x="982.5" y="-125" font-family="Helvetica,sans-Serif" font-size="10.00" fill="#000000">termios.h</text>
</g>
<!-- Node16&#45;&gt;Node22 -->
<g id="edge27" class="edge">
<title>Node16&#45;&gt;Node22</title>
<path fill="none" stroke="#191970" d="M843.2992,-179.4329C869.9608,-170.447 910.6288,-156.4131 945.5,-143 947.3038,-142.3062 949.1513,-141.5806 951.0118,-140.8384"/>
<polygon fill="#191970" stroke="#191970" points="952.3435,-144.0753 960.2811,-137.0579 949.6998,-137.5937 952.3435,-144.0753"/>
</g>
<!-- Node23 -->
<g id="node24" class="node">
<title>Node23</title>
<polygon fill="#ffffff" stroke="#bfbfbf" points="1029,-118 1029,-137 1080,-137 1080,-118 1029,-118"/>
<text text-anchor="middle" x="1054.5" y="-125" font-family="Helvetica,sans-Serif" font-size="10.00" fill="#000000">unistd.h</text>
</g>
<!-- Node16&#45;&gt;Node23 -->
<g id="edge28" class="edge">
<title>Node16&#45;&gt;Node23</title>
<path fill="none" stroke="#191970" d="M858.2211,-181.9641C900.4193,-174.5393 965.7823,-161.3588 1020.5,-143 1022.3451,-142.3809 1024.2246,-141.6941 1026.1053,-140.9639"/>
<polygon fill="#191970" stroke="#191970" points="1027.5056,-144.172 1035.3625,-137.0642 1024.788,-137.721 1027.5056,-144.172"/>
</g>
<!-- Node18&#45;&gt;Node8 -->
<g id="edge23" class="edge">
<title>Node18&#45;&gt;Node8</title>
<path fill="none" stroke="#191970" d="M700.2813,-117.8906C691.4142,-108.6478 677.8088,-94.466 667.0611,-83.2628"/>
<polygon fill="#191970" stroke="#191970" points="669.2973,-80.5381 659.8487,-75.7449 664.2459,-85.3841 669.2973,-80.5381"/>
</g>
<!-- Node19 -->
<g id="node20" class="node">
<title>Node19</title>
<polygon fill="#ffffff" stroke="#bfbfbf" points="689.5,-56.5 689.5,-75.5 735.5,-75.5 735.5,-56.5 689.5,-56.5"/>
<text text-anchor="middle" x="712.5" y="-63.5" font-family="Helvetica,sans-Serif" font-size="10.00" fill="#000000">cstring</text>
</g>
<!-- Node18&#45;&gt;Node19 -->
<g id="edge24" class="edge">
<title>Node18&#45;&gt;Node19</title>
<path fill="none" stroke="#191970" d="M709.9688,-117.8906C710.3846,-109.3657 711.0054,-96.6392 711.5281,-85.9235"/>
<polygon fill="#191970" stroke="#191970" points="715.0332,-85.9035 712.0246,-75.7449 708.0415,-85.5624 715.0332,-85.9035"/>
</g>
</g>
</svg>
