<?xml version="1.0" encoding="UTF-8" standalone="no"?>
<!DOCTYPE svg PUBLIC "-//W3C//DTD SVG 1.1//EN"
 "http://www.w3.org/Graphics/SVG/1.1/DTD/svg11.dtd">
<!-- Generated by graphviz version 2.40.1 (20161225.0304)
 -->
<!-- Title: /home/bdn_jz/bdn_jz/camera&#45;tracker&#45;cpp/CameraTrackerLinux/include/nlohmann/detail/output/output_adapters.hpp Pages: 1 -->
<svg width="697pt" height="206pt"
 viewBox="0.00 0.00 696.50 206.00" xmlns="http://www.w3.org/2000/svg" xmlns:xlink="http://www.w3.org/1999/xlink">
<g id="graph0" class="graph" transform="scale(1 1) rotate(0) translate(4 202)">
<title>/home/bdn_jz/bdn_jz/camera&#45;tracker&#45;cpp/CameraTrackerLinux/include/nlohmann/detail/output/output_adapters.hpp</title>
<polygon fill="#ffffff" stroke="transparent" points="-4,4 -4,-202 692.5,-202 692.5,4 -4,4"/>
<!-- Node0 -->
<g id="node1" class="node">
<title>Node0</title>
<polygon fill="#bfbfbf" stroke="#000000" points="206,-134.5 206,-197.5 354,-197.5 354,-134.5 206,-134.5"/>
<text text-anchor="start" x="214" y="-185.5" font-family="Helvetica,sans-Serif" font-size="10.00" fill="#000000">/home/bdn_jz/bdn_jz</text>
<text text-anchor="start" x="214" y="-174.5" font-family="Helvetica,sans-Serif" font-size="10.00" fill="#000000">/camera&#45;tracker&#45;cpp</text>
<text text-anchor="start" x="214" y="-163.5" font-family="Helvetica,sans-Serif" font-size="10.00" fill="#000000">/CameraTrackerLinux/include</text>
<text text-anchor="start" x="214" y="-152.5" font-family="Helvetica,sans-Serif" font-size="10.00" fill="#000000">/nlohmann/detail/output/output</text>
<text text-anchor="middle" x="280" y="-141.5" font-family="Helvetica,sans-Serif" font-size="10.00" fill="#000000">_adapters.hpp</text>
</g>
<!-- Node1 -->
<g id="node2" class="node">
<title>Node1</title>
<polygon fill="#ffffff" stroke="#bfbfbf" points="0,-73 0,-92 56,-92 56,-73 0,-73"/>
<text text-anchor="middle" x="28" y="-80" font-family="Helvetica,sans-Serif" font-size="10.00" fill="#000000">algorithm</text>
</g>
<!-- Node0&#45;&gt;Node1 -->
<g id="edge1" class="edge">
<title>Node0&#45;&gt;Node1</title>
<path fill="none" stroke="#191970" d="M205.808,-144.3428C164.1183,-131.7228 111.3112,-114.9845 65,-98 63.1365,-97.3166 61.2293,-96.5932 59.3113,-95.8472"/>
<polygon fill="#191970" stroke="#191970" points="60.3665,-92.4991 49.7829,-92.0098 57.7514,-98.9922 60.3665,-92.4991"/>
</g>
<!-- Node2 -->
<g id="node3" class="node">
<title>Node2</title>
<polygon fill="#ffffff" stroke="#bfbfbf" points="74.5,-73 74.5,-92 123.5,-92 123.5,-73 74.5,-73"/>
<text text-anchor="middle" x="99" y="-80" font-family="Helvetica,sans-Serif" font-size="10.00" fill="#000000">cstddef</text>
</g>
<!-- Node0&#45;&gt;Node2 -->
<g id="edge2" class="edge">
<title>Node0&#45;&gt;Node2</title>
<path fill="none" stroke="#191970" d="M211.0467,-134.4645C186.1193,-123.0256 157.7727,-109.9732 132,-98 130.8376,-97.46 129.6525,-96.9084 128.4558,-96.3505"/>
<polygon fill="#191970" stroke="#191970" points="129.7727,-93.1025 119.2317,-92.0356 126.8067,-99.4431 129.7727,-93.1025"/>
</g>
<!-- Node3 -->
<g id="node4" class="node">
<title>Node3</title>
<polygon fill="#ffffff" stroke="#bfbfbf" points="141.5,-73 141.5,-92 170.5,-92 170.5,-73 141.5,-73"/>
<text text-anchor="middle" x="156" y="-80" font-family="Helvetica,sans-Serif" font-size="10.00" fill="#000000">ios</text>
</g>
<!-- Node0&#45;&gt;Node3 -->
<g id="edge3" class="edge">
<title>Node0&#45;&gt;Node3</title>
<path fill="none" stroke="#191970" d="M233.1209,-134.4322C214.6056,-121.9642 194.1742,-108.206 178.9951,-97.9846"/>
<polygon fill="#191970" stroke="#191970" points="180.5364,-94.803 170.2868,-92.1205 176.6265,-100.6093 180.5364,-94.803"/>
</g>
<!-- Node4 -->
<g id="node5" class="node">
<title>Node4</title>
<polygon fill="#ffffff" stroke="#bfbfbf" points="188.5,-73 188.5,-92 235.5,-92 235.5,-73 188.5,-73"/>
<text text-anchor="middle" x="212" y="-80" font-family="Helvetica,sans-Serif" font-size="10.00" fill="#000000">iterator</text>
</g>
<!-- Node0&#45;&gt;Node4 -->
<g id="edge4" class="edge">
<title>Node0&#45;&gt;Node4</title>
<path fill="none" stroke="#191970" d="M254.2921,-134.4322C244.8672,-122.859 234.537,-110.1741 226.4454,-100.2382"/>
<polygon fill="#191970" stroke="#191970" points="229.0186,-97.8551 219.99,-92.3112 223.5907,-102.2754 229.0186,-97.8551"/>
</g>
<!-- Node5 -->
<g id="node6" class="node">
<title>Node5</title>
<polygon fill="#ffffff" stroke="#bfbfbf" points="254,-73 254,-92 306,-92 306,-73 254,-73"/>
<text text-anchor="middle" x="280" y="-80" font-family="Helvetica,sans-Serif" font-size="10.00" fill="#000000">memory</text>
</g>
<!-- Node0&#45;&gt;Node5 -->
<g id="edge5" class="edge">
<title>Node0&#45;&gt;Node5</title>
<path fill="none" stroke="#191970" d="M280,-134.4322C280,-123.6773 280,-111.9624 280,-102.3857"/>
<polygon fill="#191970" stroke="#191970" points="283.5001,-102.3112 280,-92.3112 276.5001,-102.3112 283.5001,-102.3112"/>
</g>
<!-- Node6 -->
<g id="node7" class="node">
<title>Node6</title>
<polygon fill="#ffffff" stroke="#bfbfbf" points="324,-73 324,-92 376,-92 376,-73 324,-73"/>
<text text-anchor="middle" x="350" y="-80" font-family="Helvetica,sans-Serif" font-size="10.00" fill="#000000">ostream</text>
</g>
<!-- Node0&#45;&gt;Node6 -->
<g id="edge6" class="edge">
<title>Node0&#45;&gt;Node6</title>
<path fill="none" stroke="#191970" d="M306.464,-134.4322C316.1661,-122.859 326.8001,-110.1741 335.1297,-100.2382"/>
<polygon fill="#191970" stroke="#191970" points="338.0328,-102.2231 341.775,-92.3112 332.6684,-97.7261 338.0328,-102.2231"/>
</g>
<!-- Node7 -->
<g id="node8" class="node">
<title>Node7</title>
<polygon fill="#ffffff" stroke="#bfbfbf" points="394.5,-73 394.5,-92 435.5,-92 435.5,-73 394.5,-73"/>
<text text-anchor="middle" x="415" y="-80" font-family="Helvetica,sans-Serif" font-size="10.00" fill="#000000">string</text>
</g>
<!-- Node0&#45;&gt;Node7 -->
<g id="edge7" class="edge">
<title>Node0&#45;&gt;Node7</title>
<path fill="none" stroke="#191970" d="M331.0377,-134.4322C351.5759,-121.729 374.2795,-107.6864 390.8943,-97.4098"/>
<polygon fill="#191970" stroke="#191970" points="392.7823,-100.3575 399.4458,-92.1205 389.1,-94.4042 392.7823,-100.3575"/>
</g>
<!-- Node8 -->
<g id="node9" class="node">
<title>Node8</title>
<polygon fill="#ffffff" stroke="#bfbfbf" points="454,-73 454,-92 498,-92 498,-73 454,-73"/>
<text text-anchor="middle" x="476" y="-80" font-family="Helvetica,sans-Serif" font-size="10.00" fill="#000000">vector</text>
</g>
<!-- Node0&#45;&gt;Node8 -->
<g id="edge8" class="edge">
<title>Node0&#45;&gt;Node8</title>
<path fill="none" stroke="#191970" d="M354.2739,-136.2698C382.5209,-124.6846 414.898,-111.0683 444,-98 445.172,-97.4737 446.365,-96.9305 447.5677,-96.3767"/>
<polygon fill="#191970" stroke="#191970" points="449.2422,-99.4568 456.7943,-92.026 446.2566,-93.1254 449.2422,-99.4568"/>
</g>
<!-- Node9 -->
<g id="node10" class="node">
<title>Node9</title>
<g id="a_node10"><a xlink:href="macro__scope_8hpp.html" target="_top" xlink:title="nlohmann/detail/macro\l_scope.hpp">
<polygon fill="#ffffff" stroke="#000000" points="516.5,-67.5 516.5,-97.5 631.5,-97.5 631.5,-67.5 516.5,-67.5"/>
<text text-anchor="start" x="524.5" y="-85.5" font-family="Helvetica,sans-Serif" font-size="10.00" fill="#000000">nlohmann/detail/macro</text>
<text text-anchor="middle" x="574" y="-74.5" font-family="Helvetica,sans-Serif" font-size="10.00" fill="#000000">_scope.hpp</text>
</a>
</g>
</g>
<!-- Node0&#45;&gt;Node9 -->
<g id="edge9" class="edge">
<title>Node0&#45;&gt;Node9</title>
<path fill="none" stroke="#191970" d="M354.1886,-144.9294C402.6832,-131.1563 465.3217,-113.3661 511.3187,-100.3023"/>
<polygon fill="#191970" stroke="#191970" points="512.4996,-103.6055 521.1629,-97.5065 510.5871,-96.8718 512.4996,-103.6055"/>
</g>
<!-- Node10 -->
<g id="node11" class="node">
<title>Node10</title>
<polygon fill="#ffffff" stroke="#bfbfbf" points="465,-6 465,-25 505,-25 505,-6 465,-6"/>
<text text-anchor="middle" x="485" y="-13" font-family="Helvetica,sans-Serif" font-size="10.00" fill="#000000">utility</text>
</g>
<!-- Node9&#45;&gt;Node10 -->
<g id="edge10" class="edge">
<title>Node9&#45;&gt;Node10</title>
<path fill="none" stroke="#191970" d="M553.8045,-67.2967C539.534,-56.5537 520.4532,-42.1895 506.0052,-31.3129"/>
<polygon fill="#191970" stroke="#191970" points="507.7867,-28.2731 497.6924,-25.055 503.5766,-33.8656 507.7867,-28.2731"/>
</g>
<!-- Node11 -->
<g id="node12" class="node">
<title>Node11</title>
<polygon fill="#ffffff" stroke="#bfbfbf" points="523,-.5 523,-30.5 625,-30.5 625,-.5 523,-.5"/>
<text text-anchor="start" x="531" y="-18.5" font-family="Helvetica,sans-Serif" font-size="10.00" fill="#000000">nlohmann/thirdparty</text>
<text text-anchor="middle" x="574" y="-7.5" font-family="Helvetica,sans-Serif" font-size="10.00" fill="#000000">/hedley/hedley.hpp</text>
</g>
<!-- Node9&#45;&gt;Node11 -->
<g id="edge11" class="edge">
<title>Node9&#45;&gt;Node11</title>
<path fill="none" stroke="#191970" d="M574,-67.2967C574,-59.5013 574,-49.7991 574,-40.9064"/>
<polygon fill="#191970" stroke="#191970" points="577.5001,-40.6431 574,-30.6432 570.5001,-40.6432 577.5001,-40.6431"/>
</g>
<!-- Node12 -->
<g id="node13" class="node">
<title>Node12</title>
<polygon fill="#ffffff" stroke="#bfbfbf" points="643.5,-6 643.5,-25 688.5,-25 688.5,-6 643.5,-6"/>
<text text-anchor="middle" x="666" y="-13" font-family="Helvetica,sans-Serif" font-size="10.00" fill="#000000">cstdlib</text>
</g>
<!-- Node9&#45;&gt;Node12 -->
<g id="edge12" class="edge">
<title>Node9&#45;&gt;Node12</title>
<path fill="none" stroke="#191970" d="M594.8762,-67.2967C609.7669,-56.4524 629.7243,-41.9182 644.7081,-31.006"/>
<polygon fill="#191970" stroke="#191970" points="646.8566,-33.7712 652.8797,-25.055 642.7357,-28.1127 646.8566,-33.7712"/>
</g>
</g>
</svg>
