<?xml version="1.0" encoding="UTF-8" standalone="no"?>
<!DOCTYPE svg PUBLIC "-//W3C//DTD SVG 1.1//EN"
 "http://www.w3.org/Graphics/SVG/1.1/DTD/svg11.dtd">
<!-- Generated by graphviz version 2.40.1 (20161225.0304)
 -->
<!-- Title: /home/bdn_jz/bdn_jz/camera&#45;tracker&#45;cpp/CameraTrackerLinux/include/nlohmann/detail/input/position_t.hpp Pages: 1 -->
<!--zoomable 895 -->
<svg id="main" version="1.1" xmlns="http://www.w3.org/2000/svg" xmlns:xlink="http://www.w3.org/1999/xlink" xml:space="preserve" onload="init(evt)">
<style type="text/css"><![CDATA[
.edge:hover path { stroke: red; }
.edge:hover polygon { stroke: red; fill: red; }
]]></style>
<script type="text/javascript"><![CDATA[
var edges = document.getElementsByTagName('g');
if (edges && edges.length) {
  for (var i=0;i<edges.length;i++) {
    if (edges[i].id.substr(0,4)=='edge') {
      edges[i].setAttribute('class','edge');
    }
  }
}
]]></script>
        <defs>
                <circle id="rim" cx="0" cy="0" r="7"/>
                <circle id="rim2" cx="0" cy="0" r="3.5"/>
                <g id="zoomPlus">
                        <use xlink:href="#rim" fill="#404040">
                                <set attributeName="fill" to="#808080" begin="zoomplus.mouseover" end="zoomplus.mouseout"/>
                        </use>
                        <path d="M-4,0h8M0,-4v8" fill="none" stroke="white" stroke-width="1.5" pointer-events="none"/>
                </g>
                <g id="zoomMin">
                        <use xlink:href="#rim" fill="#404040">
                                <set attributeName="fill" to="#808080" begin="zoomminus.mouseover" end="zoomminus.mouseout"/>
                        </use>
                        <path d="M-4,0h8" fill="none" stroke="white" stroke-width="1.5" pointer-events="none"/>
                </g>
                <g id="dirArrow">
                        <path fill="none" stroke="white" stroke-width="1.5" d="M0,-3.0v7 M-2.5,-0.5L0,-3.0L2.5,-0.5"/>
                </g>
               <g id="resetDef">
                       <use xlink:href="#rim2" fill="#404040">
                               <set attributeName="fill" to="#808080" begin="reset.mouseover" end="reset.mouseout"/>
                       </use>
               </g>
        </defs>

<script type="text/javascript">
var viewWidth = 936;
var viewHeight = 895;
var sectionId = 'dynsection-1';
</script>
<script xlink:href="svgpan.js"/>
<svg id="graph" class="graph">
<g id="viewport">
<title>/home/bdn_jz/bdn_jz/camera&#45;tracker&#45;cpp/CameraTrackerLinux/include/nlohmann/detail/input/position_t.hpp</title>
<polygon fill="#ffffff" stroke="transparent" points="-4,4 -4,-891 931.5,-891 931.5,4 -4,4"/>
<!-- Node2 -->
<g id="node1" class="node">
<title>Node2</title>
<polygon fill="#bfbfbf" stroke="#000000" points="360,-834.5 360,-886.5 536,-886.5 536,-834.5 360,-834.5"/>
<text text-anchor="start" x="368" y="-874.5" font-family="Helvetica,sans-Serif" font-size="10.00" fill="#000000">/home/bdn_jz/bdn_jz</text>
<text text-anchor="start" x="368" y="-863.5" font-family="Helvetica,sans-Serif" font-size="10.00" fill="#000000">/camera&#45;tracker&#45;cpp</text>
<text text-anchor="start" x="368" y="-852.5" font-family="Helvetica,sans-Serif" font-size="10.00" fill="#000000">/CameraTrackerLinux/include</text>
<text text-anchor="middle" x="448" y="-841.5" font-family="Helvetica,sans-Serif" font-size="10.00" fill="#000000">/nlohmann/detail/input/position_t.hpp</text>
</g>
<!-- Node3 -->
<g id="node2" class="node">
<title>Node3</title>
<g id="a_node2"><a xlink:href="exceptions_8hpp.html" target="_top" xlink:title="/home/bdn_jz/bdn_jz\l/camera&#45;tracker&#45;cpp\l/CameraTrackerLinux/include\l/nlohmann/detail/exceptions.hpp">
<polygon fill="#ffffff" stroke="#000000" points="316.5,-745.5 316.5,-797.5 473.5,-797.5 473.5,-745.5 316.5,-745.5"/>
<text text-anchor="start" x="324.5" y="-785.5" font-family="Helvetica,sans-Serif" font-size="10.00" fill="#000000">/home/bdn_jz/bdn_jz</text>
<text text-anchor="start" x="324.5" y="-774.5" font-family="Helvetica,sans-Serif" font-size="10.00" fill="#000000">/camera&#45;tracker&#45;cpp</text>
<text text-anchor="start" x="324.5" y="-763.5" font-family="Helvetica,sans-Serif" font-size="10.00" fill="#000000">/CameraTrackerLinux/include</text>
<text text-anchor="middle" x="395" y="-752.5" font-family="Helvetica,sans-Serif" font-size="10.00" fill="#000000">/nlohmann/detail/exceptions.hpp</text>
</a>
</g>
</g>
<!-- Node2&#45;&gt;Node3 -->
<g id="edge1" class="edge">
<title>Node2&#45;&gt;Node3</title>
<path fill="none" stroke="#191970" d="M427.1954,-825.5639C421.6349,-816.2264 415.7232,-806.2993 410.5035,-797.5341"/>
<polygon fill="#191970" stroke="#191970" points="424.2612,-827.4773 432.3849,-834.2784 430.2755,-823.8957 424.2612,-827.4773"/>
</g>
<!-- Node19 -->
<g id="node18" class="node">
<title>Node19</title>
<g id="a_node18"><a xlink:href="lexer_8hpp.html" target="_top" xlink:title="/home/bdn_jz/bdn_jz\l/camera&#45;tracker&#45;cpp\l/CameraTrackerLinux/include\l/nlohmann/detail/input/lexer.hpp">
<polygon fill="#ffffff" stroke="#000000" points="772.5,-651 772.5,-703 927.5,-703 927.5,-651 772.5,-651"/>
<text text-anchor="start" x="780.5" y="-691" font-family="Helvetica,sans-Serif" font-size="10.00" fill="#000000">/home/bdn_jz/bdn_jz</text>
<text text-anchor="start" x="780.5" y="-680" font-family="Helvetica,sans-Serif" font-size="10.00" fill="#000000">/camera&#45;tracker&#45;cpp</text>
<text text-anchor="start" x="780.5" y="-669" font-family="Helvetica,sans-Serif" font-size="10.00" fill="#000000">/CameraTrackerLinux/include</text>
<text text-anchor="middle" x="850" y="-658" font-family="Helvetica,sans-Serif" font-size="10.00" fill="#000000">/nlohmann/detail/input/lexer.hpp</text>
</a>
</g>
</g>
<!-- Node2&#45;&gt;Node19 -->
<g id="edge29" class="edge">
<title>Node2&#45;&gt;Node19</title>
<path fill="none" stroke="#191970" d="M514.3973,-830.1918C592.1402,-794.7046 719.5939,-736.5262 793.0273,-703.0062"/>
<polygon fill="#191970" stroke="#191970" points="512.8135,-827.0673 505.1699,-834.4038 515.7204,-833.4352 512.8135,-827.0673"/>
</g>
<!-- Node4 -->
<g id="node3" class="node">
<title>Node4</title>
<g id="a_node3"><a xlink:href="json_8hpp.html" target="_top" xlink:title="/home/bdn_jz/bdn_jz\l/camera&#45;tracker&#45;cpp\l/CameraTrackerLinux/include\l/nlohmann/json.hpp">
<polygon fill="#ffffff" stroke="#000000" points="263,-267.5 263,-319.5 407,-319.5 407,-267.5 263,-267.5"/>
<text text-anchor="start" x="271" y="-307.5" font-family="Helvetica,sans-Serif" font-size="10.00" fill="#000000">/home/bdn_jz/bdn_jz</text>
<text text-anchor="start" x="271" y="-296.5" font-family="Helvetica,sans-Serif" font-size="10.00" fill="#000000">/camera&#45;tracker&#45;cpp</text>
<text text-anchor="start" x="271" y="-285.5" font-family="Helvetica,sans-Serif" font-size="10.00" fill="#000000">/CameraTrackerLinux/include</text>
<text text-anchor="middle" x="335" y="-274.5" font-family="Helvetica,sans-Serif" font-size="10.00" fill="#000000">/nlohmann/json.hpp</text>
</a>
</g>
</g>
<!-- Node3&#45;&gt;Node4 -->
<g id="edge2" class="edge">
<title>Node3&#45;&gt;Node4</title>
<path fill="none" stroke="#191970" d="M306.2871,-759.073C258.3297,-749.8693 199.2271,-734.3876 151,-709 72.123,-667.4777 0,-666.1385 0,-577 0,-577 0,-577 0,-477 0,-419.777 .8587,-393.5938 44,-356 76.0909,-328.0356 187.3986,-310.1793 262.6716,-301.0027"/>
<polygon fill="#191970" stroke="#191970" points="305.8722,-762.5558 316.3436,-760.943 307.152,-755.6737 305.8722,-762.5558"/>
</g>
<!-- Node10 -->
<g id="node9" class="node">
<title>Node10</title>
<g id="a_node9"><a xlink:href="from__json_8hpp.html" target="_top" xlink:title="/home/bdn_jz/bdn_jz\l/camera&#45;tracker&#45;cpp\l/CameraTrackerLinux/include\l/nlohmann/detail/conversions\l/from_json.hpp">
<polygon fill="#ffffff" stroke="#000000" points="31,-445.5 31,-508.5 175,-508.5 175,-445.5 31,-445.5"/>
<text text-anchor="start" x="39" y="-496.5" font-family="Helvetica,sans-Serif" font-size="10.00" fill="#000000">/home/bdn_jz/bdn_jz</text>
<text text-anchor="start" x="39" y="-485.5" font-family="Helvetica,sans-Serif" font-size="10.00" fill="#000000">/camera&#45;tracker&#45;cpp</text>
<text text-anchor="start" x="39" y="-474.5" font-family="Helvetica,sans-Serif" font-size="10.00" fill="#000000">/CameraTrackerLinux/include</text>
<text text-anchor="start" x="39" y="-463.5" font-family="Helvetica,sans-Serif" font-size="10.00" fill="#000000">/nlohmann/detail/conversions</text>
<text text-anchor="middle" x="103" y="-452.5" font-family="Helvetica,sans-Serif" font-size="10.00" fill="#000000">/from_json.hpp</text>
</a>
</g>
</g>
<!-- Node3&#45;&gt;Node10 -->
<g id="edge9" class="edge">
<title>Node3&#45;&gt;Node10</title>
<path fill="none" stroke="#191970" d="M306.2781,-759.4948C269.9992,-750.688 229.8644,-735.4296 201,-709 141.6644,-654.6697 116.9968,-558.5876 107.8148,-508.8391"/>
<polygon fill="#191970" stroke="#191970" points="305.8668,-762.9912 316.3958,-761.8116 307.4293,-756.1678 305.8668,-762.9912"/>
</g>
<!-- Node12 -->
<g id="node11" class="node">
<title>Node12</title>
<g id="a_node11"><a xlink:href="binary__reader_8hpp.html" target="_top" xlink:title="/home/bdn_jz/bdn_jz\l/camera&#45;tracker&#45;cpp\l/CameraTrackerLinux/include\l/nlohmann/detail/input/binary\l_reader.hpp">
<polygon fill="#ffffff" stroke="#000000" points="177,-545.5 177,-608.5 321,-608.5 321,-545.5 177,-545.5"/>
<text text-anchor="start" x="185" y="-596.5" font-family="Helvetica,sans-Serif" font-size="10.00" fill="#000000">/home/bdn_jz/bdn_jz</text>
<text text-anchor="start" x="185" y="-585.5" font-family="Helvetica,sans-Serif" font-size="10.00" fill="#000000">/camera&#45;tracker&#45;cpp</text>
<text text-anchor="start" x="185" y="-574.5" font-family="Helvetica,sans-Serif" font-size="10.00" fill="#000000">/CameraTrackerLinux/include</text>
<text text-anchor="start" x="185" y="-563.5" font-family="Helvetica,sans-Serif" font-size="10.00" fill="#000000">/nlohmann/detail/input/binary</text>
<text text-anchor="middle" x="249" y="-552.5" font-family="Helvetica,sans-Serif" font-size="10.00" fill="#000000">_reader.hpp</text>
</a>
</g>
</g>
<!-- Node3&#45;&gt;Node12 -->
<g id="edge13" class="edge">
<title>Node3&#45;&gt;Node12</title>
<path fill="none" stroke="#191970" d="M306.3839,-751.2323C266.4482,-740.1295 225.6299,-725.3196 214,-709 192.742,-679.1699 209.8912,-637.2671 226.8317,-608.7289"/>
<polygon fill="#191970" stroke="#191970" points="305.6599,-754.6623 316.2274,-753.9018 307.4922,-747.9064 305.6599,-754.6623"/>
</g>
<!-- Node14 -->
<g id="node13" class="node">
<title>Node14</title>
<g id="a_node13"><a xlink:href="serializer_8hpp.html" target="_top" xlink:title="/home/bdn_jz/bdn_jz\l/camera&#45;tracker&#45;cpp\l/CameraTrackerLinux/include\l/nlohmann/detail/output/serializer.hpp">
<polygon fill="#ffffff" stroke="#000000" points="304.5,-356.5 304.5,-408.5 483.5,-408.5 483.5,-356.5 304.5,-356.5"/>
<text text-anchor="start" x="312.5" y="-396.5" font-family="Helvetica,sans-Serif" font-size="10.00" fill="#000000">/home/bdn_jz/bdn_jz</text>
<text text-anchor="start" x="312.5" y="-385.5" font-family="Helvetica,sans-Serif" font-size="10.00" fill="#000000">/camera&#45;tracker&#45;cpp</text>
<text text-anchor="start" x="312.5" y="-374.5" font-family="Helvetica,sans-Serif" font-size="10.00" fill="#000000">/CameraTrackerLinux/include</text>
<text text-anchor="middle" x="394" y="-363.5" font-family="Helvetica,sans-Serif" font-size="10.00" fill="#000000">/nlohmann/detail/output/serializer.hpp</text>
</a>
</g>
</g>
<!-- Node3&#45;&gt;Node14 -->
<g id="edge28" class="edge">
<title>Node3&#45;&gt;Node14</title>
<path fill="none" stroke="#191970" d="M394.9064,-735.0919C394.7062,-657.2157 394.2405,-476.0681 394.0669,-408.5137"/>
<polygon fill="#191970" stroke="#191970" points="391.407,-735.3816 394.9328,-745.3726 398.407,-735.3636 391.407,-735.3816"/>
</g>
<!-- Node15 -->
<g id="node14" class="node">
<title>Node15</title>
<g id="a_node14"><a xlink:href="json__sax_8hpp.html" target="_top" xlink:title="/home/bdn_jz/bdn_jz\l/camera&#45;tracker&#45;cpp\l/CameraTrackerLinux/include\l/nlohmann/detail/input/json\l_sax.hpp">
<polygon fill="#ffffff" stroke="#000000" points="223,-645.5 223,-708.5 367,-708.5 367,-645.5 223,-645.5"/>
<text text-anchor="start" x="231" y="-696.5" font-family="Helvetica,sans-Serif" font-size="10.00" fill="#000000">/home/bdn_jz/bdn_jz</text>
<text text-anchor="start" x="231" y="-685.5" font-family="Helvetica,sans-Serif" font-size="10.00" fill="#000000">/camera&#45;tracker&#45;cpp</text>
<text text-anchor="start" x="231" y="-674.5" font-family="Helvetica,sans-Serif" font-size="10.00" fill="#000000">/CameraTrackerLinux/include</text>
<text text-anchor="start" x="231" y="-663.5" font-family="Helvetica,sans-Serif" font-size="10.00" fill="#000000">/nlohmann/detail/input/json</text>
<text text-anchor="middle" x="295" y="-652.5" font-family="Helvetica,sans-Serif" font-size="10.00" fill="#000000">_sax.hpp</text>
</a>
</g>
</g>
<!-- Node3&#45;&gt;Node15 -->
<g id="edge19" class="edge">
<title>Node3&#45;&gt;Node15</title>
<path fill="none" stroke="#191970" d="M359.8439,-738.2774C349.6793,-728.6719 338.6147,-718.2158 328.5506,-708.7054"/>
<polygon fill="#191970" stroke="#191970" points="357.7378,-741.1028 367.4098,-745.4273 362.5456,-736.0151 357.7378,-741.1028"/>
</g>
<!-- Node16 -->
<g id="node15" class="node">
<title>Node16</title>
<g id="a_node15"><a xlink:href="parser_8hpp.html" target="_top" xlink:title="/home/bdn_jz/bdn_jz\l/camera&#45;tracker&#45;cpp\l/CameraTrackerLinux/include\l/nlohmann/detail/input/parser.hpp">
<polygon fill="#ffffff" stroke="#000000" points="423.5,-551 423.5,-603 584.5,-603 584.5,-551 423.5,-551"/>
<text text-anchor="start" x="431.5" y="-591" font-family="Helvetica,sans-Serif" font-size="10.00" fill="#000000">/home/bdn_jz/bdn_jz</text>
<text text-anchor="start" x="431.5" y="-580" font-family="Helvetica,sans-Serif" font-size="10.00" fill="#000000">/camera&#45;tracker&#45;cpp</text>
<text text-anchor="start" x="431.5" y="-569" font-family="Helvetica,sans-Serif" font-size="10.00" fill="#000000">/CameraTrackerLinux/include</text>
<text text-anchor="middle" x="504" y="-558" font-family="Helvetica,sans-Serif" font-size="10.00" fill="#000000">/nlohmann/detail/input/parser.hpp</text>
</a>
</g>
</g>
<!-- Node3&#45;&gt;Node16 -->
<g id="edge23" class="edge">
<title>Node3&#45;&gt;Node16</title>
<path fill="none" stroke="#191970" d="M414.6139,-736.501C436.1032,-698.1553 470.0759,-637.5343 489.359,-603.1254"/>
<polygon fill="#191970" stroke="#191970" points="411.5358,-734.8342 409.7002,-745.2689 417.6423,-738.2564 411.5358,-734.8342"/>
</g>
<!-- Node17 -->
<g id="node16" class="node">
<title>Node17</title>
<g id="a_node16"><a xlink:href="iter__impl_8hpp.html" target="_top" xlink:title="/home/bdn_jz/bdn_jz\l/camera&#45;tracker&#45;cpp\l/CameraTrackerLinux/include\l/nlohmann/detail/iterators\l/iter_impl.hpp">
<polygon fill="#ffffff" stroke="#000000" points="603,-545.5 603,-608.5 747,-608.5 747,-545.5 603,-545.5"/>
<text text-anchor="start" x="611" y="-596.5" font-family="Helvetica,sans-Serif" font-size="10.00" fill="#000000">/home/bdn_jz/bdn_jz</text>
<text text-anchor="start" x="611" y="-585.5" font-family="Helvetica,sans-Serif" font-size="10.00" fill="#000000">/camera&#45;tracker&#45;cpp</text>
<text text-anchor="start" x="611" y="-574.5" font-family="Helvetica,sans-Serif" font-size="10.00" fill="#000000">/CameraTrackerLinux/include</text>
<text text-anchor="start" x="611" y="-563.5" font-family="Helvetica,sans-Serif" font-size="10.00" fill="#000000">/nlohmann/detail/iterators</text>
<text text-anchor="middle" x="675" y="-552.5" font-family="Helvetica,sans-Serif" font-size="10.00" fill="#000000">/iter_impl.hpp</text>
</a>
</g>
</g>
<!-- Node3&#45;&gt;Node17 -->
<g id="edge24" class="edge">
<title>Node3&#45;&gt;Node17</title>
<path fill="none" stroke="#191970" d="M440.8578,-739.6452C492.9424,-703.465 577.4205,-644.7829 629.3985,-608.6767"/>
<polygon fill="#191970" stroke="#191970" points="438.6877,-736.8911 432.4715,-745.4707 442.6812,-742.6401 438.6877,-736.8911"/>
</g>
<!-- Node18 -->
<g id="node17" class="node">
<title>Node18</title>
<g id="a_node17"><a xlink:href="json__pointer_8hpp.html" target="_top" xlink:title="/home/bdn_jz/bdn_jz\l/camera&#45;tracker&#45;cpp\l/CameraTrackerLinux/include\l/nlohmann/detail/json_pointer.hpp">
<polygon fill="#ffffff" stroke="#000000" points="614,-451 614,-503 776,-503 776,-451 614,-451"/>
<text text-anchor="start" x="622" y="-491" font-family="Helvetica,sans-Serif" font-size="10.00" fill="#000000">/home/bdn_jz/bdn_jz</text>
<text text-anchor="start" x="622" y="-480" font-family="Helvetica,sans-Serif" font-size="10.00" fill="#000000">/camera&#45;tracker&#45;cpp</text>
<text text-anchor="start" x="622" y="-469" font-family="Helvetica,sans-Serif" font-size="10.00" fill="#000000">/CameraTrackerLinux/include</text>
<text text-anchor="middle" x="695" y="-458" font-family="Helvetica,sans-Serif" font-size="10.00" fill="#000000">/nlohmann/detail/json_pointer.hpp</text>
</a>
</g>
</g>
<!-- Node3&#45;&gt;Node18 -->
<g id="edge26" class="edge">
<title>Node3&#45;&gt;Node18</title>
<path fill="none" stroke="#191970" d="M483.8074,-759.4395C570.3205,-742.4157 697.1428,-702.2169 756,-609 771.1861,-584.9486 766.169,-571.5646 756,-545 749.9333,-529.1518 738.2814,-514.6722 726.773,-503.1859"/>
<polygon fill="#191970" stroke="#191970" points="482.8986,-756.0495 473.7275,-761.3545 484.2051,-762.9265 482.8986,-756.0495"/>
</g>
<!-- Node5 -->
<g id="node4" class="node">
<title>Node5</title>
<g id="a_node4"><a xlink:href="_json_utilization_8h.html" target="_top" xlink:title="This file contains the declaration of the namespace jsonUtilization. ">
<polygon fill="#ffffff" stroke="#000000" points="263,-178.5 263,-230.5 407,-230.5 407,-178.5 263,-178.5"/>
<text text-anchor="start" x="271" y="-218.5" font-family="Helvetica,sans-Serif" font-size="10.00" fill="#000000">/home/bdn_jz/bdn_jz</text>
<text text-anchor="start" x="271" y="-207.5" font-family="Helvetica,sans-Serif" font-size="10.00" fill="#000000">/camera&#45;tracker&#45;cpp</text>
<text text-anchor="start" x="271" y="-196.5" font-family="Helvetica,sans-Serif" font-size="10.00" fill="#000000">/CameraTrackerLinux/include</text>
<text text-anchor="middle" x="335" y="-185.5" font-family="Helvetica,sans-Serif" font-size="10.00" fill="#000000">/JsonUtilization.h</text>
</a>
</g>
</g>
<!-- Node4&#45;&gt;Node5 -->
<g id="edge3" class="edge">
<title>Node4&#45;&gt;Node5</title>
<path fill="none" stroke="#191970" d="M335,-257.1155C335,-248.2061 335,-238.8475 335,-230.5341"/>
<polygon fill="#191970" stroke="#191970" points="331.5001,-257.2784 335,-267.2784 338.5001,-257.2785 331.5001,-257.2784"/>
</g>
<!-- Node6 -->
<g id="node5" class="node">
<title>Node6</title>
<g id="a_node5"><a xlink:href="_pose_estimation_8h.html" target="_top" xlink:title="This file contains the declaration of the PoseEstimation class. ">
<polygon fill="#ffffff" stroke="#000000" points="263,-89.5 263,-141.5 407,-141.5 407,-89.5 263,-89.5"/>
<text text-anchor="start" x="271" y="-129.5" font-family="Helvetica,sans-Serif" font-size="10.00" fill="#000000">/home/bdn_jz/bdn_jz</text>
<text text-anchor="start" x="271" y="-118.5" font-family="Helvetica,sans-Serif" font-size="10.00" fill="#000000">/camera&#45;tracker&#45;cpp</text>
<text text-anchor="start" x="271" y="-107.5" font-family="Helvetica,sans-Serif" font-size="10.00" fill="#000000">/CameraTrackerLinux/include</text>
<text text-anchor="middle" x="335" y="-96.5" font-family="Helvetica,sans-Serif" font-size="10.00" fill="#000000">/PoseEstimation.h</text>
</a>
</g>
</g>
<!-- Node5&#45;&gt;Node6 -->
<g id="edge4" class="edge">
<title>Node5&#45;&gt;Node6</title>
<path fill="none" stroke="#191970" d="M335,-168.1155C335,-159.2061 335,-149.8475 335,-141.5341"/>
<polygon fill="#191970" stroke="#191970" points="331.5001,-168.2784 335,-178.2784 338.5001,-168.2785 331.5001,-168.2784"/>
</g>
<!-- Node7 -->
<g id="node6" class="node">
<title>Node7</title>
<g id="a_node6"><a xlink:href="main_8cpp.html" target="_top" xlink:title="/home/bdn_jz/bdn_jz\l/camera&#45;tracker&#45;cpp\l/CameraTrackerLinux/main.cpp">
<polygon fill="#ffffff" stroke="#000000" points="158.5,-6 158.5,-47 311.5,-47 311.5,-6 158.5,-6"/>
<text text-anchor="start" x="166.5" y="-35" font-family="Helvetica,sans-Serif" font-size="10.00" fill="#000000">/home/bdn_jz/bdn_jz</text>
<text text-anchor="start" x="166.5" y="-24" font-family="Helvetica,sans-Serif" font-size="10.00" fill="#000000">/camera&#45;tracker&#45;cpp</text>
<text text-anchor="middle" x="235" y="-13" font-family="Helvetica,sans-Serif" font-size="10.00" fill="#000000">/CameraTrackerLinux/main.cpp</text>
</a>
</g>
</g>
<!-- Node5&#45;&gt;Node7 -->
<g id="edge7" class="edge">
<title>Node5&#45;&gt;Node7</title>
<path fill="none" stroke="#191970" d="M280.9869,-172.0704C270.5858,-163.5125 260.8214,-153.4232 254,-142 236.3921,-112.5138 233.7518,-71.623 233.9908,-47.2355"/>
<polygon fill="#191970" stroke="#191970" points="278.9816,-174.9445 289.0267,-178.313 283.2747,-169.4155 278.9816,-174.9445"/>
</g>
<!-- Node9 -->
<g id="node8" class="node">
<title>Node9</title>
<g id="a_node8"><a xlink:href="_json_utilization_8cpp.html" target="_top" xlink:title="/home/bdn_jz/bdn_jz\l/camera&#45;tracker&#45;cpp\l/CameraTrackerLinux/src\l/JsonUtilization.cpp">
<polygon fill="#ffffff" stroke="#000000" points="425.5,-89.5 425.5,-141.5 552.5,-141.5 552.5,-89.5 425.5,-89.5"/>
<text text-anchor="start" x="433.5" y="-129.5" font-family="Helvetica,sans-Serif" font-size="10.00" fill="#000000">/home/bdn_jz/bdn_jz</text>
<text text-anchor="start" x="433.5" y="-118.5" font-family="Helvetica,sans-Serif" font-size="10.00" fill="#000000">/camera&#45;tracker&#45;cpp</text>
<text text-anchor="start" x="433.5" y="-107.5" font-family="Helvetica,sans-Serif" font-size="10.00" fill="#000000">/CameraTrackerLinux/src</text>
<text text-anchor="middle" x="489" y="-96.5" font-family="Helvetica,sans-Serif" font-size="10.00" fill="#000000">/JsonUtilization.cpp</text>
</a>
</g>
</g>
<!-- Node5&#45;&gt;Node9 -->
<g id="edge8" class="edge">
<title>Node5&#45;&gt;Node9</title>
<path fill="none" stroke="#191970" d="M389.5074,-172.9989C407.3274,-162.7004 426.9091,-151.3837 443.9521,-141.5341"/>
<polygon fill="#191970" stroke="#191970" points="387.279,-170.2443 380.3721,-178.2784 390.7816,-176.305 387.279,-170.2443"/>
</g>
<!-- Node6&#45;&gt;Node7 -->
<g id="edge5" class="edge">
<title>Node6&#45;&gt;Node7</title>
<path fill="none" stroke="#191970" d="M297.8953,-82.4768C284.6068,-70.6501 270.014,-57.6625 258.2327,-47.1771"/>
<polygon fill="#191970" stroke="#191970" points="295.7407,-85.2446 305.5376,-89.2784 300.3945,-80.0156 295.7407,-85.2446"/>
</g>
<!-- Node8 -->
<g id="node7" class="node">
<title>Node8</title>
<g id="a_node7"><a xlink:href="_pose_estimation_8cpp.html" target="_top" xlink:title="/home/bdn_jz/bdn_jz\l/camera&#45;tracker&#45;cpp\l/CameraTrackerLinux/src\l/PoseEstimation.cpp">
<polygon fill="#ffffff" stroke="#000000" points="329.5,-.5 329.5,-52.5 456.5,-52.5 456.5,-.5 329.5,-.5"/>
<text text-anchor="start" x="337.5" y="-40.5" font-family="Helvetica,sans-Serif" font-size="10.00" fill="#000000">/home/bdn_jz/bdn_jz</text>
<text text-anchor="start" x="337.5" y="-29.5" font-family="Helvetica,sans-Serif" font-size="10.00" fill="#000000">/camera&#45;tracker&#45;cpp</text>
<text text-anchor="start" x="337.5" y="-18.5" font-family="Helvetica,sans-Serif" font-size="10.00" fill="#000000">/CameraTrackerLinux/src</text>
<text text-anchor="middle" x="393" y="-7.5" font-family="Helvetica,sans-Serif" font-size="10.00" fill="#000000">/PoseEstimation.cpp</text>
</a>
</g>
</g>
<!-- Node6&#45;&gt;Node8 -->
<g id="edge6" class="edge">
<title>Node6&#45;&gt;Node8</title>
<path fill="none" stroke="#191970" d="M357.5793,-80.8525C363.719,-71.4313 370.2629,-61.3897 376.0339,-52.5341"/>
<polygon fill="#191970" stroke="#191970" points="354.6158,-78.9895 352.0882,-89.2784 360.4804,-82.8114 354.6158,-78.9895"/>
</g>
<!-- Node10&#45;&gt;Node4 -->
<g id="edge10" class="edge">
<title>Node10&#45;&gt;Node4</title>
<path fill="none" stroke="#191970" d="M69.0909,-437.2032C51.8259,-411.9308 38.0779,-379.6485 57,-356 82.343,-324.3268 189.3066,-307.5849 262.9136,-299.6422"/>
<polygon fill="#191970" stroke="#191970" points="66.3616,-439.403 75.0387,-445.4825 72.0467,-435.3189 66.3616,-439.403"/>
</g>
<!-- Node11 -->
<g id="node10" class="node">
<title>Node11</title>
<g id="a_node10"><a xlink:href="adl__serializer_8hpp.html" target="_top" xlink:title="/home/bdn_jz/bdn_jz\l/camera&#45;tracker&#45;cpp\l/CameraTrackerLinux/include\l/nlohmann/adl_serializer.hpp">
<polygon fill="#ffffff" stroke="#000000" points="66,-356.5 66,-408.5 210,-408.5 210,-356.5 66,-356.5"/>
<text text-anchor="start" x="74" y="-396.5" font-family="Helvetica,sans-Serif" font-size="10.00" fill="#000000">/home/bdn_jz/bdn_jz</text>
<text text-anchor="start" x="74" y="-385.5" font-family="Helvetica,sans-Serif" font-size="10.00" fill="#000000">/camera&#45;tracker&#45;cpp</text>
<text text-anchor="start" x="74" y="-374.5" font-family="Helvetica,sans-Serif" font-size="10.00" fill="#000000">/CameraTrackerLinux/include</text>
<text text-anchor="middle" x="138" y="-363.5" font-family="Helvetica,sans-Serif" font-size="10.00" fill="#000000">/nlohmann/adl_serializer.hpp</text>
</a>
</g>
</g>
<!-- Node10&#45;&gt;Node11 -->
<g id="edge11" class="edge">
<title>Node10&#45;&gt;Node11</title>
<path fill="none" stroke="#191970" d="M118.2486,-435.8289C121.6659,-426.6021 125.1997,-417.0608 128.317,-408.6442"/>
<polygon fill="#191970" stroke="#191970" points="114.9429,-434.6769 114.7519,-445.27 121.5072,-437.1081 114.9429,-434.6769"/>
</g>
<!-- Node11&#45;&gt;Node4 -->
<g id="edge12" class="edge">
<title>Node11&#45;&gt;Node4</title>
<path fill="none" stroke="#191970" d="M204.9659,-352.2464C228.435,-341.6436 254.5741,-329.8346 277.2256,-319.6011"/>
<polygon fill="#191970" stroke="#191970" points="203.4476,-349.0917 195.7754,-356.3984 206.3296,-355.4709 203.4476,-349.0917"/>
</g>
<!-- Node12&#45;&gt;Node4 -->
<g id="edge14" class="edge">
<title>Node12&#45;&gt;Node4</title>
<path fill="none" stroke="#191970" d="M229.705,-535.6152C220.0665,-509.2828 212.317,-474.676 222,-445 238.438,-394.6216 279.108,-347.5121 306.894,-319.5968"/>
<polygon fill="#191970" stroke="#191970" points="226.5743,-537.2218 233.4591,-545.2747 233.0989,-534.686 226.5743,-537.2218"/>
</g>
<!-- Node13 -->
<g id="node12" class="node">
<title>Node13</title>
<g id="a_node12"><a xlink:href="binary__writer_8hpp.html" target="_top" xlink:title="/home/bdn_jz/bdn_jz\l/camera&#45;tracker&#45;cpp\l/CameraTrackerLinux/include\l/nlohmann/detail/output/binary\l_writer.hpp">
<polygon fill="#ffffff" stroke="#000000" points="231.5,-445.5 231.5,-508.5 378.5,-508.5 378.5,-445.5 231.5,-445.5"/>
<text text-anchor="start" x="239.5" y="-496.5" font-family="Helvetica,sans-Serif" font-size="10.00" fill="#000000">/home/bdn_jz/bdn_jz</text>
<text text-anchor="start" x="239.5" y="-485.5" font-family="Helvetica,sans-Serif" font-size="10.00" fill="#000000">/camera&#45;tracker&#45;cpp</text>
<text text-anchor="start" x="239.5" y="-474.5" font-family="Helvetica,sans-Serif" font-size="10.00" fill="#000000">/CameraTrackerLinux/include</text>
<text text-anchor="start" x="239.5" y="-463.5" font-family="Helvetica,sans-Serif" font-size="10.00" fill="#000000">/nlohmann/detail/output/binary</text>
<text text-anchor="middle" x="305" y="-452.5" font-family="Helvetica,sans-Serif" font-size="10.00" fill="#000000">_writer.hpp</text>
</a>
</g>
</g>
<!-- Node12&#45;&gt;Node13 -->
<g id="edge15" class="edge">
<title>Node12&#45;&gt;Node13</title>
<path fill="none" stroke="#191970" d="M271.7572,-536.3622C276.9043,-527.1709 282.2966,-517.5418 287.2043,-508.778"/>
<polygon fill="#191970" stroke="#191970" points="268.5511,-534.9242 266.7188,-545.3594 274.6586,-538.3444 268.5511,-534.9242"/>
</g>
<!-- Node13&#45;&gt;Node4 -->
<g id="edge16" class="edge">
<title>Node13&#45;&gt;Node4</title>
<path fill="none" stroke="#191970" d="M294.1885,-435.2194C289.875,-411.5516 287.4974,-381.6407 295,-356 298.7987,-343.0176 306.2104,-330.1705 313.6323,-319.5318"/>
<polygon fill="#191970" stroke="#191970" points="290.8084,-436.165 296.205,-445.2824 297.6719,-434.7896 290.8084,-436.165"/>
</g>
<!-- Node13&#45;&gt;Node14 -->
<g id="edge17" class="edge">
<title>Node13&#45;&gt;Node14</title>
<path fill="none" stroke="#191970" d="M341.8594,-437.8628C351.1347,-428.0143 360.8666,-417.681 369.3775,-408.6442"/>
<polygon fill="#191970" stroke="#191970" points="339.1915,-435.5906 334.8833,-445.27 344.2873,-440.3898 339.1915,-435.5906"/>
</g>
<!-- Node14&#45;&gt;Node4 -->
<g id="edge18" class="edge">
<title>Node14&#45;&gt;Node4</title>
<path fill="none" stroke="#191970" d="M371.0314,-347.8525C364.7859,-338.4313 358.1291,-328.3897 352.2586,-319.5341"/>
<polygon fill="#191970" stroke="#191970" points="368.1745,-349.8774 376.6172,-356.2784 374.009,-346.0096 368.1745,-349.8774"/>
</g>
<!-- Node15&#45;&gt;Node12 -->
<g id="edge20" class="edge">
<title>Node15&#45;&gt;Node12</title>
<path fill="none" stroke="#191970" d="M276.1744,-636.0748C271.9864,-626.9704 267.6073,-617.4505 263.6179,-608.778"/>
<polygon fill="#191970" stroke="#191970" points="273.0865,-637.7372 280.4453,-645.3594 279.4459,-634.8118 273.0865,-637.7372"/>
</g>
<!-- Node15&#45;&gt;Node16 -->
<g id="edge21" class="edge">
<title>Node15&#45;&gt;Node16</title>
<path fill="none" stroke="#191970" d="M369.9891,-641.12C396.2017,-628.5781 425.1129,-614.745 449.3511,-603.1478"/>
<polygon fill="#191970" stroke="#191970" points="368.352,-638.0233 360.842,-645.4966 371.3733,-644.3377 368.352,-638.0233"/>
</g>
<!-- Node16&#45;&gt;Node4 -->
<g id="edge22" class="edge">
<title>Node16&#45;&gt;Node4</title>
<path fill="none" stroke="#191970" d="M512.9769,-540.8494C522.4608,-493.6211 531.1905,-410.5383 492,-356 472.2267,-328.4831 438.3374,-313.0736 407.0946,-304.4478"/>
<polygon fill="#191970" stroke="#191970" points="509.4916,-540.4123 510.8326,-550.9219 516.3382,-541.8699 509.4916,-540.4123"/>
</g>
<!-- Node17&#45;&gt;Node4 -->
<g id="edge25" class="edge">
<title>Node17&#45;&gt;Node4</title>
<path fill="none" stroke="#191970" d="M631.1505,-538.148C621.9936,-529.0382 612.7715,-519.0453 605,-509 557.1343,-447.1293 578.2589,-405.8796 518,-356 486.5776,-329.99 443.7605,-314.5908 407.4427,-305.5893"/>
<polygon fill="#191970" stroke="#191970" points="628.8423,-540.7855 638.4512,-545.2487 633.7229,-535.7675 628.8423,-540.7855"/>
</g>
<!-- Node18&#45;&gt;Node4 -->
<g id="edge27" class="edge">
<title>Node18&#45;&gt;Node4</title>
<path fill="none" stroke="#191970" d="M668.6737,-442.9912C645.7196,-415.6092 610.0513,-378.1534 571,-356 520.2174,-327.1916 455.755,-311.2899 407.038,-302.7462"/>
<polygon fill="#191970" stroke="#191970" points="666.031,-445.2879 675.0906,-450.7811 671.434,-440.8373 666.031,-445.2879"/>
</g>
<!-- Node19&#45;&gt;Node4 -->
<g id="edge30" class="edge">
<title>Node19&#45;&gt;Node4</title>
<path fill="none" stroke="#191970" d="M848.4535,-640.4765C844.591,-591.0986 831.1992,-502.6108 785,-445 732.6287,-379.6926 697.5109,-385.0491 619,-356 549.1612,-330.1596 465.5201,-313.3479 407.1663,-303.739"/>
<polygon fill="#191970" stroke="#191970" points="844.9779,-640.9517 849.159,-650.6866 851.9612,-640.469 844.9779,-640.9517"/>
</g>
<!-- Node19&#45;&gt;Node16 -->
<g id="edge31" class="edge">
<title>Node19&#45;&gt;Node16</title>
<path fill="none" stroke="#191970" d="M762.4784,-655.6448C712.7853,-643.0479 649.5904,-626.2341 594,-609 587.981,-607.134 581.7658,-605.1169 575.5454,-603.0346"/>
<polygon fill="#191970" stroke="#191970" points="761.6782,-659.0525 772.2307,-658.1068 763.3916,-652.2654 761.6782,-659.0525"/>
</g>
</g>
</svg>
        <g id="navigator" transform="translate(0 0)" fill="#404254">
                <rect fill="#f2f5e9" fill-opacity="0.5" stroke="#606060" stroke-width=".5" x="0" y="0" width="60" height="60"/>
                <use id="zoomplus" xlink:href="#zoomPlus" x="17" y="9" onmousedown="handleZoom(evt,'in')"/>
                <use id="zoomminus" xlink:href="#zoomMin" x="42" y="9" onmousedown="handleZoom(evt,'out')"/>
                <use id="reset" xlink:href="#resetDef" x="30" y="36" onmousedown="handleReset()"/>
                <g id="arrowUp" xlink:href="#dirArrow" transform="translate(30 24)" onmousedown="handlePan(0,-1)">
                  <use xlink:href="#rim" fill="#404040">
                        <set attributeName="fill" to="#808080" begin="arrowUp.mouseover" end="arrowUp.mouseout"/>
                  </use>
                  <path fill="none" stroke="white" stroke-width="1.5" d="M0,-3.0v7 M-2.5,-0.5L0,-3.0L2.5,-0.5"/>
                </g>
                <g id="arrowRight" xlink:href="#dirArrow" transform="rotate(90) translate(36 -43)" onmousedown="handlePan(1,0)">
                  <use xlink:href="#rim" fill="#404040">
                        <set attributeName="fill" to="#808080" begin="arrowRight.mouseover" end="arrowRight.mouseout"/>
                  </use>
                  <path fill="none" stroke="white" stroke-width="1.5" d="M0,-3.0v7 M-2.5,-0.5L0,-3.0L2.5,-0.5"/>
                </g>
                <g id="arrowDown" xlink:href="#dirArrow" transform="rotate(180) translate(-30 -48)" onmousedown="handlePan(0,1)">
                  <use xlink:href="#rim" fill="#404040">
                        <set attributeName="fill" to="#808080" begin="arrowDown.mouseover" end="arrowDown.mouseout"/>
                  </use>
                  <path fill="none" stroke="white" stroke-width="1.5" d="M0,-3.0v7 M-2.5,-0.5L0,-3.0L2.5,-0.5"/>
                </g>
                <g id="arrowLeft" xlink:href="#dirArrow" transform="rotate(270) translate(-36 17)" onmousedown="handlePan(-1,0)">
                  <use xlink:href="#rim" fill="#404040">
                        <set attributeName="fill" to="#808080" begin="arrowLeft.mouseover" end="arrowLeft.mouseout"/>
                  </use>
                  <path fill="none" stroke="white" stroke-width="1.5" d="M0,-3.0v7 M-2.5,-0.5L0,-3.0L2.5,-0.5"/>
                </g>
        </g>
        <svg viewBox="0 0 15 15" width="100%" height="30px" preserveAspectRatio="xMaxYMin meet">
         <g id="arrow_out" transform="scale(0.3 0.3)">
          <a xlink:href="position__t_8hpp__dep__incl_org.svg" target="_base">
           <rect id="button" ry="5" rx="5" y="6" x="6" height="38" width="38"
                fill="#f2f5e9" fill-opacity="0.5" stroke="#606060" stroke-width="1.0"/>
           <path id="arrow"
             d="M 11.500037,31.436501 C 11.940474,20.09759 22.043105,11.32322 32.158766,21.979434 L 37.068811,17.246167 C 37.068811,17.246167 37.088388,32 37.088388,32 L 22.160133,31.978069 C 22.160133,31.978069 26.997745,27.140456 26.997745,27.140456 C 18.528582,18.264221 13.291696,25.230495 11.500037,31.436501 z"
             style="fill:#404040;"/>
          </a>
         </g>
        </svg>
</svg>
