<?xml version="1.0" encoding="UTF-8" standalone="no"?>
<!DOCTYPE svg PUBLIC "-//W3C//DTD SVG 1.1//EN"
 "http://www.w3.org/Graphics/SVG/1.1/DTD/svg11.dtd">
<!-- Generated by graphviz version 2.40.1 (20161225.0304)
 -->
<!-- Title: /home/bdn_jz/bdn_jz/camera&#45;tracker&#45;cpp/CameraTrackerLinux/include/nlohmann/detail/output/serializer.hpp Pages: 1 -->
<!--zoomable 519 -->
<svg id="main" version="1.1" xmlns="http://www.w3.org/2000/svg" xmlns:xlink="http://www.w3.org/1999/xlink" xml:space="preserve" onload="init(evt)">
<style type="text/css"><![CDATA[
.edge:hover path { stroke: red; }
.edge:hover polygon { stroke: red; fill: red; }
]]></style>
<script type="text/javascript"><![CDATA[
var edges = document.getElementsByTagName('g');
if (edges && edges.length) {
  for (var i=0;i<edges.length;i++) {
    if (edges[i].id.substr(0,4)=='edge') {
      edges[i].setAttribute('class','edge');
    }
  }
}
]]></script>
        <defs>
                <circle id="rim" cx="0" cy="0" r="7"/>
                <circle id="rim2" cx="0" cy="0" r="3.5"/>
                <g id="zoomPlus">
                        <use xlink:href="#rim" target="_top" fill="#404040">
                                <set attributeName="fill" to="#808080" begin="zoomplus.mouseover" end="zoomplus.mouseout"/>
                        </use>
                        <path d="M-4,0h8M0,-4v8" fill="none" stroke="white" stroke-width="1.5" pointer-events="none"/>
                </g>
                <g id="zoomMin">
                        <use xlink:href="#rim" target="_top" fill="#404040">
                                <set attributeName="fill" to="#808080" begin="zoomminus.mouseover" end="zoomminus.mouseout"/>
                        </use>
                        <path d="M-4,0h8" fill="none" stroke="white" stroke-width="1.5" pointer-events="none"/>
                </g>
                <g id="dirArrow">
                        <path fill="none" stroke="white" stroke-width="1.5" d="M0,-3.0v7 M-2.5,-0.5L0,-3.0L2.5,-0.5"/>
                </g>
               <g id="resetDef">
                       <use xlink:href="#rim2" target="_top" fill="#404040">
                               <set attributeName="fill" to="#808080" begin="reset.mouseover" end="reset.mouseout"/>
                       </use>
               </g>
        </defs>

<script type="text/javascript">
var viewWidth = 3199;
var viewHeight = 519;
var sectionId = 'dynsection-0';
</script>
<script xlink:href="svgpan.js" target="_top"/>
<svg id="graph" class="graph">
<g id="viewport">
<title>/home/bdn_jz/bdn_jz/camera&#45;tracker&#45;cpp/CameraTrackerLinux/include/nlohmann/detail/output/serializer.hpp</title>
<polygon fill="#ffffff" stroke="transparent" points="-4,4 -4,-515 3194.5,-515 3194.5,4 -4,4"/>
<!-- Node0 -->
<g id="node1" class="node">
<title>Node0</title>
<polygon fill="#bfbfbf" stroke="#000000" points="2506.5,-458.5 2506.5,-510.5 2685.5,-510.5 2685.5,-458.5 2506.5,-458.5"/>
<text text-anchor="start" x="2514.5" y="-498.5" font-family="Helvetica,sans-Serif" font-size="10.00" fill="#000000">/home/bdn_jz/bdn_jz</text>
<text text-anchor="start" x="2514.5" y="-487.5" font-family="Helvetica,sans-Serif" font-size="10.00" fill="#000000">/camera&#45;tracker&#45;cpp</text>
<text text-anchor="start" x="2514.5" y="-476.5" font-family="Helvetica,sans-Serif" font-size="10.00" fill="#000000">/CameraTrackerLinux/include</text>
<text text-anchor="middle" x="2596" y="-465.5" font-family="Helvetica,sans-Serif" font-size="10.00" fill="#000000">/nlohmann/detail/output/serializer.hpp</text>
</g>
<!-- Node1 -->
<g id="node2" class="node">
<title>Node1</title>
<polygon fill="#ffffff" stroke="#bfbfbf" points="412,-129 412,-148 468,-148 468,-129 412,-129"/>
<text text-anchor="middle" x="440" y="-136" font-family="Helvetica,sans-Serif" font-size="10.00" fill="#000000">algorithm</text>
</g>
<!-- Node0&#45;&gt;Node1 -->
<g id="edge1" class="edge">
<title>Node0&#45;&gt;Node1</title>
<path fill="none" stroke="#191970" d="M2506.3311,-483.216C2095.1921,-477.1773 408.3381,-450.6917 362,-422 326.6689,-400.1236 318,-381.0556 318,-339.5 318,-339.5 318,-339.5 318,-272.5 318,-217.0491 375.828,-174.4355 411.8576,-153.2666"/>
<polygon fill="#191970" stroke="#191970" points="413.9694,-156.0924 420.9375,-148.1114 410.5133,-150.0051 413.9694,-156.0924"/>
</g>
<!-- Node2 -->
<g id="node3" class="node">
<title>Node2</title>
<polygon fill="#ffffff" stroke="#bfbfbf" points="2286,-129 2286,-148 2324,-148 2324,-129 2286,-129"/>
<text text-anchor="middle" x="2305" y="-136" font-family="Helvetica,sans-Serif" font-size="10.00" fill="#000000">array</text>
</g>
<!-- Node0&#45;&gt;Node2 -->
<g id="edge2" class="edge">
<title>Node0&#45;&gt;Node2</title>
<path fill="none" stroke="#191970" d="M2590.3434,-458.4462C2578.4366,-410.2837 2545.9983,-307.6298 2477,-257 2403.8306,-203.3094 2334.2425,-290.6007 2276,-221 2260.2587,-202.1889 2275.9366,-174.2622 2289.6459,-156.218"/>
<polygon fill="#191970" stroke="#191970" points="2292.5264,-158.2213 2296.0714,-148.2371 2287.0739,-153.8314 2292.5264,-158.2213"/>
</g>
<!-- Node3 -->
<g id="node4" class="node">
<title>Node3</title>
<polygon fill="#ffffff" stroke="#bfbfbf" points="2218.5,-129 2218.5,-148 2267.5,-148 2267.5,-129 2218.5,-129"/>
<text text-anchor="middle" x="2243" y="-136" font-family="Helvetica,sans-Serif" font-size="10.00" fill="#000000">cassert</text>
</g>
<!-- Node0&#45;&gt;Node3 -->
<g id="edge3" class="edge">
<title>Node0&#45;&gt;Node3</title>
<path fill="none" stroke="#191970" d="M2546.4758,-458.4006C2473.8636,-417.5706 2339.214,-331.6752 2266,-221 2253.3558,-201.8861 2247.5997,-175.883 2245.0209,-158.2146"/>
<polygon fill="#191970" stroke="#191970" points="2248.4819,-157.6839 2243.7685,-148.1952 2241.536,-158.5522 2248.4819,-157.6839"/>
</g>
<!-- Node4 -->
<g id="node5" class="node">
<title>Node4</title>
<polygon fill="#ffffff" stroke="#bfbfbf" points="2466,-.5 2466,-19.5 2516,-19.5 2516,-.5 2466,-.5"/>
<text text-anchor="middle" x="2491" y="-7.5" font-family="Helvetica,sans-Serif" font-size="10.00" fill="#000000">ciso646</text>
</g>
<!-- Node0&#45;&gt;Node4 -->
<g id="edge4" class="edge">
<title>Node0&#45;&gt;Node4</title>
<path fill="none" stroke="#191970" d="M2685.6188,-478.489C2819.881,-468.6975 3060.7991,-447.7831 3091,-422 3120.0426,-397.2058 3115,-377.6867 3115,-339.5 3115,-339.5 3115,-339.5 3115,-138.5 3115,-77.9243 2658.059,-26.9241 2526.2151,-13.4695"/>
<polygon fill="#191970" stroke="#191970" points="2526.536,-9.9842 2516.2344,-12.4595 2525.8312,-16.9486 2526.536,-9.9842"/>
</g>
<!-- Node5 -->
<g id="node6" class="node">
<title>Node5</title>
<polygon fill="#ffffff" stroke="#bfbfbf" points="3143.5,-397 3143.5,-416 3190.5,-416 3190.5,-397 3143.5,-397"/>
<text text-anchor="middle" x="3167" y="-404" font-family="Helvetica,sans-Serif" font-size="10.00" fill="#000000">clocale</text>
</g>
<!-- Node0&#45;&gt;Node5 -->
<g id="edge5" class="edge">
<title>Node0&#45;&gt;Node5</title>
<path fill="none" stroke="#191970" d="M2685.5275,-481.3786C2792.5326,-475.9669 2976.2928,-461.3198 3129,-422 3131.6263,-421.3238 3134.3116,-420.506 3136.9804,-419.6037"/>
<polygon fill="#191970" stroke="#191970" points="3138.2971,-422.8481 3146.4381,-416.0677 3135.8456,-416.2914 3138.2971,-422.8481"/>
</g>
<!-- Node6 -->
<g id="node7" class="node">
<title>Node6</title>
<polygon fill="#ffffff" stroke="#bfbfbf" points="524,-129 524,-148 568,-148 568,-129 524,-129"/>
<text text-anchor="middle" x="546" y="-136" font-family="Helvetica,sans-Serif" font-size="10.00" fill="#000000">cmath</text>
</g>
<!-- Node0&#45;&gt;Node6 -->
<g id="edge6" class="edge">
<title>Node0&#45;&gt;Node6</title>
<path fill="none" stroke="#191970" d="M2506.3147,-483.2161C2098.9832,-477.2282 441.0246,-451.106 396,-422 361.7787,-399.8778 356,-380.2492 356,-339.5 356,-339.5 356,-339.5 356,-272.5 356,-196.0901 459.8901,-159.4133 514.0267,-145.4883"/>
<polygon fill="#191970" stroke="#191970" points="514.959,-148.8634 523.8327,-143.0749 513.286,-142.0662 514.959,-148.8634"/>
</g>
<!-- Node7 -->
<g id="node8" class="node">
<title>Node7</title>
<polygon fill="#ffffff" stroke="#bfbfbf" points="828.5,-.5 828.5,-19.5 877.5,-19.5 877.5,-.5 828.5,-.5"/>
<text text-anchor="middle" x="853" y="-7.5" font-family="Helvetica,sans-Serif" font-size="10.00" fill="#000000">cstddef</text>
</g>
<!-- Node0&#45;&gt;Node7 -->
<g id="edge7" class="edge">
<title>Node0&#45;&gt;Node7</title>
<path fill="none" stroke="#191970" d="M2506.4148,-483.4637C2061.1455,-478.1698 105.3457,-453.1765 51,-422 13.6087,-400.5497 0,-382.6071 0,-339.5 0,-339.5 0,-339.5 0,-138.5 0,-27.8063 126.6458,-78.6376 235,-56 347.8635,-32.4203 704.9472,-16.0794 818.1886,-11.385"/>
<polygon fill="#191970" stroke="#191970" points="818.5218,-14.8744 828.3699,-10.9672 818.2347,-7.8802 818.5218,-14.8744"/>
</g>
<!-- Node8 -->
<g id="node9" class="node">
<title>Node8</title>
<polygon fill="#ffffff" stroke="#bfbfbf" points="2379,-62 2379,-81 2425,-81 2425,-62 2379,-62"/>
<text text-anchor="middle" x="2402" y="-69" font-family="Helvetica,sans-Serif" font-size="10.00" fill="#000000">cstdint</text>
</g>
<!-- Node0&#45;&gt;Node8 -->
<g id="edge8" class="edge">
<title>Node0&#45;&gt;Node8</title>
<path fill="none" stroke="#191970" d="M2685.872,-482.1876C2794.09,-477.558 2967.2901,-463.6667 3015,-422 3043.7621,-396.881 3039,-377.6867 3039,-339.5 3039,-339.5 3039,-339.5 3039,-205.5 3039,-167.3133 3044.5542,-147.1821 3015,-123 3013.5819,-121.8397 2563.527,-84.7743 2435.5699,-74.2572"/>
<polygon fill="#191970" stroke="#191970" points="2435.4748,-70.7376 2425.2217,-73.4068 2434.9014,-77.7141 2435.4748,-70.7376"/>
</g>
<!-- Node9 -->
<g id="node10" class="node">
<title>Node9</title>
<polygon fill="#ffffff" stroke="#bfbfbf" points="2672.5,-129 2672.5,-148 2715.5,-148 2715.5,-129 2672.5,-129"/>
<text text-anchor="middle" x="2694" y="-136" font-family="Helvetica,sans-Serif" font-size="10.00" fill="#000000">cstdio</text>
</g>
<!-- Node0&#45;&gt;Node9 -->
<g id="edge9" class="edge">
<title>Node0&#45;&gt;Node9</title>
<path fill="none" stroke="#191970" d="M2621.9541,-458.4665C2631.1346,-447.9249 2640.7277,-435.1452 2647,-422 2690.5675,-330.6935 2694.6041,-206.1577 2694.3995,-158.3244"/>
<polygon fill="#191970" stroke="#191970" points="2697.897,-158.0776 2694.2822,-148.1185 2690.8975,-158.1581 2697.897,-158.0776"/>
</g>
<!-- Node10 -->
<g id="node11" class="node">
<title>Node10</title>
<polygon fill="#ffffff" stroke="#bfbfbf" points="2810,-129 2810,-148 2850,-148 2850,-129 2810,-129"/>
<text text-anchor="middle" x="2830" y="-136" font-family="Helvetica,sans-Serif" font-size="10.00" fill="#000000">limits</text>
</g>
<!-- Node0&#45;&gt;Node10 -->
<g id="edge10" class="edge">
<title>Node0&#45;&gt;Node10</title>
<path fill="none" stroke="#191970" d="M2685.9007,-463.465C2783.3115,-437.9935 2925,-391.9323 2925,-339.5 2925,-339.5 2925,-339.5 2925,-272.5 2925,-222.1048 2879.7302,-177.4317 2851.6907,-154.5952"/>
<polygon fill="#191970" stroke="#191970" points="2853.6315,-151.6684 2843.6112,-148.2269 2849.2983,-157.166 2853.6315,-151.6684"/>
</g>
<!-- Node11 -->
<g id="node12" class="node">
<title>Node11</title>
<polygon fill="#ffffff" stroke="#bfbfbf" points="759.5,-62 759.5,-81 800.5,-81 800.5,-62 759.5,-62"/>
<text text-anchor="middle" x="780" y="-69" font-family="Helvetica,sans-Serif" font-size="10.00" fill="#000000">string</text>
</g>
<!-- Node0&#45;&gt;Node11 -->
<g id="edge11" class="edge">
<title>Node0&#45;&gt;Node11</title>
<path fill="none" stroke="#191970" d="M2506.2639,-483.7309C2106.1942,-480.0796 495.1248,-462.9389 273,-422 164.1398,-401.9365 38,-450.1937 38,-339.5 38,-339.5 38,-339.5 38,-205.5 38,-155.0399 70.2761,-144.3435 116,-123 236.835,-66.5955 583.0881,-106.5399 715,-87 726.3925,-85.3124 738.7239,-82.6028 749.5528,-79.9176"/>
<polygon fill="#191970" stroke="#191970" points="750.583,-83.2667 759.3951,-77.3848 748.8384,-76.4875 750.583,-83.2667"/>
</g>
<!-- Node12 -->
<g id="node13" class="node">
<title>Node12</title>
<polygon fill="#ffffff" stroke="#bfbfbf" points="2117,-.5 2117,-19.5 2179,-19.5 2179,-.5 2117,-.5"/>
<text text-anchor="middle" x="2148" y="-7.5" font-family="Helvetica,sans-Serif" font-size="10.00" fill="#000000">type_traits</text>
</g>
<!-- Node0&#45;&gt;Node12 -->
<g id="edge12" class="edge">
<title>Node0&#45;&gt;Node12</title>
<path fill="none" stroke="#191970" d="M2685.5778,-481.8295C2798.5485,-476.7964 2984.6295,-462.4523 3039,-422 3071.3883,-397.9027 3077,-379.8693 3077,-339.5 3077,-339.5 3077,-339.5 3077,-205.5 3077,-165.1307 3071.5563,-146.8698 3039,-123 3004.1083,-97.4178 2359.8174,-31.2399 2189.1803,-14.1016"/>
<polygon fill="#191970" stroke="#191970" points="2189.3944,-10.6056 2179.0951,-13.0904 2188.696,-17.5707 2189.3944,-10.6056"/>
</g>
<!-- Node13 -->
<g id="node14" class="node">
<title>Node13</title>
<polygon fill="#ffffff" stroke="#bfbfbf" points="1805,-62 1805,-81 1845,-81 1845,-62 1805,-62"/>
<text text-anchor="middle" x="1825" y="-69" font-family="Helvetica,sans-Serif" font-size="10.00" fill="#000000">utility</text>
</g>
<!-- Node0&#45;&gt;Node13 -->
<g id="edge13" class="edge">
<title>Node0&#45;&gt;Node13</title>
<path fill="none" stroke="#191970" d="M2685.6809,-473.7928C2738.952,-464.9503 2806.682,-449.2592 2862,-422 2913.9912,-396.3802 2963,-397.4608 2963,-339.5 2963,-339.5 2963,-339.5 2963,-272.5 2963,-252.2649 2877.0569,-132.1328 2859,-123 2778.0143,-82.0394 2133.6047,-92.2187 2043,-87 1975.9202,-83.1363 1897.3304,-77.2012 1855.2521,-73.9092"/>
<polygon fill="#191970" stroke="#191970" points="1855.3689,-70.4076 1845.1252,-73.1127 1854.82,-77.3861 1855.3689,-70.4076"/>
</g>
<!-- Node14 -->
<g id="node15" class="node">
<title>Node14</title>
<g id="a_node15"><a xlink:href="to__chars_8hpp.html" target="_top" target="_top" xlink:title="nlohmann/detail/conversions\l/to_chars.hpp">
<polygon fill="#ffffff" stroke="#000000" points="2491,-190.5 2491,-220.5 2631,-220.5 2631,-190.5 2491,-190.5"/>
<text text-anchor="start" x="2499" y="-208.5" font-family="Helvetica,sans-Serif" font-size="10.00" fill="#000000">nlohmann/detail/conversions</text>
<text text-anchor="middle" x="2561" y="-197.5" font-family="Helvetica,sans-Serif" font-size="10.00" fill="#000000">/to_chars.hpp</text>
</a>
</g>
</g>
<!-- Node0&#45;&gt;Node14 -->
<g id="edge14" class="edge">
<title>Node0&#45;&gt;Node14</title>
<path fill="none" stroke="#191970" d="M2613.49,-458.2758C2619.6763,-447.5101 2625.8717,-434.6247 2629,-422 2646.6379,-350.8194 2661.6418,-322.668 2629,-257 2622.8017,-244.5303 2611.9824,-234.2729 2600.7731,-226.2849"/>
<polygon fill="#191970" stroke="#191970" points="2602.4687,-223.2103 2592.1954,-220.6198 2598.611,-229.0514 2602.4687,-223.2103"/>
</g>
<!-- Node16 -->
<g id="node17" class="node">
<title>Node16</title>
<g id="a_node17"><a xlink:href="macro__scope_8hpp.html" target="_top" target="_top" xlink:title="nlohmann/detail/macro\l_scope.hpp">
<polygon fill="#ffffff" stroke="#000000" points="893.5,-123.5 893.5,-153.5 1008.5,-153.5 1008.5,-123.5 893.5,-123.5"/>
<text text-anchor="start" x="901.5" y="-141.5" font-family="Helvetica,sans-Serif" font-size="10.00" fill="#000000">nlohmann/detail/macro</text>
<text text-anchor="middle" x="951" y="-130.5" font-family="Helvetica,sans-Serif" font-size="10.00" fill="#000000">_scope.hpp</text>
</a>
</g>
</g>
<!-- Node0&#45;&gt;Node16 -->
<g id="edge34" class="edge">
<title>Node0&#45;&gt;Node16</title>
<path fill="none" stroke="#191970" d="M2506.3902,-479.4747C2234.3021,-463.7326 1420.5536,-412.9568 1162,-355 1077.4842,-336.0551 1040.8301,-348.6537 979,-288 945.9749,-255.6032 945.0381,-197.5309 947.737,-164.0984"/>
<polygon fill="#191970" stroke="#191970" points="951.2563,-164.0719 948.7505,-153.7776 944.2898,-163.3877 951.2563,-164.0719"/>
</g>
<!-- Node19 -->
<g id="node20" class="node">
<title>Node19</title>
<g id="a_node20"><a xlink:href="exceptions_8hpp.html" target="_top" target="_top" xlink:title="nlohmann/detail/exceptions.hpp">
<polygon fill="#ffffff" stroke="#000000" points="688,-196 688,-215 842,-215 842,-196 688,-196"/>
<text text-anchor="middle" x="765" y="-203" font-family="Helvetica,sans-Serif" font-size="10.00" fill="#000000">nlohmann/detail/exceptions.hpp</text>
</a>
</g>
</g>
<!-- Node0&#45;&gt;Node19 -->
<g id="edge27" class="edge">
<title>Node0&#45;&gt;Node19</title>
<path fill="none" stroke="#191970" d="M2506.1898,-483.616C2100.253,-479.4116 454.9687,-460.0447 418,-422 387.6465,-390.763 396.3684,-361.8042 418,-324 447.1874,-272.991 477.3026,-278.4948 532,-257 581.3024,-237.6253 639.483,-224.7569 685.3726,-216.7289"/>
<polygon fill="#191970" stroke="#191970" points="685.9991,-220.1726 695.2672,-215.0392 684.8207,-213.2725 685.9991,-220.1726"/>
</g>
<!-- Node23 -->
<g id="node24" class="node">
<title>Node23</title>
<g id="a_node24"><a xlink:href="cpp__future_8hpp.html" target="_top" target="_top" xlink:title="nlohmann/detail/meta\l/cpp_future.hpp">
<polygon fill="#ffffff" stroke="#000000" points="2052,-56.5 2052,-86.5 2162,-86.5 2162,-56.5 2052,-56.5"/>
<text text-anchor="start" x="2060" y="-74.5" font-family="Helvetica,sans-Serif" font-size="10.00" fill="#000000">nlohmann/detail/meta</text>
<text text-anchor="middle" x="2107" y="-63.5" font-family="Helvetica,sans-Serif" font-size="10.00" fill="#000000">/cpp_future.hpp</text>
</a>
</g>
</g>
<!-- Node0&#45;&gt;Node23 -->
<g id="edge35" class="edge">
<title>Node0&#45;&gt;Node23</title>
<path fill="none" stroke="#191970" d="M2685.6133,-480.6326C2784.3954,-474.5452 2934.9239,-459.2886 2977,-422 3005.579,-396.6729 3001,-377.6867 3001,-339.5 3001,-339.5 3001,-339.5 3001,-205.5 3001,-144.7439 2948.9318,-144.2151 2892,-123 2883.5903,-119.8662 2359.3768,-87.1348 2172.3807,-75.5422"/>
<polygon fill="#191970" stroke="#191970" points="2172.3396,-72.033 2162.1423,-74.9077 2171.9066,-79.0196 2172.3396,-72.033"/>
</g>
<!-- Node24 -->
<g id="node25" class="node">
<title>Node24</title>
<g id="a_node25"><a xlink:href="binary__writer_8hpp.html" target="_top" target="_top" xlink:title="nlohmann/detail/output\l/binary_writer.hpp">
<polygon fill="#ffffff" stroke="#000000" points="2043.5,-391.5 2043.5,-421.5 2158.5,-421.5 2158.5,-391.5 2043.5,-391.5"/>
<text text-anchor="start" x="2051.5" y="-409.5" font-family="Helvetica,sans-Serif" font-size="10.00" fill="#000000">nlohmann/detail/output</text>
<text text-anchor="middle" x="2101" y="-398.5" font-family="Helvetica,sans-Serif" font-size="10.00" fill="#000000">/binary_writer.hpp</text>
</a>
</g>
</g>
<!-- Node0&#45;&gt;Node24 -->
<g id="edge39" class="edge">
<title>Node0&#45;&gt;Node24</title>
<path fill="none" stroke="#191970" d="M2506.3592,-470.3748C2409.2116,-455.0667 2256.374,-430.9832 2168.7598,-417.1773"/>
<polygon fill="#191970" stroke="#191970" points="2169.09,-413.6862 2158.6671,-415.5869 2168.0004,-420.6009 2169.09,-413.6862"/>
</g>
<!-- Node40 -->
<g id="node41" class="node">
<title>Node40</title>
<g id="a_node41"><a xlink:href="value__t_8hpp.html" target="_top" target="_top" xlink:title="nlohmann/detail/value\l_t.hpp">
<polygon fill="#ffffff" stroke="#000000" points="2285.5,-190.5 2285.5,-220.5 2396.5,-220.5 2396.5,-190.5 2285.5,-190.5"/>
<text text-anchor="start" x="2293.5" y="-208.5" font-family="Helvetica,sans-Serif" font-size="10.00" fill="#000000">nlohmann/detail/value</text>
<text text-anchor="middle" x="2341" y="-197.5" font-family="Helvetica,sans-Serif" font-size="10.00" fill="#000000">_t.hpp</text>
</a>
</g>
</g>
<!-- Node0&#45;&gt;Node40 -->
<g id="edge127" class="edge">
<title>Node0&#45;&gt;Node40</title>
<path fill="none" stroke="#191970" d="M2599.7885,-458.2462C2605.0231,-410.6781 2608.3096,-310.2457 2553,-257 2532.1608,-236.9384 2460.7182,-222.4827 2406.4763,-214.0852"/>
<polygon fill="#191970" stroke="#191970" points="2406.975,-210.6209 2396.5643,-212.5877 2405.9293,-217.5423 2406.975,-210.6209"/>
</g>
<!-- Node41 -->
<g id="node42" class="node">
<title>Node41</title>
<g id="a_node42"><a xlink:href="output__adapters_8hpp.html" target="_top" target="_top" xlink:title="nlohmann/detail/output\l/output_adapters.hpp">
<polygon fill="#ffffff" stroke="#000000" points="174.5,-190.5 174.5,-220.5 289.5,-220.5 289.5,-190.5 174.5,-190.5"/>
<text text-anchor="start" x="182.5" y="-208.5" font-family="Helvetica,sans-Serif" font-size="10.00" fill="#000000">nlohmann/detail/output</text>
<text text-anchor="middle" x="232" y="-197.5" font-family="Helvetica,sans-Serif" font-size="10.00" fill="#000000">/output_adapters.hpp</text>
</a>
</g>
</g>
<!-- Node0&#45;&gt;Node41 -->
<g id="edge126" class="edge">
<title>Node0&#45;&gt;Node41</title>
<path fill="none" stroke="#191970" d="M2506.3365,-483.4528C2088.2969,-478.398 348.9871,-455.3901 304,-422 242.8987,-376.6496 232.9548,-277.4525 231.7976,-230.7567"/>
<polygon fill="#191970" stroke="#191970" points="235.2953,-230.5472 231.6669,-220.5931 228.2959,-230.6373 235.2953,-230.5472"/>
</g>
<!-- Node14&#45;&gt;Node2 -->
<g id="edge15" class="edge">
<title>Node14&#45;&gt;Node2</title>
<path fill="none" stroke="#191970" d="M2503.5486,-190.4639C2450.9312,-176.6929 2375.1838,-156.8684 2334.1269,-146.1231"/>
<polygon fill="#191970" stroke="#191970" points="2334.7921,-142.6793 2324.2318,-143.5333 2333.0198,-149.4513 2334.7921,-142.6793"/>
</g>
<!-- Node14&#45;&gt;Node3 -->
<g id="edge16" class="edge">
<title>Node14&#45;&gt;Node3</title>
<path fill="none" stroke="#191970" d="M2490.9733,-197.727C2432.7682,-190.103 2348.2496,-176.3185 2277,-154 2275.0964,-153.4037 2273.1595,-152.727 2271.2249,-151.9979"/>
<polygon fill="#191970" stroke="#191970" points="2272.3112,-148.6589 2261.7342,-148.0441 2269.6192,-155.1206 2272.3112,-148.6589"/>
</g>
<!-- Node14&#45;&gt;Node4 -->
<g id="edge17" class="edge">
<title>Node14&#45;&gt;Node4</title>
<path fill="none" stroke="#191970" d="M2586.9313,-190.3533C2599.4154,-181.5052 2613.1367,-169.1011 2620,-154 2625.7007,-141.4569 2625.6898,-135.5481 2620,-123 2599.3861,-77.5387 2550.4441,-43.1572 2519.1198,-24.8415"/>
<polygon fill="#191970" stroke="#191970" points="2520.4402,-21.5667 2510.015,-19.6786 2516.9874,-27.6559 2520.4402,-21.5667"/>
</g>
<!-- Node14&#45;&gt;Node6 -->
<g id="edge18" class="edge">
<title>Node14&#45;&gt;Node6</title>
<path fill="none" stroke="#191970" d="M2490.8136,-197.3508C2463.9998,-194.5466 2433.1186,-191.6896 2405,-190 1644.4261,-144.2976 1451.3982,-202.5383 691,-154 652.0712,-151.5151 607.4769,-146.4065 578.1386,-142.7327"/>
<polygon fill="#191970" stroke="#191970" points="578.4203,-139.2404 568.0588,-141.4516 577.5377,-146.1846 578.4203,-139.2404"/>
</g>
<!-- Node14&#45;&gt;Node8 -->
<g id="edge19" class="edge">
<title>Node14&#45;&gt;Node8</title>
<path fill="none" stroke="#191970" d="M2563.2104,-190.1983C2564.9351,-172.0304 2564.8412,-141.8274 2549,-123 2515.8818,-83.6388 2487.2062,-104.9524 2439,-87 2437.1889,-86.3255 2435.3356,-85.6151 2433.4707,-84.8846"/>
<polygon fill="#191970" stroke="#191970" points="2434.7723,-81.6356 2424.1893,-81.1361 2432.1509,-88.1263 2434.7723,-81.6356"/>
</g>
<!-- Node14&#45;&gt;Node10 -->
<g id="edge21" class="edge">
<title>Node14&#45;&gt;Node10</title>
<path fill="none" stroke="#191970" d="M2621.3689,-190.4639C2676.893,-176.6345 2756.9286,-156.6999 2799.9416,-145.9867"/>
<polygon fill="#191970" stroke="#191970" points="2800.934,-149.3465 2809.7916,-143.5333 2799.2421,-142.554 2800.934,-149.3465"/>
</g>
<!-- Node14&#45;&gt;Node12 -->
<g id="edge22" class="edge">
<title>Node14&#45;&gt;Node12</title>
<path fill="none" stroke="#191970" d="M2567.9919,-190.2422C2574.9145,-172.6597 2582.7861,-143.5526 2570,-123 2534.4066,-65.7867 2498.198,-76.4661 2434,-56 2349.5989,-29.0933 2245.9403,-17.4356 2189.485,-12.781"/>
<polygon fill="#191970" stroke="#191970" points="2189.4202,-9.2651 2179.1755,-11.9661 2188.8686,-16.2433 2189.4202,-9.2651"/>
</g>
<!-- Node15 -->
<g id="node16" class="node">
<title>Node15</title>
<polygon fill="#ffffff" stroke="#bfbfbf" points="2494,-129 2494,-148 2540,-148 2540,-129 2494,-129"/>
<text text-anchor="middle" x="2517" y="-136" font-family="Helvetica,sans-Serif" font-size="10.00" fill="#000000">cstring</text>
</g>
<!-- Node14&#45;&gt;Node15 -->
<g id="edge20" class="edge">
<title>Node14&#45;&gt;Node15</title>
<path fill="none" stroke="#191970" d="M2551.0157,-190.2967C2544.4265,-180.2631 2535.763,-167.0709 2528.8283,-156.5113"/>
<polygon fill="#191970" stroke="#191970" points="2531.6898,-154.4924 2523.2749,-148.055 2525.8387,-158.3349 2531.6898,-154.4924"/>
</g>
<!-- Node14&#45;&gt;Node16 -->
<g id="edge23" class="edge">
<title>Node14&#45;&gt;Node16</title>
<path fill="none" stroke="#191970" d="M2490.806,-197.4727C2463.9913,-194.6829 2433.1114,-191.8041 2405,-190 1857.0053,-154.8321 1718.4385,-181.3898 1170,-154 1119.2499,-151.4655 1061.9673,-147.3673 1018.7183,-144.0214"/>
<polygon fill="#191970" stroke="#191970" points="1018.8396,-140.5203 1008.5978,-143.2324 1018.2955,-147.4992 1018.8396,-140.5203"/>
</g>
<!-- Node16&#45;&gt;Node13 -->
<g id="edge24" class="edge">
<title>Node16&#45;&gt;Node13</title>
<path fill="none" stroke="#191970" d="M1008.6291,-134.3032C1052.7884,-131.1159 1115.2359,-126.6704 1170,-123 1422.8273,-106.0551 1487.4506,-117.5234 1739,-87 1757.6552,-84.7363 1778.3916,-81.0344 1794.8277,-77.8161"/>
<polygon fill="#191970" stroke="#191970" points="1795.8242,-81.1861 1804.9424,-75.7909 1794.4499,-74.3223 1795.8242,-81.1861"/>
</g>
<!-- Node17 -->
<g id="node18" class="node">
<title>Node17</title>
<polygon fill="#ffffff" stroke="#bfbfbf" points="903,-56.5 903,-86.5 1005,-86.5 1005,-56.5 903,-56.5"/>
<text text-anchor="start" x="911" y="-74.5" font-family="Helvetica,sans-Serif" font-size="10.00" fill="#000000">nlohmann/thirdparty</text>
<text text-anchor="middle" x="954" y="-63.5" font-family="Helvetica,sans-Serif" font-size="10.00" fill="#000000">/hedley/hedley.hpp</text>
</g>
<!-- Node16&#45;&gt;Node17 -->
<g id="edge25" class="edge">
<title>Node16&#45;&gt;Node17</title>
<path fill="none" stroke="#191970" d="M951.6807,-123.2967C952.0298,-115.5013 952.4642,-105.7991 952.8624,-96.9064"/>
<polygon fill="#191970" stroke="#191970" points="956.371,-96.7898 953.3219,-86.6432 949.378,-96.4766 956.371,-96.7898"/>
</g>
<!-- Node18 -->
<g id="node19" class="node">
<title>Node18</title>
<polygon fill="#ffffff" stroke="#bfbfbf" points="839.5,-62 839.5,-81 884.5,-81 884.5,-62 839.5,-62"/>
<text text-anchor="middle" x="862" y="-69" font-family="Helvetica,sans-Serif" font-size="10.00" fill="#000000">cstdlib</text>
</g>
<!-- Node16&#45;&gt;Node18 -->
<g id="edge26" class="edge">
<title>Node16&#45;&gt;Node18</title>
<path fill="none" stroke="#191970" d="M930.8045,-123.2967C916.534,-112.5537 897.4532,-98.1895 883.0052,-87.3129"/>
<polygon fill="#191970" stroke="#191970" points="884.7867,-84.2731 874.6924,-81.055 880.5766,-89.8656 884.7867,-84.2731"/>
</g>
<!-- Node19&#45;&gt;Node11 -->
<g id="edge30" class="edge">
<title>Node19&#45;&gt;Node11</title>
<path fill="none" stroke="#191970" d="M740.5319,-195.8518C723.2391,-187.5834 701.3636,-173.8389 691,-154 684.6206,-141.7881 684.1169,-134.9353 691,-123 703.5693,-101.2048 729.274,-87.7985 749.8414,-80.1503"/>
<polygon fill="#191970" stroke="#191970" points="751.1276,-83.4092 759.4453,-76.8467 748.8506,-76.7899 751.1276,-83.4092"/>
</g>
<!-- Node19&#45;&gt;Node16 -->
<g id="edge33" class="edge">
<title>Node19&#45;&gt;Node16</title>
<path fill="none" stroke="#191970" d="M791.6493,-195.9005C819.7456,-185.7798 864.7005,-169.5864 899.7095,-156.9756"/>
<polygon fill="#191970" stroke="#191970" points="901.0757,-160.2037 909.2978,-153.5218 898.7034,-153.6179 901.0757,-160.2037"/>
</g>
<!-- Node20 -->
<g id="node21" class="node">
<title>Node20</title>
<polygon fill="#ffffff" stroke="#bfbfbf" points="700.5,-129 700.5,-148 759.5,-148 759.5,-129 700.5,-129"/>
<text text-anchor="middle" x="730" y="-136" font-family="Helvetica,sans-Serif" font-size="10.00" fill="#000000">exception</text>
</g>
<!-- Node19&#45;&gt;Node20 -->
<g id="edge28" class="edge">
<title>Node19&#45;&gt;Node20</title>
<path fill="none" stroke="#191970" d="M759.9854,-195.9005C754.7353,-185.8505 746.3571,-169.8122 739.7897,-157.2403"/>
<polygon fill="#191970" stroke="#191970" points="742.7378,-155.3246 735.0053,-148.0817 736.5334,-158.5657 742.7378,-155.3246"/>
</g>
<!-- Node21 -->
<g id="node22" class="node">
<title>Node21</title>
<polygon fill="#ffffff" stroke="#bfbfbf" points="777.5,-129 777.5,-148 836.5,-148 836.5,-129 777.5,-129"/>
<text text-anchor="middle" x="807" y="-136" font-family="Helvetica,sans-Serif" font-size="10.00" fill="#000000">stdexcept</text>
</g>
<!-- Node19&#45;&gt;Node21 -->
<g id="edge29" class="edge">
<title>Node19&#45;&gt;Node21</title>
<path fill="none" stroke="#191970" d="M771.0176,-195.9005C777.38,-185.751 787.5709,-169.4941 795.4858,-156.8679"/>
<polygon fill="#191970" stroke="#191970" points="798.6477,-158.4135 800.9936,-148.0817 792.7167,-154.6956 798.6477,-158.4135"/>
</g>
<!-- Node22 -->
<g id="node23" class="node">
<title>Node22</title>
<g id="a_node23"><a xlink:href="position__t_8hpp.html" target="_top" target="_top" xlink:title="nlohmann/detail/input\l/position_t.hpp">
<polygon fill="#ffffff" stroke="#000000" points="597.5,-56.5 597.5,-86.5 706.5,-86.5 706.5,-56.5 597.5,-56.5"/>
<text text-anchor="start" x="605.5" y="-74.5" font-family="Helvetica,sans-Serif" font-size="10.00" fill="#000000">nlohmann/detail/input</text>
<text text-anchor="middle" x="652" y="-63.5" font-family="Helvetica,sans-Serif" font-size="10.00" fill="#000000">/position_t.hpp</text>
</a>
</g>
</g>
<!-- Node19&#45;&gt;Node22 -->
<g id="edge31" class="edge">
<title>Node19&#45;&gt;Node22</title>
<path fill="none" stroke="#191970" d="M741.5622,-195.852C723.347,-187.2814 698.6293,-173.1419 683,-154 669.4567,-137.413 661.4564,-114.305 656.9862,-96.7634"/>
<polygon fill="#191970" stroke="#191970" points="660.3132,-95.6172 654.641,-86.6686 653.4948,-97.2012 660.3132,-95.6172"/>
</g>
<!-- Node22&#45;&gt;Node7 -->
<g id="edge32" class="edge">
<title>Node22&#45;&gt;Node7</title>
<path fill="none" stroke="#191970" d="M701.1701,-56.4554C737.5608,-45.3209 786.2254,-30.431 818.5418,-20.5432"/>
<polygon fill="#191970" stroke="#191970" points="819.885,-23.7924 828.4234,-17.5197 817.8369,-17.0987 819.885,-23.7924"/>
</g>
<!-- Node23&#45;&gt;Node4 -->
<g id="edge36" class="edge">
<title>Node23&#45;&gt;Node4</title>
<path fill="none" stroke="#191970" d="M2162.0178,-62.6885C2242.136,-49.8571 2388.654,-26.3913 2455.7517,-15.6452"/>
<polygon fill="#191970" stroke="#191970" points="2456.4956,-19.0708 2465.8163,-14.0333 2455.3886,-12.1589 2456.4956,-19.0708"/>
</g>
<!-- Node23&#45;&gt;Node7 -->
<g id="edge37" class="edge">
<title>Node23&#45;&gt;Node7</title>
<path fill="none" stroke="#191970" d="M2051.7969,-58.1695C2047.1482,-57.3305 2042.5045,-56.5884 2038,-56 1807.1576,-25.8474 1059.402,-13.0703 888.161,-10.5005"/>
<polygon fill="#191970" stroke="#191970" points="888.0006,-6.9979 877.9498,-10.3492 887.8968,-13.9971 888.0006,-6.9979"/>
</g>
<!-- Node23&#45;&gt;Node12 -->
<g id="edge38" class="edge">
<title>Node23&#45;&gt;Node12</title>
<path fill="none" stroke="#191970" d="M2117.1348,-56.2977C2122.7668,-47.8498 2129.8151,-37.2773 2135.754,-28.369"/>
<polygon fill="#191970" stroke="#191970" points="2138.8005,-30.1089 2141.4354,-19.8469 2132.9762,-26.226 2138.8005,-30.1089"/>
</g>
<!-- Node24&#45;&gt;Node1 -->
<g id="edge40" class="edge">
<title>Node24&#45;&gt;Node1</title>
<path fill="none" stroke="#191970" d="M2043.489,-404.7738C1780.4842,-396.5167 699.3954,-358.5099 567,-288 510.0669,-257.6791 467.8593,-190.3881 449.7529,-157.4308"/>
<polygon fill="#191970" stroke="#191970" points="452.7182,-155.5536 444.9178,-148.3839 446.5445,-158.8531 452.7182,-155.5536"/>
</g>
<!-- Node24&#45;&gt;Node2 -->
<g id="edge41" class="edge">
<title>Node24&#45;&gt;Node2</title>
<path fill="none" stroke="#191970" d="M2108.9225,-391.2541C2128.5403,-354.3132 2182.2117,-258.0527 2243,-190 2254.9669,-176.603 2270.5228,-163.6917 2283.0589,-154.1479"/>
<polygon fill="#191970" stroke="#191970" points="2285.2375,-156.8895 2291.1741,-148.1141 2281.0608,-151.2721 2285.2375,-156.8895"/>
</g>
<!-- Node24&#45;&gt;Node8 -->
<g id="edge42" class="edge">
<title>Node24&#45;&gt;Node8</title>
<path fill="none" stroke="#191970" d="M2158.5429,-401.7835C2236.8115,-394.7618 2380.9547,-379.672 2502,-355 2609.6754,-333.0531 2640.8993,-335.4838 2740,-288 2811.8301,-253.5828 2844.8526,-232.3834 2859,-154 2861.4472,-140.4413 2868.1807,-133.2734 2859,-123 2844.8373,-107.1517 2537.9768,-82.0315 2435.2033,-74.0334"/>
<polygon fill="#191970" stroke="#191970" points="2435.3213,-70.5321 2425.0809,-73.2497 2434.7809,-77.5112 2435.3213,-70.5321"/>
</g>
<!-- Node24&#45;&gt;Node10 -->
<g id="edge44" class="edge">
<title>Node24&#45;&gt;Node10</title>
<path fill="none" stroke="#191970" d="M2158.6951,-399.5861C2263.8992,-385.8993 2493.0249,-351.0825 2677,-288 2740.7386,-266.1449 2771.7868,-274.3078 2813,-221 2826.9335,-202.9774 2830.2046,-176.3405 2830.6302,-158.2464"/>
<polygon fill="#191970" stroke="#191970" points="2834.1293,-157.9879 2830.59,-148.0017 2827.1293,-158.0154 2834.1293,-157.9879"/>
</g>
<!-- Node24&#45;&gt;Node11 -->
<g id="edge45" class="edge">
<title>Node24&#45;&gt;Node11</title>
<path fill="none" stroke="#191970" d="M2043.1825,-405.8629C1773.6079,-402.7286 646.7478,-387.759 493,-355 338.9834,-322.1838 279.5184,-329.0906 165,-221 131.6796,-189.5499 101.6173,-156.3839 133,-123 177.3769,-75.7933 650.9174,-96.5497 715,-87 726.3911,-85.3025 738.7221,-82.5906 749.5512,-79.9064"/>
<polygon fill="#191970" stroke="#191970" points="750.5805,-83.2557 759.3937,-77.3754 748.8371,-76.4763 750.5805,-83.2557"/>
</g>
<!-- Node24&#45;&gt;Node15 -->
<g id="edge43" class="edge">
<title>Node24&#45;&gt;Node15</title>
<path fill="none" stroke="#191970" d="M2137.3203,-391.4365C2202.1548,-363.5537 2340.4328,-299.5219 2441,-221 2465.799,-201.6372 2489.5667,-173.8552 2503.7276,-155.9928"/>
<polygon fill="#191970" stroke="#191970" points="2506.4897,-158.1424 2509.87,-148.1012 2500.9657,-153.8428 2506.4897,-158.1424"/>
</g>
<!-- Node24&#45;&gt;Node16 -->
<g id="edge115" class="edge">
<title>Node24&#45;&gt;Node16</title>
<path fill="none" stroke="#191970" d="M2043.4482,-403.1067C1831.2862,-390.2093 1100.616,-342.2153 1012,-288 969.0927,-261.7493 956.366,-198.849 952.5913,-163.5735"/>
<polygon fill="#191970" stroke="#191970" points="956.0743,-163.2262 951.6838,-153.5839 949.103,-163.8596 956.0743,-163.2262"/>
</g>
<!-- Node25 -->
<g id="node26" class="node">
<title>Node25</title>
<g id="a_node26"><a xlink:href="binary__reader_8hpp.html" target="_top" target="_top" xlink:title="nlohmann/detail/input\l/binary_reader.hpp">
<polygon fill="#ffffff" stroke="#000000" points="1929.5,-324.5 1929.5,-354.5 2038.5,-354.5 2038.5,-324.5 1929.5,-324.5"/>
<text text-anchor="start" x="1937.5" y="-342.5" font-family="Helvetica,sans-Serif" font-size="10.00" fill="#000000">nlohmann/detail/input</text>
<text text-anchor="middle" x="1984" y="-331.5" font-family="Helvetica,sans-Serif" font-size="10.00" fill="#000000">/binary_reader.hpp</text>
</a>
</g>
</g>
<!-- Node24&#45;&gt;Node25 -->
<g id="edge46" class="edge">
<title>Node24&#45;&gt;Node25</title>
<path fill="none" stroke="#191970" d="M2074.7429,-391.4639C2058.4489,-382.1332 2037.3018,-370.0232 2019.5216,-359.8415"/>
<polygon fill="#191970" stroke="#191970" points="2020.9914,-356.6499 2010.5743,-354.7177 2017.5128,-362.7244 2020.9914,-356.6499"/>
</g>
<!-- Node24&#45;&gt;Node41 -->
<g id="edge116" class="edge">
<title>Node24&#45;&gt;Node41</title>
<path fill="none" stroke="#191970" d="M2043.3671,-405.8897C1768.5401,-402.8173 601.528,-387.8742 532,-355 479.6123,-330.2301 495.603,-286.9594 446,-257 401.5426,-230.1485 343.9717,-217.2924 299.7425,-211.1396"/>
<polygon fill="#191970" stroke="#191970" points="300.0319,-207.6477 289.6622,-209.8203 299.1234,-214.5885 300.0319,-207.6477"/>
</g>
<!-- Node25&#45;&gt;Node1 -->
<g id="edge47" class="edge">
<title>Node25&#45;&gt;Node1</title>
<path fill="none" stroke="#191970" d="M1929.3786,-338.6615C1681.1171,-334.697 668.5816,-316.8147 608,-288 555.6693,-263.1097 566.1096,-227.5815 522,-190 505.3129,-175.7825 484.3486,-162.6862 467.7948,-153.258"/>
<polygon fill="#191970" stroke="#191970" points="469.0629,-149.9581 458.6235,-148.15 465.6568,-156.0736 469.0629,-149.9581"/>
</g>
<!-- Node25&#45;&gt;Node2 -->
<g id="edge48" class="edge">
<title>Node25&#45;&gt;Node2</title>
<path fill="none" stroke="#191970" d="M2004.4595,-324.3808C2042.812,-296.3313 2128.5531,-234.9985 2205,-190 2235.4902,-172.0528 2244.619,-170.3396 2276,-154 2276.6836,-153.6441 2277.3757,-153.2826 2278.0736,-152.9171"/>
<polygon fill="#191970" stroke="#191970" points="2280.0373,-155.838 2287.2416,-148.0695 2276.7653,-149.6497 2280.0373,-155.838"/>
</g>
<!-- Node25&#45;&gt;Node3 -->
<g id="edge49" class="edge">
<title>Node25&#45;&gt;Node3</title>
<path fill="none" stroke="#191970" d="M1995.6484,-324.0833C2018.4826,-294.7183 2071.9016,-230.1195 2129,-190 2153.722,-172.6294 2185.2427,-158.9288 2208.871,-150.0396"/>
<polygon fill="#191970" stroke="#191970" points="2210.2823,-153.2503 2218.4713,-146.5279 2207.8775,-146.6763 2210.2823,-153.2503"/>
</g>
<!-- Node25&#45;&gt;Node6 -->
<g id="edge50" class="edge">
<title>Node25&#45;&gt;Node6</title>
<path fill="none" stroke="#191970" d="M1929.2171,-338.5342C1689.3355,-334.1516 740.9557,-315.1665 684,-288 631.6966,-263.0525 637.722,-232.1922 598,-190 586.7565,-178.0573 573.6294,-165.0633 563.3776,-155.1153"/>
<polygon fill="#191970" stroke="#191970" points="565.8044,-152.5933 556.1772,-148.1696 560.9445,-157.6313 565.8044,-152.5933"/>
</g>
<!-- Node25&#45;&gt;Node7 -->
<g id="edge51" class="edge">
<title>Node25&#45;&gt;Node7</title>
<path fill="none" stroke="#191970" d="M1929.4856,-338.572C1685.1763,-334.2652 700.4082,-315.2727 641,-288 613.9912,-275.601 570.4706,-211.5444 550,-190 534.629,-173.8227 523.3943,-174.6763 515,-154 509.8172,-141.2342 509.4561,-135.6132 515,-123 532.72,-82.6843 548.4853,-75.4409 588,-56 628.0033,-36.3187 755.7703,-20.4048 818.116,-13.5883"/>
<polygon fill="#191970" stroke="#191970" points="818.6818,-17.0477 828.2498,-12.4977 817.9327,-10.0879 818.6818,-17.0477"/>
</g>
<!-- Node25&#45;&gt;Node8 -->
<g id="edge52" class="edge">
<title>Node25&#45;&gt;Node8</title>
<path fill="none" stroke="#191970" d="M1972.637,-324.4387C1957.157,-302.8783 1930.2,-261.3501 1920,-221 1906.4918,-167.5626 1945.7705,-145.6942 1996,-123 2062.595,-92.9117 2284.3029,-77.9257 2368.8527,-73.1984"/>
<polygon fill="#191970" stroke="#191970" points="2369.1316,-76.6885 2378.9257,-72.6478 2368.7495,-69.699 2369.1316,-76.6885"/>
</g>
<!-- Node25&#45;&gt;Node9 -->
<g id="edge53" class="edge">
<title>Node25&#45;&gt;Node9</title>
<path fill="none" stroke="#191970" d="M2038.7082,-331.9321C2100.6917,-322.9991 2204.5894,-306.9391 2293,-288 2346.0211,-276.642 2357.9271,-268.1135 2411,-257 2511.8406,-235.8839 2553.4605,-276.9073 2640,-221 2663.4014,-205.8819 2678.8734,-176.6424 2687.04,-157.3468"/>
<polygon fill="#191970" stroke="#191970" points="2690.2954,-158.6321 2690.7389,-148.0465 2683.7909,-156.0451 2690.2954,-158.6321"/>
</g>
<!-- Node25&#45;&gt;Node10 -->
<g id="edge56" class="edge">
<title>Node25&#45;&gt;Node10</title>
<path fill="none" stroke="#191970" d="M2038.7199,-336.5762C2167.3951,-329.4231 2486.2037,-310.0094 2591,-288 2681.0946,-269.0782 2717.1764,-280.9977 2787,-221 2806.457,-204.2811 2818.3226,-176.5515 2824.5271,-157.9093"/>
<polygon fill="#191970" stroke="#191970" points="2827.9389,-158.7225 2827.5406,-148.1351 2821.2496,-156.66 2827.9389,-158.7225"/>
</g>
<!-- Node25&#45;&gt;Node11 -->
<g id="edge57" class="edge">
<title>Node25&#45;&gt;Node11</title>
<path fill="none" stroke="#191970" d="M1929.3511,-338.7327C1737.8507,-335.76 1097.8648,-323.3553 896,-288 796.5766,-270.5867 738.9273,-302.2217 679,-221 669.3913,-207.9769 668.3502,-145.7969 683,-123 697.9277,-99.7706 727.0082,-86.3421 749.4516,-79.0595"/>
<polygon fill="#191970" stroke="#191970" points="750.6467,-82.3552 759.2218,-76.1328 748.638,-75.6496 750.6467,-82.3552"/>
</g>
<!-- Node25&#45;&gt;Node13 -->
<g id="edge58" class="edge">
<title>Node25&#45;&gt;Node13</title>
<path fill="none" stroke="#191970" d="M2038.5228,-335.1066C2124.1551,-327.8071 2295.2468,-311.6092 2439,-288 2443.3467,-287.2861 2746.0112,-224.2358 2749,-221 2778.6773,-188.8699 2788.1404,-154.6961 2758,-123 2730.5928,-94.1781 2082.6994,-89.4105 2043,-87 1975.9326,-82.9277 1897.338,-77.0726 1855.2557,-73.8497"/>
<polygon fill="#191970" stroke="#191970" points="1855.3667,-70.348 1845.1277,-73.0708 1854.8299,-77.3274 1855.3667,-70.348"/>
</g>
<!-- Node25&#45;&gt;Node15 -->
<g id="edge54" class="edge">
<title>Node25&#45;&gt;Node15</title>
<path fill="none" stroke="#191970" d="M2038.8205,-331.4776C2121.8123,-317.7373 2282.6286,-284.7984 2405,-221 2414.6966,-215.9447 2466.7354,-176.7463 2496.3481,-154.2481"/>
<polygon fill="#191970" stroke="#191970" points="2498.5602,-156.9629 2504.3996,-148.1226 2494.3218,-151.3919 2498.5602,-156.9629"/>
</g>
<!-- Node25&#45;&gt;Node16 -->
<g id="edge86" class="edge">
<title>Node25&#45;&gt;Node16</title>
<path fill="none" stroke="#191970" d="M1929.4708,-339.273C1741.705,-338.1111 1129.266,-331.0276 1053,-288 1003.9333,-260.3176 973.5624,-198.075 959.7682,-163.2632"/>
<polygon fill="#191970" stroke="#191970" points="962.999,-161.9124 956.1657,-153.8157 956.4583,-164.4065 962.999,-161.9124"/>
</g>
<!-- Node25&#45;&gt;Node19 -->
<g id="edge59" class="edge">
<title>Node25&#45;&gt;Node19</title>
<path fill="none" stroke="#191970" d="M1929.4585,-338.5883C1751.1514,-335.2996 1186.7069,-322.3701 1008,-288 929.3332,-272.8703 841.2952,-238.2947 795.8583,-219.0535"/>
<polygon fill="#191970" stroke="#191970" points="797.1358,-215.7933 786.5651,-215.0794 794.3835,-222.2295 797.1358,-215.7933"/>
</g>
<!-- Node26 -->
<g id="node27" class="node">
<title>Node26</title>
<polygon fill="#ffffff" stroke="#bfbfbf" points="1683.5,-62 1683.5,-81 1730.5,-81 1730.5,-62 1683.5,-62"/>
<text text-anchor="middle" x="1707" y="-69" font-family="Helvetica,sans-Serif" font-size="10.00" fill="#000000">iterator</text>
</g>
<!-- Node25&#45;&gt;Node26 -->
<g id="edge55" class="edge">
<title>Node25&#45;&gt;Node26</title>
<path fill="none" stroke="#191970" d="M2038.6844,-336.727C2113.6736,-331.8915 2252.0971,-319.2533 2366,-288 2399.9923,-278.673 2405.1087,-266.6877 2439,-257 2538.4824,-228.5634 2579.1763,-272.3525 2669,-221 2712.3603,-196.2108 2758.626,-158.9953 2724,-123 2688.2314,-85.8169 1847.3069,-92.4383 1796,-87 1777.7045,-85.0608 1757.4887,-81.6442 1740.9539,-78.5115"/>
<polygon fill="#191970" stroke="#191970" points="1741.1613,-74.9863 1730.677,-76.5121 1739.8245,-81.8574 1741.1613,-74.9863"/>
</g>
<!-- Node27 -->
<g id="node28" class="node">
<title>Node27</title>
<g id="a_node28"><a xlink:href="input__adapters_8hpp.html" target="_top" target="_top" xlink:title="nlohmann/detail/input\l/input_adapters.hpp">
<polygon fill="#ffffff" stroke="#000000" points="1929.5,-190.5 1929.5,-220.5 2038.5,-220.5 2038.5,-190.5 1929.5,-190.5"/>
<text text-anchor="start" x="1937.5" y="-208.5" font-family="Helvetica,sans-Serif" font-size="10.00" fill="#000000">nlohmann/detail/input</text>
<text text-anchor="middle" x="1984" y="-197.5" font-family="Helvetica,sans-Serif" font-size="10.00" fill="#000000">/input_adapters.hpp</text>
</a>
</g>
</g>
<!-- Node25&#45;&gt;Node27 -->
<g id="edge60" class="edge">
<title>Node25&#45;&gt;Node27</title>
<path fill="none" stroke="#191970" d="M1984,-324.389C1984,-301.6691 1984,-258.438 1984,-230.8405"/>
<polygon fill="#191970" stroke="#191970" points="1987.5001,-230.7614 1984,-220.7614 1980.5001,-230.7614 1987.5001,-230.7614"/>
</g>
<!-- Node33 -->
<g id="node34" class="node">
<title>Node33</title>
<g id="a_node34"><a xlink:href="json__sax_8hpp.html" target="_top" target="_top" xlink:title="nlohmann/detail/input\l/json_sax.hpp">
<polygon fill="#ffffff" stroke="#000000" points="1062.5,-257.5 1062.5,-287.5 1171.5,-287.5 1171.5,-257.5 1062.5,-257.5"/>
<text text-anchor="start" x="1070.5" y="-275.5" font-family="Helvetica,sans-Serif" font-size="10.00" fill="#000000">nlohmann/detail/input</text>
<text text-anchor="middle" x="1117" y="-264.5" font-family="Helvetica,sans-Serif" font-size="10.00" fill="#000000">/json_sax.hpp</text>
</a>
</g>
</g>
<!-- Node25&#45;&gt;Node33 -->
<g id="edge78" class="edge">
<title>Node25&#45;&gt;Node33</title>
<path fill="none" stroke="#191970" d="M1929.4368,-335.2835C1776.95,-323.4996 1346.7559,-290.2551 1182.1635,-277.5357"/>
<polygon fill="#191970" stroke="#191970" points="1181.9519,-274.009 1171.712,-276.728 1181.4125,-280.9882 1181.9519,-274.009"/>
</g>
<!-- Node35 -->
<g id="node36" class="node">
<title>Node35</title>
<g id="a_node36"><a xlink:href="is__sax_8hpp.html" target="_top" target="_top" xlink:title="nlohmann/detail/meta\l/is_sax.hpp">
<polygon fill="#ffffff" stroke="#000000" points="1691,-257.5 1691,-287.5 1801,-287.5 1801,-257.5 1691,-257.5"/>
<text text-anchor="start" x="1699" y="-275.5" font-family="Helvetica,sans-Serif" font-size="10.00" fill="#000000">nlohmann/detail/meta</text>
<text text-anchor="middle" x="1746" y="-264.5" font-family="Helvetica,sans-Serif" font-size="10.00" fill="#000000">/is_sax.hpp</text>
</a>
</g>
</g>
<!-- Node25&#45;&gt;Node35 -->
<g id="edge87" class="edge">
<title>Node25&#45;&gt;Node35</title>
<path fill="none" stroke="#191970" d="M1930.5882,-324.4639C1894.7326,-314.3701 1847.3241,-301.024 1809.5311,-290.3848"/>
<polygon fill="#191970" stroke="#191970" points="1810.2191,-286.9425 1799.6448,-287.6017 1808.3222,-293.6806 1810.2191,-286.9425"/>
</g>
<!-- Node25&#45;&gt;Node40 -->
<g id="edge109" class="edge">
<title>Node25&#45;&gt;Node40</title>
<path fill="none" stroke="#191970" d="M2038.7619,-325.1954C2073.0972,-315.737 2118.0731,-302.4488 2157,-288 2207.766,-269.1568 2264.3582,-242.9658 2301.2029,-225.1854"/>
<polygon fill="#191970" stroke="#191970" points="2303.1199,-228.1456 2310.5891,-220.6314 2300.0643,-221.8477 2303.1199,-228.1456"/>
</g>
<!-- Node27&#45;&gt;Node2 -->
<g id="edge61" class="edge">
<title>Node27&#45;&gt;Node2</title>
<path fill="none" stroke="#191970" d="M2038.5697,-201.0652C2098.2183,-195.0351 2195.9644,-181.657 2276,-154 2277.2444,-153.57 2278.4999,-153.0917 2279.7545,-152.5772"/>
<polygon fill="#191970" stroke="#191970" points="2281.6109,-155.5708 2289.1521,-148.1289 2278.616,-149.2438 2281.6109,-155.5708"/>
</g>
<!-- Node27&#45;&gt;Node3 -->
<g id="edge62" class="edge">
<title>Node27&#45;&gt;Node3</title>
<path fill="none" stroke="#191970" d="M2038.5436,-193.1763C2098.4469,-179.5711 2188.2807,-158.9336 2204,-154 2206.2875,-153.282 2208.6313,-152.4926 2210.9792,-151.6618"/>
<polygon fill="#191970" stroke="#191970" points="2212.3806,-154.8745 2220.5197,-148.0918 2209.9273,-148.3185 2212.3806,-154.8745"/>
</g>
<!-- Node27&#45;&gt;Node7 -->
<g id="edge63" class="edge">
<title>Node27&#45;&gt;Node7</title>
<path fill="none" stroke="#191970" d="M1976.5667,-190.2627C1959.9029,-158.1059 1916.0936,-83.9706 1854,-56 1764.4631,-15.6673 1054.1644,-10.697 887.7832,-10.0856"/>
<polygon fill="#191970" stroke="#191970" points="887.6347,-6.5852 877.6229,-10.0513 887.611,-13.5851 887.6347,-6.5852"/>
</g>
<!-- Node27&#45;&gt;Node9 -->
<g id="edge64" class="edge">
<title>Node27&#45;&gt;Node9</title>
<path fill="none" stroke="#191970" d="M2038.569,-200.8109C2139.42,-192.0813 2361.7864,-172.5374 2549,-154 2588.0426,-150.1341 2632.951,-145.2687 2662.3166,-142.0306"/>
<polygon fill="#191970" stroke="#191970" points="2662.8381,-145.4943 2672.3927,-140.9161 2662.0685,-138.5368 2662.8381,-145.4943"/>
</g>
<!-- Node27&#45;&gt;Node11 -->
<g id="edge70" class="edge">
<title>Node27&#45;&gt;Node11</title>
<path fill="none" stroke="#191970" d="M1929.3541,-203.0007C1758.8678,-195.0697 1243.7207,-170.0486 1170,-154 1132.3357,-145.8007 1126.3307,-132.6043 1089,-123 976.4475,-94.043 943.4329,-112.2894 830,-87 823.5967,-85.5724 816.829,-83.7175 810.4115,-81.7897"/>
<polygon fill="#191970" stroke="#191970" points="811.3069,-78.4025 800.7178,-78.7513 809.2132,-85.0821 811.3069,-78.4025"/>
</g>
<!-- Node27&#45;&gt;Node12 -->
<g id="edge71" class="edge">
<title>Node27&#45;&gt;Node12</title>
<path fill="none" stroke="#191970" d="M2036.4993,-190.4869C2083.5362,-176.839 2145.7799,-158.2078 2150,-154 2181.5434,-122.5482 2181.2342,-99.3527 2171,-56 2168.7294,-46.3814 2164.1225,-36.4809 2159.6241,-28.3404"/>
<polygon fill="#191970" stroke="#191970" points="2162.633,-26.5524 2154.5397,-19.7151 2156.6027,-30.1071 2162.633,-26.5524"/>
</g>
<!-- Node27&#45;&gt;Node13 -->
<g id="edge72" class="edge">
<title>Node27&#45;&gt;Node13</title>
<path fill="none" stroke="#191970" d="M1966.0698,-190.389C1935.9298,-164.988 1875.3685,-113.9489 1844.3206,-87.7828"/>
<polygon fill="#191970" stroke="#191970" points="1846.2981,-84.8722 1836.396,-81.1042 1841.7871,-90.2248 1846.2981,-84.8722"/>
</g>
<!-- Node27&#45;&gt;Node15 -->
<g id="edge65" class="edge">
<title>Node27&#45;&gt;Node15</title>
<path fill="none" stroke="#191970" d="M2038.5355,-198.6447C2148.549,-184.8156 2394.1794,-153.939 2483.6137,-142.6968"/>
<polygon fill="#191970" stroke="#191970" points="2484.241,-146.1456 2493.7264,-141.4256 2483.3679,-139.2002 2484.241,-146.1456"/>
</g>
<!-- Node27&#45;&gt;Node16 -->
<g id="edge77" class="edge">
<title>Node27&#45;&gt;Node16</title>
<path fill="none" stroke="#191970" d="M1929.3033,-203.1979C1790.418,-197.1611 1412.891,-179.5561 1099,-154 1072.7473,-151.8626 1043.9313,-148.9692 1018.7576,-146.2611"/>
<polygon fill="#191970" stroke="#191970" points="1018.8957,-142.7556 1008.5761,-145.1547 1018.1395,-149.7146 1018.8957,-142.7556"/>
</g>
<!-- Node27&#45;&gt;Node26 -->
<g id="edge67" class="edge">
<title>Node27&#45;&gt;Node26</title>
<path fill="none" stroke="#191970" d="M2038.8568,-193.4236C2076.184,-183.9666 2120.7694,-169.7991 2132,-154 2139.9825,-142.7703 2141.2088,-133.2482 2132,-123 2081.8086,-67.1437 1870.3637,-97.4478 1796,-87 1777.7809,-84.4403 1757.5715,-80.9719 1741.0212,-77.9651"/>
<polygon fill="#191970" stroke="#191970" points="1741.2,-74.4392 1730.7314,-76.07 1739.9321,-81.3234 1741.2,-74.4392"/>
</g>
<!-- Node28 -->
<g id="node29" class="node">
<title>Node28</title>
<polygon fill="#ffffff" stroke="#bfbfbf" points="2005.5,-129 2005.5,-148 2054.5,-148 2054.5,-129 2005.5,-129"/>
<text text-anchor="middle" x="2030" y="-136" font-family="Helvetica,sans-Serif" font-size="10.00" fill="#000000">istream</text>
</g>
<!-- Node27&#45;&gt;Node28 -->
<g id="edge66" class="edge">
<title>Node27&#45;&gt;Node28</title>
<path fill="none" stroke="#191970" d="M1994.4381,-190.2967C2001.3268,-180.2631 2010.3842,-167.0709 2017.634,-156.5113"/>
<polygon fill="#191970" stroke="#191970" points="2020.6652,-158.28 2023.4399,-148.055 2014.8944,-154.318 2020.6652,-158.28"/>
</g>
<!-- Node29 -->
<g id="node30" class="node">
<title>Node29</title>
<polygon fill="#ffffff" stroke="#bfbfbf" points="1246,-62 1246,-81 1298,-81 1298,-62 1246,-62"/>
<text text-anchor="middle" x="1272" y="-69" font-family="Helvetica,sans-Serif" font-size="10.00" fill="#000000">memory</text>
</g>
<!-- Node27&#45;&gt;Node29 -->
<g id="edge68" class="edge">
<title>Node27&#45;&gt;Node29</title>
<path fill="none" stroke="#191970" d="M1929.4526,-203.3426C1807.4578,-198.0588 1515.9196,-182.7559 1422,-154 1372.7651,-138.9255 1321.4702,-106.4695 1293.4532,-87.0622"/>
<polygon fill="#191970" stroke="#191970" points="1295.399,-84.1517 1285.2069,-81.2583 1291.37,-89.876 1295.399,-84.1517"/>
</g>
<!-- Node30 -->
<g id="node31" class="node">
<title>Node30</title>
<polygon fill="#ffffff" stroke="#bfbfbf" points="2072.5,-129 2072.5,-148 2123.5,-148 2123.5,-129 2072.5,-129"/>
<text text-anchor="middle" x="2098" y="-136" font-family="Helvetica,sans-Serif" font-size="10.00" fill="#000000">numeric</text>
</g>
<!-- Node27&#45;&gt;Node30 -->
<g id="edge69" class="edge">
<title>Node27&#45;&gt;Node30</title>
<path fill="none" stroke="#191970" d="M2009.5838,-190.4639C2028.4531,-179.3741 2054.0021,-164.3584 2072.7839,-153.32"/>
<polygon fill="#191970" stroke="#191970" points="2074.8111,-156.1883 2081.659,-148.1039 2071.2643,-150.1534 2074.8111,-156.1883"/>
</g>
<!-- Node31 -->
<g id="node32" class="node">
<title>Node31</title>
<g id="a_node32"><a xlink:href="iterator__traits_8hpp.html" target="_top" target="_top" xlink:title="nlohmann/detail/iterators\l/iterator_traits.hpp">
<polygon fill="#ffffff" stroke="#000000" points="1559.5,-123.5 1559.5,-153.5 1682.5,-153.5 1682.5,-123.5 1559.5,-123.5"/>
<text text-anchor="start" x="1567.5" y="-141.5" font-family="Helvetica,sans-Serif" font-size="10.00" fill="#000000">nlohmann/detail/iterators</text>
<text text-anchor="middle" x="1621" y="-130.5" font-family="Helvetica,sans-Serif" font-size="10.00" fill="#000000">/iterator_traits.hpp</text>
</a>
</g>
</g>
<!-- Node27&#45;&gt;Node31 -->
<g id="edge73" class="edge">
<title>Node27&#45;&gt;Node31</title>
<path fill="none" stroke="#191970" d="M1929.2622,-195.3969C1866.1163,-183.7418 1762.083,-164.5401 1692.568,-151.7095"/>
<polygon fill="#191970" stroke="#191970" points="1693.0404,-148.2377 1682.5712,-149.8644 1691.7698,-155.1214 1693.0404,-148.2377"/>
</g>
<!-- Node31&#45;&gt;Node23 -->
<g id="edge76" class="edge">
<title>Node31&#45;&gt;Node23</title>
<path fill="none" stroke="#191970" d="M1682.5522,-130.0144C1774.7215,-117.3079 1947.8055,-93.4466 2041.9659,-80.4656"/>
<polygon fill="#191970" stroke="#191970" points="2042.5084,-83.924 2051.9367,-79.091 2041.5523,-76.9896 2042.5084,-83.924"/>
</g>
<!-- Node31&#45;&gt;Node26 -->
<g id="edge74" class="edge">
<title>Node31&#45;&gt;Node26</title>
<path fill="none" stroke="#191970" d="M1640.5147,-123.2967C1654.3042,-112.5537 1672.7418,-98.1895 1686.7028,-87.3129"/>
<polygon fill="#191970" stroke="#191970" points="1688.9978,-89.9618 1694.7354,-81.055 1684.6958,-84.4398 1688.9978,-89.9618"/>
</g>
<!-- Node32 -->
<g id="node33" class="node">
<title>Node32</title>
<g id="a_node33"><a xlink:href="void__t_8hpp.html" target="_top" target="_top" xlink:title="nlohmann/detail/meta\l/void_t.hpp">
<polygon fill="#ffffff" stroke="#000000" points="1498,-56.5 1498,-86.5 1608,-86.5 1608,-56.5 1498,-56.5"/>
<text text-anchor="start" x="1506" y="-74.5" font-family="Helvetica,sans-Serif" font-size="10.00" fill="#000000">nlohmann/detail/meta</text>
<text text-anchor="middle" x="1553" y="-63.5" font-family="Helvetica,sans-Serif" font-size="10.00" fill="#000000">/void_t.hpp</text>
</a>
</g>
</g>
<!-- Node31&#45;&gt;Node32 -->
<g id="edge75" class="edge">
<title>Node31&#45;&gt;Node32</title>
<path fill="none" stroke="#191970" d="M1605.5697,-123.2967C1596.7016,-114.559 1585.4022,-103.4257 1575.5535,-93.7218"/>
<polygon fill="#191970" stroke="#191970" points="1577.949,-91.1685 1568.3692,-86.6432 1573.036,-96.1548 1577.949,-91.1685"/>
</g>
<!-- Node33&#45;&gt;Node3 -->
<g id="edge79" class="edge">
<title>Node33&#45;&gt;Node3</title>
<path fill="none" stroke="#191970" d="M1171.6544,-271.2288C1358.4441,-266.6429 1964.4723,-249.6875 2047,-221 2069.5955,-213.1456 2069.5765,-200.6434 2091,-190 2138.2047,-166.5481 2154.3673,-171.7445 2204,-154 2205.9038,-153.3193 2207.8532,-152.6041 2209.8158,-151.8698"/>
<polygon fill="#191970" stroke="#191970" points="2211.5129,-154.9672 2219.5903,-148.1111 2209.0004,-148.4336 2211.5129,-154.9672"/>
</g>
<!-- Node33&#45;&gt;Node7 -->
<g id="edge80" class="edge">
<title>Node33&#45;&gt;Node7</title>
<path fill="none" stroke="#191970" d="M1114.2366,-257.29C1106.258,-217.8304 1079.442,-111.4033 1014,-56 994.9273,-39.853 928.8545,-24.6465 887.5148,-16.4003"/>
<polygon fill="#191970" stroke="#191970" points="888.0672,-12.9421 877.5813,-14.4574 886.7235,-19.8119 888.0672,-12.9421"/>
</g>
<!-- Node33&#45;&gt;Node11 -->
<g id="edge81" class="edge">
<title>Node33&#45;&gt;Node11</title>
<path fill="none" stroke="#191970" d="M1085.9773,-257.3317C1065.2617,-247.1553 1037.4375,-233.3953 1013,-221 955.3829,-191.7751 938.205,-189.1518 884,-154 865.4224,-141.9524 862.3442,-136.7641 845,-123 830.1557,-111.2198 813.3927,-97.9388 800.6082,-87.8146"/>
<polygon fill="#191970" stroke="#191970" points="802.4782,-84.8309 792.4655,-81.3671 798.1327,-90.3188 802.4782,-84.8309"/>
</g>
<!-- Node33&#45;&gt;Node13 -->
<g id="edge82" class="edge">
<title>Node33&#45;&gt;Node13</title>
<path fill="none" stroke="#191970" d="M1171.8061,-268.7519C1278.0937,-261.1079 1508.4993,-242.6036 1585,-221 1652.157,-202.035 1668.2605,-191.6749 1727,-154 1757.6574,-134.3367 1789.1955,-106.0696 1807.9417,-88.2535"/>
<polygon fill="#191970" stroke="#191970" points="1810.6031,-90.5496 1815.3793,-81.0923 1805.748,-85.507 1810.6031,-90.5496"/>
</g>
<!-- Node33&#45;&gt;Node16 -->
<g id="edge85" class="edge">
<title>Node33&#45;&gt;Node16</title>
<path fill="none" stroke="#191970" d="M1099.0555,-257.4477C1079.1339,-240.7953 1045.9644,-213.2413 1017,-190 1004.5944,-180.0457 990.734,-169.1906 978.9297,-160.024"/>
<polygon fill="#191970" stroke="#191970" points="980.7966,-157.0428 970.748,-153.6848 976.5092,-162.5763 980.7966,-157.0428"/>
</g>
<!-- Node33&#45;&gt;Node19 -->
<g id="edge84" class="edge">
<title>Node33&#45;&gt;Node19</title>
<path fill="none" stroke="#191970" d="M1062.3862,-262.1048C998.0993,-249.8683 891.6842,-229.6132 825.1048,-216.9404"/>
<polygon fill="#191970" stroke="#191970" points="825.6555,-213.4825 815.1774,-215.0508 824.3465,-220.359 825.6555,-213.4825"/>
</g>
<!-- Node34 -->
<g id="node35" class="node">
<title>Node34</title>
<polygon fill="#ffffff" stroke="#bfbfbf" points="1129,-62 1129,-81 1173,-81 1173,-62 1129,-62"/>
<text text-anchor="middle" x="1151" y="-69" font-family="Helvetica,sans-Serif" font-size="10.00" fill="#000000">vector</text>
</g>
<!-- Node33&#45;&gt;Node34 -->
<g id="edge83" class="edge">
<title>Node33&#45;&gt;Node34</title>
<path fill="none" stroke="#191970" d="M1119.5555,-257.3923C1125.6256,-221.5077 1140.9068,-131.1687 1147.6797,-91.1287"/>
<polygon fill="#191970" stroke="#191970" points="1151.1327,-91.6999 1149.3497,-81.2562 1144.2308,-90.5324 1151.1327,-91.6999"/>
</g>
<!-- Node35&#45;&gt;Node8 -->
<g id="edge88" class="edge">
<title>Node35&#45;&gt;Node8</title>
<path fill="none" stroke="#191970" d="M1758.4422,-257.3072C1785.1603,-225.9055 1851.585,-154.186 1925,-123 1965.7238,-105.7009 2267.4527,-81.6399 2368.8625,-73.9591"/>
<polygon fill="#191970" stroke="#191970" points="2369.1471,-77.4477 2378.8559,-73.2063 2368.6212,-70.4675 2369.1471,-77.4477"/>
</g>
<!-- Node35&#45;&gt;Node11 -->
<g id="edge90" class="edge">
<title>Node35&#45;&gt;Node11</title>
<path fill="none" stroke="#191970" d="M1690.8549,-262.7363C1632.692,-252.4236 1538.3794,-235.6591 1457,-221 1293.389,-191.5284 1248.1433,-202.0681 1089,-154 1055.6481,-143.9263 1050.3006,-133.2419 1017,-123 936.1025,-98.1193 912.1016,-107.5618 830,-87 823.6361,-85.4062 816.8855,-83.4788 810.4723,-81.5326"/>
<polygon fill="#191970" stroke="#191970" points="811.365,-78.1447 800.7763,-78.5042 809.278,-84.8264 811.365,-78.1447"/>
</g>
<!-- Node35&#45;&gt;Node13 -->
<g id="edge89" class="edge">
<title>Node35&#45;&gt;Node13</title>
<path fill="none" stroke="#191970" d="M1751.9378,-257.3923C1766.102,-221.3544 1801.852,-130.3956 1817.4859,-90.6181"/>
<polygon fill="#191970" stroke="#191970" points="1820.7649,-91.8435 1821.1655,-81.2562 1814.25,-89.2829 1820.7649,-91.8435"/>
</g>
<!-- Node36 -->
<g id="node37" class="node">
<title>Node36</title>
<g id="a_node37"><a xlink:href="detected_8hpp.html" target="_top" target="_top" xlink:title="nlohmann/detail/meta\l/detected.hpp">
<polygon fill="#ffffff" stroke="#000000" points="1431,-123.5 1431,-153.5 1541,-153.5 1541,-123.5 1431,-123.5"/>
<text text-anchor="start" x="1439" y="-141.5" font-family="Helvetica,sans-Serif" font-size="10.00" fill="#000000">nlohmann/detail/meta</text>
<text text-anchor="middle" x="1486" y="-130.5" font-family="Helvetica,sans-Serif" font-size="10.00" fill="#000000">/detected.hpp</text>
</a>
</g>
</g>
<!-- Node35&#45;&gt;Node36 -->
<g id="edge91" class="edge">
<title>Node35&#45;&gt;Node36</title>
<path fill="none" stroke="#191970" d="M1716.6801,-257.389C1669.4482,-233.0464 1576.5298,-185.1577 1524.184,-158.1795"/>
<polygon fill="#191970" stroke="#191970" points="1525.7051,-155.0259 1515.2127,-153.5558 1522.4982,-161.2482 1525.7051,-155.0259"/>
</g>
<!-- Node37 -->
<g id="node38" class="node">
<title>Node37</title>
<g id="a_node38"><a xlink:href="type__traits_8hpp.html" target="_top" target="_top" xlink:title="nlohmann/detail/meta\l/type_traits.hpp">
<polygon fill="#ffffff" stroke="#000000" points="1466,-190.5 1466,-220.5 1576,-220.5 1576,-190.5 1466,-190.5"/>
<text text-anchor="start" x="1474" y="-208.5" font-family="Helvetica,sans-Serif" font-size="10.00" fill="#000000">nlohmann/detail/meta</text>
<text text-anchor="middle" x="1521" y="-197.5" font-family="Helvetica,sans-Serif" font-size="10.00" fill="#000000">/type_traits.hpp</text>
</a>
</g>
</g>
<!-- Node35&#45;&gt;Node37 -->
<g id="edge94" class="edge">
<title>Node35&#45;&gt;Node37</title>
<path fill="none" stroke="#191970" d="M1695.5056,-257.4639C1661.7528,-247.4131 1617.1708,-234.1375 1581.5175,-223.5208"/>
<polygon fill="#191970" stroke="#191970" points="1582.2976,-220.1013 1571.7146,-220.6017 1580.2998,-226.8101 1582.2976,-220.1013"/>
</g>
<!-- Node36&#45;&gt;Node12 -->
<g id="edge92" class="edge">
<title>Node36&#45;&gt;Node12</title>
<path fill="none" stroke="#191970" d="M1481.2214,-123.4051C1476.3987,-104.8703 1471.8616,-73.7195 1489,-56 1510.54,-33.7296 1965.3823,-16.277 2106.5727,-11.3798"/>
<polygon fill="#191970" stroke="#191970" points="2107.082,-14.8645 2116.9558,-11.0228 2106.8413,-7.8686 2107.082,-14.8645"/>
</g>
<!-- Node36&#45;&gt;Node32 -->
<g id="edge93" class="edge">
<title>Node36&#45;&gt;Node32</title>
<path fill="none" stroke="#191970" d="M1501.2033,-123.2967C1509.941,-114.559 1521.0743,-103.4257 1530.7782,-93.7218"/>
<polygon fill="#191970" stroke="#191970" points="1533.2606,-96.1892 1537.8568,-86.6432 1528.3108,-91.2394 1533.2606,-96.1892"/>
</g>
<!-- Node37&#45;&gt;Node4 -->
<g id="edge95" class="edge">
<title>Node37&#45;&gt;Node4</title>
<path fill="none" stroke="#191970" d="M1468.018,-190.4668C1450.2282,-182.6136 1432.3044,-170.9756 1422,-154 1394.6221,-108.8973 1440.7304,-77.3038 1489,-56 1511.5782,-46.0351 2280.2843,-17.6335 2455.6362,-11.2739"/>
<polygon fill="#191970" stroke="#191970" points="2455.991,-14.7634 2465.8578,-10.9038 2455.7376,-7.768 2455.991,-14.7634"/>
</g>
<!-- Node37&#45;&gt;Node10 -->
<g id="edge96" class="edge">
<title>Node37&#45;&gt;Node10</title>
<path fill="none" stroke="#191970" d="M1576.3528,-203.2887C1804.9568,-194.1358 2666.2785,-159.4413 2724,-154 2749.6611,-151.581 2778.6034,-147.2386 2799.754,-143.7642"/>
<polygon fill="#191970" stroke="#191970" points="2800.4683,-147.1934 2809.7535,-142.091 2799.313,-140.2894 2800.4683,-147.1934"/>
</g>
<!-- Node37&#45;&gt;Node12 -->
<g id="edge97" class="edge">
<title>Node37&#45;&gt;Node12</title>
<path fill="none" stroke="#191970" d="M1465.8978,-199.9448C1406.0883,-191.4133 1322.6435,-170.7367 1351,-123 1382.7921,-69.4797 1414.2334,-73.4103 1474,-56 1593.6578,-21.1432 1979.1582,-12.4581 2106.6408,-10.5135"/>
<polygon fill="#191970" stroke="#191970" points="2106.8213,-14.0113 2116.7689,-10.3651 2106.7187,-7.0121 2106.8213,-14.0113"/>
</g>
<!-- Node37&#45;&gt;Node13 -->
<g id="edge98" class="edge">
<title>Node37&#45;&gt;Node13</title>
<path fill="none" stroke="#191970" d="M1576.2671,-193.5213C1610.3616,-184.9855 1654.4161,-171.8511 1691,-154 1712.4988,-143.5096 1714.8186,-135.8435 1735,-123 1755.8224,-109.7486 1780.1553,-95.9198 1798.2664,-85.9327"/>
<polygon fill="#191970" stroke="#191970" points="1800.0297,-88.9576 1807.1187,-81.0838 1796.6668,-82.8183 1800.0297,-88.9576"/>
</g>
<!-- Node37&#45;&gt;Node16 -->
<g id="edge100" class="edge">
<title>Node37&#45;&gt;Node16</title>
<path fill="none" stroke="#191970" d="M1465.8281,-199.0149C1360.8715,-186.6779 1132.78,-159.8671 1018.7475,-146.4633"/>
<polygon fill="#191970" stroke="#191970" points="1019.0811,-142.9785 1008.7408,-145.2871 1018.2638,-149.9306 1019.0811,-142.9785"/>
</g>
<!-- Node37&#45;&gt;Node23 -->
<g id="edge101" class="edge">
<title>Node37&#45;&gt;Node23</title>
<path fill="none" stroke="#191970" d="M1576.0982,-191.7866C1617.5952,-181.4436 1675.8824,-166.8841 1727,-154 1781.2487,-140.3267 1794.4391,-135.3687 1849,-123 1914.3559,-108.1841 1989.5427,-93.4348 2041.8245,-83.5422"/>
<polygon fill="#191970" stroke="#191970" points="2042.7875,-86.9224 2051.9658,-81.6299 2041.4904,-80.0436 2042.7875,-86.9224"/>
</g>
<!-- Node37&#45;&gt;Node31 -->
<g id="edge99" class="edge">
<title>Node37&#45;&gt;Node31</title>
<path fill="none" stroke="#191970" d="M1543.6915,-190.2967C1557.3722,-181.1306 1574.9874,-169.3285 1589.947,-159.3055"/>
<polygon fill="#191970" stroke="#191970" points="1592.0387,-162.1171 1598.3983,-153.6432 1588.1424,-156.3017 1592.0387,-162.1171"/>
</g>
<!-- Node37&#45;&gt;Node36 -->
<g id="edge102" class="edge">
<title>Node37&#45;&gt;Node36</title>
<path fill="none" stroke="#191970" d="M1513.058,-190.2967C1508.8067,-182.1586 1503.47,-171.9425 1498.662,-162.7386"/>
<polygon fill="#191970" stroke="#191970" points="1501.6431,-160.8861 1493.9106,-153.6432 1495.4386,-164.1273 1501.6431,-160.8861"/>
</g>
<!-- Node38 -->
<g id="node39" class="node">
<title>Node38</title>
<g id="a_node39"><a xlink:href="json__fwd_8hpp.html" target="_top" target="_top" xlink:title="nlohmann/json_fwd.hpp">
<polygon fill="#ffffff" stroke="#000000" points="1179.5,-129 1179.5,-148 1298.5,-148 1298.5,-129 1179.5,-129"/>
<text text-anchor="middle" x="1239" y="-136" font-family="Helvetica,sans-Serif" font-size="10.00" fill="#000000">nlohmann/json_fwd.hpp</text>
</a>
</g>
</g>
<!-- Node37&#45;&gt;Node38 -->
<g id="edge103" class="edge">
<title>Node37&#45;&gt;Node38</title>
<path fill="none" stroke="#191970" d="M1465.9581,-192.4227C1414.673,-180.2379 1338.854,-162.2242 1289.1922,-150.4251"/>
<polygon fill="#191970" stroke="#191970" points="1289.8553,-146.9853 1279.3171,-148.0789 1288.2372,-153.7957 1289.8553,-146.9853"/>
</g>
<!-- Node38&#45;&gt;Node8 -->
<g id="edge104" class="edge">
<title>Node38&#45;&gt;Node8</title>
<path fill="none" stroke="#191970" d="M1298.7117,-132.889C1334.4543,-129.6683 1380.8001,-125.734 1422,-123 1754.5418,-100.9327 1838.2779,-106.157 2171,-87 2241.3986,-82.9467 2323.7939,-77.1695 2368.6822,-73.9348"/>
<polygon fill="#191970" stroke="#191970" points="2369.008,-77.4205 2378.7294,-73.208 2368.5029,-70.4387 2369.008,-77.4205"/>
</g>
<!-- Node38&#45;&gt;Node11 -->
<g id="edge107" class="edge">
<title>Node38&#45;&gt;Node11</title>
<path fill="none" stroke="#191970" d="M1179.4467,-130.0679C1162.507,-127.7211 1144.0332,-125.2108 1127,-123 995.1399,-105.8855 960.028,-114.798 830,-87 823.5845,-85.6285 816.8114,-83.798 810.3925,-81.8764"/>
<polygon fill="#191970" stroke="#191970" points="811.2888,-78.4894 800.6996,-78.8347 809.1929,-85.1683 811.2888,-78.4894"/>
</g>
<!-- Node38&#45;&gt;Node29 -->
<g id="edge106" class="edge">
<title>Node38&#45;&gt;Node29</title>
<path fill="none" stroke="#191970" d="M1243.7281,-128.9005C1248.6781,-118.8505 1256.5776,-102.8122 1262.7697,-90.2403"/>
<polygon fill="#191970" stroke="#191970" points="1266.0019,-91.5991 1267.2807,-81.0817 1259.7223,-88.5061 1266.0019,-91.5991"/>
</g>
<!-- Node38&#45;&gt;Node34 -->
<g id="edge108" class="edge">
<title>Node38&#45;&gt;Node34</title>
<path fill="none" stroke="#191970" d="M1226.3917,-128.9005C1212.1461,-118.0544 1188.7401,-100.2339 1171.7823,-87.3229"/>
<polygon fill="#191970" stroke="#191970" points="1173.6615,-84.3547 1163.5849,-81.0817 1169.4211,-89.9241 1173.6615,-84.3547"/>
</g>
<!-- Node39 -->
<g id="node40" class="node">
<title>Node39</title>
<polygon fill="#ffffff" stroke="#bfbfbf" points="1192.5,-62 1192.5,-81 1227.5,-81 1227.5,-62 1192.5,-62"/>
<text text-anchor="middle" x="1210" y="-69" font-family="Helvetica,sans-Serif" font-size="10.00" fill="#000000">map</text>
</g>
<!-- Node38&#45;&gt;Node39 -->
<g id="edge105" class="edge">
<title>Node38&#45;&gt;Node39</title>
<path fill="none" stroke="#191970" d="M1234.845,-128.9005C1230.5381,-118.95 1223.6903,-103.1292 1218.2735,-90.6147"/>
<polygon fill="#191970" stroke="#191970" points="1221.3316,-88.8686 1214.1473,-81.0817 1214.9075,-91.6492 1221.3316,-88.8686"/>
</g>
<!-- Node40&#45;&gt;Node2 -->
<g id="edge110" class="edge">
<title>Node40&#45;&gt;Node2</title>
<path fill="none" stroke="#191970" d="M2332.831,-190.2967C2327.5488,-180.4658 2320.6372,-167.6026 2315.0233,-157.1545"/>
<polygon fill="#191970" stroke="#191970" points="2317.9504,-155.2073 2310.134,-148.055 2311.7841,-158.5205 2317.9504,-155.2073"/>
</g>
<!-- Node40&#45;&gt;Node4 -->
<g id="edge111" class="edge">
<title>Node40&#45;&gt;Node4</title>
<path fill="none" stroke="#191970" d="M2373.2559,-190.4415C2389.4798,-181.6175 2408.5083,-169.2084 2422,-154 2455.5887,-116.1374 2476.3635,-59.0364 2485.5172,-29.3972"/>
<polygon fill="#191970" stroke="#191970" points="2488.8736,-30.3891 2488.366,-19.8065 2482.1634,-28.3959 2488.8736,-30.3891"/>
</g>
<!-- Node40&#45;&gt;Node7 -->
<g id="edge112" class="edge">
<title>Node40&#45;&gt;Node7</title>
<path fill="none" stroke="#191970" d="M2349.8028,-190.377C2359.1524,-172.1037 2370.4935,-141.5129 2354,-123 2307.7195,-71.0533 2111.7036,-97.9616 2043,-87 1974.9149,-76.1371 1959.4275,-64.4411 1891,-56 1690.3982,-31.2542 1045.5732,-14.5826 887.9896,-10.812"/>
<polygon fill="#191970" stroke="#191970" points="887.9905,-7.3112 877.9102,-10.5726 887.8242,-14.3092 887.9905,-7.3112"/>
</g>
<!-- Node40&#45;&gt;Node8 -->
<g id="edge113" class="edge">
<title>Node40&#45;&gt;Node8</title>
<path fill="none" stroke="#191970" d="M2369.3,-190.3083C2382.4405,-181.591 2396.7372,-169.3177 2404,-154 2413.3654,-134.2478 2410.8566,-108.7344 2407.3011,-91.3437"/>
<polygon fill="#191970" stroke="#191970" points="2410.62,-90.1665 2404.9277,-81.2308 2403.8051,-91.766 2410.62,-90.1665"/>
</g>
<!-- Node40&#45;&gt;Node11 -->
<g id="edge114" class="edge">
<title>Node40&#45;&gt;Node11</title>
<path fill="none" stroke="#191970" d="M2344.7719,-190.4525C2348.4755,-171.6683 2351.2316,-139.9518 2333,-123 2271.8317,-66.1256 912.4266,-100.4946 830,-87 823.5257,-85.9401 816.727,-84.2454 810.3016,-82.3583"/>
<polygon fill="#191970" stroke="#191970" points="811.202,-78.9723 800.6122,-79.298 809.0937,-85.6473 811.202,-78.9723"/>
</g>
<!-- Node41&#45;&gt;Node1 -->
<g id="edge117" class="edge">
<title>Node41&#45;&gt;Node1</title>
<path fill="none" stroke="#191970" d="M283.0808,-190.4129C316.0241,-180.4957 359.7111,-166.9945 398,-154 400.3828,-153.1913 402.8347,-152.3393 405.3,-151.4678"/>
<polygon fill="#191970" stroke="#191970" points="406.5359,-154.7428 414.7577,-148.0606 404.1633,-148.1571 406.5359,-154.7428"/>
</g>
<!-- Node41&#45;&gt;Node7 -->
<g id="edge118" class="edge">
<title>Node41&#45;&gt;Node7</title>
<path fill="none" stroke="#191970" d="M189.6846,-190.4667C153.4718,-175.2896 110.4834,-150.2505 133,-123 177.4788,-69.1701 680.6146,-24.1527 818.334,-12.7757"/>
<polygon fill="#191970" stroke="#191970" points="818.6584,-16.2609 828.339,-11.9555 818.0864,-9.2844 818.6584,-16.2609"/>
</g>
<!-- Node41&#45;&gt;Node11 -->
<g id="edge123" class="edge">
<title>Node41&#45;&gt;Node11</title>
<path fill="none" stroke="#191970" d="M238.6144,-190.1784C247.8869,-170.7895 266.7287,-138.1049 294,-123 376.1392,-77.505 622.2978,-101.9314 715,-87 726.3703,-85.1686 738.6967,-82.4267 749.5278,-79.7559"/>
<polygon fill="#191970" stroke="#191970" points="750.5469,-83.1082 759.3741,-77.249 748.8197,-76.3246 750.5469,-83.1082"/>
</g>
<!-- Node41&#45;&gt;Node16 -->
<g id="edge125" class="edge">
<title>Node41&#45;&gt;Node16</title>
<path fill="none" stroke="#191970" d="M289.5856,-201.846C398.3323,-194.6831 641.2897,-177.4287 845,-154 857.3924,-152.5748 870.5672,-150.8324 883.2639,-149.0369"/>
<polygon fill="#191970" stroke="#191970" points="883.9199,-152.4787 893.3198,-147.5906 882.9233,-145.5499 883.9199,-152.4787"/>
</g>
<!-- Node41&#45;&gt;Node26 -->
<g id="edge120" class="edge">
<title>Node41&#45;&gt;Node26</title>
<path fill="none" stroke="#191970" d="M279.558,-190.4884C305.0987,-181.527 336.657,-168.9761 363,-154 382.5528,-142.8841 381.8296,-130.5956 403,-123 530.0202,-77.4273 1482.7273,-100.4854 1617,-87 1635.8125,-85.1106 1656.6275,-81.6181 1673.4972,-78.426"/>
<polygon fill="#191970" stroke="#191970" points="1674.2893,-81.8377 1683.4381,-76.4943 1672.954,-74.9662 1674.2893,-81.8377"/>
</g>
<!-- Node41&#45;&gt;Node29 -->
<g id="edge121" class="edge">
<title>Node41&#45;&gt;Node29</title>
<path fill="none" stroke="#191970" d="M262.0838,-190.4473C281.0526,-180.6509 305.8688,-167.2687 327,-154 346.9524,-141.4714 347.7352,-130.7032 370,-123 552.024,-60.0229 1048.2038,-129.7955 1236,-87 1238.6455,-86.3971 1241.3404,-85.606 1244.0049,-84.6999"/>
<polygon fill="#191970" stroke="#191970" points="1245.3342,-87.9383 1253.3804,-81.0456 1242.792,-81.4162 1245.3342,-87.9383"/>
</g>
<!-- Node41&#45;&gt;Node34 -->
<g id="edge124" class="edge">
<title>Node41&#45;&gt;Node34</title>
<path fill="none" stroke="#191970" d="M249.69,-190.4181C277.0865,-167.1315 327.1499,-124.8882 332,-123 473.4264,-67.9394 862.7521,-99.5365 1014,-87 1049.959,-84.0195 1091.0719,-79.1747 1118.801,-75.6946"/>
<polygon fill="#191970" stroke="#191970" points="1119.2546,-79.1653 1128.7345,-74.4344 1118.3735,-72.2209 1119.2546,-79.1653"/>
</g>
<!-- Node42 -->
<g id="node43" class="node">
<title>Node42</title>
<polygon fill="#ffffff" stroke="#bfbfbf" points="142.5,-129 142.5,-148 171.5,-148 171.5,-129 142.5,-129"/>
<text text-anchor="middle" x="157" y="-136" font-family="Helvetica,sans-Serif" font-size="10.00" fill="#000000">ios</text>
</g>
<!-- Node41&#45;&gt;Node42 -->
<g id="edge119" class="edge">
<title>Node41&#45;&gt;Node42</title>
<path fill="none" stroke="#191970" d="M214.9813,-190.2967C203.1825,-179.7564 187.4816,-165.7303 175.3943,-154.9323"/>
<polygon fill="#191970" stroke="#191970" points="177.4853,-152.107 167.6959,-148.055 172.8217,-157.3273 177.4853,-152.107"/>
</g>
<!-- Node43 -->
<g id="node44" class="node">
<title>Node43</title>
<polygon fill="#ffffff" stroke="#bfbfbf" points="190,-129 190,-148 242,-148 242,-129 190,-129"/>
<text text-anchor="middle" x="216" y="-136" font-family="Helvetica,sans-Serif" font-size="10.00" fill="#000000">ostream</text>
</g>
<!-- Node41&#45;&gt;Node43 -->
<g id="edge122" class="edge">
<title>Node41&#45;&gt;Node43</title>
<path fill="none" stroke="#191970" d="M228.3694,-190.2967C226.0701,-180.6685 223.0762,-168.1318 220.6099,-157.8038"/>
<polygon fill="#191970" stroke="#191970" points="224.0089,-156.9685 218.2818,-148.055 217.2003,-158.5945 224.0089,-156.9685"/>
</g>
</g>
</svg>
        <g id="navigator" transform="translate(0 0)" fill="#404254">
                <rect fill="#f2f5e9" fill-opacity="0.5" stroke="#606060" stroke-width=".5" x="0" y="0" width="60" height="60"/>
                <use id="zoomplus" xlink:href="#zoomPlus" target="_top" x="17" y="9" onmousedown="handleZoom(evt,'in')"/>
                <use id="zoomminus" xlink:href="#zoomMin" target="_top" x="42" y="9" onmousedown="handleZoom(evt,'out')"/>
                <use id="reset" xlink:href="#resetDef" target="_top" x="30" y="36" onmousedown="handleReset()"/>
                <g id="arrowUp" xlink:href="#dirArrow" target="_top" transform="translate(30 24)" onmousedown="handlePan(0,-1)">
                  <use xlink:href="#rim" target="_top" fill="#404040">
                        <set attributeName="fill" to="#808080" begin="arrowUp.mouseover" end="arrowUp.mouseout"/>
                  </use>
                  <path fill="none" stroke="white" stroke-width="1.5" d="M0,-3.0v7 M-2.5,-0.5L0,-3.0L2.5,-0.5"/>
                </g>
                <g id="arrowRight" xlink:href="#dirArrow" target="_top" transform="rotate(90) translate(36 -43)" onmousedown="handlePan(1,0)">
                  <use xlink:href="#rim" target="_top" fill="#404040">
                        <set attributeName="fill" to="#808080" begin="arrowRight.mouseover" end="arrowRight.mouseout"/>
                  </use>
                  <path fill="none" stroke="white" stroke-width="1.5" d="M0,-3.0v7 M-2.5,-0.5L0,-3.0L2.5,-0.5"/>
                </g>
                <g id="arrowDown" xlink:href="#dirArrow" target="_top" transform="rotate(180) translate(-30 -48)" onmousedown="handlePan(0,1)">
                  <use xlink:href="#rim" target="_top" fill="#404040">
                        <set attributeName="fill" to="#808080" begin="arrowDown.mouseover" end="arrowDown.mouseout"/>
                  </use>
                  <path fill="none" stroke="white" stroke-width="1.5" d="M0,-3.0v7 M-2.5,-0.5L0,-3.0L2.5,-0.5"/>
                </g>
                <g id="arrowLeft" xlink:href="#dirArrow" target="_top" transform="rotate(270) translate(-36 17)" onmousedown="handlePan(-1,0)">
                  <use xlink:href="#rim" target="_top" fill="#404040">
                        <set attributeName="fill" to="#808080" begin="arrowLeft.mouseover" end="arrowLeft.mouseout"/>
                  </use>
                  <path fill="none" stroke="white" stroke-width="1.5" d="M0,-3.0v7 M-2.5,-0.5L0,-3.0L2.5,-0.5"/>
                </g>
        </g>
        <svg viewBox="0 0 15 15" width="100%" height="30px" preserveAspectRatio="xMaxYMin meet">
         <g id="arrow_out" transform="scale(0.3 0.3)">
          <a xlink:href="serializer_8hpp__incl_org.svg" target="_top" target="_base">
           <rect id="button" ry="5" rx="5" y="6" x="6" height="38" width="38"
                fill="#f2f5e9" fill-opacity="0.5" stroke="#606060" stroke-width="1.0"/>
           <path id="arrow"
             d="M 11.500037,31.436501 C 11.940474,20.09759 22.043105,11.32322 32.158766,21.979434 L 37.068811,17.246167 C 37.068811,17.246167 37.088388,32 37.088388,32 L 22.160133,31.978069 C 22.160133,31.978069 26.997745,27.140456 26.997745,27.140456 C 18.528582,18.264221 13.291696,25.230495 11.500037,31.436501 z"
             style="fill:#404040;"/>
          </a>
         </g>
        </svg>
</svg>
