<?xml version="1.0" encoding="UTF-8" standalone="no"?>
<!DOCTYPE svg PUBLIC "-//W3C//DTD SVG 1.1//EN"
 "http://www.w3.org/Graphics/SVG/1.1/DTD/svg11.dtd">
<!-- Generated by graphviz version 2.40.1 (20161225.0304)
 -->
<!-- Title: nlohmann::detail::make_index_sequence&lt; 0 &gt; Pages: 1 -->
<svg width="126pt" height="182pt"
 viewBox="0.00 0.00 126.00 182.00" xmlns="http://www.w3.org/2000/svg" xmlns:xlink="http://www.w3.org/1999/xlink">
<g id="graph0" class="graph" transform="scale(1 1) rotate(0) translate(4 178)">
<title>nlohmann::detail::make_index_sequence&lt; 0 &gt;</title>
<polygon fill="#ffffff" stroke="transparent" points="-4,4 -4,-178 122,-178 122,4 -4,4"/>
<!-- Node0 -->
<g id="node1" class="node">
<title>Node0</title>
<polygon fill="#bfbfbf" stroke="#000000" points="0,-.5 0,-68.5 118,-68.5 118,-.5 0,-.5"/>
<text text-anchor="start" x="8" y="-56.5" font-family="Helvetica,sans-Serif" font-size="10.00" fill="#000000">nlohmann::detail::make</text>
<text text-anchor="middle" x="59" y="-45.5" font-family="Helvetica,sans-Serif" font-size="10.00" fill="#000000">_index_sequence&lt; 0 &gt;</text>
<polyline fill="none" stroke="#000000" points="0,-38.5 118,-38.5 "/>
<text text-anchor="middle" x="59" y="-26.5" font-family="Helvetica,sans-Serif" font-size="10.00" fill="#000000"> </text>
<polyline fill="none" stroke="#000000" points="0,-19.5 118,-19.5 "/>
<text text-anchor="middle" x="59" y="-7.5" font-family="Helvetica,sans-Serif" font-size="10.00" fill="#000000"> </text>
</g>
<!-- Node1 -->
<g id="node2" class="node">
<title>Node1</title>
<g id="a_node2"><a xlink:href="structnlohmann_1_1detail_1_1index__sequence.html" target="_top" xlink:title="{nlohmann::detail::index\l_sequence\&lt;\&gt;\n||+ size()\l}">
<polygon fill="#ffffff" stroke="#000000" points=".5,-105.5 .5,-173.5 117.5,-173.5 117.5,-105.5 .5,-105.5"/>
<text text-anchor="start" x="8.5" y="-161.5" font-family="Helvetica,sans-Serif" font-size="10.00" fill="#000000">nlohmann::detail::index</text>
<text text-anchor="middle" x="59" y="-150.5" font-family="Helvetica,sans-Serif" font-size="10.00" fill="#000000">_sequence&lt;&gt;</text>
<polyline fill="none" stroke="#000000" points=".5,-143.5 117.5,-143.5 "/>
<text text-anchor="middle" x="59" y="-131.5" font-family="Helvetica,sans-Serif" font-size="10.00" fill="#000000"> </text>
<polyline fill="none" stroke="#000000" points=".5,-124.5 117.5,-124.5 "/>
<text text-anchor="start" x="8.5" y="-112.5" font-family="Helvetica,sans-Serif" font-size="10.00" fill="#000000">+ size()</text>
</a>
</g>
</g>
<!-- Node1&#45;&gt;Node0 -->
<g id="edge1" class="edge">
<title>Node1&#45;&gt;Node0</title>
<path fill="none" stroke="#191970" d="M59,-95.2353C59,-86.3902 59,-77.2253 59,-68.7788"/>
<polygon fill="none" stroke="#191970" points="55.5001,-95.4095 59,-105.4095 62.5001,-95.4095 55.5001,-95.4095"/>
</g>
</g>
</svg>
