<?xml version="1.0" encoding="UTF-8" standalone="no"?>
<!DOCTYPE svg PUBLIC "-//W3C//DTD SVG 1.1//EN"
 "http://www.w3.org/Graphics/SVG/1.1/DTD/svg11.dtd">
<!-- Generated by graphviz version 2.40.1 (20161225.0304)
 -->
<!-- Title: nlohmann::detail::is_compatible_integer_type&lt; RealIntegerType, CompatibleNumberIntegerType &gt; Pages: 1 -->
<svg width="196pt" height="320pt"
 viewBox="0.00 0.00 196.00 320.00" xmlns="http://www.w3.org/2000/svg" xmlns:xlink="http://www.w3.org/1999/xlink">
<g id="graph0" class="graph" transform="scale(1 1) rotate(0) translate(4 316)">
<title>nlohmann::detail::is_compatible_integer_type&lt; RealIntegerType, CompatibleNumberIntegerType &gt;</title>
<polygon fill="#ffffff" stroke="transparent" points="-4,4 -4,-316 192,-316 192,4 -4,4"/>
<!-- Node0 -->
<g id="node1" class="node">
<title>Node0</title>
<polygon fill="#bfbfbf" stroke="#000000" points="0,-.5 0,-90.5 188,-90.5 188,-.5 0,-.5"/>
<text text-anchor="start" x="8" y="-78.5" font-family="Helvetica,sans-Serif" font-size="10.00" fill="#000000">nlohmann::detail::is</text>
<text text-anchor="start" x="8" y="-67.5" font-family="Helvetica,sans-Serif" font-size="10.00" fill="#000000">_compatible_integer_type</text>
<text text-anchor="start" x="8" y="-56.5" font-family="Helvetica,sans-Serif" font-size="10.00" fill="#000000">&lt; RealIntegerType, CompatibleNumber</text>
<text text-anchor="middle" x="94" y="-45.5" font-family="Helvetica,sans-Serif" font-size="10.00" fill="#000000">IntegerType &gt;</text>
<polyline fill="none" stroke="#000000" points="0,-38.5 188,-38.5 "/>
<text text-anchor="middle" x="94" y="-26.5" font-family="Helvetica,sans-Serif" font-size="10.00" fill="#000000"> </text>
<polyline fill="none" stroke="#000000" points="0,-19.5 188,-19.5 "/>
<text text-anchor="middle" x="94" y="-7.5" font-family="Helvetica,sans-Serif" font-size="10.00" fill="#000000"> </text>
</g>
<!-- Node1 -->
<g id="node2" class="node">
<title>Node1</title>
<g id="a_node2"><a xlink:href="structnlohmann_1_1detail_1_1is__compatible__integer__type__impl.html" target="_top" xlink:title="{nlohmann::detail::is\l_compatible_integer_type\l_impl\&lt; RealIntegerType,\l CompatibleNumberIntegerType \&gt;\n||}">
<polygon fill="#ffffff" stroke="#000000" points="12,-127.5 12,-217.5 176,-217.5 176,-127.5 12,-127.5"/>
<text text-anchor="start" x="20" y="-205.5" font-family="Helvetica,sans-Serif" font-size="10.00" fill="#000000">nlohmann::detail::is</text>
<text text-anchor="start" x="20" y="-194.5" font-family="Helvetica,sans-Serif" font-size="10.00" fill="#000000">_compatible_integer_type</text>
<text text-anchor="start" x="20" y="-183.5" font-family="Helvetica,sans-Serif" font-size="10.00" fill="#000000">_impl&lt; RealIntegerType,</text>
<text text-anchor="middle" x="94" y="-172.5" font-family="Helvetica,sans-Serif" font-size="10.00" fill="#000000"> CompatibleNumberIntegerType &gt;</text>
<polyline fill="none" stroke="#000000" points="12,-165.5 176,-165.5 "/>
<text text-anchor="middle" x="94" y="-153.5" font-family="Helvetica,sans-Serif" font-size="10.00" fill="#000000"> </text>
<polyline fill="none" stroke="#000000" points="12,-146.5 176,-146.5 "/>
<text text-anchor="middle" x="94" y="-134.5" font-family="Helvetica,sans-Serif" font-size="10.00" fill="#000000"> </text>
</a>
</g>
</g>
<!-- Node1&#45;&gt;Node0 -->
<g id="edge1" class="edge">
<title>Node1&#45;&gt;Node0</title>
<path fill="none" stroke="#191970" d="M94,-117.2012C94,-108.4232 94,-99.4326 94,-90.9156"/>
<polygon fill="none" stroke="#191970" points="90.5001,-117.3669 94,-127.367 97.5001,-117.367 90.5001,-117.3669"/>
</g>
<!-- Node2 -->
<g id="node3" class="node">
<title>Node2</title>
<polygon fill="#ffffff" stroke="#bfbfbf" points="63,-254.5 63,-311.5 125,-311.5 125,-254.5 63,-254.5"/>
<text text-anchor="middle" x="94" y="-299.5" font-family="Helvetica,sans-Serif" font-size="10.00" fill="#000000">false_type</text>
<polyline fill="none" stroke="#bfbfbf" points="63,-292.5 125,-292.5 "/>
<text text-anchor="middle" x="94" y="-280.5" font-family="Helvetica,sans-Serif" font-size="10.00" fill="#000000"> </text>
<polyline fill="none" stroke="#bfbfbf" points="63,-273.5 125,-273.5 "/>
<text text-anchor="middle" x="94" y="-261.5" font-family="Helvetica,sans-Serif" font-size="10.00" fill="#000000"> </text>
</g>
<!-- Node2&#45;&gt;Node1 -->
<g id="edge2" class="edge">
<title>Node2&#45;&gt;Node1</title>
<path fill="none" stroke="#191970" d="M94,-244.1977C94,-235.667 94,-226.5607 94,-217.7995"/>
<polygon fill="none" stroke="#191970" points="90.5001,-244.2559 94,-254.2559 97.5001,-244.2559 90.5001,-244.2559"/>
</g>
</g>
</svg>
