<?xml version="1.0" encoding="UTF-8" standalone="no"?>
<!DOCTYPE svg PUBLIC "-//W3C//DTD SVG 1.1//EN"
 "http://www.w3.org/Graphics/SVG/1.1/DTD/svg11.dtd">
<!-- Generated by graphviz version 2.40.1 (20161225.0304)
 -->
<!-- Title: nlohmann::detail::is_constructible_string_type&lt; BasicJsonType, ConstructibleStringType &gt; Pages: 1 -->
<svg width="151pt" height="320pt"
 viewBox="0.00 0.00 151.00 320.00" xmlns="http://www.w3.org/2000/svg" xmlns:xlink="http://www.w3.org/1999/xlink">
<g id="graph0" class="graph" transform="scale(1 1) rotate(0) translate(4 316)">
<title>nlohmann::detail::is_constructible_string_type&lt; BasicJsonType, ConstructibleStringType &gt;</title>
<polygon fill="#ffffff" stroke="transparent" points="-4,4 -4,-316 147,-316 147,4 -4,4"/>
<!-- Node3 -->
<g id="node1" class="node">
<title>Node3</title>
<polygon fill="#bfbfbf" stroke="#000000" points="4.5,-.5 4.5,-90.5 138.5,-90.5 138.5,-.5 4.5,-.5"/>
<text text-anchor="start" x="12.5" y="-78.5" font-family="Helvetica,sans-Serif" font-size="10.00" fill="#000000">nlohmann::detail::is</text>
<text text-anchor="start" x="12.5" y="-67.5" font-family="Helvetica,sans-Serif" font-size="10.00" fill="#000000">_constructible_string</text>
<text text-anchor="start" x="12.5" y="-56.5" font-family="Helvetica,sans-Serif" font-size="10.00" fill="#000000">_type&lt; BasicJsonType,</text>
<text text-anchor="middle" x="71.5" y="-45.5" font-family="Helvetica,sans-Serif" font-size="10.00" fill="#000000"> ConstructibleStringType &gt;</text>
<polyline fill="none" stroke="#000000" points="4.5,-38.5 138.5,-38.5 "/>
<text text-anchor="middle" x="71.5" y="-26.5" font-family="Helvetica,sans-Serif" font-size="10.00" fill="#000000"> </text>
<polyline fill="none" stroke="#000000" points="4.5,-19.5 138.5,-19.5 "/>
<text text-anchor="middle" x="71.5" y="-7.5" font-family="Helvetica,sans-Serif" font-size="10.00" fill="#000000"> </text>
</g>
<!-- Node4 -->
<g id="node2" class="node">
<title>Node4</title>
<g id="a_node2"><a xlink:href="structnlohmann_1_1detail_1_1is__constructible__string__type__impl.html" target="_top" xlink:title="{nlohmann::detail::is\l_constructible_string\l_type_impl\&lt; BasicJsonType,\l ConstructibleStringType \&gt;\n||}">
<polygon fill="#ffffff" stroke="#000000" points="0,-127.5 0,-217.5 143,-217.5 143,-127.5 0,-127.5"/>
<text text-anchor="start" x="8" y="-205.5" font-family="Helvetica,sans-Serif" font-size="10.00" fill="#000000">nlohmann::detail::is</text>
<text text-anchor="start" x="8" y="-194.5" font-family="Helvetica,sans-Serif" font-size="10.00" fill="#000000">_constructible_string</text>
<text text-anchor="start" x="8" y="-183.5" font-family="Helvetica,sans-Serif" font-size="10.00" fill="#000000">_type_impl&lt; BasicJsonType,</text>
<text text-anchor="middle" x="71.5" y="-172.5" font-family="Helvetica,sans-Serif" font-size="10.00" fill="#000000"> ConstructibleStringType &gt;</text>
<polyline fill="none" stroke="#000000" points="0,-165.5 143,-165.5 "/>
<text text-anchor="middle" x="71.5" y="-153.5" font-family="Helvetica,sans-Serif" font-size="10.00" fill="#000000"> </text>
<polyline fill="none" stroke="#000000" points="0,-146.5 143,-146.5 "/>
<text text-anchor="middle" x="71.5" y="-134.5" font-family="Helvetica,sans-Serif" font-size="10.00" fill="#000000"> </text>
</a>
</g>
</g>
<!-- Node4&#45;&gt;Node3 -->
<g id="edge1" class="edge">
<title>Node4&#45;&gt;Node3</title>
<path fill="none" stroke="#191970" d="M71.5,-117.2012C71.5,-108.4232 71.5,-99.4326 71.5,-90.9156"/>
<polygon fill="none" stroke="#191970" points="68.0001,-117.3669 71.5,-127.367 75.0001,-117.367 68.0001,-117.3669"/>
</g>
<!-- Node5 -->
<g id="node3" class="node">
<title>Node5</title>
<polygon fill="#ffffff" stroke="#bfbfbf" points="31,-254.5 31,-311.5 112,-311.5 112,-254.5 31,-254.5"/>
<text text-anchor="middle" x="71.5" y="-299.5" font-family="Helvetica,sans-Serif" font-size="10.00" fill="#000000">std::false_type</text>
<polyline fill="none" stroke="#bfbfbf" points="31,-292.5 112,-292.5 "/>
<text text-anchor="middle" x="71.5" y="-280.5" font-family="Helvetica,sans-Serif" font-size="10.00" fill="#000000"> </text>
<polyline fill="none" stroke="#bfbfbf" points="31,-273.5 112,-273.5 "/>
<text text-anchor="middle" x="71.5" y="-261.5" font-family="Helvetica,sans-Serif" font-size="10.00" fill="#000000"> </text>
</g>
<!-- Node5&#45;&gt;Node4 -->
<g id="edge2" class="edge">
<title>Node5&#45;&gt;Node4</title>
<path fill="none" stroke="#191970" d="M71.5,-244.1977C71.5,-235.667 71.5,-226.5607 71.5,-217.7995"/>
<polygon fill="none" stroke="#191970" points="68.0001,-244.2559 71.5,-254.2559 75.0001,-244.2559 68.0001,-244.2559"/>
</g>
</g>
</svg>
