<?xml version="1.0" encoding="UTF-8" standalone="no"?>
<!DOCTYPE svg PUBLIC "-//W3C//DTD SVG 1.1//EN"
 "http://www.w3.org/Graphics/SVG/1.1/DTD/svg11.dtd">
<!-- Generated by graphviz version 2.40.1 (20161225.0304)
 -->
<!-- Title: nlohmann::detail::is_compatible_string_type&lt; BasicJsonType, ConstructibleStringType &gt; Pages: 1 -->
<svg width="188pt" height="320pt"
 viewBox="0.00 0.00 188.00 320.00" xmlns="http://www.w3.org/2000/svg" xmlns:xlink="http://www.w3.org/1999/xlink">
<g id="graph0" class="graph" transform="scale(1 1) rotate(0) translate(4 316)">
<title>nlohmann::detail::is_compatible_string_type&lt; BasicJsonType, ConstructibleStringType &gt;</title>
<polygon fill="#ffffff" stroke="transparent" points="-4,4 -4,-316 184,-316 184,4 -4,4"/>
<!-- Node3 -->
<g id="node1" class="node">
<title>Node3</title>
<polygon fill="#bfbfbf" stroke="#000000" points="11.5,-.5 11.5,-90.5 168.5,-90.5 168.5,-.5 11.5,-.5"/>
<text text-anchor="start" x="19.5" y="-78.5" font-family="Helvetica,sans-Serif" font-size="10.00" fill="#000000">nlohmann::detail::is</text>
<text text-anchor="start" x="19.5" y="-67.5" font-family="Helvetica,sans-Serif" font-size="10.00" fill="#000000">_compatible_string_type</text>
<text text-anchor="start" x="19.5" y="-56.5" font-family="Helvetica,sans-Serif" font-size="10.00" fill="#000000">&lt; BasicJsonType, Constructible</text>
<text text-anchor="middle" x="90" y="-45.5" font-family="Helvetica,sans-Serif" font-size="10.00" fill="#000000">StringType &gt;</text>
<polyline fill="none" stroke="#000000" points="11.5,-38.5 168.5,-38.5 "/>
<text text-anchor="middle" x="90" y="-26.5" font-family="Helvetica,sans-Serif" font-size="10.00" fill="#000000"> </text>
<polyline fill="none" stroke="#000000" points="11.5,-19.5 168.5,-19.5 "/>
<text text-anchor="middle" x="90" y="-7.5" font-family="Helvetica,sans-Serif" font-size="10.00" fill="#000000"> </text>
</g>
<!-- Node4 -->
<g id="node2" class="node">
<title>Node4</title>
<g id="a_node2"><a xlink:href="structnlohmann_1_1detail_1_1is__compatible__string__type__impl.html" target="_top" xlink:title="{nlohmann::detail::is\l_compatible_string_type\l_impl\&lt; BasicJsonType, Constructible\lStringType \&gt;\n||}">
<polygon fill="#ffffff" stroke="#000000" points="0,-127.5 0,-217.5 180,-217.5 180,-127.5 0,-127.5"/>
<text text-anchor="start" x="8" y="-205.5" font-family="Helvetica,sans-Serif" font-size="10.00" fill="#000000">nlohmann::detail::is</text>
<text text-anchor="start" x="8" y="-194.5" font-family="Helvetica,sans-Serif" font-size="10.00" fill="#000000">_compatible_string_type</text>
<text text-anchor="start" x="8" y="-183.5" font-family="Helvetica,sans-Serif" font-size="10.00" fill="#000000">_impl&lt; BasicJsonType, Constructible</text>
<text text-anchor="middle" x="90" y="-172.5" font-family="Helvetica,sans-Serif" font-size="10.00" fill="#000000">StringType &gt;</text>
<polyline fill="none" stroke="#000000" points="0,-165.5 180,-165.5 "/>
<text text-anchor="middle" x="90" y="-153.5" font-family="Helvetica,sans-Serif" font-size="10.00" fill="#000000"> </text>
<polyline fill="none" stroke="#000000" points="0,-146.5 180,-146.5 "/>
<text text-anchor="middle" x="90" y="-134.5" font-family="Helvetica,sans-Serif" font-size="10.00" fill="#000000"> </text>
</a>
</g>
</g>
<!-- Node4&#45;&gt;Node3 -->
<g id="edge1" class="edge">
<title>Node4&#45;&gt;Node3</title>
<path fill="none" stroke="#191970" d="M90,-117.2012C90,-108.4232 90,-99.4326 90,-90.9156"/>
<polygon fill="none" stroke="#191970" points="86.5001,-117.3669 90,-127.367 93.5001,-117.367 86.5001,-117.3669"/>
</g>
<!-- Node5 -->
<g id="node3" class="node">
<title>Node5</title>
<polygon fill="#ffffff" stroke="#bfbfbf" points="59,-254.5 59,-311.5 121,-311.5 121,-254.5 59,-254.5"/>
<text text-anchor="middle" x="90" y="-299.5" font-family="Helvetica,sans-Serif" font-size="10.00" fill="#000000">false_type</text>
<polyline fill="none" stroke="#bfbfbf" points="59,-292.5 121,-292.5 "/>
<text text-anchor="middle" x="90" y="-280.5" font-family="Helvetica,sans-Serif" font-size="10.00" fill="#000000"> </text>
<polyline fill="none" stroke="#bfbfbf" points="59,-273.5 121,-273.5 "/>
<text text-anchor="middle" x="90" y="-261.5" font-family="Helvetica,sans-Serif" font-size="10.00" fill="#000000"> </text>
</g>
<!-- Node5&#45;&gt;Node4 -->
<g id="edge2" class="edge">
<title>Node5&#45;&gt;Node4</title>
<path fill="none" stroke="#191970" d="M90,-244.1977C90,-235.667 90,-226.5607 90,-217.7995"/>
<polygon fill="none" stroke="#191970" points="86.5001,-244.2559 90,-254.2559 93.5001,-244.2559 86.5001,-244.2559"/>
</g>
</g>
</svg>
