<?xml version="1.0" encoding="UTF-8" standalone="no"?>
<!DOCTYPE svg PUBLIC "-//W3C//DTD SVG 1.1//EN"
 "http://www.w3.org/Graphics/SVG/1.1/DTD/svg11.dtd">
<!-- Generated by graphviz version 2.40.1 (20161225.0304)
 -->
<!-- Title: nlohmann::detail::iterator_traits&lt; T, enable_if_t&lt; !std::is_pointer&lt; T &gt;::value &gt; &gt; Pages: 1 -->
<svg width="132pt" height="204pt"
 viewBox="0.00 0.00 132.00 204.00" xmlns="http://www.w3.org/2000/svg" xmlns:xlink="http://www.w3.org/1999/xlink">
<g id="graph0" class="graph" transform="scale(1 1) rotate(0) translate(4 200)">
<title>nlohmann::detail::iterator_traits&lt; T, enable_if_t&lt; !std::is_pointer&lt; T &gt;::value &gt; &gt;</title>
<polygon fill="#ffffff" stroke="transparent" points="-4,4 -4,-200 128,-200 128,4 -4,4"/>
<!-- Node0 -->
<g id="node1" class="node">
<title>Node0</title>
<polygon fill="#bfbfbf" stroke="#000000" points="0,-.5 0,-90.5 124,-90.5 124,-.5 0,-.5"/>
<text text-anchor="start" x="8" y="-78.5" font-family="Helvetica,sans-Serif" font-size="10.00" fill="#000000">nlohmann::detail::iterator</text>
<text text-anchor="start" x="8" y="-67.5" font-family="Helvetica,sans-Serif" font-size="10.00" fill="#000000">_traits&lt; T, enable_if_t</text>
<text text-anchor="start" x="8" y="-56.5" font-family="Helvetica,sans-Serif" font-size="10.00" fill="#000000">&lt; !std::is_pointer&lt; T &gt;::</text>
<text text-anchor="middle" x="62" y="-45.5" font-family="Helvetica,sans-Serif" font-size="10.00" fill="#000000">value &gt; &gt;</text>
<polyline fill="none" stroke="#000000" points="0,-38.5 124,-38.5 "/>
<text text-anchor="middle" x="62" y="-26.5" font-family="Helvetica,sans-Serif" font-size="10.00" fill="#000000"> </text>
<polyline fill="none" stroke="#000000" points="0,-19.5 124,-19.5 "/>
<text text-anchor="middle" x="62" y="-7.5" font-family="Helvetica,sans-Serif" font-size="10.00" fill="#000000"> </text>
</g>
<!-- Node1 -->
<g id="node2" class="node">
<title>Node1</title>
<g id="a_node2"><a xlink:href="structnlohmann_1_1detail_1_1iterator__types.html" target="_top" xlink:title="{nlohmann::detail::iterator\l_types\&lt; T \&gt;\n||}">
<polygon fill="#ffffff" stroke="#000000" points="0,-127.5 0,-195.5 124,-195.5 124,-127.5 0,-127.5"/>
<text text-anchor="start" x="8" y="-183.5" font-family="Helvetica,sans-Serif" font-size="10.00" fill="#000000">nlohmann::detail::iterator</text>
<text text-anchor="middle" x="62" y="-172.5" font-family="Helvetica,sans-Serif" font-size="10.00" fill="#000000">_types&lt; T &gt;</text>
<polyline fill="none" stroke="#000000" points="0,-165.5 124,-165.5 "/>
<text text-anchor="middle" x="62" y="-153.5" font-family="Helvetica,sans-Serif" font-size="10.00" fill="#000000"> </text>
<polyline fill="none" stroke="#000000" points="0,-146.5 124,-146.5 "/>
<text text-anchor="middle" x="62" y="-134.5" font-family="Helvetica,sans-Serif" font-size="10.00" fill="#000000"> </text>
</a>
</g>
</g>
<!-- Node1&#45;&gt;Node0 -->
<g id="edge1" class="edge">
<title>Node1&#45;&gt;Node0</title>
<path fill="none" stroke="#191970" d="M62,-117.3177C62,-108.5764 62,-99.3904 62,-90.6185"/>
<polygon fill="none" stroke="#191970" points="58.5001,-117.3235 62,-127.3236 65.5001,-117.3236 58.5001,-117.3235"/>
</g>
</g>
</svg>
