<?xml version="1.0" encoding="UTF-8" standalone="no"?>
<!DOCTYPE svg PUBLIC "-//W3C//DTD SVG 1.1//EN"
 "http://www.w3.org/Graphics/SVG/1.1/DTD/svg11.dtd">
<!-- Generated by graphviz version 2.40.1 (20161225.0304)
 -->
<!-- Title: nlohmann::detail::is_compatible_type&lt; BasicJsonType, CompatibleType &gt; Pages: 1 -->
<svg width="187pt" height="298pt"
 viewBox="0.00 0.00 187.00 298.00" xmlns="http://www.w3.org/2000/svg" xmlns:xlink="http://www.w3.org/1999/xlink">
<g id="graph0" class="graph" transform="scale(1 1) rotate(0) translate(4 294)">
<title>nlohmann::detail::is_compatible_type&lt; BasicJsonType, CompatibleType &gt;</title>
<polygon fill="#ffffff" stroke="transparent" points="-4,4 -4,-294 183,-294 183,4 -4,4"/>
<!-- Node0 -->
<g id="node1" class="node">
<title>Node0</title>
<polygon fill="#bfbfbf" stroke="#000000" points="15.5,-.5 15.5,-79.5 163.5,-79.5 163.5,-.5 15.5,-.5"/>
<text text-anchor="start" x="23.5" y="-67.5" font-family="Helvetica,sans-Serif" font-size="10.00" fill="#000000">nlohmann::detail::is</text>
<text text-anchor="start" x="23.5" y="-56.5" font-family="Helvetica,sans-Serif" font-size="10.00" fill="#000000">_compatible_type&lt; BasicJson</text>
<text text-anchor="middle" x="89.5" y="-45.5" font-family="Helvetica,sans-Serif" font-size="10.00" fill="#000000">Type, CompatibleType &gt;</text>
<polyline fill="none" stroke="#000000" points="15.5,-38.5 163.5,-38.5 "/>
<text text-anchor="middle" x="89.5" y="-26.5" font-family="Helvetica,sans-Serif" font-size="10.00" fill="#000000"> </text>
<polyline fill="none" stroke="#000000" points="15.5,-19.5 163.5,-19.5 "/>
<text text-anchor="middle" x="89.5" y="-7.5" font-family="Helvetica,sans-Serif" font-size="10.00" fill="#000000"> </text>
</g>
<!-- Node1 -->
<g id="node2" class="node">
<title>Node1</title>
<g id="a_node2"><a xlink:href="structnlohmann_1_1detail_1_1is__compatible__type__impl.html" target="_top" xlink:title="{nlohmann::detail::is\l_compatible_type_impl\l\&lt; BasicJsonType, CompatibleType \&gt;\n||}">
<polygon fill="#ffffff" stroke="#000000" points="0,-116.5 0,-195.5 179,-195.5 179,-116.5 0,-116.5"/>
<text text-anchor="start" x="8" y="-183.5" font-family="Helvetica,sans-Serif" font-size="10.00" fill="#000000">nlohmann::detail::is</text>
<text text-anchor="start" x="8" y="-172.5" font-family="Helvetica,sans-Serif" font-size="10.00" fill="#000000">_compatible_type_impl</text>
<text text-anchor="middle" x="89.5" y="-161.5" font-family="Helvetica,sans-Serif" font-size="10.00" fill="#000000">&lt; BasicJsonType, CompatibleType &gt;</text>
<polyline fill="none" stroke="#000000" points="0,-154.5 179,-154.5 "/>
<text text-anchor="middle" x="89.5" y="-142.5" font-family="Helvetica,sans-Serif" font-size="10.00" fill="#000000"> </text>
<polyline fill="none" stroke="#000000" points="0,-135.5 179,-135.5 "/>
<text text-anchor="middle" x="89.5" y="-123.5" font-family="Helvetica,sans-Serif" font-size="10.00" fill="#000000"> </text>
</a>
</g>
</g>
<!-- Node1&#45;&gt;Node0 -->
<g id="edge1" class="edge">
<title>Node1&#45;&gt;Node0</title>
<path fill="none" stroke="#191970" d="M89.5,-106.2163C89.5,-97.394 89.5,-88.3127 89.5,-79.8116"/>
<polygon fill="none" stroke="#191970" points="86.0001,-106.4038 89.5,-116.4038 93.0001,-106.4039 86.0001,-106.4038"/>
</g>
<!-- Node2 -->
<g id="node3" class="node">
<title>Node2</title>
<polygon fill="#ffffff" stroke="#bfbfbf" points="58.5,-232.5 58.5,-289.5 120.5,-289.5 120.5,-232.5 58.5,-232.5"/>
<text text-anchor="middle" x="89.5" y="-277.5" font-family="Helvetica,sans-Serif" font-size="10.00" fill="#000000">false_type</text>
<polyline fill="none" stroke="#bfbfbf" points="58.5,-270.5 120.5,-270.5 "/>
<text text-anchor="middle" x="89.5" y="-258.5" font-family="Helvetica,sans-Serif" font-size="10.00" fill="#000000"> </text>
<polyline fill="none" stroke="#bfbfbf" points="58.5,-251.5 120.5,-251.5 "/>
<text text-anchor="middle" x="89.5" y="-239.5" font-family="Helvetica,sans-Serif" font-size="10.00" fill="#000000"> </text>
</g>
<!-- Node2&#45;&gt;Node1 -->
<g id="edge2" class="edge">
<title>Node2&#45;&gt;Node1</title>
<path fill="none" stroke="#191970" d="M89.5,-222.1156C89.5,-213.4889 89.5,-204.3353 89.5,-195.6773"/>
<polygon fill="none" stroke="#191970" points="86.0001,-222.3083 89.5,-232.3083 93.0001,-222.3083 86.0001,-222.3083"/>
</g>
</g>
</svg>
