<?xml version="1.0" encoding="UTF-8" standalone="no"?>
<!DOCTYPE svg PUBLIC "-//W3C//DTD SVG 1.1//EN"
 "http://www.w3.org/Graphics/SVG/1.1/DTD/svg11.dtd">
<!-- Generated by graphviz version 2.40.1 (20161225.0304)
 -->
<!-- Title: nlohmann::detail::is_compatible_object_type&lt; BasicJsonType, CompatibleObjectType &gt; Pages: 1 -->
<svg width="185pt" height="320pt"
 viewBox="0.00 0.00 185.00 320.00" xmlns="http://www.w3.org/2000/svg" xmlns:xlink="http://www.w3.org/1999/xlink">
<g id="graph0" class="graph" transform="scale(1 1) rotate(0) translate(4 316)">
<title>nlohmann::detail::is_compatible_object_type&lt; BasicJsonType, CompatibleObjectType &gt;</title>
<polygon fill="#ffffff" stroke="transparent" points="-4,4 -4,-316 181,-316 181,4 -4,4"/>
<!-- Node0 -->
<g id="node1" class="node">
<title>Node0</title>
<polygon fill="#bfbfbf" stroke="#000000" points="0,-.5 0,-90.5 177,-90.5 177,-.5 0,-.5"/>
<text text-anchor="start" x="8" y="-78.5" font-family="Helvetica,sans-Serif" font-size="10.00" fill="#000000">nlohmann::detail::is</text>
<text text-anchor="start" x="8" y="-67.5" font-family="Helvetica,sans-Serif" font-size="10.00" fill="#000000">_compatible_object_type</text>
<text text-anchor="start" x="8" y="-56.5" font-family="Helvetica,sans-Serif" font-size="10.00" fill="#000000">&lt; BasicJsonType, CompatibleObject</text>
<text text-anchor="middle" x="88.5" y="-45.5" font-family="Helvetica,sans-Serif" font-size="10.00" fill="#000000">Type &gt;</text>
<polyline fill="none" stroke="#000000" points="0,-38.5 177,-38.5 "/>
<text text-anchor="middle" x="88.5" y="-26.5" font-family="Helvetica,sans-Serif" font-size="10.00" fill="#000000"> </text>
<polyline fill="none" stroke="#000000" points="0,-19.5 177,-19.5 "/>
<text text-anchor="middle" x="88.5" y="-7.5" font-family="Helvetica,sans-Serif" font-size="10.00" fill="#000000"> </text>
</g>
<!-- Node1 -->
<g id="node2" class="node">
<title>Node1</title>
<g id="a_node2"><a xlink:href="structnlohmann_1_1detail_1_1is__compatible__object__type__impl.html" target="_top" xlink:title="{nlohmann::detail::is\l_compatible_object_type\l_impl\&lt; BasicJsonType, Compatible\lObjectType \&gt;\n||}">
<polygon fill="#ffffff" stroke="#000000" points="2.5,-127.5 2.5,-217.5 174.5,-217.5 174.5,-127.5 2.5,-127.5"/>
<text text-anchor="start" x="10.5" y="-205.5" font-family="Helvetica,sans-Serif" font-size="10.00" fill="#000000">nlohmann::detail::is</text>
<text text-anchor="start" x="10.5" y="-194.5" font-family="Helvetica,sans-Serif" font-size="10.00" fill="#000000">_compatible_object_type</text>
<text text-anchor="start" x="10.5" y="-183.5" font-family="Helvetica,sans-Serif" font-size="10.00" fill="#000000">_impl&lt; BasicJsonType, Compatible</text>
<text text-anchor="middle" x="88.5" y="-172.5" font-family="Helvetica,sans-Serif" font-size="10.00" fill="#000000">ObjectType &gt;</text>
<polyline fill="none" stroke="#000000" points="2.5,-165.5 174.5,-165.5 "/>
<text text-anchor="middle" x="88.5" y="-153.5" font-family="Helvetica,sans-Serif" font-size="10.00" fill="#000000"> </text>
<polyline fill="none" stroke="#000000" points="2.5,-146.5 174.5,-146.5 "/>
<text text-anchor="middle" x="88.5" y="-134.5" font-family="Helvetica,sans-Serif" font-size="10.00" fill="#000000"> </text>
</a>
</g>
</g>
<!-- Node1&#45;&gt;Node0 -->
<g id="edge1" class="edge">
<title>Node1&#45;&gt;Node0</title>
<path fill="none" stroke="#191970" d="M88.5,-117.2012C88.5,-108.4232 88.5,-99.4326 88.5,-90.9156"/>
<polygon fill="none" stroke="#191970" points="85.0001,-117.3669 88.5,-127.367 92.0001,-117.367 85.0001,-117.3669"/>
</g>
<!-- Node2 -->
<g id="node3" class="node">
<title>Node2</title>
<polygon fill="#ffffff" stroke="#bfbfbf" points="57.5,-254.5 57.5,-311.5 119.5,-311.5 119.5,-254.5 57.5,-254.5"/>
<text text-anchor="middle" x="88.5" y="-299.5" font-family="Helvetica,sans-Serif" font-size="10.00" fill="#000000">false_type</text>
<polyline fill="none" stroke="#bfbfbf" points="57.5,-292.5 119.5,-292.5 "/>
<text text-anchor="middle" x="88.5" y="-280.5" font-family="Helvetica,sans-Serif" font-size="10.00" fill="#000000"> </text>
<polyline fill="none" stroke="#bfbfbf" points="57.5,-273.5 119.5,-273.5 "/>
<text text-anchor="middle" x="88.5" y="-261.5" font-family="Helvetica,sans-Serif" font-size="10.00" fill="#000000"> </text>
</g>
<!-- Node2&#45;&gt;Node1 -->
<g id="edge2" class="edge">
<title>Node2&#45;&gt;Node1</title>
<path fill="none" stroke="#191970" d="M88.5,-244.1977C88.5,-235.667 88.5,-226.5607 88.5,-217.7995"/>
<polygon fill="none" stroke="#191970" points="85.0001,-244.2559 88.5,-254.2559 92.0001,-244.2559 85.0001,-244.2559"/>
</g>
</g>
</svg>
