<?xml version="1.0" encoding="UTF-8" standalone="no"?>
<!DOCTYPE svg PUBLIC "-//W3C//DTD SVG 1.1//EN"
 "http://www.w3.org/Graphics/SVG/1.1/DTD/svg11.dtd">
<!-- Generated by graphviz version 2.40.1 (20161225.0304)
 -->
<!-- Title: nlohmann::detail::dtoa_impl::boundaries Pages: 1 -->
<svg width="121pt" height="281pt"
 viewBox="0.00 0.00 121.00 281.00" xmlns="http://www.w3.org/2000/svg" xmlns:xlink="http://www.w3.org/1999/xlink">
<g id="graph0" class="graph" transform="scale(1 1) rotate(0) translate(4 277)">
<title>nlohmann::detail::dtoa_impl::boundaries</title>
<polygon fill="#ffffff" stroke="transparent" points="-4,4 -4,-277 117,-277 117,4 -4,4"/>
<!-- Node1 -->
<g id="node1" class="node">
<title>Node1</title>
<polygon fill="#bfbfbf" stroke="#000000" points="0,-.5 0,-68.5 113,-68.5 113,-.5 0,-.5"/>
<text text-anchor="start" x="8" y="-56.5" font-family="Helvetica,sans-Serif" font-size="10.00" fill="#000000">nlohmann::detail::dtoa</text>
<text text-anchor="middle" x="56.5" y="-45.5" font-family="Helvetica,sans-Serif" font-size="10.00" fill="#000000">_impl::boundaries</text>
<polyline fill="none" stroke="#000000" points="0,-38.5 113,-38.5 "/>
<text text-anchor="middle" x="56.5" y="-26.5" font-family="Helvetica,sans-Serif" font-size="10.00" fill="#000000"> </text>
<polyline fill="none" stroke="#000000" points="0,-19.5 113,-19.5 "/>
<text text-anchor="middle" x="56.5" y="-7.5" font-family="Helvetica,sans-Serif" font-size="10.00" fill="#000000"> </text>
</g>
<!-- Node2 -->
<g id="node2" class="node">
<title>Node2</title>
<g id="a_node2"><a xlink:href="structnlohmann_1_1detail_1_1dtoa__impl_1_1diyfp.html" target="_top" xlink:title="{nlohmann::detail::dtoa\l_impl::diyfp\n|+ f\l+ e\l+ kPrecision\l|+ diyfp()\l+ sub()\l+ mul()\l+ normalize()\l+ normalize_to()\l}">
<polygon fill="#ffffff" stroke="#000000" points="0,-138.5 0,-272.5 113,-272.5 113,-138.5 0,-138.5"/>
<text text-anchor="start" x="8" y="-260.5" font-family="Helvetica,sans-Serif" font-size="10.00" fill="#000000">nlohmann::detail::dtoa</text>
<text text-anchor="middle" x="56.5" y="-249.5" font-family="Helvetica,sans-Serif" font-size="10.00" fill="#000000">_impl::diyfp</text>
<polyline fill="none" stroke="#000000" points="0,-242.5 113,-242.5 "/>
<text text-anchor="start" x="8" y="-230.5" font-family="Helvetica,sans-Serif" font-size="10.00" fill="#000000">+ f</text>
<text text-anchor="start" x="8" y="-219.5" font-family="Helvetica,sans-Serif" font-size="10.00" fill="#000000">+ e</text>
<text text-anchor="start" x="8" y="-208.5" font-family="Helvetica,sans-Serif" font-size="10.00" fill="#000000">+ kPrecision</text>
<polyline fill="none" stroke="#000000" points="0,-201.5 113,-201.5 "/>
<text text-anchor="start" x="8" y="-189.5" font-family="Helvetica,sans-Serif" font-size="10.00" fill="#000000">+ diyfp()</text>
<text text-anchor="start" x="8" y="-178.5" font-family="Helvetica,sans-Serif" font-size="10.00" fill="#000000">+ sub()</text>
<text text-anchor="start" x="8" y="-167.5" font-family="Helvetica,sans-Serif" font-size="10.00" fill="#000000">+ mul()</text>
<text text-anchor="start" x="8" y="-156.5" font-family="Helvetica,sans-Serif" font-size="10.00" fill="#000000">+ normalize()</text>
<text text-anchor="start" x="8" y="-145.5" font-family="Helvetica,sans-Serif" font-size="10.00" fill="#000000">+ normalize_to()</text>
</a>
</g>
</g>
<!-- Node2&#45;&gt;Node1 -->
<g id="edge1" class="edge">
<title>Node2&#45;&gt;Node1</title>
<path fill="none" stroke="#404040" d="M56.5,-138.4071C56.5,-119.1899 56.5,-98.6703 56.5,-80.9855"/>
<polygon fill="none" stroke="#404040" points="56.5001,-80.9581 52.5,-74.9582 56.5,-68.9581 60.5,-74.9581 56.5001,-80.9581"/>
<text text-anchor="middle" x="74.5" y="-112" font-family="Helvetica,sans-Serif" font-size="10.00" fill="#000000"> +minus</text>
<text text-anchor="middle" x="74.5" y="-101" font-family="Helvetica,sans-Serif" font-size="10.00" fill="#000000">+plus</text>
<text text-anchor="middle" x="74.5" y="-90" font-family="Helvetica,sans-Serif" font-size="10.00" fill="#000000">+w</text>
</g>
</g>
</svg>
