<?xml version="1.0" encoding="UTF-8" standalone="no"?>
<!DOCTYPE svg PUBLIC "-//W3C//DTD SVG 1.1//EN"
 "http://www.w3.org/Graphics/SVG/1.1/DTD/svg11.dtd">
<!-- Generated by graphviz version 2.40.1 (20161225.0304)
 -->
<!-- Title: /home/bdn_jz/bdn_jz/camera&#45;tracker&#45;cpp/CameraTrackerLinux/include/nlohmann/detail/conversions/to_chars.hpp Pages: 1 -->
<!--zoomable 206 -->
<svg id="main" version="1.1" xmlns="http://www.w3.org/2000/svg" xmlns:xlink="http://www.w3.org/1999/xlink" xml:space="preserve" onload="init(evt)">
<style type="text/css"><![CDATA[
.edge:hover path { stroke: red; }
.edge:hover polygon { stroke: red; fill: red; }
]]></style>
<script type="text/javascript"><![CDATA[
var edges = document.getElementsByTagName('g');
if (edges && edges.length) {
  for (var i=0;i<edges.length;i++) {
    if (edges[i].id.substr(0,4)=='edge') {
      edges[i].setAttribute('class','edge');
    }
  }
}
]]></script>
        <defs>
                <circle id="rim" cx="0" cy="0" r="7"/>
                <circle id="rim2" cx="0" cy="0" r="3.5"/>
                <g id="zoomPlus">
                        <use xlink:href="#rim" target="_top" fill="#404040">
                                <set attributeName="fill" to="#808080" begin="zoomplus.mouseover" end="zoomplus.mouseout"/>
                        </use>
                        <path d="M-4,0h8M0,-4v8" fill="none" stroke="white" stroke-width="1.5" pointer-events="none"/>
                </g>
                <g id="zoomMin">
                        <use xlink:href="#rim" target="_top" fill="#404040">
                                <set attributeName="fill" to="#808080" begin="zoomminus.mouseover" end="zoomminus.mouseout"/>
                        </use>
                        <path d="M-4,0h8" fill="none" stroke="white" stroke-width="1.5" pointer-events="none"/>
                </g>
                <g id="dirArrow">
                        <path fill="none" stroke="white" stroke-width="1.5" d="M0,-3.0v7 M-2.5,-0.5L0,-3.0L2.5,-0.5"/>
                </g>
               <g id="resetDef">
                       <use xlink:href="#rim2" target="_top" fill="#404040">
                               <set attributeName="fill" to="#808080" begin="reset.mouseover" end="reset.mouseout"/>
                       </use>
               </g>
        </defs>

<script type="text/javascript">
var viewWidth = 701;
var viewHeight = 206;
var sectionId = 'dynsection-0';
</script>
<script xlink:href="svgpan.js" target="_top"/>
<svg id="graph" class="graph">
<g id="viewport">
<title>/home/bdn_jz/bdn_jz/camera&#45;tracker&#45;cpp/CameraTrackerLinux/include/nlohmann/detail/conversions/to_chars.hpp</title>
<polygon fill="#ffffff" stroke="transparent" points="-4,4 -4,-202 696.5,-202 696.5,4 -4,4"/>
<!-- Node0 -->
<g id="node1" class="node">
<title>Node0</title>
<polygon fill="#bfbfbf" stroke="#000000" points="205,-134.5 205,-197.5 349,-197.5 349,-134.5 205,-134.5"/>
<text text-anchor="start" x="213" y="-185.5" font-family="Helvetica,sans-Serif" font-size="10.00" fill="#000000">/home/bdn_jz/bdn_jz</text>
<text text-anchor="start" x="213" y="-174.5" font-family="Helvetica,sans-Serif" font-size="10.00" fill="#000000">/camera&#45;tracker&#45;cpp</text>
<text text-anchor="start" x="213" y="-163.5" font-family="Helvetica,sans-Serif" font-size="10.00" fill="#000000">/CameraTrackerLinux/include</text>
<text text-anchor="start" x="213" y="-152.5" font-family="Helvetica,sans-Serif" font-size="10.00" fill="#000000">/nlohmann/detail/conversions</text>
<text text-anchor="middle" x="277" y="-141.5" font-family="Helvetica,sans-Serif" font-size="10.00" fill="#000000">/to_chars.hpp</text>
</g>
<!-- Node1 -->
<g id="node2" class="node">
<title>Node1</title>
<polygon fill="#ffffff" stroke="#bfbfbf" points="0,-73 0,-92 38,-92 38,-73 0,-73"/>
<text text-anchor="middle" x="19" y="-80" font-family="Helvetica,sans-Serif" font-size="10.00" fill="#000000">array</text>
</g>
<!-- Node0&#45;&gt;Node1 -->
<g id="edge1" class="edge">
<title>Node0&#45;&gt;Node1</title>
<path fill="none" stroke="#191970" d="M204.8884,-149.0045C158.8456,-137.1045 98.3712,-119.5091 47,-98 46.0006,-97.5816 44.991,-97.1369 43.9785,-96.6725"/>
<polygon fill="#191970" stroke="#191970" points="45.492,-93.5159 34.9879,-92.1324 42.3366,-99.7644 45.492,-93.5159"/>
</g>
<!-- Node2 -->
<g id="node3" class="node">
<title>Node2</title>
<polygon fill="#ffffff" stroke="#bfbfbf" points="56.5,-73 56.5,-92 105.5,-92 105.5,-73 56.5,-73"/>
<text text-anchor="middle" x="81" y="-80" font-family="Helvetica,sans-Serif" font-size="10.00" fill="#000000">cassert</text>
</g>
<!-- Node0&#45;&gt;Node2 -->
<g id="edge2" class="edge">
<title>Node0&#45;&gt;Node2</title>
<path fill="none" stroke="#191970" d="M204.6238,-136.1704C176.5553,-124.4582 144.2002,-110.7809 115,-98 113.7966,-97.4733 112.5708,-96.9329 111.3337,-96.3843"/>
<polygon fill="#191970" stroke="#191970" points="112.3693,-93.0126 101.813,-92.1089 109.5016,-99.3983 112.3693,-93.0126"/>
</g>
<!-- Node3 -->
<g id="node4" class="node">
<title>Node3</title>
<polygon fill="#ffffff" stroke="#bfbfbf" points="124,-73 124,-92 174,-92 174,-73 124,-73"/>
<text text-anchor="middle" x="149" y="-80" font-family="Helvetica,sans-Serif" font-size="10.00" fill="#000000">ciso646</text>
</g>
<!-- Node0&#45;&gt;Node3 -->
<g id="edge3" class="edge">
<title>Node0&#45;&gt;Node3</title>
<path fill="none" stroke="#191970" d="M228.6087,-134.4322C209.3158,-121.8466 188.0075,-107.9463 172.2949,-97.6963"/>
<polygon fill="#191970" stroke="#191970" points="174.0354,-94.6528 163.7477,-92.1205 170.2108,-100.5157 174.0354,-94.6528"/>
</g>
<!-- Node4 -->
<g id="node5" class="node">
<title>Node4</title>
<polygon fill="#ffffff" stroke="#bfbfbf" points="192,-73 192,-92 236,-92 236,-73 192,-73"/>
<text text-anchor="middle" x="214" y="-80" font-family="Helvetica,sans-Serif" font-size="10.00" fill="#000000">cmath</text>
</g>
<!-- Node0&#45;&gt;Node4 -->
<g id="edge4" class="edge">
<title>Node0&#45;&gt;Node4</title>
<path fill="none" stroke="#191970" d="M253.1824,-134.4322C244.5387,-122.9759 235.0732,-110.4303 227.6111,-100.5401"/>
<polygon fill="#191970" stroke="#191970" points="230.2194,-98.1859 221.4025,-92.3112 224.6314,-102.402 230.2194,-98.1859"/>
</g>
<!-- Node5 -->
<g id="node6" class="node">
<title>Node5</title>
<polygon fill="#ffffff" stroke="#bfbfbf" points="254,-73 254,-92 300,-92 300,-73 254,-73"/>
<text text-anchor="middle" x="277" y="-80" font-family="Helvetica,sans-Serif" font-size="10.00" fill="#000000">cstdint</text>
</g>
<!-- Node0&#45;&gt;Node5 -->
<g id="edge5" class="edge">
<title>Node0&#45;&gt;Node5</title>
<path fill="none" stroke="#191970" d="M277,-134.4322C277,-123.6773 277,-111.9624 277,-102.3857"/>
<polygon fill="#191970" stroke="#191970" points="280.5001,-102.3112 277,-92.3112 273.5001,-102.3112 280.5001,-102.3112"/>
</g>
<!-- Node6 -->
<g id="node7" class="node">
<title>Node6</title>
<polygon fill="#ffffff" stroke="#bfbfbf" points="318,-73 318,-92 364,-92 364,-73 318,-73"/>
<text text-anchor="middle" x="341" y="-80" font-family="Helvetica,sans-Serif" font-size="10.00" fill="#000000">cstring</text>
</g>
<!-- Node0&#45;&gt;Node6 -->
<g id="edge6" class="edge">
<title>Node0&#45;&gt;Node6</title>
<path fill="none" stroke="#191970" d="M301.1957,-134.4322C309.9765,-122.9759 319.5924,-110.4303 327.1729,-100.5401"/>
<polygon fill="#191970" stroke="#191970" points="330.1746,-102.3772 333.48,-92.3112 324.6188,-98.1189 330.1746,-102.3772"/>
</g>
<!-- Node7 -->
<g id="node8" class="node">
<title>Node7</title>
<polygon fill="#ffffff" stroke="#bfbfbf" points="382,-73 382,-92 422,-92 422,-73 382,-73"/>
<text text-anchor="middle" x="402" y="-80" font-family="Helvetica,sans-Serif" font-size="10.00" fill="#000000">limits</text>
</g>
<!-- Node0&#45;&gt;Node7 -->
<g id="edge7" class="edge">
<title>Node0&#45;&gt;Node7</title>
<path fill="none" stroke="#191970" d="M324.2571,-134.4322C343.0979,-121.8466 363.9067,-107.9463 379.2511,-97.6963"/>
<polygon fill="#191970" stroke="#191970" points="381.2268,-100.5856 387.598,-92.1205 377.3384,-94.7649 381.2268,-100.5856"/>
</g>
<!-- Node8 -->
<g id="node9" class="node">
<title>Node8</title>
<polygon fill="#ffffff" stroke="#bfbfbf" points="440,-73 440,-92 502,-92 502,-73 440,-73"/>
<text text-anchor="middle" x="471" y="-80" font-family="Helvetica,sans-Serif" font-size="10.00" fill="#000000">type_traits</text>
</g>
<!-- Node0&#45;&gt;Node8 -->
<g id="edge8" class="edge">
<title>Node0&#45;&gt;Node8</title>
<path fill="none" stroke="#191970" d="M349.2384,-134.9077C380.2945,-121.5408 414.9798,-106.6118 439.3619,-96.1174"/>
<polygon fill="#191970" stroke="#191970" points="441.015,-99.2164 448.8166,-92.048 438.2476,-92.7867 441.015,-99.2164"/>
</g>
<!-- Node9 -->
<g id="node10" class="node">
<title>Node9</title>
<g id="a_node10"><a xlink:href="macro__scope_8hpp.html" target="_top" target="_top" xlink:title="nlohmann/detail/macro\l_scope.hpp">
<polygon fill="#ffffff" stroke="#000000" points="520.5,-67.5 520.5,-97.5 635.5,-97.5 635.5,-67.5 520.5,-67.5"/>
<text text-anchor="start" x="528.5" y="-85.5" font-family="Helvetica,sans-Serif" font-size="10.00" fill="#000000">nlohmann/detail/macro</text>
<text text-anchor="middle" x="578" y="-74.5" font-family="Helvetica,sans-Serif" font-size="10.00" fill="#000000">_scope.hpp</text>
</a>
</g>
</g>
<!-- Node0&#45;&gt;Node9 -->
<g id="edge9" class="edge">
<title>Node0&#45;&gt;Node9</title>
<path fill="none" stroke="#191970" d="M349.097,-145.9997C399.3751,-132.0521 465.85,-113.6114 514.2035,-100.1977"/>
<polygon fill="#191970" stroke="#191970" points="515.2275,-103.5459 523.9279,-97.5001 513.3562,-96.8006 515.2275,-103.5459"/>
</g>
<!-- Node10 -->
<g id="node11" class="node">
<title>Node10</title>
<polygon fill="#ffffff" stroke="#bfbfbf" points="469,-6 469,-25 509,-25 509,-6 469,-6"/>
<text text-anchor="middle" x="489" y="-13" font-family="Helvetica,sans-Serif" font-size="10.00" fill="#000000">utility</text>
</g>
<!-- Node9&#45;&gt;Node10 -->
<g id="edge10" class="edge">
<title>Node9&#45;&gt;Node10</title>
<path fill="none" stroke="#191970" d="M557.8045,-67.2967C543.534,-56.5537 524.4532,-42.1895 510.0052,-31.3129"/>
<polygon fill="#191970" stroke="#191970" points="511.7867,-28.2731 501.6924,-25.055 507.5766,-33.8656 511.7867,-28.2731"/>
</g>
<!-- Node11 -->
<g id="node12" class="node">
<title>Node11</title>
<polygon fill="#ffffff" stroke="#bfbfbf" points="527,-.5 527,-30.5 629,-30.5 629,-.5 527,-.5"/>
<text text-anchor="start" x="535" y="-18.5" font-family="Helvetica,sans-Serif" font-size="10.00" fill="#000000">nlohmann/thirdparty</text>
<text text-anchor="middle" x="578" y="-7.5" font-family="Helvetica,sans-Serif" font-size="10.00" fill="#000000">/hedley/hedley.hpp</text>
</g>
<!-- Node9&#45;&gt;Node11 -->
<g id="edge11" class="edge">
<title>Node9&#45;&gt;Node11</title>
<path fill="none" stroke="#191970" d="M578,-67.2967C578,-59.5013 578,-49.7991 578,-40.9064"/>
<polygon fill="#191970" stroke="#191970" points="581.5001,-40.6431 578,-30.6432 574.5001,-40.6432 581.5001,-40.6431"/>
</g>
<!-- Node12 -->
<g id="node13" class="node">
<title>Node12</title>
<polygon fill="#ffffff" stroke="#bfbfbf" points="647.5,-6 647.5,-25 692.5,-25 692.5,-6 647.5,-6"/>
<text text-anchor="middle" x="670" y="-13" font-family="Helvetica,sans-Serif" font-size="10.00" fill="#000000">cstdlib</text>
</g>
<!-- Node9&#45;&gt;Node12 -->
<g id="edge12" class="edge">
<title>Node9&#45;&gt;Node12</title>
<path fill="none" stroke="#191970" d="M598.8762,-67.2967C613.7669,-56.4524 633.7243,-41.9182 648.7081,-31.006"/>
<polygon fill="#191970" stroke="#191970" points="650.8566,-33.7712 656.8797,-25.055 646.7357,-28.1127 650.8566,-33.7712"/>
</g>
</g>
</svg>
        <g id="navigator" transform="translate(0 0)" fill="#404254">
                <rect fill="#f2f5e9" fill-opacity="0.5" stroke="#606060" stroke-width=".5" x="0" y="0" width="60" height="60"/>
                <use id="zoomplus" xlink:href="#zoomPlus" target="_top" x="17" y="9" onmousedown="handleZoom(evt,'in')"/>
                <use id="zoomminus" xlink:href="#zoomMin" target="_top" x="42" y="9" onmousedown="handleZoom(evt,'out')"/>
                <use id="reset" xlink:href="#resetDef" target="_top" x="30" y="36" onmousedown="handleReset()"/>
                <g id="arrowUp" xlink:href="#dirArrow" target="_top" transform="translate(30 24)" onmousedown="handlePan(0,-1)">
                  <use xlink:href="#rim" target="_top" fill="#404040">
                        <set attributeName="fill" to="#808080" begin="arrowUp.mouseover" end="arrowUp.mouseout"/>
                  </use>
                  <path fill="none" stroke="white" stroke-width="1.5" d="M0,-3.0v7 M-2.5,-0.5L0,-3.0L2.5,-0.5"/>
                </g>
                <g id="arrowRight" xlink:href="#dirArrow" target="_top" transform="rotate(90) translate(36 -43)" onmousedown="handlePan(1,0)">
                  <use xlink:href="#rim" target="_top" fill="#404040">
                        <set attributeName="fill" to="#808080" begin="arrowRight.mouseover" end="arrowRight.mouseout"/>
                  </use>
                  <path fill="none" stroke="white" stroke-width="1.5" d="M0,-3.0v7 M-2.5,-0.5L0,-3.0L2.5,-0.5"/>
                </g>
                <g id="arrowDown" xlink:href="#dirArrow" target="_top" transform="rotate(180) translate(-30 -48)" onmousedown="handlePan(0,1)">
                  <use xlink:href="#rim" target="_top" fill="#404040">
                        <set attributeName="fill" to="#808080" begin="arrowDown.mouseover" end="arrowDown.mouseout"/>
                  </use>
                  <path fill="none" stroke="white" stroke-width="1.5" d="M0,-3.0v7 M-2.5,-0.5L0,-3.0L2.5,-0.5"/>
                </g>
                <g id="arrowLeft" xlink:href="#dirArrow" target="_top" transform="rotate(270) translate(-36 17)" onmousedown="handlePan(-1,0)">
                  <use xlink:href="#rim" target="_top" fill="#404040">
                        <set attributeName="fill" to="#808080" begin="arrowLeft.mouseover" end="arrowLeft.mouseout"/>
                  </use>
                  <path fill="none" stroke="white" stroke-width="1.5" d="M0,-3.0v7 M-2.5,-0.5L0,-3.0L2.5,-0.5"/>
                </g>
        </g>
        <svg viewBox="0 0 15 15" width="100%" height="30px" preserveAspectRatio="xMaxYMin meet">
         <g id="arrow_out" transform="scale(0.3 0.3)">
          <a xlink:href="to__chars_8hpp__incl_org.svg" target="_top" target="_base">
           <rect id="button" ry="5" rx="5" y="6" x="6" height="38" width="38"
                fill="#f2f5e9" fill-opacity="0.5" stroke="#606060" stroke-width="1.0"/>
           <path id="arrow"
             d="M 11.500037,31.436501 C 11.940474,20.09759 22.043105,11.32322 32.158766,21.979434 L 37.068811,17.246167 C 37.068811,17.246167 37.088388,32 37.088388,32 L 22.160133,31.978069 C 22.160133,31.978069 26.997745,27.140456 26.997745,27.140456 C 18.528582,18.264221 13.291696,25.230495 11.500037,31.436501 z"
             style="fill:#404040;"/>
          </a>
         </g>
        </svg>
</svg>
