<?xml version="1.0" encoding="UTF-8" standalone="no"?>
<!DOCTYPE svg PUBLIC "-//W3C//DTD SVG 1.1//EN"
 "http://www.w3.org/Graphics/SVG/1.1/DTD/svg11.dtd">
<!-- Generated by graphviz version 2.40.1 (20161225.0304)
 -->
<!-- Title: /home/bdn_jz/bdn_jz/camera&#45;tracker&#45;cpp/CameraTrackerLinux/include/nlohmann/detail/conversions/to_json.hpp Pages: 1 -->
<!--zoomable 396 -->
<svg id="main" version="1.1" xmlns="http://www.w3.org/2000/svg" xmlns:xlink="http://www.w3.org/1999/xlink" xml:space="preserve" onload="init(evt)">
<style type="text/css"><![CDATA[
.edge:hover path { stroke: red; }
.edge:hover polygon { stroke: red; fill: red; }
]]></style>
<script type="text/javascript"><![CDATA[
var edges = document.getElementsByTagName('g');
if (edges && edges.length) {
  for (var i=0;i<edges.length;i++) {
    if (edges[i].id.substr(0,4)=='edge') {
      edges[i].setAttribute('class','edge');
    }
  }
}
]]></script>
        <defs>
                <circle id="rim" cx="0" cy="0" r="7"/>
                <circle id="rim2" cx="0" cy="0" r="3.5"/>
                <g id="zoomPlus">
                        <use xlink:href="#rim" target="_top" fill="#404040">
                                <set attributeName="fill" to="#808080" begin="zoomplus.mouseover" end="zoomplus.mouseout"/>
                        </use>
                        <path d="M-4,0h8M0,-4v8" fill="none" stroke="white" stroke-width="1.5" pointer-events="none"/>
                </g>
                <g id="zoomMin">
                        <use xlink:href="#rim" target="_top" fill="#404040">
                                <set attributeName="fill" to="#808080" begin="zoomminus.mouseover" end="zoomminus.mouseout"/>
                        </use>
                        <path d="M-4,0h8" fill="none" stroke="white" stroke-width="1.5" pointer-events="none"/>
                </g>
                <g id="dirArrow">
                        <path fill="none" stroke="white" stroke-width="1.5" d="M0,-3.0v7 M-2.5,-0.5L0,-3.0L2.5,-0.5"/>
                </g>
               <g id="resetDef">
                       <use xlink:href="#rim2" target="_top" fill="#404040">
                               <set attributeName="fill" to="#808080" begin="reset.mouseover" end="reset.mouseout"/>
                       </use>
               </g>
        </defs>

<script type="text/javascript">
var viewWidth = 1342;
var viewHeight = 396;
var sectionId = 'dynsection-0';
</script>
<script xlink:href="svgpan.js" target="_top"/>
<svg id="graph" class="graph">
<g id="viewport">
<title>/home/bdn_jz/bdn_jz/camera&#45;tracker&#45;cpp/CameraTrackerLinux/include/nlohmann/detail/conversions/to_json.hpp</title>
<polygon fill="#ffffff" stroke="transparent" points="-4,4 -4,-392 1338,-392 1338,4 -4,4"/>
<!-- Node0 -->
<g id="node1" class="node">
<title>Node0</title>
<polygon fill="#bfbfbf" stroke="#000000" points="424,-324.5 424,-387.5 568,-387.5 568,-324.5 424,-324.5"/>
<text text-anchor="start" x="432" y="-375.5" font-family="Helvetica,sans-Serif" font-size="10.00" fill="#000000">/home/bdn_jz/bdn_jz</text>
<text text-anchor="start" x="432" y="-364.5" font-family="Helvetica,sans-Serif" font-size="10.00" fill="#000000">/camera&#45;tracker&#45;cpp</text>
<text text-anchor="start" x="432" y="-353.5" font-family="Helvetica,sans-Serif" font-size="10.00" fill="#000000">/CameraTrackerLinux/include</text>
<text text-anchor="start" x="432" y="-342.5" font-family="Helvetica,sans-Serif" font-size="10.00" fill="#000000">/nlohmann/detail/conversions</text>
<text text-anchor="middle" x="496" y="-331.5" font-family="Helvetica,sans-Serif" font-size="10.00" fill="#000000">/to_json.hpp</text>
</g>
<!-- Node1 -->
<g id="node2" class="node">
<title>Node1</title>
<polygon fill="#ffffff" stroke="#bfbfbf" points="0,-263 0,-282 56,-282 56,-263 0,-263"/>
<text text-anchor="middle" x="28" y="-270" font-family="Helvetica,sans-Serif" font-size="10.00" fill="#000000">algorithm</text>
</g>
<!-- Node0&#45;&gt;Node1 -->
<g id="edge1" class="edge">
<title>Node0&#45;&gt;Node1</title>
<path fill="none" stroke="#191970" d="M423.887,-348.8362C338.4478,-339.3542 192.2686,-319.9919 70,-288 67.0135,-287.2186 63.9426,-286.3065 60.8855,-285.3231"/>
<polygon fill="#191970" stroke="#191970" points="61.8824,-281.9647 51.2877,-282.012 59.5995,-288.582 61.8824,-281.9647"/>
</g>
<!-- Node2 -->
<g id="node3" class="node">
<title>Node2</title>
<polygon fill="#ffffff" stroke="#bfbfbf" points="423,-.5 423,-19.5 473,-19.5 473,-.5 423,-.5"/>
<text text-anchor="middle" x="448" y="-7.5" font-family="Helvetica,sans-Serif" font-size="10.00" fill="#000000">ciso646</text>
</g>
<!-- Node0&#45;&gt;Node2 -->
<g id="edge2" class="edge">
<title>Node0&#45;&gt;Node2</title>
<path fill="none" stroke="#191970" d="M423.7636,-344.8557C305.6038,-324.5667 84,-276.9864 84,-205.5 84,-205.5 84,-205.5 84,-138.5 84,-75.2353 141.7492,-80.6833 200,-56 271.558,-25.6779 363.0929,-15.2899 412.5132,-11.7701"/>
<polygon fill="#191970" stroke="#191970" points="412.9384,-15.2498 422.6872,-11.1011 412.479,-8.2649 412.9384,-15.2498"/>
</g>
<!-- Node3 -->
<g id="node4" class="node">
<title>Node3</title>
<polygon fill="#ffffff" stroke="#bfbfbf" points="406.5,-62 406.5,-81 453.5,-81 453.5,-62 406.5,-62"/>
<text text-anchor="middle" x="430" y="-69" font-family="Helvetica,sans-Serif" font-size="10.00" fill="#000000">iterator</text>
</g>
<!-- Node0&#45;&gt;Node3 -->
<g id="edge3" class="edge">
<title>Node0&#45;&gt;Node3</title>
<path fill="none" stroke="#191970" d="M494.5295,-324.2445C492.1554,-290.1854 485.9827,-234.9366 470,-190 463.7927,-172.5478 455.8227,-171.221 449,-154 440.8287,-133.3751 435.6881,-108.3918 432.8449,-91.3593"/>
<polygon fill="#191970" stroke="#191970" points="436.2973,-90.7823 431.2995,-81.4404 429.3808,-91.86 436.2973,-90.7823"/>
</g>
<!-- Node4 -->
<g id="node5" class="node">
<title>Node4</title>
<polygon fill="#ffffff" stroke="#bfbfbf" points="282.5,-62 282.5,-81 323.5,-81 323.5,-62 282.5,-62"/>
<text text-anchor="middle" x="303" y="-69" font-family="Helvetica,sans-Serif" font-size="10.00" fill="#000000">string</text>
</g>
<!-- Node0&#45;&gt;Node4 -->
<g id="edge4" class="edge">
<title>Node0&#45;&gt;Node4</title>
<path fill="none" stroke="#191970" d="M423.8389,-340.6203C373.3437,-328.2257 312.2901,-309.3829 297,-288 253.8347,-227.6342 280.7922,-131.6666 295.406,-90.8709"/>
<polygon fill="#191970" stroke="#191970" points="298.7527,-91.9133 298.9692,-81.3207 292.1943,-89.4663 298.7527,-91.9133"/>
</g>
<!-- Node5 -->
<g id="node6" class="node">
<title>Node5</title>
<polygon fill="#ffffff" stroke="#bfbfbf" points="423,-196 423,-215 461,-215 461,-196 423,-196"/>
<text text-anchor="middle" x="442" y="-203" font-family="Helvetica,sans-Serif" font-size="10.00" fill="#000000">tuple</text>
</g>
<!-- Node0&#45;&gt;Node5 -->
<g id="edge5" class="edge">
<title>Node0&#45;&gt;Node5</title>
<path fill="none" stroke="#191970" d="M484.6798,-324.4503C473.8554,-294.2823 457.8857,-249.7741 448.8635,-224.6289"/>
<polygon fill="#191970" stroke="#191970" points="452.1292,-223.3666 445.4575,-215.1362 445.5404,-225.7307 452.1292,-223.3666"/>
</g>
<!-- Node6 -->
<g id="node7" class="node">
<title>Node6</title>
<polygon fill="#ffffff" stroke="#bfbfbf" points="1118,-.5 1118,-19.5 1180,-19.5 1180,-.5 1118,-.5"/>
<text text-anchor="middle" x="1149" y="-7.5" font-family="Helvetica,sans-Serif" font-size="10.00" fill="#000000">type_traits</text>
</g>
<!-- Node0&#45;&gt;Node6 -->
<g id="edge6" class="edge">
<title>Node0&#45;&gt;Node6</title>
<path fill="none" stroke="#191970" d="M568.1727,-350.6278C771.4411,-334.5388 1334,-283.0098 1334,-205.5 1334,-205.5 1334,-205.5 1334,-138.5 1334,-95.6249 1317.4147,-82.865 1284,-56 1256.931,-34.2369 1218.9939,-22.5125 1190.2262,-16.3598"/>
<polygon fill="#191970" stroke="#191970" points="1190.5709,-12.8597 1180.0795,-14.3368 1189.2021,-19.7246 1190.5709,-12.8597"/>
</g>
<!-- Node7 -->
<g id="node8" class="node">
<title>Node7</title>
<polygon fill="#ffffff" stroke="#bfbfbf" points="1215,-62 1215,-81 1255,-81 1255,-62 1215,-62"/>
<text text-anchor="middle" x="1235" y="-69" font-family="Helvetica,sans-Serif" font-size="10.00" fill="#000000">utility</text>
</g>
<!-- Node0&#45;&gt;Node7 -->
<g id="edge7" class="edge">
<title>Node0&#45;&gt;Node7</title>
<path fill="none" stroke="#191970" d="M568.2541,-342.0483C631.1664,-329.4375 724.63,-309.5852 805,-288 994.64,-237.0678 1101.6687,-305.9841 1226,-154 1240.2786,-136.5457 1240.4618,-109.5959 1238.4479,-91.2859"/>
<polygon fill="#191970" stroke="#191970" points="1241.8823,-90.5752 1237.0163,-81.1639 1234.9512,-91.5555 1241.8823,-90.5752"/>
</g>
<!-- Node8 -->
<g id="node9" class="node">
<title>Node8</title>
<polygon fill="#ffffff" stroke="#bfbfbf" points="524.5,-263 524.5,-282 575.5,-282 575.5,-263 524.5,-263"/>
<text text-anchor="middle" x="550" y="-270" font-family="Helvetica,sans-Serif" font-size="10.00" fill="#000000">valarray</text>
</g>
<!-- Node0&#45;&gt;Node8 -->
<g id="edge8" class="edge">
<title>Node0&#45;&gt;Node8</title>
<path fill="none" stroke="#191970" d="M516.4151,-324.4322C523.7483,-313.0928 531.7718,-300.6862 538.137,-290.8437"/>
<polygon fill="#191970" stroke="#191970" points="541.1635,-292.6089 543.655,-282.3112 535.2856,-288.8076 541.1635,-292.6089"/>
</g>
<!-- Node9 -->
<g id="node10" class="node">
<title>Node9</title>
<polygon fill="#ffffff" stroke="#bfbfbf" points="596,-62 596,-81 640,-81 640,-62 596,-62"/>
<text text-anchor="middle" x="618" y="-69" font-family="Helvetica,sans-Serif" font-size="10.00" fill="#000000">vector</text>
</g>
<!-- Node0&#45;&gt;Node9 -->
<g id="edge9" class="edge">
<title>Node0&#45;&gt;Node9</title>
<path fill="none" stroke="#191970" d="M550.1504,-324.417C563.1328,-314.3651 575.6421,-302.1238 584,-288 621.8214,-224.0868 621.7338,-131.7736 619.5582,-91.5247"/>
<polygon fill="#191970" stroke="#191970" points="623.0423,-91.1647 618.9031,-81.4119 616.0569,-91.6172 623.0423,-91.1647"/>
</g>
<!-- Node10 -->
<g id="node11" class="node">
<title>Node10</title>
<g id="a_node11"><a xlink:href="iteration__proxy_8hpp.html" target="_top" target="_top" xlink:title="nlohmann/detail/iterators\l/iteration_proxy.hpp">
<polygon fill="#ffffff" stroke="#000000" points="306.5,-257.5 306.5,-287.5 429.5,-287.5 429.5,-257.5 306.5,-257.5"/>
<text text-anchor="start" x="314.5" y="-275.5" font-family="Helvetica,sans-Serif" font-size="10.00" fill="#000000">nlohmann/detail/iterators</text>
<text text-anchor="middle" x="368" y="-264.5" font-family="Helvetica,sans-Serif" font-size="10.00" fill="#000000">/iteration_proxy.hpp</text>
</a>
</g>
</g>
<!-- Node0&#45;&gt;Node10 -->
<g id="edge10" class="edge">
<title>Node0&#45;&gt;Node10</title>
<path fill="none" stroke="#191970" d="M447.6087,-324.4322C431.5447,-313.953 414.0835,-302.5623 399.6186,-293.1262"/>
<polygon fill="#191970" stroke="#191970" points="401.3264,-290.0614 391.0386,-287.5291 397.5018,-295.9242 401.3264,-290.0614"/>
</g>
<!-- Node12 -->
<g id="node13" class="node">
<title>Node12</title>
<g id="a_node13"><a xlink:href="type__traits_8hpp.html" target="_top" target="_top" xlink:title="nlohmann/detail/meta\l/type_traits.hpp">
<polygon fill="#ffffff" stroke="#000000" points="737,-190.5 737,-220.5 847,-220.5 847,-190.5 737,-190.5"/>
<text text-anchor="start" x="745" y="-208.5" font-family="Helvetica,sans-Serif" font-size="10.00" fill="#000000">nlohmann/detail/meta</text>
<text text-anchor="middle" x="792" y="-197.5" font-family="Helvetica,sans-Serif" font-size="10.00" fill="#000000">/type_traits.hpp</text>
</a>
</g>
</g>
<!-- Node0&#45;&gt;Node12 -->
<g id="edge48" class="edge">
<title>Node0&#45;&gt;Node12</title>
<path fill="none" stroke="#191970" d="M558.0513,-324.4503C616.9777,-294.4894 703.7224,-250.3844 753.3539,-225.1494"/>
<polygon fill="#191970" stroke="#191970" points="755.1425,-228.1665 762.4702,-220.5143 751.9699,-221.9267 755.1425,-228.1665"/>
</g>
<!-- Node16 -->
<g id="node17" class="node">
<title>Node16</title>
<g id="a_node17"><a xlink:href="cpp__future_8hpp.html" target="_top" target="_top" xlink:title="nlohmann/detail/meta\l/cpp_future.hpp">
<polygon fill="#ffffff" stroke="#000000" points="865,-56.5 865,-86.5 975,-86.5 975,-56.5 865,-56.5"/>
<text text-anchor="start" x="873" y="-74.5" font-family="Helvetica,sans-Serif" font-size="10.00" fill="#000000">nlohmann/detail/meta</text>
<text text-anchor="middle" x="920" y="-63.5" font-family="Helvetica,sans-Serif" font-size="10.00" fill="#000000">/cpp_future.hpp</text>
</a>
</g>
</g>
<!-- Node0&#45;&gt;Node16 -->
<g id="edge47" class="edge">
<title>Node0&#45;&gt;Node16</title>
<path fill="none" stroke="#191970" d="M568.1155,-338.4591C696.9986,-305.4585 958.0909,-230.542 1008,-154 1015.5253,-142.4589 1014.8537,-134.9521 1008,-123 1000.1987,-109.3954 987.2577,-99.0392 973.6688,-91.3125"/>
<polygon fill="#191970" stroke="#191970" points="975.1747,-88.1502 964.6929,-86.6069 971.9245,-94.3499 975.1747,-88.1502"/>
</g>
<!-- Node25 -->
<g id="node26" class="node">
<title>Node25</title>
<g id="a_node26"><a xlink:href="value__t_8hpp.html" target="_top" target="_top" xlink:title="nlohmann/detail/value\l_t.hpp">
<polygon fill="#ffffff" stroke="#000000" points="150.5,-123.5 150.5,-153.5 261.5,-153.5 261.5,-123.5 150.5,-123.5"/>
<text text-anchor="start" x="158.5" y="-141.5" font-family="Helvetica,sans-Serif" font-size="10.00" fill="#000000">nlohmann/detail/value</text>
<text text-anchor="middle" x="206" y="-130.5" font-family="Helvetica,sans-Serif" font-size="10.00" fill="#000000">_t.hpp</text>
</a>
</g>
</g>
<!-- Node0&#45;&gt;Node25 -->
<g id="edge49" class="edge">
<title>Node0&#45;&gt;Node25</title>
<path fill="none" stroke="#191970" d="M423.8747,-342.1339C364.8776,-329.5045 287.4935,-309.5776 264,-288 228.0781,-255.0075 214.159,-197.1549 208.951,-163.9203"/>
<polygon fill="#191970" stroke="#191970" points="212.3664,-163.0755 207.4996,-153.6647 205.4355,-164.0565 212.3664,-163.0755"/>
</g>
<!-- Node10&#45;&gt;Node3 -->
<g id="edge12" class="edge">
<title>Node10&#45;&gt;Node3</title>
<path fill="none" stroke="#191970" d="M372.6601,-257.3923C383.7526,-221.431 411.7139,-130.7824 424.0243,-90.8727"/>
<polygon fill="#191970" stroke="#191970" points="427.3875,-91.8436 426.9906,-81.2562 420.6985,-89.7803 427.3875,-91.8436"/>
</g>
<!-- Node10&#45;&gt;Node4 -->
<g id="edge13" class="edge">
<title>Node10&#45;&gt;Node4</title>
<path fill="none" stroke="#191970" d="M363.1144,-257.3923C351.4852,-221.431 322.1709,-130.7824 309.2648,-90.8727"/>
<polygon fill="#191970" stroke="#191970" points="312.5622,-89.6941 306.155,-81.2562 305.9018,-91.848 312.5622,-89.6941"/>
</g>
<!-- Node10&#45;&gt;Node5 -->
<g id="edge14" class="edge">
<title>Node10&#45;&gt;Node5</title>
<path fill="none" stroke="#191970" d="M384.7917,-257.2967C396.4332,-246.7564 411.9248,-232.7303 423.8509,-221.9323"/>
<polygon fill="#191970" stroke="#191970" points="426.3829,-224.3613 431.4467,-215.055 421.6846,-219.1722 426.3829,-224.3613"/>
</g>
<!-- Node11 -->
<g id="node12" class="node">
<title>Node11</title>
<polygon fill="#ffffff" stroke="#bfbfbf" points="135.5,-.5 135.5,-19.5 184.5,-19.5 184.5,-.5 135.5,-.5"/>
<text text-anchor="middle" x="160" y="-7.5" font-family="Helvetica,sans-Serif" font-size="10.00" fill="#000000">cstddef</text>
</g>
<!-- Node10&#45;&gt;Node11 -->
<g id="edge11" class="edge">
<title>Node10&#45;&gt;Node11</title>
<path fill="none" stroke="#191970" d="M306.2789,-259.1725C252.1268,-243.8564 176.6233,-212.855 141,-154 117.0555,-114.4401 137.1643,-57.6663 150.4999,-28.6391"/>
<polygon fill="#191970" stroke="#191970" points="153.6661,-30.131 154.8512,-19.6026 147.3592,-27.0941 153.6661,-30.131"/>
</g>
<!-- Node10&#45;&gt;Node12 -->
<g id="edge15" class="edge">
<title>Node10&#45;&gt;Node12</title>
<path fill="none" stroke="#191970" d="M429.6532,-262.7576C508.836,-250.2453 645.6712,-228.6227 726.617,-215.8317"/>
<polygon fill="#191970" stroke="#191970" points="727.3564,-219.2584 736.6875,-214.2404 726.2638,-212.3442 727.3564,-219.2584"/>
</g>
<!-- Node10&#45;&gt;Node25 -->
<g id="edge41" class="edge">
<title>Node10&#45;&gt;Node25</title>
<path fill="none" stroke="#191970" d="M349.7314,-257.389C321.0488,-233.6638 265.3259,-187.5721 232.3215,-160.2721"/>
<polygon fill="#191970" stroke="#191970" points="234.3867,-157.4382 224.4503,-153.7614 229.9251,-162.8321 234.3867,-157.4382"/>
</g>
<!-- Node12&#45;&gt;Node2 -->
<g id="edge16" class="edge">
<title>Node12&#45;&gt;Node2</title>
<path fill="none" stroke="#191970" d="M736.935,-196.6862C710.5972,-189.5894 680.9632,-176.8407 663,-154 635.8014,-119.4162 678.7922,-88.3763 649,-56 626.9461,-32.0332 534.6923,-18.8968 483.1766,-13.3031"/>
<polygon fill="#191970" stroke="#191970" points="483.4557,-9.8133 473.1457,-12.2534 482.7271,-16.7753 483.4557,-9.8133"/>
</g>
<!-- Node12&#45;&gt;Node6 -->
<g id="edge18" class="edge">
<title>Node12&#45;&gt;Node6</title>
<path fill="none" stroke="#191970" d="M847.2428,-201.73C957.0818,-193.8336 1195.0339,-174.5765 1226,-154 1264.9086,-128.1458 1290.19,-94.6834 1264,-56 1247.5572,-31.7134 1215.9909,-20.2483 1190.084,-14.8365"/>
<polygon fill="#191970" stroke="#191970" points="1190.5858,-11.3699 1180.1149,-12.9855 1189.3079,-18.2523 1190.5858,-11.3699"/>
</g>
<!-- Node12&#45;&gt;Node7 -->
<g id="edge19" class="edge">
<title>Node12&#45;&gt;Node7</title>
<path fill="none" stroke="#191970" d="M847.3422,-201.5766C952.317,-193.6933 1172.3832,-174.8884 1200,-154 1219.9161,-138.9361 1228.6168,-110.3326 1232.3366,-91.0881"/>
<polygon fill="#191970" stroke="#191970" points="1235.8245,-91.4481 1233.9984,-81.0118 1228.9178,-90.309 1235.8245,-91.4481"/>
</g>
<!-- Node13 -->
<g id="node14" class="node">
<title>Node13</title>
<polygon fill="#ffffff" stroke="#bfbfbf" points="672,-129 672,-148 712,-148 712,-129 672,-129"/>
<text text-anchor="middle" x="692" y="-136" font-family="Helvetica,sans-Serif" font-size="10.00" fill="#000000">limits</text>
</g>
<!-- Node12&#45;&gt;Node13 -->
<g id="edge17" class="edge">
<title>Node12&#45;&gt;Node13</title>
<path fill="none" stroke="#191970" d="M769.3085,-190.2967C752.9717,-179.351 731.0241,-164.6462 714.6881,-153.701"/>
<polygon fill="#191970" stroke="#191970" points="716.517,-150.7135 706.2612,-148.055 712.6207,-156.5289 716.517,-150.7135"/>
</g>
<!-- Node14 -->
<g id="node15" class="node">
<title>Node14</title>
<g id="a_node15"><a xlink:href="iterator__traits_8hpp.html" target="_top" target="_top" xlink:title="nlohmann/detail/iterators\l/iterator_traits.hpp">
<polygon fill="#ffffff" stroke="#000000" points="730.5,-123.5 730.5,-153.5 853.5,-153.5 853.5,-123.5 730.5,-123.5"/>
<text text-anchor="start" x="738.5" y="-141.5" font-family="Helvetica,sans-Serif" font-size="10.00" fill="#000000">nlohmann/detail/iterators</text>
<text text-anchor="middle" x="792" y="-130.5" font-family="Helvetica,sans-Serif" font-size="10.00" fill="#000000">/iterator_traits.hpp</text>
</a>
</g>
</g>
<!-- Node12&#45;&gt;Node14 -->
<g id="edge20" class="edge">
<title>Node12&#45;&gt;Node14</title>
<path fill="none" stroke="#191970" d="M792,-190.2967C792,-182.5013 792,-172.7991 792,-163.9064"/>
<polygon fill="#191970" stroke="#191970" points="795.5001,-163.6431 792,-153.6432 788.5001,-163.6432 795.5001,-163.6431"/>
</g>
<!-- Node12&#45;&gt;Node16 -->
<g id="edge31" class="edge">
<title>Node12&#45;&gt;Node16</title>
<path fill="none" stroke="#191970" d="M847.0997,-198.8008C899.6991,-191.139 973.4688,-176.6457 991,-154 1007.8666,-132.2127 982.4873,-108.4806 957.514,-92.087"/>
<polygon fill="#191970" stroke="#191970" points="959.1005,-88.9509 948.7675,-86.6097 955.3852,-94.8836 959.1005,-88.9509"/>
</g>
<!-- Node17 -->
<g id="node18" class="node">
<title>Node17</title>
<g id="a_node18"><a xlink:href="macro__scope_8hpp.html" target="_top" target="_top" xlink:title="nlohmann/detail/macro\l_scope.hpp">
<polygon fill="#ffffff" stroke="#000000" points="1076.5,-123.5 1076.5,-153.5 1191.5,-153.5 1191.5,-123.5 1076.5,-123.5"/>
<text text-anchor="start" x="1084.5" y="-141.5" font-family="Helvetica,sans-Serif" font-size="10.00" fill="#000000">nlohmann/detail/macro</text>
<text text-anchor="middle" x="1134" y="-130.5" font-family="Helvetica,sans-Serif" font-size="10.00" fill="#000000">_scope.hpp</text>
</a>
</g>
</g>
<!-- Node12&#45;&gt;Node17 -->
<g id="edge27" class="edge">
<title>Node12&#45;&gt;Node17</title>
<path fill="none" stroke="#191970" d="M847.3283,-194.6608C907.085,-182.9541 1002.3197,-164.297 1066.4514,-151.7332"/>
<polygon fill="#191970" stroke="#191970" points="1067.3263,-155.1284 1076.4669,-149.7711 1065.9805,-148.259 1067.3263,-155.1284"/>
</g>
<!-- Node20 -->
<g id="node21" class="node">
<title>Node20</title>
<g id="a_node21"><a xlink:href="detected_8hpp.html" target="_top" target="_top" xlink:title="nlohmann/detail/meta\l/detected.hpp">
<polygon fill="#ffffff" stroke="#000000" points="872,-123.5 872,-153.5 982,-153.5 982,-123.5 872,-123.5"/>
<text text-anchor="start" x="880" y="-141.5" font-family="Helvetica,sans-Serif" font-size="10.00" fill="#000000">nlohmann/detail/meta</text>
<text text-anchor="middle" x="927" y="-130.5" font-family="Helvetica,sans-Serif" font-size="10.00" fill="#000000">/detected.hpp</text>
</a>
</g>
</g>
<!-- Node12&#45;&gt;Node20 -->
<g id="edge32" class="edge">
<title>Node12&#45;&gt;Node20</title>
<path fill="none" stroke="#191970" d="M822.2966,-190.4639C841.4424,-180.9619 866.3953,-168.5779 887.1388,-158.283"/>
<polygon fill="#191970" stroke="#191970" points="888.9359,-161.2985 896.3374,-153.7177 885.8239,-155.0282 888.9359,-161.2985"/>
</g>
<!-- Node21 -->
<g id="node22" class="node">
<title>Node21</title>
<g id="a_node22"><a xlink:href="json__fwd_8hpp.html" target="_top" target="_top" xlink:title="nlohmann/json_fwd.hpp">
<polygon fill="#ffffff" stroke="#000000" points="458.5,-129 458.5,-148 577.5,-148 577.5,-129 458.5,-129"/>
<text text-anchor="middle" x="518" y="-136" font-family="Helvetica,sans-Serif" font-size="10.00" fill="#000000">nlohmann/json_fwd.hpp</text>
</a>
</g>
</g>
<!-- Node12&#45;&gt;Node21 -->
<g id="edge35" class="edge">
<title>Node12&#45;&gt;Node21</title>
<path fill="none" stroke="#191970" d="M736.8816,-192.0221C687.1308,-179.8568 614.6248,-162.1272 566.8961,-150.4564"/>
<polygon fill="#191970" stroke="#191970" points="567.6497,-147.0376 557.1045,-148.0621 565.987,-153.8372 567.6497,-147.0376"/>
</g>
<!-- Node14&#45;&gt;Node3 -->
<g id="edge21" class="edge">
<title>Node14&#45;&gt;Node3</title>
<path fill="none" stroke="#191970" d="M730.4836,-124.7696C727.2807,-124.1489 724.105,-123.5547 721,-123 607.027,-102.6383 573.9803,-119.9822 463,-87 461.0888,-86.432 459.1482,-85.7691 457.2146,-85.0433"/>
<polygon fill="#191970" stroke="#191970" points="458.3434,-81.7203 447.7706,-81.0375 455.61,-88.1646 458.3434,-81.7203"/>
</g>
<!-- Node15 -->
<g id="node16" class="node">
<title>Node15</title>
<g id="a_node16"><a xlink:href="void__t_8hpp.html" target="_top" target="_top" xlink:title="nlohmann/detail/meta\l/void_t.hpp">
<polygon fill="#ffffff" stroke="#000000" points="737,-56.5 737,-86.5 847,-86.5 847,-56.5 737,-56.5"/>
<text text-anchor="start" x="745" y="-74.5" font-family="Helvetica,sans-Serif" font-size="10.00" fill="#000000">nlohmann/detail/meta</text>
<text text-anchor="middle" x="792" y="-63.5" font-family="Helvetica,sans-Serif" font-size="10.00" fill="#000000">/void_t.hpp</text>
</a>
</g>
</g>
<!-- Node14&#45;&gt;Node15 -->
<g id="edge22" class="edge">
<title>Node14&#45;&gt;Node15</title>
<path fill="none" stroke="#191970" d="M792,-123.2967C792,-115.5013 792,-105.7991 792,-96.9064"/>
<polygon fill="#191970" stroke="#191970" points="795.5001,-96.6431 792,-86.6432 788.5001,-96.6432 795.5001,-96.6431"/>
</g>
<!-- Node14&#45;&gt;Node16 -->
<g id="edge23" class="edge">
<title>Node14&#45;&gt;Node16</title>
<path fill="none" stroke="#191970" d="M820.7257,-123.4639C838.7969,-114.0047 862.3247,-101.6894 881.9396,-91.4222"/>
<polygon fill="#191970" stroke="#191970" points="883.6908,-94.4562 890.9273,-86.7177 880.4445,-88.2544 883.6908,-94.4562"/>
</g>
<!-- Node16&#45;&gt;Node2 -->
<g id="edge24" class="edge">
<title>Node16&#45;&gt;Node2</title>
<path fill="none" stroke="#191970" d="M864.9344,-57.7C861.9197,-57.0895 858.927,-56.5173 856,-56 719.4622,-31.8672 554.8625,-17.8505 483.6726,-12.5096"/>
<polygon fill="#191970" stroke="#191970" points="483.6946,-9.0018 473.4639,-11.7555 483.1789,-15.9828 483.6946,-9.0018"/>
</g>
<!-- Node16&#45;&gt;Node6 -->
<g id="edge26" class="edge">
<title>Node16&#45;&gt;Node6</title>
<path fill="none" stroke="#191970" d="M975.1426,-56.691C1016.0312,-45.71 1070.8785,-30.9802 1107.9501,-21.0243"/>
<polygon fill="#191970" stroke="#191970" points="1109.1585,-24.3239 1117.9085,-18.3499 1107.3429,-17.5634 1109.1585,-24.3239"/>
</g>
<!-- Node16&#45;&gt;Node11 -->
<g id="edge25" class="edge">
<title>Node16&#45;&gt;Node11</title>
<path fill="none" stroke="#191970" d="M864.9615,-57.5356C861.9398,-56.9676 858.9382,-56.4495 856,-56 726.2947,-36.1575 317.4335,-16.9457 194.9859,-11.5159"/>
<polygon fill="#191970" stroke="#191970" points="194.8418,-8.0062 184.6973,-11.0623 194.5334,-14.9994 194.8418,-8.0062"/>
</g>
<!-- Node17&#45;&gt;Node7 -->
<g id="edge28" class="edge">
<title>Node17&#45;&gt;Node7</title>
<path fill="none" stroke="#191970" d="M1156.6664,-123.4639C1173.1549,-112.526 1195.4004,-97.769 1211.9722,-86.7759"/>
<polygon fill="#191970" stroke="#191970" points="1214.1241,-89.5485 1220.5224,-81.1039 1210.2545,-83.7153 1214.1241,-89.5485"/>
</g>
<!-- Node18 -->
<g id="node19" class="node">
<title>Node18</title>
<polygon fill="#ffffff" stroke="#bfbfbf" points="1031,-56.5 1031,-86.5 1133,-86.5 1133,-56.5 1031,-56.5"/>
<text text-anchor="start" x="1039" y="-74.5" font-family="Helvetica,sans-Serif" font-size="10.00" fill="#000000">nlohmann/thirdparty</text>
<text text-anchor="middle" x="1082" y="-63.5" font-family="Helvetica,sans-Serif" font-size="10.00" fill="#000000">/hedley/hedley.hpp</text>
</g>
<!-- Node17&#45;&gt;Node18 -->
<g id="edge29" class="edge">
<title>Node17&#45;&gt;Node18</title>
<path fill="none" stroke="#191970" d="M1122.2004,-123.2967C1115.6184,-114.816 1107.2848,-104.0785 1099.9141,-94.5817"/>
<polygon fill="#191970" stroke="#191970" points="1102.6491,-92.3971 1093.7529,-86.6432 1097.1192,-96.689 1102.6491,-92.3971"/>
</g>
<!-- Node19 -->
<g id="node20" class="node">
<title>Node19</title>
<polygon fill="#ffffff" stroke="#bfbfbf" points="1151.5,-62 1151.5,-81 1196.5,-81 1196.5,-62 1151.5,-62"/>
<text text-anchor="middle" x="1174" y="-69" font-family="Helvetica,sans-Serif" font-size="10.00" fill="#000000">cstdlib</text>
</g>
<!-- Node17&#45;&gt;Node19 -->
<g id="edge30" class="edge">
<title>Node17&#45;&gt;Node19</title>
<path fill="none" stroke="#191970" d="M1143.0766,-123.2967C1149.0063,-113.3645 1156.7838,-100.3371 1163.0555,-89.8321"/>
<polygon fill="#191970" stroke="#191970" points="1166.1746,-91.4354 1168.2955,-81.055 1160.1642,-87.8471 1166.1746,-91.4354"/>
</g>
<!-- Node20&#45;&gt;Node6 -->
<g id="edge33" class="edge">
<title>Node20&#45;&gt;Node6</title>
<path fill="none" stroke="#191970" d="M943.6671,-123.4358C968.541,-101.0453 1013.3839,-61.0633 1022,-56 1048.9512,-40.1618 1082.2704,-28.3452 1108.0179,-20.6566"/>
<polygon fill="#191970" stroke="#191970" points="1109.2064,-23.9563 1117.8384,-17.8131 1107.2595,-17.2324 1109.2064,-23.9563"/>
</g>
<!-- Node20&#45;&gt;Node15 -->
<g id="edge34" class="edge">
<title>Node20&#45;&gt;Node15</title>
<path fill="none" stroke="#191970" d="M896.7034,-123.4639C877.5576,-113.9619 852.6047,-101.5779 831.8612,-91.283"/>
<polygon fill="#191970" stroke="#191970" points="833.1761,-88.0282 822.6626,-86.7177 830.0641,-94.2985 833.1761,-88.0282"/>
</g>
<!-- Node21&#45;&gt;Node4 -->
<g id="edge39" class="edge">
<title>Node21&#45;&gt;Node4</title>
<path fill="none" stroke="#191970" d="M474.1892,-128.9908C436.1738,-120.1093 380.0139,-105.4624 333,-87 331.8029,-86.5299 330.5907,-86.0266 329.3747,-85.4991"/>
<polygon fill="#191970" stroke="#191970" points="330.7043,-82.2561 320.1688,-81.1358 327.7062,-88.5816 330.7043,-82.2561"/>
</g>
<!-- Node21&#45;&gt;Node9 -->
<g id="edge40" class="edge">
<title>Node21&#45;&gt;Node9</title>
<path fill="none" stroke="#191970" d="M532.3276,-128.9005C548.7385,-117.9052 575.8475,-99.7422 595.1751,-86.7927"/>
<polygon fill="#191970" stroke="#191970" points="597.3395,-89.5556 603.699,-81.0817 593.4431,-83.7402 597.3395,-89.5556"/>
</g>
<!-- Node22 -->
<g id="node23" class="node">
<title>Node22</title>
<polygon fill="#ffffff" stroke="#bfbfbf" points="342,-62 342,-81 388,-81 388,-62 342,-62"/>
<text text-anchor="middle" x="365" y="-69" font-family="Helvetica,sans-Serif" font-size="10.00" fill="#000000">cstdint</text>
</g>
<!-- Node21&#45;&gt;Node22 -->
<g id="edge36" class="edge">
<title>Node21&#45;&gt;Node22</title>
<path fill="none" stroke="#191970" d="M494.6569,-128.9603C470.1801,-118.8652 430.6687,-102.3082 397,-87 395.9885,-86.5401 394.9611,-86.0682 393.9249,-85.5884"/>
<polygon fill="#191970" stroke="#191970" points="395.0961,-82.2707 384.5596,-81.1604 392.104,-88.599 395.0961,-82.2707"/>
</g>
<!-- Node23 -->
<g id="node24" class="node">
<title>Node23</title>
<polygon fill="#ffffff" stroke="#bfbfbf" points="542.5,-62 542.5,-81 577.5,-81 577.5,-62 542.5,-62"/>
<text text-anchor="middle" x="560" y="-69" font-family="Helvetica,sans-Serif" font-size="10.00" fill="#000000">map</text>
</g>
<!-- Node21&#45;&gt;Node23 -->
<g id="edge37" class="edge">
<title>Node21&#45;&gt;Node23</title>
<path fill="none" stroke="#191970" d="M524.0176,-128.9005C530.38,-118.751 540.5709,-102.4941 548.4858,-89.8679"/>
<polygon fill="#191970" stroke="#191970" points="551.6477,-91.4135 553.9936,-81.0817 545.7167,-87.6956 551.6477,-91.4135"/>
</g>
<!-- Node24 -->
<g id="node25" class="node">
<title>Node24</title>
<polygon fill="#ffffff" stroke="#bfbfbf" points="472,-62 472,-81 524,-81 524,-62 472,-62"/>
<text text-anchor="middle" x="498" y="-69" font-family="Helvetica,sans-Serif" font-size="10.00" fill="#000000">memory</text>
</g>
<!-- Node21&#45;&gt;Node24 -->
<g id="edge38" class="edge">
<title>Node21&#45;&gt;Node24</title>
<path fill="none" stroke="#191970" d="M515.1345,-128.9005C512.1939,-119.0495 507.5358,-103.4451 503.8183,-90.9912"/>
<polygon fill="#191970" stroke="#191970" points="507.0744,-89.6627 500.8602,-81.0817 500.3669,-91.665 507.0744,-89.6627"/>
</g>
<!-- Node25&#45;&gt;Node2 -->
<g id="edge43" class="edge">
<title>Node25&#45;&gt;Node2</title>
<path fill="none" stroke="#191970" d="M203.2421,-123.2147C200.8668,-104.7778 200.0962,-74.022 217,-56 243.2038,-28.0628 354.7624,-16.3801 412.7183,-12.123"/>
<polygon fill="#191970" stroke="#191970" points="413.152,-15.6013 422.8835,-11.4123 412.6637,-8.6184 413.152,-15.6013"/>
</g>
<!-- Node25&#45;&gt;Node4 -->
<g id="edge46" class="edge">
<title>Node25&#45;&gt;Node4</title>
<path fill="none" stroke="#191970" d="M228.0108,-123.2967C243.7108,-112.4524 264.7528,-97.9182 280.551,-87.006"/>
<polygon fill="#191970" stroke="#191970" points="282.9278,-89.6181 289.1667,-81.055 278.9495,-83.8585 282.9278,-89.6181"/>
</g>
<!-- Node25&#45;&gt;Node11 -->
<g id="edge44" class="edge">
<title>Node25&#45;&gt;Node11</title>
<path fill="none" stroke="#191970" d="M199.0427,-123.3399C194.4938,-113.1669 188.5705,-99.4077 184,-87 176.843,-67.5703 169.9463,-44.895 165.3973,-29.2068"/>
<polygon fill="#191970" stroke="#191970" points="168.7615,-28.2412 162.6487,-19.5877 162.0309,-30.1645 168.7615,-28.2412"/>
</g>
<!-- Node25&#45;&gt;Node22 -->
<g id="edge45" class="edge">
<title>Node25&#45;&gt;Node22</title>
<path fill="none" stroke="#191970" d="M244.2581,-123.4529C269.3448,-113.4414 302.7868,-99.8209 332,-87 333.3403,-86.4118 334.7078,-85.8033 336.0865,-85.1831"/>
<polygon fill="#191970" stroke="#191970" points="337.5528,-88.3612 345.1816,-81.0091 334.6331,-81.9992 337.5528,-88.3612"/>
</g>
<!-- Node26 -->
<g id="node27" class="node">
<title>Node26</title>
<polygon fill="#ffffff" stroke="#bfbfbf" points="226,-62 226,-81 264,-81 264,-62 226,-62"/>
<text text-anchor="middle" x="245" y="-69" font-family="Helvetica,sans-Serif" font-size="10.00" fill="#000000">array</text>
</g>
<!-- Node25&#45;&gt;Node26 -->
<g id="edge42" class="edge">
<title>Node25&#45;&gt;Node26</title>
<path fill="none" stroke="#191970" d="M214.8497,-123.2967C220.6311,-113.3645 228.2142,-100.3371 234.3291,-89.8321"/>
<polygon fill="#191970" stroke="#191970" points="237.4323,-91.4582 239.4382,-81.055 231.3825,-87.9367 237.4323,-91.4582"/>
</g>
</g>
</svg>
        <g id="navigator" transform="translate(0 0)" fill="#404254">
                <rect fill="#f2f5e9" fill-opacity="0.5" stroke="#606060" stroke-width=".5" x="0" y="0" width="60" height="60"/>
                <use id="zoomplus" xlink:href="#zoomPlus" target="_top" x="17" y="9" onmousedown="handleZoom(evt,'in')"/>
                <use id="zoomminus" xlink:href="#zoomMin" target="_top" x="42" y="9" onmousedown="handleZoom(evt,'out')"/>
                <use id="reset" xlink:href="#resetDef" target="_top" x="30" y="36" onmousedown="handleReset()"/>
                <g id="arrowUp" xlink:href="#dirArrow" target="_top" transform="translate(30 24)" onmousedown="handlePan(0,-1)">
                  <use xlink:href="#rim" target="_top" fill="#404040">
                        <set attributeName="fill" to="#808080" begin="arrowUp.mouseover" end="arrowUp.mouseout"/>
                  </use>
                  <path fill="none" stroke="white" stroke-width="1.5" d="M0,-3.0v7 M-2.5,-0.5L0,-3.0L2.5,-0.5"/>
                </g>
                <g id="arrowRight" xlink:href="#dirArrow" target="_top" transform="rotate(90) translate(36 -43)" onmousedown="handlePan(1,0)">
                  <use xlink:href="#rim" target="_top" fill="#404040">
                        <set attributeName="fill" to="#808080" begin="arrowRight.mouseover" end="arrowRight.mouseout"/>
                  </use>
                  <path fill="none" stroke="white" stroke-width="1.5" d="M0,-3.0v7 M-2.5,-0.5L0,-3.0L2.5,-0.5"/>
                </g>
                <g id="arrowDown" xlink:href="#dirArrow" target="_top" transform="rotate(180) translate(-30 -48)" onmousedown="handlePan(0,1)">
                  <use xlink:href="#rim" target="_top" fill="#404040">
                        <set attributeName="fill" to="#808080" begin="arrowDown.mouseover" end="arrowDown.mouseout"/>
                  </use>
                  <path fill="none" stroke="white" stroke-width="1.5" d="M0,-3.0v7 M-2.5,-0.5L0,-3.0L2.5,-0.5"/>
                </g>
                <g id="arrowLeft" xlink:href="#dirArrow" target="_top" transform="rotate(270) translate(-36 17)" onmousedown="handlePan(-1,0)">
                  <use xlink:href="#rim" target="_top" fill="#404040">
                        <set attributeName="fill" to="#808080" begin="arrowLeft.mouseover" end="arrowLeft.mouseout"/>
                  </use>
                  <path fill="none" stroke="white" stroke-width="1.5" d="M0,-3.0v7 M-2.5,-0.5L0,-3.0L2.5,-0.5"/>
                </g>
        </g>
        <svg viewBox="0 0 15 15" width="100%" height="30px" preserveAspectRatio="xMaxYMin meet">
         <g id="arrow_out" transform="scale(0.3 0.3)">
          <a xlink:href="to__json_8hpp__incl_org.svg" target="_top" target="_base">
           <rect id="button" ry="5" rx="5" y="6" x="6" height="38" width="38"
                fill="#f2f5e9" fill-opacity="0.5" stroke="#606060" stroke-width="1.0"/>
           <path id="arrow"
             d="M 11.500037,31.436501 C 11.940474,20.09759 22.043105,11.32322 32.158766,21.979434 L 37.068811,17.246167 C 37.068811,17.246167 37.088388,32 37.088388,32 L 22.160133,31.978069 C 22.160133,31.978069 26.997745,27.140456 26.997745,27.140456 C 18.528582,18.264221 13.291696,25.230495 11.500037,31.436501 z"
             style="fill:#404040;"/>
          </a>
         </g>
        </svg>
</svg>
