<?xml version="1.0" encoding="UTF-8" standalone="no"?>
<!DOCTYPE svg PUBLIC "-//W3C//DTD SVG 1.1//EN"
 "http://www.w3.org/Graphics/SVG/1.1/DTD/svg11.dtd">
<!-- Generated by graphviz version 2.40.1 (20161225.0304)
 -->
<!-- Title: /home/bdn_jz/bdn_jz/camera&#45;tracker&#45;cpp/CameraTrackerLinux/include/nlohmann/detail/meta/type_traits.hpp Pages: 1 -->
<!--zoomable 262 -->
<svg id="main" version="1.1" xmlns="http://www.w3.org/2000/svg" xmlns:xlink="http://www.w3.org/1999/xlink" xml:space="preserve" onload="init(evt)">
<style type="text/css"><![CDATA[
.edge:hover path { stroke: red; }
.edge:hover polygon { stroke: red; fill: red; }
]]></style>
<script type="text/javascript"><![CDATA[
var edges = document.getElementsByTagName('g');
if (edges && edges.length) {
  for (var i=0;i<edges.length;i++) {
    if (edges[i].id.substr(0,4)=='edge') {
      edges[i].setAttribute('class','edge');
    }
  }
}
]]></script>
        <defs>
                <circle id="rim" cx="0" cy="0" r="7"/>
                <circle id="rim2" cx="0" cy="0" r="3.5"/>
                <g id="zoomPlus">
                        <use xlink:href="#rim" fill="#404040">
                                <set attributeName="fill" to="#808080" begin="zoomplus.mouseover" end="zoomplus.mouseout"/>
                        </use>
                        <path d="M-4,0h8M0,-4v8" fill="none" stroke="white" stroke-width="1.5" pointer-events="none"/>
                </g>
                <g id="zoomMin">
                        <use xlink:href="#rim" fill="#404040">
                                <set attributeName="fill" to="#808080" begin="zoomminus.mouseover" end="zoomminus.mouseout"/>
                        </use>
                        <path d="M-4,0h8" fill="none" stroke="white" stroke-width="1.5" pointer-events="none"/>
                </g>
                <g id="dirArrow">
                        <path fill="none" stroke="white" stroke-width="1.5" d="M0,-3.0v7 M-2.5,-0.5L0,-3.0L2.5,-0.5"/>
                </g>
               <g id="resetDef">
                       <use xlink:href="#rim2" fill="#404040">
                               <set attributeName="fill" to="#808080" begin="reset.mouseover" end="reset.mouseout"/>
                       </use>
               </g>
        </defs>

<script type="text/javascript">
var viewWidth = 1067;
var viewHeight = 262;
var sectionId = 'dynsection-0';
</script>
<script xlink:href="svgpan.js"/>
<svg id="graph" class="graph">
<g id="viewport">
<title>/home/bdn_jz/bdn_jz/camera&#45;tracker&#45;cpp/CameraTrackerLinux/include/nlohmann/detail/meta/type_traits.hpp</title>
<polygon fill="#ffffff" stroke="transparent" points="-4,4 -4,-258 1063,-258 1063,4 -4,4"/>
<!-- Node0 -->
<g id="node1" class="node">
<title>Node0</title>
<polygon fill="#bfbfbf" stroke="#000000" points="336,-190.5 336,-253.5 480,-253.5 480,-190.5 336,-190.5"/>
<text text-anchor="start" x="344" y="-241.5" font-family="Helvetica,sans-Serif" font-size="10.00" fill="#000000">/home/bdn_jz/bdn_jz</text>
<text text-anchor="start" x="344" y="-230.5" font-family="Helvetica,sans-Serif" font-size="10.00" fill="#000000">/camera&#45;tracker&#45;cpp</text>
<text text-anchor="start" x="344" y="-219.5" font-family="Helvetica,sans-Serif" font-size="10.00" fill="#000000">/CameraTrackerLinux/include</text>
<text text-anchor="start" x="344" y="-208.5" font-family="Helvetica,sans-Serif" font-size="10.00" fill="#000000">/nlohmann/detail/meta/type</text>
<text text-anchor="middle" x="408" y="-197.5" font-family="Helvetica,sans-Serif" font-size="10.00" fill="#000000">_traits.hpp</text>
</g>
<!-- Node1 -->
<g id="node2" class="node">
<title>Node1</title>
<polygon fill="#ffffff" stroke="#bfbfbf" points="0,-.5 0,-19.5 50,-19.5 50,-.5 0,-.5"/>
<text text-anchor="middle" x="25" y="-7.5" font-family="Helvetica,sans-Serif" font-size="10.00" fill="#000000">ciso646</text>
</g>
<!-- Node0&#45;&gt;Node1 -->
<g id="edge1" class="edge">
<title>Node0&#45;&gt;Node1</title>
<path fill="none" stroke="#191970" d="M335.864,-211.5182C278.9772,-201.5342 198.5746,-183.5549 133,-154 85.2321,-132.4707 63.5698,-131.5555 36,-87 25.3773,-69.8326 23.4101,-46.4563 23.6119,-29.9776"/>
<polygon fill="#191970" stroke="#191970" points="27.1151,-29.9645 24.0184,-19.8323 20.1207,-29.6842 27.1151,-29.9645"/>
</g>
<!-- Node2 -->
<g id="node3" class="node">
<title>Node2</title>
<polygon fill="#ffffff" stroke="#bfbfbf" points="481,-129 481,-148 521,-148 521,-129 481,-129"/>
<text text-anchor="middle" x="501" y="-136" font-family="Helvetica,sans-Serif" font-size="10.00" fill="#000000">limits</text>
</g>
<!-- Node0&#45;&gt;Node2 -->
<g id="edge2" class="edge">
<title>Node0&#45;&gt;Node2</title>
<path fill="none" stroke="#191970" d="M443.1593,-190.4322C456.57,-178.3914 471.321,-165.1473 482.5698,-155.0475"/>
<polygon fill="#191970" stroke="#191970" points="484.9699,-157.5964 490.0726,-148.3112 480.2933,-152.3877 484.9699,-157.5964"/>
</g>
<!-- Node3 -->
<g id="node4" class="node">
<title>Node3</title>
<polygon fill="#ffffff" stroke="#bfbfbf" points="152,-.5 152,-19.5 214,-19.5 214,-.5 152,-.5"/>
<text text-anchor="middle" x="183" y="-7.5" font-family="Helvetica,sans-Serif" font-size="10.00" fill="#000000">type_traits</text>
</g>
<!-- Node0&#45;&gt;Node3 -->
<g id="edge3" class="edge">
<title>Node0&#45;&gt;Node3</title>
<path fill="none" stroke="#191970" d="M335.7583,-206.7251C283.6295,-194.1849 219.4738,-175.104 202,-154 172.6241,-118.5212 175.496,-60.3586 179.5522,-29.9466"/>
<polygon fill="#191970" stroke="#191970" points="183.0588,-30.167 181.1,-19.7548 176.1381,-29.1159 183.0588,-30.167"/>
</g>
<!-- Node4 -->
<g id="node5" class="node">
<title>Node4</title>
<polygon fill="#ffffff" stroke="#bfbfbf" points="526,-62 526,-81 566,-81 566,-62 526,-62"/>
<text text-anchor="middle" x="546" y="-69" font-family="Helvetica,sans-Serif" font-size="10.00" fill="#000000">utility</text>
</g>
<!-- Node0&#45;&gt;Node4 -->
<g id="edge4" class="edge">
<title>Node0&#45;&gt;Node4</title>
<path fill="none" stroke="#191970" d="M480.1708,-195.0812C498.9448,-184.8686 517.4102,-171.3788 530,-154 543.2629,-135.6919 546.3321,-109.3215 546.6886,-91.3563"/>
<polygon fill="#191970" stroke="#191970" points="550.1873,-91.1445 546.6191,-81.1686 543.1875,-91.1923 550.1873,-91.1445"/>
</g>
<!-- Node5 -->
<g id="node6" class="node">
<title>Node5</title>
<g id="a_node6"><a xlink:href="iterator__traits_8hpp.html" target="_top" xlink:title="nlohmann/detail/iterators\l/iterator_traits.hpp">
<polygon fill="#ffffff" stroke="#000000" points="211.5,-123.5 211.5,-153.5 334.5,-153.5 334.5,-123.5 211.5,-123.5"/>
<text text-anchor="start" x="219.5" y="-141.5" font-family="Helvetica,sans-Serif" font-size="10.00" fill="#000000">nlohmann/detail/iterators</text>
<text text-anchor="middle" x="273" y="-130.5" font-family="Helvetica,sans-Serif" font-size="10.00" fill="#000000">/iterator_traits.hpp</text>
</a>
</g>
</g>
<!-- Node0&#45;&gt;Node5 -->
<g id="edge5" class="edge">
<title>Node0&#45;&gt;Node5</title>
<path fill="none" stroke="#191970" d="M356.9623,-190.4322C339.86,-179.8541 321.2561,-168.3473 305.9168,-158.8597"/>
<polygon fill="#191970" stroke="#191970" points="307.6443,-155.8128 297.2985,-153.5291 303.9621,-161.7661 307.6443,-155.8128"/>
</g>
<!-- Node8 -->
<g id="node9" class="node">
<title>Node8</title>
<g id="a_node9"><a xlink:href="cpp__future_8hpp.html" target="_top" xlink:title="nlohmann/detail/meta\l/cpp_future.hpp">
<polygon fill="#ffffff" stroke="#000000" points="45,-56.5 45,-86.5 155,-86.5 155,-56.5 45,-56.5"/>
<text text-anchor="start" x="53" y="-74.5" font-family="Helvetica,sans-Serif" font-size="10.00" fill="#000000">nlohmann/detail/meta</text>
<text text-anchor="middle" x="100" y="-63.5" font-family="Helvetica,sans-Serif" font-size="10.00" fill="#000000">/cpp_future.hpp</text>
</a>
</g>
</g>
<!-- Node0&#45;&gt;Node8 -->
<g id="edge16" class="edge">
<title>Node0&#45;&gt;Node8</title>
<path fill="none" stroke="#191970" d="M335.9229,-212.9262C285.9121,-204.0132 219.4786,-186.765 169,-154 145.8496,-138.9734 126.4296,-113.7952 114.1501,-95.198"/>
<polygon fill="#191970" stroke="#191970" points="117.0392,-93.219 108.7105,-86.6704 111.1376,-96.9835 117.0392,-93.219"/>
</g>
<!-- Node10 -->
<g id="node11" class="node">
<title>Node10</title>
<g id="a_node11"><a xlink:href="macro__scope_8hpp.html" target="_top" xlink:title="nlohmann/detail/macro\l_scope.hpp">
<polygon fill="#ffffff" stroke="#000000" points="577.5,-123.5 577.5,-153.5 692.5,-153.5 692.5,-123.5 577.5,-123.5"/>
<text text-anchor="start" x="585.5" y="-141.5" font-family="Helvetica,sans-Serif" font-size="10.00" fill="#000000">nlohmann/detail/macro</text>
<text text-anchor="middle" x="635" y="-130.5" font-family="Helvetica,sans-Serif" font-size="10.00" fill="#000000">_scope.hpp</text>
</a>
</g>
</g>
<!-- Node0&#45;&gt;Node10 -->
<g id="edge12" class="edge">
<title>Node0&#45;&gt;Node10</title>
<path fill="none" stroke="#191970" d="M480.1361,-195.4653C514.1079,-182.9691 553.8072,-168.3661 584.5054,-157.074"/>
<polygon fill="#191970" stroke="#191970" points="585.9605,-160.2681 594.1373,-153.531 583.5438,-153.6985 585.9605,-160.2681"/>
</g>
<!-- Node13 -->
<g id="node14" class="node">
<title>Node13</title>
<g id="a_node14"><a xlink:href="detected_8hpp.html" target="_top" xlink:title="nlohmann/detail/meta\l/detected.hpp">
<polygon fill="#ffffff" stroke="#000000" points="353,-123.5 353,-153.5 463,-153.5 463,-123.5 353,-123.5"/>
<text text-anchor="start" x="361" y="-141.5" font-family="Helvetica,sans-Serif" font-size="10.00" fill="#000000">nlohmann/detail/meta</text>
<text text-anchor="middle" x="408" y="-130.5" font-family="Helvetica,sans-Serif" font-size="10.00" fill="#000000">/detected.hpp</text>
</a>
</g>
</g>
<!-- Node0&#45;&gt;Node13 -->
<g id="edge17" class="edge">
<title>Node0&#45;&gt;Node13</title>
<path fill="none" stroke="#191970" d="M408,-190.4322C408,-181.6979 408,-172.3303 408,-163.989"/>
<polygon fill="#191970" stroke="#191970" points="411.5001,-163.7544 408,-153.7545 404.5001,-163.7545 411.5001,-163.7544"/>
</g>
<!-- Node14 -->
<g id="node15" class="node">
<title>Node14</title>
<g id="a_node15"><a xlink:href="json__fwd_8hpp.html" target="_top" xlink:title="nlohmann/json_fwd.hpp">
<polygon fill="#ffffff" stroke="#000000" points="819.5,-129 819.5,-148 938.5,-148 938.5,-129 819.5,-129"/>
<text text-anchor="middle" x="879" y="-136" font-family="Helvetica,sans-Serif" font-size="10.00" fill="#000000">nlohmann/json_fwd.hpp</text>
</a>
</g>
</g>
<!-- Node0&#45;&gt;Node14 -->
<g id="edge20" class="edge">
<title>Node0&#45;&gt;Node14</title>
<path fill="none" stroke="#191970" d="M480.0475,-209.2273C571.5163,-193.0114 727.9001,-165.2874 815.2335,-149.8047"/>
<polygon fill="#191970" stroke="#191970" points="816.0386,-153.2166 825.2741,-148.0247 814.8166,-146.3241 816.0386,-153.2166"/>
</g>
<!-- Node6 -->
<g id="node7" class="node">
<title>Node6</title>
<polygon fill="#ffffff" stroke="#bfbfbf" points="211.5,-62 211.5,-81 258.5,-81 258.5,-62 211.5,-62"/>
<text text-anchor="middle" x="235" y="-69" font-family="Helvetica,sans-Serif" font-size="10.00" fill="#000000">iterator</text>
</g>
<!-- Node5&#45;&gt;Node6 -->
<g id="edge6" class="edge">
<title>Node5&#45;&gt;Node6</title>
<path fill="none" stroke="#191970" d="M264.3772,-123.2967C258.744,-113.3645 251.3553,-100.3371 245.3973,-89.8321"/>
<polygon fill="#191970" stroke="#191970" points="248.3971,-88.0266 240.4192,-81.055 242.3083,-91.4801 248.3971,-88.0266"/>
</g>
<!-- Node7 -->
<g id="node8" class="node">
<title>Node7</title>
<g id="a_node8"><a xlink:href="void__t_8hpp.html" target="_top" xlink:title="nlohmann/detail/meta\l/void_t.hpp">
<polygon fill="#ffffff" stroke="#000000" points="277,-56.5 277,-86.5 387,-86.5 387,-56.5 277,-56.5"/>
<text text-anchor="start" x="285" y="-74.5" font-family="Helvetica,sans-Serif" font-size="10.00" fill="#000000">nlohmann/detail/meta</text>
<text text-anchor="middle" x="332" y="-63.5" font-family="Helvetica,sans-Serif" font-size="10.00" fill="#000000">/void_t.hpp</text>
</a>
</g>
</g>
<!-- Node5&#45;&gt;Node7 -->
<g id="edge7" class="edge">
<title>Node5&#45;&gt;Node7</title>
<path fill="none" stroke="#191970" d="M286.388,-123.2967C293.9315,-114.7303 303.5027,-103.8614 311.9274,-94.2943"/>
<polygon fill="#191970" stroke="#191970" points="314.6829,-96.4612 318.665,-86.6432 309.4294,-91.835 314.6829,-96.4612"/>
</g>
<!-- Node5&#45;&gt;Node8 -->
<g id="edge8" class="edge">
<title>Node5&#45;&gt;Node8</title>
<path fill="none" stroke="#191970" d="M234.1754,-123.4639C208.8887,-113.6708 175.6971,-100.8162 148.6532,-90.3426"/>
<polygon fill="#191970" stroke="#191970" points="149.583,-86.9494 138.9939,-86.6017 147.055,-93.477 149.583,-86.9494"/>
</g>
<!-- Node8&#45;&gt;Node1 -->
<g id="edge9" class="edge">
<title>Node8&#45;&gt;Node1</title>
<path fill="none" stroke="#191970" d="M81.4607,-56.2977C70.3992,-47.2274 56.3509,-35.7077 45.0347,-26.4285"/>
<polygon fill="#191970" stroke="#191970" points="46.9604,-23.4813 37.0084,-19.8469 42.5219,-28.8942 46.9604,-23.4813"/>
</g>
<!-- Node8&#45;&gt;Node3 -->
<g id="edge11" class="edge">
<title>Node8&#45;&gt;Node3</title>
<path fill="none" stroke="#191970" d="M120.5169,-56.2977C132.9982,-47.0495 148.9159,-35.2551 161.5614,-25.8853"/>
<polygon fill="#191970" stroke="#191970" points="163.7596,-28.6126 169.7106,-19.8469 159.5922,-22.9882 163.7596,-28.6126"/>
</g>
<!-- Node9 -->
<g id="node10" class="node">
<title>Node9</title>
<polygon fill="#ffffff" stroke="#bfbfbf" points="75.5,-.5 75.5,-19.5 124.5,-19.5 124.5,-.5 75.5,-.5"/>
<text text-anchor="middle" x="100" y="-7.5" font-family="Helvetica,sans-Serif" font-size="10.00" fill="#000000">cstddef</text>
</g>
<!-- Node8&#45;&gt;Node9 -->
<g id="edge10" class="edge">
<title>Node8&#45;&gt;Node9</title>
<path fill="none" stroke="#191970" d="M100,-56.2977C100,-48.3834 100,-38.6043 100,-30.0759"/>
<polygon fill="#191970" stroke="#191970" points="103.5001,-29.8469 100,-19.8469 96.5001,-29.847 103.5001,-29.8469"/>
</g>
<!-- Node10&#45;&gt;Node4 -->
<g id="edge13" class="edge">
<title>Node10&#45;&gt;Node4</title>
<path fill="none" stroke="#191970" d="M614.8045,-123.2967C600.534,-112.5537 581.4532,-98.1895 567.0052,-87.3129"/>
<polygon fill="#191970" stroke="#191970" points="568.7867,-84.2731 558.6924,-81.055 564.5766,-89.8656 568.7867,-84.2731"/>
</g>
<!-- Node11 -->
<g id="node12" class="node">
<title>Node11</title>
<polygon fill="#ffffff" stroke="#bfbfbf" points="584,-56.5 584,-86.5 686,-86.5 686,-56.5 584,-56.5"/>
<text text-anchor="start" x="592" y="-74.5" font-family="Helvetica,sans-Serif" font-size="10.00" fill="#000000">nlohmann/thirdparty</text>
<text text-anchor="middle" x="635" y="-63.5" font-family="Helvetica,sans-Serif" font-size="10.00" fill="#000000">/hedley/hedley.hpp</text>
</g>
<!-- Node10&#45;&gt;Node11 -->
<g id="edge14" class="edge">
<title>Node10&#45;&gt;Node11</title>
<path fill="none" stroke="#191970" d="M635,-123.2967C635,-115.5013 635,-105.7991 635,-96.9064"/>
<polygon fill="#191970" stroke="#191970" points="638.5001,-96.6431 635,-86.6432 631.5001,-96.6432 638.5001,-96.6431"/>
</g>
<!-- Node12 -->
<g id="node13" class="node">
<title>Node12</title>
<polygon fill="#ffffff" stroke="#bfbfbf" points="704.5,-62 704.5,-81 749.5,-81 749.5,-62 704.5,-62"/>
<text text-anchor="middle" x="727" y="-69" font-family="Helvetica,sans-Serif" font-size="10.00" fill="#000000">cstdlib</text>
</g>
<!-- Node10&#45;&gt;Node12 -->
<g id="edge15" class="edge">
<title>Node10&#45;&gt;Node12</title>
<path fill="none" stroke="#191970" d="M655.8762,-123.2967C670.7669,-112.4524 690.7243,-97.9182 705.7081,-87.006"/>
<polygon fill="#191970" stroke="#191970" points="707.8566,-89.7712 713.8797,-81.055 703.7357,-84.1127 707.8566,-89.7712"/>
</g>
<!-- Node13&#45;&gt;Node3 -->
<g id="edge18" class="edge">
<title>Node13&#45;&gt;Node3</title>
<path fill="none" stroke="#191970" d="M410.497,-123.2365C412.5725,-104.8215 412.8935,-74.0878 396,-56 373.075,-31.4544 279.4862,-18.829 224.2838,-13.3963"/>
<polygon fill="#191970" stroke="#191970" points="224.4034,-9.8921 214.1181,-12.4343 223.7438,-16.861 224.4034,-9.8921"/>
</g>
<!-- Node13&#45;&gt;Node7 -->
<g id="edge19" class="edge">
<title>Node13&#45;&gt;Node7</title>
<path fill="none" stroke="#191970" d="M390.7544,-123.2967C380.7458,-114.4733 367.9664,-103.2072 356.8836,-93.4368"/>
<polygon fill="#191970" stroke="#191970" points="358.9932,-90.6307 349.1773,-86.6432 354.3641,-95.8816 358.9932,-90.6307"/>
</g>
<!-- Node15 -->
<g id="node16" class="node">
<title>Node15</title>
<polygon fill="#ffffff" stroke="#bfbfbf" points="1013,-62 1013,-81 1059,-81 1059,-62 1013,-62"/>
<text text-anchor="middle" x="1036" y="-69" font-family="Helvetica,sans-Serif" font-size="10.00" fill="#000000">cstdint</text>
</g>
<!-- Node14&#45;&gt;Node15 -->
<g id="edge21" class="edge">
<title>Node14&#45;&gt;Node15</title>
<path fill="none" stroke="#191970" d="M903.6168,-128.8666C928.9618,-118.8296 969.5103,-102.441 1004,-87 1005.1726,-86.475 1006.366,-85.933 1007.5692,-85.3801"/>
<polygon fill="#191970" stroke="#191970" points="1009.2424,-88.4608 1016.7975,-81.0331 1006.2594,-82.1282 1009.2424,-88.4608"/>
</g>
<!-- Node16 -->
<g id="node17" class="node">
<title>Node16</title>
<polygon fill="#ffffff" stroke="#bfbfbf" points="767.5,-62 767.5,-81 802.5,-81 802.5,-62 767.5,-62"/>
<text text-anchor="middle" x="785" y="-69" font-family="Helvetica,sans-Serif" font-size="10.00" fill="#000000">map</text>
</g>
<!-- Node14&#45;&gt;Node16 -->
<g id="edge22" class="edge">
<title>Node14&#45;&gt;Node16</title>
<path fill="none" stroke="#191970" d="M865.5321,-128.9005C850.1756,-117.9549 824.8537,-99.9064 806.7024,-86.9688"/>
<polygon fill="#191970" stroke="#191970" points="808.6176,-84.0358 798.4429,-81.0817 804.5546,-89.736 808.6176,-84.0358"/>
</g>
<!-- Node17 -->
<g id="node18" class="node">
<title>Node17</title>
<polygon fill="#ffffff" stroke="#bfbfbf" points="821,-62 821,-81 873,-81 873,-62 821,-62"/>
<text text-anchor="middle" x="847" y="-69" font-family="Helvetica,sans-Serif" font-size="10.00" fill="#000000">memory</text>
</g>
<!-- Node14&#45;&gt;Node17 -->
<g id="edge23" class="edge">
<title>Node14&#45;&gt;Node17</title>
<path fill="none" stroke="#191970" d="M874.4152,-128.9005C869.6152,-118.8505 861.9551,-102.8122 855.9506,-90.2403"/>
<polygon fill="#191970" stroke="#191970" points="859.0444,-88.5968 851.5763,-81.0817 852.7279,-91.6137 859.0444,-88.5968"/>
</g>
<!-- Node18 -->
<g id="node19" class="node">
<title>Node18</title>
<polygon fill="#ffffff" stroke="#bfbfbf" points="891.5,-62 891.5,-81 932.5,-81 932.5,-62 891.5,-62"/>
<text text-anchor="middle" x="912" y="-69" font-family="Helvetica,sans-Serif" font-size="10.00" fill="#000000">string</text>
</g>
<!-- Node14&#45;&gt;Node18 -->
<g id="edge24" class="edge">
<title>Node14&#45;&gt;Node18</title>
<path fill="none" stroke="#191970" d="M883.7281,-128.9005C888.6781,-118.8505 896.5776,-102.8122 902.7697,-90.2403"/>
<polygon fill="#191970" stroke="#191970" points="906.0019,-91.5991 907.2807,-81.0817 899.7223,-88.5061 906.0019,-91.5991"/>
</g>
<!-- Node19 -->
<g id="node20" class="node">
<title>Node19</title>
<polygon fill="#ffffff" stroke="#bfbfbf" points="951,-62 951,-81 995,-81 995,-62 951,-62"/>
<text text-anchor="middle" x="973" y="-69" font-family="Helvetica,sans-Serif" font-size="10.00" fill="#000000">vector</text>
</g>
<!-- Node14&#45;&gt;Node19 -->
<g id="edge25" class="edge">
<title>Node14&#45;&gt;Node19</title>
<path fill="none" stroke="#191970" d="M892.4679,-128.9005C907.8244,-117.9549 933.1463,-99.9064 951.2976,-86.9688"/>
<polygon fill="#191970" stroke="#191970" points="953.4454,-89.736 959.5571,-81.0817 949.3824,-84.0358 953.4454,-89.736"/>
</g>
</g>
</svg>
        <g id="navigator" transform="translate(0 0)" fill="#404254">
                <rect fill="#f2f5e9" fill-opacity="0.5" stroke="#606060" stroke-width=".5" x="0" y="0" width="60" height="60"/>
                <use id="zoomplus" xlink:href="#zoomPlus" x="17" y="9" onmousedown="handleZoom(evt,'in')"/>
                <use id="zoomminus" xlink:href="#zoomMin" x="42" y="9" onmousedown="handleZoom(evt,'out')"/>
                <use id="reset" xlink:href="#resetDef" x="30" y="36" onmousedown="handleReset()"/>
                <g id="arrowUp" xlink:href="#dirArrow" transform="translate(30 24)" onmousedown="handlePan(0,-1)">
                  <use xlink:href="#rim" fill="#404040">
                        <set attributeName="fill" to="#808080" begin="arrowUp.mouseover" end="arrowUp.mouseout"/>
                  </use>
                  <path fill="none" stroke="white" stroke-width="1.5" d="M0,-3.0v7 M-2.5,-0.5L0,-3.0L2.5,-0.5"/>
                </g>
                <g id="arrowRight" xlink:href="#dirArrow" transform="rotate(90) translate(36 -43)" onmousedown="handlePan(1,0)">
                  <use xlink:href="#rim" fill="#404040">
                        <set attributeName="fill" to="#808080" begin="arrowRight.mouseover" end="arrowRight.mouseout"/>
                  </use>
                  <path fill="none" stroke="white" stroke-width="1.5" d="M0,-3.0v7 M-2.5,-0.5L0,-3.0L2.5,-0.5"/>
                </g>
                <g id="arrowDown" xlink:href="#dirArrow" transform="rotate(180) translate(-30 -48)" onmousedown="handlePan(0,1)">
                  <use xlink:href="#rim" fill="#404040">
                        <set attributeName="fill" to="#808080" begin="arrowDown.mouseover" end="arrowDown.mouseout"/>
                  </use>
                  <path fill="none" stroke="white" stroke-width="1.5" d="M0,-3.0v7 M-2.5,-0.5L0,-3.0L2.5,-0.5"/>
                </g>
                <g id="arrowLeft" xlink:href="#dirArrow" transform="rotate(270) translate(-36 17)" onmousedown="handlePan(-1,0)">
                  <use xlink:href="#rim" fill="#404040">
                        <set attributeName="fill" to="#808080" begin="arrowLeft.mouseover" end="arrowLeft.mouseout"/>
                  </use>
                  <path fill="none" stroke="white" stroke-width="1.5" d="M0,-3.0v7 M-2.5,-0.5L0,-3.0L2.5,-0.5"/>
                </g>
        </g>
        <svg viewBox="0 0 15 15" width="100%" height="30px" preserveAspectRatio="xMaxYMin meet">
         <g id="arrow_out" transform="scale(0.3 0.3)">
          <a xlink:href="type__traits_8hpp__incl_org.svg" target="_base">
           <rect id="button" ry="5" rx="5" y="6" x="6" height="38" width="38"
                fill="#f2f5e9" fill-opacity="0.5" stroke="#606060" stroke-width="1.0"/>
           <path id="arrow"
             d="M 11.500037,31.436501 C 11.940474,20.09759 22.043105,11.32322 32.158766,21.979434 L 37.068811,17.246167 C 37.068811,17.246167 37.088388,32 37.088388,32 L 22.160133,31.978069 C 22.160133,31.978069 26.997745,27.140456 26.997745,27.140456 C 18.528582,18.264221 13.291696,25.230495 11.500037,31.436501 z"
             style="fill:#404040;"/>
          </a>
         </g>
        </svg>
</svg>
