<?xml version="1.0" encoding="UTF-8" standalone="no"?>
<!DOCTYPE svg PUBLIC "-//W3C//DTD SVG 1.1//EN"
 "http://www.w3.org/Graphics/SVG/1.1/DTD/svg11.dtd">
<!-- Generated by graphviz version 2.40.1 (20161225.0304)
 -->
<!-- Title: /home/bdn_jz/bdn_jz/camera&#45;tracker&#45;cpp/CameraTrackerLinux/include/nlohmann/detail/meta/type_traits.hpp Pages: 1 -->
<svg width="965pt" height="739pt"
 viewBox="0.00 0.00 964.50 739.00" xmlns="http://www.w3.org/2000/svg" xmlns:xlink="http://www.w3.org/1999/xlink">
<g id="graph0" class="graph" transform="scale(1 1) rotate(0) translate(4 735)">
<title>/home/bdn_jz/bdn_jz/camera&#45;tracker&#45;cpp/CameraTrackerLinux/include/nlohmann/detail/meta/type_traits.hpp</title>
<polygon fill="#ffffff" stroke="transparent" points="-4,4 -4,-735 960.5,-735 960.5,4 -4,4"/>
<!-- Node20 -->
<g id="node1" class="node">
<title>Node20</title>
<polygon fill="#bfbfbf" stroke="#000000" points="284,-667.5 284,-730.5 428,-730.5 428,-667.5 284,-667.5"/>
<text text-anchor="start" x="292" y="-718.5" font-family="Helvetica,sans-Serif" font-size="10.00" fill="#000000">/home/bdn_jz/bdn_jz</text>
<text text-anchor="start" x="292" y="-707.5" font-family="Helvetica,sans-Serif" font-size="10.00" fill="#000000">/camera&#45;tracker&#45;cpp</text>
<text text-anchor="start" x="292" y="-696.5" font-family="Helvetica,sans-Serif" font-size="10.00" fill="#000000">/CameraTrackerLinux/include</text>
<text text-anchor="start" x="292" y="-685.5" font-family="Helvetica,sans-Serif" font-size="10.00" fill="#000000">/nlohmann/detail/meta/type</text>
<text text-anchor="middle" x="356" y="-674.5" font-family="Helvetica,sans-Serif" font-size="10.00" fill="#000000">_traits.hpp</text>
</g>
<!-- Node21 -->
<g id="node2" class="node">
<title>Node21</title>
<g id="a_node2"><a xlink:href="json_8hpp.html" target="_top" xlink:title="/home/bdn_jz/bdn_jz\l/camera&#45;tracker&#45;cpp\l/CameraTrackerLinux/include\l/nlohmann/json.hpp">
<polygon fill="#ffffff" stroke="#000000" points="384,-178.5 384,-230.5 528,-230.5 528,-178.5 384,-178.5"/>
<text text-anchor="start" x="392" y="-218.5" font-family="Helvetica,sans-Serif" font-size="10.00" fill="#000000">/home/bdn_jz/bdn_jz</text>
<text text-anchor="start" x="392" y="-207.5" font-family="Helvetica,sans-Serif" font-size="10.00" fill="#000000">/camera&#45;tracker&#45;cpp</text>
<text text-anchor="start" x="392" y="-196.5" font-family="Helvetica,sans-Serif" font-size="10.00" fill="#000000">/CameraTrackerLinux/include</text>
<text text-anchor="middle" x="456" y="-185.5" font-family="Helvetica,sans-Serif" font-size="10.00" fill="#000000">/nlohmann/json.hpp</text>
</a>
</g>
</g>
<!-- Node20&#45;&gt;Node21 -->
<g id="edge1" class="edge">
<title>Node20&#45;&gt;Node21</title>
<path fill="none" stroke="#191970" d="M273.9912,-689.2603C168.8637,-671.6808 0,-623.99 0,-499 0,-499 0,-499 0,-399 0,-360.1787 31.7924,-307.7961 102,-267 148.8106,-239.7994 294.7715,-220.7606 383.9864,-211.3144"/>
<polygon fill="#191970" stroke="#191970" points="273.5281,-692.7308 283.9581,-690.8691 274.6436,-685.8202 273.5281,-692.7308"/>
</g>
<!-- Node25 -->
<g id="node6" class="node">
<title>Node25</title>
<g id="a_node6"><a xlink:href="from__json_8hpp.html" target="_top" xlink:title="/home/bdn_jz/bdn_jz\l/camera&#45;tracker&#45;cpp\l/CameraTrackerLinux/include\l/nlohmann/detail/conversions\l/from_json.hpp">
<polygon fill="#ffffff" stroke="#000000" points="28,-367.5 28,-430.5 172,-430.5 172,-367.5 28,-367.5"/>
<text text-anchor="start" x="36" y="-418.5" font-family="Helvetica,sans-Serif" font-size="10.00" fill="#000000">/home/bdn_jz/bdn_jz</text>
<text text-anchor="start" x="36" y="-407.5" font-family="Helvetica,sans-Serif" font-size="10.00" fill="#000000">/camera&#45;tracker&#45;cpp</text>
<text text-anchor="start" x="36" y="-396.5" font-family="Helvetica,sans-Serif" font-size="10.00" fill="#000000">/CameraTrackerLinux/include</text>
<text text-anchor="start" x="36" y="-385.5" font-family="Helvetica,sans-Serif" font-size="10.00" fill="#000000">/nlohmann/detail/conversions</text>
<text text-anchor="middle" x="100" y="-374.5" font-family="Helvetica,sans-Serif" font-size="10.00" fill="#000000">/from_json.hpp</text>
</a>
</g>
</g>
<!-- Node20&#45;&gt;Node25 -->
<g id="edge5" class="edge">
<title>Node20&#45;&gt;Node25</title>
<path fill="none" stroke="#191970" d="M313.1624,-660.4598C303.3148,-651.0812 293.076,-640.8952 284,-631 221.6263,-562.9962 156.2598,-476.2961 122.763,-430.552"/>
<polygon fill="#191970" stroke="#191970" points="310.9116,-663.1478 320.5909,-667.456 315.7108,-658.052 310.9116,-663.1478"/>
</g>
<!-- Node27 -->
<g id="node8" class="node">
<title>Node27</title>
<g id="a_node8"><a xlink:href="to__json_8hpp.html" target="_top" xlink:title="/home/bdn_jz/bdn_jz\l/camera&#45;tracker&#45;cpp\l/CameraTrackerLinux/include\l/nlohmann/detail/conversions\l/to_json.hpp">
<polygon fill="#ffffff" stroke="#000000" points="190,-367.5 190,-430.5 334,-430.5 334,-367.5 190,-367.5"/>
<text text-anchor="start" x="198" y="-418.5" font-family="Helvetica,sans-Serif" font-size="10.00" fill="#000000">/home/bdn_jz/bdn_jz</text>
<text text-anchor="start" x="198" y="-407.5" font-family="Helvetica,sans-Serif" font-size="10.00" fill="#000000">/camera&#45;tracker&#45;cpp</text>
<text text-anchor="start" x="198" y="-396.5" font-family="Helvetica,sans-Serif" font-size="10.00" fill="#000000">/CameraTrackerLinux/include</text>
<text text-anchor="start" x="198" y="-385.5" font-family="Helvetica,sans-Serif" font-size="10.00" fill="#000000">/nlohmann/detail/conversions</text>
<text text-anchor="middle" x="262" y="-374.5" font-family="Helvetica,sans-Serif" font-size="10.00" fill="#000000">/to_json.hpp</text>
</a>
</g>
</g>
<!-- Node20&#45;&gt;Node27 -->
<g id="edge9" class="edge">
<title>Node20&#45;&gt;Node27</title>
<path fill="none" stroke="#191970" d="M331.3365,-658.2914C312.5655,-625.2245 287.8406,-576.735 275,-531 265.6009,-497.5228 262.7669,-457.6134 262.0233,-430.507"/>
<polygon fill="#191970" stroke="#191970" points="328.4376,-660.2713 336.4582,-667.1938 334.5052,-656.7806 328.4376,-660.2713"/>
</g>
<!-- Node28 -->
<g id="node9" class="node">
<title>Node28</title>
<g id="a_node9"><a xlink:href="iter__impl_8hpp.html" target="_top" xlink:title="/home/bdn_jz/bdn_jz\l/camera&#45;tracker&#45;cpp\l/CameraTrackerLinux/include\l/nlohmann/detail/iterators\l/iter_impl.hpp">
<polygon fill="#ffffff" stroke="#000000" points="384,-267.5 384,-330.5 528,-330.5 528,-267.5 384,-267.5"/>
<text text-anchor="start" x="392" y="-318.5" font-family="Helvetica,sans-Serif" font-size="10.00" fill="#000000">/home/bdn_jz/bdn_jz</text>
<text text-anchor="start" x="392" y="-307.5" font-family="Helvetica,sans-Serif" font-size="10.00" fill="#000000">/camera&#45;tracker&#45;cpp</text>
<text text-anchor="start" x="392" y="-296.5" font-family="Helvetica,sans-Serif" font-size="10.00" fill="#000000">/CameraTrackerLinux/include</text>
<text text-anchor="start" x="392" y="-285.5" font-family="Helvetica,sans-Serif" font-size="10.00" fill="#000000">/nlohmann/detail/iterators</text>
<text text-anchor="middle" x="456" y="-274.5" font-family="Helvetica,sans-Serif" font-size="10.00" fill="#000000">/iter_impl.hpp</text>
</a>
</g>
</g>
<!-- Node20&#45;&gt;Node28 -->
<g id="edge12" class="edge">
<title>Node20&#45;&gt;Node28</title>
<path fill="none" stroke="#191970" d="M380.8695,-658.3483C399.7561,-625.3133 424.5361,-576.8391 437,-531 455.9271,-461.3908 457.6972,-376.0602 457.0343,-330.7747"/>
<polygon fill="#191970" stroke="#191970" points="377.7014,-656.8346 375.7139,-667.2414 383.7573,-660.3455 377.7014,-656.8346"/>
</g>
<!-- Node29 -->
<g id="node10" class="node">
<title>Node29</title>
<g id="a_node10"><a xlink:href="iteration__proxy_8hpp.html" target="_top" xlink:title="/home/bdn_jz/bdn_jz\l/camera&#45;tracker&#45;cpp\l/CameraTrackerLinux/include\l/nlohmann/detail/iterators\l/iteration_proxy.hpp">
<polygon fill="#ffffff" stroke="#000000" points="284,-467.5 284,-530.5 428,-530.5 428,-467.5 284,-467.5"/>
<text text-anchor="start" x="292" y="-518.5" font-family="Helvetica,sans-Serif" font-size="10.00" fill="#000000">/home/bdn_jz/bdn_jz</text>
<text text-anchor="start" x="292" y="-507.5" font-family="Helvetica,sans-Serif" font-size="10.00" fill="#000000">/camera&#45;tracker&#45;cpp</text>
<text text-anchor="start" x="292" y="-496.5" font-family="Helvetica,sans-Serif" font-size="10.00" fill="#000000">/CameraTrackerLinux/include</text>
<text text-anchor="start" x="292" y="-485.5" font-family="Helvetica,sans-Serif" font-size="10.00" fill="#000000">/nlohmann/detail/iterators</text>
<text text-anchor="middle" x="356" y="-474.5" font-family="Helvetica,sans-Serif" font-size="10.00" fill="#000000">/iteration_proxy.hpp</text>
</a>
</g>
</g>
<!-- Node20&#45;&gt;Node29 -->
<g id="edge14" class="edge">
<title>Node20&#45;&gt;Node29</title>
<path fill="none" stroke="#191970" d="M356,-657.1431C356,-619.3965 356,-564.7143 356,-530.5423"/>
<polygon fill="#191970" stroke="#191970" points="352.5001,-657.3094 356,-667.3094 359.5001,-657.3094 352.5001,-657.3094"/>
</g>
<!-- Node30 -->
<g id="node11" class="node">
<title>Node30</title>
<g id="a_node11"><a xlink:href="json__ref_8hpp.html" target="_top" xlink:title="/home/bdn_jz/bdn_jz\l/camera&#45;tracker&#45;cpp\l/CameraTrackerLinux/include\l/nlohmann/detail/json_ref.hpp">
<polygon fill="#ffffff" stroke="#000000" points="484,-573 484,-625 628,-625 628,-573 484,-573"/>
<text text-anchor="start" x="492" y="-613" font-family="Helvetica,sans-Serif" font-size="10.00" fill="#000000">/home/bdn_jz/bdn_jz</text>
<text text-anchor="start" x="492" y="-602" font-family="Helvetica,sans-Serif" font-size="10.00" fill="#000000">/camera&#45;tracker&#45;cpp</text>
<text text-anchor="start" x="492" y="-591" font-family="Helvetica,sans-Serif" font-size="10.00" fill="#000000">/CameraTrackerLinux/include</text>
<text text-anchor="middle" x="556" y="-580" font-family="Helvetica,sans-Serif" font-size="10.00" fill="#000000">/nlohmann/detail/json_ref.hpp</text>
</a>
</g>
</g>
<!-- Node20&#45;&gt;Node30 -->
<g id="edge17" class="edge">
<title>Node20&#45;&gt;Node30</title>
<path fill="none" stroke="#191970" d="M428.0887,-662.9557C453.0853,-650.4573 480.6113,-636.6944 503.7044,-625.1478"/>
<polygon fill="#191970" stroke="#191970" points="426.3858,-659.8939 419.0067,-667.4966 429.5163,-666.1549 426.3858,-659.8939"/>
</g>
<!-- Node31 -->
<g id="node12" class="node">
<title>Node31</title>
<g id="a_node12"><a xlink:href="is__sax_8hpp.html" target="_top" xlink:title="/home/bdn_jz/bdn_jz\l/camera&#45;tracker&#45;cpp\l/CameraTrackerLinux/include\l/nlohmann/detail/meta/is\l_sax.hpp">
<polygon fill="#ffffff" stroke="#000000" points="646,-567.5 646,-630.5 790,-630.5 790,-567.5 646,-567.5"/>
<text text-anchor="start" x="654" y="-618.5" font-family="Helvetica,sans-Serif" font-size="10.00" fill="#000000">/home/bdn_jz/bdn_jz</text>
<text text-anchor="start" x="654" y="-607.5" font-family="Helvetica,sans-Serif" font-size="10.00" fill="#000000">/camera&#45;tracker&#45;cpp</text>
<text text-anchor="start" x="654" y="-596.5" font-family="Helvetica,sans-Serif" font-size="10.00" fill="#000000">/CameraTrackerLinux/include</text>
<text text-anchor="start" x="654" y="-585.5" font-family="Helvetica,sans-Serif" font-size="10.00" fill="#000000">/nlohmann/detail/meta/is</text>
<text text-anchor="middle" x="718" y="-574.5" font-family="Helvetica,sans-Serif" font-size="10.00" fill="#000000">_sax.hpp</text>
</a>
</g>
</g>
<!-- Node20&#45;&gt;Node31 -->
<g id="edge19" class="edge">
<title>Node20&#45;&gt;Node31</title>
<path fill="none" stroke="#191970" d="M438.0225,-682.3024C494.5097,-670.038 570.9851,-651.9162 637,-631 639.8828,-630.0866 642.8095,-629.1206 645.7557,-628.1158"/>
<polygon fill="#191970" stroke="#191970" points="437.1086,-678.9189 428.0706,-684.4474 438.5836,-685.7617 437.1086,-678.9189"/>
</g>
<!-- Node22 -->
<g id="node3" class="node">
<title>Node22</title>
<g id="a_node3"><a xlink:href="_json_utilization_8h.html" target="_top" xlink:title="This file contains the declaration of the namespace jsonUtilization. ">
<polygon fill="#ffffff" stroke="#000000" points="384,-89.5 384,-141.5 528,-141.5 528,-89.5 384,-89.5"/>
<text text-anchor="start" x="392" y="-129.5" font-family="Helvetica,sans-Serif" font-size="10.00" fill="#000000">/home/bdn_jz/bdn_jz</text>
<text text-anchor="start" x="392" y="-118.5" font-family="Helvetica,sans-Serif" font-size="10.00" fill="#000000">/camera&#45;tracker&#45;cpp</text>
<text text-anchor="start" x="392" y="-107.5" font-family="Helvetica,sans-Serif" font-size="10.00" fill="#000000">/CameraTrackerLinux/include</text>
<text text-anchor="middle" x="456" y="-96.5" font-family="Helvetica,sans-Serif" font-size="10.00" fill="#000000">/JsonUtilization.h</text>
</a>
</g>
</g>
<!-- Node21&#45;&gt;Node22 -->
<g id="edge2" class="edge">
<title>Node21&#45;&gt;Node22</title>
<path fill="none" stroke="#191970" d="M456,-168.1155C456,-159.2061 456,-149.8475 456,-141.5341"/>
<polygon fill="#191970" stroke="#191970" points="452.5001,-168.2784 456,-178.2784 459.5001,-168.2785 452.5001,-168.2784"/>
</g>
<!-- Node23 -->
<g id="node4" class="node">
<title>Node23</title>
<g id="a_node4"><a xlink:href="main_8cpp.html" target="_top" xlink:title="/home/bdn_jz/bdn_jz\l/camera&#45;tracker&#45;cpp\l/CameraTrackerLinux/main.cpp">
<polygon fill="#ffffff" stroke="#000000" points="300.5,-6 300.5,-47 453.5,-47 453.5,-6 300.5,-6"/>
<text text-anchor="start" x="308.5" y="-35" font-family="Helvetica,sans-Serif" font-size="10.00" fill="#000000">/home/bdn_jz/bdn_jz</text>
<text text-anchor="start" x="308.5" y="-24" font-family="Helvetica,sans-Serif" font-size="10.00" fill="#000000">/camera&#45;tracker&#45;cpp</text>
<text text-anchor="middle" x="377" y="-13" font-family="Helvetica,sans-Serif" font-size="10.00" fill="#000000">/CameraTrackerLinux/main.cpp</text>
</a>
</g>
</g>
<!-- Node22&#45;&gt;Node23 -->
<g id="edge3" class="edge">
<title>Node22&#45;&gt;Node23</title>
<path fill="none" stroke="#191970" d="M425.8019,-81.4794C415.5447,-69.9238 404.4001,-57.3685 395.3538,-47.1771"/>
<polygon fill="#191970" stroke="#191970" points="423.4687,-84.1231 432.7247,-89.2784 428.7038,-79.4762 423.4687,-84.1231"/>
</g>
<!-- Node24 -->
<g id="node5" class="node">
<title>Node24</title>
<g id="a_node5"><a xlink:href="_json_utilization_8cpp.html" target="_top" xlink:title="/home/bdn_jz/bdn_jz\l/camera&#45;tracker&#45;cpp\l/CameraTrackerLinux/src\l/JsonUtilization.cpp">
<polygon fill="#ffffff" stroke="#000000" points="471.5,-.5 471.5,-52.5 598.5,-52.5 598.5,-.5 471.5,-.5"/>
<text text-anchor="start" x="479.5" y="-40.5" font-family="Helvetica,sans-Serif" font-size="10.00" fill="#000000">/home/bdn_jz/bdn_jz</text>
<text text-anchor="start" x="479.5" y="-29.5" font-family="Helvetica,sans-Serif" font-size="10.00" fill="#000000">/camera&#45;tracker&#45;cpp</text>
<text text-anchor="start" x="479.5" y="-18.5" font-family="Helvetica,sans-Serif" font-size="10.00" fill="#000000">/CameraTrackerLinux/src</text>
<text text-anchor="middle" x="535" y="-7.5" font-family="Helvetica,sans-Serif" font-size="10.00" fill="#000000">/JsonUtilization.cpp</text>
</a>
</g>
</g>
<!-- Node22&#45;&gt;Node24 -->
<g id="edge4" class="edge">
<title>Node22&#45;&gt;Node24</title>
<path fill="none" stroke="#191970" d="M485.9881,-81.7159C494.5705,-72.0472 503.7899,-61.6608 511.891,-52.5341"/>
<polygon fill="#191970" stroke="#191970" points="483.2962,-79.4762 479.2753,-89.2784 488.5313,-84.1231 483.2962,-79.4762"/>
</g>
<!-- Node25&#45;&gt;Node21 -->
<g id="edge6" class="edge">
<title>Node25&#45;&gt;Node21</title>
<path fill="none" stroke="#191970" d="M100.7172,-357.2885C103.5267,-327.9146 112.2062,-289.8898 137,-267 172.1941,-234.5085 300.9737,-217.6261 383.754,-209.9385"/>
<polygon fill="#191970" stroke="#191970" points="97.226,-357.0403 99.9514,-367.2786 104.2055,-357.5753 97.226,-357.0403"/>
</g>
<!-- Node26 -->
<g id="node7" class="node">
<title>Node26</title>
<g id="a_node7"><a xlink:href="adl__serializer_8hpp.html" target="_top" xlink:title="/home/bdn_jz/bdn_jz\l/camera&#45;tracker&#45;cpp\l/CameraTrackerLinux/include\l/nlohmann/adl_serializer.hpp">
<polygon fill="#ffffff" stroke="#000000" points="146,-273 146,-325 290,-325 290,-273 146,-273"/>
<text text-anchor="start" x="154" y="-313" font-family="Helvetica,sans-Serif" font-size="10.00" fill="#000000">/home/bdn_jz/bdn_jz</text>
<text text-anchor="start" x="154" y="-302" font-family="Helvetica,sans-Serif" font-size="10.00" fill="#000000">/camera&#45;tracker&#45;cpp</text>
<text text-anchor="start" x="154" y="-291" font-family="Helvetica,sans-Serif" font-size="10.00" fill="#000000">/CameraTrackerLinux/include</text>
<text text-anchor="middle" x="218" y="-280" font-family="Helvetica,sans-Serif" font-size="10.00" fill="#000000">/nlohmann/adl_serializer.hpp</text>
</a>
</g>
</g>
<!-- Node25&#45;&gt;Node26 -->
<g id="edge7" class="edge">
<title>Node25&#45;&gt;Node26</title>
<path fill="none" stroke="#191970" d="M145.0289,-360.8399C159.1252,-348.8939 174.3503,-335.9913 187.228,-325.078"/>
<polygon fill="#191970" stroke="#191970" points="142.7021,-358.224 137.3359,-367.3594 147.2278,-363.5643 142.7021,-358.224"/>
</g>
<!-- Node26&#45;&gt;Node21 -->
<g id="edge8" class="edge">
<title>Node26&#45;&gt;Node21</title>
<path fill="none" stroke="#191970" d="M293.1629,-269.1559C324.2866,-256.798 360.0611,-242.5934 390.137,-230.6515"/>
<polygon fill="#191970" stroke="#191970" points="291.6671,-265.984 283.6646,-272.9273 294.2504,-272.4899 291.6671,-265.984"/>
</g>
<!-- Node27&#45;&gt;Node21 -->
<g id="edge10" class="edge">
<title>Node27&#45;&gt;Node21</title>
<path fill="none" stroke="#191970" d="M285.1591,-358.4332C305.9703,-322.3831 334.3946,-274.2825 342,-267 357.1612,-252.4825 376.3518,-240.2645 394.6433,-230.5912"/>
<polygon fill="#191970" stroke="#191970" points="282.0066,-356.8941 280.0495,-367.3067 288.0728,-360.3873 282.0066,-356.8941"/>
</g>
<!-- Node27&#45;&gt;Node26 -->
<g id="edge11" class="edge">
<title>Node27&#45;&gt;Node26</title>
<path fill="none" stroke="#191970" d="M244.0351,-358.1707C239.1171,-346.9933 233.9205,-335.1829 229.4743,-325.078"/>
<polygon fill="#191970" stroke="#191970" points="240.8471,-359.6158 248.0781,-367.3594 247.2543,-356.7966 240.8471,-359.6158"/>
</g>
<!-- Node28&#45;&gt;Node21 -->
<g id="edge13" class="edge">
<title>Node28&#45;&gt;Node21</title>
<path fill="none" stroke="#191970" d="M456,-257.2457C456,-248.2008 456,-238.8836 456,-230.6442"/>
<polygon fill="#191970" stroke="#191970" points="452.5001,-257.2699 456,-267.27 459.5001,-257.27 452.5001,-257.2699"/>
</g>
<!-- Node29&#45;&gt;Node21 -->
<g id="edge15" class="edge">
<title>Node29&#45;&gt;Node21</title>
<path fill="none" stroke="#191970" d="M349.7606,-457.2985C344.5502,-408.5357 342.4687,-326.8805 375,-267 382.8856,-252.485 395.7316,-240.2677 408.8934,-230.5943"/>
<polygon fill="#191970" stroke="#191970" points="346.3129,-457.9513 350.9456,-467.4795 353.2659,-457.1419 346.3129,-457.9513"/>
</g>
<!-- Node29&#45;&gt;Node27 -->
<g id="edge16" class="edge">
<title>Node29&#45;&gt;Node27</title>
<path fill="none" stroke="#191970" d="M319.1469,-459.7946C310.1057,-450.1763 300.5384,-439.9983 291.8713,-430.778"/>
<polygon fill="#191970" stroke="#191970" points="316.8585,-462.4703 326.2578,-467.3594 321.9589,-457.6759 316.8585,-462.4703"/>
</g>
<!-- Node30&#45;&gt;Node21 -->
<g id="edge18" class="edge">
<title>Node30&#45;&gt;Node21</title>
<path fill="none" stroke="#191970" d="M563.1607,-562.9724C573.9363,-499.1251 588.0302,-363.7436 537,-267 529.376,-252.5464 516.7706,-240.4094 503.7488,-230.7907"/>
<polygon fill="#191970" stroke="#191970" points="559.6908,-562.496 561.4037,-572.9514 566.5847,-563.7098 559.6908,-562.496"/>
</g>
<!-- Node32 -->
<g id="node13" class="node">
<title>Node32</title>
<g id="a_node13"><a xlink:href="binary__reader_8hpp.html" target="_top" xlink:title="/home/bdn_jz/bdn_jz\l/camera&#45;tracker&#45;cpp\l/CameraTrackerLinux/include\l/nlohmann/detail/input/binary\l_reader.hpp">
<polygon fill="#ffffff" stroke="#000000" points="633,-467.5 633,-530.5 777,-530.5 777,-467.5 633,-467.5"/>
<text text-anchor="start" x="641" y="-518.5" font-family="Helvetica,sans-Serif" font-size="10.00" fill="#000000">/home/bdn_jz/bdn_jz</text>
<text text-anchor="start" x="641" y="-507.5" font-family="Helvetica,sans-Serif" font-size="10.00" fill="#000000">/camera&#45;tracker&#45;cpp</text>
<text text-anchor="start" x="641" y="-496.5" font-family="Helvetica,sans-Serif" font-size="10.00" fill="#000000">/CameraTrackerLinux/include</text>
<text text-anchor="start" x="641" y="-485.5" font-family="Helvetica,sans-Serif" font-size="10.00" fill="#000000">/nlohmann/detail/input/binary</text>
<text text-anchor="middle" x="705" y="-474.5" font-family="Helvetica,sans-Serif" font-size="10.00" fill="#000000">_reader.hpp</text>
</a>
</g>
</g>
<!-- Node31&#45;&gt;Node32 -->
<g id="edge20" class="edge">
<title>Node31&#45;&gt;Node32</title>
<path fill="none" stroke="#191970" d="M712.5674,-557.2111C711.4181,-548.37 710.223,-539.1767 709.1311,-530.778"/>
<polygon fill="#191970" stroke="#191970" points="709.1267,-557.8941 713.8867,-567.3594 716.0683,-556.9916 709.1267,-557.8941"/>
</g>
<!-- Node35 -->
<g id="node16" class="node">
<title>Node35</title>
<g id="a_node16"><a xlink:href="parser_8hpp.html" target="_top" xlink:title="/home/bdn_jz/bdn_jz\l/camera&#45;tracker&#45;cpp\l/CameraTrackerLinux/include\l/nlohmann/detail/input/parser.hpp">
<polygon fill="#ffffff" stroke="#000000" points="795.5,-473 795.5,-525 956.5,-525 956.5,-473 795.5,-473"/>
<text text-anchor="start" x="803.5" y="-513" font-family="Helvetica,sans-Serif" font-size="10.00" fill="#000000">/home/bdn_jz/bdn_jz</text>
<text text-anchor="start" x="803.5" y="-502" font-family="Helvetica,sans-Serif" font-size="10.00" fill="#000000">/camera&#45;tracker&#45;cpp</text>
<text text-anchor="start" x="803.5" y="-491" font-family="Helvetica,sans-Serif" font-size="10.00" fill="#000000">/CameraTrackerLinux/include</text>
<text text-anchor="middle" x="876" y="-480" font-family="Helvetica,sans-Serif" font-size="10.00" fill="#000000">/nlohmann/detail/input/parser.hpp</text>
</a>
</g>
</g>
<!-- Node31&#45;&gt;Node35 -->
<g id="edge26" class="edge">
<title>Node31&#45;&gt;Node35</title>
<path fill="none" stroke="#191970" d="M776.4629,-561.9982C795.843,-549.7323 816.9949,-536.345 834.7968,-525.078"/>
<polygon fill="#191970" stroke="#191970" points="774.5702,-559.0539 767.9922,-567.3594 778.3138,-564.9688 774.5702,-559.0539"/>
</g>
<!-- Node32&#45;&gt;Node21 -->
<g id="edge21" class="edge">
<title>Node32&#45;&gt;Node21</title>
<path fill="none" stroke="#191970" d="M761.4401,-460.7136C771.1477,-451.9377 780.2629,-441.9329 787,-431 825.613,-368.3396 857.3044,-323.3878 810,-267 774.753,-224.9849 621.0565,-211.2013 528.1596,-206.6884"/>
<polygon fill="#191970" stroke="#191970" points="758.8659,-458.3109 753.562,-467.4825 763.4278,-463.6203 758.8659,-458.3109"/>
</g>
<!-- Node33 -->
<g id="node14" class="node">
<title>Node33</title>
<g id="a_node14"><a xlink:href="binary__writer_8hpp.html" target="_top" xlink:title="/home/bdn_jz/bdn_jz\l/camera&#45;tracker&#45;cpp\l/CameraTrackerLinux/include\l/nlohmann/detail/output/binary\l_writer.hpp">
<polygon fill="#ffffff" stroke="#000000" points="631.5,-367.5 631.5,-430.5 778.5,-430.5 778.5,-367.5 631.5,-367.5"/>
<text text-anchor="start" x="639.5" y="-418.5" font-family="Helvetica,sans-Serif" font-size="10.00" fill="#000000">/home/bdn_jz/bdn_jz</text>
<text text-anchor="start" x="639.5" y="-407.5" font-family="Helvetica,sans-Serif" font-size="10.00" fill="#000000">/camera&#45;tracker&#45;cpp</text>
<text text-anchor="start" x="639.5" y="-396.5" font-family="Helvetica,sans-Serif" font-size="10.00" fill="#000000">/CameraTrackerLinux/include</text>
<text text-anchor="start" x="639.5" y="-385.5" font-family="Helvetica,sans-Serif" font-size="10.00" fill="#000000">/nlohmann/detail/output/binary</text>
<text text-anchor="middle" x="705" y="-374.5" font-family="Helvetica,sans-Serif" font-size="10.00" fill="#000000">_writer.hpp</text>
</a>
</g>
</g>
<!-- Node32&#45;&gt;Node33 -->
<g id="edge22" class="edge">
<title>Node32&#45;&gt;Node33</title>
<path fill="none" stroke="#191970" d="M705,-457.2111C705,-448.37 705,-439.1767 705,-430.778"/>
<polygon fill="#191970" stroke="#191970" points="701.5001,-457.3593 705,-467.3594 708.5001,-457.3594 701.5001,-457.3593"/>
</g>
<!-- Node33&#45;&gt;Node21 -->
<g id="edge23" class="edge">
<title>Node33&#45;&gt;Node21</title>
<path fill="none" stroke="#191970" d="M647.3798,-361.145C635.3718,-351.9931 623.2597,-341.7312 613,-331 589.3188,-306.2307 595.2981,-290.1155 570,-267 554.2538,-252.6123 534.5985,-240.3302 516.0658,-230.5598"/>
<polygon fill="#191970" stroke="#191970" points="645.539,-364.1377 655.6523,-367.2956 649.7156,-358.5203 645.539,-364.1377"/>
</g>
<!-- Node34 -->
<g id="node15" class="node">
<title>Node34</title>
<g id="a_node15"><a xlink:href="serializer_8hpp.html" target="_top" xlink:title="/home/bdn_jz/bdn_jz\l/camera&#45;tracker&#45;cpp\l/CameraTrackerLinux/include\l/nlohmann/detail/output/serializer.hpp">
<polygon fill="#ffffff" stroke="#000000" points="622.5,-273 622.5,-325 801.5,-325 801.5,-273 622.5,-273"/>
<text text-anchor="start" x="630.5" y="-313" font-family="Helvetica,sans-Serif" font-size="10.00" fill="#000000">/home/bdn_jz/bdn_jz</text>
<text text-anchor="start" x="630.5" y="-302" font-family="Helvetica,sans-Serif" font-size="10.00" fill="#000000">/camera&#45;tracker&#45;cpp</text>
<text text-anchor="start" x="630.5" y="-291" font-family="Helvetica,sans-Serif" font-size="10.00" fill="#000000">/CameraTrackerLinux/include</text>
<text text-anchor="middle" x="712" y="-280" font-family="Helvetica,sans-Serif" font-size="10.00" fill="#000000">/nlohmann/detail/output/serializer.hpp</text>
</a>
</g>
</g>
<!-- Node33&#45;&gt;Node34 -->
<g id="edge24" class="edge">
<title>Node33&#45;&gt;Node34</title>
<path fill="none" stroke="#191970" d="M707.9286,-357.1631C708.69,-346.2863 709.4884,-334.8798 710.1745,-325.078"/>
<polygon fill="#191970" stroke="#191970" points="704.4218,-357.1394 707.2148,-367.3594 711.4047,-357.6282 704.4218,-357.1394"/>
</g>
<!-- Node34&#45;&gt;Node21 -->
<g id="edge25" class="edge">
<title>Node34&#45;&gt;Node21</title>
<path fill="none" stroke="#191970" d="M631.5851,-269.3156C598.0068,-256.9205 559.3342,-242.6449 526.8443,-230.6515"/>
<polygon fill="#191970" stroke="#191970" points="630.7759,-272.7477 641.3692,-272.9273 633.2,-266.1808 630.7759,-272.7477"/>
</g>
<!-- Node35&#45;&gt;Node21 -->
<g id="edge27" class="edge">
<title>Node35&#45;&gt;Node21</title>
<path fill="none" stroke="#191970" d="M881.4012,-462.7807C886.7946,-411.5896 887.9776,-318.5778 836,-267 793.7028,-225.0281 626.0767,-211.2042 528.1585,-206.6788"/>
<polygon fill="#191970" stroke="#191970" points="877.9219,-462.4006 880.2425,-472.7382 884.8749,-463.2097 877.9219,-462.4006"/>
</g>
</g>
</svg>
