<?xml version="1.0" encoding="UTF-8" standalone="no"?>
<!DOCTYPE svg PUBLIC "-//W3C//DTD SVG 1.1//EN"
 "http://www.w3.org/Graphics/SVG/1.1/DTD/svg11.dtd">
<!-- Generated by graphviz version 2.40.1 (20161225.0304)
 -->
<!-- Title: /home/bdn_jz/bdn_jz/camera&#45;tracker&#45;cpp/CameraTrackerLinux/include/nlohmann/detail/value_t.hpp Pages: 1 -->
<svg width="890pt" height="795pt"
 viewBox="0.00 0.00 889.54 795.00" xmlns="http://www.w3.org/2000/svg" xmlns:xlink="http://www.w3.org/1999/xlink">
<g id="graph0" class="graph" transform="scale(1 1) rotate(0) translate(4 791)">
<title>/home/bdn_jz/bdn_jz/camera&#45;tracker&#45;cpp/CameraTrackerLinux/include/nlohmann/detail/value_t.hpp</title>
<polygon fill="#ffffff" stroke="transparent" points="-4,4 -4,-791 885.5424,-791 885.5424,4 -4,4"/>
<!-- Node6 -->
<g id="node1" class="node">
<title>Node6</title>
<polygon fill="#bfbfbf" stroke="#000000" points="323.5424,-734.5 323.5424,-786.5 467.5424,-786.5 467.5424,-734.5 323.5424,-734.5"/>
<text text-anchor="start" x="331.5424" y="-774.5" font-family="Helvetica,sans-Serif" font-size="10.00" fill="#000000">/home/bdn_jz/bdn_jz</text>
<text text-anchor="start" x="331.5424" y="-763.5" font-family="Helvetica,sans-Serif" font-size="10.00" fill="#000000">/camera&#45;tracker&#45;cpp</text>
<text text-anchor="start" x="331.5424" y="-752.5" font-family="Helvetica,sans-Serif" font-size="10.00" fill="#000000">/CameraTrackerLinux/include</text>
<text text-anchor="middle" x="395.5424" y="-741.5" font-family="Helvetica,sans-Serif" font-size="10.00" fill="#000000">/nlohmann/detail/value_t.hpp</text>
</g>
<!-- Node7 -->
<g id="node2" class="node">
<title>Node7</title>
<g id="a_node2"><a xlink:href="json_8hpp.html" target="_top" xlink:title="/home/bdn_jz/bdn_jz\l/camera&#45;tracker&#45;cpp\l/CameraTrackerLinux/include\l/nlohmann/json.hpp">
<polygon fill="#ffffff" stroke="#000000" points="345.5424,-356.5 345.5424,-408.5 489.5424,-408.5 489.5424,-356.5 345.5424,-356.5"/>
<text text-anchor="start" x="353.5424" y="-396.5" font-family="Helvetica,sans-Serif" font-size="10.00" fill="#000000">/home/bdn_jz/bdn_jz</text>
<text text-anchor="start" x="353.5424" y="-385.5" font-family="Helvetica,sans-Serif" font-size="10.00" fill="#000000">/camera&#45;tracker&#45;cpp</text>
<text text-anchor="start" x="353.5424" y="-374.5" font-family="Helvetica,sans-Serif" font-size="10.00" fill="#000000">/CameraTrackerLinux/include</text>
<text text-anchor="middle" x="417.5424" y="-363.5" font-family="Helvetica,sans-Serif" font-size="10.00" fill="#000000">/nlohmann/json.hpp</text>
</a>
</g>
</g>
<!-- Node6&#45;&gt;Node7 -->
<g id="edge1" class="edge">
<title>Node6&#45;&gt;Node7</title>
<path fill="none" stroke="#191970" d="M313.1582,-757.0158C218.2734,-751.2332 70.4328,-736.2074 31.5424,-698 -20.8002,-646.5767 6.8239,-607.1532 12.5424,-534 15.663,-494.0798 -1.7364,-473.349 26.5424,-445 70.1149,-401.3192 244.8158,-388.1663 345.3359,-384.206"/>
<polygon fill="#191970" stroke="#191970" points="313.1236,-760.5197 323.3115,-757.6118 313.5338,-753.5318 313.1236,-760.5197"/>
</g>
<!-- Node15 -->
<g id="node10" class="node">
<title>Node15</title>
<g id="a_node10"><a xlink:href="from__json_8hpp.html" target="_top" xlink:title="/home/bdn_jz/bdn_jz\l/camera&#45;tracker&#45;cpp\l/CameraTrackerLinux/include\l/nlohmann/detail/conversions\l/from_json.hpp">
<polygon fill="#ffffff" stroke="#000000" points="242.5424,-534.5 242.5424,-597.5 386.5424,-597.5 386.5424,-534.5 242.5424,-534.5"/>
<text text-anchor="start" x="250.5424" y="-585.5" font-family="Helvetica,sans-Serif" font-size="10.00" fill="#000000">/home/bdn_jz/bdn_jz</text>
<text text-anchor="start" x="250.5424" y="-574.5" font-family="Helvetica,sans-Serif" font-size="10.00" fill="#000000">/camera&#45;tracker&#45;cpp</text>
<text text-anchor="start" x="250.5424" y="-563.5" font-family="Helvetica,sans-Serif" font-size="10.00" fill="#000000">/CameraTrackerLinux/include</text>
<text text-anchor="start" x="250.5424" y="-552.5" font-family="Helvetica,sans-Serif" font-size="10.00" fill="#000000">/nlohmann/detail/conversions</text>
<text text-anchor="middle" x="314.5424" y="-541.5" font-family="Helvetica,sans-Serif" font-size="10.00" fill="#000000">/from_json.hpp</text>
</a>
</g>
</g>
<!-- Node6&#45;&gt;Node15 -->
<g id="edge10" class="edge">
<title>Node6&#45;&gt;Node15</title>
<path fill="none" stroke="#191970" d="M380.7632,-725.0117C365.6046,-688.6123 342.2451,-632.5208 327.7042,-597.6047"/>
<polygon fill="#191970" stroke="#191970" points="377.5428,-726.383 384.6184,-734.2689 384.0048,-723.6918 377.5428,-726.383"/>
</g>
<!-- Node17 -->
<g id="node12" class="node">
<title>Node17</title>
<g id="a_node12"><a xlink:href="to__json_8hpp.html" target="_top" xlink:title="/home/bdn_jz/bdn_jz\l/camera&#45;tracker&#45;cpp\l/CameraTrackerLinux/include\l/nlohmann/detail/conversions\l/to_json.hpp">
<polygon fill="#ffffff" stroke="#000000" points="404.5424,-534.5 404.5424,-597.5 548.5424,-597.5 548.5424,-534.5 404.5424,-534.5"/>
<text text-anchor="start" x="412.5424" y="-585.5" font-family="Helvetica,sans-Serif" font-size="10.00" fill="#000000">/home/bdn_jz/bdn_jz</text>
<text text-anchor="start" x="412.5424" y="-574.5" font-family="Helvetica,sans-Serif" font-size="10.00" fill="#000000">/camera&#45;tracker&#45;cpp</text>
<text text-anchor="start" x="412.5424" y="-563.5" font-family="Helvetica,sans-Serif" font-size="10.00" fill="#000000">/CameraTrackerLinux/include</text>
<text text-anchor="start" x="412.5424" y="-552.5" font-family="Helvetica,sans-Serif" font-size="10.00" fill="#000000">/nlohmann/detail/conversions</text>
<text text-anchor="middle" x="476.5424" y="-541.5" font-family="Helvetica,sans-Serif" font-size="10.00" fill="#000000">/to_json.hpp</text>
</a>
</g>
</g>
<!-- Node6&#45;&gt;Node17 -->
<g id="edge14" class="edge">
<title>Node6&#45;&gt;Node17</title>
<path fill="none" stroke="#191970" d="M395.4639,-723.7609C396.7127,-697.5895 401.1222,-662.1997 414.5424,-634 420.8583,-620.7283 430.642,-608.2134 440.5853,-597.6254"/>
<polygon fill="#191970" stroke="#191970" points="391.9573,-723.8964 395.1124,-734.0105 398.9532,-724.1363 391.9573,-723.8964"/>
</g>
<!-- Node18 -->
<g id="node13" class="node">
<title>Node18</title>
<g id="a_node13"><a xlink:href="binary__reader_8hpp.html" target="_top" xlink:title="/home/bdn_jz/bdn_jz\l/camera&#45;tracker&#45;cpp\l/CameraTrackerLinux/include\l/nlohmann/detail/input/binary\l_reader.hpp">
<polygon fill="#ffffff" stroke="#000000" points="40.5424,-634.5 40.5424,-697.5 184.5424,-697.5 184.5424,-634.5 40.5424,-634.5"/>
<text text-anchor="start" x="48.5424" y="-685.5" font-family="Helvetica,sans-Serif" font-size="10.00" fill="#000000">/home/bdn_jz/bdn_jz</text>
<text text-anchor="start" x="48.5424" y="-674.5" font-family="Helvetica,sans-Serif" font-size="10.00" fill="#000000">/camera&#45;tracker&#45;cpp</text>
<text text-anchor="start" x="48.5424" y="-663.5" font-family="Helvetica,sans-Serif" font-size="10.00" fill="#000000">/CameraTrackerLinux/include</text>
<text text-anchor="start" x="48.5424" y="-652.5" font-family="Helvetica,sans-Serif" font-size="10.00" fill="#000000">/nlohmann/detail/input/binary</text>
<text text-anchor="middle" x="112.5424" y="-641.5" font-family="Helvetica,sans-Serif" font-size="10.00" fill="#000000">_reader.hpp</text>
</a>
</g>
</g>
<!-- Node6&#45;&gt;Node18 -->
<g id="edge17" class="edge">
<title>Node6&#45;&gt;Node18</title>
<path fill="none" stroke="#191970" d="M313.4191,-734.9529C278.5171,-723.8953 237.4395,-710.6163 200.5424,-698 195.4663,-696.2643 190.2366,-694.4444 184.9772,-692.5907"/>
<polygon fill="#191970" stroke="#191970" points="312.5009,-738.3333 323.0908,-738.0104 314.6109,-731.6589 312.5009,-738.3333"/>
</g>
<!-- Node20 -->
<g id="node15" class="node">
<title>Node20</title>
<g id="a_node15"><a xlink:href="serializer_8hpp.html" target="_top" xlink:title="/home/bdn_jz/bdn_jz\l/camera&#45;tracker&#45;cpp\l/CameraTrackerLinux/include\l/nlohmann/detail/output/serializer.hpp">
<polygon fill="#ffffff" stroke="#000000" points="110.0424,-445.5 110.0424,-497.5 289.0424,-497.5 289.0424,-445.5 110.0424,-445.5"/>
<text text-anchor="start" x="118.0424" y="-485.5" font-family="Helvetica,sans-Serif" font-size="10.00" fill="#000000">/home/bdn_jz/bdn_jz</text>
<text text-anchor="start" x="118.0424" y="-474.5" font-family="Helvetica,sans-Serif" font-size="10.00" fill="#000000">/camera&#45;tracker&#45;cpp</text>
<text text-anchor="start" x="118.0424" y="-463.5" font-family="Helvetica,sans-Serif" font-size="10.00" fill="#000000">/CameraTrackerLinux/include</text>
<text text-anchor="middle" x="199.5424" y="-452.5" font-family="Helvetica,sans-Serif" font-size="10.00" fill="#000000">/nlohmann/detail/output/serializer.hpp</text>
</a>
</g>
</g>
<!-- Node6&#45;&gt;Node20 -->
<g id="edge32" class="edge">
<title>Node6&#45;&gt;Node20</title>
<path fill="none" stroke="#191970" d="M352.0394,-727.8052C315.2388,-697.906 263.7984,-650.4517 233.5424,-598 215.2479,-566.2848 206.5167,-524.4277 202.5558,-497.7294"/>
<polygon fill="#191970" stroke="#191970" points="350.1301,-730.7603 360.1224,-734.2823 354.5075,-725.2977 350.1301,-730.7603"/>
</g>
<!-- Node21 -->
<g id="node16" class="node">
<title>Node21</title>
<g id="a_node16"><a xlink:href="parser_8hpp.html" target="_top" xlink:title="/home/bdn_jz/bdn_jz\l/camera&#45;tracker&#45;cpp\l/CameraTrackerLinux/include\l/nlohmann/detail/input/parser.hpp">
<polygon fill="#ffffff" stroke="#000000" points="584.0424,-445.5 584.0424,-497.5 745.0424,-497.5 745.0424,-445.5 584.0424,-445.5"/>
<text text-anchor="start" x="592.0424" y="-485.5" font-family="Helvetica,sans-Serif" font-size="10.00" fill="#000000">/home/bdn_jz/bdn_jz</text>
<text text-anchor="start" x="592.0424" y="-474.5" font-family="Helvetica,sans-Serif" font-size="10.00" fill="#000000">/camera&#45;tracker&#45;cpp</text>
<text text-anchor="start" x="592.0424" y="-463.5" font-family="Helvetica,sans-Serif" font-size="10.00" fill="#000000">/CameraTrackerLinux/include</text>
<text text-anchor="middle" x="664.5424" y="-452.5" font-family="Helvetica,sans-Serif" font-size="10.00" fill="#000000">/nlohmann/detail/input/parser.hpp</text>
</a>
</g>
</g>
<!-- Node6&#45;&gt;Node21 -->
<g id="edge23" class="edge">
<title>Node6&#45;&gt;Node21</title>
<path fill="none" stroke="#191970" d="M477.9532,-748.3751C512.2833,-739.5383 550.1997,-724.2896 576.5424,-698 631.1618,-643.4905 603.6724,-605.1502 633.5424,-534 638.6528,-521.827 645.0313,-508.6895 650.6717,-497.6156"/>
<polygon fill="#191970" stroke="#191970" points="476.801,-745.0529 467.9061,-750.809 478.4491,-751.8561 476.801,-745.0529"/>
</g>
<!-- Node22 -->
<g id="node17" class="node">
<title>Node22</title>
<g id="a_node17"><a xlink:href="iter__impl_8hpp.html" target="_top" xlink:title="/home/bdn_jz/bdn_jz\l/camera&#45;tracker&#45;cpp\l/CameraTrackerLinux/include\l/nlohmann/detail/iterators\l/iter_impl.hpp">
<polygon fill="#ffffff" stroke="#000000" points="642.5424,-534.5 642.5424,-597.5 786.5424,-597.5 786.5424,-534.5 642.5424,-534.5"/>
<text text-anchor="start" x="650.5424" y="-585.5" font-family="Helvetica,sans-Serif" font-size="10.00" fill="#000000">/home/bdn_jz/bdn_jz</text>
<text text-anchor="start" x="650.5424" y="-574.5" font-family="Helvetica,sans-Serif" font-size="10.00" fill="#000000">/camera&#45;tracker&#45;cpp</text>
<text text-anchor="start" x="650.5424" y="-563.5" font-family="Helvetica,sans-Serif" font-size="10.00" fill="#000000">/CameraTrackerLinux/include</text>
<text text-anchor="start" x="650.5424" y="-552.5" font-family="Helvetica,sans-Serif" font-size="10.00" fill="#000000">/nlohmann/detail/iterators</text>
<text text-anchor="middle" x="714.5424" y="-541.5" font-family="Helvetica,sans-Serif" font-size="10.00" fill="#000000">/iter_impl.hpp</text>
</a>
</g>
</g>
<!-- Node6&#45;&gt;Node22 -->
<g id="edge25" class="edge">
<title>Node6&#45;&gt;Node22</title>
<path fill="none" stroke="#191970" d="M477.8696,-744.9181C534.7529,-732.9501 604.3593,-715.5477 628.5424,-698 663.6302,-672.5396 688.2362,-628.0061 701.8895,-597.7772"/>
<polygon fill="#191970" stroke="#191970" points="476.8535,-741.5543 467.7737,-747.0139 478.2763,-748.4082 476.8535,-741.5543"/>
</g>
<!-- Node23 -->
<g id="node18" class="node">
<title>Node23</title>
<g id="a_node18"><a xlink:href="iteration__proxy_8hpp.html" target="_top" xlink:title="/home/bdn_jz/bdn_jz\l/camera&#45;tracker&#45;cpp\l/CameraTrackerLinux/include\l/nlohmann/detail/iterators\l/iteration_proxy.hpp">
<polygon fill="#ffffff" stroke="#000000" points="423.5424,-634.5 423.5424,-697.5 567.5424,-697.5 567.5424,-634.5 423.5424,-634.5"/>
<text text-anchor="start" x="431.5424" y="-685.5" font-family="Helvetica,sans-Serif" font-size="10.00" fill="#000000">/home/bdn_jz/bdn_jz</text>
<text text-anchor="start" x="431.5424" y="-674.5" font-family="Helvetica,sans-Serif" font-size="10.00" fill="#000000">/camera&#45;tracker&#45;cpp</text>
<text text-anchor="start" x="431.5424" y="-663.5" font-family="Helvetica,sans-Serif" font-size="10.00" fill="#000000">/CameraTrackerLinux/include</text>
<text text-anchor="start" x="431.5424" y="-652.5" font-family="Helvetica,sans-Serif" font-size="10.00" fill="#000000">/nlohmann/detail/iterators</text>
<text text-anchor="middle" x="495.5424" y="-641.5" font-family="Helvetica,sans-Serif" font-size="10.00" fill="#000000">/iteration_proxy.hpp</text>
</a>
</g>
</g>
<!-- Node6&#45;&gt;Node23 -->
<g id="edge27" class="edge">
<title>Node6&#45;&gt;Node23</title>
<path fill="none" stroke="#191970" d="M430.6985,-727.2774C440.8631,-717.6719 451.9277,-707.2158 461.9917,-697.7054"/>
<polygon fill="#191970" stroke="#191970" points="427.9967,-725.0151 423.1325,-734.4273 432.8046,-730.1028 427.9967,-725.0151"/>
</g>
<!-- Node24 -->
<g id="node19" class="node">
<title>Node24</title>
<g id="a_node19"><a xlink:href="json__pointer_8hpp.html" target="_top" xlink:title="/home/bdn_jz/bdn_jz\l/camera&#45;tracker&#45;cpp\l/CameraTrackerLinux/include\l/nlohmann/detail/json_pointer.hpp">
<polygon fill="#ffffff" stroke="#000000" points="719.5424,-640 719.5424,-692 881.5424,-692 881.5424,-640 719.5424,-640"/>
<text text-anchor="start" x="727.5424" y="-680" font-family="Helvetica,sans-Serif" font-size="10.00" fill="#000000">/home/bdn_jz/bdn_jz</text>
<text text-anchor="start" x="727.5424" y="-669" font-family="Helvetica,sans-Serif" font-size="10.00" fill="#000000">/camera&#45;tracker&#45;cpp</text>
<text text-anchor="start" x="727.5424" y="-658" font-family="Helvetica,sans-Serif" font-size="10.00" fill="#000000">/CameraTrackerLinux/include</text>
<text text-anchor="middle" x="800.5424" y="-647" font-family="Helvetica,sans-Serif" font-size="10.00" fill="#000000">/nlohmann/detail/json_pointer.hpp</text>
</a>
</g>
</g>
<!-- Node6&#45;&gt;Node24 -->
<g id="edge30" class="edge">
<title>Node6&#45;&gt;Node24</title>
<path fill="none" stroke="#191970" d="M477.7805,-745.0451C537.6292,-733.3489 620.4702,-716.2291 692.5424,-698 701.2634,-695.7942 710.3373,-693.3479 719.3558,-690.8188"/>
<polygon fill="#191970" stroke="#191970" points="476.7784,-741.6744 467.6309,-747.0198 478.1153,-748.5456 476.7784,-741.6744"/>
</g>
<!-- Node8 -->
<g id="node3" class="node">
<title>Node8</title>
<g id="a_node3"><a xlink:href="_json_utilization_8h.html" target="_top" xlink:title="This file contains the declaration of the namespace jsonUtilization. ">
<polygon fill="#ffffff" stroke="#000000" points="345.5424,-267.5 345.5424,-319.5 489.5424,-319.5 489.5424,-267.5 345.5424,-267.5"/>
<text text-anchor="start" x="353.5424" y="-307.5" font-family="Helvetica,sans-Serif" font-size="10.00" fill="#000000">/home/bdn_jz/bdn_jz</text>
<text text-anchor="start" x="353.5424" y="-296.5" font-family="Helvetica,sans-Serif" font-size="10.00" fill="#000000">/camera&#45;tracker&#45;cpp</text>
<text text-anchor="start" x="353.5424" y="-285.5" font-family="Helvetica,sans-Serif" font-size="10.00" fill="#000000">/CameraTrackerLinux/include</text>
<text text-anchor="middle" x="417.5424" y="-274.5" font-family="Helvetica,sans-Serif" font-size="10.00" fill="#000000">/JsonUtilization.h</text>
</a>
</g>
</g>
<!-- Node7&#45;&gt;Node8 -->
<g id="edge2" class="edge">
<title>Node7&#45;&gt;Node8</title>
<path fill="none" stroke="#191970" d="M417.5424,-346.1155C417.5424,-337.2061 417.5424,-327.8475 417.5424,-319.5341"/>
<polygon fill="#191970" stroke="#191970" points="414.0425,-346.2784 417.5424,-356.2784 421.0425,-346.2785 414.0425,-346.2784"/>
</g>
<!-- Node9 -->
<g id="node4" class="node">
<title>Node9</title>
<g id="a_node4"><a xlink:href="_pose_estimation_8h.html" target="_top" xlink:title="This file contains the declaration of the PoseEstimation class. ">
<polygon fill="#ffffff" stroke="#000000" points="268.5424,-178.5 268.5424,-230.5 412.5424,-230.5 412.5424,-178.5 268.5424,-178.5"/>
<text text-anchor="start" x="276.5424" y="-218.5" font-family="Helvetica,sans-Serif" font-size="10.00" fill="#000000">/home/bdn_jz/bdn_jz</text>
<text text-anchor="start" x="276.5424" y="-207.5" font-family="Helvetica,sans-Serif" font-size="10.00" fill="#000000">/camera&#45;tracker&#45;cpp</text>
<text text-anchor="start" x="276.5424" y="-196.5" font-family="Helvetica,sans-Serif" font-size="10.00" fill="#000000">/CameraTrackerLinux/include</text>
<text text-anchor="middle" x="340.5424" y="-185.5" font-family="Helvetica,sans-Serif" font-size="10.00" fill="#000000">/PoseEstimation.h</text>
</a>
</g>
</g>
<!-- Node8&#45;&gt;Node9 -->
<g id="edge3" class="edge">
<title>Node8&#45;&gt;Node9</title>
<path fill="none" stroke="#191970" d="M388.3134,-259.7159C379.9483,-250.0472 370.9624,-239.6608 363.0663,-230.5341"/>
<polygon fill="#191970" stroke="#191970" points="385.6666,-262.0059 394.8563,-267.2784 390.9603,-257.4259 385.6666,-262.0059"/>
</g>
<!-- Node14 -->
<g id="node9" class="node">
<title>Node14</title>
<g id="a_node9"><a xlink:href="_json_utilization_8cpp.html" target="_top" xlink:title="/home/bdn_jz/bdn_jz\l/camera&#45;tracker&#45;cpp\l/CameraTrackerLinux/src\l/JsonUtilization.cpp">
<polygon fill="#ffffff" stroke="#000000" points="431.0424,-178.5 431.0424,-230.5 558.0424,-230.5 558.0424,-178.5 431.0424,-178.5"/>
<text text-anchor="start" x="439.0424" y="-218.5" font-family="Helvetica,sans-Serif" font-size="10.00" fill="#000000">/home/bdn_jz/bdn_jz</text>
<text text-anchor="start" x="439.0424" y="-207.5" font-family="Helvetica,sans-Serif" font-size="10.00" fill="#000000">/camera&#45;tracker&#45;cpp</text>
<text text-anchor="start" x="439.0424" y="-196.5" font-family="Helvetica,sans-Serif" font-size="10.00" fill="#000000">/CameraTrackerLinux/src</text>
<text text-anchor="middle" x="494.5424" y="-185.5" font-family="Helvetica,sans-Serif" font-size="10.00" fill="#000000">/JsonUtilization.cpp</text>
</a>
</g>
</g>
<!-- Node8&#45;&gt;Node14 -->
<g id="edge9" class="edge">
<title>Node8&#45;&gt;Node14</title>
<path fill="none" stroke="#191970" d="M446.7713,-259.7159C455.1364,-250.0472 464.1224,-239.6608 472.0185,-230.5341"/>
<polygon fill="#191970" stroke="#191970" points="444.1244,-257.4259 440.2285,-267.2784 449.4182,-262.0059 444.1244,-257.4259"/>
</g>
<!-- Node10 -->
<g id="node5" class="node">
<title>Node10</title>
<g id="a_node5"><a xlink:href="_tracker_8h.html" target="_top" xlink:title="This file contains declarations of the Tracker class. ">
<polygon fill="#ffffff" stroke="#000000" points="268.5424,-89.5 268.5424,-141.5 412.5424,-141.5 412.5424,-89.5 268.5424,-89.5"/>
<text text-anchor="start" x="276.5424" y="-129.5" font-family="Helvetica,sans-Serif" font-size="10.00" fill="#000000">/home/bdn_jz/bdn_jz</text>
<text text-anchor="start" x="276.5424" y="-118.5" font-family="Helvetica,sans-Serif" font-size="10.00" fill="#000000">/camera&#45;tracker&#45;cpp</text>
<text text-anchor="start" x="276.5424" y="-107.5" font-family="Helvetica,sans-Serif" font-size="10.00" fill="#000000">/CameraTrackerLinux/include</text>
<text text-anchor="middle" x="340.5424" y="-96.5" font-family="Helvetica,sans-Serif" font-size="10.00" fill="#000000">/Tracker.h</text>
</a>
</g>
</g>
<!-- Node9&#45;&gt;Node10 -->
<g id="edge4" class="edge">
<title>Node9&#45;&gt;Node10</title>
<path fill="none" stroke="#191970" d="M340.5424,-168.1155C340.5424,-159.2061 340.5424,-149.8475 340.5424,-141.5341"/>
<polygon fill="#191970" stroke="#191970" points="337.0425,-168.2784 340.5424,-178.2784 344.0425,-168.2785 337.0425,-168.2784"/>
</g>
<!-- Node11 -->
<g id="node6" class="node">
<title>Node11</title>
<g id="a_node6"><a xlink:href="main_8cpp.html" target="_top" xlink:title="/home/bdn_jz/bdn_jz\l/camera&#45;tracker&#45;cpp\l/CameraTrackerLinux/main.cpp">
<polygon fill="#ffffff" stroke="#000000" points="164.0424,-6 164.0424,-47 317.0424,-47 317.0424,-6 164.0424,-6"/>
<text text-anchor="start" x="172.0424" y="-35" font-family="Helvetica,sans-Serif" font-size="10.00" fill="#000000">/home/bdn_jz/bdn_jz</text>
<text text-anchor="start" x="172.0424" y="-24" font-family="Helvetica,sans-Serif" font-size="10.00" fill="#000000">/camera&#45;tracker&#45;cpp</text>
<text text-anchor="middle" x="240.5424" y="-13" font-family="Helvetica,sans-Serif" font-size="10.00" fill="#000000">/CameraTrackerLinux/main.cpp</text>
</a>
</g>
</g>
<!-- Node9&#45;&gt;Node11 -->
<g id="edge7" class="edge">
<title>Node9&#45;&gt;Node11</title>
<path fill="none" stroke="#191970" d="M286.5293,-172.0704C276.1282,-163.5125 266.3638,-153.4232 259.5424,-142 241.9345,-112.5138 239.2942,-71.623 239.5332,-47.2355"/>
<polygon fill="#191970" stroke="#191970" points="284.5239,-174.9445 294.569,-178.313 288.817,-169.4155 284.5239,-174.9445"/>
</g>
<!-- Node13 -->
<g id="node8" class="node">
<title>Node13</title>
<g id="a_node8"><a xlink:href="_pose_estimation_8cpp.html" target="_top" xlink:title="/home/bdn_jz/bdn_jz\l/camera&#45;tracker&#45;cpp\l/CameraTrackerLinux/src\l/PoseEstimation.cpp">
<polygon fill="#ffffff" stroke="#000000" points="431.0424,-89.5 431.0424,-141.5 558.0424,-141.5 558.0424,-89.5 431.0424,-89.5"/>
<text text-anchor="start" x="439.0424" y="-129.5" font-family="Helvetica,sans-Serif" font-size="10.00" fill="#000000">/home/bdn_jz/bdn_jz</text>
<text text-anchor="start" x="439.0424" y="-118.5" font-family="Helvetica,sans-Serif" font-size="10.00" fill="#000000">/camera&#45;tracker&#45;cpp</text>
<text text-anchor="start" x="439.0424" y="-107.5" font-family="Helvetica,sans-Serif" font-size="10.00" fill="#000000">/CameraTrackerLinux/src</text>
<text text-anchor="middle" x="494.5424" y="-96.5" font-family="Helvetica,sans-Serif" font-size="10.00" fill="#000000">/PoseEstimation.cpp</text>
</a>
</g>
</g>
<!-- Node9&#45;&gt;Node13 -->
<g id="edge8" class="edge">
<title>Node9&#45;&gt;Node13</title>
<path fill="none" stroke="#191970" d="M395.0498,-172.9989C412.8697,-162.7004 432.4515,-151.3837 449.4945,-141.5341"/>
<polygon fill="#191970" stroke="#191970" points="392.8213,-170.2443 385.9145,-178.2784 396.324,-176.305 392.8213,-170.2443"/>
</g>
<!-- Node10&#45;&gt;Node11 -->
<g id="edge5" class="edge">
<title>Node10&#45;&gt;Node11</title>
<path fill="none" stroke="#191970" d="M303.4377,-82.4768C290.1492,-70.6501 275.5564,-57.6625 263.7751,-47.1771"/>
<polygon fill="#191970" stroke="#191970" points="301.283,-85.2446 311.0799,-89.2784 305.9369,-80.0156 301.283,-85.2446"/>
</g>
<!-- Node12 -->
<g id="node7" class="node">
<title>Node12</title>
<g id="a_node7"><a xlink:href="_tracker_8cpp.html" target="_top" xlink:title="/home/bdn_jz/bdn_jz\l/camera&#45;tracker&#45;cpp\l/CameraTrackerLinux/src\l/Tracker.cpp">
<polygon fill="#ffffff" stroke="#000000" points="335.0424,-.5 335.0424,-52.5 462.0424,-52.5 462.0424,-.5 335.0424,-.5"/>
<text text-anchor="start" x="343.0424" y="-40.5" font-family="Helvetica,sans-Serif" font-size="10.00" fill="#000000">/home/bdn_jz/bdn_jz</text>
<text text-anchor="start" x="343.0424" y="-29.5" font-family="Helvetica,sans-Serif" font-size="10.00" fill="#000000">/camera&#45;tracker&#45;cpp</text>
<text text-anchor="start" x="343.0424" y="-18.5" font-family="Helvetica,sans-Serif" font-size="10.00" fill="#000000">/CameraTrackerLinux/src</text>
<text text-anchor="middle" x="398.5424" y="-7.5" font-family="Helvetica,sans-Serif" font-size="10.00" fill="#000000">/Tracker.cpp</text>
</a>
</g>
</g>
<!-- Node10&#45;&gt;Node12 -->
<g id="edge6" class="edge">
<title>Node10&#45;&gt;Node12</title>
<path fill="none" stroke="#191970" d="M363.1217,-80.8525C369.2613,-71.4313 375.8053,-61.3897 381.5763,-52.5341"/>
<polygon fill="#191970" stroke="#191970" points="360.1581,-78.9895 357.6306,-89.2784 366.0227,-82.8114 360.1581,-78.9895"/>
</g>
<!-- Node15&#45;&gt;Node7 -->
<g id="edge11" class="edge">
<title>Node15&#45;&gt;Node7</title>
<path fill="none" stroke="#191970" d="M314.7811,-524.3622C316.6326,-499.7207 322.0701,-468.779 336.5424,-445 345.2228,-430.7375 358.4495,-418.5224 371.7134,-408.774"/>
<polygon fill="#191970" stroke="#191970" points="311.2782,-524.3114 314.1912,-534.4978 318.2664,-524.7181 311.2782,-524.3114"/>
</g>
<!-- Node16 -->
<g id="node11" class="node">
<title>Node16</title>
<g id="a_node11"><a xlink:href="adl__serializer_8hpp.html" target="_top" xlink:title="/home/bdn_jz/bdn_jz\l/camera&#45;tracker&#45;cpp\l/CameraTrackerLinux/include\l/nlohmann/adl_serializer.hpp">
<polygon fill="#ffffff" stroke="#000000" points="345.5424,-445.5 345.5424,-497.5 489.5424,-497.5 489.5424,-445.5 345.5424,-445.5"/>
<text text-anchor="start" x="353.5424" y="-485.5" font-family="Helvetica,sans-Serif" font-size="10.00" fill="#000000">/home/bdn_jz/bdn_jz</text>
<text text-anchor="start" x="353.5424" y="-474.5" font-family="Helvetica,sans-Serif" font-size="10.00" fill="#000000">/camera&#45;tracker&#45;cpp</text>
<text text-anchor="start" x="353.5424" y="-463.5" font-family="Helvetica,sans-Serif" font-size="10.00" fill="#000000">/CameraTrackerLinux/include</text>
<text text-anchor="middle" x="417.5424" y="-452.5" font-family="Helvetica,sans-Serif" font-size="10.00" fill="#000000">/nlohmann/adl_serializer.hpp</text>
</a>
</g>
</g>
<!-- Node15&#45;&gt;Node16 -->
<g id="edge12" class="edge">
<title>Node15&#45;&gt;Node16</title>
<path fill="none" stroke="#191970" d="M356.5691,-527.4415C367.492,-517.42 379.0038,-506.8582 389.0466,-497.6442"/>
<polygon fill="#191970" stroke="#191970" points="354.1288,-524.9305 349.1264,-534.27 358.8612,-530.0885 354.1288,-524.9305"/>
</g>
<!-- Node16&#45;&gt;Node7 -->
<g id="edge13" class="edge">
<title>Node16&#45;&gt;Node7</title>
<path fill="none" stroke="#191970" d="M417.5424,-435.1155C417.5424,-426.2061 417.5424,-416.8475 417.5424,-408.5341"/>
<polygon fill="#191970" stroke="#191970" points="414.0425,-435.2784 417.5424,-445.2784 421.0425,-435.2785 414.0425,-435.2784"/>
</g>
<!-- Node17&#45;&gt;Node7 -->
<g id="edge15" class="edge">
<title>Node17&#45;&gt;Node7</title>
<path fill="none" stroke="#191970" d="M496.255,-524.8189C504.9534,-500.553 510.7514,-469.8415 498.5424,-445 491.3346,-430.3344 478.8462,-418.1378 465.8036,-408.5297"/>
<polygon fill="#191970" stroke="#191970" points="492.8733,-523.8601 492.534,-534.4495 499.4029,-526.383 492.8733,-523.8601"/>
</g>
<!-- Node17&#45;&gt;Node16 -->
<g id="edge16" class="edge">
<title>Node17&#45;&gt;Node16</title>
<path fill="none" stroke="#191970" d="M451.3828,-525.702C445.4539,-516.2058 439.286,-506.3266 433.8652,-497.6442"/>
<polygon fill="#191970" stroke="#191970" points="448.4672,-527.6411 456.7321,-534.27 454.405,-523.9339 448.4672,-527.6411"/>
</g>
<!-- Node18&#45;&gt;Node7 -->
<g id="edge18" class="edge">
<title>Node18&#45;&gt;Node7</title>
<path fill="none" stroke="#191970" d="M51.788,-627.4454C42.7773,-618.9016 34.7738,-609.0489 29.5424,-598 -1.3802,-532.6905 24.9605,-485.8844 84.5424,-445 126.0111,-416.5446 260.6589,-398.2175 345.5017,-389.1841"/>
<polygon fill="#191970" stroke="#191970" points="49.7448,-630.3107 59.5551,-634.3118 54.3811,-625.0662 49.7448,-630.3107"/>
</g>
<!-- Node19 -->
<g id="node14" class="node">
<title>Node19</title>
<g id="a_node14"><a xlink:href="binary__writer_8hpp.html" target="_top" xlink:title="/home/bdn_jz/bdn_jz\l/camera&#45;tracker&#45;cpp\l/CameraTrackerLinux/include\l/nlohmann/detail/output/binary\l_writer.hpp">
<polygon fill="#ffffff" stroke="#000000" points="39.0424,-534.5 39.0424,-597.5 186.0424,-597.5 186.0424,-534.5 39.0424,-534.5"/>
<text text-anchor="start" x="47.0424" y="-585.5" font-family="Helvetica,sans-Serif" font-size="10.00" fill="#000000">/home/bdn_jz/bdn_jz</text>
<text text-anchor="start" x="47.0424" y="-574.5" font-family="Helvetica,sans-Serif" font-size="10.00" fill="#000000">/camera&#45;tracker&#45;cpp</text>
<text text-anchor="start" x="47.0424" y="-563.5" font-family="Helvetica,sans-Serif" font-size="10.00" fill="#000000">/CameraTrackerLinux/include</text>
<text text-anchor="start" x="47.0424" y="-552.5" font-family="Helvetica,sans-Serif" font-size="10.00" fill="#000000">/nlohmann/detail/output/binary</text>
<text text-anchor="middle" x="112.5424" y="-541.5" font-family="Helvetica,sans-Serif" font-size="10.00" fill="#000000">_writer.hpp</text>
</a>
</g>
</g>
<!-- Node18&#45;&gt;Node19 -->
<g id="edge19" class="edge">
<title>Node18&#45;&gt;Node19</title>
<path fill="none" stroke="#191970" d="M112.5424,-624.2111C112.5424,-615.37 112.5424,-606.1767 112.5424,-597.778"/>
<polygon fill="#191970" stroke="#191970" points="109.0425,-624.3593 112.5424,-634.3594 116.0425,-624.3594 109.0425,-624.3593"/>
</g>
<!-- Node19&#45;&gt;Node7 -->
<g id="edge20" class="edge">
<title>Node19&#45;&gt;Node7</title>
<path fill="none" stroke="#191970" d="M94.7853,-524.8329C86.7295,-499.1415 82.5333,-466.9064 100.5424,-445 130.9104,-408.06 261.4411,-392.6017 345.2441,-386.3965"/>
<polygon fill="#191970" stroke="#191970" points="91.4818,-525.9897 98.0235,-534.3237 98.1068,-523.7292 91.4818,-525.9897"/>
</g>
<!-- Node19&#45;&gt;Node20 -->
<g id="edge21" class="edge">
<title>Node19&#45;&gt;Node20</title>
<path fill="none" stroke="#191970" d="M148.5735,-526.8628C157.6404,-517.0143 167.1535,-506.681 175.4732,-497.6442"/>
<polygon fill="#191970" stroke="#191970" points="145.9523,-524.5424 141.7541,-534.27 151.1022,-529.2836 145.9523,-524.5424"/>
</g>
<!-- Node20&#45;&gt;Node7 -->
<g id="edge22" class="edge">
<title>Node20&#45;&gt;Node7</title>
<path fill="none" stroke="#191970" d="M272.958,-441.5276C299.1054,-430.8527 328.3213,-418.9251 353.6093,-408.6011"/>
<polygon fill="#191970" stroke="#191970" points="271.4118,-438.3783 263.4766,-445.3984 274.0577,-444.859 271.4118,-438.3783"/>
</g>
<!-- Node21&#45;&gt;Node7 -->
<g id="edge24" class="edge">
<title>Node21&#45;&gt;Node7</title>
<path fill="none" stroke="#191970" d="M582.4851,-441.9328C552.4277,-431.1024 518.6658,-418.9372 489.5536,-408.4474"/>
<polygon fill="#191970" stroke="#191970" points="581.5088,-445.3012 592.1032,-445.3984 583.8817,-438.7157 581.5088,-445.3012"/>
</g>
<!-- Node22&#45;&gt;Node7 -->
<g id="edge26" class="edge">
<title>Node22&#45;&gt;Node7</title>
<path fill="none" stroke="#191970" d="M745.3371,-525.604C760.766,-500.1316 772.5351,-467.8513 753.5424,-445 720.6893,-405.4724 578.415,-390.8209 489.8696,-385.4791"/>
<polygon fill="#191970" stroke="#191970" points="742.2124,-523.9936 739.7715,-534.3034 748.109,-527.766 742.2124,-523.9936"/>
</g>
<!-- Node23&#45;&gt;Node7 -->
<g id="edge28" class="edge">
<title>Node23&#45;&gt;Node7</title>
<path fill="none" stroke="#191970" d="M540.1121,-626.5757C547.2373,-617.9305 553.5653,-608.2649 557.5424,-598 567.8187,-571.4768 563.6345,-561.7844 557.5424,-534 548.2148,-491.4596 545.2489,-477.751 516.5424,-445 503.9484,-430.6316 487.2553,-418.3884 471.1714,-408.6468"/>
<polygon fill="#191970" stroke="#191970" points="537.3674,-624.3967 533.389,-634.2163 542.6226,-629.0209 537.3674,-624.3967"/>
</g>
<!-- Node23&#45;&gt;Node17 -->
<g id="edge29" class="edge">
<title>Node23&#45;&gt;Node17</title>
<path fill="none" stroke="#191970" d="M487.6572,-624.4993C485.9607,-615.5699 484.1933,-606.268 482.5802,-597.778"/>
<polygon fill="#191970" stroke="#191970" points="484.2255,-625.1885 489.5307,-634.3594 491.1025,-623.8818 484.2255,-625.1885"/>
</g>
<!-- Node24&#45;&gt;Node7 -->
<g id="edge31" class="edge">
<title>Node24&#45;&gt;Node7</title>
<path fill="none" stroke="#191970" d="M808.4291,-629.8407C816.8958,-580.1693 823.0532,-491.6878 772.5424,-445 732.3313,-407.8324 581.2046,-392.2736 489.5955,-386.1487"/>
<polygon fill="#191970" stroke="#191970" points="804.9598,-629.356 806.6069,-639.822 811.846,-630.6132 804.9598,-629.356"/>
</g>
</g>
</svg>
