<?xml version="1.0" encoding="UTF-8" standalone="no"?>
<!DOCTYPE svg PUBLIC "-//W3C//DTD SVG 1.1//EN"
 "http://www.w3.org/Graphics/SVG/1.1/DTD/svg11.dtd">
<!-- Generated by graphviz version 2.40.1 (20161225.0304)
 -->
<!-- Title: /home/bdn_jz/bdn_jz/camera&#45;tracker&#45;cpp/CameraTrackerLinux/include/nlohmann/detail/value_t.hpp Pages: 1 -->
<svg width="890pt" height="706pt"
 viewBox="0.00 0.00 889.54 706.00" xmlns="http://www.w3.org/2000/svg" xmlns:xlink="http://www.w3.org/1999/xlink">
<g id="graph0" class="graph" transform="scale(1 1) rotate(0) translate(4 702)">
<title>/home/bdn_jz/bdn_jz/camera&#45;tracker&#45;cpp/CameraTrackerLinux/include/nlohmann/detail/value_t.hpp</title>
<polygon fill="#ffffff" stroke="transparent" points="-4,4 -4,-702 885.5424,-702 885.5424,4 -4,4"/>
<!-- Node6 -->
<g id="node1" class="node">
<title>Node6</title>
<polygon fill="#bfbfbf" stroke="#000000" points="323.5424,-645.5 323.5424,-697.5 467.5424,-697.5 467.5424,-645.5 323.5424,-645.5"/>
<text text-anchor="start" x="331.5424" y="-685.5" font-family="Helvetica,sans-Serif" font-size="10.00" fill="#000000">/home/bdn_jz/bdn_jz</text>
<text text-anchor="start" x="331.5424" y="-674.5" font-family="Helvetica,sans-Serif" font-size="10.00" fill="#000000">/camera&#45;tracker&#45;cpp</text>
<text text-anchor="start" x="331.5424" y="-663.5" font-family="Helvetica,sans-Serif" font-size="10.00" fill="#000000">/CameraTrackerLinux/include</text>
<text text-anchor="middle" x="395.5424" y="-652.5" font-family="Helvetica,sans-Serif" font-size="10.00" fill="#000000">/nlohmann/detail/value_t.hpp</text>
</g>
<!-- Node7 -->
<g id="node2" class="node">
<title>Node7</title>
<g id="a_node2"><a xlink:href="json_8hpp.html" target="_top" xlink:title="/home/bdn_jz/bdn_jz\l/camera&#45;tracker&#45;cpp\l/CameraTrackerLinux/include\l/nlohmann/json.hpp">
<polygon fill="#ffffff" stroke="#000000" points="345.5424,-267.5 345.5424,-319.5 489.5424,-319.5 489.5424,-267.5 345.5424,-267.5"/>
<text text-anchor="start" x="353.5424" y="-307.5" font-family="Helvetica,sans-Serif" font-size="10.00" fill="#000000">/home/bdn_jz/bdn_jz</text>
<text text-anchor="start" x="353.5424" y="-296.5" font-family="Helvetica,sans-Serif" font-size="10.00" fill="#000000">/camera&#45;tracker&#45;cpp</text>
<text text-anchor="start" x="353.5424" y="-285.5" font-family="Helvetica,sans-Serif" font-size="10.00" fill="#000000">/CameraTrackerLinux/include</text>
<text text-anchor="middle" x="417.5424" y="-274.5" font-family="Helvetica,sans-Serif" font-size="10.00" fill="#000000">/nlohmann/json.hpp</text>
</a>
</g>
</g>
<!-- Node6&#45;&gt;Node7 -->
<g id="edge1" class="edge">
<title>Node6&#45;&gt;Node7</title>
<path fill="none" stroke="#191970" d="M313.1582,-668.0158C218.2734,-662.2332 70.4328,-647.2074 31.5424,-609 -20.8002,-557.5767 6.8239,-518.1532 12.5424,-445 15.663,-405.0798 -1.7364,-384.349 26.5424,-356 70.1149,-312.3192 244.8158,-299.1663 345.3359,-295.206"/>
<polygon fill="#191970" stroke="#191970" points="313.1236,-671.5197 323.3115,-668.6118 313.5338,-664.5318 313.1236,-671.5197"/>
</g>
<!-- Node13 -->
<g id="node8" class="node">
<title>Node13</title>
<g id="a_node8"><a xlink:href="from__json_8hpp.html" target="_top" xlink:title="/home/bdn_jz/bdn_jz\l/camera&#45;tracker&#45;cpp\l/CameraTrackerLinux/include\l/nlohmann/detail/conversions\l/from_json.hpp">
<polygon fill="#ffffff" stroke="#000000" points="242.5424,-445.5 242.5424,-508.5 386.5424,-508.5 386.5424,-445.5 242.5424,-445.5"/>
<text text-anchor="start" x="250.5424" y="-496.5" font-family="Helvetica,sans-Serif" font-size="10.00" fill="#000000">/home/bdn_jz/bdn_jz</text>
<text text-anchor="start" x="250.5424" y="-485.5" font-family="Helvetica,sans-Serif" font-size="10.00" fill="#000000">/camera&#45;tracker&#45;cpp</text>
<text text-anchor="start" x="250.5424" y="-474.5" font-family="Helvetica,sans-Serif" font-size="10.00" fill="#000000">/CameraTrackerLinux/include</text>
<text text-anchor="start" x="250.5424" y="-463.5" font-family="Helvetica,sans-Serif" font-size="10.00" fill="#000000">/nlohmann/detail/conversions</text>
<text text-anchor="middle" x="314.5424" y="-452.5" font-family="Helvetica,sans-Serif" font-size="10.00" fill="#000000">/from_json.hpp</text>
</a>
</g>
</g>
<!-- Node6&#45;&gt;Node13 -->
<g id="edge8" class="edge">
<title>Node6&#45;&gt;Node13</title>
<path fill="none" stroke="#191970" d="M380.7632,-636.0117C365.6046,-599.6123 342.2451,-543.5208 327.7042,-508.6047"/>
<polygon fill="#191970" stroke="#191970" points="377.5428,-637.383 384.6184,-645.2689 384.0048,-634.6918 377.5428,-637.383"/>
</g>
<!-- Node15 -->
<g id="node10" class="node">
<title>Node15</title>
<g id="a_node10"><a xlink:href="to__json_8hpp.html" target="_top" xlink:title="/home/bdn_jz/bdn_jz\l/camera&#45;tracker&#45;cpp\l/CameraTrackerLinux/include\l/nlohmann/detail/conversions\l/to_json.hpp">
<polygon fill="#ffffff" stroke="#000000" points="404.5424,-445.5 404.5424,-508.5 548.5424,-508.5 548.5424,-445.5 404.5424,-445.5"/>
<text text-anchor="start" x="412.5424" y="-496.5" font-family="Helvetica,sans-Serif" font-size="10.00" fill="#000000">/home/bdn_jz/bdn_jz</text>
<text text-anchor="start" x="412.5424" y="-485.5" font-family="Helvetica,sans-Serif" font-size="10.00" fill="#000000">/camera&#45;tracker&#45;cpp</text>
<text text-anchor="start" x="412.5424" y="-474.5" font-family="Helvetica,sans-Serif" font-size="10.00" fill="#000000">/CameraTrackerLinux/include</text>
<text text-anchor="start" x="412.5424" y="-463.5" font-family="Helvetica,sans-Serif" font-size="10.00" fill="#000000">/nlohmann/detail/conversions</text>
<text text-anchor="middle" x="476.5424" y="-452.5" font-family="Helvetica,sans-Serif" font-size="10.00" fill="#000000">/to_json.hpp</text>
</a>
</g>
</g>
<!-- Node6&#45;&gt;Node15 -->
<g id="edge12" class="edge">
<title>Node6&#45;&gt;Node15</title>
<path fill="none" stroke="#191970" d="M395.4639,-634.7609C396.7127,-608.5895 401.1222,-573.1997 414.5424,-545 420.8583,-531.7283 430.642,-519.2134 440.5853,-508.6254"/>
<polygon fill="#191970" stroke="#191970" points="391.9573,-634.8964 395.1124,-645.0105 398.9532,-635.1363 391.9573,-634.8964"/>
</g>
<!-- Node16 -->
<g id="node11" class="node">
<title>Node16</title>
<g id="a_node11"><a xlink:href="binary__reader_8hpp.html" target="_top" xlink:title="/home/bdn_jz/bdn_jz\l/camera&#45;tracker&#45;cpp\l/CameraTrackerLinux/include\l/nlohmann/detail/input/binary\l_reader.hpp">
<polygon fill="#ffffff" stroke="#000000" points="40.5424,-545.5 40.5424,-608.5 184.5424,-608.5 184.5424,-545.5 40.5424,-545.5"/>
<text text-anchor="start" x="48.5424" y="-596.5" font-family="Helvetica,sans-Serif" font-size="10.00" fill="#000000">/home/bdn_jz/bdn_jz</text>
<text text-anchor="start" x="48.5424" y="-585.5" font-family="Helvetica,sans-Serif" font-size="10.00" fill="#000000">/camera&#45;tracker&#45;cpp</text>
<text text-anchor="start" x="48.5424" y="-574.5" font-family="Helvetica,sans-Serif" font-size="10.00" fill="#000000">/CameraTrackerLinux/include</text>
<text text-anchor="start" x="48.5424" y="-563.5" font-family="Helvetica,sans-Serif" font-size="10.00" fill="#000000">/nlohmann/detail/input/binary</text>
<text text-anchor="middle" x="112.5424" y="-552.5" font-family="Helvetica,sans-Serif" font-size="10.00" fill="#000000">_reader.hpp</text>
</a>
</g>
</g>
<!-- Node6&#45;&gt;Node16 -->
<g id="edge15" class="edge">
<title>Node6&#45;&gt;Node16</title>
<path fill="none" stroke="#191970" d="M313.4191,-645.9529C278.5171,-634.8953 237.4395,-621.6163 200.5424,-609 195.4663,-607.2643 190.2366,-605.4444 184.9772,-603.5907"/>
<polygon fill="#191970" stroke="#191970" points="312.5009,-649.3333 323.0908,-649.0104 314.6109,-642.6589 312.5009,-649.3333"/>
</g>
<!-- Node18 -->
<g id="node13" class="node">
<title>Node18</title>
<g id="a_node13"><a xlink:href="serializer_8hpp.html" target="_top" xlink:title="/home/bdn_jz/bdn_jz\l/camera&#45;tracker&#45;cpp\l/CameraTrackerLinux/include\l/nlohmann/detail/output/serializer.hpp">
<polygon fill="#ffffff" stroke="#000000" points="110.0424,-356.5 110.0424,-408.5 289.0424,-408.5 289.0424,-356.5 110.0424,-356.5"/>
<text text-anchor="start" x="118.0424" y="-396.5" font-family="Helvetica,sans-Serif" font-size="10.00" fill="#000000">/home/bdn_jz/bdn_jz</text>
<text text-anchor="start" x="118.0424" y="-385.5" font-family="Helvetica,sans-Serif" font-size="10.00" fill="#000000">/camera&#45;tracker&#45;cpp</text>
<text text-anchor="start" x="118.0424" y="-374.5" font-family="Helvetica,sans-Serif" font-size="10.00" fill="#000000">/CameraTrackerLinux/include</text>
<text text-anchor="middle" x="199.5424" y="-363.5" font-family="Helvetica,sans-Serif" font-size="10.00" fill="#000000">/nlohmann/detail/output/serializer.hpp</text>
</a>
</g>
</g>
<!-- Node6&#45;&gt;Node18 -->
<g id="edge30" class="edge">
<title>Node6&#45;&gt;Node18</title>
<path fill="none" stroke="#191970" d="M352.0394,-638.8052C315.2388,-608.906 263.7984,-561.4517 233.5424,-509 215.2479,-477.2848 206.5167,-435.4277 202.5558,-408.7294"/>
<polygon fill="#191970" stroke="#191970" points="350.1301,-641.7603 360.1224,-645.2823 354.5075,-636.2977 350.1301,-641.7603"/>
</g>
<!-- Node19 -->
<g id="node14" class="node">
<title>Node19</title>
<g id="a_node14"><a xlink:href="parser_8hpp.html" target="_top" xlink:title="/home/bdn_jz/bdn_jz\l/camera&#45;tracker&#45;cpp\l/CameraTrackerLinux/include\l/nlohmann/detail/input/parser.hpp">
<polygon fill="#ffffff" stroke="#000000" points="584.0424,-356.5 584.0424,-408.5 745.0424,-408.5 745.0424,-356.5 584.0424,-356.5"/>
<text text-anchor="start" x="592.0424" y="-396.5" font-family="Helvetica,sans-Serif" font-size="10.00" fill="#000000">/home/bdn_jz/bdn_jz</text>
<text text-anchor="start" x="592.0424" y="-385.5" font-family="Helvetica,sans-Serif" font-size="10.00" fill="#000000">/camera&#45;tracker&#45;cpp</text>
<text text-anchor="start" x="592.0424" y="-374.5" font-family="Helvetica,sans-Serif" font-size="10.00" fill="#000000">/CameraTrackerLinux/include</text>
<text text-anchor="middle" x="664.5424" y="-363.5" font-family="Helvetica,sans-Serif" font-size="10.00" fill="#000000">/nlohmann/detail/input/parser.hpp</text>
</a>
</g>
</g>
<!-- Node6&#45;&gt;Node19 -->
<g id="edge21" class="edge">
<title>Node6&#45;&gt;Node19</title>
<path fill="none" stroke="#191970" d="M477.9532,-659.3751C512.2833,-650.5383 550.1997,-635.2896 576.5424,-609 631.1618,-554.4905 603.6724,-516.1502 633.5424,-445 638.6528,-432.827 645.0313,-419.6895 650.6717,-408.6156"/>
<polygon fill="#191970" stroke="#191970" points="476.801,-656.0529 467.9061,-661.809 478.4491,-662.8561 476.801,-656.0529"/>
</g>
<!-- Node20 -->
<g id="node15" class="node">
<title>Node20</title>
<g id="a_node15"><a xlink:href="iter__impl_8hpp.html" target="_top" xlink:title="/home/bdn_jz/bdn_jz\l/camera&#45;tracker&#45;cpp\l/CameraTrackerLinux/include\l/nlohmann/detail/iterators\l/iter_impl.hpp">
<polygon fill="#ffffff" stroke="#000000" points="642.5424,-445.5 642.5424,-508.5 786.5424,-508.5 786.5424,-445.5 642.5424,-445.5"/>
<text text-anchor="start" x="650.5424" y="-496.5" font-family="Helvetica,sans-Serif" font-size="10.00" fill="#000000">/home/bdn_jz/bdn_jz</text>
<text text-anchor="start" x="650.5424" y="-485.5" font-family="Helvetica,sans-Serif" font-size="10.00" fill="#000000">/camera&#45;tracker&#45;cpp</text>
<text text-anchor="start" x="650.5424" y="-474.5" font-family="Helvetica,sans-Serif" font-size="10.00" fill="#000000">/CameraTrackerLinux/include</text>
<text text-anchor="start" x="650.5424" y="-463.5" font-family="Helvetica,sans-Serif" font-size="10.00" fill="#000000">/nlohmann/detail/iterators</text>
<text text-anchor="middle" x="714.5424" y="-452.5" font-family="Helvetica,sans-Serif" font-size="10.00" fill="#000000">/iter_impl.hpp</text>
</a>
</g>
</g>
<!-- Node6&#45;&gt;Node20 -->
<g id="edge23" class="edge">
<title>Node6&#45;&gt;Node20</title>
<path fill="none" stroke="#191970" d="M477.8696,-655.9181C534.7529,-643.9501 604.3593,-626.5477 628.5424,-609 663.6302,-583.5396 688.2362,-539.0061 701.8895,-508.7772"/>
<polygon fill="#191970" stroke="#191970" points="476.8535,-652.5543 467.7737,-658.0139 478.2763,-659.4082 476.8535,-652.5543"/>
</g>
<!-- Node21 -->
<g id="node16" class="node">
<title>Node21</title>
<g id="a_node16"><a xlink:href="iteration__proxy_8hpp.html" target="_top" xlink:title="/home/bdn_jz/bdn_jz\l/camera&#45;tracker&#45;cpp\l/CameraTrackerLinux/include\l/nlohmann/detail/iterators\l/iteration_proxy.hpp">
<polygon fill="#ffffff" stroke="#000000" points="423.5424,-545.5 423.5424,-608.5 567.5424,-608.5 567.5424,-545.5 423.5424,-545.5"/>
<text text-anchor="start" x="431.5424" y="-596.5" font-family="Helvetica,sans-Serif" font-size="10.00" fill="#000000">/home/bdn_jz/bdn_jz</text>
<text text-anchor="start" x="431.5424" y="-585.5" font-family="Helvetica,sans-Serif" font-size="10.00" fill="#000000">/camera&#45;tracker&#45;cpp</text>
<text text-anchor="start" x="431.5424" y="-574.5" font-family="Helvetica,sans-Serif" font-size="10.00" fill="#000000">/CameraTrackerLinux/include</text>
<text text-anchor="start" x="431.5424" y="-563.5" font-family="Helvetica,sans-Serif" font-size="10.00" fill="#000000">/nlohmann/detail/iterators</text>
<text text-anchor="middle" x="495.5424" y="-552.5" font-family="Helvetica,sans-Serif" font-size="10.00" fill="#000000">/iteration_proxy.hpp</text>
</a>
</g>
</g>
<!-- Node6&#45;&gt;Node21 -->
<g id="edge25" class="edge">
<title>Node6&#45;&gt;Node21</title>
<path fill="none" stroke="#191970" d="M430.6985,-638.2774C440.8631,-628.6719 451.9277,-618.2158 461.9917,-608.7054"/>
<polygon fill="#191970" stroke="#191970" points="427.9967,-636.0151 423.1325,-645.4273 432.8046,-641.1028 427.9967,-636.0151"/>
</g>
<!-- Node22 -->
<g id="node17" class="node">
<title>Node22</title>
<g id="a_node17"><a xlink:href="json__pointer_8hpp.html" target="_top" xlink:title="/home/bdn_jz/bdn_jz\l/camera&#45;tracker&#45;cpp\l/CameraTrackerLinux/include\l/nlohmann/detail/json_pointer.hpp">
<polygon fill="#ffffff" stroke="#000000" points="719.5424,-551 719.5424,-603 881.5424,-603 881.5424,-551 719.5424,-551"/>
<text text-anchor="start" x="727.5424" y="-591" font-family="Helvetica,sans-Serif" font-size="10.00" fill="#000000">/home/bdn_jz/bdn_jz</text>
<text text-anchor="start" x="727.5424" y="-580" font-family="Helvetica,sans-Serif" font-size="10.00" fill="#000000">/camera&#45;tracker&#45;cpp</text>
<text text-anchor="start" x="727.5424" y="-569" font-family="Helvetica,sans-Serif" font-size="10.00" fill="#000000">/CameraTrackerLinux/include</text>
<text text-anchor="middle" x="800.5424" y="-558" font-family="Helvetica,sans-Serif" font-size="10.00" fill="#000000">/nlohmann/detail/json_pointer.hpp</text>
</a>
</g>
</g>
<!-- Node6&#45;&gt;Node22 -->
<g id="edge28" class="edge">
<title>Node6&#45;&gt;Node22</title>
<path fill="none" stroke="#191970" d="M477.7805,-656.0451C537.6292,-644.3489 620.4702,-627.2291 692.5424,-609 701.2634,-606.7942 710.3373,-604.3479 719.3558,-601.8188"/>
<polygon fill="#191970" stroke="#191970" points="476.7784,-652.6744 467.6309,-658.0198 478.1153,-659.5456 476.7784,-652.6744"/>
</g>
<!-- Node8 -->
<g id="node3" class="node">
<title>Node8</title>
<g id="a_node3"><a xlink:href="_json_utilization_8h.html" target="_top" xlink:title="This file contains the declaration of the namespace jsonUtilization. ">
<polygon fill="#ffffff" stroke="#000000" points="345.5424,-178.5 345.5424,-230.5 489.5424,-230.5 489.5424,-178.5 345.5424,-178.5"/>
<text text-anchor="start" x="353.5424" y="-218.5" font-family="Helvetica,sans-Serif" font-size="10.00" fill="#000000">/home/bdn_jz/bdn_jz</text>
<text text-anchor="start" x="353.5424" y="-207.5" font-family="Helvetica,sans-Serif" font-size="10.00" fill="#000000">/camera&#45;tracker&#45;cpp</text>
<text text-anchor="start" x="353.5424" y="-196.5" font-family="Helvetica,sans-Serif" font-size="10.00" fill="#000000">/CameraTrackerLinux/include</text>
<text text-anchor="middle" x="417.5424" y="-185.5" font-family="Helvetica,sans-Serif" font-size="10.00" fill="#000000">/JsonUtilization.h</text>
</a>
</g>
</g>
<!-- Node7&#45;&gt;Node8 -->
<g id="edge2" class="edge">
<title>Node7&#45;&gt;Node8</title>
<path fill="none" stroke="#191970" d="M417.5424,-257.1155C417.5424,-248.2061 417.5424,-238.8475 417.5424,-230.5341"/>
<polygon fill="#191970" stroke="#191970" points="414.0425,-257.2784 417.5424,-267.2784 421.0425,-257.2785 414.0425,-257.2784"/>
</g>
<!-- Node9 -->
<g id="node4" class="node">
<title>Node9</title>
<g id="a_node4"><a xlink:href="_pose_estimation_8h.html" target="_top" xlink:title="This file contains the declaration of the PoseEstimation class. ">
<polygon fill="#ffffff" stroke="#000000" points="345.5424,-89.5 345.5424,-141.5 489.5424,-141.5 489.5424,-89.5 345.5424,-89.5"/>
<text text-anchor="start" x="353.5424" y="-129.5" font-family="Helvetica,sans-Serif" font-size="10.00" fill="#000000">/home/bdn_jz/bdn_jz</text>
<text text-anchor="start" x="353.5424" y="-118.5" font-family="Helvetica,sans-Serif" font-size="10.00" fill="#000000">/camera&#45;tracker&#45;cpp</text>
<text text-anchor="start" x="353.5424" y="-107.5" font-family="Helvetica,sans-Serif" font-size="10.00" fill="#000000">/CameraTrackerLinux/include</text>
<text text-anchor="middle" x="417.5424" y="-96.5" font-family="Helvetica,sans-Serif" font-size="10.00" fill="#000000">/PoseEstimation.h</text>
</a>
</g>
</g>
<!-- Node8&#45;&gt;Node9 -->
<g id="edge3" class="edge">
<title>Node8&#45;&gt;Node9</title>
<path fill="none" stroke="#191970" d="M417.5424,-168.1155C417.5424,-159.2061 417.5424,-149.8475 417.5424,-141.5341"/>
<polygon fill="#191970" stroke="#191970" points="414.0425,-168.2784 417.5424,-178.2784 421.0425,-168.2785 414.0425,-168.2784"/>
</g>
<!-- Node10 -->
<g id="node5" class="node">
<title>Node10</title>
<g id="a_node5"><a xlink:href="main_8cpp.html" target="_top" xlink:title="/home/bdn_jz/bdn_jz\l/camera&#45;tracker&#45;cpp\l/CameraTrackerLinux/main.cpp">
<polygon fill="#ffffff" stroke="#000000" points="241.0424,-6 241.0424,-47 394.0424,-47 394.0424,-6 241.0424,-6"/>
<text text-anchor="start" x="249.0424" y="-35" font-family="Helvetica,sans-Serif" font-size="10.00" fill="#000000">/home/bdn_jz/bdn_jz</text>
<text text-anchor="start" x="249.0424" y="-24" font-family="Helvetica,sans-Serif" font-size="10.00" fill="#000000">/camera&#45;tracker&#45;cpp</text>
<text text-anchor="middle" x="317.5424" y="-13" font-family="Helvetica,sans-Serif" font-size="10.00" fill="#000000">/CameraTrackerLinux/main.cpp</text>
</a>
</g>
</g>
<!-- Node8&#45;&gt;Node10 -->
<g id="edge6" class="edge">
<title>Node8&#45;&gt;Node10</title>
<path fill="none" stroke="#191970" d="M363.5293,-172.0704C353.1282,-163.5125 343.3638,-153.4232 336.5424,-142 318.9345,-112.5138 316.2942,-71.623 316.5332,-47.2355"/>
<polygon fill="#191970" stroke="#191970" points="361.5239,-174.9445 371.569,-178.313 365.817,-169.4155 361.5239,-174.9445"/>
</g>
<!-- Node12 -->
<g id="node7" class="node">
<title>Node12</title>
<g id="a_node7"><a xlink:href="_json_utilization_8cpp.html" target="_top" xlink:title="/home/bdn_jz/bdn_jz\l/camera&#45;tracker&#45;cpp\l/CameraTrackerLinux/src\l/JsonUtilization.cpp">
<polygon fill="#ffffff" stroke="#000000" points="508.0424,-89.5 508.0424,-141.5 635.0424,-141.5 635.0424,-89.5 508.0424,-89.5"/>
<text text-anchor="start" x="516.0424" y="-129.5" font-family="Helvetica,sans-Serif" font-size="10.00" fill="#000000">/home/bdn_jz/bdn_jz</text>
<text text-anchor="start" x="516.0424" y="-118.5" font-family="Helvetica,sans-Serif" font-size="10.00" fill="#000000">/camera&#45;tracker&#45;cpp</text>
<text text-anchor="start" x="516.0424" y="-107.5" font-family="Helvetica,sans-Serif" font-size="10.00" fill="#000000">/CameraTrackerLinux/src</text>
<text text-anchor="middle" x="571.5424" y="-96.5" font-family="Helvetica,sans-Serif" font-size="10.00" fill="#000000">/JsonUtilization.cpp</text>
</a>
</g>
</g>
<!-- Node8&#45;&gt;Node12 -->
<g id="edge7" class="edge">
<title>Node8&#45;&gt;Node12</title>
<path fill="none" stroke="#191970" d="M472.0498,-172.9989C489.8697,-162.7004 509.4515,-151.3837 526.4945,-141.5341"/>
<polygon fill="#191970" stroke="#191970" points="469.8213,-170.2443 462.9145,-178.2784 473.324,-176.305 469.8213,-170.2443"/>
</g>
<!-- Node9&#45;&gt;Node10 -->
<g id="edge4" class="edge">
<title>Node9&#45;&gt;Node10</title>
<path fill="none" stroke="#191970" d="M380.4377,-82.4768C367.1492,-70.6501 352.5564,-57.6625 340.7751,-47.1771"/>
<polygon fill="#191970" stroke="#191970" points="378.283,-85.2446 388.0799,-89.2784 382.9369,-80.0156 378.283,-85.2446"/>
</g>
<!-- Node11 -->
<g id="node6" class="node">
<title>Node11</title>
<g id="a_node6"><a xlink:href="_pose_estimation_8cpp.html" target="_top" xlink:title="/home/bdn_jz/bdn_jz\l/camera&#45;tracker&#45;cpp\l/CameraTrackerLinux/src\l/PoseEstimation.cpp">
<polygon fill="#ffffff" stroke="#000000" points="412.0424,-.5 412.0424,-52.5 539.0424,-52.5 539.0424,-.5 412.0424,-.5"/>
<text text-anchor="start" x="420.0424" y="-40.5" font-family="Helvetica,sans-Serif" font-size="10.00" fill="#000000">/home/bdn_jz/bdn_jz</text>
<text text-anchor="start" x="420.0424" y="-29.5" font-family="Helvetica,sans-Serif" font-size="10.00" fill="#000000">/camera&#45;tracker&#45;cpp</text>
<text text-anchor="start" x="420.0424" y="-18.5" font-family="Helvetica,sans-Serif" font-size="10.00" fill="#000000">/CameraTrackerLinux/src</text>
<text text-anchor="middle" x="475.5424" y="-7.5" font-family="Helvetica,sans-Serif" font-size="10.00" fill="#000000">/PoseEstimation.cpp</text>
</a>
</g>
</g>
<!-- Node9&#45;&gt;Node11 -->
<g id="edge5" class="edge">
<title>Node9&#45;&gt;Node11</title>
<path fill="none" stroke="#191970" d="M440.1217,-80.8525C446.2613,-71.4313 452.8053,-61.3897 458.5763,-52.5341"/>
<polygon fill="#191970" stroke="#191970" points="437.1581,-78.9895 434.6306,-89.2784 443.0227,-82.8114 437.1581,-78.9895"/>
</g>
<!-- Node13&#45;&gt;Node7 -->
<g id="edge9" class="edge">
<title>Node13&#45;&gt;Node7</title>
<path fill="none" stroke="#191970" d="M314.7811,-435.3622C316.6326,-410.7207 322.0701,-379.779 336.5424,-356 345.2228,-341.7375 358.4495,-329.5224 371.7134,-319.774"/>
<polygon fill="#191970" stroke="#191970" points="311.2782,-435.3114 314.1912,-445.4978 318.2664,-435.7181 311.2782,-435.3114"/>
</g>
<!-- Node14 -->
<g id="node9" class="node">
<title>Node14</title>
<g id="a_node9"><a xlink:href="adl__serializer_8hpp.html" target="_top" xlink:title="/home/bdn_jz/bdn_jz\l/camera&#45;tracker&#45;cpp\l/CameraTrackerLinux/include\l/nlohmann/adl_serializer.hpp">
<polygon fill="#ffffff" stroke="#000000" points="345.5424,-356.5 345.5424,-408.5 489.5424,-408.5 489.5424,-356.5 345.5424,-356.5"/>
<text text-anchor="start" x="353.5424" y="-396.5" font-family="Helvetica,sans-Serif" font-size="10.00" fill="#000000">/home/bdn_jz/bdn_jz</text>
<text text-anchor="start" x="353.5424" y="-385.5" font-family="Helvetica,sans-Serif" font-size="10.00" fill="#000000">/camera&#45;tracker&#45;cpp</text>
<text text-anchor="start" x="353.5424" y="-374.5" font-family="Helvetica,sans-Serif" font-size="10.00" fill="#000000">/CameraTrackerLinux/include</text>
<text text-anchor="middle" x="417.5424" y="-363.5" font-family="Helvetica,sans-Serif" font-size="10.00" fill="#000000">/nlohmann/adl_serializer.hpp</text>
</a>
</g>
</g>
<!-- Node13&#45;&gt;Node14 -->
<g id="edge10" class="edge">
<title>Node13&#45;&gt;Node14</title>
<path fill="none" stroke="#191970" d="M356.5691,-438.4415C367.492,-428.42 379.0038,-417.8582 389.0466,-408.6442"/>
<polygon fill="#191970" stroke="#191970" points="354.1288,-435.9305 349.1264,-445.27 358.8612,-441.0885 354.1288,-435.9305"/>
</g>
<!-- Node14&#45;&gt;Node7 -->
<g id="edge11" class="edge">
<title>Node14&#45;&gt;Node7</title>
<path fill="none" stroke="#191970" d="M417.5424,-346.1155C417.5424,-337.2061 417.5424,-327.8475 417.5424,-319.5341"/>
<polygon fill="#191970" stroke="#191970" points="414.0425,-346.2784 417.5424,-356.2784 421.0425,-346.2785 414.0425,-346.2784"/>
</g>
<!-- Node15&#45;&gt;Node7 -->
<g id="edge13" class="edge">
<title>Node15&#45;&gt;Node7</title>
<path fill="none" stroke="#191970" d="M496.255,-435.8189C504.9534,-411.553 510.7514,-380.8415 498.5424,-356 491.3346,-341.3344 478.8462,-329.1378 465.8036,-319.5297"/>
<polygon fill="#191970" stroke="#191970" points="492.8733,-434.8601 492.534,-445.4495 499.4029,-437.383 492.8733,-434.8601"/>
</g>
<!-- Node15&#45;&gt;Node14 -->
<g id="edge14" class="edge">
<title>Node15&#45;&gt;Node14</title>
<path fill="none" stroke="#191970" d="M451.3828,-436.702C445.4539,-427.2058 439.286,-417.3266 433.8652,-408.6442"/>
<polygon fill="#191970" stroke="#191970" points="448.4672,-438.6411 456.7321,-445.27 454.405,-434.9339 448.4672,-438.6411"/>
</g>
<!-- Node16&#45;&gt;Node7 -->
<g id="edge16" class="edge">
<title>Node16&#45;&gt;Node7</title>
<path fill="none" stroke="#191970" d="M51.788,-538.4454C42.7773,-529.9016 34.7738,-520.0489 29.5424,-509 -1.3802,-443.6905 24.9605,-396.8844 84.5424,-356 126.0111,-327.5446 260.6589,-309.2175 345.5017,-300.1841"/>
<polygon fill="#191970" stroke="#191970" points="49.7448,-541.3107 59.5551,-545.3118 54.3811,-536.0662 49.7448,-541.3107"/>
</g>
<!-- Node17 -->
<g id="node12" class="node">
<title>Node17</title>
<g id="a_node12"><a xlink:href="binary__writer_8hpp.html" target="_top" xlink:title="/home/bdn_jz/bdn_jz\l/camera&#45;tracker&#45;cpp\l/CameraTrackerLinux/include\l/nlohmann/detail/output/binary\l_writer.hpp">
<polygon fill="#ffffff" stroke="#000000" points="39.0424,-445.5 39.0424,-508.5 186.0424,-508.5 186.0424,-445.5 39.0424,-445.5"/>
<text text-anchor="start" x="47.0424" y="-496.5" font-family="Helvetica,sans-Serif" font-size="10.00" fill="#000000">/home/bdn_jz/bdn_jz</text>
<text text-anchor="start" x="47.0424" y="-485.5" font-family="Helvetica,sans-Serif" font-size="10.00" fill="#000000">/camera&#45;tracker&#45;cpp</text>
<text text-anchor="start" x="47.0424" y="-474.5" font-family="Helvetica,sans-Serif" font-size="10.00" fill="#000000">/CameraTrackerLinux/include</text>
<text text-anchor="start" x="47.0424" y="-463.5" font-family="Helvetica,sans-Serif" font-size="10.00" fill="#000000">/nlohmann/detail/output/binary</text>
<text text-anchor="middle" x="112.5424" y="-452.5" font-family="Helvetica,sans-Serif" font-size="10.00" fill="#000000">_writer.hpp</text>
</a>
</g>
</g>
<!-- Node16&#45;&gt;Node17 -->
<g id="edge17" class="edge">
<title>Node16&#45;&gt;Node17</title>
<path fill="none" stroke="#191970" d="M112.5424,-535.2111C112.5424,-526.37 112.5424,-517.1767 112.5424,-508.778"/>
<polygon fill="#191970" stroke="#191970" points="109.0425,-535.3593 112.5424,-545.3594 116.0425,-535.3594 109.0425,-535.3593"/>
</g>
<!-- Node17&#45;&gt;Node7 -->
<g id="edge18" class="edge">
<title>Node17&#45;&gt;Node7</title>
<path fill="none" stroke="#191970" d="M94.7853,-435.8329C86.7295,-410.1415 82.5333,-377.9064 100.5424,-356 130.9104,-319.06 261.4411,-303.6017 345.2441,-297.3965"/>
<polygon fill="#191970" stroke="#191970" points="91.4818,-436.9897 98.0235,-445.3237 98.1068,-434.7292 91.4818,-436.9897"/>
</g>
<!-- Node17&#45;&gt;Node18 -->
<g id="edge19" class="edge">
<title>Node17&#45;&gt;Node18</title>
<path fill="none" stroke="#191970" d="M148.5735,-437.8628C157.6404,-428.0143 167.1535,-417.681 175.4732,-408.6442"/>
<polygon fill="#191970" stroke="#191970" points="145.9523,-435.5424 141.7541,-445.27 151.1022,-440.2836 145.9523,-435.5424"/>
</g>
<!-- Node18&#45;&gt;Node7 -->
<g id="edge20" class="edge">
<title>Node18&#45;&gt;Node7</title>
<path fill="none" stroke="#191970" d="M272.958,-352.5276C299.1054,-341.8527 328.3213,-329.9251 353.6093,-319.6011"/>
<polygon fill="#191970" stroke="#191970" points="271.4118,-349.3783 263.4766,-356.3984 274.0577,-355.859 271.4118,-349.3783"/>
</g>
<!-- Node19&#45;&gt;Node7 -->
<g id="edge22" class="edge">
<title>Node19&#45;&gt;Node7</title>
<path fill="none" stroke="#191970" d="M582.4851,-352.9328C552.4277,-342.1024 518.6658,-329.9372 489.5536,-319.4474"/>
<polygon fill="#191970" stroke="#191970" points="581.5088,-356.3012 592.1032,-356.3984 583.8817,-349.7157 581.5088,-356.3012"/>
</g>
<!-- Node20&#45;&gt;Node7 -->
<g id="edge24" class="edge">
<title>Node20&#45;&gt;Node7</title>
<path fill="none" stroke="#191970" d="M745.3371,-436.604C760.766,-411.1316 772.5351,-378.8513 753.5424,-356 720.6893,-316.4724 578.415,-301.8209 489.8696,-296.4791"/>
<polygon fill="#191970" stroke="#191970" points="742.2124,-434.9936 739.7715,-445.3034 748.109,-438.766 742.2124,-434.9936"/>
</g>
<!-- Node21&#45;&gt;Node7 -->
<g id="edge26" class="edge">
<title>Node21&#45;&gt;Node7</title>
<path fill="none" stroke="#191970" d="M540.1121,-537.5757C547.2373,-528.9305 553.5653,-519.2649 557.5424,-509 567.8187,-482.4768 563.6345,-472.7844 557.5424,-445 548.2148,-402.4596 545.2489,-388.751 516.5424,-356 503.9484,-341.6316 487.2553,-329.3884 471.1714,-319.6468"/>
<polygon fill="#191970" stroke="#191970" points="537.3674,-535.3967 533.389,-545.2163 542.6226,-540.0209 537.3674,-535.3967"/>
</g>
<!-- Node21&#45;&gt;Node15 -->
<g id="edge27" class="edge">
<title>Node21&#45;&gt;Node15</title>
<path fill="none" stroke="#191970" d="M487.6572,-535.4993C485.9607,-526.5699 484.1933,-517.268 482.5802,-508.778"/>
<polygon fill="#191970" stroke="#191970" points="484.2255,-536.1885 489.5307,-545.3594 491.1025,-534.8818 484.2255,-536.1885"/>
</g>
<!-- Node22&#45;&gt;Node7 -->
<g id="edge29" class="edge">
<title>Node22&#45;&gt;Node7</title>
<path fill="none" stroke="#191970" d="M808.4291,-540.8407C816.8958,-491.1693 823.0532,-402.6878 772.5424,-356 732.3313,-318.8324 581.2046,-303.2736 489.5955,-297.1487"/>
<polygon fill="#191970" stroke="#191970" points="804.9598,-540.356 806.6069,-550.822 811.846,-541.6132 804.9598,-540.356"/>
</g>
</g>
</svg>
