<?xml version="1.0" encoding="UTF-8" standalone="no"?>
<!DOCTYPE svg PUBLIC "-//W3C//DTD SVG 1.1//EN"
 "http://www.w3.org/Graphics/SVG/1.1/DTD/svg11.dtd">
<!-- Generated by graphviz version 2.40.1 (20161225.0304)
 -->
<!-- Title: /home/bdn_jz/bdn_jz/camera&#45;tracker&#45;cpp/CameraTrackerLinux/include/nlohmann/detail/meta/void_t.hpp Pages: 1 -->
<svg width="1038pt" height="1106pt"
 viewBox="0.00 0.00 1037.74 1106.00" xmlns="http://www.w3.org/2000/svg" xmlns:xlink="http://www.w3.org/1999/xlink">
<g id="graph0" class="graph" transform="scale(1 1) rotate(0) translate(4 1102)">
<title>/home/bdn_jz/bdn_jz/camera&#45;tracker&#45;cpp/CameraTrackerLinux/include/nlohmann/detail/meta/void_t.hpp</title>
<polygon fill="#ffffff" stroke="transparent" points="-4,4 -4,-1102 1033.7442,-1102 1033.7442,4 -4,4"/>
<!-- Node1 -->
<g id="node1" class="node">
<title>Node1</title>
<polygon fill="#bfbfbf" stroke="#000000" points="370.2442,-1045.5 370.2442,-1097.5 531.2442,-1097.5 531.2442,-1045.5 370.2442,-1045.5"/>
<text text-anchor="start" x="378.2442" y="-1085.5" font-family="Helvetica,sans-Serif" font-size="10.00" fill="#000000">/home/bdn_jz/bdn_jz</text>
<text text-anchor="start" x="378.2442" y="-1074.5" font-family="Helvetica,sans-Serif" font-size="10.00" fill="#000000">/camera&#45;tracker&#45;cpp</text>
<text text-anchor="start" x="378.2442" y="-1063.5" font-family="Helvetica,sans-Serif" font-size="10.00" fill="#000000">/CameraTrackerLinux/include</text>
<text text-anchor="middle" x="450.7442" y="-1052.5" font-family="Helvetica,sans-Serif" font-size="10.00" fill="#000000">/nlohmann/detail/meta/void_t.hpp</text>
</g>
<!-- Node2 -->
<g id="node2" class="node">
<title>Node2</title>
<g id="a_node2"><a xlink:href="iterator__traits_8hpp.html" target="_top" xlink:title="/home/bdn_jz/bdn_jz\l/camera&#45;tracker&#45;cpp\l/CameraTrackerLinux/include\l/nlohmann/detail/iterators\l/iterator_traits.hpp">
<polygon fill="#ffffff" stroke="#000000" points="290.7442,-945.5 290.7442,-1008.5 434.7442,-1008.5 434.7442,-945.5 290.7442,-945.5"/>
<text text-anchor="start" x="298.7442" y="-996.5" font-family="Helvetica,sans-Serif" font-size="10.00" fill="#000000">/home/bdn_jz/bdn_jz</text>
<text text-anchor="start" x="298.7442" y="-985.5" font-family="Helvetica,sans-Serif" font-size="10.00" fill="#000000">/camera&#45;tracker&#45;cpp</text>
<text text-anchor="start" x="298.7442" y="-974.5" font-family="Helvetica,sans-Serif" font-size="10.00" fill="#000000">/CameraTrackerLinux/include</text>
<text text-anchor="start" x="298.7442" y="-963.5" font-family="Helvetica,sans-Serif" font-size="10.00" fill="#000000">/nlohmann/detail/iterators</text>
<text text-anchor="middle" x="362.7442" y="-952.5" font-family="Helvetica,sans-Serif" font-size="10.00" fill="#000000">/iterator_traits.hpp</text>
</a>
</g>
</g>
<!-- Node1&#45;&gt;Node2 -->
<g id="edge1" class="edge">
<title>Node1&#45;&gt;Node2</title>
<path fill="none" stroke="#191970" d="M419.5435,-1037.9947C410.6712,-1028.467 401.0383,-1018.1226 392.2688,-1008.7054"/>
<polygon fill="#191970" stroke="#191970" points="417.0886,-1040.4942 426.4649,-1045.4273 422.2114,-1035.7238 417.0886,-1040.4942"/>
</g>
<!-- Node25 -->
<g id="node25" class="node">
<title>Node25</title>
<g id="a_node25"><a xlink:href="detected_8hpp.html" target="_top" xlink:title="/home/bdn_jz/bdn_jz\l/camera&#45;tracker&#45;cpp\l/CameraTrackerLinux/include\l/nlohmann/detail/meta/detected.hpp">
<polygon fill="#ffffff" stroke="#000000" points="452.7442,-951 452.7442,-1003 624.7442,-1003 624.7442,-951 452.7442,-951"/>
<text text-anchor="start" x="460.7442" y="-991" font-family="Helvetica,sans-Serif" font-size="10.00" fill="#000000">/home/bdn_jz/bdn_jz</text>
<text text-anchor="start" x="460.7442" y="-980" font-family="Helvetica,sans-Serif" font-size="10.00" fill="#000000">/camera&#45;tracker&#45;cpp</text>
<text text-anchor="start" x="460.7442" y="-969" font-family="Helvetica,sans-Serif" font-size="10.00" fill="#000000">/CameraTrackerLinux/include</text>
<text text-anchor="middle" x="538.7442" y="-958" font-family="Helvetica,sans-Serif" font-size="10.00" fill="#000000">/nlohmann/detail/meta/detected.hpp</text>
</a>
</g>
</g>
<!-- Node1&#45;&gt;Node25 -->
<g id="edge42" class="edge">
<title>Node1&#45;&gt;Node25</title>
<path fill="none" stroke="#191970" d="M482.1275,-1037.7986C492.6812,-1026.4654 504.2928,-1013.9962 514.2386,-1003.3157"/>
<polygon fill="#191970" stroke="#191970" points="479.2771,-1035.7238 475.0236,-1045.4273 484.3999,-1040.4942 479.2771,-1035.7238"/>
</g>
<!-- Node3 -->
<g id="node3" class="node">
<title>Node3</title>
<g id="a_node3"><a xlink:href="input__adapters_8hpp.html" target="_top" xlink:title="/home/bdn_jz/bdn_jz\l/camera&#45;tracker&#45;cpp\l/CameraTrackerLinux/include\l/nlohmann/detail/input/input\l_adapters.hpp">
<polygon fill="#ffffff" stroke="#000000" points="183.7442,-745.5 183.7442,-808.5 327.7442,-808.5 327.7442,-745.5 183.7442,-745.5"/>
<text text-anchor="start" x="191.7442" y="-796.5" font-family="Helvetica,sans-Serif" font-size="10.00" fill="#000000">/home/bdn_jz/bdn_jz</text>
<text text-anchor="start" x="191.7442" y="-785.5" font-family="Helvetica,sans-Serif" font-size="10.00" fill="#000000">/camera&#45;tracker&#45;cpp</text>
<text text-anchor="start" x="191.7442" y="-774.5" font-family="Helvetica,sans-Serif" font-size="10.00" fill="#000000">/CameraTrackerLinux/include</text>
<text text-anchor="start" x="191.7442" y="-763.5" font-family="Helvetica,sans-Serif" font-size="10.00" fill="#000000">/nlohmann/detail/input/input</text>
<text text-anchor="middle" x="255.7442" y="-752.5" font-family="Helvetica,sans-Serif" font-size="10.00" fill="#000000">_adapters.hpp</text>
</a>
</g>
</g>
<!-- Node2&#45;&gt;Node3 -->
<g id="edge2" class="edge">
<title>Node2&#45;&gt;Node3</title>
<path fill="none" stroke="#191970" d="M340.8666,-936.1073C320.6572,-898.3327 291.0577,-843.0064 272.6194,-808.5423"/>
<polygon fill="#191970" stroke="#191970" points="337.9863,-938.1431 345.7898,-945.3094 344.1585,-934.8409 337.9863,-938.1431"/>
</g>
<!-- Node17 -->
<g id="node17" class="node">
<title>Node17</title>
<g id="a_node17"><a xlink:href="type__traits_8hpp.html" target="_top" xlink:title="/home/bdn_jz/bdn_jz\l/camera&#45;tracker&#45;cpp\l/CameraTrackerLinux/include\l/nlohmann/detail/meta/type\l_traits.hpp">
<polygon fill="#ffffff" stroke="#000000" points="523.7442,-845.5 523.7442,-908.5 667.7442,-908.5 667.7442,-845.5 523.7442,-845.5"/>
<text text-anchor="start" x="531.7442" y="-896.5" font-family="Helvetica,sans-Serif" font-size="10.00" fill="#000000">/home/bdn_jz/bdn_jz</text>
<text text-anchor="start" x="531.7442" y="-885.5" font-family="Helvetica,sans-Serif" font-size="10.00" fill="#000000">/camera&#45;tracker&#45;cpp</text>
<text text-anchor="start" x="531.7442" y="-874.5" font-family="Helvetica,sans-Serif" font-size="10.00" fill="#000000">/CameraTrackerLinux/include</text>
<text text-anchor="start" x="531.7442" y="-863.5" font-family="Helvetica,sans-Serif" font-size="10.00" fill="#000000">/nlohmann/detail/meta/type</text>
<text text-anchor="middle" x="595.7442" y="-852.5" font-family="Helvetica,sans-Serif" font-size="10.00" fill="#000000">_traits.hpp</text>
</a>
</g>
</g>
<!-- Node2&#45;&gt;Node17 -->
<g id="edge23" class="edge">
<title>Node2&#45;&gt;Node17</title>
<path fill="none" stroke="#191970" d="M444.2602,-942.0146C470.084,-930.9314 498.4357,-918.7633 523.5569,-907.9817"/>
<polygon fill="#191970" stroke="#191970" points="442.6802,-938.8839 434.8712,-946.0442 445.4411,-945.3165 442.6802,-938.8839"/>
</g>
<!-- Node4 -->
<g id="node4" class="node">
<title>Node4</title>
<g id="a_node4"><a xlink:href="json_8hpp.html" target="_top" xlink:title="/home/bdn_jz/bdn_jz\l/camera&#45;tracker&#45;cpp\l/CameraTrackerLinux/include\l/nlohmann/json.hpp">
<polygon fill="#ffffff" stroke="#000000" points="409.7442,-356.5 409.7442,-408.5 553.7442,-408.5 553.7442,-356.5 409.7442,-356.5"/>
<text text-anchor="start" x="417.7442" y="-396.5" font-family="Helvetica,sans-Serif" font-size="10.00" fill="#000000">/home/bdn_jz/bdn_jz</text>
<text text-anchor="start" x="417.7442" y="-385.5" font-family="Helvetica,sans-Serif" font-size="10.00" fill="#000000">/camera&#45;tracker&#45;cpp</text>
<text text-anchor="start" x="417.7442" y="-374.5" font-family="Helvetica,sans-Serif" font-size="10.00" fill="#000000">/CameraTrackerLinux/include</text>
<text text-anchor="middle" x="481.7442" y="-363.5" font-family="Helvetica,sans-Serif" font-size="10.00" fill="#000000">/nlohmann/json.hpp</text>
</a>
</g>
</g>
<!-- Node3&#45;&gt;Node4 -->
<g id="edge3" class="edge">
<title>Node3&#45;&gt;Node4</title>
<path fill="none" stroke="#191970" d="M173.6419,-762.6311C117.0648,-750.8643 49.0707,-732.3671 31.7442,-709 -9.7218,-653.0775 -20.3246,-528.2129 63.7442,-445 87.9286,-421.0619 296.5391,-398.9991 409.6037,-388.6629"/>
<polygon fill="#191970" stroke="#191970" points="173.1987,-766.1126 183.6959,-764.6774 174.5949,-759.2532 173.1987,-766.1126"/>
</g>
<!-- Node12 -->
<g id="node12" class="node">
<title>Node12</title>
<g id="a_node12"><a xlink:href="binary__reader_8hpp.html" target="_top" xlink:title="/home/bdn_jz/bdn_jz\l/camera&#45;tracker&#45;cpp\l/CameraTrackerLinux/include\l/nlohmann/detail/input/binary\l_reader.hpp">
<polygon fill="#ffffff" stroke="#000000" points="40.7442,-645.5 40.7442,-708.5 184.7442,-708.5 184.7442,-645.5 40.7442,-645.5"/>
<text text-anchor="start" x="48.7442" y="-696.5" font-family="Helvetica,sans-Serif" font-size="10.00" fill="#000000">/home/bdn_jz/bdn_jz</text>
<text text-anchor="start" x="48.7442" y="-685.5" font-family="Helvetica,sans-Serif" font-size="10.00" fill="#000000">/camera&#45;tracker&#45;cpp</text>
<text text-anchor="start" x="48.7442" y="-674.5" font-family="Helvetica,sans-Serif" font-size="10.00" fill="#000000">/CameraTrackerLinux/include</text>
<text text-anchor="start" x="48.7442" y="-663.5" font-family="Helvetica,sans-Serif" font-size="10.00" fill="#000000">/nlohmann/detail/input/binary</text>
<text text-anchor="middle" x="112.7442" y="-652.5" font-family="Helvetica,sans-Serif" font-size="10.00" fill="#000000">_reader.hpp</text>
</a>
</g>
</g>
<!-- Node3&#45;&gt;Node12 -->
<g id="edge12" class="edge">
<title>Node3&#45;&gt;Node12</title>
<path fill="none" stroke="#191970" d="M202.1229,-739.5025C187.6604,-729.3889 172.1551,-718.546 158.1868,-708.778"/>
<polygon fill="#191970" stroke="#191970" points="200.2973,-742.4968 210.4981,-745.3594 204.3089,-736.7603 200.2973,-742.4968"/>
</g>
<!-- Node15 -->
<g id="node15" class="node">
<title>Node15</title>
<g id="a_node15"><a xlink:href="lexer_8hpp.html" target="_top" xlink:title="/home/bdn_jz/bdn_jz\l/camera&#45;tracker&#45;cpp\l/CameraTrackerLinux/include\l/nlohmann/detail/input/lexer.hpp">
<polygon fill="#ffffff" stroke="#000000" points="203.2442,-651 203.2442,-703 358.2442,-703 358.2442,-651 203.2442,-651"/>
<text text-anchor="start" x="211.2442" y="-691" font-family="Helvetica,sans-Serif" font-size="10.00" fill="#000000">/home/bdn_jz/bdn_jz</text>
<text text-anchor="start" x="211.2442" y="-680" font-family="Helvetica,sans-Serif" font-size="10.00" fill="#000000">/camera&#45;tracker&#45;cpp</text>
<text text-anchor="start" x="211.2442" y="-669" font-family="Helvetica,sans-Serif" font-size="10.00" fill="#000000">/CameraTrackerLinux/include</text>
<text text-anchor="middle" x="280.7442" y="-658" font-family="Helvetica,sans-Serif" font-size="10.00" fill="#000000">/nlohmann/detail/input/lexer.hpp</text>
</a>
</g>
</g>
<!-- Node3&#45;&gt;Node15 -->
<g id="edge18" class="edge">
<title>Node3&#45;&gt;Node15</title>
<path fill="none" stroke="#191970" d="M266.1194,-735.4993C268.8638,-724.5216 271.749,-712.9808 274.2247,-703.078"/>
<polygon fill="#191970" stroke="#191970" points="262.6843,-734.809 263.6544,-745.3594 269.4753,-736.5068 262.6843,-734.809"/>
</g>
<!-- Node16 -->
<g id="node16" class="node">
<title>Node16</title>
<g id="a_node16"><a xlink:href="parser_8hpp.html" target="_top" xlink:title="/home/bdn_jz/bdn_jz\l/camera&#45;tracker&#45;cpp\l/CameraTrackerLinux/include\l/nlohmann/detail/input/parser.hpp">
<polygon fill="#ffffff" stroke="#000000" points="306.2442,-551 306.2442,-603 467.2442,-603 467.2442,-551 306.2442,-551"/>
<text text-anchor="start" x="314.2442" y="-591" font-family="Helvetica,sans-Serif" font-size="10.00" fill="#000000">/home/bdn_jz/bdn_jz</text>
<text text-anchor="start" x="314.2442" y="-580" font-family="Helvetica,sans-Serif" font-size="10.00" fill="#000000">/camera&#45;tracker&#45;cpp</text>
<text text-anchor="start" x="314.2442" y="-569" font-family="Helvetica,sans-Serif" font-size="10.00" fill="#000000">/CameraTrackerLinux/include</text>
<text text-anchor="middle" x="386.7442" y="-558" font-family="Helvetica,sans-Serif" font-size="10.00" fill="#000000">/nlohmann/detail/input/parser.hpp</text>
</a>
</g>
</g>
<!-- Node3&#45;&gt;Node16 -->
<g id="edge22" class="edge">
<title>Node3&#45;&gt;Node16</title>
<path fill="none" stroke="#191970" d="M336.2557,-739.71C348.026,-731.1278 358.8263,-720.9347 366.7442,-709 387.8869,-677.1316 390.0838,-631.508 388.9741,-603.0994"/>
<polygon fill="#191970" stroke="#191970" points="334.2379,-736.8499 327.9756,-745.3959 338.2004,-742.6204 334.2379,-736.8499"/>
</g>
<!-- Node5 -->
<g id="node5" class="node">
<title>Node5</title>
<g id="a_node5"><a xlink:href="_json_utilization_8h.html" target="_top" xlink:title="This file contains the declaration of the namespace jsonUtilization. ">
<polygon fill="#ffffff" stroke="#000000" points="409.7442,-267.5 409.7442,-319.5 553.7442,-319.5 553.7442,-267.5 409.7442,-267.5"/>
<text text-anchor="start" x="417.7442" y="-307.5" font-family="Helvetica,sans-Serif" font-size="10.00" fill="#000000">/home/bdn_jz/bdn_jz</text>
<text text-anchor="start" x="417.7442" y="-296.5" font-family="Helvetica,sans-Serif" font-size="10.00" fill="#000000">/camera&#45;tracker&#45;cpp</text>
<text text-anchor="start" x="417.7442" y="-285.5" font-family="Helvetica,sans-Serif" font-size="10.00" fill="#000000">/CameraTrackerLinux/include</text>
<text text-anchor="middle" x="481.7442" y="-274.5" font-family="Helvetica,sans-Serif" font-size="10.00" fill="#000000">/JsonUtilization.h</text>
</a>
</g>
</g>
<!-- Node4&#45;&gt;Node5 -->
<g id="edge4" class="edge">
<title>Node4&#45;&gt;Node5</title>
<path fill="none" stroke="#191970" d="M481.7442,-346.1155C481.7442,-337.2061 481.7442,-327.8475 481.7442,-319.5341"/>
<polygon fill="#191970" stroke="#191970" points="478.2443,-346.2784 481.7442,-356.2784 485.2443,-346.2785 478.2443,-346.2784"/>
</g>
<!-- Node6 -->
<g id="node6" class="node">
<title>Node6</title>
<g id="a_node6"><a xlink:href="_pose_estimation_8h.html" target="_top" xlink:title="This file contains the declaration of the PoseEstimation class. ">
<polygon fill="#ffffff" stroke="#000000" points="332.7442,-178.5 332.7442,-230.5 476.7442,-230.5 476.7442,-178.5 332.7442,-178.5"/>
<text text-anchor="start" x="340.7442" y="-218.5" font-family="Helvetica,sans-Serif" font-size="10.00" fill="#000000">/home/bdn_jz/bdn_jz</text>
<text text-anchor="start" x="340.7442" y="-207.5" font-family="Helvetica,sans-Serif" font-size="10.00" fill="#000000">/camera&#45;tracker&#45;cpp</text>
<text text-anchor="start" x="340.7442" y="-196.5" font-family="Helvetica,sans-Serif" font-size="10.00" fill="#000000">/CameraTrackerLinux/include</text>
<text text-anchor="middle" x="404.7442" y="-185.5" font-family="Helvetica,sans-Serif" font-size="10.00" fill="#000000">/PoseEstimation.h</text>
</a>
</g>
</g>
<!-- Node5&#45;&gt;Node6 -->
<g id="edge5" class="edge">
<title>Node5&#45;&gt;Node6</title>
<path fill="none" stroke="#191970" d="M452.5153,-259.7159C444.1502,-250.0472 435.1642,-239.6608 427.2682,-230.5341"/>
<polygon fill="#191970" stroke="#191970" points="449.8684,-262.0059 459.0582,-267.2784 455.1622,-257.4259 449.8684,-262.0059"/>
</g>
<!-- Node11 -->
<g id="node11" class="node">
<title>Node11</title>
<g id="a_node11"><a xlink:href="_json_utilization_8cpp.html" target="_top" xlink:title="/home/bdn_jz/bdn_jz\l/camera&#45;tracker&#45;cpp\l/CameraTrackerLinux/src\l/JsonUtilization.cpp">
<polygon fill="#ffffff" stroke="#000000" points="495.2442,-178.5 495.2442,-230.5 622.2442,-230.5 622.2442,-178.5 495.2442,-178.5"/>
<text text-anchor="start" x="503.2442" y="-218.5" font-family="Helvetica,sans-Serif" font-size="10.00" fill="#000000">/home/bdn_jz/bdn_jz</text>
<text text-anchor="start" x="503.2442" y="-207.5" font-family="Helvetica,sans-Serif" font-size="10.00" fill="#000000">/camera&#45;tracker&#45;cpp</text>
<text text-anchor="start" x="503.2442" y="-196.5" font-family="Helvetica,sans-Serif" font-size="10.00" fill="#000000">/CameraTrackerLinux/src</text>
<text text-anchor="middle" x="558.7442" y="-185.5" font-family="Helvetica,sans-Serif" font-size="10.00" fill="#000000">/JsonUtilization.cpp</text>
</a>
</g>
</g>
<!-- Node5&#45;&gt;Node11 -->
<g id="edge11" class="edge">
<title>Node5&#45;&gt;Node11</title>
<path fill="none" stroke="#191970" d="M510.9732,-259.7159C519.3383,-250.0472 528.3242,-239.6608 536.2203,-230.5341"/>
<polygon fill="#191970" stroke="#191970" points="508.3263,-257.4259 504.4303,-267.2784 513.6201,-262.0059 508.3263,-257.4259"/>
</g>
<!-- Node7 -->
<g id="node7" class="node">
<title>Node7</title>
<g id="a_node7"><a xlink:href="_tracker_8h.html" target="_top" xlink:title="This file contains declarations of the Tracker class. ">
<polygon fill="#ffffff" stroke="#000000" points="332.7442,-89.5 332.7442,-141.5 476.7442,-141.5 476.7442,-89.5 332.7442,-89.5"/>
<text text-anchor="start" x="340.7442" y="-129.5" font-family="Helvetica,sans-Serif" font-size="10.00" fill="#000000">/home/bdn_jz/bdn_jz</text>
<text text-anchor="start" x="340.7442" y="-118.5" font-family="Helvetica,sans-Serif" font-size="10.00" fill="#000000">/camera&#45;tracker&#45;cpp</text>
<text text-anchor="start" x="340.7442" y="-107.5" font-family="Helvetica,sans-Serif" font-size="10.00" fill="#000000">/CameraTrackerLinux/include</text>
<text text-anchor="middle" x="404.7442" y="-96.5" font-family="Helvetica,sans-Serif" font-size="10.00" fill="#000000">/Tracker.h</text>
</a>
</g>
</g>
<!-- Node6&#45;&gt;Node7 -->
<g id="edge6" class="edge">
<title>Node6&#45;&gt;Node7</title>
<path fill="none" stroke="#191970" d="M404.7442,-168.1155C404.7442,-159.2061 404.7442,-149.8475 404.7442,-141.5341"/>
<polygon fill="#191970" stroke="#191970" points="401.2443,-168.2784 404.7442,-178.2784 408.2443,-168.2785 401.2443,-168.2784"/>
</g>
<!-- Node8 -->
<g id="node8" class="node">
<title>Node8</title>
<g id="a_node8"><a xlink:href="main_8cpp.html" target="_top" xlink:title="/home/bdn_jz/bdn_jz\l/camera&#45;tracker&#45;cpp\l/CameraTrackerLinux/main.cpp">
<polygon fill="#ffffff" stroke="#000000" points="228.2442,-6 228.2442,-47 381.2442,-47 381.2442,-6 228.2442,-6"/>
<text text-anchor="start" x="236.2442" y="-35" font-family="Helvetica,sans-Serif" font-size="10.00" fill="#000000">/home/bdn_jz/bdn_jz</text>
<text text-anchor="start" x="236.2442" y="-24" font-family="Helvetica,sans-Serif" font-size="10.00" fill="#000000">/camera&#45;tracker&#45;cpp</text>
<text text-anchor="middle" x="304.7442" y="-13" font-family="Helvetica,sans-Serif" font-size="10.00" fill="#000000">/CameraTrackerLinux/main.cpp</text>
</a>
</g>
</g>
<!-- Node6&#45;&gt;Node8 -->
<g id="edge9" class="edge">
<title>Node6&#45;&gt;Node8</title>
<path fill="none" stroke="#191970" d="M350.7312,-172.0704C340.3301,-163.5125 330.5657,-153.4232 323.7442,-142 306.1363,-112.5138 303.4961,-71.623 303.7351,-47.2355"/>
<polygon fill="#191970" stroke="#191970" points="348.7258,-174.9445 358.7709,-178.313 353.0189,-169.4155 348.7258,-174.9445"/>
</g>
<!-- Node10 -->
<g id="node10" class="node">
<title>Node10</title>
<g id="a_node10"><a xlink:href="_pose_estimation_8cpp.html" target="_top" xlink:title="/home/bdn_jz/bdn_jz\l/camera&#45;tracker&#45;cpp\l/CameraTrackerLinux/src\l/PoseEstimation.cpp">
<polygon fill="#ffffff" stroke="#000000" points="495.2442,-89.5 495.2442,-141.5 622.2442,-141.5 622.2442,-89.5 495.2442,-89.5"/>
<text text-anchor="start" x="503.2442" y="-129.5" font-family="Helvetica,sans-Serif" font-size="10.00" fill="#000000">/home/bdn_jz/bdn_jz</text>
<text text-anchor="start" x="503.2442" y="-118.5" font-family="Helvetica,sans-Serif" font-size="10.00" fill="#000000">/camera&#45;tracker&#45;cpp</text>
<text text-anchor="start" x="503.2442" y="-107.5" font-family="Helvetica,sans-Serif" font-size="10.00" fill="#000000">/CameraTrackerLinux/src</text>
<text text-anchor="middle" x="558.7442" y="-96.5" font-family="Helvetica,sans-Serif" font-size="10.00" fill="#000000">/PoseEstimation.cpp</text>
</a>
</g>
</g>
<!-- Node6&#45;&gt;Node10 -->
<g id="edge10" class="edge">
<title>Node6&#45;&gt;Node10</title>
<path fill="none" stroke="#191970" d="M459.2517,-172.9989C477.0716,-162.7004 496.6534,-151.3837 513.6964,-141.5341"/>
<polygon fill="#191970" stroke="#191970" points="457.0232,-170.2443 450.1164,-178.2784 460.5258,-176.305 457.0232,-170.2443"/>
</g>
<!-- Node7&#45;&gt;Node8 -->
<g id="edge7" class="edge">
<title>Node7&#45;&gt;Node8</title>
<path fill="none" stroke="#191970" d="M367.6396,-82.4768C354.3511,-70.6501 339.7582,-57.6625 327.9769,-47.1771"/>
<polygon fill="#191970" stroke="#191970" points="365.4849,-85.2446 375.2818,-89.2784 370.1387,-80.0156 365.4849,-85.2446"/>
</g>
<!-- Node9 -->
<g id="node9" class="node">
<title>Node9</title>
<g id="a_node9"><a xlink:href="_tracker_8cpp.html" target="_top" xlink:title="/home/bdn_jz/bdn_jz\l/camera&#45;tracker&#45;cpp\l/CameraTrackerLinux/src\l/Tracker.cpp">
<polygon fill="#ffffff" stroke="#000000" points="399.2442,-.5 399.2442,-52.5 526.2442,-52.5 526.2442,-.5 399.2442,-.5"/>
<text text-anchor="start" x="407.2442" y="-40.5" font-family="Helvetica,sans-Serif" font-size="10.00" fill="#000000">/home/bdn_jz/bdn_jz</text>
<text text-anchor="start" x="407.2442" y="-29.5" font-family="Helvetica,sans-Serif" font-size="10.00" fill="#000000">/camera&#45;tracker&#45;cpp</text>
<text text-anchor="start" x="407.2442" y="-18.5" font-family="Helvetica,sans-Serif" font-size="10.00" fill="#000000">/CameraTrackerLinux/src</text>
<text text-anchor="middle" x="462.7442" y="-7.5" font-family="Helvetica,sans-Serif" font-size="10.00" fill="#000000">/Tracker.cpp</text>
</a>
</g>
</g>
<!-- Node7&#45;&gt;Node9 -->
<g id="edge8" class="edge">
<title>Node7&#45;&gt;Node9</title>
<path fill="none" stroke="#191970" d="M427.3235,-80.8525C433.4632,-71.4313 440.0071,-61.3897 445.7782,-52.5341"/>
<polygon fill="#191970" stroke="#191970" points="424.36,-78.9895 421.8325,-89.2784 430.2246,-82.8114 424.36,-78.9895"/>
</g>
<!-- Node12&#45;&gt;Node4 -->
<g id="edge13" class="edge">
<title>Node12&#45;&gt;Node4</title>
<path fill="none" stroke="#191970" d="M89.967,-636.0398C86.1487,-627.3581 82.7718,-618.0704 80.7442,-609 64.674,-537.109 50.8326,-495.2007 104.7442,-445 147.8967,-404.8179 312.8772,-390.3041 409.7026,-385.1857"/>
<polygon fill="#191970" stroke="#191970" points="86.8356,-637.6062 94.2405,-645.1836 93.1772,-634.6423 86.8356,-637.6062"/>
</g>
<!-- Node13 -->
<g id="node13" class="node">
<title>Node13</title>
<g id="a_node13"><a xlink:href="binary__writer_8hpp.html" target="_top" xlink:title="/home/bdn_jz/bdn_jz\l/camera&#45;tracker&#45;cpp\l/CameraTrackerLinux/include\l/nlohmann/detail/output/binary\l_writer.hpp">
<polygon fill="#ffffff" stroke="#000000" points="90.2442,-545.5 90.2442,-608.5 237.2442,-608.5 237.2442,-545.5 90.2442,-545.5"/>
<text text-anchor="start" x="98.2442" y="-596.5" font-family="Helvetica,sans-Serif" font-size="10.00" fill="#000000">/home/bdn_jz/bdn_jz</text>
<text text-anchor="start" x="98.2442" y="-585.5" font-family="Helvetica,sans-Serif" font-size="10.00" fill="#000000">/camera&#45;tracker&#45;cpp</text>
<text text-anchor="start" x="98.2442" y="-574.5" font-family="Helvetica,sans-Serif" font-size="10.00" fill="#000000">/CameraTrackerLinux/include</text>
<text text-anchor="start" x="98.2442" y="-563.5" font-family="Helvetica,sans-Serif" font-size="10.00" fill="#000000">/nlohmann/detail/output/binary</text>
<text text-anchor="middle" x="163.7442" y="-552.5" font-family="Helvetica,sans-Serif" font-size="10.00" fill="#000000">_writer.hpp</text>
</a>
</g>
</g>
<!-- Node12&#45;&gt;Node13 -->
<g id="edge14" class="edge">
<title>Node12&#45;&gt;Node13</title>
<path fill="none" stroke="#191970" d="M133.4695,-636.3622C138.1571,-627.1709 143.0679,-617.5418 147.5374,-608.778"/>
<polygon fill="#191970" stroke="#191970" points="130.3063,-634.8608 128.881,-645.3594 136.5422,-638.0412 130.3063,-634.8608"/>
</g>
<!-- Node13&#45;&gt;Node4 -->
<g id="edge15" class="edge">
<title>Node13&#45;&gt;Node4</title>
<path fill="none" stroke="#191970" d="M131.3126,-536.7783C112.6154,-508.458 96.76,-471.0929 118.7442,-445 137.2859,-422.9931 309.215,-401.0344 409.6638,-389.9359"/>
<polygon fill="#191970" stroke="#191970" points="128.6043,-539.0158 137.1677,-545.2544 134.3638,-535.0373 128.6043,-539.0158"/>
</g>
<!-- Node14 -->
<g id="node14" class="node">
<title>Node14</title>
<g id="a_node14"><a xlink:href="serializer_8hpp.html" target="_top" xlink:title="/home/bdn_jz/bdn_jz\l/camera&#45;tracker&#45;cpp\l/CameraTrackerLinux/include\l/nlohmann/detail/output/serializer.hpp">
<polygon fill="#ffffff" stroke="#000000" points="128.2442,-451 128.2442,-503 307.2442,-503 307.2442,-451 128.2442,-451"/>
<text text-anchor="start" x="136.2442" y="-491" font-family="Helvetica,sans-Serif" font-size="10.00" fill="#000000">/home/bdn_jz/bdn_jz</text>
<text text-anchor="start" x="136.2442" y="-480" font-family="Helvetica,sans-Serif" font-size="10.00" fill="#000000">/camera&#45;tracker&#45;cpp</text>
<text text-anchor="start" x="136.2442" y="-469" font-family="Helvetica,sans-Serif" font-size="10.00" fill="#000000">/CameraTrackerLinux/include</text>
<text text-anchor="middle" x="217.7442" y="-458" font-family="Helvetica,sans-Serif" font-size="10.00" fill="#000000">/nlohmann/detail/output/serializer.hpp</text>
</a>
</g>
</g>
<!-- Node13&#45;&gt;Node14 -->
<g id="edge16" class="edge">
<title>Node13&#45;&gt;Node14</title>
<path fill="none" stroke="#191970" d="M185.6111,-536.5058C191.7002,-525.2297 198.1509,-513.284 203.6621,-503.078"/>
<polygon fill="#191970" stroke="#191970" points="182.502,-534.8973 180.8302,-545.3594 188.6614,-538.2233 182.502,-534.8973"/>
</g>
<!-- Node14&#45;&gt;Node4 -->
<g id="edge17" class="edge">
<title>Node14&#45;&gt;Node4</title>
<path fill="none" stroke="#191970" d="M300.3078,-447.446C335.3353,-434.9078 375.7914,-420.4263 409.601,-408.324"/>
<polygon fill="#191970" stroke="#191970" points="298.8177,-444.2618 290.5822,-450.9273 301.1768,-450.8524 298.8177,-444.2618"/>
</g>
<!-- Node15&#45;&gt;Node4 -->
<g id="edge19" class="edge">
<title>Node15&#45;&gt;Node4</title>
<path fill="none" stroke="#191970" d="M278.3526,-640.7574C278.0708,-613.011 281.1314,-574.6025 296.7442,-545 328.553,-484.6896 392.5397,-436.4511 436.2599,-408.6536"/>
<polygon fill="#191970" stroke="#191970" points="274.8555,-640.9197 278.6051,-650.8288 281.8533,-640.7442 274.8555,-640.9197"/>
</g>
<!-- Node15&#45;&gt;Node16 -->
<g id="edge20" class="edge">
<title>Node15&#45;&gt;Node16</title>
<path fill="none" stroke="#191970" d="M315.8736,-643.8591C329.8756,-630.6496 345.7623,-615.6622 358.9405,-603.2299"/>
<polygon fill="#191970" stroke="#191970" points="313.19,-641.5791 308.3178,-650.9872 317.9935,-646.6709 313.19,-641.5791"/>
</g>
<!-- Node16&#45;&gt;Node4 -->
<g id="edge21" class="edge">
<title>Node16&#45;&gt;Node4</title>
<path fill="none" stroke="#191970" d="M404.0765,-541.5144C422.8178,-503.1442 452.2482,-442.8892 468.9838,-408.6254"/>
<polygon fill="#191970" stroke="#191970" points="400.8003,-540.2473 399.5564,-550.7689 407.0901,-543.3195 400.8003,-540.2473"/>
</g>
<!-- Node17&#45;&gt;Node4 -->
<g id="edge24" class="edge">
<title>Node17&#45;&gt;Node4</title>
<path fill="none" stroke="#191970" d="M581.1486,-835.6575C563.2052,-783.446 532.9065,-690.5666 514.7442,-609 498.766,-537.2419 488.6477,-450.9111 484.2642,-408.5441"/>
<polygon fill="#191970" stroke="#191970" points="577.8829,-836.9235 584.4573,-845.2317 584.4989,-834.637 577.8829,-836.9235"/>
</g>
<!-- Node18 -->
<g id="node18" class="node">
<title>Node18</title>
<g id="a_node18"><a xlink:href="from__json_8hpp.html" target="_top" xlink:title="/home/bdn_jz/bdn_jz\l/camera&#45;tracker&#45;cpp\l/CameraTrackerLinux/include\l/nlohmann/detail/conversions\l/from_json.hpp">
<polygon fill="#ffffff" stroke="#000000" points="523.7442,-545.5 523.7442,-608.5 667.7442,-608.5 667.7442,-545.5 523.7442,-545.5"/>
<text text-anchor="start" x="531.7442" y="-596.5" font-family="Helvetica,sans-Serif" font-size="10.00" fill="#000000">/home/bdn_jz/bdn_jz</text>
<text text-anchor="start" x="531.7442" y="-585.5" font-family="Helvetica,sans-Serif" font-size="10.00" fill="#000000">/camera&#45;tracker&#45;cpp</text>
<text text-anchor="start" x="531.7442" y="-574.5" font-family="Helvetica,sans-Serif" font-size="10.00" fill="#000000">/CameraTrackerLinux/include</text>
<text text-anchor="start" x="531.7442" y="-563.5" font-family="Helvetica,sans-Serif" font-size="10.00" fill="#000000">/nlohmann/detail/conversions</text>
<text text-anchor="middle" x="595.7442" y="-552.5" font-family="Helvetica,sans-Serif" font-size="10.00" fill="#000000">/from_json.hpp</text>
</a>
</g>
</g>
<!-- Node17&#45;&gt;Node18 -->
<g id="edge25" class="edge">
<title>Node17&#45;&gt;Node18</title>
<path fill="none" stroke="#191970" d="M595.7442,-835.4554C595.7442,-774.7313 595.7442,-663.0516 595.7442,-608.5658"/>
<polygon fill="#191970" stroke="#191970" points="592.2443,-835.4617 595.7442,-845.4618 599.2443,-835.4618 592.2443,-835.4617"/>
</g>
<!-- Node20 -->
<g id="node20" class="node">
<title>Node20</title>
<g id="a_node20"><a xlink:href="to__json_8hpp.html" target="_top" xlink:title="/home/bdn_jz/bdn_jz\l/camera&#45;tracker&#45;cpp\l/CameraTrackerLinux/include\l/nlohmann/detail/conversions\l/to_json.hpp">
<polygon fill="#ffffff" stroke="#000000" points="685.7442,-545.5 685.7442,-608.5 829.7442,-608.5 829.7442,-545.5 685.7442,-545.5"/>
<text text-anchor="start" x="693.7442" y="-596.5" font-family="Helvetica,sans-Serif" font-size="10.00" fill="#000000">/home/bdn_jz/bdn_jz</text>
<text text-anchor="start" x="693.7442" y="-585.5" font-family="Helvetica,sans-Serif" font-size="10.00" fill="#000000">/camera&#45;tracker&#45;cpp</text>
<text text-anchor="start" x="693.7442" y="-574.5" font-family="Helvetica,sans-Serif" font-size="10.00" fill="#000000">/CameraTrackerLinux/include</text>
<text text-anchor="start" x="693.7442" y="-563.5" font-family="Helvetica,sans-Serif" font-size="10.00" fill="#000000">/nlohmann/detail/conversions</text>
<text text-anchor="middle" x="757.7442" y="-552.5" font-family="Helvetica,sans-Serif" font-size="10.00" fill="#000000">/to_json.hpp</text>
</a>
</g>
</g>
<!-- Node17&#45;&gt;Node20 -->
<g id="edge29" class="edge">
<title>Node17&#45;&gt;Node20</title>
<path fill="none" stroke="#191970" d="M607.3666,-835.4188C624.0121,-777.5983 655.0248,-676.4652 676.7442,-645 686.1316,-631.4004 698.9298,-618.9585 711.5803,-608.5411"/>
<polygon fill="#191970" stroke="#191970" points="603.9136,-834.7639 604.5288,-845.3408 610.6438,-836.6888 603.9136,-834.7639"/>
</g>
<!-- Node21 -->
<g id="node21" class="node">
<title>Node21</title>
<g id="a_node21"><a xlink:href="iter__impl_8hpp.html" target="_top" xlink:title="/home/bdn_jz/bdn_jz\l/camera&#45;tracker&#45;cpp\l/CameraTrackerLinux/include\l/nlohmann/detail/iterators\l/iter_impl.hpp">
<polygon fill="#ffffff" stroke="#000000" points="747.7442,-445.5 747.7442,-508.5 891.7442,-508.5 891.7442,-445.5 747.7442,-445.5"/>
<text text-anchor="start" x="755.7442" y="-496.5" font-family="Helvetica,sans-Serif" font-size="10.00" fill="#000000">/home/bdn_jz/bdn_jz</text>
<text text-anchor="start" x="755.7442" y="-485.5" font-family="Helvetica,sans-Serif" font-size="10.00" fill="#000000">/camera&#45;tracker&#45;cpp</text>
<text text-anchor="start" x="755.7442" y="-474.5" font-family="Helvetica,sans-Serif" font-size="10.00" fill="#000000">/CameraTrackerLinux/include</text>
<text text-anchor="start" x="755.7442" y="-463.5" font-family="Helvetica,sans-Serif" font-size="10.00" fill="#000000">/nlohmann/detail/iterators</text>
<text text-anchor="middle" x="819.7442" y="-452.5" font-family="Helvetica,sans-Serif" font-size="10.00" fill="#000000">/iter_impl.hpp</text>
</a>
</g>
</g>
<!-- Node17&#45;&gt;Node21 -->
<g id="edge32" class="edge">
<title>Node17&#45;&gt;Node21</title>
<path fill="none" stroke="#191970" d="M677.1088,-845.4031C733.8738,-818.5197 805.2332,-773.8501 838.7442,-709 872.2314,-644.1961 849.0509,-555.4404 832.4653,-508.7251"/>
<polygon fill="#191970" stroke="#191970" points="675.3755,-842.3486 667.7732,-849.728 678.318,-848.7002 675.3755,-842.3486"/>
</g>
<!-- Node22 -->
<g id="node22" class="node">
<title>Node22</title>
<g id="a_node22"><a xlink:href="iteration__proxy_8hpp.html" target="_top" xlink:title="/home/bdn_jz/bdn_jz\l/camera&#45;tracker&#45;cpp\l/CameraTrackerLinux/include\l/nlohmann/detail/iterators\l/iteration_proxy.hpp">
<polygon fill="#ffffff" stroke="#000000" points="685.7442,-645.5 685.7442,-708.5 829.7442,-708.5 829.7442,-645.5 685.7442,-645.5"/>
<text text-anchor="start" x="693.7442" y="-696.5" font-family="Helvetica,sans-Serif" font-size="10.00" fill="#000000">/home/bdn_jz/bdn_jz</text>
<text text-anchor="start" x="693.7442" y="-685.5" font-family="Helvetica,sans-Serif" font-size="10.00" fill="#000000">/camera&#45;tracker&#45;cpp</text>
<text text-anchor="start" x="693.7442" y="-674.5" font-family="Helvetica,sans-Serif" font-size="10.00" fill="#000000">/CameraTrackerLinux/include</text>
<text text-anchor="start" x="693.7442" y="-663.5" font-family="Helvetica,sans-Serif" font-size="10.00" fill="#000000">/nlohmann/detail/iterators</text>
<text text-anchor="middle" x="757.7442" y="-652.5" font-family="Helvetica,sans-Serif" font-size="10.00" fill="#000000">/iteration_proxy.hpp</text>
</a>
</g>
</g>
<!-- Node17&#45;&gt;Node22 -->
<g id="edge34" class="edge">
<title>Node17&#45;&gt;Node22</title>
<path fill="none" stroke="#191970" d="M634.2532,-837.6378C642.852,-828.4257 651.7778,-818.5184 659.7442,-809 687.4057,-775.9498 716.531,-735.9636 735.7694,-708.7224"/>
<polygon fill="#191970" stroke="#191970" points="631.4479,-835.5112 627.1354,-845.1887 636.5416,-840.3127 631.4479,-835.5112"/>
</g>
<!-- Node23 -->
<g id="node23" class="node">
<title>Node23</title>
<g id="a_node23"><a xlink:href="json__ref_8hpp.html" target="_top" xlink:title="/home/bdn_jz/bdn_jz\l/camera&#45;tracker&#45;cpp\l/CameraTrackerLinux/include\l/nlohmann/detail/json_ref.hpp">
<polygon fill="#ffffff" stroke="#000000" points="885.7442,-751 885.7442,-803 1029.7442,-803 1029.7442,-751 885.7442,-751"/>
<text text-anchor="start" x="893.7442" y="-791" font-family="Helvetica,sans-Serif" font-size="10.00" fill="#000000">/home/bdn_jz/bdn_jz</text>
<text text-anchor="start" x="893.7442" y="-780" font-family="Helvetica,sans-Serif" font-size="10.00" fill="#000000">/camera&#45;tracker&#45;cpp</text>
<text text-anchor="start" x="893.7442" y="-769" font-family="Helvetica,sans-Serif" font-size="10.00" fill="#000000">/CameraTrackerLinux/include</text>
<text text-anchor="middle" x="957.7442" y="-758" font-family="Helvetica,sans-Serif" font-size="10.00" fill="#000000">/nlohmann/detail/json_ref.hpp</text>
</a>
</g>
</g>
<!-- Node17&#45;&gt;Node23 -->
<g id="edge37" class="edge">
<title>Node17&#45;&gt;Node23</title>
<path fill="none" stroke="#191970" d="M677.9315,-859.3493C733.1711,-846.8522 807.3669,-828.8362 871.7442,-809 877.6817,-807.1705 883.8061,-805.1558 889.9226,-803.0547"/>
<polygon fill="#191970" stroke="#191970" points="676.8327,-856.0089 667.8443,-861.6178 678.3685,-862.8384 676.8327,-856.0089"/>
</g>
<!-- Node24 -->
<g id="node24" class="node">
<title>Node24</title>
<g id="a_node24"><a xlink:href="is__sax_8hpp.html" target="_top" xlink:title="/home/bdn_jz/bdn_jz\l/camera&#45;tracker&#45;cpp\l/CameraTrackerLinux/include\l/nlohmann/detail/meta/is\l_sax.hpp">
<polygon fill="#ffffff" stroke="#000000" points="345.7442,-745.5 345.7442,-808.5 489.7442,-808.5 489.7442,-745.5 345.7442,-745.5"/>
<text text-anchor="start" x="353.7442" y="-796.5" font-family="Helvetica,sans-Serif" font-size="10.00" fill="#000000">/home/bdn_jz/bdn_jz</text>
<text text-anchor="start" x="353.7442" y="-785.5" font-family="Helvetica,sans-Serif" font-size="10.00" fill="#000000">/camera&#45;tracker&#45;cpp</text>
<text text-anchor="start" x="353.7442" y="-774.5" font-family="Helvetica,sans-Serif" font-size="10.00" fill="#000000">/CameraTrackerLinux/include</text>
<text text-anchor="start" x="353.7442" y="-763.5" font-family="Helvetica,sans-Serif" font-size="10.00" fill="#000000">/nlohmann/detail/meta/is</text>
<text text-anchor="middle" x="417.7442" y="-752.5" font-family="Helvetica,sans-Serif" font-size="10.00" fill="#000000">_sax.hpp</text>
</a>
</g>
</g>
<!-- Node17&#45;&gt;Node24 -->
<g id="edge39" class="edge">
<title>Node17&#45;&gt;Node24</title>
<path fill="none" stroke="#191970" d="M530.4655,-840.3265C511.9432,-829.9208 491.9423,-818.6843 474.0035,-808.6063"/>
<polygon fill="#191970" stroke="#191970" points="528.9912,-843.5128 539.4239,-845.3594 532.4198,-837.4099 528.9912,-843.5128"/>
</g>
<!-- Node18&#45;&gt;Node4 -->
<g id="edge26" class="edge">
<title>Node18&#45;&gt;Node4</title>
<path fill="none" stroke="#191970" d="M559.542,-537.4921C552.1728,-528.4763 544.8246,-518.6878 538.7442,-509 518.2558,-476.3556 501.1122,-435.1026 491.1358,-408.7535"/>
<polygon fill="#191970" stroke="#191970" points="556.8882,-539.7745 565.992,-545.1941 562.255,-535.2802 556.8882,-539.7745"/>
</g>
<!-- Node19 -->
<g id="node19" class="node">
<title>Node19</title>
<g id="a_node19"><a xlink:href="adl__serializer_8hpp.html" target="_top" xlink:title="/home/bdn_jz/bdn_jz\l/camera&#45;tracker&#45;cpp\l/CameraTrackerLinux/include\l/nlohmann/adl_serializer.hpp">
<polygon fill="#ffffff" stroke="#000000" points="547.7442,-451 547.7442,-503 691.7442,-503 691.7442,-451 547.7442,-451"/>
<text text-anchor="start" x="555.7442" y="-491" font-family="Helvetica,sans-Serif" font-size="10.00" fill="#000000">/home/bdn_jz/bdn_jz</text>
<text text-anchor="start" x="555.7442" y="-480" font-family="Helvetica,sans-Serif" font-size="10.00" fill="#000000">/camera&#45;tracker&#45;cpp</text>
<text text-anchor="start" x="555.7442" y="-469" font-family="Helvetica,sans-Serif" font-size="10.00" fill="#000000">/CameraTrackerLinux/include</text>
<text text-anchor="middle" x="619.7442" y="-458" font-family="Helvetica,sans-Serif" font-size="10.00" fill="#000000">/nlohmann/adl_serializer.hpp</text>
</a>
</g>
</g>
<!-- Node18&#45;&gt;Node19 -->
<g id="edge27" class="edge">
<title>Node18&#45;&gt;Node19</title>
<path fill="none" stroke="#191970" d="M605.7044,-535.4993C608.3391,-524.5216 611.1088,-512.9808 613.4855,-503.078"/>
<polygon fill="#191970" stroke="#191970" points="602.2684,-534.8187 603.338,-545.3594 609.0752,-536.4523 602.2684,-534.8187"/>
</g>
<!-- Node19&#45;&gt;Node4 -->
<g id="edge28" class="edge">
<title>Node19&#45;&gt;Node4</title>
<path fill="none" stroke="#191970" d="M573.3766,-445.2483C556.0892,-433.4101 536.6702,-420.1124 520.1735,-408.8157"/>
<polygon fill="#191970" stroke="#191970" points="571.4414,-448.165 581.6698,-450.9273 575.3965,-442.3894 571.4414,-448.165"/>
</g>
<!-- Node20&#45;&gt;Node4 -->
<g id="edge30" class="edge">
<title>Node20&#45;&gt;Node4</title>
<path fill="none" stroke="#191970" d="M744.2231,-535.54C732.4205,-501.7034 714.9992,-457.5172 700.7442,-445 678.7214,-425.6618 608.762,-407.7613 553.7718,-396.1185"/>
<polygon fill="#191970" stroke="#191970" points="740.9879,-536.8958 747.5456,-545.2173 747.6086,-534.6227 740.9879,-536.8958"/>
</g>
<!-- Node20&#45;&gt;Node19 -->
<g id="edge31" class="edge">
<title>Node20&#45;&gt;Node19</title>
<path fill="none" stroke="#191970" d="M705.5409,-539.1715C688.9278,-527.133 670.9317,-514.0923 655.7318,-503.078"/>
<polygon fill="#191970" stroke="#191970" points="703.9289,-542.3257 714.0802,-545.3594 708.0364,-536.6575 703.9289,-542.3257"/>
</g>
<!-- Node21&#45;&gt;Node4 -->
<g id="edge33" class="edge">
<title>Node21&#45;&gt;Node4</title>
<path fill="none" stroke="#191970" d="M738.0548,-446.3531C736.6089,-445.8924 735.1712,-445.4409 733.7442,-445 673.7738,-426.471 604.4838,-409.6072 553.7567,-398.0794"/>
<polygon fill="#191970" stroke="#191970" points="737.0939,-449.7214 747.6867,-449.514 739.2765,-443.0703 737.0939,-449.7214"/>
</g>
<!-- Node22&#45;&gt;Node4 -->
<g id="edge35" class="edge">
<title>Node22&#45;&gt;Node4</title>
<path fill="none" stroke="#191970" d="M809.9622,-639.1904C870.1073,-591.1382 954.1787,-506.9962 900.7442,-445 878.4464,-419.1294 667.9136,-397.8968 554.0463,-388.1919"/>
<polygon fill="#191970" stroke="#191970" points="807.7151,-636.505 802.0204,-645.4392 812.0436,-642.0063 807.7151,-636.505"/>
</g>
<!-- Node22&#45;&gt;Node20 -->
<g id="edge36" class="edge">
<title>Node22&#45;&gt;Node20</title>
<path fill="none" stroke="#191970" d="M757.7442,-635.2111C757.7442,-626.37 757.7442,-617.1767 757.7442,-608.778"/>
<polygon fill="#191970" stroke="#191970" points="754.2443,-635.3593 757.7442,-645.3594 761.2443,-635.3594 754.2443,-635.3593"/>
</g>
<!-- Node23&#45;&gt;Node4 -->
<g id="edge38" class="edge">
<title>Node23&#45;&gt;Node4</title>
<path fill="none" stroke="#191970" d="M966.6265,-740.7917C980.9438,-672.7268 1000.2583,-525.3361 922.7442,-445 897.5758,-418.9152 672.7043,-397.513 554.165,-387.927"/>
<polygon fill="#191970" stroke="#191970" points="963.1929,-740.11 964.4749,-750.627 970.0312,-741.6061 963.1929,-740.11"/>
</g>
<!-- Node24&#45;&gt;Node12 -->
<g id="edge40" class="edge">
<title>Node24&#45;&gt;Node12</title>
<path fill="none" stroke="#191970" d="M335.8251,-744.8573C272.5524,-725.2547 253.2058,-728.1412 193.7442,-709 190.8657,-708.0734 187.9425,-707.0962 184.9993,-706.0821"/>
<polygon fill="#191970" stroke="#191970" points="334.8991,-748.2353 345.4892,-747.9179 337.0126,-741.5619 334.8991,-748.2353"/>
</g>
<!-- Node24&#45;&gt;Node16 -->
<g id="edge41" class="edge">
<title>Node24&#45;&gt;Node16</title>
<path fill="none" stroke="#191970" d="M413.1692,-735.1696C410.1227,-709.1525 405.7646,-675.0454 400.7442,-645 398.4201,-631.0906 395.2961,-615.6916 392.5888,-603.07"/>
<polygon fill="#191970" stroke="#191970" points="409.7299,-735.8975 414.352,-745.4309 416.6838,-735.0958 409.7299,-735.8975"/>
</g>
<!-- Node25&#45;&gt;Node17 -->
<g id="edge44" class="edge">
<title>Node25&#45;&gt;Node17</title>
<path fill="none" stroke="#191970" d="M558.6216,-942.1274C564.838,-931.2215 571.6585,-919.2557 577.7384,-908.5891"/>
<polygon fill="#191970" stroke="#191970" points="555.4829,-940.5662 553.5715,-950.9872 561.5643,-944.0327 555.4829,-940.5662"/>
</g>
<!-- Node25&#45;&gt;Node24 -->
<g id="edge43" class="edge">
<title>Node25&#45;&gt;Node24</title>
<path fill="none" stroke="#191970" d="M517.7218,-942.2521C494.9663,-904.6398 458.9857,-845.1678 436.9609,-808.7631"/>
<polygon fill="#191970" stroke="#191970" points="514.7546,-944.1092 522.9256,-950.8535 520.7438,-940.4857 514.7546,-944.1092"/>
</g>
</g>
</svg>
