<?xml version="1.0" encoding="UTF-8" standalone="no"?>
<!DOCTYPE svg PUBLIC "-//W3C//DTD SVG 1.1//EN"
 "http://www.w3.org/Graphics/SVG/1.1/DTD/svg11.dtd">
<!-- Generated by graphviz version 2.40.1 (20161225.0304)
 -->
<!-- Title: /home/bdn_jz/bdn_jz/camera&#45;tracker&#45;cpp/CameraTrackerLinux/include/nlohmann/detail/meta/void_t.hpp Pages: 1 -->
<!--zoomable 928 -->
<svg id="main" version="1.1" xmlns="http://www.w3.org/2000/svg" xmlns:xlink="http://www.w3.org/1999/xlink" xml:space="preserve" onload="init(evt)">
<style type="text/css"><![CDATA[
.edge:hover path { stroke: red; }
.edge:hover polygon { stroke: red; fill: red; }
]]></style>
<script type="text/javascript"><![CDATA[
var edges = document.getElementsByTagName('g');
if (edges && edges.length) {
  for (var i=0;i<edges.length;i++) {
    if (edges[i].id.substr(0,4)=='edge') {
      edges[i].setAttribute('class','edge');
    }
  }
}
]]></script>
        <defs>
                <circle id="rim" cx="0" cy="0" r="7"/>
                <circle id="rim2" cx="0" cy="0" r="3.5"/>
                <g id="zoomPlus">
                        <use xlink:href="#rim" fill="#404040">
                                <set attributeName="fill" to="#808080" begin="zoomplus.mouseover" end="zoomplus.mouseout"/>
                        </use>
                        <path d="M-4,0h8M0,-4v8" fill="none" stroke="white" stroke-width="1.5" pointer-events="none"/>
                </g>
                <g id="zoomMin">
                        <use xlink:href="#rim" fill="#404040">
                                <set attributeName="fill" to="#808080" begin="zoomminus.mouseover" end="zoomminus.mouseout"/>
                        </use>
                        <path d="M-4,0h8" fill="none" stroke="white" stroke-width="1.5" pointer-events="none"/>
                </g>
                <g id="dirArrow">
                        <path fill="none" stroke="white" stroke-width="1.5" d="M0,-3.0v7 M-2.5,-0.5L0,-3.0L2.5,-0.5"/>
                </g>
               <g id="resetDef">
                       <use xlink:href="#rim2" fill="#404040">
                               <set attributeName="fill" to="#808080" begin="reset.mouseover" end="reset.mouseout"/>
                       </use>
               </g>
        </defs>

<script type="text/javascript">
var viewWidth = 1038;
var viewHeight = 928;
var sectionId = 'dynsection-0';
</script>
<script xlink:href="svgpan.js"/>
<svg id="graph" class="graph">
<g id="viewport">
<title>/home/bdn_jz/bdn_jz/camera&#45;tracker&#45;cpp/CameraTrackerLinux/include/nlohmann/detail/meta/void_t.hpp</title>
<polygon fill="#ffffff" stroke="transparent" points="-4,4 -4,-924 1033.7442,-924 1033.7442,4 -4,4"/>
<!-- Node1 -->
<g id="node1" class="node">
<title>Node1</title>
<polygon fill="#bfbfbf" stroke="#000000" points="370.2442,-867.5 370.2442,-919.5 531.2442,-919.5 531.2442,-867.5 370.2442,-867.5"/>
<text text-anchor="start" x="378.2442" y="-907.5" font-family="Helvetica,sans-Serif" font-size="10.00" fill="#000000">/home/bdn_jz/bdn_jz</text>
<text text-anchor="start" x="378.2442" y="-896.5" font-family="Helvetica,sans-Serif" font-size="10.00" fill="#000000">/camera&#45;tracker&#45;cpp</text>
<text text-anchor="start" x="378.2442" y="-885.5" font-family="Helvetica,sans-Serif" font-size="10.00" fill="#000000">/CameraTrackerLinux/include</text>
<text text-anchor="middle" x="450.7442" y="-874.5" font-family="Helvetica,sans-Serif" font-size="10.00" fill="#000000">/nlohmann/detail/meta/void_t.hpp</text>
</g>
<!-- Node2 -->
<g id="node2" class="node">
<title>Node2</title>
<g id="a_node2"><a xlink:href="iterator__traits_8hpp.html" target="_top" xlink:title="/home/bdn_jz/bdn_jz\l/camera&#45;tracker&#45;cpp\l/CameraTrackerLinux/include\l/nlohmann/detail/iterators\l/iterator_traits.hpp">
<polygon fill="#ffffff" stroke="#000000" points="290.7442,-767.5 290.7442,-830.5 434.7442,-830.5 434.7442,-767.5 290.7442,-767.5"/>
<text text-anchor="start" x="298.7442" y="-818.5" font-family="Helvetica,sans-Serif" font-size="10.00" fill="#000000">/home/bdn_jz/bdn_jz</text>
<text text-anchor="start" x="298.7442" y="-807.5" font-family="Helvetica,sans-Serif" font-size="10.00" fill="#000000">/camera&#45;tracker&#45;cpp</text>
<text text-anchor="start" x="298.7442" y="-796.5" font-family="Helvetica,sans-Serif" font-size="10.00" fill="#000000">/CameraTrackerLinux/include</text>
<text text-anchor="start" x="298.7442" y="-785.5" font-family="Helvetica,sans-Serif" font-size="10.00" fill="#000000">/nlohmann/detail/iterators</text>
<text text-anchor="middle" x="362.7442" y="-774.5" font-family="Helvetica,sans-Serif" font-size="10.00" fill="#000000">/iterator_traits.hpp</text>
</a>
</g>
</g>
<!-- Node1&#45;&gt;Node2 -->
<g id="edge1" class="edge">
<title>Node1&#45;&gt;Node2</title>
<path fill="none" stroke="#191970" d="M419.5435,-859.9947C410.6712,-850.467 401.0383,-840.1226 392.2688,-830.7054"/>
<polygon fill="#191970" stroke="#191970" points="417.0886,-862.4942 426.4649,-867.4273 422.2114,-857.7238 417.0886,-862.4942"/>
</g>
<!-- Node21 -->
<g id="node21" class="node">
<title>Node21</title>
<g id="a_node21"><a xlink:href="detected_8hpp.html" target="_top" xlink:title="/home/bdn_jz/bdn_jz\l/camera&#45;tracker&#45;cpp\l/CameraTrackerLinux/include\l/nlohmann/detail/meta/detected.hpp">
<polygon fill="#ffffff" stroke="#000000" points="452.7442,-773 452.7442,-825 624.7442,-825 624.7442,-773 452.7442,-773"/>
<text text-anchor="start" x="460.7442" y="-813" font-family="Helvetica,sans-Serif" font-size="10.00" fill="#000000">/home/bdn_jz/bdn_jz</text>
<text text-anchor="start" x="460.7442" y="-802" font-family="Helvetica,sans-Serif" font-size="10.00" fill="#000000">/camera&#45;tracker&#45;cpp</text>
<text text-anchor="start" x="460.7442" y="-791" font-family="Helvetica,sans-Serif" font-size="10.00" fill="#000000">/CameraTrackerLinux/include</text>
<text text-anchor="middle" x="538.7442" y="-780" font-family="Helvetica,sans-Serif" font-size="10.00" fill="#000000">/nlohmann/detail/meta/detected.hpp</text>
</a>
</g>
</g>
<!-- Node1&#45;&gt;Node21 -->
<g id="edge37" class="edge">
<title>Node1&#45;&gt;Node21</title>
<path fill="none" stroke="#191970" d="M482.1275,-859.7986C492.6812,-848.4654 504.2928,-835.9962 514.2386,-825.3157"/>
<polygon fill="#191970" stroke="#191970" points="479.2771,-857.7238 475.0236,-867.4273 484.3999,-862.4942 479.2771,-857.7238"/>
</g>
<!-- Node3 -->
<g id="node3" class="node">
<title>Node3</title>
<g id="a_node3"><a xlink:href="input__adapters_8hpp.html" target="_top" xlink:title="/home/bdn_jz/bdn_jz\l/camera&#45;tracker&#45;cpp\l/CameraTrackerLinux/include\l/nlohmann/detail/input/input\l_adapters.hpp">
<polygon fill="#ffffff" stroke="#000000" points="183.7442,-567.5 183.7442,-630.5 327.7442,-630.5 327.7442,-567.5 183.7442,-567.5"/>
<text text-anchor="start" x="191.7442" y="-618.5" font-family="Helvetica,sans-Serif" font-size="10.00" fill="#000000">/home/bdn_jz/bdn_jz</text>
<text text-anchor="start" x="191.7442" y="-607.5" font-family="Helvetica,sans-Serif" font-size="10.00" fill="#000000">/camera&#45;tracker&#45;cpp</text>
<text text-anchor="start" x="191.7442" y="-596.5" font-family="Helvetica,sans-Serif" font-size="10.00" fill="#000000">/CameraTrackerLinux/include</text>
<text text-anchor="start" x="191.7442" y="-585.5" font-family="Helvetica,sans-Serif" font-size="10.00" fill="#000000">/nlohmann/detail/input/input</text>
<text text-anchor="middle" x="255.7442" y="-574.5" font-family="Helvetica,sans-Serif" font-size="10.00" fill="#000000">_adapters.hpp</text>
</a>
</g>
</g>
<!-- Node2&#45;&gt;Node3 -->
<g id="edge2" class="edge">
<title>Node2&#45;&gt;Node3</title>
<path fill="none" stroke="#191970" d="M340.8666,-758.1073C320.6572,-720.3327 291.0577,-665.0064 272.6194,-630.5423"/>
<polygon fill="#191970" stroke="#191970" points="337.9863,-760.1431 345.7898,-767.3094 344.1585,-756.8409 337.9863,-760.1431"/>
</g>
<!-- Node13 -->
<g id="node13" class="node">
<title>Node13</title>
<g id="a_node13"><a xlink:href="type__traits_8hpp.html" target="_top" xlink:title="/home/bdn_jz/bdn_jz\l/camera&#45;tracker&#45;cpp\l/CameraTrackerLinux/include\l/nlohmann/detail/meta/type\l_traits.hpp">
<polygon fill="#ffffff" stroke="#000000" points="523.7442,-667.5 523.7442,-730.5 667.7442,-730.5 667.7442,-667.5 523.7442,-667.5"/>
<text text-anchor="start" x="531.7442" y="-718.5" font-family="Helvetica,sans-Serif" font-size="10.00" fill="#000000">/home/bdn_jz/bdn_jz</text>
<text text-anchor="start" x="531.7442" y="-707.5" font-family="Helvetica,sans-Serif" font-size="10.00" fill="#000000">/camera&#45;tracker&#45;cpp</text>
<text text-anchor="start" x="531.7442" y="-696.5" font-family="Helvetica,sans-Serif" font-size="10.00" fill="#000000">/CameraTrackerLinux/include</text>
<text text-anchor="start" x="531.7442" y="-685.5" font-family="Helvetica,sans-Serif" font-size="10.00" fill="#000000">/nlohmann/detail/meta/type</text>
<text text-anchor="middle" x="595.7442" y="-674.5" font-family="Helvetica,sans-Serif" font-size="10.00" fill="#000000">_traits.hpp</text>
</a>
</g>
</g>
<!-- Node2&#45;&gt;Node13 -->
<g id="edge18" class="edge">
<title>Node2&#45;&gt;Node13</title>
<path fill="none" stroke="#191970" d="M444.2602,-764.0146C470.084,-752.9314 498.4357,-740.7633 523.5569,-729.9817"/>
<polygon fill="#191970" stroke="#191970" points="442.6802,-760.8839 434.8712,-768.0442 445.4411,-767.3165 442.6802,-760.8839"/>
</g>
<!-- Node4 -->
<g id="node4" class="node">
<title>Node4</title>
<g id="a_node4"><a xlink:href="json_8hpp.html" target="_top" xlink:title="/home/bdn_jz/bdn_jz\l/camera&#45;tracker&#45;cpp\l/CameraTrackerLinux/include\l/nlohmann/json.hpp">
<polygon fill="#ffffff" stroke="#000000" points="409.7442,-178.5 409.7442,-230.5 553.7442,-230.5 553.7442,-178.5 409.7442,-178.5"/>
<text text-anchor="start" x="417.7442" y="-218.5" font-family="Helvetica,sans-Serif" font-size="10.00" fill="#000000">/home/bdn_jz/bdn_jz</text>
<text text-anchor="start" x="417.7442" y="-207.5" font-family="Helvetica,sans-Serif" font-size="10.00" fill="#000000">/camera&#45;tracker&#45;cpp</text>
<text text-anchor="start" x="417.7442" y="-196.5" font-family="Helvetica,sans-Serif" font-size="10.00" fill="#000000">/CameraTrackerLinux/include</text>
<text text-anchor="middle" x="481.7442" y="-185.5" font-family="Helvetica,sans-Serif" font-size="10.00" fill="#000000">/nlohmann/json.hpp</text>
</a>
</g>
</g>
<!-- Node3&#45;&gt;Node4 -->
<g id="edge3" class="edge">
<title>Node3&#45;&gt;Node4</title>
<path fill="none" stroke="#191970" d="M173.6419,-584.6311C117.0648,-572.8643 49.0707,-554.3671 31.7442,-531 -9.7218,-475.0775 -20.3246,-350.2129 63.7442,-267 87.9286,-243.0619 296.5391,-220.9991 409.6037,-210.6629"/>
<polygon fill="#191970" stroke="#191970" points="173.1987,-588.1126 183.6959,-586.6774 174.5949,-581.2532 173.1987,-588.1126"/>
</g>
<!-- Node8 -->
<g id="node8" class="node">
<title>Node8</title>
<g id="a_node8"><a xlink:href="binary__reader_8hpp.html" target="_top" xlink:title="/home/bdn_jz/bdn_jz\l/camera&#45;tracker&#45;cpp\l/CameraTrackerLinux/include\l/nlohmann/detail/input/binary\l_reader.hpp">
<polygon fill="#ffffff" stroke="#000000" points="40.7442,-467.5 40.7442,-530.5 184.7442,-530.5 184.7442,-467.5 40.7442,-467.5"/>
<text text-anchor="start" x="48.7442" y="-518.5" font-family="Helvetica,sans-Serif" font-size="10.00" fill="#000000">/home/bdn_jz/bdn_jz</text>
<text text-anchor="start" x="48.7442" y="-507.5" font-family="Helvetica,sans-Serif" font-size="10.00" fill="#000000">/camera&#45;tracker&#45;cpp</text>
<text text-anchor="start" x="48.7442" y="-496.5" font-family="Helvetica,sans-Serif" font-size="10.00" fill="#000000">/CameraTrackerLinux/include</text>
<text text-anchor="start" x="48.7442" y="-485.5" font-family="Helvetica,sans-Serif" font-size="10.00" fill="#000000">/nlohmann/detail/input/binary</text>
<text text-anchor="middle" x="112.7442" y="-474.5" font-family="Helvetica,sans-Serif" font-size="10.00" fill="#000000">_reader.hpp</text>
</a>
</g>
</g>
<!-- Node3&#45;&gt;Node8 -->
<g id="edge7" class="edge">
<title>Node3&#45;&gt;Node8</title>
<path fill="none" stroke="#191970" d="M202.1229,-561.5025C187.6604,-551.3889 172.1551,-540.546 158.1868,-530.778"/>
<polygon fill="#191970" stroke="#191970" points="200.2973,-564.4968 210.4981,-567.3594 204.3089,-558.7603 200.2973,-564.4968"/>
</g>
<!-- Node11 -->
<g id="node11" class="node">
<title>Node11</title>
<g id="a_node11"><a xlink:href="lexer_8hpp.html" target="_top" xlink:title="/home/bdn_jz/bdn_jz\l/camera&#45;tracker&#45;cpp\l/CameraTrackerLinux/include\l/nlohmann/detail/input/lexer.hpp">
<polygon fill="#ffffff" stroke="#000000" points="203.2442,-473 203.2442,-525 358.2442,-525 358.2442,-473 203.2442,-473"/>
<text text-anchor="start" x="211.2442" y="-513" font-family="Helvetica,sans-Serif" font-size="10.00" fill="#000000">/home/bdn_jz/bdn_jz</text>
<text text-anchor="start" x="211.2442" y="-502" font-family="Helvetica,sans-Serif" font-size="10.00" fill="#000000">/camera&#45;tracker&#45;cpp</text>
<text text-anchor="start" x="211.2442" y="-491" font-family="Helvetica,sans-Serif" font-size="10.00" fill="#000000">/CameraTrackerLinux/include</text>
<text text-anchor="middle" x="280.7442" y="-480" font-family="Helvetica,sans-Serif" font-size="10.00" fill="#000000">/nlohmann/detail/input/lexer.hpp</text>
</a>
</g>
</g>
<!-- Node3&#45;&gt;Node11 -->
<g id="edge13" class="edge">
<title>Node3&#45;&gt;Node11</title>
<path fill="none" stroke="#191970" d="M266.1194,-557.4993C268.8638,-546.5216 271.749,-534.9808 274.2247,-525.078"/>
<polygon fill="#191970" stroke="#191970" points="262.6843,-556.809 263.6544,-567.3594 269.4753,-558.5068 262.6843,-556.809"/>
</g>
<!-- Node12 -->
<g id="node12" class="node">
<title>Node12</title>
<g id="a_node12"><a xlink:href="parser_8hpp.html" target="_top" xlink:title="/home/bdn_jz/bdn_jz\l/camera&#45;tracker&#45;cpp\l/CameraTrackerLinux/include\l/nlohmann/detail/input/parser.hpp">
<polygon fill="#ffffff" stroke="#000000" points="306.2442,-373 306.2442,-425 467.2442,-425 467.2442,-373 306.2442,-373"/>
<text text-anchor="start" x="314.2442" y="-413" font-family="Helvetica,sans-Serif" font-size="10.00" fill="#000000">/home/bdn_jz/bdn_jz</text>
<text text-anchor="start" x="314.2442" y="-402" font-family="Helvetica,sans-Serif" font-size="10.00" fill="#000000">/camera&#45;tracker&#45;cpp</text>
<text text-anchor="start" x="314.2442" y="-391" font-family="Helvetica,sans-Serif" font-size="10.00" fill="#000000">/CameraTrackerLinux/include</text>
<text text-anchor="middle" x="386.7442" y="-380" font-family="Helvetica,sans-Serif" font-size="10.00" fill="#000000">/nlohmann/detail/input/parser.hpp</text>
</a>
</g>
</g>
<!-- Node3&#45;&gt;Node12 -->
<g id="edge17" class="edge">
<title>Node3&#45;&gt;Node12</title>
<path fill="none" stroke="#191970" d="M336.2557,-561.71C348.026,-553.1278 358.8263,-542.9347 366.7442,-531 387.8869,-499.1316 390.0838,-453.508 388.9741,-425.0994"/>
<polygon fill="#191970" stroke="#191970" points="334.2379,-558.8499 327.9756,-567.3959 338.2004,-564.6204 334.2379,-558.8499"/>
</g>
<!-- Node5 -->
<g id="node5" class="node">
<title>Node5</title>
<g id="a_node5"><a xlink:href="_json_utilization_8h.html" target="_top" xlink:title="This file contains the declaration of the namespace jsonUtilization. ">
<polygon fill="#ffffff" stroke="#000000" points="409.7442,-89.5 409.7442,-141.5 553.7442,-141.5 553.7442,-89.5 409.7442,-89.5"/>
<text text-anchor="start" x="417.7442" y="-129.5" font-family="Helvetica,sans-Serif" font-size="10.00" fill="#000000">/home/bdn_jz/bdn_jz</text>
<text text-anchor="start" x="417.7442" y="-118.5" font-family="Helvetica,sans-Serif" font-size="10.00" fill="#000000">/camera&#45;tracker&#45;cpp</text>
<text text-anchor="start" x="417.7442" y="-107.5" font-family="Helvetica,sans-Serif" font-size="10.00" fill="#000000">/CameraTrackerLinux/include</text>
<text text-anchor="middle" x="481.7442" y="-96.5" font-family="Helvetica,sans-Serif" font-size="10.00" fill="#000000">/JsonUtilization.h</text>
</a>
</g>
</g>
<!-- Node4&#45;&gt;Node5 -->
<g id="edge4" class="edge">
<title>Node4&#45;&gt;Node5</title>
<path fill="none" stroke="#191970" d="M481.7442,-168.1155C481.7442,-159.2061 481.7442,-149.8475 481.7442,-141.5341"/>
<polygon fill="#191970" stroke="#191970" points="478.2443,-168.2784 481.7442,-178.2784 485.2443,-168.2785 478.2443,-168.2784"/>
</g>
<!-- Node6 -->
<g id="node6" class="node">
<title>Node6</title>
<g id="a_node6"><a xlink:href="main_8cpp.html" target="_top" xlink:title="/home/bdn_jz/bdn_jz\l/camera&#45;tracker&#45;cpp\l/CameraTrackerLinux/main.cpp">
<polygon fill="#ffffff" stroke="#000000" points="326.2442,-6 326.2442,-47 479.2442,-47 479.2442,-6 326.2442,-6"/>
<text text-anchor="start" x="334.2442" y="-35" font-family="Helvetica,sans-Serif" font-size="10.00" fill="#000000">/home/bdn_jz/bdn_jz</text>
<text text-anchor="start" x="334.2442" y="-24" font-family="Helvetica,sans-Serif" font-size="10.00" fill="#000000">/camera&#45;tracker&#45;cpp</text>
<text text-anchor="middle" x="402.7442" y="-13" font-family="Helvetica,sans-Serif" font-size="10.00" fill="#000000">/CameraTrackerLinux/main.cpp</text>
</a>
</g>
</g>
<!-- Node5&#45;&gt;Node6 -->
<g id="edge5" class="edge">
<title>Node5&#45;&gt;Node6</title>
<path fill="none" stroke="#191970" d="M451.5462,-81.4794C441.2889,-69.9238 430.1443,-57.3685 421.0981,-47.1771"/>
<polygon fill="#191970" stroke="#191970" points="449.2129,-84.1231 458.4689,-89.2784 454.448,-79.4762 449.2129,-84.1231"/>
</g>
<!-- Node7 -->
<g id="node7" class="node">
<title>Node7</title>
<g id="a_node7"><a xlink:href="_json_utilization_8cpp.html" target="_top" xlink:title="/home/bdn_jz/bdn_jz\l/camera&#45;tracker&#45;cpp\l/CameraTrackerLinux/src\l/JsonUtilization.cpp">
<polygon fill="#ffffff" stroke="#000000" points="497.2442,-.5 497.2442,-52.5 624.2442,-52.5 624.2442,-.5 497.2442,-.5"/>
<text text-anchor="start" x="505.2442" y="-40.5" font-family="Helvetica,sans-Serif" font-size="10.00" fill="#000000">/home/bdn_jz/bdn_jz</text>
<text text-anchor="start" x="505.2442" y="-29.5" font-family="Helvetica,sans-Serif" font-size="10.00" fill="#000000">/camera&#45;tracker&#45;cpp</text>
<text text-anchor="start" x="505.2442" y="-18.5" font-family="Helvetica,sans-Serif" font-size="10.00" fill="#000000">/CameraTrackerLinux/src</text>
<text text-anchor="middle" x="560.7442" y="-7.5" font-family="Helvetica,sans-Serif" font-size="10.00" fill="#000000">/JsonUtilization.cpp</text>
</a>
</g>
</g>
<!-- Node5&#45;&gt;Node7 -->
<g id="edge6" class="edge">
<title>Node5&#45;&gt;Node7</title>
<path fill="none" stroke="#191970" d="M511.7324,-81.7159C520.3147,-72.0472 529.5341,-61.6608 537.6353,-52.5341"/>
<polygon fill="#191970" stroke="#191970" points="509.0405,-79.4762 505.0196,-89.2784 514.2756,-84.1231 509.0405,-79.4762"/>
</g>
<!-- Node8&#45;&gt;Node4 -->
<g id="edge8" class="edge">
<title>Node8&#45;&gt;Node4</title>
<path fill="none" stroke="#191970" d="M89.967,-458.0398C86.1487,-449.3581 82.7718,-440.0704 80.7442,-431 64.674,-359.109 50.8326,-317.2007 104.7442,-267 147.8967,-226.8179 312.8772,-212.3041 409.7026,-207.1857"/>
<polygon fill="#191970" stroke="#191970" points="86.8356,-459.6062 94.2405,-467.1836 93.1772,-456.6423 86.8356,-459.6062"/>
</g>
<!-- Node9 -->
<g id="node9" class="node">
<title>Node9</title>
<g id="a_node9"><a xlink:href="binary__writer_8hpp.html" target="_top" xlink:title="/home/bdn_jz/bdn_jz\l/camera&#45;tracker&#45;cpp\l/CameraTrackerLinux/include\l/nlohmann/detail/output/binary\l_writer.hpp">
<polygon fill="#ffffff" stroke="#000000" points="90.2442,-367.5 90.2442,-430.5 237.2442,-430.5 237.2442,-367.5 90.2442,-367.5"/>
<text text-anchor="start" x="98.2442" y="-418.5" font-family="Helvetica,sans-Serif" font-size="10.00" fill="#000000">/home/bdn_jz/bdn_jz</text>
<text text-anchor="start" x="98.2442" y="-407.5" font-family="Helvetica,sans-Serif" font-size="10.00" fill="#000000">/camera&#45;tracker&#45;cpp</text>
<text text-anchor="start" x="98.2442" y="-396.5" font-family="Helvetica,sans-Serif" font-size="10.00" fill="#000000">/CameraTrackerLinux/include</text>
<text text-anchor="start" x="98.2442" y="-385.5" font-family="Helvetica,sans-Serif" font-size="10.00" fill="#000000">/nlohmann/detail/output/binary</text>
<text text-anchor="middle" x="163.7442" y="-374.5" font-family="Helvetica,sans-Serif" font-size="10.00" fill="#000000">_writer.hpp</text>
</a>
</g>
</g>
<!-- Node8&#45;&gt;Node9 -->
<g id="edge9" class="edge">
<title>Node8&#45;&gt;Node9</title>
<path fill="none" stroke="#191970" d="M133.4695,-458.3622C138.1571,-449.1709 143.0679,-439.5418 147.5374,-430.778"/>
<polygon fill="#191970" stroke="#191970" points="130.3063,-456.8608 128.881,-467.3594 136.5422,-460.0412 130.3063,-456.8608"/>
</g>
<!-- Node9&#45;&gt;Node4 -->
<g id="edge10" class="edge">
<title>Node9&#45;&gt;Node4</title>
<path fill="none" stroke="#191970" d="M131.3126,-358.7783C112.6154,-330.458 96.76,-293.0929 118.7442,-267 137.2859,-244.9931 309.215,-223.0344 409.6638,-211.9359"/>
<polygon fill="#191970" stroke="#191970" points="128.6043,-361.0158 137.1677,-367.2544 134.3638,-357.0373 128.6043,-361.0158"/>
</g>
<!-- Node10 -->
<g id="node10" class="node">
<title>Node10</title>
<g id="a_node10"><a xlink:href="serializer_8hpp.html" target="_top" xlink:title="/home/bdn_jz/bdn_jz\l/camera&#45;tracker&#45;cpp\l/CameraTrackerLinux/include\l/nlohmann/detail/output/serializer.hpp">
<polygon fill="#ffffff" stroke="#000000" points="128.2442,-273 128.2442,-325 307.2442,-325 307.2442,-273 128.2442,-273"/>
<text text-anchor="start" x="136.2442" y="-313" font-family="Helvetica,sans-Serif" font-size="10.00" fill="#000000">/home/bdn_jz/bdn_jz</text>
<text text-anchor="start" x="136.2442" y="-302" font-family="Helvetica,sans-Serif" font-size="10.00" fill="#000000">/camera&#45;tracker&#45;cpp</text>
<text text-anchor="start" x="136.2442" y="-291" font-family="Helvetica,sans-Serif" font-size="10.00" fill="#000000">/CameraTrackerLinux/include</text>
<text text-anchor="middle" x="217.7442" y="-280" font-family="Helvetica,sans-Serif" font-size="10.00" fill="#000000">/nlohmann/detail/output/serializer.hpp</text>
</a>
</g>
</g>
<!-- Node9&#45;&gt;Node10 -->
<g id="edge11" class="edge">
<title>Node9&#45;&gt;Node10</title>
<path fill="none" stroke="#191970" d="M185.6111,-358.5058C191.7002,-347.2297 198.1509,-335.284 203.6621,-325.078"/>
<polygon fill="#191970" stroke="#191970" points="182.502,-356.8973 180.8302,-367.3594 188.6614,-360.2233 182.502,-356.8973"/>
</g>
<!-- Node10&#45;&gt;Node4 -->
<g id="edge12" class="edge">
<title>Node10&#45;&gt;Node4</title>
<path fill="none" stroke="#191970" d="M300.3078,-269.446C335.3353,-256.9078 375.7914,-242.4263 409.601,-230.324"/>
<polygon fill="#191970" stroke="#191970" points="298.8177,-266.2618 290.5822,-272.9273 301.1768,-272.8524 298.8177,-266.2618"/>
</g>
<!-- Node11&#45;&gt;Node4 -->
<g id="edge14" class="edge">
<title>Node11&#45;&gt;Node4</title>
<path fill="none" stroke="#191970" d="M278.3526,-462.7574C278.0708,-435.011 281.1314,-396.6025 296.7442,-367 328.553,-306.6896 392.5397,-258.4511 436.2599,-230.6536"/>
<polygon fill="#191970" stroke="#191970" points="274.8555,-462.9197 278.6051,-472.8288 281.8533,-462.7442 274.8555,-462.9197"/>
</g>
<!-- Node11&#45;&gt;Node12 -->
<g id="edge15" class="edge">
<title>Node11&#45;&gt;Node12</title>
<path fill="none" stroke="#191970" d="M315.8736,-465.8591C329.8756,-452.6496 345.7623,-437.6622 358.9405,-425.2299"/>
<polygon fill="#191970" stroke="#191970" points="313.19,-463.5791 308.3178,-472.9872 317.9935,-468.6709 313.19,-463.5791"/>
</g>
<!-- Node12&#45;&gt;Node4 -->
<g id="edge16" class="edge">
<title>Node12&#45;&gt;Node4</title>
<path fill="none" stroke="#191970" d="M404.0765,-363.5144C422.8178,-325.1442 452.2482,-264.8892 468.9838,-230.6254"/>
<polygon fill="#191970" stroke="#191970" points="400.8003,-362.2473 399.5564,-372.7689 407.0901,-365.3195 400.8003,-362.2473"/>
</g>
<!-- Node13&#45;&gt;Node4 -->
<g id="edge19" class="edge">
<title>Node13&#45;&gt;Node4</title>
<path fill="none" stroke="#191970" d="M581.1486,-657.6575C563.2052,-605.446 532.9065,-512.5666 514.7442,-431 498.766,-359.2419 488.6477,-272.9111 484.2642,-230.5441"/>
<polygon fill="#191970" stroke="#191970" points="577.8829,-658.9235 584.4573,-667.2317 584.4989,-656.637 577.8829,-658.9235"/>
</g>
<!-- Node14 -->
<g id="node14" class="node">
<title>Node14</title>
<g id="a_node14"><a xlink:href="from__json_8hpp.html" target="_top" xlink:title="/home/bdn_jz/bdn_jz\l/camera&#45;tracker&#45;cpp\l/CameraTrackerLinux/include\l/nlohmann/detail/conversions\l/from_json.hpp">
<polygon fill="#ffffff" stroke="#000000" points="523.7442,-367.5 523.7442,-430.5 667.7442,-430.5 667.7442,-367.5 523.7442,-367.5"/>
<text text-anchor="start" x="531.7442" y="-418.5" font-family="Helvetica,sans-Serif" font-size="10.00" fill="#000000">/home/bdn_jz/bdn_jz</text>
<text text-anchor="start" x="531.7442" y="-407.5" font-family="Helvetica,sans-Serif" font-size="10.00" fill="#000000">/camera&#45;tracker&#45;cpp</text>
<text text-anchor="start" x="531.7442" y="-396.5" font-family="Helvetica,sans-Serif" font-size="10.00" fill="#000000">/CameraTrackerLinux/include</text>
<text text-anchor="start" x="531.7442" y="-385.5" font-family="Helvetica,sans-Serif" font-size="10.00" fill="#000000">/nlohmann/detail/conversions</text>
<text text-anchor="middle" x="595.7442" y="-374.5" font-family="Helvetica,sans-Serif" font-size="10.00" fill="#000000">/from_json.hpp</text>
</a>
</g>
</g>
<!-- Node13&#45;&gt;Node14 -->
<g id="edge20" class="edge">
<title>Node13&#45;&gt;Node14</title>
<path fill="none" stroke="#191970" d="M595.7442,-657.4554C595.7442,-596.7313 595.7442,-485.0516 595.7442,-430.5658"/>
<polygon fill="#191970" stroke="#191970" points="592.2443,-657.4617 595.7442,-667.4618 599.2443,-657.4618 592.2443,-657.4617"/>
</g>
<!-- Node16 -->
<g id="node16" class="node">
<title>Node16</title>
<g id="a_node16"><a xlink:href="to__json_8hpp.html" target="_top" xlink:title="/home/bdn_jz/bdn_jz\l/camera&#45;tracker&#45;cpp\l/CameraTrackerLinux/include\l/nlohmann/detail/conversions\l/to_json.hpp">
<polygon fill="#ffffff" stroke="#000000" points="685.7442,-367.5 685.7442,-430.5 829.7442,-430.5 829.7442,-367.5 685.7442,-367.5"/>
<text text-anchor="start" x="693.7442" y="-418.5" font-family="Helvetica,sans-Serif" font-size="10.00" fill="#000000">/home/bdn_jz/bdn_jz</text>
<text text-anchor="start" x="693.7442" y="-407.5" font-family="Helvetica,sans-Serif" font-size="10.00" fill="#000000">/camera&#45;tracker&#45;cpp</text>
<text text-anchor="start" x="693.7442" y="-396.5" font-family="Helvetica,sans-Serif" font-size="10.00" fill="#000000">/CameraTrackerLinux/include</text>
<text text-anchor="start" x="693.7442" y="-385.5" font-family="Helvetica,sans-Serif" font-size="10.00" fill="#000000">/nlohmann/detail/conversions</text>
<text text-anchor="middle" x="757.7442" y="-374.5" font-family="Helvetica,sans-Serif" font-size="10.00" fill="#000000">/to_json.hpp</text>
</a>
</g>
</g>
<!-- Node13&#45;&gt;Node16 -->
<g id="edge24" class="edge">
<title>Node13&#45;&gt;Node16</title>
<path fill="none" stroke="#191970" d="M607.3666,-657.4188C624.0121,-599.5983 655.0248,-498.4652 676.7442,-467 686.1316,-453.4004 698.9298,-440.9585 711.5803,-430.5411"/>
<polygon fill="#191970" stroke="#191970" points="603.9136,-656.7639 604.5288,-667.3408 610.6438,-658.6888 603.9136,-656.7639"/>
</g>
<!-- Node17 -->
<g id="node17" class="node">
<title>Node17</title>
<g id="a_node17"><a xlink:href="iter__impl_8hpp.html" target="_top" xlink:title="/home/bdn_jz/bdn_jz\l/camera&#45;tracker&#45;cpp\l/CameraTrackerLinux/include\l/nlohmann/detail/iterators\l/iter_impl.hpp">
<polygon fill="#ffffff" stroke="#000000" points="747.7442,-267.5 747.7442,-330.5 891.7442,-330.5 891.7442,-267.5 747.7442,-267.5"/>
<text text-anchor="start" x="755.7442" y="-318.5" font-family="Helvetica,sans-Serif" font-size="10.00" fill="#000000">/home/bdn_jz/bdn_jz</text>
<text text-anchor="start" x="755.7442" y="-307.5" font-family="Helvetica,sans-Serif" font-size="10.00" fill="#000000">/camera&#45;tracker&#45;cpp</text>
<text text-anchor="start" x="755.7442" y="-296.5" font-family="Helvetica,sans-Serif" font-size="10.00" fill="#000000">/CameraTrackerLinux/include</text>
<text text-anchor="start" x="755.7442" y="-285.5" font-family="Helvetica,sans-Serif" font-size="10.00" fill="#000000">/nlohmann/detail/iterators</text>
<text text-anchor="middle" x="819.7442" y="-274.5" font-family="Helvetica,sans-Serif" font-size="10.00" fill="#000000">/iter_impl.hpp</text>
</a>
</g>
</g>
<!-- Node13&#45;&gt;Node17 -->
<g id="edge27" class="edge">
<title>Node13&#45;&gt;Node17</title>
<path fill="none" stroke="#191970" d="M677.1088,-667.4031C733.8738,-640.5197 805.2332,-595.8501 838.7442,-531 872.2314,-466.1961 849.0509,-377.4404 832.4653,-330.7251"/>
<polygon fill="#191970" stroke="#191970" points="675.3755,-664.3486 667.7732,-671.728 678.318,-670.7002 675.3755,-664.3486"/>
</g>
<!-- Node18 -->
<g id="node18" class="node">
<title>Node18</title>
<g id="a_node18"><a xlink:href="iteration__proxy_8hpp.html" target="_top" xlink:title="/home/bdn_jz/bdn_jz\l/camera&#45;tracker&#45;cpp\l/CameraTrackerLinux/include\l/nlohmann/detail/iterators\l/iteration_proxy.hpp">
<polygon fill="#ffffff" stroke="#000000" points="685.7442,-467.5 685.7442,-530.5 829.7442,-530.5 829.7442,-467.5 685.7442,-467.5"/>
<text text-anchor="start" x="693.7442" y="-518.5" font-family="Helvetica,sans-Serif" font-size="10.00" fill="#000000">/home/bdn_jz/bdn_jz</text>
<text text-anchor="start" x="693.7442" y="-507.5" font-family="Helvetica,sans-Serif" font-size="10.00" fill="#000000">/camera&#45;tracker&#45;cpp</text>
<text text-anchor="start" x="693.7442" y="-496.5" font-family="Helvetica,sans-Serif" font-size="10.00" fill="#000000">/CameraTrackerLinux/include</text>
<text text-anchor="start" x="693.7442" y="-485.5" font-family="Helvetica,sans-Serif" font-size="10.00" fill="#000000">/nlohmann/detail/iterators</text>
<text text-anchor="middle" x="757.7442" y="-474.5" font-family="Helvetica,sans-Serif" font-size="10.00" fill="#000000">/iteration_proxy.hpp</text>
</a>
</g>
</g>
<!-- Node13&#45;&gt;Node18 -->
<g id="edge29" class="edge">
<title>Node13&#45;&gt;Node18</title>
<path fill="none" stroke="#191970" d="M634.2532,-659.6378C642.852,-650.4257 651.7778,-640.5184 659.7442,-631 687.4057,-597.9498 716.531,-557.9636 735.7694,-530.7224"/>
<polygon fill="#191970" stroke="#191970" points="631.4479,-657.5112 627.1354,-667.1887 636.5416,-662.3127 631.4479,-657.5112"/>
</g>
<!-- Node19 -->
<g id="node19" class="node">
<title>Node19</title>
<g id="a_node19"><a xlink:href="json__ref_8hpp.html" target="_top" xlink:title="/home/bdn_jz/bdn_jz\l/camera&#45;tracker&#45;cpp\l/CameraTrackerLinux/include\l/nlohmann/detail/json_ref.hpp">
<polygon fill="#ffffff" stroke="#000000" points="885.7442,-573 885.7442,-625 1029.7442,-625 1029.7442,-573 885.7442,-573"/>
<text text-anchor="start" x="893.7442" y="-613" font-family="Helvetica,sans-Serif" font-size="10.00" fill="#000000">/home/bdn_jz/bdn_jz</text>
<text text-anchor="start" x="893.7442" y="-602" font-family="Helvetica,sans-Serif" font-size="10.00" fill="#000000">/camera&#45;tracker&#45;cpp</text>
<text text-anchor="start" x="893.7442" y="-591" font-family="Helvetica,sans-Serif" font-size="10.00" fill="#000000">/CameraTrackerLinux/include</text>
<text text-anchor="middle" x="957.7442" y="-580" font-family="Helvetica,sans-Serif" font-size="10.00" fill="#000000">/nlohmann/detail/json_ref.hpp</text>
</a>
</g>
</g>
<!-- Node13&#45;&gt;Node19 -->
<g id="edge32" class="edge">
<title>Node13&#45;&gt;Node19</title>
<path fill="none" stroke="#191970" d="M677.9315,-681.3493C733.1711,-668.8522 807.3669,-650.8362 871.7442,-631 877.6817,-629.1705 883.8061,-627.1558 889.9226,-625.0547"/>
<polygon fill="#191970" stroke="#191970" points="676.8327,-678.0089 667.8443,-683.6178 678.3685,-684.8384 676.8327,-678.0089"/>
</g>
<!-- Node20 -->
<g id="node20" class="node">
<title>Node20</title>
<g id="a_node20"><a xlink:href="is__sax_8hpp.html" target="_top" xlink:title="/home/bdn_jz/bdn_jz\l/camera&#45;tracker&#45;cpp\l/CameraTrackerLinux/include\l/nlohmann/detail/meta/is\l_sax.hpp">
<polygon fill="#ffffff" stroke="#000000" points="345.7442,-567.5 345.7442,-630.5 489.7442,-630.5 489.7442,-567.5 345.7442,-567.5"/>
<text text-anchor="start" x="353.7442" y="-618.5" font-family="Helvetica,sans-Serif" font-size="10.00" fill="#000000">/home/bdn_jz/bdn_jz</text>
<text text-anchor="start" x="353.7442" y="-607.5" font-family="Helvetica,sans-Serif" font-size="10.00" fill="#000000">/camera&#45;tracker&#45;cpp</text>
<text text-anchor="start" x="353.7442" y="-596.5" font-family="Helvetica,sans-Serif" font-size="10.00" fill="#000000">/CameraTrackerLinux/include</text>
<text text-anchor="start" x="353.7442" y="-585.5" font-family="Helvetica,sans-Serif" font-size="10.00" fill="#000000">/nlohmann/detail/meta/is</text>
<text text-anchor="middle" x="417.7442" y="-574.5" font-family="Helvetica,sans-Serif" font-size="10.00" fill="#000000">_sax.hpp</text>
</a>
</g>
</g>
<!-- Node13&#45;&gt;Node20 -->
<g id="edge34" class="edge">
<title>Node13&#45;&gt;Node20</title>
<path fill="none" stroke="#191970" d="M530.4655,-662.3265C511.9432,-651.9208 491.9423,-640.6843 474.0035,-630.6063"/>
<polygon fill="#191970" stroke="#191970" points="528.9912,-665.5128 539.4239,-667.3594 532.4198,-659.4099 528.9912,-665.5128"/>
</g>
<!-- Node14&#45;&gt;Node4 -->
<g id="edge21" class="edge">
<title>Node14&#45;&gt;Node4</title>
<path fill="none" stroke="#191970" d="M559.542,-359.4921C552.1728,-350.4763 544.8246,-340.6878 538.7442,-331 518.2558,-298.3556 501.1122,-257.1026 491.1358,-230.7535"/>
<polygon fill="#191970" stroke="#191970" points="556.8882,-361.7745 565.992,-367.1941 562.255,-357.2802 556.8882,-361.7745"/>
</g>
<!-- Node15 -->
<g id="node15" class="node">
<title>Node15</title>
<g id="a_node15"><a xlink:href="adl__serializer_8hpp.html" target="_top" xlink:title="/home/bdn_jz/bdn_jz\l/camera&#45;tracker&#45;cpp\l/CameraTrackerLinux/include\l/nlohmann/adl_serializer.hpp">
<polygon fill="#ffffff" stroke="#000000" points="547.7442,-273 547.7442,-325 691.7442,-325 691.7442,-273 547.7442,-273"/>
<text text-anchor="start" x="555.7442" y="-313" font-family="Helvetica,sans-Serif" font-size="10.00" fill="#000000">/home/bdn_jz/bdn_jz</text>
<text text-anchor="start" x="555.7442" y="-302" font-family="Helvetica,sans-Serif" font-size="10.00" fill="#000000">/camera&#45;tracker&#45;cpp</text>
<text text-anchor="start" x="555.7442" y="-291" font-family="Helvetica,sans-Serif" font-size="10.00" fill="#000000">/CameraTrackerLinux/include</text>
<text text-anchor="middle" x="619.7442" y="-280" font-family="Helvetica,sans-Serif" font-size="10.00" fill="#000000">/nlohmann/adl_serializer.hpp</text>
</a>
</g>
</g>
<!-- Node14&#45;&gt;Node15 -->
<g id="edge22" class="edge">
<title>Node14&#45;&gt;Node15</title>
<path fill="none" stroke="#191970" d="M605.7044,-357.4993C608.3391,-346.5216 611.1088,-334.9808 613.4855,-325.078"/>
<polygon fill="#191970" stroke="#191970" points="602.2684,-356.8187 603.338,-367.3594 609.0752,-358.4523 602.2684,-356.8187"/>
</g>
<!-- Node15&#45;&gt;Node4 -->
<g id="edge23" class="edge">
<title>Node15&#45;&gt;Node4</title>
<path fill="none" stroke="#191970" d="M573.3766,-267.2483C556.0892,-255.4101 536.6702,-242.1124 520.1735,-230.8157"/>
<polygon fill="#191970" stroke="#191970" points="571.4414,-270.165 581.6698,-272.9273 575.3965,-264.3894 571.4414,-270.165"/>
</g>
<!-- Node16&#45;&gt;Node4 -->
<g id="edge25" class="edge">
<title>Node16&#45;&gt;Node4</title>
<path fill="none" stroke="#191970" d="M744.2231,-357.54C732.4205,-323.7034 714.9992,-279.5172 700.7442,-267 678.7214,-247.6618 608.762,-229.7613 553.7718,-218.1185"/>
<polygon fill="#191970" stroke="#191970" points="740.9879,-358.8958 747.5456,-367.2173 747.6086,-356.6227 740.9879,-358.8958"/>
</g>
<!-- Node16&#45;&gt;Node15 -->
<g id="edge26" class="edge">
<title>Node16&#45;&gt;Node15</title>
<path fill="none" stroke="#191970" d="M705.5409,-361.1715C688.9278,-349.133 670.9317,-336.0923 655.7318,-325.078"/>
<polygon fill="#191970" stroke="#191970" points="703.9289,-364.3257 714.0802,-367.3594 708.0364,-358.6575 703.9289,-364.3257"/>
</g>
<!-- Node17&#45;&gt;Node4 -->
<g id="edge28" class="edge">
<title>Node17&#45;&gt;Node4</title>
<path fill="none" stroke="#191970" d="M738.0548,-268.3531C736.6089,-267.8924 735.1712,-267.4409 733.7442,-267 673.7738,-248.471 604.4838,-231.6072 553.7567,-220.0794"/>
<polygon fill="#191970" stroke="#191970" points="737.0939,-271.7214 747.6867,-271.514 739.2765,-265.0703 737.0939,-271.7214"/>
</g>
<!-- Node18&#45;&gt;Node4 -->
<g id="edge30" class="edge">
<title>Node18&#45;&gt;Node4</title>
<path fill="none" stroke="#191970" d="M809.9622,-461.1904C870.1073,-413.1382 954.1787,-328.9962 900.7442,-267 878.4464,-241.1294 667.9136,-219.8968 554.0463,-210.1919"/>
<polygon fill="#191970" stroke="#191970" points="807.7151,-458.505 802.0204,-467.4392 812.0436,-464.0063 807.7151,-458.505"/>
</g>
<!-- Node18&#45;&gt;Node16 -->
<g id="edge31" class="edge">
<title>Node18&#45;&gt;Node16</title>
<path fill="none" stroke="#191970" d="M757.7442,-457.2111C757.7442,-448.37 757.7442,-439.1767 757.7442,-430.778"/>
<polygon fill="#191970" stroke="#191970" points="754.2443,-457.3593 757.7442,-467.3594 761.2443,-457.3594 754.2443,-457.3593"/>
</g>
<!-- Node19&#45;&gt;Node4 -->
<g id="edge33" class="edge">
<title>Node19&#45;&gt;Node4</title>
<path fill="none" stroke="#191970" d="M966.6265,-562.7917C980.9438,-494.7268 1000.2583,-347.3361 922.7442,-267 897.5758,-240.9152 672.7043,-219.513 554.165,-209.927"/>
<polygon fill="#191970" stroke="#191970" points="963.1929,-562.11 964.4749,-572.627 970.0312,-563.6061 963.1929,-562.11"/>
</g>
<!-- Node20&#45;&gt;Node8 -->
<g id="edge35" class="edge">
<title>Node20&#45;&gt;Node8</title>
<path fill="none" stroke="#191970" d="M335.8251,-566.8573C272.5524,-547.2547 253.2058,-550.1412 193.7442,-531 190.8657,-530.0734 187.9425,-529.0962 184.9993,-528.0821"/>
<polygon fill="#191970" stroke="#191970" points="334.8991,-570.2353 345.4892,-569.9179 337.0126,-563.5619 334.8991,-570.2353"/>
</g>
<!-- Node20&#45;&gt;Node12 -->
<g id="edge36" class="edge">
<title>Node20&#45;&gt;Node12</title>
<path fill="none" stroke="#191970" d="M413.1692,-557.1696C410.1227,-531.1525 405.7646,-497.0454 400.7442,-467 398.4201,-453.0906 395.2961,-437.6916 392.5888,-425.07"/>
<polygon fill="#191970" stroke="#191970" points="409.7299,-557.8975 414.352,-567.4309 416.6838,-557.0958 409.7299,-557.8975"/>
</g>
<!-- Node21&#45;&gt;Node13 -->
<g id="edge39" class="edge">
<title>Node21&#45;&gt;Node13</title>
<path fill="none" stroke="#191970" d="M558.6216,-764.1274C564.838,-753.2215 571.6585,-741.2557 577.7384,-730.5891"/>
<polygon fill="#191970" stroke="#191970" points="555.4829,-762.5662 553.5715,-772.9872 561.5643,-766.0327 555.4829,-762.5662"/>
</g>
<!-- Node21&#45;&gt;Node20 -->
<g id="edge38" class="edge">
<title>Node21&#45;&gt;Node20</title>
<path fill="none" stroke="#191970" d="M517.7218,-764.2521C494.9663,-726.6398 458.9857,-667.1678 436.9609,-630.7631"/>
<polygon fill="#191970" stroke="#191970" points="514.7546,-766.1092 522.9256,-772.8535 520.7438,-762.4857 514.7546,-766.1092"/>
</g>
</g>
</svg>
        <g id="navigator" transform="translate(0 0)" fill="#404254">
                <rect fill="#f2f5e9" fill-opacity="0.5" stroke="#606060" stroke-width=".5" x="0" y="0" width="60" height="60"/>
                <use id="zoomplus" xlink:href="#zoomPlus" x="17" y="9" onmousedown="handleZoom(evt,'in')"/>
                <use id="zoomminus" xlink:href="#zoomMin" x="42" y="9" onmousedown="handleZoom(evt,'out')"/>
                <use id="reset" xlink:href="#resetDef" x="30" y="36" onmousedown="handleReset()"/>
                <g id="arrowUp" xlink:href="#dirArrow" transform="translate(30 24)" onmousedown="handlePan(0,-1)">
                  <use xlink:href="#rim" fill="#404040">
                        <set attributeName="fill" to="#808080" begin="arrowUp.mouseover" end="arrowUp.mouseout"/>
                  </use>
                  <path fill="none" stroke="white" stroke-width="1.5" d="M0,-3.0v7 M-2.5,-0.5L0,-3.0L2.5,-0.5"/>
                </g>
                <g id="arrowRight" xlink:href="#dirArrow" transform="rotate(90) translate(36 -43)" onmousedown="handlePan(1,0)">
                  <use xlink:href="#rim" fill="#404040">
                        <set attributeName="fill" to="#808080" begin="arrowRight.mouseover" end="arrowRight.mouseout"/>
                  </use>
                  <path fill="none" stroke="white" stroke-width="1.5" d="M0,-3.0v7 M-2.5,-0.5L0,-3.0L2.5,-0.5"/>
                </g>
                <g id="arrowDown" xlink:href="#dirArrow" transform="rotate(180) translate(-30 -48)" onmousedown="handlePan(0,1)">
                  <use xlink:href="#rim" fill="#404040">
                        <set attributeName="fill" to="#808080" begin="arrowDown.mouseover" end="arrowDown.mouseout"/>
                  </use>
                  <path fill="none" stroke="white" stroke-width="1.5" d="M0,-3.0v7 M-2.5,-0.5L0,-3.0L2.5,-0.5"/>
                </g>
                <g id="arrowLeft" xlink:href="#dirArrow" transform="rotate(270) translate(-36 17)" onmousedown="handlePan(-1,0)">
                  <use xlink:href="#rim" fill="#404040">
                        <set attributeName="fill" to="#808080" begin="arrowLeft.mouseover" end="arrowLeft.mouseout"/>
                  </use>
                  <path fill="none" stroke="white" stroke-width="1.5" d="M0,-3.0v7 M-2.5,-0.5L0,-3.0L2.5,-0.5"/>
                </g>
        </g>
        <svg viewBox="0 0 15 15" width="100%" height="30px" preserveAspectRatio="xMaxYMin meet">
         <g id="arrow_out" transform="scale(0.3 0.3)">
          <a xlink:href="void__t_8hpp__dep__incl_org.svg" target="_base">
           <rect id="button" ry="5" rx="5" y="6" x="6" height="38" width="38"
                fill="#f2f5e9" fill-opacity="0.5" stroke="#606060" stroke-width="1.0"/>
           <path id="arrow"
             d="M 11.500037,31.436501 C 11.940474,20.09759 22.043105,11.32322 32.158766,21.979434 L 37.068811,17.246167 C 37.068811,17.246167 37.088388,32 37.088388,32 L 22.160133,31.978069 C 22.160133,31.978069 26.997745,27.140456 26.997745,27.140456 C 18.528582,18.264221 13.291696,25.230495 11.500037,31.436501 z"
             style="fill:#404040;"/>
          </a>
         </g>
        </svg>
</svg>
