<?xml version="1.0" encoding="UTF-8" standalone="no"?>
<!DOCTYPE svg PUBLIC "-//W3C//DTD SVG 1.1//EN"
 "http://www.w3.org/Graphics/SVG/1.1/DTD/svg11.dtd">
<!-- Generated by graphviz version 2.40.1 (20161225.0304)
 -->
<!-- Title: /home/bdn_jz/bdn_jz/camera&#45;tracker&#45;cpp/CameraTrackerLinux/include/nlohmann/detail/meta/void_t.hpp Pages: 1 -->
<!--zoomable 1017 -->
<svg id="main" version="1.1" xmlns="http://www.w3.org/2000/svg" xmlns:xlink="http://www.w3.org/1999/xlink" xml:space="preserve" onload="init(evt)">
<style type="text/css"><![CDATA[
.edge:hover path { stroke: red; }
.edge:hover polygon { stroke: red; fill: red; }
]]></style>
<script type="text/javascript"><![CDATA[
var edges = document.getElementsByTagName('g');
if (edges && edges.length) {
  for (var i=0;i<edges.length;i++) {
    if (edges[i].id.substr(0,4)=='edge') {
      edges[i].setAttribute('class','edge');
    }
  }
}
]]></script>
        <defs>
                <circle id="rim" cx="0" cy="0" r="7"/>
                <circle id="rim2" cx="0" cy="0" r="3.5"/>
                <g id="zoomPlus">
                        <use xlink:href="#rim" target="_top" fill="#404040">
                                <set attributeName="fill" to="#808080" begin="zoomplus.mouseover" end="zoomplus.mouseout"/>
                        </use>
                        <path d="M-4,0h8M0,-4v8" fill="none" stroke="white" stroke-width="1.5" pointer-events="none"/>
                </g>
                <g id="zoomMin">
                        <use xlink:href="#rim" target="_top" fill="#404040">
                                <set attributeName="fill" to="#808080" begin="zoomminus.mouseover" end="zoomminus.mouseout"/>
                        </use>
                        <path d="M-4,0h8" fill="none" stroke="white" stroke-width="1.5" pointer-events="none"/>
                </g>
                <g id="dirArrow">
                        <path fill="none" stroke="white" stroke-width="1.5" d="M0,-3.0v7 M-2.5,-0.5L0,-3.0L2.5,-0.5"/>
                </g>
               <g id="resetDef">
                       <use xlink:href="#rim2" target="_top" fill="#404040">
                               <set attributeName="fill" to="#808080" begin="reset.mouseover" end="reset.mouseout"/>
                       </use>
               </g>
        </defs>

<script type="text/javascript">
var viewWidth = 1038;
var viewHeight = 1017;
var sectionId = 'dynsection-0';
</script>
<script xlink:href="svgpan.js" target="_top"/>
<svg id="graph" class="graph">
<g id="viewport">
<title>/home/bdn_jz/bdn_jz/camera&#45;tracker&#45;cpp/CameraTrackerLinux/include/nlohmann/detail/meta/void_t.hpp</title>
<polygon fill="#ffffff" stroke="transparent" points="-4,4 -4,-1013 1033.7442,-1013 1033.7442,4 -4,4"/>
<!-- Node1 -->
<g id="node1" class="node">
<title>Node1</title>
<polygon fill="#bfbfbf" stroke="#000000" points="370.2442,-956.5 370.2442,-1008.5 531.2442,-1008.5 531.2442,-956.5 370.2442,-956.5"/>
<text text-anchor="start" x="378.2442" y="-996.5" font-family="Helvetica,sans-Serif" font-size="10.00" fill="#000000">/home/bdn_jz/bdn_jz</text>
<text text-anchor="start" x="378.2442" y="-985.5" font-family="Helvetica,sans-Serif" font-size="10.00" fill="#000000">/camera&#45;tracker&#45;cpp</text>
<text text-anchor="start" x="378.2442" y="-974.5" font-family="Helvetica,sans-Serif" font-size="10.00" fill="#000000">/CameraTrackerLinux/include</text>
<text text-anchor="middle" x="450.7442" y="-963.5" font-family="Helvetica,sans-Serif" font-size="10.00" fill="#000000">/nlohmann/detail/meta/void_t.hpp</text>
</g>
<!-- Node2 -->
<g id="node2" class="node">
<title>Node2</title>
<g id="a_node2"><a xlink:href="iterator__traits_8hpp.html" target="_top" target="_top" xlink:title="/home/bdn_jz/bdn_jz\l/camera&#45;tracker&#45;cpp\l/CameraTrackerLinux/include\l/nlohmann/detail/iterators\l/iterator_traits.hpp">
<polygon fill="#ffffff" stroke="#000000" points="290.7442,-856.5 290.7442,-919.5 434.7442,-919.5 434.7442,-856.5 290.7442,-856.5"/>
<text text-anchor="start" x="298.7442" y="-907.5" font-family="Helvetica,sans-Serif" font-size="10.00" fill="#000000">/home/bdn_jz/bdn_jz</text>
<text text-anchor="start" x="298.7442" y="-896.5" font-family="Helvetica,sans-Serif" font-size="10.00" fill="#000000">/camera&#45;tracker&#45;cpp</text>
<text text-anchor="start" x="298.7442" y="-885.5" font-family="Helvetica,sans-Serif" font-size="10.00" fill="#000000">/CameraTrackerLinux/include</text>
<text text-anchor="start" x="298.7442" y="-874.5" font-family="Helvetica,sans-Serif" font-size="10.00" fill="#000000">/nlohmann/detail/iterators</text>
<text text-anchor="middle" x="362.7442" y="-863.5" font-family="Helvetica,sans-Serif" font-size="10.00" fill="#000000">/iterator_traits.hpp</text>
</a>
</g>
</g>
<!-- Node1&#45;&gt;Node2 -->
<g id="edge1" class="edge">
<title>Node1&#45;&gt;Node2</title>
<path fill="none" stroke="#191970" d="M419.5435,-948.9947C410.6712,-939.467 401.0383,-929.1226 392.2688,-919.7054"/>
<polygon fill="#191970" stroke="#191970" points="417.0886,-951.4942 426.4649,-956.4273 422.2114,-946.7238 417.0886,-951.4942"/>
</g>
<!-- Node23 -->
<g id="node23" class="node">
<title>Node23</title>
<g id="a_node23"><a xlink:href="detected_8hpp.html" target="_top" target="_top" xlink:title="/home/bdn_jz/bdn_jz\l/camera&#45;tracker&#45;cpp\l/CameraTrackerLinux/include\l/nlohmann/detail/meta/detected.hpp">
<polygon fill="#ffffff" stroke="#000000" points="452.7442,-862 452.7442,-914 624.7442,-914 624.7442,-862 452.7442,-862"/>
<text text-anchor="start" x="460.7442" y="-902" font-family="Helvetica,sans-Serif" font-size="10.00" fill="#000000">/home/bdn_jz/bdn_jz</text>
<text text-anchor="start" x="460.7442" y="-891" font-family="Helvetica,sans-Serif" font-size="10.00" fill="#000000">/camera&#45;tracker&#45;cpp</text>
<text text-anchor="start" x="460.7442" y="-880" font-family="Helvetica,sans-Serif" font-size="10.00" fill="#000000">/CameraTrackerLinux/include</text>
<text text-anchor="middle" x="538.7442" y="-869" font-family="Helvetica,sans-Serif" font-size="10.00" fill="#000000">/nlohmann/detail/meta/detected.hpp</text>
</a>
</g>
</g>
<!-- Node1&#45;&gt;Node23 -->
<g id="edge40" class="edge">
<title>Node1&#45;&gt;Node23</title>
<path fill="none" stroke="#191970" d="M482.1275,-948.7986C492.6812,-937.4654 504.2928,-924.9962 514.2386,-914.3157"/>
<polygon fill="#191970" stroke="#191970" points="479.2771,-946.7238 475.0236,-956.4273 484.3999,-951.4942 479.2771,-946.7238"/>
</g>
<!-- Node3 -->
<g id="node3" class="node">
<title>Node3</title>
<g id="a_node3"><a xlink:href="input__adapters_8hpp.html" target="_top" target="_top" xlink:title="/home/bdn_jz/bdn_jz\l/camera&#45;tracker&#45;cpp\l/CameraTrackerLinux/include\l/nlohmann/detail/input/input\l_adapters.hpp">
<polygon fill="#ffffff" stroke="#000000" points="183.7442,-656.5 183.7442,-719.5 327.7442,-719.5 327.7442,-656.5 183.7442,-656.5"/>
<text text-anchor="start" x="191.7442" y="-707.5" font-family="Helvetica,sans-Serif" font-size="10.00" fill="#000000">/home/bdn_jz/bdn_jz</text>
<text text-anchor="start" x="191.7442" y="-696.5" font-family="Helvetica,sans-Serif" font-size="10.00" fill="#000000">/camera&#45;tracker&#45;cpp</text>
<text text-anchor="start" x="191.7442" y="-685.5" font-family="Helvetica,sans-Serif" font-size="10.00" fill="#000000">/CameraTrackerLinux/include</text>
<text text-anchor="start" x="191.7442" y="-674.5" font-family="Helvetica,sans-Serif" font-size="10.00" fill="#000000">/nlohmann/detail/input/input</text>
<text text-anchor="middle" x="255.7442" y="-663.5" font-family="Helvetica,sans-Serif" font-size="10.00" fill="#000000">_adapters.hpp</text>
</a>
</g>
</g>
<!-- Node2&#45;&gt;Node3 -->
<g id="edge2" class="edge">
<title>Node2&#45;&gt;Node3</title>
<path fill="none" stroke="#191970" d="M340.8666,-847.1073C320.6572,-809.3327 291.0577,-754.0064 272.6194,-719.5423"/>
<polygon fill="#191970" stroke="#191970" points="337.9863,-849.1431 345.7898,-856.3094 344.1585,-845.8409 337.9863,-849.1431"/>
</g>
<!-- Node15 -->
<g id="node15" class="node">
<title>Node15</title>
<g id="a_node15"><a xlink:href="type__traits_8hpp.html" target="_top" target="_top" xlink:title="/home/bdn_jz/bdn_jz\l/camera&#45;tracker&#45;cpp\l/CameraTrackerLinux/include\l/nlohmann/detail/meta/type\l_traits.hpp">
<polygon fill="#ffffff" stroke="#000000" points="523.7442,-756.5 523.7442,-819.5 667.7442,-819.5 667.7442,-756.5 523.7442,-756.5"/>
<text text-anchor="start" x="531.7442" y="-807.5" font-family="Helvetica,sans-Serif" font-size="10.00" fill="#000000">/home/bdn_jz/bdn_jz</text>
<text text-anchor="start" x="531.7442" y="-796.5" font-family="Helvetica,sans-Serif" font-size="10.00" fill="#000000">/camera&#45;tracker&#45;cpp</text>
<text text-anchor="start" x="531.7442" y="-785.5" font-family="Helvetica,sans-Serif" font-size="10.00" fill="#000000">/CameraTrackerLinux/include</text>
<text text-anchor="start" x="531.7442" y="-774.5" font-family="Helvetica,sans-Serif" font-size="10.00" fill="#000000">/nlohmann/detail/meta/type</text>
<text text-anchor="middle" x="595.7442" y="-763.5" font-family="Helvetica,sans-Serif" font-size="10.00" fill="#000000">_traits.hpp</text>
</a>
</g>
</g>
<!-- Node2&#45;&gt;Node15 -->
<g id="edge21" class="edge">
<title>Node2&#45;&gt;Node15</title>
<path fill="none" stroke="#191970" d="M444.2602,-853.0146C470.084,-841.9314 498.4357,-829.7633 523.5569,-818.9817"/>
<polygon fill="#191970" stroke="#191970" points="442.6802,-849.8839 434.8712,-857.0442 445.4411,-856.3165 442.6802,-849.8839"/>
</g>
<!-- Node4 -->
<g id="node4" class="node">
<title>Node4</title>
<g id="a_node4"><a xlink:href="json_8hpp.html" target="_top" target="_top" xlink:title="/home/bdn_jz/bdn_jz\l/camera&#45;tracker&#45;cpp\l/CameraTrackerLinux/include\l/nlohmann/json.hpp">
<polygon fill="#ffffff" stroke="#000000" points="409.7442,-267.5 409.7442,-319.5 553.7442,-319.5 553.7442,-267.5 409.7442,-267.5"/>
<text text-anchor="start" x="417.7442" y="-307.5" font-family="Helvetica,sans-Serif" font-size="10.00" fill="#000000">/home/bdn_jz/bdn_jz</text>
<text text-anchor="start" x="417.7442" y="-296.5" font-family="Helvetica,sans-Serif" font-size="10.00" fill="#000000">/camera&#45;tracker&#45;cpp</text>
<text text-anchor="start" x="417.7442" y="-285.5" font-family="Helvetica,sans-Serif" font-size="10.00" fill="#000000">/CameraTrackerLinux/include</text>
<text text-anchor="middle" x="481.7442" y="-274.5" font-family="Helvetica,sans-Serif" font-size="10.00" fill="#000000">/nlohmann/json.hpp</text>
</a>
</g>
</g>
<!-- Node3&#45;&gt;Node4 -->
<g id="edge3" class="edge">
<title>Node3&#45;&gt;Node4</title>
<path fill="none" stroke="#191970" d="M173.6419,-673.6311C117.0648,-661.8643 49.0707,-643.3671 31.7442,-620 -9.7218,-564.0775 -20.3246,-439.2129 63.7442,-356 87.9286,-332.0619 296.5391,-309.9991 409.6037,-299.6629"/>
<polygon fill="#191970" stroke="#191970" points="173.1987,-677.1126 183.6959,-675.6774 174.5949,-670.2532 173.1987,-677.1126"/>
</g>
<!-- Node10 -->
<g id="node10" class="node">
<title>Node10</title>
<g id="a_node10"><a xlink:href="binary__reader_8hpp.html" target="_top" target="_top" xlink:title="/home/bdn_jz/bdn_jz\l/camera&#45;tracker&#45;cpp\l/CameraTrackerLinux/include\l/nlohmann/detail/input/binary\l_reader.hpp">
<polygon fill="#ffffff" stroke="#000000" points="40.7442,-556.5 40.7442,-619.5 184.7442,-619.5 184.7442,-556.5 40.7442,-556.5"/>
<text text-anchor="start" x="48.7442" y="-607.5" font-family="Helvetica,sans-Serif" font-size="10.00" fill="#000000">/home/bdn_jz/bdn_jz</text>
<text text-anchor="start" x="48.7442" y="-596.5" font-family="Helvetica,sans-Serif" font-size="10.00" fill="#000000">/camera&#45;tracker&#45;cpp</text>
<text text-anchor="start" x="48.7442" y="-585.5" font-family="Helvetica,sans-Serif" font-size="10.00" fill="#000000">/CameraTrackerLinux/include</text>
<text text-anchor="start" x="48.7442" y="-574.5" font-family="Helvetica,sans-Serif" font-size="10.00" fill="#000000">/nlohmann/detail/input/binary</text>
<text text-anchor="middle" x="112.7442" y="-563.5" font-family="Helvetica,sans-Serif" font-size="10.00" fill="#000000">_reader.hpp</text>
</a>
</g>
</g>
<!-- Node3&#45;&gt;Node10 -->
<g id="edge10" class="edge">
<title>Node3&#45;&gt;Node10</title>
<path fill="none" stroke="#191970" d="M202.1229,-650.5025C187.6604,-640.3889 172.1551,-629.546 158.1868,-619.778"/>
<polygon fill="#191970" stroke="#191970" points="200.2973,-653.4968 210.4981,-656.3594 204.3089,-647.7603 200.2973,-653.4968"/>
</g>
<!-- Node13 -->
<g id="node13" class="node">
<title>Node13</title>
<g id="a_node13"><a xlink:href="lexer_8hpp.html" target="_top" target="_top" xlink:title="/home/bdn_jz/bdn_jz\l/camera&#45;tracker&#45;cpp\l/CameraTrackerLinux/include\l/nlohmann/detail/input/lexer.hpp">
<polygon fill="#ffffff" stroke="#000000" points="203.2442,-562 203.2442,-614 358.2442,-614 358.2442,-562 203.2442,-562"/>
<text text-anchor="start" x="211.2442" y="-602" font-family="Helvetica,sans-Serif" font-size="10.00" fill="#000000">/home/bdn_jz/bdn_jz</text>
<text text-anchor="start" x="211.2442" y="-591" font-family="Helvetica,sans-Serif" font-size="10.00" fill="#000000">/camera&#45;tracker&#45;cpp</text>
<text text-anchor="start" x="211.2442" y="-580" font-family="Helvetica,sans-Serif" font-size="10.00" fill="#000000">/CameraTrackerLinux/include</text>
<text text-anchor="middle" x="280.7442" y="-569" font-family="Helvetica,sans-Serif" font-size="10.00" fill="#000000">/nlohmann/detail/input/lexer.hpp</text>
</a>
</g>
</g>
<!-- Node3&#45;&gt;Node13 -->
<g id="edge16" class="edge">
<title>Node3&#45;&gt;Node13</title>
<path fill="none" stroke="#191970" d="M266.1194,-646.4993C268.8638,-635.5216 271.749,-623.9808 274.2247,-614.078"/>
<polygon fill="#191970" stroke="#191970" points="262.6843,-645.809 263.6544,-656.3594 269.4753,-647.5068 262.6843,-645.809"/>
</g>
<!-- Node14 -->
<g id="node14" class="node">
<title>Node14</title>
<g id="a_node14"><a xlink:href="parser_8hpp.html" target="_top" target="_top" xlink:title="/home/bdn_jz/bdn_jz\l/camera&#45;tracker&#45;cpp\l/CameraTrackerLinux/include\l/nlohmann/detail/input/parser.hpp">
<polygon fill="#ffffff" stroke="#000000" points="306.2442,-462 306.2442,-514 467.2442,-514 467.2442,-462 306.2442,-462"/>
<text text-anchor="start" x="314.2442" y="-502" font-family="Helvetica,sans-Serif" font-size="10.00" fill="#000000">/home/bdn_jz/bdn_jz</text>
<text text-anchor="start" x="314.2442" y="-491" font-family="Helvetica,sans-Serif" font-size="10.00" fill="#000000">/camera&#45;tracker&#45;cpp</text>
<text text-anchor="start" x="314.2442" y="-480" font-family="Helvetica,sans-Serif" font-size="10.00" fill="#000000">/CameraTrackerLinux/include</text>
<text text-anchor="middle" x="386.7442" y="-469" font-family="Helvetica,sans-Serif" font-size="10.00" fill="#000000">/nlohmann/detail/input/parser.hpp</text>
</a>
</g>
</g>
<!-- Node3&#45;&gt;Node14 -->
<g id="edge20" class="edge">
<title>Node3&#45;&gt;Node14</title>
<path fill="none" stroke="#191970" d="M336.2557,-650.71C348.026,-642.1278 358.8263,-631.9347 366.7442,-620 387.8869,-588.1316 390.0838,-542.508 388.9741,-514.0994"/>
<polygon fill="#191970" stroke="#191970" points="334.2379,-647.8499 327.9756,-656.3959 338.2004,-653.6204 334.2379,-647.8499"/>
</g>
<!-- Node5 -->
<g id="node5" class="node">
<title>Node5</title>
<g id="a_node5"><a xlink:href="_json_utilization_8h.html" target="_top" target="_top" xlink:title="This file contains the declaration of the namespace jsonUtilization. ">
<polygon fill="#ffffff" stroke="#000000" points="409.7442,-178.5 409.7442,-230.5 553.7442,-230.5 553.7442,-178.5 409.7442,-178.5"/>
<text text-anchor="start" x="417.7442" y="-218.5" font-family="Helvetica,sans-Serif" font-size="10.00" fill="#000000">/home/bdn_jz/bdn_jz</text>
<text text-anchor="start" x="417.7442" y="-207.5" font-family="Helvetica,sans-Serif" font-size="10.00" fill="#000000">/camera&#45;tracker&#45;cpp</text>
<text text-anchor="start" x="417.7442" y="-196.5" font-family="Helvetica,sans-Serif" font-size="10.00" fill="#000000">/CameraTrackerLinux/include</text>
<text text-anchor="middle" x="481.7442" y="-185.5" font-family="Helvetica,sans-Serif" font-size="10.00" fill="#000000">/JsonUtilization.h</text>
</a>
</g>
</g>
<!-- Node4&#45;&gt;Node5 -->
<g id="edge4" class="edge">
<title>Node4&#45;&gt;Node5</title>
<path fill="none" stroke="#191970" d="M481.7442,-257.1155C481.7442,-248.2061 481.7442,-238.8475 481.7442,-230.5341"/>
<polygon fill="#191970" stroke="#191970" points="478.2443,-257.2784 481.7442,-267.2784 485.2443,-257.2785 478.2443,-257.2784"/>
</g>
<!-- Node6 -->
<g id="node6" class="node">
<title>Node6</title>
<g id="a_node6"><a xlink:href="_pose_estimation_8h.html" target="_top" target="_top" xlink:title="This file contains the declaration of the PoseEstimation class. ">
<polygon fill="#ffffff" stroke="#000000" points="409.7442,-89.5 409.7442,-141.5 553.7442,-141.5 553.7442,-89.5 409.7442,-89.5"/>
<text text-anchor="start" x="417.7442" y="-129.5" font-family="Helvetica,sans-Serif" font-size="10.00" fill="#000000">/home/bdn_jz/bdn_jz</text>
<text text-anchor="start" x="417.7442" y="-118.5" font-family="Helvetica,sans-Serif" font-size="10.00" fill="#000000">/camera&#45;tracker&#45;cpp</text>
<text text-anchor="start" x="417.7442" y="-107.5" font-family="Helvetica,sans-Serif" font-size="10.00" fill="#000000">/CameraTrackerLinux/include</text>
<text text-anchor="middle" x="481.7442" y="-96.5" font-family="Helvetica,sans-Serif" font-size="10.00" fill="#000000">/PoseEstimation.h</text>
</a>
</g>
</g>
<!-- Node5&#45;&gt;Node6 -->
<g id="edge5" class="edge">
<title>Node5&#45;&gt;Node6</title>
<path fill="none" stroke="#191970" d="M481.7442,-168.1155C481.7442,-159.2061 481.7442,-149.8475 481.7442,-141.5341"/>
<polygon fill="#191970" stroke="#191970" points="478.2443,-168.2784 481.7442,-178.2784 485.2443,-168.2785 478.2443,-168.2784"/>
</g>
<!-- Node7 -->
<g id="node7" class="node">
<title>Node7</title>
<g id="a_node7"><a xlink:href="main_8cpp.html" target="_top" target="_top" xlink:title="/home/bdn_jz/bdn_jz\l/camera&#45;tracker&#45;cpp\l/CameraTrackerLinux/main.cpp">
<polygon fill="#ffffff" stroke="#000000" points="305.2442,-6 305.2442,-47 458.2442,-47 458.2442,-6 305.2442,-6"/>
<text text-anchor="start" x="313.2442" y="-35" font-family="Helvetica,sans-Serif" font-size="10.00" fill="#000000">/home/bdn_jz/bdn_jz</text>
<text text-anchor="start" x="313.2442" y="-24" font-family="Helvetica,sans-Serif" font-size="10.00" fill="#000000">/camera&#45;tracker&#45;cpp</text>
<text text-anchor="middle" x="381.7442" y="-13" font-family="Helvetica,sans-Serif" font-size="10.00" fill="#000000">/CameraTrackerLinux/main.cpp</text>
</a>
</g>
</g>
<!-- Node5&#45;&gt;Node7 -->
<g id="edge8" class="edge">
<title>Node5&#45;&gt;Node7</title>
<path fill="none" stroke="#191970" d="M427.7312,-172.0704C417.3301,-163.5125 407.5657,-153.4232 400.7442,-142 383.1363,-112.5138 380.4961,-71.623 380.7351,-47.2355"/>
<polygon fill="#191970" stroke="#191970" points="425.7258,-174.9445 435.7709,-178.313 430.0189,-169.4155 425.7258,-174.9445"/>
</g>
<!-- Node9 -->
<g id="node9" class="node">
<title>Node9</title>
<g id="a_node9"><a xlink:href="_json_utilization_8cpp.html" target="_top" target="_top" xlink:title="/home/bdn_jz/bdn_jz\l/camera&#45;tracker&#45;cpp\l/CameraTrackerLinux/src\l/JsonUtilization.cpp">
<polygon fill="#ffffff" stroke="#000000" points="572.2442,-89.5 572.2442,-141.5 699.2442,-141.5 699.2442,-89.5 572.2442,-89.5"/>
<text text-anchor="start" x="580.2442" y="-129.5" font-family="Helvetica,sans-Serif" font-size="10.00" fill="#000000">/home/bdn_jz/bdn_jz</text>
<text text-anchor="start" x="580.2442" y="-118.5" font-family="Helvetica,sans-Serif" font-size="10.00" fill="#000000">/camera&#45;tracker&#45;cpp</text>
<text text-anchor="start" x="580.2442" y="-107.5" font-family="Helvetica,sans-Serif" font-size="10.00" fill="#000000">/CameraTrackerLinux/src</text>
<text text-anchor="middle" x="635.7442" y="-96.5" font-family="Helvetica,sans-Serif" font-size="10.00" fill="#000000">/JsonUtilization.cpp</text>
</a>
</g>
</g>
<!-- Node5&#45;&gt;Node9 -->
<g id="edge9" class="edge">
<title>Node5&#45;&gt;Node9</title>
<path fill="none" stroke="#191970" d="M536.2517,-172.9989C554.0716,-162.7004 573.6534,-151.3837 590.6964,-141.5341"/>
<polygon fill="#191970" stroke="#191970" points="534.0232,-170.2443 527.1164,-178.2784 537.5258,-176.305 534.0232,-170.2443"/>
</g>
<!-- Node6&#45;&gt;Node7 -->
<g id="edge6" class="edge">
<title>Node6&#45;&gt;Node7</title>
<path fill="none" stroke="#191970" d="M444.6396,-82.4768C431.3511,-70.6501 416.7582,-57.6625 404.9769,-47.1771"/>
<polygon fill="#191970" stroke="#191970" points="442.4849,-85.2446 452.2818,-89.2784 447.1387,-80.0156 442.4849,-85.2446"/>
</g>
<!-- Node8 -->
<g id="node8" class="node">
<title>Node8</title>
<g id="a_node8"><a xlink:href="_pose_estimation_8cpp.html" target="_top" target="_top" xlink:title="/home/bdn_jz/bdn_jz\l/camera&#45;tracker&#45;cpp\l/CameraTrackerLinux/src\l/PoseEstimation.cpp">
<polygon fill="#ffffff" stroke="#000000" points="476.2442,-.5 476.2442,-52.5 603.2442,-52.5 603.2442,-.5 476.2442,-.5"/>
<text text-anchor="start" x="484.2442" y="-40.5" font-family="Helvetica,sans-Serif" font-size="10.00" fill="#000000">/home/bdn_jz/bdn_jz</text>
<text text-anchor="start" x="484.2442" y="-29.5" font-family="Helvetica,sans-Serif" font-size="10.00" fill="#000000">/camera&#45;tracker&#45;cpp</text>
<text text-anchor="start" x="484.2442" y="-18.5" font-family="Helvetica,sans-Serif" font-size="10.00" fill="#000000">/CameraTrackerLinux/src</text>
<text text-anchor="middle" x="539.7442" y="-7.5" font-family="Helvetica,sans-Serif" font-size="10.00" fill="#000000">/PoseEstimation.cpp</text>
</a>
</g>
</g>
<!-- Node6&#45;&gt;Node8 -->
<g id="edge7" class="edge">
<title>Node6&#45;&gt;Node8</title>
<path fill="none" stroke="#191970" d="M504.3235,-80.8525C510.4632,-71.4313 517.0071,-61.3897 522.7782,-52.5341"/>
<polygon fill="#191970" stroke="#191970" points="501.36,-78.9895 498.8325,-89.2784 507.2246,-82.8114 501.36,-78.9895"/>
</g>
<!-- Node10&#45;&gt;Node4 -->
<g id="edge11" class="edge">
<title>Node10&#45;&gt;Node4</title>
<path fill="none" stroke="#191970" d="M89.967,-547.0398C86.1487,-538.3581 82.7718,-529.0704 80.7442,-520 64.674,-448.109 50.8326,-406.2007 104.7442,-356 147.8967,-315.8179 312.8772,-301.3041 409.7026,-296.1857"/>
<polygon fill="#191970" stroke="#191970" points="86.8356,-548.6062 94.2405,-556.1836 93.1772,-545.6423 86.8356,-548.6062"/>
</g>
<!-- Node11 -->
<g id="node11" class="node">
<title>Node11</title>
<g id="a_node11"><a xlink:href="binary__writer_8hpp.html" target="_top" target="_top" xlink:title="/home/bdn_jz/bdn_jz\l/camera&#45;tracker&#45;cpp\l/CameraTrackerLinux/include\l/nlohmann/detail/output/binary\l_writer.hpp">
<polygon fill="#ffffff" stroke="#000000" points="90.2442,-456.5 90.2442,-519.5 237.2442,-519.5 237.2442,-456.5 90.2442,-456.5"/>
<text text-anchor="start" x="98.2442" y="-507.5" font-family="Helvetica,sans-Serif" font-size="10.00" fill="#000000">/home/bdn_jz/bdn_jz</text>
<text text-anchor="start" x="98.2442" y="-496.5" font-family="Helvetica,sans-Serif" font-size="10.00" fill="#000000">/camera&#45;tracker&#45;cpp</text>
<text text-anchor="start" x="98.2442" y="-485.5" font-family="Helvetica,sans-Serif" font-size="10.00" fill="#000000">/CameraTrackerLinux/include</text>
<text text-anchor="start" x="98.2442" y="-474.5" font-family="Helvetica,sans-Serif" font-size="10.00" fill="#000000">/nlohmann/detail/output/binary</text>
<text text-anchor="middle" x="163.7442" y="-463.5" font-family="Helvetica,sans-Serif" font-size="10.00" fill="#000000">_writer.hpp</text>
</a>
</g>
</g>
<!-- Node10&#45;&gt;Node11 -->
<g id="edge12" class="edge">
<title>Node10&#45;&gt;Node11</title>
<path fill="none" stroke="#191970" d="M133.4695,-547.3622C138.1571,-538.1709 143.0679,-528.5418 147.5374,-519.778"/>
<polygon fill="#191970" stroke="#191970" points="130.3063,-545.8608 128.881,-556.3594 136.5422,-549.0412 130.3063,-545.8608"/>
</g>
<!-- Node11&#45;&gt;Node4 -->
<g id="edge13" class="edge">
<title>Node11&#45;&gt;Node4</title>
<path fill="none" stroke="#191970" d="M131.3126,-447.7783C112.6154,-419.458 96.76,-382.0929 118.7442,-356 137.2859,-333.9931 309.215,-312.0344 409.6638,-300.9359"/>
<polygon fill="#191970" stroke="#191970" points="128.6043,-450.0158 137.1677,-456.2544 134.3638,-446.0373 128.6043,-450.0158"/>
</g>
<!-- Node12 -->
<g id="node12" class="node">
<title>Node12</title>
<g id="a_node12"><a xlink:href="serializer_8hpp.html" target="_top" target="_top" xlink:title="/home/bdn_jz/bdn_jz\l/camera&#45;tracker&#45;cpp\l/CameraTrackerLinux/include\l/nlohmann/detail/output/serializer.hpp">
<polygon fill="#ffffff" stroke="#000000" points="128.2442,-362 128.2442,-414 307.2442,-414 307.2442,-362 128.2442,-362"/>
<text text-anchor="start" x="136.2442" y="-402" font-family="Helvetica,sans-Serif" font-size="10.00" fill="#000000">/home/bdn_jz/bdn_jz</text>
<text text-anchor="start" x="136.2442" y="-391" font-family="Helvetica,sans-Serif" font-size="10.00" fill="#000000">/camera&#45;tracker&#45;cpp</text>
<text text-anchor="start" x="136.2442" y="-380" font-family="Helvetica,sans-Serif" font-size="10.00" fill="#000000">/CameraTrackerLinux/include</text>
<text text-anchor="middle" x="217.7442" y="-369" font-family="Helvetica,sans-Serif" font-size="10.00" fill="#000000">/nlohmann/detail/output/serializer.hpp</text>
</a>
</g>
</g>
<!-- Node11&#45;&gt;Node12 -->
<g id="edge14" class="edge">
<title>Node11&#45;&gt;Node12</title>
<path fill="none" stroke="#191970" d="M185.6111,-447.5058C191.7002,-436.2297 198.1509,-424.284 203.6621,-414.078"/>
<polygon fill="#191970" stroke="#191970" points="182.502,-445.8973 180.8302,-456.3594 188.6614,-449.2233 182.502,-445.8973"/>
</g>
<!-- Node12&#45;&gt;Node4 -->
<g id="edge15" class="edge">
<title>Node12&#45;&gt;Node4</title>
<path fill="none" stroke="#191970" d="M300.3078,-358.446C335.3353,-345.9078 375.7914,-331.4263 409.601,-319.324"/>
<polygon fill="#191970" stroke="#191970" points="298.8177,-355.2618 290.5822,-361.9273 301.1768,-361.8524 298.8177,-355.2618"/>
</g>
<!-- Node13&#45;&gt;Node4 -->
<g id="edge17" class="edge">
<title>Node13&#45;&gt;Node4</title>
<path fill="none" stroke="#191970" d="M278.3526,-551.7574C278.0708,-524.011 281.1314,-485.6025 296.7442,-456 328.553,-395.6896 392.5397,-347.4511 436.2599,-319.6536"/>
<polygon fill="#191970" stroke="#191970" points="274.8555,-551.9197 278.6051,-561.8288 281.8533,-551.7442 274.8555,-551.9197"/>
</g>
<!-- Node13&#45;&gt;Node14 -->
<g id="edge18" class="edge">
<title>Node13&#45;&gt;Node14</title>
<path fill="none" stroke="#191970" d="M315.8736,-554.8591C329.8756,-541.6496 345.7623,-526.6622 358.9405,-514.2299"/>
<polygon fill="#191970" stroke="#191970" points="313.19,-552.5791 308.3178,-561.9872 317.9935,-557.6709 313.19,-552.5791"/>
</g>
<!-- Node14&#45;&gt;Node4 -->
<g id="edge19" class="edge">
<title>Node14&#45;&gt;Node4</title>
<path fill="none" stroke="#191970" d="M404.0765,-452.5144C422.8178,-414.1442 452.2482,-353.8892 468.9838,-319.6254"/>
<polygon fill="#191970" stroke="#191970" points="400.8003,-451.2473 399.5564,-461.7689 407.0901,-454.3195 400.8003,-451.2473"/>
</g>
<!-- Node15&#45;&gt;Node4 -->
<g id="edge22" class="edge">
<title>Node15&#45;&gt;Node4</title>
<path fill="none" stroke="#191970" d="M581.1486,-746.6575C563.2052,-694.446 532.9065,-601.5666 514.7442,-520 498.766,-448.2419 488.6477,-361.9111 484.2642,-319.5441"/>
<polygon fill="#191970" stroke="#191970" points="577.8829,-747.9235 584.4573,-756.2317 584.4989,-745.637 577.8829,-747.9235"/>
</g>
<!-- Node16 -->
<g id="node16" class="node">
<title>Node16</title>
<g id="a_node16"><a xlink:href="from__json_8hpp.html" target="_top" target="_top" xlink:title="/home/bdn_jz/bdn_jz\l/camera&#45;tracker&#45;cpp\l/CameraTrackerLinux/include\l/nlohmann/detail/conversions\l/from_json.hpp">
<polygon fill="#ffffff" stroke="#000000" points="523.7442,-456.5 523.7442,-519.5 667.7442,-519.5 667.7442,-456.5 523.7442,-456.5"/>
<text text-anchor="start" x="531.7442" y="-507.5" font-family="Helvetica,sans-Serif" font-size="10.00" fill="#000000">/home/bdn_jz/bdn_jz</text>
<text text-anchor="start" x="531.7442" y="-496.5" font-family="Helvetica,sans-Serif" font-size="10.00" fill="#000000">/camera&#45;tracker&#45;cpp</text>
<text text-anchor="start" x="531.7442" y="-485.5" font-family="Helvetica,sans-Serif" font-size="10.00" fill="#000000">/CameraTrackerLinux/include</text>
<text text-anchor="start" x="531.7442" y="-474.5" font-family="Helvetica,sans-Serif" font-size="10.00" fill="#000000">/nlohmann/detail/conversions</text>
<text text-anchor="middle" x="595.7442" y="-463.5" font-family="Helvetica,sans-Serif" font-size="10.00" fill="#000000">/from_json.hpp</text>
</a>
</g>
</g>
<!-- Node15&#45;&gt;Node16 -->
<g id="edge23" class="edge">
<title>Node15&#45;&gt;Node16</title>
<path fill="none" stroke="#191970" d="M595.7442,-746.4554C595.7442,-685.7313 595.7442,-574.0516 595.7442,-519.5658"/>
<polygon fill="#191970" stroke="#191970" points="592.2443,-746.4617 595.7442,-756.4618 599.2443,-746.4618 592.2443,-746.4617"/>
</g>
<!-- Node18 -->
<g id="node18" class="node">
<title>Node18</title>
<g id="a_node18"><a xlink:href="to__json_8hpp.html" target="_top" target="_top" xlink:title="/home/bdn_jz/bdn_jz\l/camera&#45;tracker&#45;cpp\l/CameraTrackerLinux/include\l/nlohmann/detail/conversions\l/to_json.hpp">
<polygon fill="#ffffff" stroke="#000000" points="685.7442,-456.5 685.7442,-519.5 829.7442,-519.5 829.7442,-456.5 685.7442,-456.5"/>
<text text-anchor="start" x="693.7442" y="-507.5" font-family="Helvetica,sans-Serif" font-size="10.00" fill="#000000">/home/bdn_jz/bdn_jz</text>
<text text-anchor="start" x="693.7442" y="-496.5" font-family="Helvetica,sans-Serif" font-size="10.00" fill="#000000">/camera&#45;tracker&#45;cpp</text>
<text text-anchor="start" x="693.7442" y="-485.5" font-family="Helvetica,sans-Serif" font-size="10.00" fill="#000000">/CameraTrackerLinux/include</text>
<text text-anchor="start" x="693.7442" y="-474.5" font-family="Helvetica,sans-Serif" font-size="10.00" fill="#000000">/nlohmann/detail/conversions</text>
<text text-anchor="middle" x="757.7442" y="-463.5" font-family="Helvetica,sans-Serif" font-size="10.00" fill="#000000">/to_json.hpp</text>
</a>
</g>
</g>
<!-- Node15&#45;&gt;Node18 -->
<g id="edge27" class="edge">
<title>Node15&#45;&gt;Node18</title>
<path fill="none" stroke="#191970" d="M607.3666,-746.4188C624.0121,-688.5983 655.0248,-587.4652 676.7442,-556 686.1316,-542.4004 698.9298,-529.9585 711.5803,-519.5411"/>
<polygon fill="#191970" stroke="#191970" points="603.9136,-745.7639 604.5288,-756.3408 610.6438,-747.6888 603.9136,-745.7639"/>
</g>
<!-- Node19 -->
<g id="node19" class="node">
<title>Node19</title>
<g id="a_node19"><a xlink:href="iter__impl_8hpp.html" target="_top" target="_top" xlink:title="/home/bdn_jz/bdn_jz\l/camera&#45;tracker&#45;cpp\l/CameraTrackerLinux/include\l/nlohmann/detail/iterators\l/iter_impl.hpp">
<polygon fill="#ffffff" stroke="#000000" points="747.7442,-356.5 747.7442,-419.5 891.7442,-419.5 891.7442,-356.5 747.7442,-356.5"/>
<text text-anchor="start" x="755.7442" y="-407.5" font-family="Helvetica,sans-Serif" font-size="10.00" fill="#000000">/home/bdn_jz/bdn_jz</text>
<text text-anchor="start" x="755.7442" y="-396.5" font-family="Helvetica,sans-Serif" font-size="10.00" fill="#000000">/camera&#45;tracker&#45;cpp</text>
<text text-anchor="start" x="755.7442" y="-385.5" font-family="Helvetica,sans-Serif" font-size="10.00" fill="#000000">/CameraTrackerLinux/include</text>
<text text-anchor="start" x="755.7442" y="-374.5" font-family="Helvetica,sans-Serif" font-size="10.00" fill="#000000">/nlohmann/detail/iterators</text>
<text text-anchor="middle" x="819.7442" y="-363.5" font-family="Helvetica,sans-Serif" font-size="10.00" fill="#000000">/iter_impl.hpp</text>
</a>
</g>
</g>
<!-- Node15&#45;&gt;Node19 -->
<g id="edge30" class="edge">
<title>Node15&#45;&gt;Node19</title>
<path fill="none" stroke="#191970" d="M677.1088,-756.4031C733.8738,-729.5197 805.2332,-684.8501 838.7442,-620 872.2314,-555.1961 849.0509,-466.4404 832.4653,-419.7251"/>
<polygon fill="#191970" stroke="#191970" points="675.3755,-753.3486 667.7732,-760.728 678.318,-759.7002 675.3755,-753.3486"/>
</g>
<!-- Node20 -->
<g id="node20" class="node">
<title>Node20</title>
<g id="a_node20"><a xlink:href="iteration__proxy_8hpp.html" target="_top" target="_top" xlink:title="/home/bdn_jz/bdn_jz\l/camera&#45;tracker&#45;cpp\l/CameraTrackerLinux/include\l/nlohmann/detail/iterators\l/iteration_proxy.hpp">
<polygon fill="#ffffff" stroke="#000000" points="685.7442,-556.5 685.7442,-619.5 829.7442,-619.5 829.7442,-556.5 685.7442,-556.5"/>
<text text-anchor="start" x="693.7442" y="-607.5" font-family="Helvetica,sans-Serif" font-size="10.00" fill="#000000">/home/bdn_jz/bdn_jz</text>
<text text-anchor="start" x="693.7442" y="-596.5" font-family="Helvetica,sans-Serif" font-size="10.00" fill="#000000">/camera&#45;tracker&#45;cpp</text>
<text text-anchor="start" x="693.7442" y="-585.5" font-family="Helvetica,sans-Serif" font-size="10.00" fill="#000000">/CameraTrackerLinux/include</text>
<text text-anchor="start" x="693.7442" y="-574.5" font-family="Helvetica,sans-Serif" font-size="10.00" fill="#000000">/nlohmann/detail/iterators</text>
<text text-anchor="middle" x="757.7442" y="-563.5" font-family="Helvetica,sans-Serif" font-size="10.00" fill="#000000">/iteration_proxy.hpp</text>
</a>
</g>
</g>
<!-- Node15&#45;&gt;Node20 -->
<g id="edge32" class="edge">
<title>Node15&#45;&gt;Node20</title>
<path fill="none" stroke="#191970" d="M634.2532,-748.6378C642.852,-739.4257 651.7778,-729.5184 659.7442,-720 687.4057,-686.9498 716.531,-646.9636 735.7694,-619.7224"/>
<polygon fill="#191970" stroke="#191970" points="631.4479,-746.5112 627.1354,-756.1887 636.5416,-751.3127 631.4479,-746.5112"/>
</g>
<!-- Node21 -->
<g id="node21" class="node">
<title>Node21</title>
<g id="a_node21"><a xlink:href="json__ref_8hpp.html" target="_top" target="_top" xlink:title="/home/bdn_jz/bdn_jz\l/camera&#45;tracker&#45;cpp\l/CameraTrackerLinux/include\l/nlohmann/detail/json_ref.hpp">
<polygon fill="#ffffff" stroke="#000000" points="885.7442,-662 885.7442,-714 1029.7442,-714 1029.7442,-662 885.7442,-662"/>
<text text-anchor="start" x="893.7442" y="-702" font-family="Helvetica,sans-Serif" font-size="10.00" fill="#000000">/home/bdn_jz/bdn_jz</text>
<text text-anchor="start" x="893.7442" y="-691" font-family="Helvetica,sans-Serif" font-size="10.00" fill="#000000">/camera&#45;tracker&#45;cpp</text>
<text text-anchor="start" x="893.7442" y="-680" font-family="Helvetica,sans-Serif" font-size="10.00" fill="#000000">/CameraTrackerLinux/include</text>
<text text-anchor="middle" x="957.7442" y="-669" font-family="Helvetica,sans-Serif" font-size="10.00" fill="#000000">/nlohmann/detail/json_ref.hpp</text>
</a>
</g>
</g>
<!-- Node15&#45;&gt;Node21 -->
<g id="edge35" class="edge">
<title>Node15&#45;&gt;Node21</title>
<path fill="none" stroke="#191970" d="M677.9315,-770.3493C733.1711,-757.8522 807.3669,-739.8362 871.7442,-720 877.6817,-718.1705 883.8061,-716.1558 889.9226,-714.0547"/>
<polygon fill="#191970" stroke="#191970" points="676.8327,-767.0089 667.8443,-772.6178 678.3685,-773.8384 676.8327,-767.0089"/>
</g>
<!-- Node22 -->
<g id="node22" class="node">
<title>Node22</title>
<g id="a_node22"><a xlink:href="is__sax_8hpp.html" target="_top" target="_top" xlink:title="/home/bdn_jz/bdn_jz\l/camera&#45;tracker&#45;cpp\l/CameraTrackerLinux/include\l/nlohmann/detail/meta/is\l_sax.hpp">
<polygon fill="#ffffff" stroke="#000000" points="345.7442,-656.5 345.7442,-719.5 489.7442,-719.5 489.7442,-656.5 345.7442,-656.5"/>
<text text-anchor="start" x="353.7442" y="-707.5" font-family="Helvetica,sans-Serif" font-size="10.00" fill="#000000">/home/bdn_jz/bdn_jz</text>
<text text-anchor="start" x="353.7442" y="-696.5" font-family="Helvetica,sans-Serif" font-size="10.00" fill="#000000">/camera&#45;tracker&#45;cpp</text>
<text text-anchor="start" x="353.7442" y="-685.5" font-family="Helvetica,sans-Serif" font-size="10.00" fill="#000000">/CameraTrackerLinux/include</text>
<text text-anchor="start" x="353.7442" y="-674.5" font-family="Helvetica,sans-Serif" font-size="10.00" fill="#000000">/nlohmann/detail/meta/is</text>
<text text-anchor="middle" x="417.7442" y="-663.5" font-family="Helvetica,sans-Serif" font-size="10.00" fill="#000000">_sax.hpp</text>
</a>
</g>
</g>
<!-- Node15&#45;&gt;Node22 -->
<g id="edge37" class="edge">
<title>Node15&#45;&gt;Node22</title>
<path fill="none" stroke="#191970" d="M530.4655,-751.3265C511.9432,-740.9208 491.9423,-729.6843 474.0035,-719.6063"/>
<polygon fill="#191970" stroke="#191970" points="528.9912,-754.5128 539.4239,-756.3594 532.4198,-748.4099 528.9912,-754.5128"/>
</g>
<!-- Node16&#45;&gt;Node4 -->
<g id="edge24" class="edge">
<title>Node16&#45;&gt;Node4</title>
<path fill="none" stroke="#191970" d="M559.542,-448.4921C552.1728,-439.4763 544.8246,-429.6878 538.7442,-420 518.2558,-387.3556 501.1122,-346.1026 491.1358,-319.7535"/>
<polygon fill="#191970" stroke="#191970" points="556.8882,-450.7745 565.992,-456.1941 562.255,-446.2802 556.8882,-450.7745"/>
</g>
<!-- Node17 -->
<g id="node17" class="node">
<title>Node17</title>
<g id="a_node17"><a xlink:href="adl__serializer_8hpp.html" target="_top" target="_top" xlink:title="/home/bdn_jz/bdn_jz\l/camera&#45;tracker&#45;cpp\l/CameraTrackerLinux/include\l/nlohmann/adl_serializer.hpp">
<polygon fill="#ffffff" stroke="#000000" points="547.7442,-362 547.7442,-414 691.7442,-414 691.7442,-362 547.7442,-362"/>
<text text-anchor="start" x="555.7442" y="-402" font-family="Helvetica,sans-Serif" font-size="10.00" fill="#000000">/home/bdn_jz/bdn_jz</text>
<text text-anchor="start" x="555.7442" y="-391" font-family="Helvetica,sans-Serif" font-size="10.00" fill="#000000">/camera&#45;tracker&#45;cpp</text>
<text text-anchor="start" x="555.7442" y="-380" font-family="Helvetica,sans-Serif" font-size="10.00" fill="#000000">/CameraTrackerLinux/include</text>
<text text-anchor="middle" x="619.7442" y="-369" font-family="Helvetica,sans-Serif" font-size="10.00" fill="#000000">/nlohmann/adl_serializer.hpp</text>
</a>
</g>
</g>
<!-- Node16&#45;&gt;Node17 -->
<g id="edge25" class="edge">
<title>Node16&#45;&gt;Node17</title>
<path fill="none" stroke="#191970" d="M605.7044,-446.4993C608.3391,-435.5216 611.1088,-423.9808 613.4855,-414.078"/>
<polygon fill="#191970" stroke="#191970" points="602.2684,-445.8187 603.338,-456.3594 609.0752,-447.4523 602.2684,-445.8187"/>
</g>
<!-- Node17&#45;&gt;Node4 -->
<g id="edge26" class="edge">
<title>Node17&#45;&gt;Node4</title>
<path fill="none" stroke="#191970" d="M573.3766,-356.2483C556.0892,-344.4101 536.6702,-331.1124 520.1735,-319.8157"/>
<polygon fill="#191970" stroke="#191970" points="571.4414,-359.165 581.6698,-361.9273 575.3965,-353.3894 571.4414,-359.165"/>
</g>
<!-- Node18&#45;&gt;Node4 -->
<g id="edge28" class="edge">
<title>Node18&#45;&gt;Node4</title>
<path fill="none" stroke="#191970" d="M744.2231,-446.54C732.4205,-412.7034 714.9992,-368.5172 700.7442,-356 678.7214,-336.6618 608.762,-318.7613 553.7718,-307.1185"/>
<polygon fill="#191970" stroke="#191970" points="740.9879,-447.8958 747.5456,-456.2173 747.6086,-445.6227 740.9879,-447.8958"/>
</g>
<!-- Node18&#45;&gt;Node17 -->
<g id="edge29" class="edge">
<title>Node18&#45;&gt;Node17</title>
<path fill="none" stroke="#191970" d="M705.5409,-450.1715C688.9278,-438.133 670.9317,-425.0923 655.7318,-414.078"/>
<polygon fill="#191970" stroke="#191970" points="703.9289,-453.3257 714.0802,-456.3594 708.0364,-447.6575 703.9289,-453.3257"/>
</g>
<!-- Node19&#45;&gt;Node4 -->
<g id="edge31" class="edge">
<title>Node19&#45;&gt;Node4</title>
<path fill="none" stroke="#191970" d="M738.0548,-357.3531C736.6089,-356.8924 735.1712,-356.4409 733.7442,-356 673.7738,-337.471 604.4838,-320.6072 553.7567,-309.0794"/>
<polygon fill="#191970" stroke="#191970" points="737.0939,-360.7214 747.6867,-360.514 739.2765,-354.0703 737.0939,-360.7214"/>
</g>
<!-- Node20&#45;&gt;Node4 -->
<g id="edge33" class="edge">
<title>Node20&#45;&gt;Node4</title>
<path fill="none" stroke="#191970" d="M809.9622,-550.1904C870.1073,-502.1382 954.1787,-417.9962 900.7442,-356 878.4464,-330.1294 667.9136,-308.8968 554.0463,-299.1919"/>
<polygon fill="#191970" stroke="#191970" points="807.7151,-547.505 802.0204,-556.4392 812.0436,-553.0063 807.7151,-547.505"/>
</g>
<!-- Node20&#45;&gt;Node18 -->
<g id="edge34" class="edge">
<title>Node20&#45;&gt;Node18</title>
<path fill="none" stroke="#191970" d="M757.7442,-546.2111C757.7442,-537.37 757.7442,-528.1767 757.7442,-519.778"/>
<polygon fill="#191970" stroke="#191970" points="754.2443,-546.3593 757.7442,-556.3594 761.2443,-546.3594 754.2443,-546.3593"/>
</g>
<!-- Node21&#45;&gt;Node4 -->
<g id="edge36" class="edge">
<title>Node21&#45;&gt;Node4</title>
<path fill="none" stroke="#191970" d="M966.6265,-651.7917C980.9438,-583.7268 1000.2583,-436.3361 922.7442,-356 897.5758,-329.9152 672.7043,-308.513 554.165,-298.927"/>
<polygon fill="#191970" stroke="#191970" points="963.1929,-651.11 964.4749,-661.627 970.0312,-652.6061 963.1929,-651.11"/>
</g>
<!-- Node22&#45;&gt;Node10 -->
<g id="edge38" class="edge">
<title>Node22&#45;&gt;Node10</title>
<path fill="none" stroke="#191970" d="M335.8251,-655.8573C272.5524,-636.2547 253.2058,-639.1412 193.7442,-620 190.8657,-619.0734 187.9425,-618.0962 184.9993,-617.0821"/>
<polygon fill="#191970" stroke="#191970" points="334.8991,-659.2353 345.4892,-658.9179 337.0126,-652.5619 334.8991,-659.2353"/>
</g>
<!-- Node22&#45;&gt;Node14 -->
<g id="edge39" class="edge">
<title>Node22&#45;&gt;Node14</title>
<path fill="none" stroke="#191970" d="M413.1692,-646.1696C410.1227,-620.1525 405.7646,-586.0454 400.7442,-556 398.4201,-542.0906 395.2961,-526.6916 392.5888,-514.07"/>
<polygon fill="#191970" stroke="#191970" points="409.7299,-646.8975 414.352,-656.4309 416.6838,-646.0958 409.7299,-646.8975"/>
</g>
<!-- Node23&#45;&gt;Node15 -->
<g id="edge42" class="edge">
<title>Node23&#45;&gt;Node15</title>
<path fill="none" stroke="#191970" d="M558.6216,-853.1274C564.838,-842.2215 571.6585,-830.2557 577.7384,-819.5891"/>
<polygon fill="#191970" stroke="#191970" points="555.4829,-851.5662 553.5715,-861.9872 561.5643,-855.0327 555.4829,-851.5662"/>
</g>
<!-- Node23&#45;&gt;Node22 -->
<g id="edge41" class="edge">
<title>Node23&#45;&gt;Node22</title>
<path fill="none" stroke="#191970" d="M517.7218,-853.2521C494.9663,-815.6398 458.9857,-756.1678 436.9609,-719.7631"/>
<polygon fill="#191970" stroke="#191970" points="514.7546,-855.1092 522.9256,-861.8535 520.7438,-851.4857 514.7546,-855.1092"/>
</g>
</g>
</svg>
        <g id="navigator" transform="translate(0 0)" fill="#404254">
                <rect fill="#f2f5e9" fill-opacity="0.5" stroke="#606060" stroke-width=".5" x="0" y="0" width="60" height="60"/>
                <use id="zoomplus" xlink:href="#zoomPlus" target="_top" x="17" y="9" onmousedown="handleZoom(evt,'in')"/>
                <use id="zoomminus" xlink:href="#zoomMin" target="_top" x="42" y="9" onmousedown="handleZoom(evt,'out')"/>
                <use id="reset" xlink:href="#resetDef" target="_top" x="30" y="36" onmousedown="handleReset()"/>
                <g id="arrowUp" xlink:href="#dirArrow" target="_top" transform="translate(30 24)" onmousedown="handlePan(0,-1)">
                  <use xlink:href="#rim" target="_top" fill="#404040">
                        <set attributeName="fill" to="#808080" begin="arrowUp.mouseover" end="arrowUp.mouseout"/>
                  </use>
                  <path fill="none" stroke="white" stroke-width="1.5" d="M0,-3.0v7 M-2.5,-0.5L0,-3.0L2.5,-0.5"/>
                </g>
                <g id="arrowRight" xlink:href="#dirArrow" target="_top" transform="rotate(90) translate(36 -43)" onmousedown="handlePan(1,0)">
                  <use xlink:href="#rim" target="_top" fill="#404040">
                        <set attributeName="fill" to="#808080" begin="arrowRight.mouseover" end="arrowRight.mouseout"/>
                  </use>
                  <path fill="none" stroke="white" stroke-width="1.5" d="M0,-3.0v7 M-2.5,-0.5L0,-3.0L2.5,-0.5"/>
                </g>
                <g id="arrowDown" xlink:href="#dirArrow" target="_top" transform="rotate(180) translate(-30 -48)" onmousedown="handlePan(0,1)">
                  <use xlink:href="#rim" target="_top" fill="#404040">
                        <set attributeName="fill" to="#808080" begin="arrowDown.mouseover" end="arrowDown.mouseout"/>
                  </use>
                  <path fill="none" stroke="white" stroke-width="1.5" d="M0,-3.0v7 M-2.5,-0.5L0,-3.0L2.5,-0.5"/>
                </g>
                <g id="arrowLeft" xlink:href="#dirArrow" target="_top" transform="rotate(270) translate(-36 17)" onmousedown="handlePan(-1,0)">
                  <use xlink:href="#rim" target="_top" fill="#404040">
                        <set attributeName="fill" to="#808080" begin="arrowLeft.mouseover" end="arrowLeft.mouseout"/>
                  </use>
                  <path fill="none" stroke="white" stroke-width="1.5" d="M0,-3.0v7 M-2.5,-0.5L0,-3.0L2.5,-0.5"/>
                </g>
        </g>
        <svg viewBox="0 0 15 15" width="100%" height="30px" preserveAspectRatio="xMaxYMin meet">
         <g id="arrow_out" transform="scale(0.3 0.3)">
          <a xlink:href="void__t_8hpp__dep__incl_org.svg" target="_top" target="_base">
           <rect id="button" ry="5" rx="5" y="6" x="6" height="38" width="38"
                fill="#f2f5e9" fill-opacity="0.5" stroke="#606060" stroke-width="1.0"/>
           <path id="arrow"
             d="M 11.500037,31.436501 C 11.940474,20.09759 22.043105,11.32322 32.158766,21.979434 L 37.068811,17.246167 C 37.068811,17.246167 37.088388,32 37.088388,32 L 22.160133,31.978069 C 22.160133,31.978069 26.997745,27.140456 26.997745,27.140456 C 18.528582,18.264221 13.291696,25.230495 11.500037,31.436501 z"
             style="fill:#404040;"/>
          </a>
         </g>
        </svg>
</svg>
